<svg width="32" height="32" viewBox="0 0 32 32" fill="none" xmlns="http://www.w3.org/2000/svg">
<path d="M22.5 13.0001H24V22H22.5V32H21.5V22H20V13.0001H21.5V11.0001H22.5V13.0001Z" fill="#0AA0B0"/>
<path d="M30 11V18H28.5V22H27.5V18H26V11H30Z" fill="#0AA0B0"/>
<path d="M16.5 20V16H15.5V20H14V28H15.5V30H16.5V28H18V20H16.5Z" fill="#0AA0B0"/>
<path d="M10.5 15H12V21H10.5V28H9.5V21H8V15H9.5V13H10.5V15Z" fill="#0AA0B0"/>
<path d="M4.5 19H6V23H4.5V25H3.5V23H2V19H3.5V17H4.5V19Z" fill="#0AA0B0"/>
<path fill-rule="evenodd" clip-rule="evenodd" d="M2 0C0.895431 0 0 0.89543 0 2V8C0 9.10457 0.89543 10 2 10H12C13.1046 10 14 9.10457 14 8V2C14 0.895431 13.1046 0 12 0H2ZM2.65912 8.00001H6.61112V6.99201H3.97112L5.01112 6.17601C5.20846 6.01601 5.39779 5.85867 5.57912 5.70401C5.76046 5.54934 5.91779 5.38667 6.05112 5.21601C6.18979 5.04001 6.29912 4.85334 6.37912 4.65601C6.45912 4.45867 6.49912 4.24001 6.49912 4.00001C6.49912 3.76001 6.45646 3.53867 6.37112 3.33601C6.28579 3.12801 6.16046 2.94934 5.99512 2.80001C5.83512 2.65067 5.63779 2.53334 5.40312 2.44801C5.16846 2.36267 4.89912 2.32001 4.59512 2.32001C4.30712 2.32001 4.04846 2.35734 3.81912 2.43201C3.58979 2.50667 3.38979 2.61067 3.21912 2.74401C3.05379 2.87201 2.91512 3.02401 2.80312 3.20001C2.69112 3.37067 2.60312 3.55201 2.53912 3.74401L3.58712 4.14401C3.61379 4.03734 3.65112 3.93867 3.69912 3.84801C3.74712 3.75201 3.80579 3.66934 3.87512 3.60001C3.94979 3.52534 4.03512 3.46667 4.13112 3.42401C4.23246 3.38134 4.34979 3.36001 4.48312 3.36001C4.57379 3.36001 4.66179 3.37334 4.74712 3.40001C4.83779 3.42667 4.91779 3.46667 4.98712 3.52001C5.05646 3.57334 5.11246 3.64001 5.15512 3.72001C5.19779 3.80001 5.21912 3.89334 5.21912 4.00001V4.11201C5.21912 4.22934 5.20312 4.33867 5.17112 4.44001C5.14446 4.54134 5.09646 4.64534 5.02712 4.75201C4.96312 4.85334 4.87779 4.96001 4.77112 5.07201C4.66446 5.17867 4.53379 5.29867 4.37912 5.43201L2.65912 6.90401V8.00001ZM8.64 3.46401H11.176V2.41601H7.76L7.552 5.57601L8.536 5.71201C8.61067 5.62667 8.71733 5.54134 8.856 5.45601C9 5.36534 9.18133 5.32001 9.4 5.32001C9.66133 5.32001 9.86666 5.39467 10.016 5.54401C10.1653 5.69334 10.24 5.89601 10.24 6.15201V6.21601C10.24 6.48801 10.1653 6.70667 10.016 6.87201C9.872 7.03734 9.656 7.12001 9.368 7.12001C9.08 7.12001 8.85067 7.04534 8.68 6.89601C8.50933 6.74134 8.36267 6.55467 8.24 6.33601L7.368 7.02401C7.45333 7.16801 7.55467 7.30401 7.672 7.43201C7.78933 7.56001 7.928 7.67467 8.088 7.77601C8.248 7.87201 8.432 7.94934 8.64 8.00801C8.848 8.06668 9.088 8.09601 9.36 8.09601C9.70133 8.09601 10.0053 8.04801 10.272 7.95201C10.5387 7.85067 10.7627 7.71201 10.944 7.53601C11.1307 7.36001 11.2693 7.15201 11.36 6.91201C11.456 6.66667 11.504 6.40267 11.504 6.12001C11.504 5.84267 11.4587 5.59467 11.368 5.37601C11.2773 5.15201 11.1547 4.96534 11 4.81601C10.8453 4.66134 10.664 4.54401 10.456 4.46401C10.248 4.38401 10.024 4.34401 9.784 4.34401C9.608 4.34401 9.456 4.36534 9.328 4.40801C9.2 4.45067 9.09067 4.51201 9 4.59201C8.90933 4.66667 8.82933 4.76001 8.76 4.87201C8.696 4.97867 8.63733 5.09867 8.584 5.23201H8.52L8.64 3.46401Z" fill="#414652"/>
<path d="M6.61112 8.00001H2.65912V6.90401L4.37912 5.43201C4.53379 5.29867 4.66446 5.17867 4.77112 5.07201C4.87779 4.96001 4.96312 4.85334 5.02712 4.75201C5.09646 4.64534 5.14446 4.54134 5.17112 4.44001C5.20312 4.33867 5.21912 4.22934 5.21912 4.11201V4.00001C5.21912 3.89334 5.19779 3.80001 5.15512 3.72001C5.11246 3.64001 5.05646 3.57334 4.98712 3.52001C4.91779 3.46667 4.83779 3.42667 4.74712 3.40001C4.66179 3.37334 4.57379 3.36001 4.48312 3.36001C4.34979 3.36001 4.23246 3.38134 4.13112 3.42401C4.03512 3.46667 3.94979 3.52534 3.87512 3.60001C3.80579 3.66934 3.74712 3.75201 3.69912 3.84801C3.65112 3.93867 3.61379 4.03734 3.58712 4.14401L2.53912 3.74401C2.60312 3.55201 2.69112 3.37067 2.80312 3.20001C2.91512 3.02401 3.05379 2.87201 3.21912 2.74401C3.38979 2.61067 3.58979 2.50667 3.81912 2.43201C4.04846 2.35734 4.30712 2.32001 4.59512 2.32001C4.89912 2.32001 5.16846 2.36267 5.40312 2.44801C5.63779 2.53334 5.83512 2.65067 5.99512 2.80001C6.16046 2.94934 6.28579 3.12801 6.37112 3.33601C6.45646 3.53867 6.49912 3.76001 6.49912 4.00001C6.49912 4.24001 6.45912 4.45867 6.37912 4.65601C6.29912 4.85334 6.18979 5.04001 6.05112 5.21601C5.91779 5.38667 5.76046 5.54934 5.57912 5.70401C5.39779 5.85867 5.20846 6.01601 5.01112 6.17601L3.97112 6.99201H6.61112V8.00001Z" fill="white"/>
<path d="M11.176 3.46401H8.64L8.52 5.23201H8.584C8.63733 5.09867 8.696 4.97867 8.76 4.87201C8.82933 4.76001 8.90933 4.66667 9 4.59201C9.09067 4.51201 9.2 4.45067 9.328 4.40801C9.456 4.36534 9.608 4.34401 9.784 4.34401C10.024 4.34401 10.248 4.38401 10.456 4.46401C10.664 4.54401 10.8453 4.66134 11 4.81601C11.1547 4.96534 11.2773 5.15201 11.368 5.37601C11.4587 5.59467 11.504 5.84267 11.504 6.12001C11.504 6.40267 11.456 6.66667 11.36 6.91201C11.2693 7.15201 11.1307 7.36001 10.944 7.53601C10.7627 7.71201 10.5387 7.85067 10.272 7.95201C10.0053 8.04801 9.70133 8.09601 9.36 8.09601C9.088 8.09601 8.848 8.06668 8.64 8.00801C8.432 7.94934 8.248 7.87201 8.088 7.77601C7.928 7.67467 7.78933 7.56001 7.672 7.43201C7.55467 7.30401 7.45333 7.16801 7.368 7.02401L8.24 6.33601C8.36267 6.55467 8.50933 6.74134 8.68 6.89601C8.85067 7.04534 9.08 7.12001 9.368 7.12001C9.656 7.12001 9.872 7.03734 10.016 6.87201C10.1653 6.70667 10.24 6.48801 10.24 6.21601V6.15201C10.24 5.89601 10.1653 5.69334 10.016 5.54401C9.86666 5.39467 9.66133 5.32001 9.4 5.32001C9.18133 5.32001 9 5.36534 8.856 5.45601C8.71733 5.54134 8.61067 5.62667 8.536 5.71201L7.552 5.57601L7.76 2.41601H11.176V3.46401Z" fill="white"/>
<path fill-rule="evenodd" clip-rule="evenodd" d="M27 0C24.2386 0 22 2.23858 22 5C22 7.76142 24.2386 10 27 10C29.7614 10 32 7.76142 32 5C32 2.23858 29.7614 0 27 0ZM24.2534 6.27401V7.00001H27.1694V6.27401H26.2814V2.81201H24.9014L23.8994 4.13201L24.4754 4.58201L25.3274 3.46601H25.3814V6.27401H24.2534ZM28.0011 6.92801C28.2091 7.02401 28.4651 7.07201 28.7691 7.07201C28.9731 7.07201 29.1571 7.04601 29.3211 6.99401C29.4891 6.94201 29.6311 6.87001 29.7471 6.77801C29.8671 6.68201 29.9591 6.57001 30.0231 6.44201C30.0871 6.31401 30.1191 6.17401 30.1191 6.02201C30.1191 5.48201 29.7731 5.16601 29.0811 5.07401L28.7271 5.02601C28.5991 5.00601 28.5111 4.97401 28.4631 4.93001C28.4191 4.88201 28.3971 4.81601 28.3971 4.73201C28.3971 4.65201 28.4291 4.58801 28.4931 4.54001C28.5571 4.49201 28.6651 4.46801 28.8171 4.46801C28.9491 4.46801 29.0771 4.49801 29.2011 4.55801C29.3291 4.61401 29.4431 4.69201 29.5431 4.79201L30.0531 4.27001C29.9731 4.19401 29.8911 4.12601 29.8071 4.06601C29.7271 4.00201 29.6371 3.95001 29.5371 3.91001C29.4411 3.86601 29.3291 3.83401 29.2011 3.81401C29.0771 3.79001 28.9331 3.77801 28.7691 3.77801C28.5811 3.77801 28.4111 3.80401 28.2591 3.85601C28.1111 3.90401 27.9831 3.97401 27.8751 4.06601C27.7711 4.15401 27.6891 4.26201 27.6291 4.39001C27.5731 4.51401 27.5451 4.65201 27.5451 4.80401C27.5451 5.36401 27.8991 5.68801 28.6071 5.77601L28.9491 5.81801C29.1611 5.84601 29.2671 5.93401 29.2671 6.08201C29.2671 6.17401 29.2331 6.24801 29.1651 6.30401C29.0971 6.35601 28.9751 6.38201 28.7991 6.38201C28.6271 6.38201 28.4731 6.34601 28.3371 6.27401C28.2011 6.20201 28.0771 6.10401 27.9651 5.98001L27.4431 6.50801C27.6071 6.68801 27.7931 6.82801 28.0011 6.92801Z" fill="#FF444F"/>
<path d="M24.2534 7.00001V6.27401H25.3814V3.46601H25.3274L24.4754 4.58201L23.8994 4.13201L24.9014 2.81201H26.2814V6.27401H27.1694V7.00001H24.2534Z" fill="white"/>
<path d="M28.7691 7.07201C28.4651 7.07201 28.2091 7.02401 28.0011 6.92801C27.7931 6.82801 27.6071 6.68801 27.4431 6.50801L27.9651 5.98001C28.0771 6.10401 28.2011 6.20201 28.3371 6.27401C28.4731 6.34601 28.6271 6.38201 28.7991 6.38201C28.9751 6.38201 29.0971 6.35601 29.1651 6.30401C29.2331 6.24801 29.2671 6.17401 29.2671 6.08201C29.2671 5.93401 29.1611 5.84601 28.9491 5.81801L28.6071 5.77601C27.8991 5.68801 27.5451 5.36401 27.5451 4.80401C27.5451 4.65201 27.5731 4.51401 27.6291 4.39001C27.6891 4.26201 27.7711 4.15401 27.8751 4.06601C27.9831 3.97401 28.1111 3.90401 28.2591 3.85601C28.4111 3.80401 28.5811 3.77801 28.7691 3.77801C28.9331 3.77801 29.0771 3.79001 29.2011 3.81401C29.3291 3.83401 29.4411 3.86601 29.5371 3.91001C29.6371 3.95001 29.7271 4.00201 29.8071 4.06601C29.8911 4.12601 29.9731 4.19401 30.0531 4.27001L29.5431 4.79201C29.4431 4.69201 29.3291 4.61401 29.2011 4.55801C29.0771 4.49801 28.9491 4.46801 28.8171 4.46801C28.6651 4.46801 28.5571 4.49201 28.4931 4.54001C28.4291 4.58801 28.3971 4.65201 28.3971 4.73201C28.3971 4.81601 28.4191 4.88201 28.4631 4.93001C28.5111 4.97401 28.5991 5.00601 28.7271 5.02601L29.0811 5.07401C29.7731 5.16601 30.1191 5.48201 30.1191 6.02201C30.1191 6.17401 30.0871 6.31401 30.0231 6.44201C29.9591 6.57001 29.8671 6.68201 29.7471 6.77801C29.6311 6.87001 29.4891 6.94201 29.3211 6.99401C29.1571 7.04601 28.9731 7.07201 28.7691 7.07201Z" fill="white"/>
</svg>
