<svg width="32" height="32" viewBox="0 0 32 32" fill="none" xmlns="http://www.w3.org/2000/svg">
<path d="M22.5 13.0001H24V22H22.5V32H21.5V22H20V13.0001H21.5V11.0001H22.5V13.0001Z" fill="#0AA0B0"/>
<path d="M30 11V18H28.5V22H27.5V18H26V11H30Z" fill="#0AA0B0"/>
<path d="M16.5 20V16H15.5V20H14V28H15.5V30H16.5V28H18V20H16.5Z" fill="#0AA0B0"/>
<path d="M10.5 15H12V21H10.5V28H9.5V21H8V15H9.5V13H10.5V15Z" fill="#0AA0B0"/>
<path d="M4.5 19H6V23H4.5V25H3.5V23H2V19H3.5V17H4.5V19Z" fill="#0AA0B0"/>
<path d="M10.064 6.72801C9.94131 6.96267 9.71998 7.08001 9.39998 7.08001C9.07998 7.08001 8.85865 6.96267 8.73598 6.72801C8.61331 6.49334 8.55198 6.16267 8.55198 5.73601V4.68001C8.55198 4.25334 8.61331 3.92267 8.73598 3.68801C8.85865 3.45334 9.07998 3.33601 9.39998 3.33601C9.71998 3.33601 9.94131 3.45334 10.064 3.68801C10.1866 3.92267 10.248 4.25334 10.248 4.68001V5.73601C10.248 6.16267 10.1866 6.49334 10.064 6.72801Z" fill="#414652"/>
<path fill-rule="evenodd" clip-rule="evenodd" d="M2 0C0.895431 0 0 0.89543 0 2V8C0 9.10457 0.89543 10 2 10H12C13.1046 10 14 9.10457 14 8V2C14 0.895431 13.1046 0 12 0H2ZM7.77598 7.33601C8.12798 7.84267 8.66931 8.09601 9.39998 8.09601C10.1306 8.09601 10.672 7.84267 11.024 7.33601C11.376 6.82934 11.552 6.12001 11.552 5.20801C11.552 4.29601 11.376 3.58667 11.024 3.08001C10.672 2.57334 10.1306 2.32001 9.39998 2.32001C8.66931 2.32001 8.12798 2.57334 7.77598 3.08001C7.42398 3.58667 7.24798 4.29601 7.24798 5.20801C7.24798 6.12001 7.42398 6.82934 7.77598 7.33601ZM3.84311 3.46401H6.37911V2.41601H2.96311L2.75511 5.57601L3.73911 5.71201C3.81377 5.62667 3.92044 5.54134 4.05911 5.45601C4.20311 5.36534 4.38444 5.32001 4.60311 5.32001C4.86444 5.32001 5.06977 5.39467 5.21911 5.54401C5.36844 5.69334 5.44311 5.89601 5.44311 6.15201V6.21601C5.44311 6.48801 5.36844 6.70667 5.21911 6.87201C5.07511 7.03734 4.85911 7.12001 4.57111 7.12001C4.28311 7.12001 4.05377 7.04534 3.88311 6.89601C3.71244 6.74134 3.56577 6.55467 3.44311 6.33601L2.57111 7.02401C2.65644 7.16801 2.75777 7.30401 2.87511 7.43201C2.99244 7.56001 3.13111 7.67467 3.29111 7.77601C3.45111 7.87201 3.63511 7.94934 3.84311 8.00801C4.05111 8.06668 4.29111 8.09601 4.56311 8.09601C4.90444 8.09601 5.20844 8.04801 5.47511 7.95201C5.74177 7.85067 5.96577 7.71201 6.14711 7.53601C6.33377 7.36001 6.47244 7.15201 6.56311 6.91201C6.65911 6.66667 6.70711 6.40267 6.70711 6.12001C6.70711 5.84267 6.66177 5.59467 6.57111 5.37601C6.48044 5.15201 6.35777 4.96534 6.20311 4.81601C6.04844 4.66134 5.86711 4.54401 5.65911 4.46401C5.45111 4.38401 5.22711 4.34401 4.98711 4.34401C4.81111 4.34401 4.65911 4.36534 4.53111 4.40801C4.40311 4.45067 4.29377 4.51201 4.20311 4.59201C4.11244 4.66667 4.03244 4.76001 3.96311 4.87201C3.89911 4.97867 3.84044 5.09867 3.78711 5.23201H3.72311L3.84311 3.46401Z" fill="#414652"/>
<path d="M6.37911 3.46401H3.84311L3.72311 5.23201H3.78711C3.84044 5.09867 3.89911 4.97867 3.96311 4.87201C4.03244 4.76001 4.11244 4.66667 4.20311 4.59201C4.29377 4.51201 4.40311 4.45067 4.53111 4.40801C4.65911 4.36534 4.81111 4.34401 4.98711 4.34401C5.22711 4.34401 5.45111 4.38401 5.65911 4.46401C5.86711 4.54401 6.04844 4.66134 6.20311 4.81601C6.35777 4.96534 6.48044 5.15201 6.57111 5.37601C6.66177 5.59467 6.70711 5.84267 6.70711 6.12001C6.70711 6.40267 6.65911 6.66667 6.56311 6.91201C6.47244 7.15201 6.33377 7.36001 6.14711 7.53601C5.96577 7.71201 5.74177 7.85067 5.47511 7.95201C5.20844 8.04801 4.90444 8.09601 4.56311 8.09601C4.29111 8.09601 4.05111 8.06668 3.84311 8.00801C3.63511 7.94934 3.45111 7.87201 3.29111 7.77601C3.13111 7.67467 2.99244 7.56001 2.87511 7.43201C2.75777 7.30401 2.65644 7.16801 2.57111 7.02401L3.44311 6.33601C3.56577 6.55467 3.71244 6.74134 3.88311 6.89601C4.05377 7.04534 4.28311 7.12001 4.57111 7.12001C4.85911 7.12001 5.07511 7.03734 5.21911 6.87201C5.36844 6.70667 5.44311 6.48801 5.44311 6.21601V6.15201C5.44311 5.89601 5.36844 5.69334 5.21911 5.54401C5.06977 5.39467 4.86444 5.32001 4.60311 5.32001C4.38444 5.32001 4.20311 5.36534 4.05911 5.45601C3.92044 5.54134 3.81377 5.62667 3.73911 5.71201L2.75511 5.57601L2.96311 2.41601H6.37911V3.46401Z" fill="white"/>
<path d="M9.39998 8.09601C8.66931 8.09601 8.12798 7.84267 7.77598 7.33601C7.42398 6.82934 7.24798 6.12001 7.24798 5.20801C7.24798 4.29601 7.42398 3.58667 7.77598 3.08001C8.12798 2.57334 8.66931 2.32001 9.39998 2.32001C10.1306 2.32001 10.672 2.57334 11.024 3.08001C11.376 3.58667 11.552 4.29601 11.552 5.20801C11.552 6.12001 11.376 6.82934 11.024 7.33601C10.672 7.84267 10.1306 8.09601 9.39998 8.09601ZM9.39998 7.08001C9.71998 7.08001 9.94131 6.96267 10.064 6.72801C10.1866 6.49334 10.248 6.16267 10.248 5.73601V4.68001C10.248 4.25334 10.1866 3.92267 10.064 3.68801C9.94131 3.45334 9.71998 3.33601 9.39998 3.33601C9.07998 3.33601 8.85865 3.45334 8.73598 3.68801C8.61331 3.92267 8.55198 4.25334 8.55198 4.68001V5.73601C8.55198 6.16267 8.61331 6.49334 8.73598 6.72801C8.85865 6.96267 9.07998 7.08001 9.39998 7.08001Z" fill="white"/>
<path fill-rule="evenodd" clip-rule="evenodd" d="M27 0C24.2386 0 22 2.23858 22 5C22 7.76142 24.2386 10 27 10C29.7614 10 32 7.76142 32 5C32 2.23858 29.7614 0 27 0ZM24.2534 6.27401V7.00001H27.1694V6.27401H26.2814V2.81201H24.9014L23.8994 4.13201L24.4754 4.58201L25.3274 3.46601H25.3814V6.27401H24.2534ZM28.0011 6.92801C28.2091 7.02401 28.4651 7.07201 28.7691 7.07201C28.9731 7.07201 29.1571 7.04601 29.3211 6.99401C29.4891 6.94201 29.6311 6.87001 29.7471 6.77801C29.8671 6.68201 29.9591 6.57001 30.0231 6.44201C30.0871 6.31401 30.1191 6.17401 30.1191 6.02201C30.1191 5.48201 29.7731 5.16601 29.0811 5.07401L28.7271 5.02601C28.5991 5.00601 28.5111 4.97401 28.4631 4.93001C28.4191 4.88201 28.3971 4.81601 28.3971 4.73201C28.3971 4.65201 28.4291 4.58801 28.4931 4.54001C28.5571 4.49201 28.6651 4.46801 28.8171 4.46801C28.9491 4.46801 29.0771 4.49801 29.2011 4.55801C29.3291 4.61401 29.4431 4.69201 29.5431 4.79201L30.0531 4.27001C29.9731 4.19401 29.8911 4.12601 29.8071 4.06601C29.7271 4.00201 29.6371 3.95001 29.5371 3.91001C29.4411 3.86601 29.3291 3.83401 29.2011 3.81401C29.0771 3.79001 28.9331 3.77801 28.7691 3.77801C28.5811 3.77801 28.4111 3.80401 28.2591 3.85601C28.1111 3.90401 27.9831 3.97401 27.8751 4.06601C27.7711 4.15401 27.6891 4.26201 27.6291 4.39001C27.5731 4.51401 27.5451 4.65201 27.5451 4.80401C27.5451 5.36401 27.8991 5.68801 28.6071 5.77601L28.9491 5.81801C29.1611 5.84601 29.2671 5.93401 29.2671 6.08201C29.2671 6.17401 29.2331 6.24801 29.1651 6.30401C29.0971 6.35601 28.9751 6.38201 28.7991 6.38201C28.6271 6.38201 28.4731 6.34601 28.3371 6.27401C28.2011 6.20201 28.0771 6.10401 27.9651 5.98001L27.4431 6.50801C27.6071 6.68801 27.7931 6.82801 28.0011 6.92801Z" fill="#FF444F"/>
<path d="M24.2534 7.00001V6.27401H25.3814V3.46601H25.3274L24.4754 4.58201L23.8994 4.13201L24.9014 2.81201H26.2814V6.27401H27.1694V7.00001H24.2534Z" fill="white"/>
<path d="M28.7691 7.07201C28.4651 7.07201 28.2091 7.02401 28.0011 6.92801C27.7931 6.82801 27.6071 6.68801 27.4431 6.50801L27.9651 5.98001C28.0771 6.10401 28.2011 6.20201 28.3371 6.27401C28.4731 6.34601 28.6271 6.38201 28.7991 6.38201C28.9751 6.38201 29.0971 6.35601 29.1651 6.30401C29.2331 6.24801 29.2671 6.17401 29.2671 6.08201C29.2671 5.93401 29.1611 5.84601 28.9491 5.81801L28.6071 5.77601C27.8991 5.68801 27.5451 5.36401 27.5451 4.80401C27.5451 4.65201 27.5731 4.51401 27.6291 4.39001C27.6891 4.26201 27.7711 4.15401 27.8751 4.06601C27.9831 3.97401 28.1111 3.90401 28.2591 3.85601C28.4111 3.80401 28.5811 3.77801 28.7691 3.77801C28.9331 3.77801 29.0771 3.79001 29.2011 3.81401C29.3291 3.83401 29.4411 3.86601 29.5371 3.91001C29.6371 3.95001 29.7271 4.00201 29.8071 4.06601C29.8911 4.12601 29.9731 4.19401 30.0531 4.27001L29.5431 4.79201C29.4431 4.69201 29.3291 4.61401 29.2011 4.55801C29.0771 4.49801 28.9491 4.46801 28.8171 4.46801C28.6651 4.46801 28.5571 4.49201 28.4931 4.54001C28.4291 4.58801 28.3971 4.65201 28.3971 4.73201C28.3971 4.81601 28.4191 4.88201 28.4631 4.93001C28.5111 4.97401 28.5991 5.00601 28.7271 5.02601L29.0811 5.07401C29.7731 5.16601 30.1191 5.48201 30.1191 6.02201C30.1191 6.17401 30.0871 6.31401 30.0231 6.44201C29.9591 6.57001 29.8671 6.68201 29.7471 6.77801C29.6311 6.87001 29.4891 6.94201 29.3211 6.99401C29.1571 7.04601 28.9731 7.07201 28.7691 7.07201Z" fill="white"/>
</svg>
