<svg width="32" height="32" viewBox="0 0 32 32" fill="none" xmlns="http://www.w3.org/2000/svg">
<path d="M22.5 13.0001H24V22H22.5V32H21.5V22H20V13.0001H21.5V11.0001H22.5V13.0001Z" fill="#0AA0B0"/>
<path d="M30 11V18H28.5V22H27.5V18H26V11H30Z" fill="#0AA0B0"/>
<path d="M16.5 20V16H15.5V20H14V28H15.5V30H16.5V28H18V20H16.5Z" fill="#0AA0B0"/>
<path d="M10.5 15H12V21H10.5V28H9.5V21H8V15H9.5V13H10.5V15Z" fill="#0AA0B0"/>
<path d="M4.5 19H6V23H4.5V25H3.5V23H2V19H3.5V17H4.5V19Z" fill="#0AA0B0"/>
<path fill-rule="evenodd" clip-rule="evenodd" d="M2 0C0.895431 0 0 0.89543 0 2V8C0 9.10457 0.89543 10 2 10H12C13.1046 10 14 9.10457 14 8V2C14 0.895431 13.1046 0 12 0H2ZM5.40313 3.39198L3.53113 7.99999H4.79513L6.59513 3.45599V2.41599H2.64313V4.40799H3.65913V3.39198H5.40313ZM8.64 3.46398H11.176V2.41599H7.76L7.552 5.57599L8.536 5.71199C8.61067 5.62665 8.71734 5.54132 8.856 5.45599C9 5.36532 9.18134 5.31998 9.4 5.31998C9.66134 5.31998 9.86667 5.39465 10.016 5.54398C10.1653 5.69332 10.24 5.89599 10.24 6.15199V6.21599C10.24 6.48799 10.1653 6.70665 10.016 6.87198C9.872 7.03732 9.656 7.11999 9.368 7.11999C9.08 7.11999 8.85067 7.04532 8.68 6.89599C8.50934 6.74132 8.36267 6.55465 8.24 6.33599L7.368 7.02399C7.45334 7.16799 7.55467 7.30399 7.672 7.43199C7.78934 7.55999 7.928 7.67465 8.088 7.77599C8.248 7.87199 8.432 7.94932 8.64 8.00799C8.848 8.06665 9.088 8.09599 9.36 8.09599C9.70134 8.09599 10.0053 8.04799 10.272 7.95199C10.5387 7.85065 10.7627 7.71199 10.944 7.53598C11.1307 7.35998 11.2693 7.15199 11.36 6.91198C11.456 6.66665 11.504 6.40265 11.504 6.11999C11.504 5.84265 11.4587 5.59465 11.368 5.37599C11.2773 5.15199 11.1547 4.96532 11 4.81599C10.8453 4.66132 10.664 4.54399 10.456 4.46398C10.248 4.38399 10.024 4.34399 9.784 4.34399C9.608 4.34399 9.456 4.36532 9.328 4.40799C9.2 4.45065 9.09067 4.51199 9 4.59199C8.90934 4.66665 8.82934 4.75998 8.76 4.87198C8.696 4.97865 8.63734 5.09865 8.584 5.23199H8.52L8.64 3.46398Z" fill="#414652"/>
<path d="M3.53113 7.99999L5.40313 3.39198H3.65913V4.40799H2.64313V2.41599H6.59513V3.45599L4.79513 7.99999H3.53113Z" fill="white"/>
<path d="M11.176 3.46398H8.64L8.52 5.23199H8.584C8.63734 5.09865 8.696 4.97865 8.76 4.87198C8.82934 4.75998 8.90934 4.66665 9 4.59199C9.09067 4.51199 9.2 4.45065 9.328 4.40799C9.456 4.36532 9.608 4.34399 9.784 4.34399C10.024 4.34399 10.248 4.38399 10.456 4.46398C10.664 4.54399 10.8453 4.66132 11 4.81599C11.1547 4.96532 11.2773 5.15199 11.368 5.37599C11.4587 5.59465 11.504 5.84265 11.504 6.11999C11.504 6.40265 11.456 6.66665 11.36 6.91198C11.2693 7.15199 11.1307 7.35998 10.944 7.53598C10.7627 7.71199 10.5387 7.85065 10.272 7.95199C10.0053 8.04799 9.70134 8.09599 9.36 8.09599C9.088 8.09599 8.848 8.06665 8.64 8.00799C8.432 7.94932 8.248 7.87199 8.088 7.77599C7.928 7.67465 7.78934 7.55999 7.672 7.43199C7.55467 7.30399 7.45334 7.16799 7.368 7.02399L8.24 6.33599C8.36267 6.55465 8.50934 6.74132 8.68 6.89599C8.85067 7.04532 9.08 7.11999 9.368 7.11999C9.656 7.11999 9.872 7.03732 10.016 6.87198C10.1653 6.70665 10.24 6.48799 10.24 6.21599V6.15199C10.24 5.89599 10.1653 5.69332 10.016 5.54398C9.86667 5.39465 9.66134 5.31998 9.4 5.31998C9.18134 5.31998 9 5.36532 8.856 5.45599C8.71734 5.54132 8.61067 5.62665 8.536 5.71199L7.552 5.57599L7.76 2.41599H11.176V3.46398Z" fill="white"/>
<path fill-rule="evenodd" clip-rule="evenodd" d="M27 0C24.2386 0 22 2.23858 22 5C22 7.76142 24.2386 10 27 10C29.7614 10 32 7.76142 32 5C32 2.23858 29.7614 0 27 0ZM24.2534 6.27401V7.00001H27.1694V6.27401H26.2814V2.81201H24.9014L23.8994 4.13201L24.4754 4.58201L25.3274 3.46601H25.3814V6.27401H24.2534ZM28.0011 6.92801C28.2091 7.02401 28.4651 7.07201 28.7691 7.07201C28.9731 7.07201 29.1571 7.04601 29.3211 6.99401C29.4891 6.94201 29.6311 6.87001 29.7471 6.77801C29.8671 6.68201 29.9591 6.57001 30.0231 6.44201C30.0871 6.31401 30.1191 6.17401 30.1191 6.02201C30.1191 5.48201 29.7731 5.16601 29.0811 5.07401L28.7271 5.02601C28.5991 5.00601 28.5111 4.97401 28.4631 4.93001C28.4191 4.88201 28.3971 4.81601 28.3971 4.73201C28.3971 4.65201 28.4291 4.58801 28.4931 4.54001C28.5571 4.49201 28.6651 4.46801 28.8171 4.46801C28.9491 4.46801 29.0771 4.49801 29.2011 4.55801C29.3291 4.61401 29.4431 4.69201 29.5431 4.79201L30.0531 4.27001C29.9731 4.19401 29.8911 4.12601 29.8071 4.06601C29.7271 4.00201 29.6371 3.95001 29.5371 3.91001C29.4411 3.86601 29.3291 3.83401 29.2011 3.81401C29.0771 3.79001 28.9331 3.77801 28.7691 3.77801C28.5811 3.77801 28.4111 3.80401 28.2591 3.85601C28.1111 3.90401 27.9831 3.97401 27.8751 4.06601C27.7711 4.15401 27.6891 4.26201 27.6291 4.39001C27.5731 4.51401 27.5451 4.65201 27.5451 4.80401C27.5451 5.36401 27.8991 5.68801 28.6071 5.77601L28.9491 5.81801C29.1611 5.84601 29.2671 5.93401 29.2671 6.08201C29.2671 6.17401 29.2331 6.24801 29.1651 6.30401C29.0971 6.35601 28.9751 6.38201 28.7991 6.38201C28.6271 6.38201 28.4731 6.34601 28.3371 6.27401C28.2011 6.20201 28.0771 6.10401 27.9651 5.98001L27.4431 6.50801C27.6071 6.68801 27.7931 6.82801 28.0011 6.92801Z" fill="#FF444F"/>
<path d="M24.2534 7.00001V6.27401H25.3814V3.46601H25.3274L24.4754 4.58201L23.8994 4.13201L24.9014 2.81201H26.2814V6.27401H27.1694V7.00001H24.2534Z" fill="white"/>
<path d="M28.7691 7.07201C28.4651 7.07201 28.2091 7.02401 28.0011 6.92801C27.7931 6.82801 27.6071 6.68801 27.4431 6.50801L27.9651 5.98001C28.0771 6.10401 28.2011 6.20201 28.3371 6.27401C28.4731 6.34601 28.6271 6.38201 28.7991 6.38201C28.9751 6.38201 29.0971 6.35601 29.1651 6.30401C29.2331 6.24801 29.2671 6.17401 29.2671 6.08201C29.2671 5.93401 29.1611 5.84601 28.9491 5.81801L28.6071 5.77601C27.8991 5.68801 27.5451 5.36401 27.5451 4.80401C27.5451 4.65201 27.5731 4.51401 27.6291 4.39001C27.6891 4.26201 27.7711 4.15401 27.8751 4.06601C27.9831 3.97401 28.1111 3.90401 28.2591 3.85601C28.4111 3.80401 28.5811 3.77801 28.7691 3.77801C28.9331 3.77801 29.0771 3.79001 29.2011 3.81401C29.3291 3.83401 29.4411 3.86601 29.5371 3.91001C29.6371 3.95001 29.7271 4.00201 29.8071 4.06601C29.8911 4.12601 29.9731 4.19401 30.0531 4.27001L29.5431 4.79201C29.4431 4.69201 29.3291 4.61401 29.2011 4.55801C29.0771 4.49801 28.9491 4.46801 28.8171 4.46801C28.6651 4.46801 28.5571 4.49201 28.4931 4.54001C28.4291 4.58801 28.3971 4.65201 28.3971 4.73201C28.3971 4.81601 28.4191 4.88201 28.4631 4.93001C28.5111 4.97401 28.5991 5.00601 28.7271 5.02601L29.0811 5.07401C29.7731 5.16601 30.1191 5.48201 30.1191 6.02201C30.1191 6.17401 30.0871 6.31401 30.0231 6.44201C29.9591 6.57001 29.8671 6.68201 29.7471 6.77801C29.6311 6.87001 29.4891 6.94201 29.3211 6.99401C29.1571 7.04601 28.9731 7.07201 28.7691 7.07201Z" fill="white"/>
</svg>
