<svg width="32" height="32" viewBox="0 0 32 32" fill="none" xmlns="http://www.w3.org/2000/svg">
<g clip-path="url(#clip0_8821_16896)">
<path d="M32 16C32 24.8366 24.8366 32 16 32C7.16344 32 0 24.8366 0 16C0 7.16344 7.16344 0 16 0C24.8366 0 32 7.16344 32 16Z" fill="#FF5A5F"/>
<path d="M23.9889 21.1979C23.8489 22.2394 23.148 23.14 22.1672 23.5404C21.6865 23.7401 21.1658 23.8007 20.645 23.7401C20.1448 23.6804 19.6436 23.5198 19.1238 23.2203C18.4033 22.8189 17.6819 22.1993 16.841 21.2781C18.1625 19.6561 18.9633 18.175 19.2638 16.8535C19.4038 16.2329 19.4243 15.672 19.3636 15.1512C19.2834 14.651 19.1032 14.1899 18.8233 13.7895C18.2026 12.8889 17.1611 12.3682 16.0001 12.3682C14.8391 12.3682 13.7976 12.9085 13.177 13.7895C12.897 14.1899 12.7169 14.651 12.6366 15.1512C12.5563 15.672 12.5769 16.2524 12.7365 16.8535C13.037 18.175 13.8573 19.6766 15.1592 21.2977C14.338 22.2189 13.5979 22.8395 12.8765 23.2399C12.3557 23.5404 11.8555 23.7009 11.3552 23.7606C10.8391 23.8185 10.3174 23.7494 9.83399 23.5609C8.85312 23.1605 8.15224 22.259 8.01225 21.2184C7.95252 20.7182 7.99265 20.2179 8.19237 19.657C8.2521 19.4564 8.35289 19.2566 8.45275 19.0168C8.59274 18.6967 8.75326 18.356 8.91285 18.0154L8.93338 17.9753C10.3146 14.9916 11.7967 11.9482 13.3384 8.98507L13.3982 8.86468C13.5587 8.5651 13.7183 8.24405 13.8788 7.94354C14.0393 7.62342 14.2194 7.32291 14.4397 7.06253C14.8606 6.58189 15.4206 6.32151 16.0412 6.32151C16.6618 6.32151 17.2227 6.58189 17.6427 7.06253C17.8629 7.32291 18.043 7.62342 18.2036 7.94354C18.3641 8.24405 18.5237 8.56416 18.6842 8.86374L18.7449 8.98413C20.2661 11.9669 21.7481 15.0103 23.1294 17.9939V18.0135C23.2899 18.3336 23.4299 18.6948 23.5895 19.0149C23.6893 19.2557 23.7901 19.4554 23.8499 19.6552C24.0094 20.1769 24.0692 20.6771 23.9889 21.1979ZM16.0001 20.2562C14.9194 18.8945 14.2185 17.6132 13.9777 16.5324C13.8779 16.0714 13.8573 15.671 13.918 15.3108C13.9581 14.9907 14.0785 14.7098 14.2381 14.4699C14.6189 13.9295 15.2591 13.5889 16.0001 13.5889C16.7411 13.5889 17.4019 13.9099 17.7621 14.4699C17.9227 14.7107 18.0421 14.9907 18.0822 15.3108C18.142 15.671 18.1224 16.0919 18.0225 16.5324C17.7827 17.5936 17.0818 18.8749 16.0001 20.2562ZM25.0304 19.2156C24.9306 18.9757 24.8298 18.7154 24.7299 18.4951C24.5694 18.1349 24.4098 17.7942 24.2689 17.4741L24.2493 17.4545C22.8681 14.4512 21.386 11.4078 19.8247 8.40457L19.7649 8.28418C19.6044 7.98367 19.4448 7.66356 19.2843 7.34344C19.0836 6.9832 18.8839 6.60243 18.5638 6.24218C17.9227 5.4405 17.0015 5 16.0206 5C15.0192 5 14.1186 5.4405 13.4569 6.20112C13.1564 6.56136 12.9362 6.94214 12.7365 7.30238C12.5759 7.62249 12.4164 7.9426 12.2558 8.24312L12.1961 8.36258C10.6543 11.3658 9.1527 14.4092 7.77146 17.4125L7.75186 17.4526C7.61187 17.7727 7.45135 18.1134 7.29083 18.4736C7.1835 18.7107 7.08364 18.9515 6.99031 19.1941C6.72993 19.9351 6.64967 20.636 6.74953 21.3565C6.96978 22.8581 7.97118 24.1199 9.35242 24.6799C9.87319 24.9001 10.4136 25 10.9744 25C11.135 25 11.3347 24.9804 11.4952 24.9599C12.156 24.8796 12.8363 24.6603 13.4971 24.2795C14.3184 23.8194 15.0986 23.1587 15.9796 22.1974C16.8606 23.1587 17.6613 23.8194 18.4621 24.2795C19.1228 24.6603 19.8032 24.8796 20.464 24.9599C20.6245 24.9804 20.8242 25 20.9847 25C21.5456 25 22.1056 24.9001 22.6067 24.6799C24.0085 24.119 24.9894 22.8376 25.2096 21.3565C25.3702 20.6566 25.2899 19.9566 25.0304 19.2156Z" fill="white"/>
</g>
<defs>
<clipPath id="clip0_8821_16896">
<rect width="32" height="32" fill="white"/>
</clipPath>
</defs>
</svg>
