<svg width="32" height="32" viewBox="0 0 32 32" fill="none" xmlns="http://www.w3.org/2000/svg">
<g clip-path="url(#clip0_8821_16410)">
<path d="M19.9999 11C19.9999 15.97 15.9709 19.9989 11.0009 19.9989C6.03094 19.9989 2.00195 15.97 2.00195 11C2.00195 6.02996 6.03094 2.00098 11.0009 2.00098C15.9709 2.00098 19.9999 6.02996 19.9999 11Z" fill="#0033AD"/>
<path d="M10.9741 7.06092C11.0295 7.06408 11.0846 7.05073 11.1324 7.02258C11.1802 6.99442 11.2186 6.95273 11.2427 6.90276C11.2668 6.85279 11.2755 6.79679 11.2678 6.74185C11.2601 6.68692 11.2362 6.63551 11.1993 6.59413C11.1623 6.55274 11.1139 6.52325 11.0602 6.50938C11.0065 6.49551 10.9499 6.49788 10.8975 6.51619C10.8451 6.5345 10.7994 6.56793 10.766 6.61226C10.7326 6.65658 10.7132 6.70981 10.7101 6.7652C10.7059 6.83942 10.7314 6.91227 10.7809 6.96772C10.8304 7.02317 10.8999 7.05669 10.9741 7.06092Z" fill="white"/>
<path d="M13.4136 7.19959C13.37 7.19998 13.3273 7.18742 13.2908 7.16351C13.2419 7.13148 13.2078 7.08137 13.1958 7.02417C13.1839 6.96698 13.1951 6.90738 13.2271 6.85848C13.251 6.82196 13.2851 6.79335 13.3252 6.77625C13.3654 6.75916 13.4097 6.75435 13.4525 6.76244C13.4954 6.77053 13.5349 6.79116 13.566 6.8217C13.5972 6.85225 13.6186 6.89134 13.6275 6.93404C13.6364 6.97674 13.6324 7.02113 13.6161 7.06158C13.5998 7.10204 13.5719 7.13674 13.5358 7.16131C13.4998 7.18587 13.4572 7.1992 13.4136 7.19959Z" fill="white"/>
<path d="M8.66904 7.18678C8.70775 7.16691 8.7397 7.13603 8.76089 7.09803C8.78208 7.06004 8.79156 7.01662 8.78812 6.97325C8.78469 6.92988 8.76851 6.8885 8.74161 6.8543C8.71471 6.82011 8.67829 6.79464 8.63695 6.7811C8.5956 6.76756 8.55118 6.76656 8.50926 6.77821C8.46734 6.78986 8.42981 6.81366 8.40139 6.8466C8.37297 6.87953 8.35493 6.92014 8.34953 6.96331C8.34414 7.00648 8.35164 7.05028 8.37109 7.0892C8.38416 7.11525 8.40226 7.13845 8.42434 7.15747C8.44642 7.1765 8.47205 7.19096 8.49975 7.20003C8.52744 7.2091 8.55666 7.2126 8.58572 7.21033C8.61478 7.20805 8.6431 7.20005 8.66904 7.18678Z" fill="white"/>
<path d="M8.88402 11.6362C8.76363 11.501 8.70183 11.3235 8.7122 11.1428L8.71034 11.1432C8.71798 11.0103 8.76436 10.8825 8.84376 10.7757C8.92316 10.6689 9.0321 10.5876 9.15714 10.542C9.28218 10.4964 9.41784 10.4883 9.54739 10.5189C9.67693 10.5495 9.79469 10.6173 9.88612 10.7141C9.97756 10.8108 10.0387 10.9322 10.0619 11.0633C10.0851 11.1943 10.0695 11.3293 10.0169 11.4516C9.96431 11.5739 9.87707 11.6781 9.76593 11.7513C9.6548 11.8246 9.52465 11.8637 9.39155 11.8638H9.3543C9.17357 11.8533 9.00442 11.7714 8.88402 11.6362Z" fill="white"/>
<path d="M6.04653 10.9997C6.08402 10.9776 6.12722 10.9671 6.17067 10.9695C6.19958 10.9711 6.22789 10.9784 6.25398 10.9909C6.28007 11.0035 6.30342 11.021 6.3227 11.0426C6.34198 11.0642 6.3568 11.0894 6.36631 11.1168C6.37582 11.1441 6.37983 11.1731 6.37812 11.202C6.37563 11.2454 6.3603 11.2871 6.33409 11.3219C6.30789 11.3566 6.27196 11.3828 6.23087 11.3972C6.18978 11.4115 6.14536 11.4133 6.10323 11.4024C6.0611 11.3915 6.02314 11.3684 5.99416 11.3359C5.96518 11.3034 5.94647 11.2631 5.9404 11.22C5.93434 11.1769 5.94118 11.133 5.96007 11.0938C5.97896 11.0546 6.00905 11.0218 6.04653 10.9997Z" fill="white"/>
<path d="M9.50362 8.25636C9.47048 8.31495 9.42072 8.36241 9.36061 8.39273C9.32068 8.41287 9.27717 8.42495 9.23257 8.42827C9.18797 8.43159 9.14315 8.42609 9.10067 8.41208C9.0582 8.39807 9.0189 8.37583 8.98503 8.34663C8.95115 8.31743 8.92336 8.28183 8.90325 8.24189C8.87297 8.18176 8.8612 8.11401 8.86943 8.0472C8.87765 7.98038 8.9055 7.91751 8.94946 7.86652C8.99341 7.81553 9.0515 7.77872 9.11637 7.76074C9.18124 7.74276 9.24999 7.74442 9.31392 7.7655C9.37785 7.78659 9.43409 7.82615 9.47554 7.8792C9.51699 7.93224 9.54178 7.99639 9.54677 8.06352C9.55177 8.13065 9.53675 8.19776 9.50362 8.25636Z" fill="white"/>
<path d="M7.03322 9.22215C7.07958 9.25264 7.13394 9.26869 7.18943 9.26827C7.24491 9.26785 7.29902 9.25099 7.34492 9.21981C7.39082 9.18863 7.42643 9.14454 7.44726 9.09311C7.46809 9.04168 7.4732 8.98523 7.46193 8.9309C7.45067 8.87657 7.42355 8.8268 7.38399 8.78789C7.34444 8.74898 7.29423 8.72268 7.23972 8.71231C7.18521 8.70194 7.12885 8.70798 7.07777 8.72965C7.0267 8.75132 6.9832 8.78766 6.95277 8.83406C6.91203 8.89621 6.89762 8.97199 6.9127 9.04475C6.92779 9.11752 6.97113 9.18132 7.03322 9.22215Z" fill="white"/>
<path d="M7.25569 10.8922C7.31369 10.858 7.38051 10.8418 7.44771 10.8456C7.53788 10.8508 7.6223 10.8916 7.68243 10.959C7.74256 11.0263 7.77348 11.1149 7.76839 11.205C7.76453 11.2722 7.74083 11.3368 7.70029 11.3905C7.65975 11.4442 7.60419 11.4848 7.54063 11.5069C7.47707 11.5291 7.40837 11.5319 7.3432 11.515C7.27804 11.4982 7.21934 11.4623 7.17453 11.4121C7.12971 11.3619 7.10079 11.2995 7.09143 11.2329C7.08206 11.1662 7.09267 11.0983 7.12191 11.0376C7.15115 10.977 7.1977 10.9264 7.25569 10.8922Z" fill="white"/>
<path d="M7.07043 13.1343C7.02093 13.1593 6.97996 13.1984 6.9527 13.2467C6.92544 13.295 6.91311 13.3503 6.91726 13.4056C6.92142 13.4609 6.94188 13.5138 6.97606 13.5574C7.01023 13.6011 7.05659 13.6337 7.10927 13.651C7.16195 13.6683 7.21858 13.6697 7.27202 13.6548C7.32545 13.64 7.37328 13.6096 7.40946 13.5676C7.44565 13.5256 7.46856 13.4738 7.4753 13.4187C7.48204 13.3637 7.47232 13.3078 7.44734 13.2583C7.43075 13.2254 7.40784 13.1961 7.37991 13.1721C7.35198 13.148 7.31959 13.1297 7.28459 13.1182C7.24958 13.1067 7.21265 13.1022 7.17591 13.1049C7.13916 13.1077 7.10332 13.1177 7.07043 13.1343Z" fill="white"/>
<path d="M8.61717 10.2075C8.53792 10.2082 8.46024 10.1854 8.39395 10.142C8.34988 10.1131 8.31194 10.0759 8.28228 10.0324C8.25262 9.98891 8.23183 9.93999 8.22111 9.88844C8.21039 9.83689 8.20993 9.78374 8.21978 9.73201C8.22962 9.68029 8.24958 9.63102 8.27849 9.58702C8.32195 9.52074 8.38409 9.46884 8.45705 9.43787C8.53 9.40691 8.61051 9.39827 8.68837 9.41306C8.76624 9.42784 8.83797 9.46539 8.8945 9.52094C8.95103 9.57649 8.98982 9.64755 9.00597 9.72515C9.02211 9.80274 9.01488 9.88338 8.9852 9.95687C8.95552 10.0304 8.90471 10.0934 8.8392 10.138C8.77369 10.1826 8.69643 10.2068 8.61717 10.2075Z" fill="white"/>
<path d="M12.5921 8.36581C12.6485 8.40263 12.7146 8.42188 12.782 8.42115C12.8494 8.42041 12.915 8.39971 12.9706 8.36167C13.0263 8.32362 13.0693 8.26994 13.0945 8.20741C13.1196 8.14488 13.1256 8.07631 13.1118 8.01036C13.0979 7.94441 13.0648 7.88404 13.0167 7.83689C12.9685 7.78974 12.9075 7.75793 12.8413 7.74546C12.775 7.733 12.7066 7.74045 12.6446 7.76688C12.5826 7.7933 12.5299 7.83751 12.493 7.89392C12.4684 7.93139 12.4515 7.97333 12.4432 8.01735C12.4349 8.06137 12.4354 8.10659 12.4446 8.15043C12.4538 8.19427 12.4715 8.23586 12.4968 8.27282C12.5222 8.30978 12.5545 8.34138 12.5921 8.36581Z" fill="white"/>
<path d="M12.6457 10.4936C12.5563 10.4884 12.4668 10.501 12.3823 10.5304C12.2977 10.5599 12.2198 10.6057 12.153 10.6653C12.018 10.7856 11.9363 10.9546 11.926 11.1351C11.9156 11.3156 11.9774 11.4929 12.0977 11.6279C12.218 11.7628 12.387 11.8445 12.5675 11.8549H12.607C12.7385 11.8548 12.8672 11.8167 12.9775 11.7451C13.0878 11.6736 13.1751 11.5717 13.2288 11.4516C13.2825 11.3316 13.3004 11.1986 13.2802 11.0686C13.26 10.9387 13.2026 10.8174 13.115 10.7193C13.0557 10.6524 12.9836 10.598 12.9031 10.5592C12.8225 10.5205 12.735 10.4982 12.6457 10.4936Z" fill="white"/>
<path d="M9.83571 10.3694C9.72806 10.3032 9.64105 10.2082 9.58446 10.0951C9.53243 9.99126 9.5078 9.87581 9.51291 9.75974C9.51802 9.64366 9.55271 9.53082 9.61367 9.43191C9.67463 9.33301 9.75986 9.25132 9.86125 9.19459C9.96265 9.13786 10.0769 9.10798 10.193 9.10779C10.3192 9.10718 10.443 9.14171 10.5506 9.20749C10.6582 9.27327 10.7454 9.36771 10.8024 9.48024C10.855 9.58421 10.8801 9.69995 10.8753 9.81639C10.8705 9.93284 10.8359 10.0461 10.7749 10.1454C10.7139 10.2447 10.6284 10.3267 10.5267 10.3835C10.4249 10.4404 10.3103 10.4702 10.1938 10.4702C10.0674 10.4706 9.94337 10.4357 9.83571 10.3694Z" fill="white"/>
<path d="M14.9291 9.22173C14.9786 9.19674 15.0196 9.15765 15.0469 9.10938C15.0742 9.06111 15.0865 9.00583 15.0824 8.95053C15.0783 8.89524 15.0579 8.8424 15.0237 8.7987C14.9896 8.755 14.9433 8.7224 14.8906 8.70503C14.838 8.68765 14.7813 8.68627 14.7279 8.70106C14.6745 8.71586 14.6266 8.74616 14.5904 8.78815C14.5542 8.83013 14.5312 8.88191 14.5244 8.93694C14.5176 8.99197 14.5273 9.04779 14.5522 9.09733C14.5857 9.16378 14.6442 9.2142 14.7149 9.23753C14.7856 9.26085 14.8626 9.25517 14.9291 9.22173Z" fill="white"/>
<path d="M13.0323 9.59902C13.0713 9.53005 13.1299 9.4742 13.2007 9.43855C13.2477 9.41483 13.2989 9.4006 13.3514 9.39669C13.4039 9.39279 13.4567 9.39927 13.5067 9.41577C13.5567 9.43227 13.6029 9.45847 13.6428 9.49286C13.6826 9.52725 13.7153 9.56917 13.7389 9.61621C13.7746 9.687 13.7884 9.76677 13.7787 9.84544C13.7691 9.9241 13.7363 9.99813 13.6845 10.0582C13.6328 10.1182 13.5644 10.1615 13.488 10.1827C13.4116 10.2038 13.3306 10.2019 13.2554 10.177C13.1801 10.1522 13.1139 10.1056 13.0651 10.0431C13.0163 9.98062 12.9872 9.90509 12.9813 9.82604C12.9755 9.747 12.9932 9.66799 13.0323 9.59902Z" fill="white"/>
<path d="M11.1972 8.77114C11.129 8.8114 11.0503 8.83051 10.9712 8.82608C10.865 8.82003 10.7656 8.77206 10.6948 8.69272C10.624 8.61338 10.5876 8.50916 10.5935 8.40298C10.5981 8.32387 10.626 8.24788 10.6737 8.18462C10.7214 8.12136 10.7868 8.07367 10.8616 8.04757C10.9364 8.02146 11.0173 8.01813 11.094 8.03798C11.1707 8.05783 11.2399 8.09997 11.2926 8.15909C11.3454 8.2182 11.3794 8.29163 11.3905 8.3701C11.4015 8.44856 11.3891 8.52854 11.3547 8.59992C11.3203 8.6713 11.2655 8.73089 11.1972 8.77114Z" fill="white"/>
<path d="M8.79965 12.9169C8.87043 12.8813 8.92904 12.8254 8.96807 12.7564C9.00709 12.6874 9.02477 12.6084 9.01888 12.5293C9.01299 12.4503 8.98379 12.3747 8.93497 12.3123C8.88615 12.2498 8.81991 12.2033 8.74462 12.1785C8.66933 12.1537 8.58838 12.1517 8.512 12.173C8.43562 12.1942 8.36725 12.2375 8.31553 12.2976C8.26381 12.3577 8.23107 12.4318 8.22145 12.5104C8.21182 12.5891 8.22575 12.6689 8.26146 12.7397C8.30934 12.8345 8.39293 12.9065 8.49385 12.9397C8.59478 12.973 8.70477 12.9648 8.79965 12.9169Z" fill="white"/>
<path d="M11.1208 9.83978C11.1085 9.68863 11.1469 9.53769 11.23 9.41085C11.2922 9.31616 11.3769 9.23842 11.4766 9.18465C11.5762 9.13087 11.6877 9.10276 11.801 9.10284C11.9527 9.10303 12.0999 9.1538 12.2195 9.24709C12.339 9.34039 12.424 9.4709 12.4611 9.61796C12.4981 9.76502 12.485 9.92022 12.4239 10.059C12.3628 10.1978 12.2572 10.3123 12.1237 10.3843C11.9903 10.4563 11.8366 10.4817 11.687 10.4565C11.5375 10.4314 11.4006 10.3571 11.2981 10.2454C11.1955 10.1337 11.1331 9.99093 11.1208 9.83978Z" fill="white"/>
<path d="M12.415 12.2611C12.3604 12.1529 12.2779 12.0611 12.176 11.9953C12.0741 11.9296 11.9565 11.8922 11.8353 11.8871C11.7142 11.8819 11.5938 11.9092 11.4867 11.9661C11.3796 12.023 11.2896 12.1074 11.226 12.2107C11.1625 12.314 11.1276 12.4323 11.125 12.5536C11.1224 12.6748 11.1523 12.7946 11.2114 12.9004C11.2706 13.0063 11.3569 13.0945 11.4615 13.1559C11.5661 13.2173 11.6852 13.2496 11.8064 13.2496C11.9131 13.2489 12.0182 13.2234 12.1133 13.1751C12.2743 13.0937 12.3964 12.9517 12.4529 12.7804C12.5095 12.6091 12.4958 12.4224 12.415 12.2611Z" fill="white"/>
<path d="M13.383 12.1479C13.4622 12.1473 13.5399 12.1701 13.6061 12.2136C13.6948 12.2721 13.7567 12.3633 13.7783 12.4673C13.7999 12.5714 13.7794 12.6797 13.7212 12.7686C13.6777 12.8348 13.6156 12.8867 13.5426 12.9176C13.4696 12.9486 13.3891 12.9572 13.3112 12.9423C13.2334 12.9275 13.1617 12.8899 13.1052 12.8343C13.0487 12.7787 13.0099 12.7076 12.9938 12.63C12.9777 12.5524 12.985 12.4718 13.0147 12.3983C13.0445 12.3248 13.0953 12.2618 13.1609 12.2173C13.2264 12.1727 13.3037 12.1486 13.383 12.1479Z" fill="white"/>
<path d="M14.9112 11.1893C14.915 11.1221 14.8988 11.0553 14.8646 10.9973C14.8304 10.9393 14.7798 10.8927 14.7192 10.8635C14.6585 10.8342 14.5906 10.8236 14.5239 10.833C14.4573 10.8424 14.3949 10.8713 14.3447 10.9161C14.2945 10.9609 14.2586 11.0196 14.2418 11.0848C14.2249 11.1499 14.2277 11.2186 14.2499 11.2822C14.272 11.3458 14.3126 11.4013 14.3663 11.4419C14.42 11.4824 14.4846 11.5061 14.5518 11.51C14.642 11.515 14.7305 11.4841 14.7978 11.424C14.8652 11.3639 14.906 11.2795 14.9112 11.1893Z" fill="white"/>
<path d="M15.7298 10.9771C15.7674 10.955 15.8107 10.9445 15.8542 10.947C15.9126 10.9505 15.9672 10.9769 16.006 11.0206C16.0449 11.0642 16.0649 11.1215 16.0617 11.1798C16.0592 11.2234 16.0438 11.2652 16.0175 11.3C15.9913 11.3348 15.9553 11.361 15.9141 11.3754C15.8729 11.3897 15.8284 11.3915 15.7862 11.3806C15.744 11.3696 15.706 11.3464 15.6769 11.3139C15.6479 11.2813 15.6292 11.2409 15.6232 11.1977C15.6171 11.1545 15.6241 11.1105 15.643 11.0712C15.662 11.032 15.6922 10.9992 15.7298 10.9771Z" fill="white"/>
<path d="M14.9663 13.1335C14.9199 13.1031 14.8655 13.0872 14.8101 13.0877C14.7546 13.0882 14.7006 13.1051 14.6547 13.1364C14.6089 13.1676 14.5733 13.2117 14.5526 13.2631C14.5318 13.3145 14.5267 13.371 14.538 13.4253C14.5493 13.4796 14.5765 13.5293 14.616 13.5682C14.6556 13.607 14.7058 13.6333 14.7603 13.6437C14.8147 13.654 14.8711 13.648 14.9221 13.6263C14.9732 13.6047 15.0167 13.5684 15.0471 13.522C15.0673 13.4912 15.0813 13.4567 15.0881 13.4205C15.095 13.3843 15.0947 13.3471 15.0872 13.311C15.0797 13.2749 15.0651 13.2407 15.0444 13.2102C15.0236 13.1798 14.9971 13.1537 14.9663 13.1335Z" fill="white"/>
<path d="M8.58655 15.1556C8.63015 15.1553 8.67288 15.1678 8.70933 15.1918C8.73355 15.2077 8.7544 15.2282 8.77069 15.2521C8.78698 15.2761 8.79839 15.303 8.80427 15.3313C8.81015 15.3597 8.81038 15.389 8.80496 15.4174C8.79953 15.4459 8.78855 15.473 8.77265 15.4972C8.74871 15.5336 8.7145 15.5621 8.67435 15.5791C8.6342 15.5961 8.5899 15.6009 8.54707 15.5927C8.50424 15.5845 8.46479 15.5638 8.43371 15.5333C8.40264 15.5027 8.38132 15.4636 8.37247 15.4209C8.36362 15.3782 8.36763 15.3338 8.38398 15.2934C8.40034 15.253 8.42832 15.2183 8.46437 15.1938C8.50043 15.1693 8.54294 15.156 8.58655 15.1556Z" fill="white"/>
<path d="M13.3305 15.1689C13.2916 15.1885 13.2593 15.2193 13.2379 15.2572C13.2164 15.2952 13.2067 15.3387 13.2099 15.3822C13.2131 15.4257 13.2292 15.4672 13.256 15.5016C13.2829 15.5359 13.3193 15.5616 13.3608 15.5752C13.4022 15.5889 13.4467 15.5899 13.4887 15.5783C13.5308 15.5666 13.5684 15.5427 13.5968 15.5097C13.6253 15.4766 13.6433 15.4359 13.6486 15.3926C13.6539 15.3493 13.6463 15.3054 13.6266 15.2665C13.6136 15.2406 13.5956 15.2175 13.5737 15.1986C13.5518 15.1797 13.5263 15.1653 13.4988 15.1562C13.4713 15.1472 13.4423 15.1436 13.4134 15.1458C13.3845 15.148 13.3564 15.1558 13.3305 15.1689Z" fill="white"/>
<path d="M10.8789 12.5148C10.8913 12.666 10.8528 12.8169 10.7697 12.9438C10.7079 13.0387 10.6233 13.1166 10.5236 13.1704C10.4239 13.2242 10.3124 13.2522 10.1991 13.2518C10.0474 13.2517 9.90014 13.201 9.78053 13.1078C9.66092 13.0145 9.57583 12.884 9.53873 12.737C9.50163 12.5899 9.51463 12.4347 9.57569 12.2958C9.63675 12.157 9.74237 12.0425 9.87583 11.9705C10.0093 11.8984 10.163 11.8729 10.3125 11.8981C10.4621 11.9232 10.599 11.9975 10.7016 12.1092C10.8042 12.2209 10.8666 12.3637 10.8789 12.5148Z" fill="white"/>
<path d="M9.40766 13.9902C9.35133 13.9533 9.28534 13.934 9.21803 13.9346C9.15072 13.9353 9.08511 13.9559 9.0295 13.9938C8.97389 14.0317 8.93077 14.0853 8.90559 14.1477C8.88042 14.2102 8.87431 14.2786 8.88805 14.3445C8.90179 14.4104 8.93476 14.4708 8.98279 14.5179C9.03082 14.5651 9.09176 14.597 9.15789 14.6095C9.22403 14.622 9.2924 14.6147 9.35436 14.5884C9.41631 14.5621 9.46908 14.518 9.50599 14.4617C9.55542 14.3861 9.57284 14.294 9.5544 14.2056C9.53596 14.1172 9.48319 14.0397 9.40766 13.9902Z" fill="white"/>
<path d="M10.8387 15.3328C10.8865 15.3047 10.9416 15.2913 10.9969 15.2945C11.0337 15.2966 11.0697 15.3059 11.1029 15.3219C11.1361 15.3379 11.1658 15.3603 11.1903 15.3878C11.2148 15.4153 11.2337 15.4474 11.2458 15.4822C11.258 15.517 11.2631 15.5538 11.261 15.5906C11.2578 15.646 11.2383 15.6991 11.2049 15.7434C11.1715 15.7877 11.1257 15.8211 11.0733 15.8393C11.021 15.8576 10.9644 15.8599 10.9107 15.846C10.857 15.8321 10.8086 15.8025 10.7717 15.7612C10.7348 15.7198 10.711 15.6684 10.7033 15.6134C10.6956 15.5585 10.7043 15.5025 10.7284 15.4526C10.7526 15.4026 10.7909 15.361 10.8387 15.3328Z" fill="white"/>
<path d="M10.9998 13.53C10.9207 13.5252 10.8418 13.544 10.7733 13.584C10.7048 13.6241 10.6498 13.6835 10.6151 13.7549C10.5804 13.8262 10.5677 13.9062 10.5785 13.9848C10.5894 14.0634 10.6233 14.137 10.676 14.1963C10.7287 14.2556 10.7979 14.2979 10.8746 14.3179C10.9514 14.3378 11.0324 14.3346 11.1073 14.3085C11.1822 14.2824 11.2477 14.2347 11.2955 14.1714C11.3433 14.108 11.3712 14.0319 11.3756 13.9527C11.3818 13.8469 11.3456 13.7429 11.2752 13.6637C11.2047 13.5844 11.1057 13.5363 10.9998 13.53Z" fill="white"/>
<path d="M12.4961 14.1C12.5291 14.0412 12.5789 13.9935 12.639 13.963C12.6788 13.9427 12.7223 13.9304 12.7668 13.9269C12.8114 13.9234 12.8563 13.9287 12.8988 13.9425C12.9413 13.9564 12.9807 13.9785 13.0146 14.0075C13.0486 14.0366 13.0765 14.0721 13.0967 14.112C13.1274 14.172 13.1395 14.2398 13.1316 14.3068C13.1237 14.3738 13.0962 14.4369 13.0524 14.4882C13.0086 14.5395 12.9505 14.5766 12.8856 14.5949C12.8207 14.6132 12.7519 14.6118 12.6877 14.5909C12.6236 14.5701 12.5671 14.5306 12.5254 14.4777C12.4837 14.4247 12.4586 14.3605 12.4534 14.2933C12.4482 14.226 12.4631 14.1587 12.4961 14.1Z" fill="white"/>
</g>
<path d="M12.0193 20.4375C12.0078 20.6235 12.002 20.8111 12.002 21C12.002 21.3809 12.0256 21.7563 12.0716 22.1248H29.9303C29.9762 21.7563 29.9999 21.3809 29.9999 21C29.9999 20.8111 29.9941 20.6235 29.9826 20.4375H12.0193Z" fill="white"/>
<path d="M21.0009 17.0629V18.7502H29.7164C29.5651 18.1624 29.3559 17.5978 29.0952 17.0629H21.0009Z" fill="white"/>
<path d="M21.0009 15.3756H28.0262C27.5133 14.7358 26.9148 14.1676 26.2482 13.6883H21.0009V15.3756Z" fill="white"/>
<path d="M12.4501 23.8121C12.6446 24.4041 12.899 24.9689 13.2059 25.4995H28.796C29.1029 24.9689 29.3572 24.4041 29.5518 23.8121H12.4501Z" fill="white"/>
<path d="M14.466 27.1868C15.098 27.8541 15.8312 28.4247 16.641 28.8741H25.3609C26.1707 28.4247 26.9038 27.8541 27.5359 27.1868H14.466Z" fill="white"/>
<path d="M21.0011 12.001L21.0009 13.6883H26.2482C24.7711 12.6264 22.9592 12.001 21.0011 12.001Z" fill="#F44336"/>
<path d="M21.0011 20.4375H29.9826C29.9469 19.8586 29.8565 19.2944 29.7164 18.7502H21.0009L21.0011 20.4375Z" fill="#F44336"/>
<path d="M21.0009 17.0629H29.0952C28.8012 16.4596 28.4418 15.8941 28.0262 15.3756H21.0009V17.0629Z" fill="#F44336"/>
<path d="M29.9303 22.1248C29.8578 22.7063 29.7298 23.2706 29.5518 23.8121H12.4501C12.272 23.2706 12.1441 22.7063 12.0716 22.1248H29.9303Z" fill="#F44336"/>
<path d="M13.2059 25.4995C13.5596 26.111 13.9833 26.6771 14.466 27.1868H27.5359C28.0186 26.6771 28.4422 26.111 28.796 25.4995H13.2059Z" fill="#F44336"/>
<path d="M21.0011 29.9989C22.5829 29.9989 24.0693 29.5908 25.3609 28.8741H16.641C17.9326 29.5908 19.4192 29.9989 21.0011 29.9989Z" fill="#F44336"/>
<path fill-rule="evenodd" clip-rule="evenodd" d="M21.0011 20.4375H12.0193C12.0377 20.1381 12.0708 19.8426 12.1178 19.5518C12.1158 19.5647 12.1138 19.5774 12.1117 19.5904C12.1174 19.5891 12.1227 19.5868 12.1277 19.5834C12.1437 19.5721 12.1504 19.5517 12.1441 19.5331L12.1288 19.4856C12.1514 19.3523 12.177 19.22 12.2053 19.0888C12.2047 19.0918 12.204 19.0948 12.2034 19.0978L12.3124 19.0175C12.3271 19.0057 12.3329 18.9859 12.3269 18.968C12.3209 18.9501 12.3042 18.9379 12.2854 18.9374H12.2394C12.3993 18.2557 12.6367 17.6038 12.9418 16.9916C12.9385 16.9981 12.9353 17.0047 12.932 17.0112L13.0809 16.9045L13.3509 17.098C13.3583 17.104 13.3673 17.1072 13.3763 17.1076C13.3858 17.1081 13.3955 17.1054 13.4037 17.0997C13.4105 17.0949 13.4156 17.0885 13.4188 17.0813C13.4231 17.0715 13.4238 17.0601 13.4201 17.0494L13.3184 16.7326L13.5885 16.5338C13.6032 16.522 13.609 16.5022 13.603 16.4843C13.5969 16.4664 13.5803 16.4542 13.5614 16.4537H13.2331C13.8699 15.368 14.7278 14.4278 15.7448 13.6947L15.903 13.808C15.9091 13.8128 15.9161 13.8159 15.9234 13.8171C15.9284 13.8179 15.9336 13.8178 15.9387 13.8169C15.9427 13.8161 15.9466 13.8148 15.9504 13.8129L15.9534 13.8112L15.9558 13.8096C15.9718 13.7984 15.9786 13.7779 15.9722 13.7594L15.9134 13.5761C17.3605 12.5824 19.1129 12.001 21.0011 12.001V20.4375ZM19.6034 12.3591L19.5231 12.1217C19.4781 12.1292 19.4332 12.137 19.3884 12.1451L19.3154 12.3609H18.9833C18.9773 12.3611 18.9715 12.3624 18.9662 12.3648L18.9612 12.3674L18.9591 12.3688C18.9512 12.3742 18.9451 12.3821 18.9419 12.3915C18.9358 12.4095 18.9416 12.4292 18.9563 12.441L19.2263 12.6399L19.1156 12.9549C19.1107 12.9732 19.1177 12.9926 19.1332 13.0035C19.1422 13.0098 19.153 13.0124 19.1634 13.0114C19.171 13.0107 19.1784 13.0081 19.1849 13.0035L19.4549 12.81L19.7249 13.0035C19.73 13.0075 19.7357 13.0103 19.7418 13.0118C19.7539 13.0148 19.767 13.0126 19.7777 13.0051C19.7937 12.9939 19.8004 12.9734 19.7942 12.9549L19.6925 12.6381L19.9624 12.4392C19.9679 12.4349 19.972 12.4294 19.9749 12.4234L19.9766 12.4195C19.9772 12.4179 19.9777 12.4162 19.9781 12.4145C19.9788 12.4115 19.9792 12.4085 19.9793 12.4054C19.9794 12.4002 19.9786 12.3949 19.9769 12.3897C19.9725 12.3765 19.9622 12.3664 19.9496 12.3618C19.9451 12.3602 19.9404 12.3593 19.9355 12.3591H19.6034ZM17.2256 13.0051C17.2416 12.9939 17.2483 12.9734 17.242 12.9549L17.2047 12.8385C17.1732 12.8532 17.1418 12.8681 17.1105 12.8831L17.0475 12.9137L17.1727 13.0035C17.188 13.0157 17.2096 13.0164 17.2256 13.0051ZM19.3154 18.9392L19.4224 18.6224C19.4259 18.605 19.4409 18.5923 19.4586 18.5919C19.4764 18.5915 19.492 18.6034 19.4963 18.6206L19.6034 18.9374H19.9355C19.9466 18.9377 19.957 18.9421 19.9648 18.9494C19.9703 18.9544 19.9744 18.9607 19.9769 18.968C19.983 18.9859 19.9772 19.0057 19.9624 19.0175L19.6925 19.2164L19.7942 19.5331C19.8004 19.5517 19.7937 19.5721 19.7777 19.5834C19.7617 19.5946 19.7401 19.5939 19.7249 19.5817L19.4549 19.3883L19.1849 19.5817C19.1825 19.5834 19.18 19.5849 19.1773 19.586L19.1742 19.5873L19.1694 19.5887C19.1654 19.5897 19.1613 19.5901 19.1572 19.5899C19.1548 19.5898 19.1526 19.5895 19.1503 19.5891C19.1443 19.5879 19.1384 19.5854 19.1332 19.5818C19.1309 19.5801 19.1287 19.5783 19.1268 19.5764C19.1248 19.5742 19.1228 19.5719 19.1213 19.5694L19.1199 19.5671L19.1187 19.565L19.1171 19.5615C19.1137 19.5527 19.113 19.5427 19.1156 19.5331L19.2263 19.2182L18.9563 19.0193C18.9469 19.0118 18.9412 19.001 18.9398 18.9895C18.939 18.983 18.9397 18.9763 18.9419 18.9698C18.9442 18.9628 18.9482 18.9566 18.9532 18.9517C18.9552 18.9499 18.9573 18.9482 18.9595 18.9467L18.9632 18.9445L18.9659 18.9431L18.9685 18.9421L18.9733 18.9406C18.9765 18.9398 18.9799 18.9393 18.9833 18.9392H19.3154ZM16.9441 18.6206C16.9399 18.6034 16.9243 18.5915 16.9065 18.5919C16.8888 18.5923 16.8738 18.605 16.8703 18.6224L16.7633 18.9392H16.4312C16.4123 18.9397 16.3958 18.9519 16.3897 18.9698C16.3837 18.9877 16.3895 19.0075 16.4042 19.0193L16.6742 19.2182L16.5635 19.5331C16.5602 19.5453 16.5622 19.5579 16.5685 19.5683L16.5711 19.5722L16.5736 19.5752C16.5758 19.5776 16.5783 19.5798 16.5811 19.5818C16.5966 19.5926 16.6173 19.5926 16.6328 19.5817L16.9027 19.3883L17.1727 19.5817C17.1786 19.5865 17.1855 19.5895 17.1926 19.5907L17.1966 19.5912L17.1997 19.5914C17.2017 19.5914 17.2038 19.5913 17.2059 19.591C17.2127 19.5901 17.2195 19.5876 17.2256 19.5834C17.2416 19.5721 17.2483 19.5517 17.242 19.5331L17.1404 19.2164L17.4103 19.0175C17.4122 19.016 17.414 19.0143 17.4155 19.0126C17.4168 19.0112 17.418 19.0097 17.4191 19.0082L17.4216 19.0041C17.4225 19.0023 17.4234 19.0005 17.4242 18.9986C17.4252 18.9958 17.426 18.993 17.4265 18.9901C17.4271 18.9869 17.4273 18.9836 17.4271 18.9803L17.4267 18.9764L17.426 18.9725L17.4248 18.968C17.4188 18.9501 17.4022 18.9379 17.3833 18.9374H17.0512L16.9441 18.6206ZM14.3984 18.6206L14.5055 18.9374H14.8375C14.8564 18.9379 14.873 18.9501 14.879 18.968C14.8819 18.9765 14.8821 18.9855 14.8799 18.9937C14.8775 19.0029 14.8722 19.0113 14.8645 19.0175L14.5945 19.2164L14.6962 19.5331C14.6969 19.5354 14.6976 19.5377 14.698 19.54L14.6984 19.5442L14.6985 19.5492C14.6983 19.5535 14.6974 19.5578 14.696 19.5619C14.693 19.5704 14.6875 19.578 14.6798 19.5834C14.6637 19.5946 14.6422 19.5939 14.6269 19.5817L14.357 19.3883L14.087 19.5817C14.0715 19.5926 14.0508 19.5926 14.0353 19.5818C14.0253 19.5748 14.0189 19.5642 14.0168 19.5528C14.0163 19.55 14.0161 19.5473 14.0161 19.5445C14.0161 19.5422 14.0163 19.5398 14.0168 19.5374L14.0177 19.5331L14.1284 19.2182L13.8584 19.0193C13.8523 19.0144 13.8478 19.0082 13.845 19.0013C13.8429 18.9964 13.8417 18.9911 13.8415 18.9858C13.8414 18.9805 13.8422 18.9751 13.8439 18.9698C13.8476 18.9589 13.8552 18.95 13.8649 18.9447C13.8711 18.9413 13.8781 18.9394 13.8854 18.9392H14.2184L14.3254 18.6224C14.3263 18.5774 14.3858 18.5774 14.3984 18.6206ZM18.2202 17.7837C18.2202 17.7689 18.2123 17.7553 18.1995 17.7479C18.1928 17.744 18.1853 17.7422 18.1778 17.7423C18.171 17.7425 18.1642 17.7444 18.1581 17.7479C18.1528 17.751 18.1483 17.7551 18.1449 17.76C18.1432 17.7623 18.1419 17.7647 18.1408 17.7673C18.1386 17.7724 18.1374 17.778 18.1374 17.7837L18.0304 18.1005H17.6983C17.6794 18.101 17.6628 18.1132 17.6568 18.1311C17.6508 18.149 17.6565 18.1688 17.6713 18.1806L17.9412 18.3795L17.8396 18.6962C17.8372 18.7049 17.8376 18.7138 17.8402 18.7219C17.8431 18.731 17.849 18.7391 17.8571 18.7448C17.8727 18.7557 17.8933 18.7557 17.9088 18.7448L18.1788 18.5513L18.4488 18.7448C18.4641 18.757 18.4856 18.7577 18.5016 18.7465C18.5177 18.7352 18.5243 18.7148 18.5181 18.6962L18.4164 18.3795L18.6864 18.1806C18.7011 18.1688 18.7069 18.149 18.7009 18.1311C18.6981 18.1228 18.693 18.1158 18.6866 18.1105C18.679 18.1044 18.6696 18.1007 18.6594 18.1005H18.3273L18.2202 17.7837ZM15.6744 17.7837L15.7815 18.1005H16.1135C16.1324 18.101 16.149 18.1132 16.1551 18.1311C16.1611 18.149 16.1553 18.1688 16.1406 18.1806L15.8706 18.3795L15.9722 18.6962C15.9786 18.7148 15.9718 18.7352 15.9558 18.7465C15.9482 18.7518 15.9394 18.7544 15.9306 18.7545C15.9259 18.7545 15.9212 18.7537 15.9166 18.7522C15.9118 18.7506 15.9072 18.7481 15.903 18.7448L15.633 18.5513L15.363 18.7448C15.3475 18.7557 15.3269 18.7557 15.3113 18.7448C15.2958 18.734 15.2888 18.7145 15.2938 18.6962L15.3955 18.3795L15.1255 18.1806C15.1107 18.1688 15.105 18.149 15.1109 18.1311C15.117 18.1132 15.1336 18.101 15.1525 18.1005H15.4845L15.5916 17.7837C15.6024 17.7405 15.6618 17.7405 15.6744 17.7837ZM13.2294 18.1005L13.1223 17.7837C13.1097 17.7405 13.0503 17.7405 13.0494 17.7837L12.9423 18.1005H12.6004C12.5969 18.1006 12.5936 18.1011 12.5903 18.1019C12.5859 18.103 12.5818 18.1048 12.5779 18.1072C12.5691 18.1126 12.5623 18.1209 12.5588 18.1311C12.5529 18.149 12.5586 18.1688 12.5734 18.1806L12.8433 18.3795L12.7417 18.6962C12.7366 18.7145 12.7437 18.734 12.7592 18.7448C12.7662 18.7497 12.7741 18.7524 12.7822 18.7529C12.7922 18.7535 12.8024 18.7508 12.8109 18.7448L13.0809 18.5513L13.3509 18.7448C13.3662 18.757 13.3877 18.7577 13.4037 18.7465C13.4197 18.7352 13.4264 18.7148 13.4201 18.6962L13.3184 18.3795L13.5885 18.1806C13.6032 18.1688 13.609 18.149 13.603 18.1311C13.5969 18.1132 13.5803 18.101 13.5614 18.1005H13.2294ZM19.4963 16.9729L19.6034 17.2897H19.9355C19.9543 17.2902 19.9709 17.3024 19.9769 17.3203C19.9793 17.3275 19.9799 17.335 19.9786 17.3422C19.9769 17.3528 19.9712 17.3627 19.9624 17.3698L19.6925 17.5686L19.7942 17.8854C19.7973 17.8947 19.7972 17.9044 19.7942 17.9133C19.7933 17.9161 19.7922 17.9187 19.7907 17.9213C19.7894 17.9236 19.7878 17.9259 19.7861 17.928C19.7837 17.9308 19.7809 17.9334 19.7777 17.9357C19.7617 17.9469 19.7401 17.9462 19.7249 17.934L19.4549 17.7405L19.1849 17.934C19.1766 17.9398 19.1668 17.9426 19.1572 17.9422C19.1487 17.9418 19.1404 17.9391 19.1332 17.934C19.1177 17.9231 19.1107 17.9037 19.1156 17.8854L19.2173 17.5686L18.9473 17.3698C18.9326 17.358 18.9268 17.3382 18.9329 17.3203C18.9364 17.3097 18.9436 17.3011 18.9528 17.2958C18.9592 17.292 18.9666 17.2899 18.9743 17.2897H19.3064L19.4135 16.9729C19.4297 16.936 19.489 16.936 19.4963 16.9729ZM17.0512 17.2897L16.9441 16.9729C16.9369 16.936 16.8775 16.936 16.8613 16.9729L16.7543 17.2897H16.4222C16.4033 17.2902 16.3868 17.3024 16.3807 17.3203C16.3747 17.3382 16.3805 17.358 16.3952 17.3698L16.6652 17.5686L16.5635 17.8854C16.5586 17.9037 16.5656 17.9231 16.5811 17.934C16.5966 17.9449 16.6173 17.9449 16.6328 17.934L16.9027 17.7405L17.1727 17.934C17.188 17.9462 17.2096 17.9469 17.2256 17.9357C17.2348 17.9292 17.2409 17.9198 17.2433 17.9093C17.2443 17.9049 17.2447 17.9003 17.2442 17.8956C17.2439 17.8922 17.2432 17.8888 17.242 17.8854L17.1404 17.5686L17.4103 17.3698C17.4251 17.358 17.4309 17.3382 17.4248 17.3203C17.4214 17.3101 17.4146 17.3018 17.4059 17.2964C17.3992 17.2923 17.3915 17.2899 17.3833 17.2897H17.0512ZM14.3984 16.9729L14.5055 17.2897H14.8375C14.8564 17.2902 14.873 17.3024 14.879 17.3203C14.8851 17.3382 14.8792 17.358 14.8645 17.3698L14.5945 17.5686L14.6962 17.8854C14.7025 17.904 14.6958 17.9244 14.6798 17.9357C14.6637 17.9469 14.6422 17.9462 14.6269 17.934L14.357 17.7405L14.087 17.934C14.0715 17.9449 14.0508 17.9449 14.0353 17.934C14.0198 17.9231 14.0127 17.9037 14.0177 17.8854L14.1194 17.5686L13.8494 17.3698C13.8347 17.358 13.8289 17.3382 13.8349 17.3203C13.8409 17.3024 13.8575 17.2902 13.8764 17.2897H14.2184L14.3254 16.9729C14.3263 16.936 14.3858 16.936 14.3984 16.9729ZM18.2202 16.1369C18.2202 16.1141 18.2017 16.0955 18.1788 16.0955C18.1708 16.0955 18.1632 16.0978 18.1568 16.1018L18.1556 16.1026L18.1523 16.1051L18.1497 16.1074L18.1469 16.1105C18.1449 16.113 18.1432 16.1156 18.1417 16.1185C18.1406 16.1208 18.1397 16.1231 18.139 16.1256C18.1384 16.1278 18.1379 16.13 18.1376 16.1322L18.1374 16.1369L18.0304 16.4537H17.6983C17.6794 16.4542 17.6628 16.4664 17.6568 16.4843C17.6508 16.5022 17.6565 16.522 17.6713 16.5338L17.9412 16.7326L17.8396 17.0494C17.837 17.0588 17.8376 17.0685 17.8409 17.0772C17.8429 17.0823 17.8458 17.0872 17.8496 17.0913L17.8531 17.0948C17.8543 17.0959 17.8557 17.097 17.8571 17.098C17.8658 17.1041 17.8761 17.1068 17.8862 17.1061C17.8941 17.1055 17.902 17.1028 17.9088 17.098L18.1788 16.9045L18.4488 17.098C18.4533 17.1016 18.4583 17.1042 18.4636 17.1058C18.4672 17.1069 18.4709 17.1075 18.4747 17.1076C18.484 17.108 18.4935 17.1053 18.5016 17.0997C18.5119 17.0925 18.5183 17.0815 18.52 17.0697C18.5209 17.063 18.5204 17.0561 18.5181 17.0494L18.4164 16.7326L18.6864 16.5338C18.6937 16.5279 18.6988 16.5201 18.7013 16.5115C18.704 16.5028 18.7039 16.4933 18.7009 16.4843C18.6978 16.4752 18.6921 16.4677 18.6847 16.4623C18.6775 16.457 18.6687 16.4539 18.6594 16.4537H18.3273L18.2202 16.1369ZM15.6744 16.1369L15.7815 16.4537H16.1135C16.1324 16.4542 16.149 16.4664 16.1551 16.4843C16.1611 16.5022 16.1553 16.522 16.1406 16.5338L15.8706 16.7326L15.9722 17.0494C15.9731 17.052 15.9737 17.0547 15.9741 17.0573C15.9746 17.0606 15.9747 17.064 15.9744 17.0673C15.9741 17.0715 15.9731 17.0757 15.9716 17.0796C15.9702 17.0829 15.9685 17.0861 15.9665 17.089C15.9637 17.0931 15.9601 17.0967 15.9558 17.0997C15.9398 17.1109 15.9183 17.1102 15.903 17.098L15.633 16.9045L15.363 17.098C15.3475 17.1089 15.3269 17.1089 15.3113 17.098C15.3071 17.095 15.3035 17.0914 15.3006 17.0873C15.2971 17.0824 15.2946 17.0769 15.2933 17.0711L15.2925 17.0665L15.2921 17.0612C15.2921 17.0592 15.2923 17.0572 15.2925 17.0552C15.2928 17.0533 15.2932 17.0513 15.2938 17.0494L15.3955 16.7326L15.1255 16.5338C15.1107 16.522 15.105 16.5022 15.1109 16.4843C15.117 16.4664 15.1336 16.4542 15.1525 16.4537H15.4845L15.5916 16.1369C15.6024 16.0937 15.6618 16.0937 15.6744 16.1369ZM19.6034 15.6483L19.4963 15.3315C19.492 15.3143 19.4764 15.3023 19.4586 15.3028C19.4533 15.3029 19.4483 15.3041 19.4438 15.3062C19.433 15.3112 19.4249 15.3211 19.4224 15.3333L19.3154 15.6501H18.9833C18.9709 15.6504 18.9596 15.6558 18.9515 15.6645C18.9472 15.6691 18.9439 15.6745 18.9419 15.6807C18.9395 15.6875 18.939 15.6947 18.9399 15.7015C18.9415 15.7125 18.9472 15.7229 18.9563 15.7302L19.2263 15.929L19.1156 16.244C19.1107 16.2623 19.1177 16.2817 19.1332 16.2926C19.1487 16.3035 19.1694 16.3035 19.1849 16.2926L19.4549 16.0991L19.7249 16.2926C19.7401 16.3048 19.7617 16.3055 19.7777 16.2942C19.7937 16.283 19.8004 16.2625 19.7942 16.244L19.6925 15.9272L19.9624 15.7284C19.9772 15.7165 19.983 15.6968 19.9769 15.6789C19.9709 15.661 19.9543 15.6487 19.9355 15.6483H19.6034ZM16.9027 15.2901C16.9135 15.2901 16.9233 15.2942 16.9307 15.301C16.9389 15.3085 16.9441 15.3194 16.9441 15.3315L17.0512 15.6483H17.3833C17.4022 15.6487 17.4188 15.661 17.4248 15.6789C17.4309 15.6968 17.4251 15.7165 17.4103 15.7284L17.1404 15.9272L17.242 16.244C17.245 16.2528 17.2451 16.262 17.2426 16.2705C17.2412 16.2752 17.239 16.2797 17.2361 16.2837L17.2338 16.2867L17.2316 16.2892C17.2298 16.291 17.2278 16.2927 17.2256 16.2942C17.2096 16.3055 17.188 16.3048 17.1727 16.2926L16.9027 16.0991L16.6328 16.2926C16.6173 16.3035 16.5966 16.3035 16.5811 16.2926C16.5656 16.2817 16.5586 16.2623 16.5635 16.244L16.6652 15.9272L16.3952 15.7284C16.3805 15.7165 16.3747 15.6968 16.3807 15.6789C16.3868 15.661 16.4033 15.6487 16.4222 15.6483H16.7543L16.8613 15.3315C16.8613 15.3086 16.8799 15.2901 16.9027 15.2901ZM14.5055 15.6483L14.3984 15.3315C14.3858 15.2883 14.3263 15.2883 14.3254 15.3315L14.2184 15.6483H13.8764C13.8575 15.6487 13.8409 15.661 13.8349 15.6789C13.8289 15.6968 13.8347 15.7165 13.8494 15.7284L14.1194 15.9272L14.0177 16.244C14.0127 16.2623 14.0198 16.2817 14.0353 16.2926C14.0508 16.3035 14.0715 16.3035 14.087 16.2926L14.357 16.0991L14.6269 16.2926C14.6422 16.3048 14.6637 16.3055 14.6798 16.2942C14.6906 16.2867 14.6971 16.2748 14.6984 16.2622C14.6989 16.2562 14.6982 16.25 14.6962 16.244L14.5945 15.9272L14.8645 15.7284C14.8792 15.7165 14.8851 15.6968 14.879 15.6789C14.873 15.661 14.8564 15.6487 14.8375 15.6483H14.5055ZM15.6744 14.4883L15.7815 14.8051H16.1135C16.1243 14.8053 16.1343 14.8094 16.1421 14.8162C16.1479 14.8214 16.1525 14.828 16.1551 14.8357C16.1611 14.8536 16.1553 14.8733 16.1406 14.8852L15.8706 15.084L15.9722 15.4008C15.9786 15.4193 15.9718 15.4398 15.9558 15.451C15.9451 15.4586 15.9318 15.4608 15.9196 15.4577C15.9137 15.4562 15.908 15.4534 15.903 15.4494L15.633 15.2559L15.363 15.4494C15.3543 15.4555 15.344 15.4582 15.3338 15.4575C15.3259 15.4569 15.3181 15.4542 15.3113 15.4494C15.2958 15.4385 15.2888 15.4191 15.2938 15.4008L15.3955 15.084L15.1255 14.8852C15.1107 14.8733 15.105 14.8536 15.1109 14.8357C15.117 14.8178 15.1336 14.8055 15.1525 14.8051H15.4845L15.5916 14.4883C15.6024 14.4514 15.6618 14.4514 15.6744 14.4883ZM18.3273 14.8051L18.2202 14.4883C18.213 14.4514 18.1536 14.4514 18.1374 14.4883L18.0304 14.8051H17.6983C17.6794 14.8055 17.6628 14.8178 17.6568 14.8357C17.6508 14.8536 17.6565 14.8733 17.6713 14.8852L17.9412 15.084L17.8396 15.4008C17.8346 15.4191 17.8416 15.4385 17.8571 15.4494C17.8727 15.4603 17.8933 15.4603 17.9088 15.4494L18.1788 15.2559L18.4488 15.4494C18.4641 15.4616 18.4856 15.4623 18.5016 15.451C18.5177 15.4398 18.5243 15.4193 18.5181 15.4008L18.4164 15.084L18.6864 14.8852C18.7011 14.8733 18.7069 14.8536 18.7009 14.8357C18.6948 14.8178 18.6783 14.8055 18.6594 14.8051H18.3273ZM16.9441 13.6838L17.0512 14.0006H17.3833C17.3866 14.0006 17.3899 14.0011 17.393 14.0019C17.3975 14.003 17.4017 14.0048 17.4057 14.0071C17.4144 14.0125 17.4214 14.0209 17.4248 14.0312C17.4309 14.0491 17.4251 14.0688 17.4103 14.0807L17.1404 14.2795L17.242 14.5963C17.2483 14.6148 17.2416 14.6353 17.2256 14.6465C17.2096 14.6578 17.188 14.6571 17.1727 14.6449L16.9027 14.4514L16.6328 14.6449C16.6173 14.6558 16.5966 14.6558 16.5811 14.6449C16.5687 14.6362 16.5617 14.622 16.5619 14.6074C16.562 14.6052 16.5622 14.6031 16.5625 14.601L16.5635 14.5963L16.6652 14.2795L16.3952 14.0807C16.3805 14.0688 16.3747 14.0491 16.3807 14.0312C16.3868 14.0133 16.4033 14.001 16.4222 14.0006H16.7543L16.8613 13.6838C16.8775 13.6469 16.9369 13.6469 16.9441 13.6838ZM19.6034 14.0006L19.4963 13.6838C19.489 13.6469 19.4297 13.6469 19.4135 13.6838L19.3064 14.0006H18.9743C18.9667 14.0008 18.9595 14.0029 18.9532 14.0065C18.9438 14.0118 18.9364 14.0205 18.9329 14.0312C18.9268 14.0491 18.9326 14.0688 18.9473 14.0807L19.2173 14.2795L19.1156 14.5963C19.1149 14.5988 19.1145 14.6013 19.1142 14.6038C19.114 14.6061 19.114 14.6085 19.1141 14.6108C19.1144 14.6146 19.1151 14.6184 19.1162 14.622C19.1178 14.6267 19.1201 14.6312 19.1231 14.6352C19.1259 14.6389 19.1293 14.6422 19.1332 14.6449C19.1487 14.6558 19.1694 14.6558 19.1849 14.6449L19.4549 14.4514L19.7249 14.6449C19.7401 14.6571 19.7617 14.6578 19.7777 14.6465C19.7937 14.6353 19.8004 14.6148 19.7942 14.5963L19.6925 14.2795L19.9624 14.0807C19.9701 14.0745 19.9753 14.0663 19.9777 14.0573C19.9799 14.0489 19.9798 14.0398 19.9769 14.0312C19.9709 14.0133 19.9543 14.001 19.9355 14.0006H19.6034ZM18.2129 12.8235C18.2151 12.8266 18.2168 12.8301 18.218 12.8337C18.2186 12.8354 18.2191 12.8372 18.2194 12.8391C18.22 12.8416 18.2202 12.8442 18.2202 12.8469L18.3273 13.1637H18.6594C18.6633 13.1638 18.6672 13.1644 18.6708 13.1654C18.6744 13.1665 18.6777 13.1679 18.6809 13.1698C18.6901 13.1751 18.6973 13.1837 18.7009 13.1943C18.7069 13.2122 18.7011 13.2319 18.6864 13.2437L18.4164 13.4426L18.5181 13.7594C18.5223 13.7719 18.5206 13.7853 18.5142 13.7961C18.513 13.7982 18.5115 13.8002 18.5099 13.8021C18.5075 13.8049 18.5048 13.8074 18.5016 13.8096C18.4856 13.8209 18.4641 13.8202 18.4488 13.808L18.1788 13.6145L17.9088 13.808C17.902 13.8128 17.894 13.8155 17.886 13.816C17.876 13.8167 17.8658 13.814 17.8571 13.808C17.8416 13.7971 17.8346 13.7777 17.8396 13.7594L17.9412 13.4426L17.6713 13.2437C17.6565 13.2319 17.6508 13.2122 17.6568 13.1943C17.6628 13.1764 17.6794 13.1641 17.6983 13.1637H18.0304L18.1374 12.8469C18.1374 12.8321 18.1453 12.8184 18.1581 12.811C18.1662 12.8063 18.1756 12.8046 18.1846 12.8059C18.1898 12.8066 18.1949 12.8083 18.1995 12.811C18.2028 12.8129 18.2056 12.8152 18.2082 12.8178C18.21 12.8195 18.2115 12.8215 18.2129 12.8235Z" fill="#283991"/>
<path d="M14.6919 14.583L14.648 14.6265L14.6284 14.646C14.6436 14.6571 14.6643 14.6574 14.6798 14.6465C14.6897 14.6396 14.6961 14.629 14.698 14.6176C14.6991 14.6106 14.6986 14.6033 14.6962 14.5963L14.6919 14.583Z" fill="#283991"/>
<path d="M19.3884 12.1451C19.4332 12.137 19.4781 12.1292 19.5231 12.1217L19.6034 12.3591H19.9355C19.9543 12.3596 19.9709 12.3718 19.9769 12.3897C19.983 12.4076 19.9772 12.4274 19.9624 12.4392L19.6925 12.6381L19.7942 12.9549C19.8004 12.9734 19.7937 12.9939 19.7777 13.0051C19.7616 13.0164 19.7402 13.0157 19.7249 13.0035L19.4549 12.81L19.1849 13.0035C19.1694 13.0144 19.1487 13.0144 19.1332 13.0035C19.1177 12.9926 19.1107 12.9732 19.1156 12.9549L19.2263 12.6399L18.9563 12.441C18.9416 12.4292 18.9358 12.4095 18.9419 12.3915C18.9479 12.3736 18.9644 12.3614 18.9833 12.3609H19.3154L19.3884 12.1451Z" fill="white"/>
<path d="M17.0475 12.9137C17.0996 12.8881 17.152 12.8631 17.2047 12.8385L17.242 12.9549C17.2483 12.9734 17.2416 12.9939 17.2256 13.0051C17.2096 13.0164 17.188 13.0157 17.1727 13.0035L17.0475 12.9137Z" fill="white"/>
<path d="M15.7448 13.6947C15.8006 13.6545 15.8567 13.615 15.9134 13.5761L15.9722 13.7594C15.9786 13.7779 15.9718 13.7984 15.9558 13.8096C15.9398 13.8209 15.9183 13.8202 15.903 13.808L15.7448 13.6947Z" fill="white"/>
<path d="M14.6284 14.646C14.6495 14.6249 14.6707 14.6039 14.6919 14.583L14.6962 14.5963C14.7025 14.6148 14.6958 14.6353 14.6798 14.6465C14.6643 14.6574 14.6436 14.6571 14.6284 14.646Z" fill="white"/>
<path d="M12.932 17.0112C13.026 16.8215 13.1264 16.6355 13.2331 16.4537H13.5614C13.5803 16.4542 13.5969 16.4664 13.603 16.4843C13.609 16.5022 13.6032 16.522 13.5885 16.5338L13.3184 16.7326L13.4201 17.0494C13.4264 17.068 13.4197 17.0884 13.4037 17.0997C13.3877 17.1109 13.3661 17.1102 13.3509 17.098L13.0809 16.9045L12.932 17.0112Z" fill="white"/>
<path d="M12.1117 19.5904C12.1174 19.5891 12.1227 19.5868 12.1277 19.5834C12.1437 19.5721 12.1504 19.5517 12.1441 19.5331L12.1288 19.4856C12.1229 19.5205 12.1172 19.5554 12.1117 19.5904Z" fill="white"/>
<path d="M12.2034 19.0978C12.2149 19.0441 12.2269 18.9907 12.2394 18.9374H12.2854C12.3042 18.9379 12.3209 18.9501 12.3269 18.968C12.3329 18.9859 12.3271 19.0057 12.3124 19.0175L12.2034 19.0978Z" fill="white"/>
<path d="M19.4963 18.6206C19.492 18.6034 19.4764 18.5915 19.4586 18.5919C19.4409 18.5923 19.4259 18.605 19.4224 18.6224L19.3154 18.9392H18.9833C18.9644 18.9397 18.9479 18.9519 18.9419 18.9698C18.9358 18.9877 18.9416 19.0075 18.9563 19.0193L19.2263 19.2182L19.1156 19.5331C19.1107 19.5514 19.1177 19.5709 19.1332 19.5818C19.1487 19.5926 19.1694 19.5926 19.1849 19.5817L19.4549 19.3883L19.7249 19.5817C19.7401 19.5939 19.7617 19.5946 19.7777 19.5834C19.7937 19.5721 19.8004 19.5517 19.7942 19.5331L19.6925 19.2164L19.9624 19.0175C19.9772 19.0057 19.983 18.9859 19.9769 18.968C19.9709 18.9501 19.9543 18.9379 19.9355 18.9374H19.6034L19.4963 18.6206Z" fill="white"/>
<path d="M16.9441 18.6206C16.9399 18.6034 16.9243 18.5915 16.9065 18.5919C16.8888 18.5923 16.8738 18.605 16.8703 18.6224L16.7633 18.9392H16.4312C16.4123 18.9397 16.3958 18.9519 16.3897 18.9698C16.3837 18.9877 16.3895 19.0075 16.4042 19.0193L16.6742 19.2182L16.5635 19.5331C16.5585 19.5514 16.5656 19.5709 16.5811 19.5818C16.5966 19.5926 16.6173 19.5926 16.6328 19.5817L16.9027 19.3883L17.1727 19.5817C17.188 19.5939 17.2095 19.5946 17.2256 19.5834C17.2416 19.5721 17.2483 19.5517 17.242 19.5331L17.1404 19.2164L17.4103 19.0175C17.4251 19.0057 17.4308 18.9859 17.4248 18.968C17.4188 18.9501 17.4022 18.9379 17.3833 18.9374H17.0512L16.9441 18.6206Z" fill="white"/>
<path d="M14.5055 18.9374L14.3984 18.6206C14.3858 18.5774 14.3263 18.5774 14.3254 18.6224L14.2184 18.9392H13.8854C13.8665 18.9397 13.85 18.9519 13.8439 18.9698C13.8379 18.9877 13.8437 19.0075 13.8584 19.0193L14.1284 19.2182L14.0177 19.5331C14.0128 19.5514 14.0198 19.5709 14.0353 19.5818C14.0508 19.5926 14.0715 19.5926 14.087 19.5817L14.357 19.3883L14.6269 19.5817C14.6422 19.5939 14.6637 19.5946 14.6798 19.5834C14.6958 19.5721 14.7025 19.5517 14.6962 19.5331L14.5945 19.2164L14.8645 19.0175C14.8793 19.0057 14.8851 18.9859 14.879 18.968C14.873 18.9501 14.8564 18.9379 14.8375 18.9374H14.5055Z" fill="white"/>
<path d="M18.2202 17.7837C18.2202 17.7689 18.2123 17.7553 18.1995 17.7479C18.1867 17.7405 18.1709 17.7405 18.1581 17.7479C18.1453 17.7553 18.1374 17.7689 18.1374 17.7837L18.0304 18.1005H17.6983C17.6794 18.101 17.6628 18.1132 17.6568 18.1311C17.6508 18.149 17.6565 18.1688 17.6713 18.1806L17.9412 18.3795L17.8396 18.6962C17.8346 18.7145 17.8416 18.734 17.8571 18.7448C17.8727 18.7557 17.8933 18.7557 17.9088 18.7448L18.1788 18.5513L18.4488 18.7448C18.4641 18.757 18.4856 18.7577 18.5016 18.7465C18.5177 18.7352 18.5243 18.7148 18.5181 18.6962L18.4164 18.3795L18.6864 18.1806C18.7011 18.1688 18.7069 18.149 18.7009 18.1311C18.6948 18.1132 18.6783 18.101 18.6594 18.1005H18.3273L18.2202 17.7837Z" fill="white"/>
<path d="M15.7815 18.1005L15.6744 17.7837C15.6618 17.7405 15.6024 17.7405 15.5916 17.7837L15.4845 18.1005H15.1525C15.1336 18.101 15.117 18.1132 15.1109 18.1311C15.105 18.149 15.1107 18.1688 15.1255 18.1806L15.3955 18.3795L15.2938 18.6962C15.2888 18.7145 15.2958 18.734 15.3113 18.7448C15.3269 18.7557 15.3475 18.7557 15.363 18.7448L15.633 18.5513L15.903 18.7448C15.9183 18.757 15.9398 18.7577 15.9558 18.7465C15.9718 18.7352 15.9786 18.7148 15.9722 18.6962L15.8706 18.3795L16.1406 18.1806C16.1553 18.1688 16.1611 18.149 16.1551 18.1311C16.149 18.1132 16.1324 18.101 16.1135 18.1005H15.7815Z" fill="white"/>
<path d="M13.2294 18.1005L13.1223 17.7837C13.1097 17.7405 13.0503 17.7405 13.0494 17.7837L12.9423 18.1005H12.6004C12.5815 18.101 12.5649 18.1132 12.5588 18.1311C12.5529 18.149 12.5586 18.1688 12.5734 18.1806L12.8433 18.3795L12.7417 18.6962C12.7366 18.7145 12.7437 18.734 12.7592 18.7448C12.7748 18.7557 12.7954 18.7557 12.8109 18.7448L13.0809 18.5513L13.3509 18.7448C13.3662 18.757 13.3877 18.7577 13.4037 18.7465C13.4197 18.7352 13.4264 18.7148 13.4201 18.6962L13.3184 18.3795L13.5885 18.1806C13.6032 18.1688 13.609 18.149 13.603 18.1311C13.5969 18.1132 13.5803 18.101 13.5614 18.1005H13.2294Z" fill="white"/>
<path d="M19.6034 17.2897L19.4963 16.9729C19.489 16.936 19.4297 16.936 19.4135 16.9729L19.3064 17.2897H18.9743C18.9554 17.2902 18.9389 17.3024 18.9329 17.3203C18.9268 17.3382 18.9326 17.358 18.9473 17.3698L19.2173 17.5686L19.1156 17.8854C19.1107 17.9037 19.1177 17.9231 19.1332 17.934C19.1487 17.9449 19.1694 17.9449 19.1849 17.934L19.4549 17.7405L19.7249 17.934C19.7401 17.9462 19.7617 17.9469 19.7777 17.9357C19.7937 17.9244 19.8004 17.904 19.7942 17.8854L19.6925 17.5686L19.9624 17.3698C19.9772 17.358 19.983 17.3382 19.9769 17.3203C19.9709 17.3024 19.9543 17.2902 19.9355 17.2897H19.6034Z" fill="white"/>
<path d="M17.0512 17.2897L16.9441 16.9729C16.9369 16.936 16.8775 16.936 16.8613 16.9729L16.7543 17.2897H16.4222C16.4033 17.2902 16.3868 17.3024 16.3807 17.3203C16.3747 17.3382 16.3805 17.358 16.3952 17.3698L16.6652 17.5686L16.5635 17.8854C16.5586 17.9037 16.5656 17.9231 16.5811 17.934C16.5966 17.9449 16.6173 17.9449 16.6328 17.934L16.9027 17.7405L17.1727 17.934C17.188 17.9462 17.2096 17.9469 17.2256 17.9357C17.2416 17.9244 17.2483 17.904 17.242 17.8854L17.1404 17.5686L17.4103 17.3698C17.4251 17.358 17.4309 17.3382 17.4248 17.3203C17.4188 17.3024 17.4022 17.2902 17.3833 17.2897H17.0512Z" fill="white"/>
<path d="M14.5055 17.2897L14.3984 16.9729C14.3858 16.936 14.3263 16.936 14.3254 16.9729L14.2184 17.2897H13.8764C13.8575 17.2902 13.8409 17.3024 13.8349 17.3203C13.8289 17.3382 13.8347 17.358 13.8494 17.3698L14.1194 17.5686L14.0177 17.8854C14.0127 17.9037 14.0198 17.9231 14.0353 17.934C14.0508 17.9449 14.0715 17.9449 14.087 17.934L14.357 17.7405L14.6269 17.934C14.6422 17.9462 14.6637 17.9469 14.6798 17.9357C14.6958 17.9244 14.7025 17.904 14.6962 17.8854L14.5945 17.5686L14.8645 17.3698C14.8792 17.358 14.8851 17.3382 14.879 17.3203C14.873 17.3024 14.8564 17.2902 14.8375 17.2897H14.5055Z" fill="white"/>
<path d="M18.2202 16.1369C18.2202 16.1141 18.2017 16.0955 18.1788 16.0955C18.1559 16.0955 18.1374 16.1141 18.1374 16.1369L18.0304 16.4537H17.6983C17.6794 16.4542 17.6628 16.4664 17.6568 16.4843C17.6508 16.5022 17.6565 16.522 17.6713 16.5338L17.9412 16.7326L17.8396 17.0494C17.8346 17.0677 17.8416 17.0871 17.8571 17.098C17.8727 17.1089 17.8933 17.1089 17.9088 17.098L18.1788 16.9045L18.4488 17.098C18.4641 17.1102 18.4856 17.1109 18.5016 17.0997C18.5177 17.0884 18.5244 17.068 18.5181 17.0494L18.4164 16.7326L18.6864 16.5338C18.7011 16.522 18.7069 16.5022 18.7009 16.4843C18.6948 16.4664 18.6783 16.4542 18.6594 16.4537H18.3273L18.2202 16.1369Z" fill="white"/>
<path d="M15.7815 16.4537L15.6744 16.1369C15.6618 16.0937 15.6024 16.0937 15.5916 16.1369L15.4845 16.4537H15.1525C15.1336 16.4542 15.117 16.4664 15.1109 16.4843C15.105 16.5022 15.1107 16.522 15.1255 16.5338L15.3955 16.7326L15.2938 17.0494C15.2888 17.0677 15.2958 17.0871 15.3113 17.098C15.3269 17.1089 15.3475 17.1089 15.363 17.098L15.633 16.9045L15.903 17.098C15.9183 17.1102 15.9398 17.1109 15.9558 17.0997C15.9719 17.0884 15.9785 17.068 15.9722 17.0494L15.8706 16.7326L16.1406 16.5338C16.1553 16.522 16.1611 16.5022 16.1551 16.4843C16.149 16.4664 16.1324 16.4542 16.1135 16.4537H15.7815Z" fill="white"/>
<path d="M19.4963 15.3315C19.492 15.3143 19.4764 15.3023 19.4586 15.3028C19.4409 15.3032 19.4258 15.3159 19.4224 15.3333L19.3154 15.6501H18.9833C18.9644 15.6505 18.9479 15.6628 18.9419 15.6807C18.9358 15.6986 18.9416 15.7183 18.9563 15.7302L19.2263 15.929L19.1156 16.244C19.1107 16.2623 19.1177 16.2817 19.1332 16.2926C19.1487 16.3035 19.1694 16.3035 19.1849 16.2926L19.4549 16.0991L19.7249 16.2926C19.7401 16.3048 19.7617 16.3055 19.7777 16.2942C19.7937 16.283 19.8004 16.2625 19.7942 16.244L19.6925 15.9272L19.9624 15.7284C19.9772 15.7165 19.983 15.6968 19.9769 15.6789C19.9709 15.661 19.9543 15.6487 19.9355 15.6483H19.6034L19.4963 15.3315Z" fill="white"/>
<path d="M16.9441 15.3315C16.9441 15.3086 16.9256 15.2901 16.9027 15.2901C16.8799 15.2901 16.8613 15.3086 16.8613 15.3315L16.7543 15.6483H16.4222C16.4033 15.6487 16.3868 15.661 16.3807 15.6789C16.3747 15.6968 16.3805 15.7165 16.3952 15.7284L16.6652 15.9272L16.5635 16.244C16.5586 16.2623 16.5656 16.2817 16.5811 16.2926C16.5966 16.3035 16.6173 16.3035 16.6328 16.2926L16.9027 16.0991L17.1727 16.2926C17.188 16.3048 17.2096 16.3055 17.2256 16.2942C17.2416 16.283 17.2483 16.2625 17.242 16.244L17.1404 15.9272L17.4103 15.7284C17.4251 15.7165 17.4309 15.6968 17.4248 15.6789C17.4188 15.661 17.4022 15.6487 17.3833 15.6483H17.0512L16.9441 15.3315Z" fill="white"/>
<path d="M14.5055 15.6483L14.3984 15.3315C14.3858 15.2883 14.3263 15.2883 14.3254 15.3315L14.2184 15.6483H13.8764C13.8575 15.6487 13.8409 15.661 13.8349 15.6789C13.8289 15.6968 13.8347 15.7165 13.8494 15.7284L14.1194 15.9272L14.0177 16.244C14.0127 16.2623 14.0198 16.2817 14.0353 16.2926C14.0508 16.3035 14.0715 16.3035 14.087 16.2926L14.357 16.0991L14.6269 16.2926C14.6422 16.3048 14.6637 16.3055 14.6798 16.2942C14.6958 16.283 14.7025 16.2625 14.6962 16.244L14.5945 15.9272L14.8645 15.7284C14.8792 15.7165 14.8851 15.6968 14.879 15.6789C14.873 15.661 14.8564 15.6487 14.8375 15.6483H14.5055Z" fill="white"/>
<path d="M15.7815 14.8051L15.6744 14.4883C15.6618 14.4514 15.6024 14.4514 15.5916 14.4883L15.4845 14.8051H15.1525C15.1336 14.8055 15.117 14.8178 15.1109 14.8357C15.105 14.8536 15.1107 14.8733 15.1255 14.8852L15.3955 15.084L15.2938 15.4008C15.2888 15.4191 15.2958 15.4385 15.3113 15.4494C15.3269 15.4603 15.3475 15.4603 15.363 15.4494L15.633 15.2559L15.903 15.4494C15.9183 15.4616 15.9398 15.4623 15.9558 15.451C15.9718 15.4398 15.9786 15.4193 15.9722 15.4008L15.8706 15.084L16.1406 14.8852C16.1553 14.8733 16.1611 14.8536 16.1551 14.8357C16.149 14.8178 16.1324 14.8055 16.1135 14.8051H15.7815Z" fill="white"/>
<path d="M18.3273 14.8051L18.2202 14.4883C18.213 14.4514 18.1536 14.4514 18.1374 14.4883L18.0304 14.8051H17.6983C17.6794 14.8055 17.6628 14.8178 17.6568 14.8357C17.6508 14.8536 17.6565 14.8733 17.6713 14.8852L17.9412 15.084L17.8396 15.4008C17.8346 15.4191 17.8416 15.4385 17.8571 15.4494C17.8727 15.4603 17.8933 15.4603 17.9088 15.4494L18.1788 15.2559L18.4488 15.4494C18.4641 15.4616 18.4856 15.4623 18.5016 15.451C18.5177 15.4398 18.5243 15.4193 18.5181 15.4008L18.4164 15.084L18.6864 14.8852C18.7011 14.8733 18.7069 14.8536 18.7009 14.8357C18.6948 14.8178 18.6783 14.8055 18.6594 14.8051H18.3273Z" fill="white"/>
<path d="M17.0512 14.0006L16.9441 13.6838C16.9369 13.6469 16.8775 13.6469 16.8613 13.6838L16.7543 14.0006H16.4222C16.4033 14.001 16.3868 14.0133 16.3807 14.0312C16.3747 14.0491 16.3805 14.0688 16.3952 14.0807L16.6652 14.2795L16.5635 14.5963C16.5585 14.6146 16.5656 14.634 16.5811 14.6449C16.5966 14.6558 16.6173 14.6558 16.6328 14.6449L16.9027 14.4514L17.1727 14.6449C17.188 14.6571 17.2096 14.6578 17.2256 14.6465C17.2416 14.6353 17.2483 14.6148 17.242 14.5963L17.1404 14.2795L17.4103 14.0807C17.4251 14.0688 17.4309 14.0491 17.4248 14.0312C17.4188 14.0133 17.4022 14.001 17.3833 14.0006H17.0512Z" fill="white"/>
<path d="M19.6034 14.0006L19.4963 13.6838C19.489 13.6469 19.4297 13.6469 19.4135 13.6838L19.3064 14.0006H18.9743C18.9554 14.001 18.9389 14.0133 18.9329 14.0312C18.9268 14.0491 18.9326 14.0688 18.9473 14.0807L19.2173 14.2795L19.1156 14.5963C19.1107 14.6146 19.1177 14.634 19.1332 14.6449C19.1487 14.6558 19.1694 14.6558 19.1849 14.6449L19.4549 14.4514L19.7249 14.6449C19.7401 14.6571 19.7617 14.6578 19.7777 14.6465C19.7937 14.6353 19.8004 14.6148 19.7942 14.5963L19.6925 14.2795L19.9624 14.0807C19.9772 14.0688 19.983 14.0491 19.9769 14.0312C19.9709 14.0133 19.9543 14.001 19.9355 14.0006H19.6034Z" fill="white"/>
<path d="M18.2202 12.8469C18.2202 12.8321 18.2123 12.8184 18.1995 12.811C18.1867 12.8036 18.1709 12.8036 18.1581 12.811C18.1453 12.8184 18.1374 12.8321 18.1374 12.8469L18.0304 13.1637H17.6983C17.6794 13.1641 17.6628 13.1764 17.6568 13.1943C17.6508 13.2122 17.6565 13.2319 17.6713 13.2437L17.9412 13.4426L17.8396 13.7594C17.8346 13.7777 17.8416 13.7971 17.8571 13.808C17.8727 13.8189 17.8933 13.8189 17.9088 13.808L18.1788 13.6145L18.4488 13.808C18.4641 13.8202 18.4856 13.8209 18.5016 13.8096C18.5177 13.7984 18.5244 13.7779 18.5181 13.7594L18.4164 13.4426L18.6864 13.2437C18.7011 13.2319 18.7069 13.2122 18.7009 13.1943C18.6948 13.1764 18.6783 13.1641 18.6594 13.1637H18.3273L18.2202 12.8469Z" fill="white"/>
<defs>
<clipPath id="clip0_8821_16410">
<rect width="17.998" height="17.998" fill="white" transform="translate(2.00195 2.00098)"/>
</clipPath>
</defs>
</svg>
