<svg width="32" height="32" viewBox="0 0 32 32" fill="none" xmlns="http://www.w3.org/2000/svg">
<g clip-path="url(#clip0_8821_16899)">
<path d="M32 16C32 24.8366 24.8366 32 16 32C7.16344 32 0 24.8366 0 16C0 7.16344 7.16344 0 16 0C24.8366 0 32 7.16344 32 16Z" fill="#F6F7F8"/>
<path fill-rule="evenodd" clip-rule="evenodd" d="M21.1234 6.24979L27.5853 13.3627C27.8707 13.7238 28.0175 14.1783 27.9983 14.6415C27.9791 15.1046 27.7953 15.5449 27.4811 15.8803C26.3644 17.1087 23.193 20.4984 23.193 20.4984C23.193 20.4984 17.1034 16.2594 21.1234 6.24979Z" fill="#246CB3"/>
<path fill-rule="evenodd" clip-rule="evenodd" d="M17.5882 4.35475L20.2824 7.35144L18.6583 10.8674C16.7154 15.711 18.4458 17.2836 18.4458 17.2836L22.2405 22.6687C22.2405 22.6687 18.5521 26.0956 16.9279 27.4531C15.5846 28.6473 14.7194 27.505 14.7194 27.505L14.0136 26.7632C14.0136 26.7632 15.4177 19.583 15.7971 17.736C15.9381 17.2595 15.9677 16.7581 15.8836 16.2689C15.7995 15.7797 15.604 15.3153 15.3114 14.9099L10.2417 9.41353C10.2417 9.41353 14.5069 5.44513 15.4252 4.46601C16.3436 3.48689 17.5882 4.35475 17.5882 4.35475ZM16.3516 10.3927C16.4503 11.2605 16.1316 11.9726 15.5927 12.0765C15.107 12.1358 14.5681 11.483 14.4619 10.6671C14.3556 9.85118 14.7351 9.16135 15.2208 9.03525C15.7065 8.90915 16.253 9.52481 16.3516 10.3927Z" fill="#010101"/>
<path fill-rule="evenodd" clip-rule="evenodd" d="M9.14988 9.24948L4.47295 13.457C4.15887 13.8348 3.99091 14.3156 4.00038 14.8097C4.00985 15.3038 4.1961 15.7776 4.52443 16.1427C5.67895 17.6347 11.5325 24.9979 11.5325 24.9979C11.5325 24.9979 16.0844 17.0677 9.14988 9.24948Z" fill="#CF4138"/>
</g>
<defs>
<clipPath id="clip0_8821_16899">
<rect width="32" height="32" fill="white"/>
</clipPath>
</defs>
</svg>
