<svg width="32" height="32" viewBox="0 0 32 32" fill="none" xmlns="http://www.w3.org/2000/svg">
<g clip-path="url(#clip0_17199_3216)">
<path d="M15.9928 31.9888C24.8272 31.9888 31.9888 24.8272 31.9888 15.9928C31.9888 7.15852 24.8272 -0.00311279 15.9928 -0.00311279C7.15852 -0.00311279 -0.00311279 7.15852 -0.00311279 15.9928C-0.00311279 24.8272 7.15852 31.9888 15.9928 31.9888Z" fill="#CE2540"/>
<path d="M29.3623 18.4759C29.3138 18.3951 29.2491 18.3224 29.1602 18.2819C29.0794 18.2334 28.9824 18.2092 28.8935 18.2092C28.8046 18.2092 28.7076 18.2334 28.6267 18.2819C28.5459 18.3304 28.4732 18.3951 28.4247 18.4759C28.3762 18.5568 28.3519 18.6538 28.3519 18.7427C28.3519 18.8397 28.3762 18.9286 28.4247 19.0175C28.4732 19.0983 28.5378 19.1711 28.6267 19.2115C28.7076 19.26 28.7965 19.2842 28.8935 19.2842C28.9905 19.2842 29.0794 19.26 29.1602 19.2115C29.241 19.163 29.3057 19.0983 29.3623 19.0175C29.4108 18.9367 29.435 18.8397 29.435 18.7427C29.435 18.6538 29.4108 18.5568 29.3623 18.4759ZM29.2895 18.9771C29.2491 19.0498 29.1925 19.1064 29.1198 19.1387C29.0471 19.1791 28.9743 19.1953 28.8935 19.1953C28.8127 19.1953 28.7399 19.1791 28.6672 19.1387C28.5944 19.0983 28.5378 19.0417 28.4974 18.9771C28.457 18.9043 28.4328 18.8316 28.4328 18.7427C28.4328 18.6618 28.457 18.581 28.4974 18.5163C28.5378 18.4436 28.5944 18.387 28.6672 18.3466C28.7399 18.3062 28.8127 18.2819 28.8935 18.2819C28.9743 18.2819 29.0471 18.3062 29.1198 18.3466C29.1925 18.387 29.2491 18.4436 29.2895 18.5163C29.33 18.5891 29.3542 18.6618 29.3542 18.7427C29.3461 18.8316 29.33 18.9043 29.2895 18.9771Z" fill="white"/>
<path d="M10.1168 12.6807C10.0602 12.6726 8.66996 12.4786 7.06147 13.0444C5.56614 13.5698 3.56159 14.8469 2.6159 17.9992C2.45424 18.5327 2.6159 19.252 3.72325 19.155H7.85359C8.31431 19.155 8.6942 18.7832 8.6942 18.3144C8.6942 17.8537 8.31431 17.4738 7.85359 17.4738H4.60428C5.83288 14.855 8.01524 14.3781 9.15493 14.3215V18.3468C9.15493 18.8075 9.52674 19.1874 9.99554 19.1874C10.4563 19.1874 10.8362 18.8156 10.8362 18.3468V13.5132C10.8362 13.0929 10.529 12.7373 10.1168 12.6807Z" fill="white"/>
<path d="M18.5954 12.6724C17.5446 12.6967 16.8576 13.0362 16.3646 13.5696C15.92 13.0766 15.1602 12.6644 14.1337 12.6724C12.9859 12.5916 10.9975 13.6262 11.143 15.4933V18.3466C11.143 18.8073 11.5148 19.1872 11.9836 19.1872C12.4525 19.1872 12.8243 18.8154 12.8243 18.3466V15.5014C12.8323 14.5153 13.8912 14.3618 14.1337 14.3537C15.3299 14.3213 15.5078 15.3559 15.5078 15.5014V18.3466C15.5078 18.8073 15.9038 19.1872 16.3646 19.1872C16.8253 19.1872 17.2213 18.8154 17.2213 18.3466V15.5014C17.2698 14.4507 18.264 14.3375 18.5954 14.3537C18.7894 14.3698 19.8483 14.4264 19.9048 15.5014V18.3466C19.9048 18.8073 20.2767 19.1872 20.7455 19.1872C21.2062 19.1872 21.5861 18.8154 21.5861 18.3466V15.4933C21.6184 15.3317 21.4891 12.7613 18.5954 12.6724Z" fill="white"/>
<path d="M28.2302 16.4551C27.818 16.245 27.3087 16.4066 27.0986 16.8269C26.7834 17.4412 26.161 17.8211 25.4739 17.8211C24.989 17.8211 24.5282 17.6352 24.1888 17.2876C23.8412 16.9401 23.6553 16.4874 23.6553 16.0025C23.6553 15.5175 23.8412 15.0568 24.1888 14.7173C24.5363 14.3697 24.989 14.1838 25.4739 14.1838C26.2095 14.1838 26.8803 14.5961 27.139 15.2023C27.3249 15.6307 27.818 15.8246 28.2464 15.6387C28.6747 15.4528 28.8687 14.9598 28.6828 14.5314C28.1574 13.319 26.8642 12.5026 25.4739 12.5026C23.5421 12.5026 21.9741 14.0707 21.9741 16.0025C21.9741 16.9401 22.3378 17.813 23.0006 18.4758C23.6634 19.1386 24.5363 19.5023 25.4739 19.5023C26.7995 19.5023 27.9958 18.7668 28.5939 17.5867C28.8122 17.1664 28.6424 16.6572 28.2302 16.4551Z" fill="white"/>
<path d="M29.0466 18.8802C29.0223 18.8317 28.9981 18.7994 28.9738 18.7832C29.0142 18.7671 29.0546 18.7347 29.0708 18.7024C29.0951 18.6701 29.1031 18.6296 29.1031 18.5973C29.1031 18.565 29.0951 18.5327 29.0789 18.5084C29.0627 18.4761 29.0385 18.4599 29.0142 18.4437C28.99 18.4276 28.9496 18.4195 28.893 18.4195H28.6828V19.0823H28.7879V18.7994H28.8687C28.8768 18.7994 28.9011 18.8236 28.9253 18.8641L28.9496 18.9045L29.0385 19.0742H29.1597L29.0466 18.8802ZM28.8607 18.7186H28.7879V18.4922H28.8687C28.9092 18.4922 28.9334 18.5003 28.9496 18.5084C28.9657 18.5165 28.9738 18.5327 28.9819 18.5488C28.99 18.565 28.99 18.5812 28.99 18.5973C28.99 18.6296 28.9819 18.6539 28.9576 18.6781C28.9415 18.7105 28.9092 18.7186 28.8607 18.7186Z" fill="white"/>
</g>
<defs>
<clipPath id="clip0_17199_3216">
<rect width="32" height="32" fill="white"/>
</clipPath>
</defs>
</svg>
