<svg width="32" height="32" viewBox="0 0 32 32" fill="none" xmlns="http://www.w3.org/2000/svg">
<g clip-path="url(#clip0_8821_16905)">
<path d="M32 16C32 24.8366 24.8366 32 16 32C7.16344 32 0 24.8366 0 16C0 7.16344 7.16344 0 16 0C24.8366 0 32 7.16344 32 16Z" fill="#221F20"/>
<path d="M22.5874 12.8345H29V19.166L27.034 17.2V14.6537H24.4471L22.5874 12.8345Z" fill="white"/>
<path d="M22.6531 16.4911V18.9996H25.0903L26.7906 17.2028H24.4513V14.8481L22.6531 16.4911Z" fill="white"/>
<path fill-rule="evenodd" clip-rule="evenodd" d="M7.69409 18.6473H9.14553L6.74325 13.24H5.18135L3 18.6473H4.42767L4.83177 17.5776H7.25083L7.69409 18.6473ZM5.18834 16.6309L5.98118 14.5335L6.85371 16.6309H5.18834Z" fill="white"/>
<path d="M14.3542 13.24H15.5274V18.6473H14.1794V15.2704L12.7196 16.9665H12.5141L11.0556 15.2704V18.6473H9.70767V13.24H10.8808L12.6175 15.2452L14.3542 13.24Z" fill="white"/>
<path fill-rule="evenodd" clip-rule="evenodd" d="M21.7582 15.9527C21.7582 14.4691 20.7445 13.24 18.7701 13.24H16.3818V18.6473H18.619C20.7794 18.6473 21.7582 17.5063 21.7582 15.9527ZM18.6078 17.6573H17.7269V14.2314H18.5925C19.8677 14.2314 20.3683 15.0159 20.3683 15.9444C20.3683 16.7372 19.9628 17.6573 18.6078 17.6573Z" fill="white"/>
</g>
<defs>
<clipPath id="clip0_8821_16905">
<rect width="32" height="32" fill="white"/>
</clipPath>
</defs>
</svg>
