<svg width="32" height="32" viewBox="0 0 32 32" fill="none" xmlns="http://www.w3.org/2000/svg">
<g clip-path="url(#clip0_8821_16908)">
<path d="M32 16C32 24.8366 24.8366 32 16 32C7.16344 32 0 24.8366 0 16C0 7.16344 7.16344 0 16 0C24.8366 0 32 7.16344 32 16Z" fill="#F6F7F8"/>
<path fill-rule="evenodd" clip-rule="evenodd" d="M17.7739 14.285C17.7739 15.296 17.7994 16.1391 17.2885 17.0369C16.876 17.7669 16.2227 18.2158 15.4928 18.2158C14.4964 18.2158 13.9161 17.4566 13.9161 16.3362C13.9161 14.1244 15.8978 13.7229 17.7739 13.7229V14.285ZM20.3908 20.6101C20.2192 20.7633 19.971 20.7743 19.7776 20.6721C18.9163 19.9567 18.7629 19.6246 18.2885 18.9421C16.8651 20.3947 15.8577 20.829 14.011 20.829C11.8284 20.829 10.1276 19.4822 10.1276 16.7851C10.1276 14.6792 11.27 13.2448 12.8941 12.5441C14.3029 11.9236 16.2702 11.8141 17.7739 11.6426V11.3068C17.7739 10.6899 17.8213 9.96001 17.46 9.42718C17.1424 8.94904 16.5366 8.75194 16.0037 8.75194C15.0146 8.75194 14.1314 9.25923 13.9161 10.3104C13.8722 10.544 13.7007 10.774 13.4672 10.7849L10.9488 10.5148C10.7371 10.4673 10.5036 10.2958 10.562 9.97093C11.1423 6.9198 13.8977 6 16.365 6C17.6278 6 19.2775 6.33581 20.2739 7.29208C21.5367 8.47091 21.4163 10.0439 21.4163 11.7557V15.7996C21.4163 17.015 21.9199 17.5478 22.3944 18.2048C22.5622 18.4384 22.5988 18.7195 22.3871 18.8946C21.8578 19.3362 20.9162 20.1575 20.398 20.6174L20.3908 20.6101Z" fill="black"/>
<path d="M23.2175 22.147C15.1216 26 10.0971 22.7763 6.88083 20.8183C6.6818 20.6949 6.34353 20.8472 6.63703 21.1843C7.70854 22.4835 11.2201 25.615 15.8037 25.615C20.3905 25.615 23.1192 23.1123 23.4606 22.6757C23.7996 22.2428 23.5602 22.004 23.2175 22.147ZM25.4913 20.8913C25.2739 20.6082 24.1693 20.5554 23.4741 20.6408C22.7779 20.7238 21.7328 21.1493 21.8237 21.4048C21.8703 21.5005 21.9655 21.4576 22.4438 21.4145C22.9234 21.3667 24.2669 21.1971 24.5469 21.5631C24.8281 21.9316 24.1183 23.6871 23.9887 23.9702C23.8635 24.2533 24.0366 24.3263 24.2718 24.1377C24.5038 23.9492 24.9239 23.4611 25.2058 22.7703C25.4857 22.0758 25.6565 21.1069 25.4913 20.8913Z" fill="#FF9900"/>
</g>
<defs>
<clipPath id="clip0_8821_16908">
<rect width="32" height="32" fill="white"/>
</clipPath>
</defs>
</svg>
