<svg width="32" height="32" viewBox="0 0 32 32" fill="none" xmlns="http://www.w3.org/2000/svg">
<path d="M0 6C0 4.89543 0.895431 4 2 4H22C23.1046 4 24 4.89543 24 6V18C24 19.1046 23.1046 20 22 20H2C0.89543 20 0 19.1046 0 18V6Z" fill="#0D47A1"/>
<path d="M6.12522 14.6855L6.43755 15.733L7.43847 15.328C7.52388 15.2934 7.6015 15.3924 7.54938 15.4692L6.93794 16.3704L7.87366 16.9128C7.95349 16.9591 7.92578 17.0824 7.8341 17.089L6.7593 17.1652L6.92528 18.2466C6.93944 18.3389 6.82722 18.3938 6.76507 18.325L6.03625 17.5189L5.30744 18.325C5.24528 18.3937 5.13306 18.3388 5.14722 18.2466L5.31321 17.1652L4.23841 17.089C4.14672 17.0824 4.11897 16.9591 4.19885 16.9128L5.13456 16.3704L4.52313 15.4692C4.471 15.3924 4.54863 15.2934 4.63403 15.328L5.63496 15.733L5.94728 14.6855C5.97405 14.5961 6.0986 14.5961 6.12522 14.6855ZM18.435 16.2096L18.5876 16.7212L19.0765 16.5234C19.1181 16.5065 19.1561 16.5548 19.1306 16.5924L18.832 17.0326L19.289 17.2976C19.328 17.3202 19.3145 17.3805 19.2697 17.3836L18.7447 17.4209L18.8257 17.9491C18.8327 17.9942 18.7778 18.021 18.7474 17.9874L18.3914 17.5936L18.0354 17.9874C18.005 18.021 17.9502 17.9942 17.9571 17.9491L18.0382 17.4209L17.5132 17.3836C17.4684 17.3805 17.4548 17.3202 17.4938 17.2976L17.9509 17.0326L17.6523 16.5924C17.6268 16.5548 17.6647 16.5065 17.7064 16.5234L18.1953 16.7212L18.3479 16.2096C18.3611 16.166 18.422 16.166 18.435 16.2096ZM19.6154 12.0847C19.6312 12.0364 19.6985 12.0364 19.7144 12.0847L19.8369 12.4578L20.2241 12.4609C20.2742 12.4613 20.295 12.5262 20.2546 12.5565L19.9431 12.7901L20.0599 13.1651C20.075 13.2137 20.0207 13.2538 19.9799 13.2242L19.6649 12.9955L19.3499 13.2242C19.3091 13.2539 19.2547 13.2137 19.2698 13.1651L19.3866 12.7901L19.0752 12.5565C19.0348 12.5262 19.0556 12.4613 19.1058 12.4609L19.4929 12.4578L19.6154 12.0847ZM15.0329 11.1652L15.1855 11.6769L15.6745 11.4791C15.7161 11.4622 15.7541 11.5105 15.7286 11.5481L15.43 11.9883L15.887 12.2533C15.926 12.2759 15.9125 12.3362 15.8677 12.3393L15.3427 12.3766L15.4238 12.9048C15.4307 12.9499 15.3759 12.9767 15.3455 12.9431L14.9895 12.5493L14.6335 12.9431C14.6031 12.9767 14.5483 12.9499 14.5552 12.9048L14.6363 12.3766L14.1113 12.3393C14.0665 12.3361 14.0529 12.2759 14.0919 12.2533L14.549 11.9883L14.2503 11.5481C14.2248 11.5105 14.2628 11.4622 14.3045 11.4791L14.7934 11.6769L14.946 11.1652C14.959 11.1216 15.0199 11.1216 15.0329 11.1652ZM21.6536 9.48377L21.8062 9.99543L22.2951 9.79763C22.3368 9.78077 22.3748 9.82905 22.3493 9.86663L22.0506 10.3069L22.5077 10.5719C22.5467 10.5944 22.5332 10.6547 22.4883 10.6579L21.9633 10.6951L22.0444 11.2233C22.0514 11.2684 21.9965 11.2952 21.9662 11.2616L21.6101 10.8679L21.2541 11.2616C21.2238 11.2952 21.169 11.2684 21.1759 11.2233L21.257 10.6951L20.732 10.6579C20.6872 10.6547 20.6736 10.5944 20.7126 10.5719L21.1697 10.3069L20.8711 9.86663C20.8456 9.82905 20.8835 9.78077 20.9252 9.79763L21.4142 9.99543L21.5667 9.48377C21.5797 9.44015 21.6406 9.44015 21.6536 9.48377ZM18.435 7.23786L18.5876 7.74953L19.0765 7.55172C19.1181 7.53486 19.1561 7.58315 19.1306 7.62072L18.832 8.06096L19.289 8.32596C19.328 8.34853 19.3145 8.40882 19.2697 8.41196L18.7447 8.4492L18.8257 8.97744C18.8327 9.02253 18.7778 9.04934 18.7474 9.01572L18.3914 8.62196L18.0354 9.01572C18.005 9.04929 17.9502 9.02248 17.9571 8.97744L18.0382 8.4492L17.5132 8.41196C17.4684 8.40877 17.4548 8.34853 17.4938 8.32596L17.9509 8.06096L17.6523 7.62072C17.6268 7.58315 17.6647 7.53486 17.7064 7.55172L18.1953 7.74953L18.3479 7.23786C18.3611 7.19415 18.422 7.19415 18.435 7.23786Z" fill="white"/>
<path d="M5 4V6.13149L1.81538 4.00841C1.04206 4.07919 0.396074 4.5902 0.130201 5.28865L2.69722 7H2.563e-06L0 9H2.69722L2.563e-06 10.7981V12H1.80278L5 9.86852V12H7V9.86852L10.1972 12H12V10.7982L9.30277 9H12V7H9.30277L12 5.20185V4H10.1972L7 6.13149V4H5Z" fill="white"/>
<path d="M5.5 4V7.5H0V8.5H5.5V12H6.5V8.5H12V7.5H6.5V4H5.5Z" fill="#F44336"/>
<path d="M11.5493 4L7.04932 7H7.9507L12 4.30047V4H11.5493Z" fill="#F44336"/>
<path d="M2.563e-06 12L0.450704 12L4.9507 9H4.04932L0 11.6995L2.563e-06 12Z" fill="#F44336"/>
<path d="M0.524331 4.65002L4.0493 7H4.95069L0.92268 4.31466C0.775637 4.40885 0.641733 4.52176 0.524331 4.65002Z" fill="#F44336"/>
<path d="M7.95069 9L12 11.6995V12L11.5493 12L7.0493 9H7.95069Z" fill="#F44336"/>
<path fill-rule="evenodd" clip-rule="evenodd" d="M22 5H2C1.44772 5 1 5.44772 1 6V18C1 18.5523 1.44772 19 2 19H22C22.5523 19 23 18.5523 23 18V6C23 5.44771 22.5523 5 22 5ZM2 4C0.895431 4 0 4.89543 0 6V18C0 19.1046 0.89543 20 2 20H22C23.1046 20 24 19.1046 24 18V6C24 4.89543 23.1046 4 22 4H2Z" fill="black" fill-opacity="0.08"/>
<path d="M8 14C8 12.8954 8.89543 12 10 12H30C31.1046 12 32 12.8954 32 14V26C32 27.1046 31.1046 28 30 28H10C8.89543 28 8 27.1046 8 26V14Z" fill="#0D47A1"/>
<path d="M25.8265 17.144C25.851 17.0704 25.92 17.0182 25.9999 17.0182C26.0798 17.0182 26.149 17.0703 26.1735 17.1442L26.3415 17.6562L26.8716 17.6602C26.9509 17.6612 27.0201 17.7132 27.0442 17.7878C27.0682 17.8625 27.042 17.9444 26.9799 17.9917L26.5517 18.313L26.7124 18.8286C26.7355 18.9033 26.7093 18.9853 26.6462 19.0322L26.6453 19.0329C26.6134 19.056 26.5756 19.0679 26.5377 19.0679C26.4994 19.0679 26.4625 19.0557 26.4316 19.0337L25.9999 18.72L25.5688 19.0332C25.5378 19.0554 25.4999 19.0679 25.462 19.0679C25.424 19.0679 25.386 19.0559 25.3541 19.0325C25.2912 18.9857 25.2643 18.9035 25.2875 18.8287L25.4482 18.313L25.0205 17.9921C24.9581 17.9447 24.9317 17.8625 24.9556 17.788C24.9797 17.7134 25.0485 17.6611 25.128 17.6602L25.6584 17.6562L25.8265 17.144Z" fill="white"/>
<path d="M28.7231 19.2458C28.7476 19.1722 28.8166 19.1199 28.8965 19.1199C28.9764 19.1199 29.0456 19.172 29.0701 19.246L29.2381 19.758L29.7682 19.762C29.8475 19.7629 29.9167 19.8149 29.9408 19.8896C29.9648 19.9643 29.9386 20.0462 29.8764 20.0935L29.4483 20.4147L29.609 20.9303C29.6321 21.005 29.6059 21.0871 29.5428 21.1339L29.5417 21.1347C29.51 21.1576 29.4724 21.1697 29.4342 21.1697C29.3959 21.1697 29.359 21.1575 29.3282 21.1356L29.3274 21.135L28.8964 20.8218L28.4654 21.135C28.4344 21.1571 28.3965 21.1697 28.3586 21.1697C28.3206 21.1697 28.2826 21.1577 28.2507 21.1343C28.1878 21.0875 28.1609 21.0052 28.1841 20.9305L28.3447 20.4147L27.9171 20.0938C27.8547 20.0465 27.8283 19.9643 27.8522 19.8897C27.8763 19.8151 27.9451 19.7628 28.0246 19.762L28.555 19.758L28.7231 19.2458Z" fill="white"/>
<path d="M22.93 20.0865C22.9545 20.0129 23.0235 19.9606 23.1034 19.9606C23.1833 19.9606 23.2525 20.0127 23.277 20.0867L23.445 20.5987L23.9751 20.6027C24.0544 20.6036 24.1236 20.6556 24.1477 20.7303C24.1717 20.805 24.1455 20.8869 24.0834 20.9342L23.6552 21.2555L23.8159 21.771C23.839 21.8457 23.8128 21.9278 23.7497 21.9746L23.7488 21.9753C23.7169 21.9985 23.6791 22.0104 23.6411 22.0104C23.6028 22.0104 23.5659 21.9982 23.5351 21.9763L23.5343 21.9757L23.1033 21.6625L22.6723 21.9757C22.6413 21.9978 22.6034 22.0104 22.5655 22.0104C22.5275 22.0104 22.4895 21.9984 22.4576 21.975C22.3947 21.9282 22.3678 21.846 22.391 21.7712L22.5517 21.2555L22.124 20.9345C22.0616 20.8872 22.0352 20.805 22.0591 20.7304C22.0832 20.6559 22.152 20.6035 22.2315 20.6027L22.7619 20.5987L22.93 20.0865Z" fill="white"/>
<path d="M25.8265 23.9211C25.851 23.8475 25.92 23.7953 25.9999 23.7953C26.0798 23.7953 26.149 23.8474 26.1735 23.9213L26.3415 24.4334L26.8717 24.4377C26.9513 24.4387 27.0202 24.4908 27.0442 24.5654C27.0679 24.6402 27.042 24.722 26.9799 24.7692L26.5518 25.0901L26.7124 25.6057C26.7355 25.6804 26.7093 25.7624 26.6462 25.8093L26.6453 25.8099C26.6135 25.833 26.5758 25.845 26.5377 25.845C26.4997 25.845 26.4626 25.8329 26.4316 25.8109L25.9998 25.4974L25.5688 25.8103C25.5378 25.8325 25.4999 25.845 25.462 25.845C25.4237 25.845 25.3859 25.8329 25.3541 25.8096C25.2912 25.7628 25.2643 25.6806 25.2875 25.6058L25.4481 25.0901L25.0206 24.7696C24.9582 24.7223 24.9318 24.6406 24.9555 24.5658C24.9795 24.4914 25.0482 24.4386 25.128 24.4377L25.6584 24.4334L25.8265 23.9211Z" fill="white"/>
<path d="M25.8036 17.8551L26 17.2568L26.1963 17.8551L26.8223 17.8599L26.3188 18.2377L26.5068 18.8412L25.9999 18.4728L25.4931 18.841L25.6811 18.2377L25.1776 17.8599L25.8036 17.8551Z" fill="#F44336"/>
<path d="M28.7002 19.9569L28.8965 19.3586L29.0929 19.9569L29.7189 19.9616L29.2154 20.3395L29.4035 20.943L28.8965 20.5746L28.3897 20.9428L28.5777 20.3395L28.0742 19.9616L28.7002 19.9569Z" fill="#F44336"/>
<path d="M22.9071 20.7976L23.1035 20.1993L23.2998 20.7976L23.9258 20.8023L23.4223 21.1802L23.6104 21.7837L23.1034 21.4153L22.5966 21.7835L22.7846 21.1802L22.2811 20.8023L22.9071 20.7976Z" fill="#F44336"/>
<path d="M25.8036 24.6322L26 24.0339L26.1963 24.6322L26.8223 24.6373L26.3188 25.0148L26.5069 25.6184L25.9999 25.2503L25.4931 25.6181L25.6811 25.0148L25.1776 24.6373L25.8036 24.6322Z" fill="#F44336"/>
<path d="M13 12V14.1315L9.81538 12.0084C9.04206 12.0792 8.39607 12.5902 8.1302 13.2887L10.6972 15H8L8 17H10.6972L8 18.7981V20H9.80278L13 17.8685V20H15V17.8685L18.1972 20H20V18.7982L17.3028 17H20V15H17.3028L20 13.2019V12H18.1972L15 14.1315V12H13Z" fill="white"/>
<path d="M13.5 12V15.5H8V16.5H13.5V20H14.5V16.5H20V15.5H14.5V12H13.5Z" fill="#F44336"/>
<path d="M19.5493 12L15.0493 15H15.9507L20 12.3005V12H19.5493Z" fill="#F44336"/>
<path d="M8 20L8.4507 20L12.9507 17H12.0493L8 19.6995L8 20Z" fill="#F44336"/>
<path d="M8.52433 12.65L12.0493 15H12.9507L8.92268 12.3147C8.77564 12.4089 8.64173 12.5218 8.52433 12.65Z" fill="#F44336"/>
<path d="M15.9507 17L20 19.6995V20L19.5493 20L15.0493 17H15.9507Z" fill="#F44336"/>
<path fill-rule="evenodd" clip-rule="evenodd" d="M30 13H10C9.44772 13 9 13.4477 9 14V26C9 26.5523 9.44772 27 10 27H30C30.5523 27 31 26.5523 31 26V14C31 13.4477 30.5523 13 30 13ZM10 12C8.89543 12 8 12.8954 8 14V26C8 27.1046 8.89543 28 10 28H30C31.1046 28 32 27.1046 32 26V14C32 12.8954 31.1046 12 30 12H10Z" fill="black" fill-opacity="0.08"/>
</svg>
