<svg width="32" height="32" viewBox="0 0 32 32" fill="none" xmlns="http://www.w3.org/2000/svg">
<g clip-path="url(#clip0_8821_16911)">
<path d="M32 16C32 24.8366 24.8366 32 16 32C7.16344 32 0 24.8366 0 16C0 7.16344 7.16344 0 16 0C24.8366 0 32 7.16344 32 16Z" fill="#0033A1"/>
<path d="M17.1549 18.0076C17.8525 16.5096 17.9897 14.8111 17.5416 13.2206C17.0934 11.6301 16.0897 10.2531 14.7126 9.33968C15.819 8.20266 17.0172 7.07584 18.2817 6C16.8065 6.87706 15.4063 7.87472 14.0957 8.98277C12.6729 8.24088 11.0362 8.01774 9.46675 8.35171C7.89733 8.68567 6.49325 9.55587 5.49583 10.8128C4.49841 12.0696 3.96994 13.6347 4.00126 15.239C4.03257 16.8432 4.62171 18.3865 5.66742 19.6035C4.34685 22.4639 4.1378 24.7583 5.27992 25.5333C6.52911 26.3644 9.24165 24.8552 10.8885 22.4027C10.8885 22.4027 8.36976 24.6716 6.988 24.1515C6.13651 23.8303 6.13651 22.525 6.83504 20.6589C8.15852 21.6298 9.78466 22.0975 11.4217 21.9779C13.0588 21.8582 14.5997 21.1593 15.768 20.0063L16.0128 20.4651C19.021 20.2204 27.9999 19.9808 27.9999 19.9808C27.9795 19.5576 22.0344 19.9655 17.1549 18.0076ZM4.82613 15.0962C4.82721 14.0799 5.08312 13.0801 5.57043 12.1883C6.05774 11.2965 6.7609 10.5411 7.61558 9.9913C8.47026 9.44146 9.44917 9.11472 10.4628 9.04097C11.4763 8.96722 12.4922 9.14881 13.4175 9.56912C10.4371 12.1761 7.94853 15.2967 6.07022 18.7826C5.26076 17.7244 4.82341 16.4285 4.82613 15.0962ZM10.8987 21.1688C9.53539 21.1714 8.21117 20.7132 7.14096 19.8686C8.34427 17.1561 10.7917 13.5156 14.1313 9.95663C15.3858 10.7466 16.308 11.9681 16.7241 13.391C17.1402 14.8139 17.0214 16.3399 16.3901 17.6812C15.336 17.2082 14.3623 16.5734 13.5042 15.7998L15.3346 19.2364C14.7679 19.8462 14.0815 20.3326 13.3182 20.6651C12.5549 20.9976 11.7313 21.1691 10.8987 21.1688Z" fill="white"/>
</g>
<defs>
<clipPath id="clip0_8821_16911">
<rect width="32" height="32" fill="white"/>
</clipPath>
</defs>
</svg>
