<svg width="32" height="32" viewBox="0 0 32 32" fill="none" xmlns="http://www.w3.org/2000/svg">
<g clip-path="url(#clip0_8821_16920)">
<path d="M32 16C32 24.8366 24.8366 32 16 32C7.16344 32 0 24.8366 0 16C0 7.16344 7.16344 0 16 0C24.8366 0 32 7.16344 32 16Z" fill="#0D3650"/>
<path d="M27.9674 15.2444C27.7776 12.1994 26.4341 9.34122 24.2106 7.2521C21.9871 5.16297 19.0509 3.99998 16 3.99998C12.949 3.99998 10.0128 5.16297 7.78937 7.2521C5.56591 9.34122 4.22242 12.1994 4.03253 15.2444C4.03786 15.4982 4.05889 15.7514 4.09552 16.0026C4.3395 18.0409 5.11253 19.9799 6.33782 21.6271C7.44918 23.1458 8.90369 24.3804 10.5828 25.2303C12.2619 26.0801 14.1181 26.5211 16 26.5174C13.3434 26.5158 10.7858 25.5089 8.84112 23.6991C6.89643 21.8892 5.70873 19.4104 5.51665 16.7607C5.49044 16.5089 5.47992 16.2557 5.48515 16.0026C5.47992 15.7494 5.49044 15.4962 5.51665 15.2444C5.70873 12.5947 6.89643 10.1159 8.84112 8.30606C10.7858 6.49617 13.3434 5.48929 16 5.48772C17.8822 5.48442 19.7386 5.92603 21.4177 6.77654C23.0969 7.62705 24.5512 8.86238 25.6621 10.3818C26.8868 12.0279 27.6598 13.9655 27.9045 16.0026C27.9397 16.2431 27.9607 16.4855 27.9674 16.7285C27.9674 16.6026 27.9753 16.4765 27.9832 16.3503C27.9911 16.224 27.9989 16.0975 27.9989 15.9711C28.0035 15.7284 27.993 15.4857 27.9674 15.2444Z" fill="white"/>
<path fill-rule="evenodd" clip-rule="evenodd" d="M17.5156 7.88753C17.6137 7.98162 17.6921 8.09423 17.7463 8.21885C17.8005 8.34346 17.8294 8.47759 17.8313 8.61347C17.8336 8.74666 17.8093 8.87896 17.7596 9.00256C17.7099 9.12617 17.636 9.23858 17.5422 9.33315C17.4484 9.42773 17.3366 9.50256 17.2134 9.55322C17.0902 9.60388 16.9581 9.62935 16.8249 9.62813H14.5159V6.30892H16.7897C17.0475 6.31127 17.2941 6.41474 17.4765 6.59706C17.6588 6.77939 17.7622 7.026 17.7646 7.28384C17.7349 7.50313 17.6491 7.71105 17.5156 7.88753ZM15.2741 7.57181H16.6629C16.7383 7.57181 16.8106 7.54187 16.8639 7.48856C16.9172 7.43526 16.9472 7.36297 16.9472 7.28759C16.9472 7.2122 16.9172 7.13991 16.8639 7.08661C16.8106 7.0333 16.7383 7.00336 16.6629 7.00336H15.2741V7.57181ZM15.2741 8.8977H16.6944C16.7782 8.8977 16.8585 8.86443 16.9177 8.80522C16.9769 8.74601 17.0102 8.66571 17.0102 8.58197C17.0102 8.49824 16.9769 8.41793 16.9177 8.35872C16.8585 8.29951 16.7782 8.26625 16.6944 8.26625H15.2741V8.8977Z" fill="white"/>
<path fill-rule="evenodd" clip-rule="evenodd" d="M18.0526 13.5713H17.1999L16.9472 13.0028H15.0843L14.8316 13.5713H13.9789L15.625 10.2558H16.3825L18.0526 13.5713ZM16 11.1085L15.4315 12.3084H16.5684L16 11.1085Z" fill="white"/>
<path d="M17.1369 14.2972H18.0841L16.4102 16.4443V17.6127H15.625V16.4443L13.9512 14.2972H14.8983L16.0352 15.8128L17.1369 14.2972Z" fill="white"/>
<path d="M21.5255 14.2972V15.0277H19.3155V15.5961H21.4625V16.3221H19.3155V16.9535H21.5255V17.6802H18.5258V14.2972H21.5255Z" fill="white"/>
<path fill-rule="evenodd" clip-rule="evenodd" d="M23.9576 16.3498H23.3576V17.6127H22.5679V14.2972H24.5927C24.8379 14.3029 25.0731 14.3955 25.2563 14.5585C25.4395 14.7215 25.5588 14.9443 25.5929 15.1871C25.6271 15.4299 25.5738 15.677 25.4427 15.8842C25.3116 16.0914 25.1111 16.2452 24.877 16.3183L25.8519 17.6127H24.9047L23.9576 16.3498ZM24.5253 14.9924H23.3891V15.6276H24.5253C24.6089 15.6274 24.6891 15.5941 24.7483 15.5349C24.8075 15.4758 24.8408 15.3956 24.841 15.3119C24.8364 15.2293 24.8018 15.1512 24.7436 15.0924C24.6855 15.0335 24.6078 14.998 24.5253 14.9924Z" fill="white"/>
<path fill-rule="evenodd" clip-rule="evenodd" d="M14.2946 17.6127H13.442L13.19 17.0442H11.3264L11.0744 17.6127H10.2255L11.8986 14.2972H12.6568L14.2946 17.6127ZM12.2421 15.1499L11.6744 16.3498H12.842L12.2421 15.1499Z" fill="white"/>
<path fill-rule="evenodd" clip-rule="evenodd" d="M9.46731 15.8766C9.56543 15.9706 9.64387 16.0832 9.69807 16.2079C9.75227 16.3325 9.78115 16.4666 9.78304 16.6025C9.78485 16.7357 9.75996 16.8679 9.70984 16.9912C9.65972 17.1146 9.58538 17.2267 9.49121 17.3209C9.39705 17.415 9.28496 17.4894 9.16158 17.5395C9.0382 17.5896 8.90603 17.6145 8.77287 17.6127H6.43233V14.2972H8.70613C8.96468 14.2998 9.21185 14.4039 9.39426 14.5872C9.57667 14.7704 9.67968 15.0181 9.68104 15.2766C9.67626 15.4951 9.59985 15.7058 9.46356 15.8766H9.46731ZM7.22576 15.5609H8.61089C8.68627 15.5609 8.75856 15.5309 8.81186 15.4776C8.86517 15.4243 8.89511 15.352 8.89511 15.2766C8.89511 15.2013 8.86517 15.129 8.81186 15.0757C8.75856 15.0224 8.68627 14.9924 8.61089 14.9924H7.22576V15.5609ZM7.22576 16.8868H8.64238C8.72612 16.8868 8.80642 16.8535 8.86563 16.7943C8.92484 16.7351 8.95811 16.6548 8.95811 16.571C8.95811 16.4873 8.92484 16.407 8.86563 16.3478C8.80642 16.2886 8.72612 16.2553 8.64238 16.2553H7.22576V16.8868Z" fill="white"/>
<path d="M17.5194 18.3079V19.0338H15.3056V19.6023H17.4526V20.3282H15.3056V20.9604H17.5156V21.6863H14.5159V18.3116L17.5194 18.3079Z" fill="white"/>
<path fill-rule="evenodd" clip-rule="evenodd" d="M14.4881 25.76V22.4438H16.6982C16.8331 22.4456 16.9663 22.4741 17.0901 22.5275C17.214 22.5809 17.3261 22.6583 17.42 22.7551C17.5139 22.852 17.5878 22.9664 17.6374 23.0918C17.687 23.2173 17.7114 23.3513 17.7091 23.4862C17.7124 23.6895 17.6537 23.889 17.541 24.0582C17.4282 24.2273 17.2666 24.3582 17.0777 24.4333L18.0878 25.76H17.1369L16.1897 24.4963H15.2741V25.76H14.4881ZM16.9509 23.4547C16.9532 23.4126 16.9466 23.3706 16.9315 23.3312C16.9165 23.2919 16.8933 23.2562 16.8635 23.2264C16.8337 23.1966 16.798 23.1734 16.7586 23.1584C16.7193 23.1433 16.6772 23.1367 16.6352 23.139H15.2778V23.7704H16.6352C16.6769 23.7721 16.7186 23.7651 16.7575 23.7498C16.7964 23.7345 16.8316 23.7113 16.861 23.6815C16.8904 23.6518 16.9132 23.6163 16.928 23.5772C16.9429 23.5381 16.9494 23.4964 16.9472 23.4547H16.9509Z" fill="white"/>
<path d="M7.78936 24.753C5.5659 22.6639 4.22241 19.8058 4.03252 16.7608C4.00697 16.5194 3.99645 16.2767 4.00102 16.0341C4.00102 15.9076 4.0089 15.7812 4.01678 15.6548C4.02465 15.5286 4.03252 15.4025 4.03252 15.2766C4.03924 15.5196 4.06028 15.762 4.09552 16.0026C4.3395 18.0409 5.11253 19.9799 6.33782 21.6271C7.44918 23.1458 8.90369 24.3804 10.5828 25.2303C12.2619 26.0801 14.1181 26.5211 16 26.5174C18.6582 26.5213 21.2188 25.5163 23.1646 23.7053C25.1105 21.8943 26.2966 19.4124 26.4833 16.7608C26.5095 16.5089 26.52 16.2557 26.5148 16.0026C26.52 15.7494 26.5095 15.4962 26.4833 15.2444C26.2912 12.5947 25.1035 10.116 23.1588 8.30607C21.2142 6.49619 18.6566 5.48929 16 5.48772C17.8822 5.48442 19.7386 5.92603 21.4177 6.77654C23.0969 7.62705 24.5512 8.86238 25.6621 10.3818C26.8868 12.0279 27.6598 13.9655 27.9045 16.0026C27.9411 16.2537 27.9621 16.507 27.9674 16.7608C27.7775 19.8058 26.4341 22.6639 24.2106 24.753C21.9871 26.8422 19.0509 28.0052 16 28.0052C12.949 28.0052 10.0128 26.8422 7.78936 24.753Z" fill="white"/>
</g>
<defs>
<clipPath id="clip0_8821_16920">
<rect width="32" height="32" fill="white"/>
</clipPath>
</defs>
</svg>
