<svg width="32" height="32" viewBox="0 0 32 32" fill="none" xmlns="http://www.w3.org/2000/svg">
<g clip-path="url(#clip0_17199_3233)">
<circle cx="16" cy="16" r="16" fill="black"/>
<path d="M12.4863 11.2814C12.4863 10.7159 12.14 10 10.6845 10C10.0872 10 8.44332 10 8.44332 10L7.80618 12.9477C7.80618 12.9477 9.01737 12.9477 10.1427 12.9477C11.9668 12.9477 12.4863 12.0841 12.4863 11.2814Z" fill="#F6F7F8"/>
<path d="M18.5282 11.2814C18.5282 10.7159 18.1828 10 16.7277 10C16.13 10 14.4861 10 14.4861 10L13.8494 12.9472C13.8494 12.9472 15.0602 12.9472 16.1846 12.9472C18.0096 12.9477 18.5282 12.0841 18.5282 11.2814Z" fill="#F6F7F8"/>
<path d="M11.6801 15.7204C11.6801 15.1548 11.3338 14.4371 9.87831 14.4371C9.281 14.4371 7.63714 14.4371 7.63714 14.4371L7 17.3866C7 17.3866 8.21119 17.3866 9.33558 17.3866C11.1602 17.3866 11.6801 16.5208 11.6801 15.7204Z" fill="#F6F7F8"/>
<path d="M17.7171 15.7204C17.7171 15.1548 17.3703 14.4371 15.9162 14.4371C15.318 14.4371 13.675 14.4371 13.675 14.4371L13.037 17.3866C13.037 17.3866 14.2482 17.3866 15.3735 17.3866C17.1985 17.3866 17.7171 16.5208 17.7171 15.7204Z" fill="#F6F7F8"/>
<path d="M24.0291 13.9205C24.0291 13.3545 23.6823 12.6373 22.2281 12.6373C21.6299 12.6373 19.987 12.6373 19.987 12.6373L19.3489 15.5863C19.3489 15.5863 20.561 15.5863 21.6845 15.5863C23.5096 15.5863 24.0291 14.7227 24.0291 13.9205Z" fill="#F6F7F8"/>
<path d="M23.1595 18.5371C23.1595 17.9711 22.8136 17.2556 21.3586 17.2556C20.7613 17.2556 19.1174 17.2556 19.1174 17.2556L18.4803 20.2033C18.4803 20.2033 19.6906 20.2033 20.8158 20.2033C22.6405 20.2033 23.1595 19.3375 23.1595 18.5371Z" fill="#F6F7F8"/>
<path d="M16.8475 20.3347C16.8475 19.7665 16.5021 19.0492 15.048 19.0492C14.4493 19.0492 12.8054 19.0492 12.8054 19.0492L12.1683 21.9982C12.1683 21.9982 13.3795 21.9982 14.5039 21.9982C16.329 21.9987 16.8475 21.1351 16.8475 20.3347Z" fill="#F6F7F8"/>
</g>
<defs>
<clipPath id="clip0_17199_3233">
<rect width="32" height="32" fill="white"/>
</clipPath>
</defs>
</svg>
