<svg width="32" height="32" viewBox="0 0 32 32" fill="none" xmlns="http://www.w3.org/2000/svg">
<g clip-path="url(#clip0_8821_16923)">
<path d="M32 16C32 24.8366 24.8366 32 16 32C7.16344 32 0 24.8366 0 16C0 7.16344 7.16344 0 16 0C24.8366 0 32 7.16344 32 16Z" fill="#F6F7F8"/>
<path d="M11.5506 22.0831C14.6315 21.0992 19.1012 19.2097 19.9103 17.0519C20.6285 15.1368 17.8597 11.0481 15.3048 7.93831C11.7147 8.9179 9.07549 12.2022 9.07549 16.1028C9.07549 18.4379 10.0212 20.552 11.5506 22.0831Z" fill="url(#paint0_radial_8821_16923)"/>
<path d="M18.6465 18.6519C16.8951 20.1213 13.8396 21.3521 11.5506 22.0831C13.0822 23.6165 15.1992 24.5652 17.5377 24.5652C20.4868 24.5652 23.0836 23.0566 24.5984 20.769C22.5644 21.4166 20.2992 20.1707 18.6465 18.6519Z" fill="url(#paint1_linear_8821_16923)"/>
<path d="M24.5984 20.769C22.5644 21.4166 20.2992 20.1707 18.6465 18.6519C19.2525 18.1435 19.7023 17.6065 19.9103 17.0519C20.0717 16.6216 20.057 16.0816 19.9083 15.4676C20.3872 15.2716 20.9143 15.0376 21.4921 14.7584C23.3033 13.8829 24.3704 12.9127 24.9768 12.0658C25.6293 13.2656 26 14.6409 26 16.1028C26 17.8273 25.4841 19.4314 24.5984 20.769Z" fill="url(#paint2_linear_8821_16923)"/>
<path d="M19.9083 15.4676C20.3872 15.2716 20.9143 15.0376 21.4921 14.7584C23.278 13.8951 24.3404 12.9398 24.9511 12.1014C23.5314 9.42003 20.7128 7.59323 17.4675 7.59323C16.7039 7.59323 15.9638 7.69439 15.2601 7.88404C17.2538 10.3043 19.3912 13.333 19.9083 15.4676Z" fill="url(#paint3_linear_8821_16923)"/>
<path d="M14.7223 13.1767C14.2003 11.7215 13.3936 10.3454 12.6977 9.34895C11.9384 8.19429 11.3058 7.43506 11.3058 7.43506C11.3058 7.43506 7.47797 9.17496 6.32331 13.0027C5.16864 16.8305 7.47797 20.3578 7.47797 20.3578C7.47797 20.3578 8.63263 20.0098 10.0878 19.3771C11.195 18.9184 12.3971 18.2699 13.5044 17.4632C13.5044 17.4632 14.7223 16.6565 15.007 15.6126C15.2443 14.5687 14.7223 13.1767 14.7223 13.1767Z" fill="url(#paint4_radial_8821_16923)"/>
</g>
<defs>
<radialGradient id="paint0_radial_8821_16923" cx="0" cy="0" r="1" gradientUnits="userSpaceOnUse" gradientTransform="translate(15.9448 15.9031) scale(18.601 14.3183)">
<stop stop-color="#496F93"/>
<stop offset="0.8595" stop-color="#6799CB"/>
</radialGradient>
<linearGradient id="paint1_linear_8821_16923" x1="7.49947" y1="34.7854" x2="36.1365" y2="21.7003" gradientUnits="userSpaceOnUse">
<stop stop-color="#C4CA80"/>
<stop offset="0.5048" stop-color="#DBE08C"/>
</linearGradient>
<linearGradient id="paint2_linear_8821_16923" x1="30.026" y1="1.06148" x2="15.8045" y2="31.6809" gradientUnits="userSpaceOnUse">
<stop stop-color="#9FBC6E"/>
<stop offset="0.4025" stop-color="#AFCE79"/>
</linearGradient>
<linearGradient id="paint3_linear_8821_16923" x1="26.4831" y1="26.4005" x2="-3.24195" y2="6.2581" gradientUnits="userSpaceOnUse">
<stop stop-color="#9EC382"/>
<stop offset="0.1641" stop-color="#83B06B"/>
<stop offset="0.3227" stop-color="#70A35A"/>
<stop offset="0.4324" stop-color="#699E54"/>
</linearGradient>
<radialGradient id="paint4_radial_8821_16923" cx="0" cy="0" r="1" gradientUnits="userSpaceOnUse" gradientTransform="translate(10.4972 13.9241) scale(5.59363)">
<stop stop-color="#E6F2F8"/>
<stop offset="0.0897934" stop-color="#D1E3F1"/>
<stop offset="0.279" stop-color="#ABC9E3"/>
<stop offset="0.4672" stop-color="#8DB4D9"/>
<stop offset="0.652" stop-color="#78A5D1"/>
<stop offset="0.8316" stop-color="#6B9CCD"/>
<stop offset="1" stop-color="#6799CB"/>
</radialGradient>
<clipPath id="clip0_8821_16923">
<rect width="32" height="32" fill="white"/>
</clipPath>
</defs>
</svg>
