<svg width="32" height="32" viewBox="0 0 32 32" fill="none" xmlns="http://www.w3.org/2000/svg">
<g clip-path="url(#clip0_8821_16926)">
<path d="M32 16C32 24.8366 24.8366 32 16 32C7.16344 32 0 24.8366 0 16C0 7.16344 7.16344 0 16 0C24.8366 0 32 7.16344 32 16Z" fill="#0E0E0E"/>
<path fill-rule="evenodd" clip-rule="evenodd" d="M16 31C24.2843 31 31 24.2843 31 16C31 7.71573 24.2843 1 16 1C7.71573 1 1 7.71573 1 16C1 24.2843 7.71573 31 16 31ZM16 32C24.8366 32 32 24.8366 32 16C32 7.16344 24.8366 0 16 0C7.16344 0 0 7.16344 0 16C0 24.8366 7.16344 32 16 32Z" fill="white"/>
<path d="M16.3004 5.17533L17.2061 3.18289L17.2664 3.00176V3.18289L17.3872 5.83949C17.645 5.83949 17.9028 5.88353 18.1983 5.934C18.2488 5.94262 18.3003 5.95144 18.3532 5.96025L18.2325 2.0961C18.0212 2.06592 17.7947 2.05082 17.5683 2.03572C17.3419 2.02063 17.1155 2.00553 16.9042 1.97534L16.0589 4.14893L15.9985 4.33006L15.9381 4.14893L15.0929 1.97534C14.6702 1.97534 14.1872 2.03573 13.7646 2.0961L13.6438 5.96025C13.9457 5.89987 14.3079 5.83949 14.6098 5.83949L14.7306 3.18289V3.00176L14.791 3.18289L15.6966 5.17533H16.3004Z" fill="white"/>
<path d="M23.6664 9.28101C23.9079 9.52252 24.2098 9.88478 24.391 10.1263L27.6513 8.07346C27.5608 7.9829 27.4551 7.84705 27.3494 7.7112C27.2438 7.57535 27.1381 7.4395 27.0476 7.34893L24.9947 8.67724L24.874 8.79798L24.9947 8.61686L25.9004 6.80554L25.2362 6.14138L23.4249 7.04704L23.2438 7.1678L23.3645 7.04704L24.6928 4.99422C24.4514 4.8131 24.2098 4.63193 23.9079 4.39044L21.8551 7.59043C21.9759 7.681 22.1268 7.80176 22.2777 7.92251C22.4287 8.04327 22.5796 8.16402 22.7004 8.25459L24.6325 7.22819L24.7532 7.1678L24.6325 7.28855L23.6664 9.28101Z" fill="white"/>
<path fill-rule="evenodd" clip-rule="evenodd" d="M9.47766 6.56398C9.96068 7.16775 9.65879 7.77152 9.17577 8.31492C8.45125 9.03944 8.08897 9.40172 7.12294 10.4281L4.34558 7.83191C4.49653 7.65077 4.67767 7.43945 4.8588 7.22812C5.03993 7.0168 5.22105 6.80549 5.37199 6.62436C6.39841 5.47719 6.76068 5.17531 7.2437 5.11493C7.48521 5.05455 7.78709 5.11492 7.96822 5.29605C8.39086 5.59794 8.33049 6.08096 8.27011 6.26209V6.32247H8.33049C8.75313 6.20172 9.17577 6.26209 9.47766 6.56398ZM6.9418 6.14134C6.70028 6.38286 6.09652 6.98663 5.55313 7.65077L6.09653 8.1338C6.09653 8.1338 7.18332 6.98661 7.4852 6.68472C7.60596 6.56397 7.72671 6.38284 7.66634 6.20171C7.60596 6.02058 7.42483 5.89983 7.2437 5.96021C7.12294 5.96021 7.00218 6.08097 6.9418 6.14134ZM8.0286 7.22814C7.66633 7.5904 6.63992 8.67719 6.63992 8.67719L7.18332 9.28096C7.18332 9.25005 7.51556 8.90272 7.8561 8.54672C8.18081 8.20727 8.51306 7.85994 8.572 7.77153C8.59447 7.72657 8.62532 7.68162 8.6583 7.63355C8.71391 7.55249 8.77561 7.46258 8.81351 7.34888C8.87388 7.16775 8.8135 7.04699 8.69275 6.98661C8.57199 6.92623 8.45124 6.92623 8.33049 6.98661C8.27012 6.98661 8.14932 7.10741 8.0286 7.22814Z" fill="white"/>
<path d="M16 16V6.52075C10.7472 6.52075 6.52075 10.8076 6.52075 16H16Z" fill="#0166B1"/>
<path d="M16 25.4793C21.2528 25.4793 25.4792 21.2528 25.4792 16L16 16L16 25.4793Z" fill="#0166B1"/>
<path d="M16 16L25.4792 16C25.4792 10.8075 21.2528 6.52075 16 6.52075V16Z" fill="white"/>
<path d="M6.52075 16C6.52075 21.2528 10.7472 25.4793 16 25.4793L16 16H6.52075Z" fill="white"/>
</g>
<defs>
<clipPath id="clip0_8821_16926">
<rect width="32" height="32" fill="white"/>
</clipPath>
</defs>
</svg>
