<svg width="32" height="32" viewBox="0 0 32 32" fill="none" xmlns="http://www.w3.org/2000/svg">
<path d="M10.2671 6.72801C10.1445 6.96267 9.92312 7.08001 9.60312 7.08001C9.28312 7.08001 9.06179 6.96267 8.93912 6.72801C8.81646 6.49334 8.75512 6.16267 8.75512 5.73601V4.68001C8.75512 4.25334 8.81646 3.92267 8.93912 3.68801C9.06179 3.45334 9.28312 3.33601 9.60312 3.33601C9.92312 3.33601 10.1445 3.45334 10.2671 3.68801C10.3898 3.92267 10.4511 4.25334 10.4511 4.68001V5.73601C10.4511 6.16267 10.3898 6.49334 10.2671 6.72801Z" fill="#414652"/>
<path d="M14.4 7.08001C14.72 7.08001 14.9413 6.96267 15.064 6.72801C15.1867 6.49334 15.248 6.16267 15.248 5.73601V4.68001C15.248 4.25334 15.1867 3.92267 15.064 3.68801C14.9413 3.45334 14.72 3.33601 14.4 3.33601C14.08 3.33601 13.8587 3.45334 13.736 3.68801C13.6133 3.92267 13.552 4.25334 13.552 4.68001V5.73601C13.552 6.16267 13.6133 6.49334 13.736 6.72801C13.8587 6.96267 14.08 7.08001 14.4 7.08001Z" fill="#414652"/>
<path d="M19.8609 6.72801C19.7382 6.96267 19.5169 7.08001 19.1969 7.08001C18.8769 7.08001 18.6555 6.96267 18.5329 6.72801C18.4102 6.49334 18.3489 6.16267 18.3489 5.73601V4.68001C18.3489 4.25334 18.4102 3.92267 18.5329 3.68801C18.6555 3.45334 18.8769 3.33601 19.1969 3.33601C19.5169 3.33601 19.7382 3.45334 19.8609 3.68801C19.9835 3.92267 20.0449 4.25334 20.0449 4.68001V5.73601C20.0449 6.16267 19.9835 6.49334 19.8609 6.72801Z" fill="#414652"/>
<path fill-rule="evenodd" clip-rule="evenodd" d="M2 0C0.895431 0 0 0.89543 0 2V8C0 9.10457 0.89543 10 2 10H22C23.1046 10 24 9.10457 24 8V2C24 0.895431 23.1046 0 22 0H2ZM7.97912 7.33601C8.33112 7.84267 8.87246 8.09601 9.60312 8.09601C10.3338 8.09601 10.8751 7.84267 11.2271 7.33601C11.5791 6.82934 11.7551 6.12001 11.7551 5.20801C11.7551 4.29601 11.5791 3.58667 11.2271 3.08001C10.8751 2.57334 10.3338 2.32001 9.60312 2.32001C8.87246 2.32001 8.33112 2.57334 7.97912 3.08001C7.62712 3.58667 7.45112 4.29601 7.45112 5.20801C7.45112 6.12001 7.62712 6.82934 7.97912 7.33601ZM3.15825 7.03201V8.00001H7.04625V7.03201H5.86225V2.41601H4.02225L2.68625 4.17601L3.45425 4.77601L4.59025 3.28801H4.66225V7.03201H3.15825ZM14.4 8.09601C13.6693 8.09601 13.128 7.84267 12.776 7.33601C12.424 6.82934 12.248 6.12001 12.248 5.20801C12.248 4.29601 12.424 3.58667 12.776 3.08001C13.128 2.57334 13.6693 2.32001 14.4 2.32001C15.1307 2.32001 15.672 2.57334 16.024 3.08001C16.376 3.58667 16.552 4.29601 16.552 5.20801C16.552 6.12001 16.376 6.82934 16.024 7.33601C15.672 7.84267 15.1307 8.09601 14.4 8.09601ZM17.5729 7.33601C17.9249 7.84267 18.4662 8.09601 19.1969 8.09601C19.9275 8.09601 20.4689 7.84267 20.8209 7.33601C21.1729 6.82934 21.3489 6.12001 21.3489 5.20801C21.3489 4.29601 21.1729 3.58667 20.8209 3.08001C20.4689 2.57334 19.9275 2.32001 19.1969 2.32001C18.4662 2.32001 17.9249 2.57334 17.5729 3.08001C17.2209 3.58667 17.0449 4.29601 17.0449 5.20801C17.0449 6.12001 17.2209 6.82934 17.5729 7.33601Z" fill="#414652"/>
<path d="M3.15825 8.00001V7.03201H4.66225V3.28801H4.59025L3.45425 4.77601L2.68625 4.17601L4.02225 2.41601H5.86225V7.03201H7.04625V8.00001H3.15825Z" fill="white"/>
<path d="M9.60312 8.09601C8.87246 8.09601 8.33112 7.84267 7.97912 7.33601C7.62712 6.82934 7.45112 6.12001 7.45112 5.20801C7.45112 4.29601 7.62712 3.58667 7.97912 3.08001C8.33112 2.57334 8.87246 2.32001 9.60312 2.32001C10.3338 2.32001 10.8751 2.57334 11.2271 3.08001C11.5791 3.58667 11.7551 4.29601 11.7551 5.20801C11.7551 6.12001 11.5791 6.82934 11.2271 7.33601C10.8751 7.84267 10.3338 8.09601 9.60312 8.09601ZM9.60312 7.08001C9.92312 7.08001 10.1445 6.96267 10.2671 6.72801C10.3898 6.49334 10.4511 6.16267 10.4511 5.73601V4.68001C10.4511 4.25334 10.3898 3.92267 10.2671 3.68801C10.1445 3.45334 9.92312 3.33601 9.60312 3.33601C9.28312 3.33601 9.06179 3.45334 8.93912 3.68801C8.81646 3.92267 8.75512 4.25334 8.75512 4.68001V5.73601C8.75512 6.16267 8.81646 6.49334 8.93912 6.72801C9.06179 6.96267 9.28312 7.08001 9.60312 7.08001Z" fill="white"/>
<path d="M14.4 8.09601C13.6693 8.09601 13.128 7.84267 12.776 7.33601C12.424 6.82934 12.248 6.12001 12.248 5.20801C12.248 4.29601 12.424 3.58667 12.776 3.08001C13.128 2.57334 13.6693 2.32001 14.4 2.32001C15.1307 2.32001 15.672 2.57334 16.024 3.08001C16.376 3.58667 16.552 4.29601 16.552 5.20801C16.552 6.12001 16.376 6.82934 16.024 7.33601C15.672 7.84267 15.1307 8.09601 14.4 8.09601ZM14.4 7.08001C14.72 7.08001 14.9413 6.96267 15.064 6.72801C15.1867 6.49334 15.248 6.16267 15.248 5.73601V4.68001C15.248 4.25334 15.1867 3.92267 15.064 3.68801C14.9413 3.45334 14.72 3.33601 14.4 3.33601C14.08 3.33601 13.8587 3.45334 13.736 3.68801C13.6133 3.92267 13.552 4.25334 13.552 4.68001V5.73601C13.552 6.16267 13.6133 6.49334 13.736 6.72801C13.8587 6.96267 14.08 7.08001 14.4 7.08001Z" fill="white"/>
<path d="M19.1969 8.09601C18.4662 8.09601 17.9249 7.84267 17.5729 7.33601C17.2209 6.82934 17.0449 6.12001 17.0449 5.20801C17.0449 4.29601 17.2209 3.58667 17.5729 3.08001C17.9249 2.57334 18.4662 2.32001 19.1969 2.32001C19.9275 2.32001 20.4689 2.57334 20.8209 3.08001C21.1729 3.58667 21.3489 4.29601 21.3489 5.20801C21.3489 6.12001 21.1729 6.82934 20.8209 7.33601C20.4689 7.84267 19.9275 8.09601 19.1969 8.09601ZM19.1969 7.08001C19.5169 7.08001 19.7382 6.96267 19.8609 6.72801C19.9835 6.49334 20.0449 6.16267 20.0449 5.73601V4.68001C20.0449 4.25334 19.9835 3.92267 19.8609 3.68801C19.7382 3.45334 19.5169 3.33601 19.1969 3.33601C18.8769 3.33601 18.6555 3.45334 18.5329 3.68801C18.4102 3.92267 18.3489 4.25334 18.3489 4.68001V5.73601C18.3489 6.16267 18.4102 6.49334 18.5329 6.72801C18.6555 6.96267 18.8769 7.08001 19.1969 7.08001Z" fill="white"/>
<path d="M0 17.4144L6.99995 24.4143L9.99995 21.4143L17 28.4143L20 25.4143L26 31.4143V28.5859L20 22.5859L17 25.5859L9.99995 18.5859L6.99995 21.5859L0 14.5859V17.4144Z" fill="#FF444F"/>
<path d="M27.0001 10L31.7072 14.7071L30.293 16.1213L28.0001 13.8284L28.0001 32H26.5858L26.0001 31.4142L26.0001 13.8284L23.7072 16.1213L22.293 14.7071L27.0001 10Z" fill="#0AA0B0"/>
</svg>
