<svg width="32" height="32" viewBox="0 0 32 32" fill="none" xmlns="http://www.w3.org/2000/svg">
<path d="M19.9999 11C19.9999 15.97 15.9709 19.9989 11.0009 19.9989C6.03094 19.9989 2.00195 15.97 2.00195 11C2.00195 6.02996 6.03094 2.00098 11.0009 2.00098C15.9709 2.00098 19.9999 6.02996 19.9999 11Z" fill="#F7931A"/>
<path d="M15.0197 10.1148C15.1963 8.93596 14.2981 8.30209 13.0709 7.87914L13.4691 6.28182L12.4972 6.03997L12.1091 7.59511C11.8538 7.53099 11.5917 7.47137 11.3301 7.41176L11.721 5.8465L10.7491 5.60409L10.3509 7.20084C10.1395 7.15247 9.93135 7.10523 9.73 7.05461L9.73112 7.04955L8.39028 6.7149L8.13155 7.75316C8.13155 7.75316 8.85316 7.91851 8.83797 7.92864C9.23168 8.02706 9.30255 8.28747 9.29074 8.49445L8.83741 10.3139C8.86441 10.3207 8.89928 10.3308 8.93865 10.346L8.83573 10.3207L8.20017 12.8696C8.1518 12.9889 8.02975 13.1683 7.75416 13.1002C7.76428 13.1143 7.04774 12.9242 7.04774 12.9242L6.56517 14.0367L7.83065 14.3522C8.06575 14.4113 8.29635 14.4731 8.52301 14.5311L8.12087 16.1464L9.0922 16.3882L9.4904 14.7909C9.75587 14.8624 10.0135 14.9287 10.2654 14.9917L9.86836 16.5823L10.8402 16.8241L11.2424 15.2122C12.9005 15.526 14.1468 15.3995 14.6716 13.9C15.0945 12.693 14.6508 11.9962 13.7784 11.5423C14.414 11.3961 14.892 10.9782 15.0197 10.1148ZM12.7981 13.2296C12.4983 14.4372 10.4651 13.7842 9.80593 13.6205L10.3402 11.4804C10.9994 11.6452 13.1125 11.9709 12.7981 13.2296ZM13.099 10.0974C12.8251 11.1958 11.1333 10.6373 10.5849 10.5007L11.0686 8.56025C11.617 8.69692 13.3847 8.95171 13.099 10.0974Z" fill="white"/>
<path d="M29.9999 21C29.9999 25.97 25.9709 29.9989 21.0009 29.9989C16.0309 29.9989 12.002 25.97 12.002 21C12.002 16.03 16.0309 12.001 21.0009 12.001C25.9709 12.001 29.9999 16.03 29.9999 21Z" fill="#BFBBBB"/>
<path d="M17.8665 22.8076L17.0639 23.1192L17.4508 21.5675L18.263 21.2412L19.4334 16.5005H22.3182L21.4638 19.9853L22.2569 19.6642L21.8744 21.2109L21.0718 21.532L20.5949 23.491H24.938L24.447 25.4995H17.2056L17.8665 22.8076Z" fill="white"/>
</svg>
