<svg width="32" height="32" viewBox="0 0 32 32" fill="none" xmlns="http://www.w3.org/2000/svg">
<g clip-path="url(#clip0_17199_3201)">
<circle cx="16" cy="16" r="16" fill="white"/>
<path d="M26.548 16.17H26.4968C26.3432 16.1828 26.1895 16.1956 26.0231 16.2084H25.9975C25.8566 16.2084 25.703 16.2212 25.5494 16.2212H25.2165L24.9732 16.2084H24.9348C24.7427 16.1956 24.5507 16.17 24.3458 16.1444H24.3074C23.3472 16.0035 22.4125 15.7603 21.5034 15.4146L21.1706 15.2737C20.9401 15.1713 20.6968 15.0817 20.4664 14.9792C19.6597 14.6335 18.8147 14.2878 17.9569 14.019C17.3167 13.8141 16.6509 13.7117 15.9851 13.6861H15.9083C15.5882 13.6733 15.2681 13.6989 14.948 13.7373C14.5767 13.7885 14.1926 13.8653 13.8341 13.9678C13.9494 13.8269 14.0518 13.6861 14.167 13.5452C14.3975 13.2252 14.5639 12.8667 14.6536 12.4954C14.756 12.2137 14.756 11.9064 14.6792 11.6247L14.756 11.5607C14.9608 11.4327 15.1401 11.279 15.3065 11.1126C15.9211 10.6516 16.5869 10.2547 17.3039 9.96026C18.5458 9.43531 19.903 9.23046 21.2474 9.35849C25.2421 9.7554 26.7785 10.6132 29.5825 7.50198C24.858 0.0119224 14.9736 -2.2415 7.48359 2.4574C4.89728 4.08344 2.83591 6.41368 1.52995 9.17924C2.23414 9.85783 3.65533 10.5364 6.4209 9.90904C7.57321 9.28167 8.9688 9.28167 10.1211 9.90904C14.9096 10.9845 15.665 8.16777 15.665 8.16777C15.665 10.1523 14.8712 11.0358 13.6677 11.3943C13.7573 11.4327 13.8469 11.4711 13.9238 11.5223C14.1798 11.6887 14.231 11.9064 14.1158 12.3033C14.039 12.6106 13.8982 12.9179 13.7189 13.1739C13.258 13.7885 12.7586 14.3647 12.2721 14.9536V14.9664C12.2721 15.0305 12.3233 15.0945 12.3873 15.0945C12.4129 15.0945 12.4386 15.0945 12.4514 15.0817L12.5282 15.0433C13.3092 14.6463 14.1542 14.3903 15.0249 14.275C15.9467 14.1598 16.8942 14.2494 17.7776 14.5439C18.8531 14.8896 19.903 15.3505 20.9529 15.7859L21.2986 15.9267C22.246 16.3364 23.2447 16.6053 24.269 16.7077C24.6915 16.7589 25.114 16.7973 25.5366 16.7973C25.8822 16.7973 26.2792 16.7845 26.5992 16.7461V26.0671C26.612 26.464 26.3048 26.8097 25.8951 26.8225H25.8822H25.8438C25.4597 26.8097 25.1524 26.4896 25.1268 26.1055L25.0756 25.2477C24.8836 23.8393 24.4867 22.4565 23.8721 21.1761L23.1807 23.3783C22.9502 24.0953 22.7326 24.8123 22.5021 25.5165L22.2589 26.3488C22.1564 26.6945 21.7851 26.8865 21.4394 26.7841C21.4138 26.7841 21.401 26.7713 21.3754 26.7585C21.1065 26.656 20.9529 26.3872 20.9785 26.1055C21.209 24.3002 21.2858 22.4821 21.209 20.664C19.4165 21.7651 17.3679 22.3285 15.2681 22.3029C15.2169 23.5832 15.1529 24.7611 15.1017 26.0543V26.1311C15.1017 26.5024 14.7944 26.8097 14.4231 26.8097H14.3719C14.0518 26.7713 13.7957 26.5152 13.7573 26.1951L13.6037 25.0684L13.194 22.4949H13.1043C12.9763 23.3271 12.8739 24.1594 12.7586 25.0044L12.6178 26.1695C12.5666 26.5536 12.2209 26.8225 11.8496 26.7713L11.8112 26.7585C11.4911 26.6945 11.2478 26.4128 11.2478 26.0799L11.1966 24.7099C11.1582 23.7881 11.107 22.8662 11.0558 21.9572C11.0302 21.8547 10.979 21.7523 10.9149 21.6755L10.9021 21.6627C10.3644 20.8432 9.94186 19.947 9.66019 18.9995C9.45533 18.3338 9.26328 17.6552 9.05842 16.9766C9.46813 16.8229 9.82663 16.5797 10.1339 16.2724C10.1979 16.1572 10.0699 16.0291 9.92906 16.1188C9.68579 16.2596 9.41692 16.362 9.14805 16.4132C8.67432 16.4516 8.18778 16.4388 7.70125 16.426C7.1763 16.4516 6.74098 16.0419 6.72818 15.5298V15.453C6.74098 15.2097 6.71538 14.9664 6.65136 14.7232C6.28006 13.8397 6.0624 12.8795 6.02399 11.9192C6.02399 11.7271 5.95997 11.6503 5.83193 11.6247C5.46063 11.6375 5.10213 11.6503 4.75644 11.6375C3.11759 11.6119 1.76041 11.3174 1.18426 9.94745C-2.13186 18.1417 1.81163 27.4755 9.99308 30.7916C18.1745 34.1077 27.5211 30.1642 30.8372 21.9828C31.8743 19.4221 32.2328 16.6309 31.8743 13.8909C30.3635 15.1713 28.507 15.9523 26.5352 16.1572" fill="#6BC746"/>
</g>
<defs>
<clipPath id="clip0_17199_3201">
<rect width="32" height="32" fill="white"/>
</clipPath>
</defs>
</svg>
