<svg width="32" height="32" viewBox="0 0 32 32" fill="none" xmlns="http://www.w3.org/2000/svg">
<g clip-path="url(#clip0_8821_16932)">
<path d="M32 16C32 24.8366 24.8366 32 16 32C7.16344 32 0 24.8366 0 16C0 7.16344 7.16344 0 16 0C24.8366 0 32 7.16344 32 16Z" fill="#33347E"/>
<path d="M17.1044 14.2781V12.7826H18.4774V11.1518L20.0889 10.288V12.7826H21.752V14.2781H20.0374V18.5648C20.0374 19.1578 20.2952 19.4608 20.798 19.4608C21.2306 19.4394 21.6494 19.3013 22.0099 19.0611L22.1066 19.0031L21.7134 20.5179C21.2787 20.7798 20.7764 20.9076 20.2694 20.8853C20.0237 20.886 19.7809 20.8327 19.5581 20.7291C19.3353 20.6255 19.138 20.4742 18.9802 20.2859C18.6333 19.8668 18.4542 19.3339 18.4774 18.7904V14.2781H17.1044Z" fill="white"/>
<path d="M13.9781 12.7697H15.6089V20.7564H13.9781V12.7697Z" fill="white"/>
<path d="M25.0073 12.7697H23.3571V20.7564H25.0073V12.7697Z" fill="white"/>
<path d="M11.7719 13.006C12.2561 13.2465 12.6781 13.5958 13.0047 14.0267H12.9982L12.0765 15.1419V15.1097C11.8318 14.8364 11.5343 14.6155 11.202 14.4604C10.8696 14.3053 10.5092 14.2191 10.1426 14.2072C9.80885 14.1982 9.47681 14.2582 9.16733 14.3836C8.85785 14.5089 8.5776 14.6969 8.34417 14.9356C8.10984 15.182 7.92655 15.4723 7.80485 15.7898C7.68316 16.1073 7.62547 16.4457 7.63511 16.7856C7.63419 17.1289 7.70414 17.4687 7.84057 17.7837C7.977 18.0987 8.17697 18.3822 8.42797 18.6163C8.65849 18.8553 8.93638 19.0436 9.24385 19.169C9.55132 19.2945 9.8816 19.3543 10.2135 19.3447C10.5799 19.3313 10.9398 19.2446 11.2719 19.0895C11.6041 18.9345 11.9018 18.7144 12.1474 18.4423V18.41L13.0691 19.551H13.0369C12.7023 19.9788 12.2735 20.3236 11.7837 20.5584C11.294 20.7932 10.7566 20.9117 10.2135 20.9047C9.6728 20.9289 9.13259 20.8463 8.6238 20.6615C8.11501 20.4768 7.64762 20.1936 7.24834 19.8282C6.83476 19.44 6.50958 18.9674 6.29491 18.4424C6.08024 17.9174 5.98111 17.3524 6.00425 16.7856C5.97777 16.2147 6.07527 15.6448 6.29003 15.1151C6.50479 14.5855 6.83172 14.1086 7.24834 13.7173C8.05768 12.9841 9.12232 12.5976 10.2135 12.6408C10.7542 12.6406 11.2876 12.7656 11.7719 13.006Z" fill="white"/>
<path fill-rule="evenodd" clip-rule="evenodd" d="M14.7838 11.4547C15.4045 10.8143 16.1447 10.3019 16.9626 9.94636C17.7501 9.60625 18.5995 9.43287 19.4572 9.43712C20.3189 9.43602 21.1718 9.60924 21.9648 9.94636C22.7732 10.3087 23.5058 10.8204 24.1242 11.4547H26L25.9291 11.3452C25.1952 10.315 24.2276 9.47333 23.1057 8.8892C21.9818 8.305 20.7336 8 19.4669 8C18.2002 8 16.9521 8.305 15.8281 8.8892C14.6893 9.47558 13.7078 10.3267 12.966 11.3709L12.8951 11.4805H14.7774L14.7838 11.4547Z" fill="#EB2E2E"/>
</g>
<defs>
<clipPath id="clip0_8821_16932">
<rect width="32" height="32" fill="white"/>
</clipPath>
</defs>
</svg>
