<svg width="32" height="32" viewBox="0 0 32 32" fill="none" xmlns="http://www.w3.org/2000/svg">
<path fill-rule="evenodd" clip-rule="evenodd" d="M6 4H18V20H6V4ZM12.6732 8.34081L12.0012 7.06124V7.05933L12.0007 7.06029L12.0012 7.06124L11.3281 8.34081C11.2372 8.514 11.0403 8.60019 10.8539 8.54843L10.2157 8.37114L10.6326 10.8334C10.6678 11.0419 10.41 11.1648 10.2747 11.004L9.29858 9.84352L9.19897 10.3007C9.14734 10.5379 8.90906 10.6813 8.67944 10.6135L7.63989 10.3062L7.82324 11.7025C7.84656 11.8804 7.7561 12.0538 7.59814 12.1341L7.03467 12.4202L9.49011 13.8456C9.74451 13.9933 9.85596 14.3064 9.7533 14.5851L9.54346 15.1555L11.6475 14.973C11.7638 14.9629 11.8629 15.0581 11.8595 15.1768L11.7932 17.4646H12.207L12.1406 15.1767C12.1372 15.058 12.2363 14.9628 12.3528 14.9729L14.4578 15.1555L14.2478 14.5851C14.1453 14.3064 14.2567 13.9932 14.5111 13.8456L16.9666 12.4202L16.4031 12.134C16.2451 12.0538 16.1547 11.8804 16.178 11.7025L16.3613 10.3062L15.3218 10.6134C15.0922 10.6813 14.8539 10.5378 14.8021 10.3006L14.7026 9.84348L13.7266 11.004C13.5913 11.1648 13.3335 11.042 13.3688 10.8334L13.7856 8.37114L13.1475 8.54843C12.9609 8.60023 12.7642 8.51405 12.6732 8.34081Z" fill="white"/>
<path d="M18 4H22C23.1046 4 24 4.89543 24 6V18C24 19.1046 23.1046 20 22 20H18V4Z" fill="#F44336"/>
<path d="M2 4H6V20H2C0.89543 20 0 19.1046 0 18V6C0 4.89543 0.89543 4 2 4Z" fill="#F44336"/>
<path d="M12.0012 7.05933V7.06124L12.6732 8.34081C12.7642 8.51405 12.9609 8.60023 13.1475 8.54843L13.7856 8.37114L13.3688 10.8334C13.3335 11.042 13.5913 11.1648 13.7266 11.004L14.7026 9.84348L14.8021 10.3006C14.8539 10.5378 15.0922 10.6813 15.3218 10.6134L16.3613 10.3062L16.178 11.7025C16.1547 11.8804 16.2451 12.0538 16.4031 12.134L16.9666 12.4202L14.5111 13.8456C14.2567 13.9932 14.1453 14.3064 14.2478 14.5851L14.4578 15.1555L12.3528 14.9729C12.2363 14.9628 12.1372 15.058 12.1406 15.1767L12.207 17.4646H11.7932L11.8595 15.1768C11.8629 15.0581 11.7638 14.9629 11.6475 14.973L9.54346 15.1555L9.7533 14.5851C9.85596 14.3064 9.74451 13.9933 9.49011 13.8456L7.03467 12.4202L7.59814 12.1341C7.7561 12.0538 7.84656 11.8804 7.82324 11.7025L7.63989 10.3062L8.67944 10.6135C8.90906 10.6813 9.14734 10.5379 9.19897 10.3007L9.29858 9.84352L10.2747 11.004C10.41 11.1648 10.6678 11.0419 10.6326 10.8334L10.2157 8.37114L10.8539 8.54843C11.0403 8.60019 11.2372 8.514 11.3281 8.34081L12.0001 7.06124L12.0007 7.06029L12.0012 7.05933Z" fill="#F44336"/>
<path fill-rule="evenodd" clip-rule="evenodd" d="M22 5H2C1.44772 5 1 5.44772 1 6V18C1 18.5523 1.44772 19 2 19H22C22.5523 19 23 18.5523 23 18V6C23 5.44771 22.5523 5 22 5ZM2 4C0.89543 4 0 4.89543 0 6V18C0 19.1046 0.89543 20 2 20H22C23.1046 20 24 19.1046 24 18V6C24 4.89543 23.1046 4 22 4H2Z" fill="black" fill-opacity="0.08"/>
<path fill-rule="evenodd" clip-rule="evenodd" d="M10 12H30C31.1046 12 32 12.8954 32 14V26C32 27.1046 31.1046 28 30 28H10C8.89539 28 8 27.1046 8 26V14C8 12.8954 8.89539 12 10 12ZM21.6552 18.3186H24.5518C24.7803 18.3186 24.9656 18.5068 24.9656 18.7389V21.261C24.9656 21.4932 24.7803 21.6814 24.5518 21.6814H21.6552V24.624C21.6552 24.8562 21.4698 25.0444 21.2413 25.0444H18.7585C18.53 25.0444 18.3447 24.8562 18.3447 24.624V21.6815H15.4482C15.2197 21.6815 15.0344 21.4933 15.0344 21.2611V18.739C15.0344 18.5068 15.2197 18.3186 15.4482 18.3186H18.3447V15.376C18.3447 15.1439 18.53 14.9557 18.7585 14.9557H21.2413C21.4698 14.9557 21.6552 15.1439 21.6552 15.376V18.3186Z" fill="#F44336"/>
<path d="M24.5518 18.3186H21.6552V15.376C21.6552 15.1439 21.4698 14.9557 21.2413 14.9557H18.7585C18.53 14.9557 18.3447 15.1439 18.3447 15.376V18.3186H15.4482C15.2197 18.3186 15.0344 18.5068 15.0344 18.739V21.2611C15.0344 21.4933 15.2197 21.6815 15.4482 21.6815H18.3447V24.624C18.3447 24.8562 18.53 25.0444 18.7585 25.0444H21.2413C21.4698 25.0444 21.6552 24.8562 21.6552 24.624V21.6814H24.5518C24.7803 21.6814 24.9656 21.4932 24.9656 21.261V18.7389C24.9656 18.5068 24.7803 18.3186 24.5518 18.3186Z" fill="white"/>
<path fill-rule="evenodd" clip-rule="evenodd" d="M30 13H10C9.44772 13 9 13.4477 9 14V26C9 26.5523 9.44772 27 10 27H30C30.5523 27 31 26.5523 31 26V14C31 13.4477 30.5523 13 30 13ZM10 12C8.89539 12 8 12.8954 8 14V26C8 27.1046 8.89539 28 10 28H30C31.1046 28 32 27.1046 32 26V14C32 12.8954 31.1046 12 30 12H10Z" fill="black" fill-opacity="0.08"/>
</svg>
