<svg width="32" height="32" viewBox="0 0 32 32" fill="none" xmlns="http://www.w3.org/2000/svg">
<path fill-rule="evenodd" clip-rule="evenodd" d="M2 4H22C23.1046 4 24 4.89543 24 6V18C24 19.1046 23.1046 20 22 20H2C0.895386 20 0 19.1046 0 18V6C0 4.89543 0.895386 4 2 4ZM13.6552 10.3186H16.5518C16.7803 10.3186 16.9656 10.5068 16.9656 10.7389V13.261C16.9656 13.4932 16.7803 13.6814 16.5518 13.6814H13.6552V16.624C13.6552 16.8562 13.4698 17.0444 13.2413 17.0444H10.7585C10.53 17.0444 10.3447 16.8562 10.3447 16.624V13.6815H7.44824C7.21973 13.6815 7.03442 13.4933 7.03442 13.2611V10.739C7.03442 10.5068 7.21973 10.3186 7.44824 10.3186H10.3447V7.37605C10.3447 7.14391 10.53 6.95567 10.7585 6.95567H13.2413C13.4698 6.95567 13.6552 7.14391 13.6552 7.37605V10.3186Z" fill="#F44336"/>
<path d="M16.5518 10.3186H13.6552V7.37605C13.6552 7.14391 13.4698 6.95567 13.2413 6.95567H10.7585C10.53 6.95567 10.3447 7.14391 10.3447 7.37605V10.3186H7.44824C7.21973 10.3186 7.03442 10.5068 7.03442 10.739V13.2611C7.03442 13.4933 7.21973 13.6815 7.44824 13.6815H10.3447V16.624C10.3447 16.8562 10.53 17.0444 10.7585 17.0444H13.2413C13.4698 17.0444 13.6552 16.8562 13.6552 16.624V13.6814H16.5518C16.7803 13.6814 16.9656 13.4932 16.9656 13.261V10.7389C16.9656 10.5068 16.7803 10.3186 16.5518 10.3186Z" fill="white"/>
<path fill-rule="evenodd" clip-rule="evenodd" d="M22 5H2C1.44772 5 1 5.44772 1 6V18C1 18.5523 1.44772 19 2 19H22C22.5523 19 23 18.5523 23 18V6C23 5.44771 22.5523 5 22 5ZM2 4C0.895386 4 0 4.89543 0 6V18C0 19.1046 0.895386 20 2 20H22C23.1046 20 24 19.1046 24 18V6C24 4.89543 23.1046 4 22 4H2Z" fill="black" fill-opacity="0.08"/>
<path d="M8 14C8 12.8954 8.89543 12 10 12H30C31.1046 12 32 12.8954 32 14V26C32 27.1046 31.1046 28 30 28H10C8.89543 28 8 27.1046 8 26V14Z" fill="white"/>
<path fill-rule="evenodd" clip-rule="evenodd" d="M30 13H10C9.44772 13 9 13.4477 9 14V26C9 26.5523 9.44772 27 10 27H30C30.5523 27 31 26.5523 31 26V14C31 13.4477 30.5523 13 30 13ZM10 12C8.89543 12 8 12.8954 8 14V26C8 27.1046 8.89543 28 10 28H30C31.1046 28 32 27.1046 32 26V14C32 12.8954 31.1046 12 30 12H10Z" fill="black" fill-opacity="0.08"/>
<path d="M24.5 20C24.5 22.4853 22.4853 24.5 20 24.5C17.5147 24.5 15.5 22.4853 15.5 20C15.5 17.5147 17.5147 15.5 20 15.5C22.4853 15.5 24.5 17.5147 24.5 20Z" fill="#ED293F"/>
</svg>
