<svg width="32" height="32" viewBox="0 0 32 32" fill="none" xmlns="http://www.w3.org/2000/svg">
<path fill-rule="evenodd" clip-rule="evenodd" d="M6 8H26C27.1046 8 28 8.89543 28 10V22C28 23.1046 27.1046 24 26 24H6C4.89539 24 4 23.1046 4 22V10C4 8.89543 4.89539 8 6 8ZM12.8927 10.8612L12.3928 10.406L12.2792 11.0724L11.824 11.5722L12.4905 11.6858L12.9902 12.141L13.1039 11.4746L13.5591 10.9748L12.8927 10.8612ZM14.5266 12.3139L14.511 12.9898L14.8624 13.5673L14.1865 13.5517L13.6091 13.9031L13.6248 13.2273L13.2732 12.6498L13.9491 12.6654L14.5266 12.3139ZM14.1475 14.9505L13.5416 14.6507L13.6161 15.3227L13.3163 15.9286L13.9882 15.8541L14.5941 16.1539L14.5197 15.482L14.8195 14.8761L14.1475 14.9505ZM13.1302 17.1032L13.1223 16.4272L12.5574 16.7986L11.8815 16.8066L12.2528 17.3715L12.2609 18.0475L12.8257 17.6761L13.5017 17.6681L13.1302 17.1032ZM9.48022 15.0995L7.8623 16.2529L8.45935 14.3578L6.86243 13.1755L8.84924 13.1576L9.48022 11.2735L10.1112 13.1576L12.098 13.1755L10.5012 14.3578L11.0981 16.2529L9.48022 15.0995Z" fill="#F1361D"/>
<path d="M13.1302 17.1032L13.1223 16.4272L12.5574 16.7986L11.8815 16.8066L12.2528 17.3715L12.2609 18.0475L12.8257 17.6761L13.5017 17.6681L13.1302 17.1032Z" fill="#FFDC42"/>
<path d="M14.1475 14.9505L13.5416 14.6507L13.6161 15.3227L13.3163 15.9286L13.9882 15.8541L14.5941 16.1539L14.5197 15.482L14.8195 14.8761L14.1475 14.9505Z" fill="#FFDC42"/>
<path d="M14.511 12.9898L14.5266 12.3139L13.9491 12.6654L13.2732 12.6498L13.6248 13.2273L13.6091 13.9031L14.1865 13.5517L14.8624 13.5673L14.511 12.9898Z" fill="#FFDC42"/>
<path d="M12.8927 10.8612L12.3928 10.406L12.2792 11.0724L11.824 11.5722L12.4905 11.6858L12.9902 12.141L13.1039 11.4746L13.5591 10.9748L12.8927 10.8612Z" fill="#FFDC42"/>
<path d="M7.8623 16.2529L9.48022 15.0995L11.0981 16.2529L10.5012 14.3578L12.098 13.1755L10.1112 13.1576L9.48022 11.2735L8.84924 13.1576L6.86243 13.1755L8.45935 14.3578L7.8623 16.2529Z" fill="#FFDC42"/>
<path fill-rule="evenodd" clip-rule="evenodd" d="M26 9H6C5.44772 9 5 9.44772 5 10V22C5 22.5523 5.44772 23 6 23H26C26.5523 23 27 22.5523 27 22V10C27 9.44771 26.5523 9 26 9ZM6 8C4.89539 8 4 8.89543 4 10V22C4 23.1046 4.89539 24 6 24H26C27.1046 24 28 23.1046 28 22V10C28 8.89543 27.1046 8 26 8H6Z" fill="black" fill-opacity="0.08"/>
<path d="M16 2C16 0.89543 16.8954 0 18 0H30C31.1046 0 32 0.895431 32 2V8C32 9.10457 31.1046 10 30 10H18C16.8954 10 16 9.10457 16 8V2Z" fill="#414652"/>
<path d="M22.2803 5.712H20.1523V8H18.9363V2.416H20.1523V4.64H22.2803V2.416H23.4963V8H22.2803V5.712Z" fill="white"/>
<path d="M26.6694 5.568L25.9414 6.448V8H24.7254V2.416H25.9414V5.072H25.9894L26.7814 3.992L28.0374 2.416H29.4134L27.5334 4.712L29.5814 8H28.1494L26.6694 5.568Z" fill="white"/>
</svg>
