<svg width="32" height="32" viewBox="0 0 32 32" fill="none" xmlns="http://www.w3.org/2000/svg">
<path fill-rule="evenodd" clip-rule="evenodd" d="M6 8H26C27.1046 8 28 8.89543 28 10V22C28 23.1046 27.1046 24 26 24H6C4.89539 24 4 23.1046 4 22V10C4 8.89543 4.89539 8 6 8ZM12.8927 10.8612L12.3928 10.406L12.2792 11.0724L11.824 11.5722L12.4905 11.6858L12.9902 12.141L13.1039 11.4746L13.5591 10.9748L12.8927 10.8612ZM14.5266 12.3139L14.511 12.9898L14.8624 13.5673L14.1865 13.5517L13.6091 13.9031L13.6248 13.2273L13.2732 12.6498L13.9491 12.6654L14.5266 12.3139ZM14.1475 14.9505L13.5416 14.6507L13.6161 15.3227L13.3163 15.9286L13.9882 15.8541L14.5941 16.1539L14.5197 15.482L14.8195 14.8761L14.1475 14.9505ZM13.1302 17.1032L13.1223 16.4272L12.5574 16.7986L11.8815 16.8066L12.2528 17.3715L12.2609 18.0475L12.8257 17.6761L13.5017 17.6681L13.1302 17.1032ZM9.48022 15.0995L7.8623 16.2529L8.45935 14.3578L6.86243 13.1755L8.84924 13.1576L9.48022 11.2735L10.1112 13.1576L12.098 13.1755L10.5012 14.3578L11.0981 16.2529L9.48022 15.0995Z" fill="#F1361D"/>
<path d="M13.1302 17.1032L13.1223 16.4272L12.5574 16.7986L11.8815 16.8066L12.2528 17.3715L12.2609 18.0475L12.8257 17.6761L13.5017 17.6681L13.1302 17.1032Z" fill="#FFDC42"/>
<path d="M14.1475 14.9505L13.5416 14.6507L13.6161 15.3227L13.3163 15.9286L13.9882 15.8541L14.5941 16.1539L14.5197 15.482L14.8195 14.8761L14.1475 14.9505Z" fill="#FFDC42"/>
<path d="M14.511 12.9898L14.5266 12.3139L13.9491 12.6654L13.2732 12.6498L13.6248 13.2273L13.6091 13.9031L14.1865 13.5517L14.8624 13.5673L14.511 12.9898Z" fill="#FFDC42"/>
<path d="M12.8927 10.8612L12.3928 10.406L12.2792 11.0724L11.824 11.5722L12.4905 11.6858L12.9902 12.141L13.1039 11.4746L13.5591 10.9748L12.8927 10.8612Z" fill="#FFDC42"/>
<path d="M7.8623 16.2529L9.48022 15.0995L11.0981 16.2529L10.5012 14.3578L12.098 13.1755L10.1112 13.1576L9.48022 11.2735L8.84924 13.1576L6.86243 13.1755L8.45935 14.3578L7.8623 16.2529Z" fill="#FFDC42"/>
<path fill-rule="evenodd" clip-rule="evenodd" d="M26 9H6C5.44772 9 5 9.44772 5 10V22C5 22.5523 5.44772 23 6 23H26C26.5523 23 27 22.5523 27 22V10C27 9.44771 26.5523 9 26 9ZM6 8C4.89539 8 4 8.89543 4 10V22C4 23.1046 4.89539 24 6 24H26C27.1046 24 28 23.1046 28 22V10C28 8.89543 27.1046 8 26 8H6Z" fill="black" fill-opacity="0.08"/>
<path d="M28.0642 6.72801C27.9415 6.96267 27.7202 7.08001 27.4002 7.08001C27.0802 7.08001 26.8588 6.96267 26.7362 6.72801C26.6135 6.49334 26.5522 6.16267 26.5522 5.73601V4.68001C26.5522 4.25334 26.6135 3.92267 26.7362 3.68801C26.8588 3.45334 27.0802 3.33601 27.4002 3.33601C27.7202 3.33601 27.9415 3.45334 28.0642 3.68801C28.1868 3.92267 28.2482 4.25334 28.2482 4.68001V5.73601C28.2482 6.16267 28.1868 6.49334 28.0642 6.72801Z" fill="#414652"/>
<path fill-rule="evenodd" clip-rule="evenodd" d="M20 0C18.8954 0 18 0.89543 18 2V8C18 9.10457 18.8954 10 20 10H30C31.1046 10 32 9.10457 32 8V2C32 0.895431 31.1046 0 30 0H20ZM25.7762 7.33601C26.1282 7.84267 26.6695 8.09601 27.4002 8.09601C28.1308 8.09601 28.6722 7.84267 29.0242 7.33601C29.3762 6.82934 29.5522 6.12001 29.5522 5.20801C29.5522 4.29601 29.3762 3.58667 29.0242 3.08001C28.6722 2.57334 28.1308 2.32001 27.4002 2.32001C26.6695 2.32001 26.1282 2.57334 25.7762 3.08001C25.4242 3.58667 25.2482 4.29601 25.2482 5.20801C25.2482 6.12001 25.4242 6.82934 25.7762 7.33601ZM21.8433 3.46401H24.3793V2.41601H20.9633L20.7553 5.57601L21.7393 5.71201C21.814 5.62667 21.9206 5.54134 22.0593 5.45601C22.2033 5.36534 22.3846 5.32001 22.6033 5.32001C22.8646 5.32001 23.07 5.39467 23.2193 5.54401C23.3686 5.69334 23.4433 5.89601 23.4433 6.15201V6.21601C23.4433 6.48801 23.3686 6.70667 23.2193 6.87201C23.0753 7.03734 22.8593 7.12001 22.5713 7.12001C22.2833 7.12001 22.054 7.04534 21.8833 6.89601C21.7126 6.74134 21.566 6.55467 21.4433 6.33601L20.5713 7.02401C20.6566 7.16801 20.758 7.30401 20.8753 7.43201C20.9926 7.56001 21.1313 7.67467 21.2913 7.77601C21.4513 7.87201 21.6353 7.94934 21.8433 8.00801C22.0513 8.06667 22.2913 8.09601 22.5633 8.09601C22.9046 8.09601 23.2086 8.04801 23.4753 7.95201C23.742 7.85067 23.966 7.71201 24.1473 7.53601C24.334 7.36001 24.4726 7.15201 24.5633 6.91201C24.6593 6.66667 24.7073 6.40267 24.7073 6.12001C24.7073 5.84267 24.662 5.59467 24.5713 5.37601C24.4806 5.15201 24.358 4.96534 24.2033 4.81601C24.0486 4.66134 23.8673 4.54401 23.6593 4.46401C23.4513 4.38401 23.2273 4.34401 22.9873 4.34401C22.8113 4.34401 22.6593 4.36534 22.5313 4.40801C22.4033 4.45067 22.294 4.51201 22.2033 4.59201C22.1126 4.66667 22.0326 4.76001 21.9633 4.87201C21.8993 4.97867 21.8406 5.09867 21.7873 5.23201H21.7233L21.8433 3.46401Z" fill="#414652"/>
<path d="M24.3793 3.46401H21.8433L21.7233 5.23201H21.7873C21.8406 5.09867 21.8993 4.97867 21.9633 4.87201C22.0326 4.76001 22.1126 4.66667 22.2033 4.59201C22.294 4.51201 22.4033 4.45067 22.5313 4.40801C22.6593 4.36534 22.8113 4.34401 22.9873 4.34401C23.2273 4.34401 23.4513 4.38401 23.6593 4.46401C23.8673 4.54401 24.0486 4.66134 24.2033 4.81601C24.358 4.96534 24.4806 5.15201 24.5713 5.37601C24.662 5.59467 24.7073 5.84267 24.7073 6.12001C24.7073 6.40267 24.6593 6.66667 24.5633 6.91201C24.4726 7.15201 24.334 7.36001 24.1473 7.53601C23.966 7.71201 23.742 7.85067 23.4753 7.95201C23.2086 8.04801 22.9046 8.09601 22.5633 8.09601C22.2913 8.09601 22.0513 8.06667 21.8433 8.00801C21.6353 7.94934 21.4513 7.87201 21.2913 7.77601C21.1313 7.67467 20.9926 7.56001 20.8753 7.43201C20.758 7.30401 20.6566 7.16801 20.5713 7.02401L21.4433 6.33601C21.566 6.55467 21.7126 6.74134 21.8833 6.89601C22.054 7.04534 22.2833 7.12001 22.5713 7.12001C22.8593 7.12001 23.0753 7.03734 23.2193 6.87201C23.3686 6.70667 23.4433 6.48801 23.4433 6.21601V6.15201C23.4433 5.89601 23.3686 5.69334 23.2193 5.54401C23.07 5.39467 22.8646 5.32001 22.6033 5.32001C22.3846 5.32001 22.2033 5.36534 22.0593 5.45601C21.9206 5.54134 21.814 5.62667 21.7393 5.71201L20.7553 5.57601L20.9633 2.41601H24.3793V3.46401Z" fill="white"/>
<path d="M27.4002 8.09601C26.6695 8.09601 26.1282 7.84267 25.7762 7.33601C25.4242 6.82934 25.2482 6.12001 25.2482 5.20801C25.2482 4.29601 25.4242 3.58667 25.7762 3.08001C26.1282 2.57334 26.6695 2.32001 27.4002 2.32001C28.1308 2.32001 28.6722 2.57334 29.0242 3.08001C29.3762 3.58667 29.5522 4.29601 29.5522 5.20801C29.5522 6.12001 29.3762 6.82934 29.0242 7.33601C28.6722 7.84267 28.1308 8.09601 27.4002 8.09601ZM27.4002 7.08001C27.7202 7.08001 27.9415 6.96267 28.0642 6.72801C28.1868 6.49334 28.2482 6.16267 28.2482 5.73601V4.68001C28.2482 4.25334 28.1868 3.92267 28.0642 3.68801C27.9415 3.45334 27.7202 3.33601 27.4002 3.33601C27.0802 3.33601 26.8588 3.45334 26.7362 3.68801C26.6135 3.92267 26.5522 4.25334 26.5522 4.68001V5.73601C26.5522 6.16267 26.6135 6.49334 26.7362 6.72801C26.8588 6.96267 27.0802 7.08001 27.4002 7.08001Z" fill="white"/>
</svg>
