<svg width="32" height="32" viewBox="0 0 32 32" fill="none" xmlns="http://www.w3.org/2000/svg">
<path d="M0 14.5856L6.99995 7.58568L9.99995 10.5857L17 3.58568L20 6.58568L26 0.585684V3.41411L20 9.41411L17 6.41411L9.99995 13.4141L6.99995 10.4141L0 17.4141V14.5856Z" fill="#0AA0B0"/>
<path d="M27.0001 22L31.7072 17.2929L30.293 15.8787L28.0001 18.1716L28.0001 9.53674e-06H26.5858L26.0001 0.585752L26.0001 18.1716L23.7072 15.8787L22.293 17.2929L27.0001 22Z" fill="#FF444F"/>
<path d="M10.2672 28.728C10.1445 28.9627 9.92315 29.08 9.60315 29.08C9.28315 29.08 9.06182 28.9627 8.93915 28.728C8.81649 28.4933 8.75515 28.1627 8.75515 27.736V26.68C8.75515 26.2533 8.81649 25.9227 8.93915 25.688C9.06182 25.4533 9.28315 25.336 9.60315 25.336C9.92315 25.336 10.1445 25.4533 10.2672 25.688C10.3898 25.9227 10.4512 26.2533 10.4512 26.68V27.736C10.4512 28.1627 10.3898 28.4933 10.2672 28.728Z" fill="#414652"/>
<path d="M14.4 29.08C14.72 29.08 14.9414 28.9627 15.064 28.728C15.1867 28.4933 15.248 28.1627 15.248 27.736V26.68C15.248 26.2533 15.1867 25.9227 15.064 25.688C14.9414 25.4533 14.72 25.336 14.4 25.336C14.08 25.336 13.8587 25.4533 13.736 25.688C13.6134 25.9227 13.552 26.2533 13.552 26.68V27.736C13.552 28.1627 13.6134 28.4933 13.736 28.728C13.8587 28.9627 14.08 29.08 14.4 29.08Z" fill="#414652"/>
<path d="M19.8609 28.728C19.7382 28.9627 19.5169 29.08 19.1969 29.08C18.8769 29.08 18.6556 28.9627 18.5329 28.728C18.4102 28.4933 18.3489 28.1627 18.3489 27.736V26.68C18.3489 26.2533 18.4102 25.9227 18.5329 25.688C18.6556 25.4533 18.8769 25.336 19.1969 25.336C19.5169 25.336 19.7382 25.4533 19.8609 25.688C19.9836 25.9227 20.0449 26.2533 20.0449 26.68V27.736C20.0449 28.1627 19.9836 28.4933 19.8609 28.728Z" fill="#414652"/>
<path fill-rule="evenodd" clip-rule="evenodd" d="M2 22C0.895431 22 0 22.8954 0 24V30C0 31.1046 0.89543 32 2 32H22C23.1046 32 24 31.1046 24 30V24C24 22.8954 23.1046 22 22 22H2ZM7.97915 29.336C8.33115 29.8427 8.87249 30.096 9.60315 30.096C10.3338 30.096 10.8752 29.8427 11.2272 29.336C11.5792 28.8293 11.7552 28.12 11.7552 27.208C11.7552 26.296 11.5792 25.5867 11.2272 25.08C10.8752 24.5733 10.3338 24.32 9.60315 24.32C8.87249 24.32 8.33115 24.5733 7.97915 25.08C7.62715 25.5867 7.45115 26.296 7.45115 27.208C7.45115 28.12 7.62715 28.8293 7.97915 29.336ZM3.15828 29.032V30H7.04628V29.032H5.86228V24.416H4.02228L2.68628 26.176L3.45428 26.776L4.59028 25.288H4.66228V29.032H3.15828ZM14.4 30.096C13.6694 30.096 13.128 29.8427 12.776 29.336C12.424 28.8293 12.248 28.12 12.248 27.208C12.248 26.296 12.424 25.5867 12.776 25.08C13.128 24.5733 13.6694 24.32 14.4 24.32C15.1307 24.32 15.672 24.5733 16.024 25.08C16.376 25.5867 16.552 26.296 16.552 27.208C16.552 28.12 16.376 28.8293 16.024 29.336C15.672 29.8427 15.1307 30.096 14.4 30.096ZM17.5729 29.336C17.9249 29.8427 18.4662 30.096 19.1969 30.096C19.9276 30.096 20.4689 29.8427 20.8209 29.336C21.1729 28.8293 21.3489 28.12 21.3489 27.208C21.3489 26.296 21.1729 25.5867 20.8209 25.08C20.4689 24.5733 19.9276 24.32 19.1969 24.32C18.4662 24.32 17.9249 24.5733 17.5729 25.08C17.2209 25.5867 17.0449 26.296 17.0449 27.208C17.0449 28.12 17.2209 28.8293 17.5729 29.336Z" fill="#414652"/>
<path d="M3.15828 30V29.032H4.66228V25.288H4.59028L3.45428 26.776L2.68628 26.176L4.02228 24.416H5.86228V29.032H7.04628V30H3.15828Z" fill="white"/>
<path d="M9.60315 30.096C8.87249 30.096 8.33115 29.8427 7.97915 29.336C7.62715 28.8293 7.45115 28.12 7.45115 27.208C7.45115 26.296 7.62715 25.5867 7.97915 25.08C8.33115 24.5733 8.87249 24.32 9.60315 24.32C10.3338 24.32 10.8752 24.5733 11.2272 25.08C11.5792 25.5867 11.7552 26.296 11.7552 27.208C11.7552 28.12 11.5792 28.8293 11.2272 29.336C10.8752 29.8427 10.3338 30.096 9.60315 30.096ZM9.60315 29.08C9.92315 29.08 10.1445 28.9627 10.2672 28.728C10.3898 28.4933 10.4512 28.1627 10.4512 27.736V26.68C10.4512 26.2533 10.3898 25.9227 10.2672 25.688C10.1445 25.4533 9.92315 25.336 9.60315 25.336C9.28315 25.336 9.06182 25.4533 8.93915 25.688C8.81649 25.9227 8.75515 26.2533 8.75515 26.68V27.736C8.75515 28.1627 8.81649 28.4933 8.93915 28.728C9.06182 28.9627 9.28315 29.08 9.60315 29.08Z" fill="white"/>
<path d="M14.4 30.096C13.6694 30.096 13.128 29.8427 12.776 29.336C12.424 28.8293 12.248 28.12 12.248 27.208C12.248 26.296 12.424 25.5867 12.776 25.08C13.128 24.5733 13.6694 24.32 14.4 24.32C15.1307 24.32 15.672 24.5733 16.024 25.08C16.376 25.5867 16.552 26.296 16.552 27.208C16.552 28.12 16.376 28.8293 16.024 29.336C15.672 29.8427 15.1307 30.096 14.4 30.096ZM14.4 29.08C14.72 29.08 14.9414 28.9627 15.064 28.728C15.1867 28.4933 15.248 28.1627 15.248 27.736V26.68C15.248 26.2533 15.1867 25.9227 15.064 25.688C14.9414 25.4533 14.72 25.336 14.4 25.336C14.08 25.336 13.8587 25.4533 13.736 25.688C13.6134 25.9227 13.552 26.2533 13.552 26.68V27.736C13.552 28.1627 13.6134 28.4933 13.736 28.728C13.8587 28.9627 14.08 29.08 14.4 29.08Z" fill="white"/>
<path d="M19.1969 30.096C18.4662 30.096 17.9249 29.8427 17.5729 29.336C17.2209 28.8293 17.0449 28.12 17.0449 27.208C17.0449 26.296 17.2209 25.5867 17.5729 25.08C17.9249 24.5733 18.4662 24.32 19.1969 24.32C19.9276 24.32 20.4689 24.5733 20.8209 25.08C21.1729 25.5867 21.3489 26.296 21.3489 27.208C21.3489 28.12 21.1729 28.8293 20.8209 29.336C20.4689 29.8427 19.9276 30.096 19.1969 30.096ZM19.1969 29.08C19.5169 29.08 19.7382 28.9627 19.8609 28.728C19.9836 28.4933 20.0449 28.1627 20.0449 27.736V26.68C20.0449 26.2533 19.9836 25.9227 19.8609 25.688C19.7382 25.4533 19.5169 25.336 19.1969 25.336C18.8769 25.336 18.6556 25.4533 18.5329 25.688C18.4102 25.9227 18.3489 26.2533 18.3489 26.68V27.736C18.3489 28.1627 18.4102 28.4933 18.5329 28.728C18.6556 28.9627 18.8769 29.08 19.1969 29.08Z" fill="white"/>
</svg>
