<svg width="32" height="32" viewBox="0 0 32 32" fill="none" xmlns="http://www.w3.org/2000/svg">
<path d="M0 14.5856L6.99995 7.58568L9.99995 10.5857L17 3.58568L20 6.58568L26 0.585684V3.41411L20 9.41411L17 6.41411L9.99995 13.4141L6.99995 10.4141L0 17.4141V14.5856Z" fill="#0AA0B0"/>
<path d="M27.0001 22L31.7072 17.2929L30.293 15.8787L28.0001 18.1716L28.0001 9.53674e-06H26.5858L26.0001 0.585752L26.0001 18.1716L23.7072 15.8787L22.293 17.2929L27.0001 22Z" fill="#FF444F"/>
<path d="M9.50154 29.08C9.82154 29.08 10.0429 28.9627 10.1655 28.728C10.2882 28.4933 10.3495 28.1627 10.3495 27.736V26.68C10.3495 26.2533 10.2882 25.9227 10.1655 25.688C10.0429 25.4533 9.82154 25.336 9.50154 25.336C9.18154 25.336 8.96021 25.4533 8.83754 25.688C8.71488 25.9227 8.65354 26.2533 8.65354 26.68V27.736C8.65354 28.1627 8.71488 28.4933 8.83754 28.728C8.96021 28.9627 9.18154 29.08 9.50154 29.08Z" fill="#414652"/>
<path d="M14.9624 28.728C14.8398 28.9627 14.6184 29.08 14.2984 29.08C13.9784 29.08 13.7571 28.9627 13.6344 28.728C13.5118 28.4933 13.4504 28.1627 13.4504 27.736V26.68C13.4504 26.2533 13.5118 25.9227 13.6344 25.688C13.7571 25.4533 13.9784 25.336 14.2984 25.336C14.6184 25.336 14.8398 25.4533 14.9624 25.688C15.0851 25.9227 15.1464 26.2533 15.1464 26.68V27.736C15.1464 28.1627 15.0851 28.4933 14.9624 28.728Z" fill="#414652"/>
<path fill-rule="evenodd" clip-rule="evenodd" d="M2 22C0.895431 22 0 22.8954 0 24V30C0 31.1046 0.895431 32 2 32H17C18.1046 32 19 31.1046 19 30V24C19 22.8954 18.1046 22 17 22H2ZM9.50154 30.096C8.77088 30.096 8.22954 29.8427 7.87754 29.336C7.52554 28.8293 7.34954 28.12 7.34954 27.208C7.34954 26.296 7.52554 25.5867 7.87754 25.08C8.22954 24.5733 8.77088 24.32 9.50154 24.32C10.2322 24.32 10.7735 24.5733 11.1255 25.08C11.4775 25.5867 11.6535 26.296 11.6535 27.208C11.6535 28.12 11.4775 28.8293 11.1255 29.336C10.7735 29.8427 10.2322 30.096 9.50154 30.096ZM6.48067 25.464H3.94467L3.82467 27.232H3.88867C3.942 27.0987 4.00067 26.9787 4.06467 26.872C4.134 26.76 4.214 26.6667 4.30467 26.592C4.39534 26.512 4.50467 26.4507 4.63267 26.408C4.76067 26.3653 4.91267 26.344 5.08867 26.344C5.32867 26.344 5.55267 26.384 5.76067 26.464C5.96867 26.544 6.15 26.6613 6.30467 26.816C6.45934 26.9653 6.582 27.152 6.67267 27.376C6.76334 27.5947 6.80867 27.8427 6.80867 28.12C6.80867 28.4027 6.76067 28.6667 6.66467 28.912C6.574 29.152 6.43534 29.36 6.24867 29.536C6.06734 29.712 5.84334 29.8507 5.57667 29.952C5.31 30.048 5.006 30.096 4.66467 30.096C4.39267 30.096 4.15267 30.0667 3.94467 30.008C3.73667 29.9493 3.55267 29.872 3.39267 29.776C3.23267 29.6747 3.094 29.56 2.97667 29.432C2.85934 29.304 2.758 29.168 2.67267 29.024L3.54467 28.336C3.66734 28.5547 3.814 28.7413 3.98467 28.896C4.15534 29.0453 4.38467 29.12 4.67267 29.12C4.96067 29.12 5.17667 29.0373 5.32067 28.872C5.47 28.7067 5.54467 28.488 5.54467 28.216V28.152C5.54467 27.896 5.47 27.6933 5.32067 27.544C5.17134 27.3947 4.966 27.32 4.70467 27.32C4.486 27.32 4.30467 27.3653 4.16067 27.456C4.022 27.5413 3.91534 27.6267 3.84067 27.712L2.85667 27.576L3.06467 24.416H6.48067V25.464ZM12.6744 29.336C13.0264 29.8427 13.5678 30.096 14.2984 30.096C15.0291 30.096 15.5704 29.8427 15.9224 29.336C16.2744 28.8293 16.4504 28.12 16.4504 27.208C16.4504 26.296 16.2744 25.5867 15.9224 25.08C15.5704 24.5733 15.0291 24.32 14.2984 24.32C13.5678 24.32 13.0264 24.5733 12.6744 25.08C12.3224 25.5867 12.1464 26.296 12.1464 27.208C12.1464 28.12 12.3224 28.8293 12.6744 29.336Z" fill="#414652"/>
<path d="M6.48067 25.464H3.94467L3.82467 27.232H3.88867C3.942 27.0987 4.00067 26.9787 4.06467 26.872C4.134 26.76 4.214 26.6667 4.30467 26.592C4.39534 26.512 4.50467 26.4507 4.63267 26.408C4.76067 26.3653 4.91267 26.344 5.08867 26.344C5.32867 26.344 5.55267 26.384 5.76067 26.464C5.96867 26.544 6.15 26.6613 6.30467 26.816C6.45934 26.9653 6.582 27.152 6.67267 27.376C6.76334 27.5947 6.80867 27.8427 6.80867 28.12C6.80867 28.4027 6.76067 28.6667 6.66467 28.912C6.574 29.152 6.43534 29.36 6.24867 29.536C6.06734 29.712 5.84334 29.8507 5.57667 29.952C5.31 30.048 5.006 30.096 4.66467 30.096C4.39267 30.096 4.15267 30.0667 3.94467 30.008C3.73667 29.9493 3.55267 29.872 3.39267 29.776C3.23267 29.6747 3.094 29.56 2.97667 29.432C2.85934 29.304 2.758 29.168 2.67267 29.024L3.54467 28.336C3.66734 28.5547 3.814 28.7413 3.98467 28.896C4.15534 29.0453 4.38467 29.12 4.67267 29.12C4.96067 29.12 5.17667 29.0373 5.32067 28.872C5.47 28.7067 5.54467 28.488 5.54467 28.216V28.152C5.54467 27.896 5.47 27.6933 5.32067 27.544C5.17134 27.3947 4.966 27.32 4.70467 27.32C4.486 27.32 4.30467 27.3653 4.16067 27.456C4.022 27.5413 3.91534 27.6267 3.84067 27.712L2.85667 27.576L3.06467 24.416H6.48067V25.464Z" fill="white"/>
<path d="M9.50154 30.096C8.77088 30.096 8.22954 29.8427 7.87754 29.336C7.52554 28.8293 7.34954 28.12 7.34954 27.208C7.34954 26.296 7.52554 25.5867 7.87754 25.08C8.22954 24.5733 8.77088 24.32 9.50154 24.32C10.2322 24.32 10.7735 24.5733 11.1255 25.08C11.4775 25.5867 11.6535 26.296 11.6535 27.208C11.6535 28.12 11.4775 28.8293 11.1255 29.336C10.7735 29.8427 10.2322 30.096 9.50154 30.096ZM9.50154 29.08C9.82154 29.08 10.0429 28.9627 10.1655 28.728C10.2882 28.4933 10.3495 28.1627 10.3495 27.736V26.68C10.3495 26.2533 10.2882 25.9227 10.1655 25.688C10.0429 25.4533 9.82154 25.336 9.50154 25.336C9.18154 25.336 8.96021 25.4533 8.83754 25.688C8.71488 25.9227 8.65354 26.2533 8.65354 26.68V27.736C8.65354 28.1627 8.71488 28.4933 8.83754 28.728C8.96021 28.9627 9.18154 29.08 9.50154 29.08Z" fill="white"/>
<path d="M14.2984 30.096C13.5678 30.096 13.0264 29.8427 12.6744 29.336C12.3224 28.8293 12.1464 28.12 12.1464 27.208C12.1464 26.296 12.3224 25.5867 12.6744 25.08C13.0264 24.5733 13.5678 24.32 14.2984 24.32C15.0291 24.32 15.5704 24.5733 15.9224 25.08C16.2744 25.5867 16.4504 26.296 16.4504 27.208C16.4504 28.12 16.2744 28.8293 15.9224 29.336C15.5704 29.8427 15.0291 30.096 14.2984 30.096ZM14.2984 29.08C14.6184 29.08 14.8398 28.9627 14.9624 28.728C15.0851 28.4933 15.1464 28.1627 15.1464 27.736V26.68C15.1464 26.2533 15.0851 25.9227 14.9624 25.688C14.8398 25.4533 14.6184 25.336 14.2984 25.336C13.9784 25.336 13.7571 25.4533 13.6344 25.688C13.5118 25.9227 13.4504 26.2533 13.4504 26.68V27.736C13.4504 28.1627 13.5118 28.4933 13.6344 28.728C13.7571 28.9627 13.9784 29.08 14.2984 29.08Z" fill="white"/>
</svg>
