<svg width="32" height="32" viewBox="0 0 32 32" fill="none" xmlns="http://www.w3.org/2000/svg">
<path d="M0 14.5856L6.99995 7.58568L9.99995 10.5857L17 3.58568L20 6.58568L26 0.585684V3.41411L20 9.41411L17 6.41411L9.99995 13.4141L6.99995 10.4141L0 17.4141V14.5856Z" fill="#0AA0B0"/>
<path d="M27.0001 22L31.7072 17.2929L30.293 15.8787L28.0001 18.1716L28.0001 9.53674e-06H26.5858L26.0001 0.585752L26.0001 18.1716L23.7072 15.8787L22.293 17.2929L27.0001 22Z" fill="#FF444F"/>
<path d="M9.50155 29.08C9.82155 29.08 10.0429 28.9627 10.1656 28.728C10.2882 28.4933 10.3496 28.1627 10.3496 27.736V26.68C10.3496 26.2533 10.2882 25.9227 10.1656 25.688C10.0429 25.4533 9.82155 25.336 9.50155 25.336C9.18155 25.336 8.96022 25.4533 8.83755 25.688C8.71489 25.9227 8.65355 26.2533 8.65355 26.68V27.736C8.65355 28.1627 8.71489 28.4933 8.83755 28.728C8.96022 28.9627 9.18155 29.08 9.50155 29.08Z" fill="#414652"/>
<path d="M14.9624 28.728C14.8398 28.9627 14.6184 29.08 14.2984 29.08C13.9784 29.08 13.7571 28.9627 13.6344 28.728C13.5118 28.4933 13.4504 28.1627 13.4504 27.736V26.68C13.4504 26.2533 13.5118 25.9227 13.6344 25.688C13.7571 25.4533 13.9784 25.336 14.2984 25.336C14.6184 25.336 14.8398 25.4533 14.9624 25.688C15.0851 25.9227 15.1464 26.2533 15.1464 26.68V27.736C15.1464 28.1627 15.0851 28.4933 14.9624 28.728Z" fill="#414652"/>
<path fill-rule="evenodd" clip-rule="evenodd" d="M2 22C0.895431 22 0 22.8954 0 24V30C0 31.1046 0.895431 32 2 32H17C18.1046 32 19 31.1046 19 30V24C19 22.8954 18.1046 22 17 22H2ZM4.40068 26.624C4.69935 26.624 4.91535 26.568 5.04868 26.456C5.18735 26.3387 5.25668 26.1947 5.25668 26.024V25.968C5.25668 25.7653 5.19001 25.6027 5.05668 25.48C4.92868 25.3573 4.74468 25.296 4.50468 25.296C4.28068 25.296 4.07001 25.3547 3.87268 25.472C3.67534 25.584 3.50734 25.7467 3.36868 25.96L2.61668 25.256C2.72334 25.1173 2.83801 24.992 2.96068 24.88C3.08334 24.7627 3.22201 24.664 3.37668 24.584C3.53134 24.4987 3.70468 24.4347 3.89668 24.392C4.08868 24.344 4.30468 24.32 4.54468 24.32C4.84334 24.32 5.11268 24.3547 5.35268 24.424C5.59801 24.4933 5.80601 24.5947 5.97668 24.728C6.15268 24.856 6.28601 25.0107 6.37668 25.192C6.47268 25.3733 6.52068 25.576 6.52068 25.8C6.52068 25.976 6.49134 26.136 6.43268 26.28C6.37934 26.424 6.30201 26.5493 6.20068 26.656C6.10468 26.7627 5.99268 26.8507 5.86468 26.92C5.73668 26.984 5.60068 27.0293 5.45668 27.056V27.104C5.62201 27.136 5.77401 27.1893 5.91268 27.264C6.05668 27.3333 6.17934 27.424 6.28068 27.536C6.38734 27.648 6.47001 27.7813 6.52868 27.936C6.58734 28.0853 6.61668 28.256 6.61668 28.448C6.61668 28.6987 6.56601 28.9253 6.46468 29.128C6.36335 29.3307 6.21935 29.504 6.03268 29.648C5.84601 29.792 5.62201 29.904 5.36068 29.984C5.09935 30.0587 4.81135 30.096 4.49668 30.096C4.21401 30.096 3.96335 30.0667 3.74468 30.008C3.52601 29.9493 3.33401 29.872 3.16868 29.776C3.00868 29.6747 2.86734 29.56 2.74468 29.432C2.62734 29.304 2.52334 29.168 2.43268 29.024L3.32068 28.336C3.44335 28.5653 3.59268 28.7547 3.76868 28.904C3.95001 29.048 4.19268 29.12 4.49668 29.12C4.76868 29.12 4.97935 29.0533 5.12868 28.92C5.28335 28.7813 5.36068 28.5947 5.36068 28.36V28.312C5.36068 28.0827 5.27268 27.912 5.09668 27.8C4.92601 27.6827 4.68868 27.624 4.38468 27.624H3.88068V26.624H4.40068ZM9.50155 30.096C8.77089 30.096 8.22955 29.8427 7.87755 29.336C7.52555 28.8293 7.34955 28.12 7.34955 27.208C7.34955 26.296 7.52555 25.5867 7.87755 25.08C8.22955 24.5733 8.77089 24.32 9.50155 24.32C10.2322 24.32 10.7736 24.5733 11.1256 25.08C11.4776 25.5867 11.6536 26.296 11.6536 27.208C11.6536 28.12 11.4776 28.8293 11.1256 29.336C10.7736 29.8427 10.2322 30.096 9.50155 30.096ZM12.6744 29.336C13.0264 29.8427 13.5678 30.096 14.2984 30.096C15.0291 30.096 15.5704 29.8427 15.9224 29.336C16.2744 28.8293 16.4504 28.12 16.4504 27.208C16.4504 26.296 16.2744 25.5867 15.9224 25.08C15.5704 24.5733 15.0291 24.32 14.2984 24.32C13.5678 24.32 13.0264 24.5733 12.6744 25.08C12.3224 25.5867 12.1464 26.296 12.1464 27.208C12.1464 28.12 12.3224 28.8293 12.6744 29.336Z" fill="#414652"/>
<path d="M4.40068 26.624C4.69935 26.624 4.91535 26.568 5.04868 26.456C5.18735 26.3387 5.25668 26.1947 5.25668 26.024V25.968C5.25668 25.7653 5.19001 25.6027 5.05668 25.48C4.92868 25.3573 4.74468 25.296 4.50468 25.296C4.28068 25.296 4.07001 25.3547 3.87268 25.472C3.67534 25.584 3.50734 25.7467 3.36868 25.96L2.61668 25.256C2.72334 25.1173 2.83801 24.992 2.96068 24.88C3.08334 24.7627 3.22201 24.664 3.37668 24.584C3.53134 24.4987 3.70468 24.4347 3.89668 24.392C4.08868 24.344 4.30468 24.32 4.54468 24.32C4.84334 24.32 5.11268 24.3547 5.35268 24.424C5.59801 24.4933 5.80601 24.5947 5.97668 24.728C6.15268 24.856 6.28601 25.0107 6.37668 25.192C6.47268 25.3733 6.52068 25.576 6.52068 25.8C6.52068 25.976 6.49134 26.136 6.43268 26.28C6.37934 26.424 6.30201 26.5493 6.20068 26.656C6.10468 26.7627 5.99268 26.8507 5.86468 26.92C5.73668 26.984 5.60068 27.0293 5.45668 27.056V27.104C5.62201 27.136 5.77401 27.1893 5.91268 27.264C6.05668 27.3333 6.17934 27.424 6.28068 27.536C6.38734 27.648 6.47001 27.7813 6.52868 27.936C6.58734 28.0853 6.61668 28.256 6.61668 28.448C6.61668 28.6987 6.56601 28.9253 6.46468 29.128C6.36335 29.3307 6.21935 29.504 6.03268 29.648C5.84601 29.792 5.62201 29.904 5.36068 29.984C5.09935 30.0587 4.81135 30.096 4.49668 30.096C4.21401 30.096 3.96335 30.0667 3.74468 30.008C3.52601 29.9493 3.33401 29.872 3.16868 29.776C3.00868 29.6747 2.86734 29.56 2.74468 29.432C2.62734 29.304 2.52334 29.168 2.43268 29.024L3.32068 28.336C3.44335 28.5653 3.59268 28.7547 3.76868 28.904C3.95001 29.048 4.19268 29.12 4.49668 29.12C4.76868 29.12 4.97935 29.0533 5.12868 28.92C5.28335 28.7813 5.36068 28.5947 5.36068 28.36V28.312C5.36068 28.0827 5.27268 27.912 5.09668 27.8C4.92601 27.6827 4.68868 27.624 4.38468 27.624H3.88068V26.624H4.40068Z" fill="white"/>
<path d="M9.50155 30.096C8.77089 30.096 8.22955 29.8427 7.87755 29.336C7.52555 28.8293 7.34955 28.12 7.34955 27.208C7.34955 26.296 7.52555 25.5867 7.87755 25.08C8.22955 24.5733 8.77089 24.32 9.50155 24.32C10.2322 24.32 10.7736 24.5733 11.1256 25.08C11.4776 25.5867 11.6536 26.296 11.6536 27.208C11.6536 28.12 11.4776 28.8293 11.1256 29.336C10.7736 29.8427 10.2322 30.096 9.50155 30.096ZM9.50155 29.08C9.82155 29.08 10.0429 28.9627 10.1656 28.728C10.2882 28.4933 10.3496 28.1627 10.3496 27.736V26.68C10.3496 26.2533 10.2882 25.9227 10.1656 25.688C10.0429 25.4533 9.82155 25.336 9.50155 25.336C9.18155 25.336 8.96022 25.4533 8.83755 25.688C8.71489 25.9227 8.65355 26.2533 8.65355 26.68V27.736C8.65355 28.1627 8.71489 28.4933 8.83755 28.728C8.96022 28.9627 9.18155 29.08 9.50155 29.08Z" fill="white"/>
<path d="M14.2984 30.096C13.5678 30.096 13.0264 29.8427 12.6744 29.336C12.3224 28.8293 12.1464 28.12 12.1464 27.208C12.1464 26.296 12.3224 25.5867 12.6744 25.08C13.0264 24.5733 13.5678 24.32 14.2984 24.32C15.0291 24.32 15.5704 24.5733 15.9224 25.08C16.2744 25.5867 16.4504 26.296 16.4504 27.208C16.4504 28.12 16.2744 28.8293 15.9224 29.336C15.5704 29.8427 15.0291 30.096 14.2984 30.096ZM14.2984 29.08C14.6184 29.08 14.8398 28.9627 14.9624 28.728C15.0851 28.4933 15.1464 28.1627 15.1464 27.736V26.68C15.1464 26.2533 15.0851 25.9227 14.9624 25.688C14.8398 25.4533 14.6184 25.336 14.2984 25.336C13.9784 25.336 13.7571 25.4533 13.6344 25.688C13.5118 25.9227 13.4504 26.2533 13.4504 26.68V27.736C13.4504 28.1627 13.5118 28.4933 13.6344 28.728C13.7571 28.9627 13.9784 29.08 14.2984 29.08Z" fill="white"/>
</svg>
