<svg width="32" height="32" viewBox="0 0 32 32" fill="none" xmlns="http://www.w3.org/2000/svg">
<g clip-path="url(#clip0_8821_16938)">
<path d="M32 16C32 24.8366 24.8366 32 16 32C7.16344 32 0 24.8366 0 16C0 7.16344 7.16344 0 16 0C24.8366 0 32 7.16344 32 16Z" fill="#169BD7"/>
<path d="M18.2809 13.2369C18.3157 13.2448 18.3483 13.2522 18.3838 13.2627C18.3925 13.2627 18.4274 13.2806 18.41 13.3343L18.2705 13.7281C18.2617 13.7549 18.253 13.7728 18.192 13.7549C18.1746 13.746 18.1571 13.737 18.0961 13.7281C18.0612 13.7191 18.0002 13.7102 17.9479 13.7102C17.8694 13.7102 17.8084 13.7191 17.7473 13.737C17.6863 13.7549 17.634 13.7907 17.5904 13.8355C17.584 13.8434 17.5772 13.8515 17.5701 13.8599C17.5296 13.9083 17.4819 13.965 17.4596 14.0414C17.3899 14.2472 17.3637 14.4531 17.3637 14.471H17.9566C18.0089 14.471 18.0263 14.4978 18.0176 14.5336L17.9479 14.9275C17.9392 14.9812 17.8868 14.9812 17.8868 14.9812H17.2765L16.858 17.3978C16.8144 17.6484 16.7534 17.8633 16.6924 18.0333C16.6226 18.2034 16.5529 18.3287 16.4482 18.454C16.3523 18.5614 16.239 18.6509 16.1082 18.6957C15.9774 18.7404 15.8205 18.7673 15.6548 18.7673C15.5764 18.7673 15.4892 18.7673 15.3845 18.7404C15.3322 18.727 15.2946 18.7136 15.257 18.7001C15.2445 18.6957 15.232 18.6912 15.2189 18.6867C15.2015 18.6778 15.184 18.6509 15.1927 18.6151C15.2037 18.5925 15.2495 18.463 15.2861 18.3592C15.3075 18.2986 15.3258 18.2467 15.3322 18.2302C15.3584 18.1855 15.402 18.2034 15.402 18.2034C15.4281 18.2213 15.4543 18.2302 15.4979 18.2392C15.5415 18.2481 15.6025 18.2571 15.6461 18.2571C15.7246 18.2571 15.803 18.2392 15.8641 18.2213C15.9338 18.1944 15.9861 18.1497 16.0297 18.087C16.082 18.0244 16.1169 17.9349 16.1605 17.8185C16.2041 17.7021 16.239 17.541 16.2739 17.3531L16.6836 14.9812H16.2739C16.2215 14.9812 16.2041 14.9543 16.2128 14.9185L16.2826 14.5247C16.2913 14.471 16.3436 14.471 16.3436 14.471H16.7621L16.7883 14.3457C16.858 13.9698 16.9801 13.6744 17.1632 13.4864C17.3463 13.2985 17.6166 13.2 17.9479 13.2C18.0438 13.2 18.131 13.2089 18.2007 13.2179C18.2298 13.2254 18.2559 13.2313 18.2809 13.2369Z" fill="white"/>
<path d="M10.0748 17.4157C10.101 17.4157 10.1271 17.3978 10.1271 17.362V13.3164C10.1271 13.2895 10.1097 13.2627 10.0748 13.2627H9.58654C9.55167 13.2627 9.53423 13.2806 9.53423 13.3164V17.362C9.53423 17.3889 9.55167 17.4157 9.58654 17.4157H10.0748Z" fill="white"/>
<path d="M4.01847 17.1431C4.00778 17.1347 3.99101 17.1214 4.00587 17.0756L4.13665 16.7087C4.16151 16.6491 4.20214 16.6704 4.22107 16.6804L4.22384 16.6818C4.25871 16.7087 4.28487 16.7266 4.32846 16.7534C4.71209 17.004 5.06084 17.004 5.17418 17.004C5.46191 17.004 5.63628 16.8429 5.63628 16.6371V16.6281C5.63628 16.4044 5.366 16.3148 5.05212 16.2164L4.98237 16.1985C4.55515 16.0732 4.09305 15.8942 4.09305 15.3303V15.3213C4.09305 14.7843 4.51156 14.4173 5.11315 14.4173H5.17418C5.52294 14.4173 5.86297 14.5247 6.1071 14.6769C6.13325 14.6858 6.15069 14.7127 6.14197 14.7485C6.13761 14.7664 6.1071 14.8492 6.07658 14.932C6.04606 15.0148 6.01555 15.0976 6.01119 15.1155C5.98503 15.1781 5.924 15.1334 5.924 15.1334C5.71475 15.017 5.37472 14.9186 5.09572 14.9186C4.84287 14.9186 4.67721 15.0528 4.67721 15.2408V15.2497C4.67721 15.4702 4.94806 15.5603 5.26459 15.6657C5.26932 15.6672 5.27406 15.6688 5.27881 15.6704L5.33112 15.6883C5.75834 15.8315 6.22044 16.0284 6.22044 16.5565V16.5655C6.22044 17.1383 5.81066 17.4963 5.15675 17.4963C4.83415 17.4963 4.52899 17.4426 4.2064 17.2636C4.14537 17.2278 4.08434 17.192 4.0233 17.1473C4.0233 17.1473 4.02033 17.1446 4.01847 17.1431Z" fill="white"/>
<path d="M13.583 17.1431C13.5723 17.1347 13.5555 17.1214 13.5704 17.0756L13.6925 16.7087C13.7099 16.655 13.7709 16.6729 13.7796 16.6818C13.8145 16.7087 13.8407 16.7266 13.8843 16.7534C14.2679 17.004 14.6166 17.004 14.73 17.004C15.0177 17.004 15.1921 16.8429 15.1921 16.6371V16.6281C15.1921 16.4044 14.9218 16.3148 14.6079 16.2164L14.5382 16.1985C14.111 16.0732 13.6489 15.8942 13.6489 15.3303V15.3213C13.6489 14.7843 14.0674 14.4173 14.669 14.4173H14.7387C15.0875 14.4173 15.4275 14.5247 15.6716 14.6769C15.6978 14.6858 15.7152 14.7127 15.7065 14.7485C15.7021 14.7664 15.6716 14.8492 15.6411 14.932C15.6106 15.0148 15.5801 15.0976 15.5757 15.1155C15.5496 15.1781 15.4885 15.1334 15.4885 15.1334C15.2793 15.017 14.9392 14.9186 14.6602 14.9186C14.4074 14.9186 14.2417 15.0528 14.2417 15.2408V15.2497C14.2417 15.4702 14.5126 15.5603 14.8291 15.6657L14.8433 15.6704L14.8956 15.6883C15.3229 15.8315 15.785 16.0284 15.785 16.5565V16.5655C15.785 17.1383 15.3752 17.4963 14.7213 17.4963C14.3987 17.4963 14.0935 17.4426 13.7709 17.2636C13.7099 17.2278 13.6489 17.192 13.5878 17.1473C13.5878 17.1473 13.5849 17.1446 13.583 17.1431Z" fill="white"/>
<path fill-rule="evenodd" clip-rule="evenodd" d="M20.4059 14.8649C20.5106 14.9991 20.5977 15.1602 20.6501 15.3482C20.7111 15.5361 20.7372 15.7331 20.7372 15.9479C20.7372 16.1627 20.7111 16.3596 20.6588 16.5476C20.6065 16.7266 20.528 16.8966 20.4146 17.0309C20.3013 17.1652 20.1618 17.2726 19.9961 17.3531C19.8305 17.4337 19.63 17.4695 19.412 17.4695C19.194 17.4695 18.9935 17.4337 18.8278 17.3531C18.6622 17.2815 18.5227 17.1652 18.4093 17.0309C18.296 16.8966 18.2088 16.7355 18.1565 16.5476C18.1042 16.3685 18.078 16.1627 18.078 15.9479C18.078 15.7331 18.1042 15.5361 18.1565 15.3482C18.2088 15.1692 18.2873 14.9991 18.4006 14.8649C18.5139 14.7216 18.6534 14.6142 18.8191 14.5337C18.9848 14.4621 19.1853 14.4173 19.4033 14.4173C19.6212 14.4173 19.8218 14.4531 19.9874 14.5337C20.1531 14.6142 20.2926 14.7306 20.4059 14.8649ZM19.9351 16.7087C20.0485 16.5297 20.1095 16.2701 20.1095 15.9479C20.1095 15.6257 20.0485 15.3661 19.9351 15.1871C19.8218 15.017 19.6474 14.9275 19.4033 14.9275C19.1591 14.9275 18.9848 15.0081 18.8714 15.1871C18.7581 15.3661 18.697 15.6257 18.697 15.9479C18.697 16.2701 18.7581 16.5297 18.8714 16.7087C18.9848 16.8877 19.1591 16.9772 19.4033 16.9772C19.6474 16.9772 19.8218 16.8877 19.9351 16.7087Z" fill="white"/>
<path d="M25.0618 16.8519C25.0618 16.8519 25.1141 16.834 25.1315 16.8877L25.271 17.2547C25.2885 17.2994 25.2449 17.3173 25.2449 17.3173C25.0356 17.3979 24.7479 17.4605 24.4689 17.4605C23.9894 17.4605 23.6319 17.3173 23.3878 17.0398C23.1436 16.7624 23.0216 16.3865 23.0216 15.921C23.0216 15.7062 23.0477 15.5093 23.1088 15.3213C23.1611 15.1423 23.257 14.9723 23.3703 14.838C23.4837 14.6948 23.6319 14.5874 23.8063 14.5068C23.9806 14.4263 24.1899 14.3905 24.4166 14.3905C24.5735 14.3905 24.7043 14.3994 24.8264 14.4173C24.9571 14.4442 25.1228 14.4889 25.1925 14.5158C25.21 14.5158 25.2449 14.5337 25.2274 14.5784C25.2013 14.6697 25.1751 14.7417 25.1489 14.8137C25.1315 14.8616 25.1141 14.9096 25.0966 14.9633C25.0792 15.017 25.0356 14.9991 25.0356 14.9991C24.8612 14.9454 24.6869 14.9186 24.4602 14.9186C24.1899 14.9186 23.9894 15.017 23.8586 15.196C23.7278 15.375 23.6493 15.6167 23.6493 15.93C23.6493 16.279 23.7365 16.5386 23.8847 16.6997C24.0417 16.8608 24.2509 16.9414 24.5125 16.9414C24.6171 16.9414 24.7217 16.9414 24.8089 16.9235C24.8805 16.9161 24.9521 16.8907 25.0189 16.8669C25.0334 16.8618 25.0477 16.8567 25.0618 16.8519Z" fill="white"/>
<path fill-rule="evenodd" clip-rule="evenodd" d="M27.6948 14.7932C27.7733 14.8828 27.8867 15.0618 27.9302 15.2408C28.0205 15.5828 28.0002 15.8852 27.9926 15.9987C27.9906 16.0278 27.9895 16.0445 27.9913 16.0463C27.9913 16.1 27.939 16.1 27.939 16.1H26.0906C26.108 16.3954 26.1691 16.5923 26.3085 16.7355C26.4393 16.8698 26.6486 16.9593 26.9363 16.9593C27.3495 16.9593 27.5434 16.8789 27.6739 16.8247C27.681 16.8218 27.688 16.8189 27.6948 16.8161C27.6948 16.8161 27.7472 16.7982 27.7646 16.8519L27.8867 17.201C27.9128 17.2547 27.8867 17.2815 27.8692 17.2905C27.7472 17.3531 27.4682 17.4784 26.9363 17.4784C26.6747 17.4874 26.448 17.4426 26.265 17.371C26.0819 17.2994 25.9249 17.192 25.8029 17.0577C25.6808 16.9235 25.5849 16.7624 25.5326 16.5744C25.4715 16.3865 25.4454 16.1806 25.4454 15.9658C25.4454 15.751 25.4715 15.5451 25.5239 15.3571C25.5762 15.1692 25.6634 15.0081 25.7767 14.8649C25.89 14.7306 26.0296 14.6142 26.2039 14.5337C26.3783 14.4442 26.5876 14.4084 26.8142 14.4084C27.0148 14.4084 27.1979 14.4531 27.3461 14.5158C27.4594 14.5695 27.5728 14.659 27.6948 14.7932ZM26.2388 15.1871C26.1691 15.3034 26.1167 15.4556 26.0906 15.6346H27.4071C27.3984 15.4645 27.3635 15.3034 27.2851 15.1871C27.1717 15.0081 27.0148 14.9096 26.7706 14.9096C26.5265 14.9096 26.3521 15.0081 26.2388 15.1871Z" fill="white"/>
<path fill-rule="evenodd" clip-rule="evenodd" d="M12.899 14.7932C12.9775 14.8828 13.0909 15.0618 13.1344 15.2408C13.2247 15.5828 13.2044 15.8852 13.1968 15.9987C13.1948 16.0278 13.1937 16.0445 13.1955 16.0463C13.1955 16.1 13.1432 16.1 13.1432 16.1H11.2948C11.3122 16.3954 11.3733 16.5923 11.5128 16.7355C11.6435 16.8698 11.8528 16.9593 12.1405 16.9593C12.5537 16.9593 12.7476 16.8789 12.8781 16.8247C12.8852 16.8218 12.8922 16.8189 12.899 16.8161C12.899 16.8161 12.9514 16.7982 12.9688 16.8519L13.0909 17.201C13.117 17.2547 13.0909 17.2815 13.0734 17.2905C12.9514 17.3531 12.6724 17.4784 12.1405 17.4784C11.8789 17.4874 11.6523 17.4426 11.4692 17.371C11.2861 17.2994 11.1291 17.192 11.0071 17.0577C10.885 16.9235 10.7891 16.7624 10.7368 16.5744C10.6757 16.3865 10.6496 16.1806 10.6496 15.9658C10.6496 15.751 10.6757 15.5451 10.7281 15.3571C10.7804 15.1692 10.8676 15.0081 10.9809 14.8649C11.0942 14.7306 11.2337 14.6142 11.4081 14.5337C11.5825 14.4442 11.7918 14.4084 12.0184 14.4084C12.219 14.4084 12.4021 14.4531 12.5503 14.5158C12.6636 14.5695 12.777 14.659 12.899 14.7932ZM11.443 15.1871C11.3733 15.3034 11.3209 15.4556 11.2948 15.6346H12.6113C12.5939 15.4645 12.5677 15.3034 12.4893 15.1871C12.3759 15.0081 12.219 14.9096 11.9748 14.9096C11.7307 14.9096 11.5563 15.0081 11.443 15.1871Z" fill="white"/>
<path fill-rule="evenodd" clip-rule="evenodd" d="M7.74624 15.5361C7.85958 15.5361 7.95548 15.5361 8.03395 15.5451C8.03395 15.5451 8.18217 15.563 8.33039 15.5719V15.4914C8.33039 15.2408 8.2868 15.1244 8.18217 15.0439C8.08626 14.9633 7.92932 14.9186 7.72879 14.9186C7.72879 14.9186 7.28413 14.9186 6.92666 15.1155C6.91794 15.1244 6.90051 15.1334 6.90051 15.1334C6.90051 15.1334 6.85691 15.1513 6.83947 15.1065L6.70869 14.7485C6.69126 14.7037 6.72613 14.6769 6.72613 14.6769C6.89179 14.5426 7.29285 14.4621 7.29285 14.4621C7.43235 14.4352 7.65032 14.4173 7.78982 14.4173C8.15601 14.4173 8.44373 14.5068 8.63555 14.6769C8.83608 14.8559 8.93199 15.1423 8.93199 15.5182V17.2547C8.93199 17.2547 8.93199 17.3084 8.88839 17.3173C8.8448 17.3352 8.8012 17.3442 8.75761 17.3531C8.71519 17.3593 8.59698 17.3828 8.46735 17.4086C8.41045 17.4199 8.35136 17.4317 8.29551 17.4426C8.11242 17.4695 7.92933 17.4874 7.73751 17.4874C7.55442 17.4874 7.39748 17.4695 7.24926 17.4337C7.10104 17.3979 6.97898 17.3442 6.87435 17.2636C6.76972 17.192 6.68254 17.0846 6.63022 16.9682C6.56919 16.8519 6.54304 16.7087 6.54304 16.5386C6.54304 16.3685 6.57791 16.2253 6.63894 16.1C6.70869 15.9747 6.79588 15.8673 6.90923 15.7868C7.02257 15.6973 7.14463 15.6346 7.29285 15.5988C7.43235 15.554 7.5893 15.5361 7.74624 15.5361ZM7.19695 16.7624C7.2231 16.8071 7.23182 16.8161 7.30157 16.8787C7.30157 16.8787 7.46723 17.013 7.84214 16.9861C8.1037 16.9682 8.33911 16.9145 8.33911 16.9145V16.0553C8.33911 16.0553 8.1037 16.0105 7.84214 16.0105C7.46723 16.0016 7.31029 16.1448 7.31029 16.1448C7.19695 16.2253 7.14463 16.3417 7.14463 16.5118C7.14463 16.6192 7.16207 16.6997 7.19695 16.7624Z" fill="white"/>
<path d="M22.9137 14.5026C22.9263 14.5128 22.9492 14.5315 22.9344 14.5695C22.9169 14.6232 22.8298 14.8828 22.7862 14.9544C22.7687 14.9902 22.7513 15.0081 22.7164 15.0081C22.7164 15.0081 22.6118 14.9812 22.5159 14.9812C22.4548 14.9812 22.3589 14.9902 22.2717 15.017C22.1933 15.0439 22.1148 15.0976 22.0451 15.1602C21.9753 15.2229 21.923 15.3213 21.8794 15.4377C21.8358 15.563 21.8184 15.751 21.8184 15.9389V17.3531C21.8184 17.38 21.8009 17.4068 21.7661 17.4068H21.2778C21.2516 17.4068 21.2255 17.3889 21.2255 17.3531V14.5247C21.2255 14.4979 21.2429 14.471 21.2778 14.471H21.7486C21.7748 14.471 21.8009 14.4889 21.8009 14.5247V14.7574C21.8707 14.6679 22.0015 14.5784 22.1148 14.5247C22.2369 14.471 22.3589 14.4263 22.5943 14.4442C22.7164 14.4531 22.8733 14.4889 22.9082 14.4979C22.9082 14.4979 22.9114 14.5008 22.9137 14.5026Z" fill="white"/>
</g>
<defs>
<clipPath id="clip0_8821_16938">
<rect width="32" height="32" fill="white"/>
</clipPath>
</defs>
</svg>
