<svg width="72" height="72" viewBox="0 0 72 72" fill="none" xmlns="http://www.w3.org/2000/svg">
<path d="M0 13.5C0 6.04416 6.04416 0 13.5 0H58.5C65.9558 0 72 6.04416 72 13.5V58.5C72 65.9558 65.9558 72 58.5 72H13.5C6.04416 72 0 65.9558 0 58.5V13.5Z" fill="#E22526"/>
<path d="M13.5 0C6.04416 0 0 6.04416 0 13.5V13.8921L67.3075 3.26845C64.9433 1.2315 61.8655 0 58.5 0H13.5Z" fill="#B51E1E"/>
<path d="M68.6969 4.65243L56.3498 71.9999L58.5 72C65.9558 72 72 65.9558 72 58.5V13.5C72 10.1155 70.7545 7.02183 68.6969 4.65243Z" fill="#B51E1E"/>
<path d="M20.2656 38.4097C20.2656 37.2127 20.4546 36.0892 20.8326 35.0392C21.2316 33.9682 21.7986 33.0442 22.5336 32.2672C23.2686 31.4692 24.1611 30.8392 25.2111 30.3772C26.2611 29.9152 27.4581 29.6842 28.8021 29.6842C29.6841 29.6842 30.4926 29.7682 31.2276 29.9362C31.9626 30.0832 32.6766 30.3037 33.3696 30.5977L32.3931 34.3462C31.9521 34.1782 31.4691 34.0312 30.9441 33.9052C30.4191 33.7792 29.8311 33.7162 29.1801 33.7162C27.7941 33.7162 26.7546 34.1467 26.0616 35.0077C25.3896 35.8687 25.0536 37.0027 25.0536 38.4097C25.0536 39.9007 25.3686 41.0557 25.9986 41.8747C26.6496 42.6937 27.7731 43.1032 29.3691 43.1032C29.9361 43.1032 30.5451 43.0507 31.1961 42.9457C31.8471 42.8407 32.4456 42.6727 32.9916 42.4417L33.6531 46.2847C33.1071 46.5157 32.4246 46.7152 31.6056 46.8832C30.7866 47.0512 29.8836 47.1352 28.8966 47.1352C27.3846 47.1352 26.0826 46.9147 24.9906 46.4737C23.8986 46.0117 22.9956 45.3922 22.2816 44.6152C21.5886 43.8382 21.0741 42.9247 20.7381 41.8747C20.4231 40.8037 20.2656 39.6487 20.2656 38.4097Z" fill="white"/>
<path d="M51.7341 24.8647V29.0542H45.1506V46.6942H40.2366V29.0542H33.6531V24.8647H51.7341Z" fill="white"/>
</svg>
