<svg width="32" height="32" viewBox="0 0 32 32" fill="none" xmlns="http://www.w3.org/2000/svg">
<g clip-path="url(#clip0_14270_25174)">
<path d="M26 22H29V19H26V22Z" fill="#0AA0B0"/>
<path d="M23 25H26V22H23V25Z" fill="#0AA0B0"/>
<path d="M29 19H32V16H29V19Z" fill="#0AA0B0"/>
<path d="M3 9H6V6H3V9Z" fill="#0AA0B0"/>
<path d="M6 6H9V3H6V6Z" fill="#0AA0B0"/>
<path d="M0 12H3V9H0V12Z" fill="#0AA0B0"/>
<path d="M21 25L12 0H9V3H10.6L19.6 28H23V25H21Z" fill="#FF444F"/>
<path d="M0 24C0 22.8954 0.895431 22 2 22H17C18.1046 22 19 22.8954 19 24V30C19 31.1046 18.1046 32 17 32H2C0.895431 32 0 31.1046 0 30V24Z" fill="#414652"/>
<path d="M4.73669 30.096C4.40602 30.096 4.11002 30.0453 3.84869 29.944C3.58735 29.8373 3.36602 29.688 3.18469 29.496C3.00869 29.2987 2.87269 29.064 2.77669 28.792C2.68602 28.52 2.64069 28.216 2.64069 27.88C2.64069 27.4907 2.69935 27.1227 2.81669 26.776C2.93935 26.424 3.09402 26.1013 3.28069 25.808C3.47269 25.5093 3.68602 25.2427 3.92069 25.008C4.16069 24.7733 4.40069 24.576 4.64069 24.416H6.29669C5.95535 24.6613 5.64869 24.896 5.37669 25.12C5.10469 25.3387 4.86735 25.56 4.66469 25.784C4.46735 26.008 4.30202 26.2373 4.16869 26.472C4.04069 26.7013 3.95002 26.9493 3.89669 27.216L3.96869 27.24C4.01669 27.1333 4.07269 27.0293 4.13669 26.928C4.20602 26.8267 4.28869 26.7387 4.38469 26.664C4.48602 26.584 4.60335 26.52 4.73669 26.472C4.87002 26.424 5.02469 26.4 5.20069 26.4C5.43002 26.4 5.64335 26.4427 5.84069 26.528C6.04335 26.608 6.21669 26.7227 6.36069 26.872C6.51002 27.0213 6.62469 27.2053 6.70469 27.424C6.79002 27.6373 6.83269 27.8747 6.83269 28.136C6.83269 28.424 6.78202 28.688 6.68069 28.928C6.58469 29.168 6.44335 29.376 6.25669 29.552C6.07535 29.7227 5.85669 29.856 5.60069 29.952C5.34469 30.048 5.05669 30.096 4.73669 30.096ZM4.73669 29.16C5.00335 29.16 5.21135 29.088 5.36069 28.944C5.51002 28.7947 5.58469 28.584 5.58469 28.312V28.168C5.58469 27.896 5.51002 27.688 5.36069 27.544C5.21135 27.3947 5.00335 27.32 4.73669 27.32C4.47002 27.32 4.26202 27.3947 4.11269 27.544C3.96335 27.688 3.88869 27.896 3.88869 28.168V28.312C3.88869 28.584 3.96335 28.7947 4.11269 28.944C4.26202 29.088 4.47002 29.16 4.73669 29.16Z" fill="white"/>
<path d="M9.50156 30.096C8.7709 30.096 8.22956 29.8427 7.87756 29.336C7.52556 28.8293 7.34956 28.12 7.34956 27.208C7.34956 26.296 7.52556 25.5867 7.87756 25.08C8.22956 24.5733 8.7709 24.32 9.50156 24.32C10.2322 24.32 10.7736 24.5733 11.1256 25.08C11.4776 25.5867 11.6536 26.296 11.6536 27.208C11.6536 28.12 11.4776 28.8293 11.1256 29.336C10.7736 29.8427 10.2322 30.096 9.50156 30.096ZM9.50156 29.08C9.82156 29.08 10.0429 28.9627 10.1656 28.728C10.2882 28.4933 10.3496 28.1627 10.3496 27.736V26.68C10.3496 26.2533 10.2882 25.9227 10.1656 25.688C10.0429 25.4533 9.82156 25.336 9.50156 25.336C9.18156 25.336 8.96023 25.4533 8.83756 25.688C8.7149 25.9227 8.65356 26.2533 8.65356 26.68V27.736C8.65356 28.1627 8.7149 28.4933 8.83756 28.728C8.96023 28.9627 9.18156 29.08 9.50156 29.08Z" fill="white"/>
<path d="M14.2984 30.096C13.5678 30.096 13.0264 29.8427 12.6744 29.336C12.3224 28.8293 12.1464 28.12 12.1464 27.208C12.1464 26.296 12.3224 25.5867 12.6744 25.08C13.0264 24.5733 13.5678 24.32 14.2984 24.32C15.0291 24.32 15.5704 24.5733 15.9224 25.08C16.2744 25.5867 16.4504 26.296 16.4504 27.208C16.4504 28.12 16.2744 28.8293 15.9224 29.336C15.5704 29.8427 15.0291 30.096 14.2984 30.096ZM14.2984 29.08C14.6184 29.08 14.8398 28.9627 14.9624 28.728C15.0851 28.4933 15.1464 28.1627 15.1464 27.736V26.68C15.1464 26.2533 15.0851 25.9227 14.9624 25.688C14.8398 25.4533 14.6184 25.336 14.2984 25.336C13.9784 25.336 13.7571 25.4533 13.6344 25.688C13.5118 25.9227 13.4504 26.2533 13.4504 26.68V27.736C13.4504 28.1627 13.5118 28.4933 13.6344 28.728C13.7571 28.9627 13.9784 29.08 14.2984 29.08Z" fill="white"/>
</g>
<defs>
<clipPath id="clip0_14270_25174">
<rect width="32" height="32" fill="white"/>
</clipPath>
</defs>
</svg>
