<svg width="32" height="32" viewBox="0 0 32 32" fill="none" xmlns="http://www.w3.org/2000/svg">
<g clip-path="url(#clip0_14270_25183)">
<path d="M6 23H3V26H6V23Z" fill="#FF444F"/>
<path d="M9 26H6V29H9V26Z" fill="#FF444F"/>
<path d="M3 20H0V23H3V20Z" fill="#FF444F"/>
<path d="M29 10H26V13H29V10Z" fill="#FF444F"/>
<path d="M26 7H23V10H26V7Z" fill="#FF444F"/>
<path d="M32 13H29V16H32V13Z" fill="#FF444F"/>
<path d="M23 4H20L11 29H9V32H12.5L21.5 7H23V4Z" fill="#0AA0B0"/>
<path d="M0 2C0 0.89543 0.895431 0 2 0H17C18.1046 0 19 0.895431 19 2V8C19 9.10457 18.1046 10 17 10H2C0.895431 10 0 9.10457 0 8V2Z" fill="#414652"/>
<path d="M6.76869 4.536C6.76869 4.93067 6.70735 5.30133 6.58469 5.648C6.46735 5.99467 6.31269 6.31733 6.12069 6.616C5.93402 6.90933 5.72069 7.17333 5.48069 7.408C5.24602 7.64267 5.00869 7.84 4.76869 8H3.11269C3.45402 7.75467 3.76069 7.52267 4.03269 7.304C4.30469 7.08 4.53935 6.856 4.73669 6.632C4.93935 6.408 5.10469 6.18133 5.23269 5.952C5.36069 5.71733 5.45402 5.46667 5.51269 5.2L5.44069 5.176C5.39269 5.28267 5.33402 5.38667 5.26469 5.488C5.20069 5.58933 5.11802 5.68 5.01669 5.76C4.92069 5.83467 4.80602 5.896 4.67269 5.944C4.53935 5.992 4.38469 6.016 4.20869 6.016C3.97935 6.016 3.76335 5.976 3.56069 5.896C3.36335 5.81067 3.19002 5.69333 3.04069 5.544C2.89669 5.39467 2.78202 5.21333 2.69669 5C2.61669 4.78667 2.57669 4.54667 2.57669 4.28C2.57669 3.992 2.62469 3.728 2.72069 3.488C2.82202 3.248 2.96335 3.04267 3.14469 2.872C3.33135 2.696 3.55269 2.56 3.80869 2.464C4.06469 2.368 4.35269 2.32 4.67269 2.32C5.00335 2.32 5.29935 2.37333 5.56069 2.48C5.82202 2.58133 6.04069 2.73067 6.21669 2.928C6.39802 3.12 6.53402 3.352 6.62469 3.624C6.72069 3.896 6.76869 4.2 6.76869 4.536ZM4.67269 5.096C4.93935 5.096 5.14735 5.024 5.29669 4.88C5.44602 4.73067 5.52069 4.52 5.52069 4.248V4.104C5.52069 3.832 5.44602 3.624 5.29669 3.48C5.14735 3.33067 4.93935 3.256 4.67269 3.256C4.40602 3.256 4.19802 3.33067 4.04869 3.48C3.89935 3.624 3.82469 3.832 3.82469 4.104V4.248C3.82469 4.52 3.89935 4.73067 4.04869 4.88C4.19802 5.024 4.40602 5.096 4.67269 5.096Z" fill="white"/>
<path d="M9.50156 8.096C8.7709 8.096 8.22956 7.84267 7.87756 7.336C7.52556 6.82933 7.34956 6.12 7.34956 5.208C7.34956 4.296 7.52556 3.58667 7.87756 3.08C8.22956 2.57333 8.7709 2.32 9.50156 2.32C10.2322 2.32 10.7736 2.57333 11.1256 3.08C11.4776 3.58667 11.6536 4.296 11.6536 5.208C11.6536 6.12 11.4776 6.82933 11.1256 7.336C10.7736 7.84267 10.2322 8.096 9.50156 8.096ZM9.50156 7.08C9.82156 7.08 10.0429 6.96267 10.1656 6.728C10.2882 6.49333 10.3496 6.16267 10.3496 5.736V4.68C10.3496 4.25333 10.2882 3.92267 10.1656 3.688C10.0429 3.45333 9.82156 3.336 9.50156 3.336C9.18156 3.336 8.96023 3.45333 8.83756 3.688C8.7149 3.92267 8.65356 4.25333 8.65356 4.68V5.736C8.65356 6.16267 8.7149 6.49333 8.83756 6.728C8.96023 6.96267 9.18156 7.08 9.50156 7.08Z" fill="white"/>
<path d="M14.2984 8.096C13.5678 8.096 13.0264 7.84267 12.6744 7.336C12.3224 6.82933 12.1464 6.12 12.1464 5.208C12.1464 4.296 12.3224 3.58667 12.6744 3.08C13.0264 2.57333 13.5678 2.32 14.2984 2.32C15.0291 2.32 15.5704 2.57333 15.9224 3.08C16.2744 3.58667 16.4504 4.296 16.4504 5.208C16.4504 6.12 16.2744 6.82933 15.9224 7.336C15.5704 7.84267 15.0291 8.096 14.2984 8.096ZM14.2984 7.08C14.6184 7.08 14.8398 6.96267 14.9624 6.728C15.0851 6.49333 15.1464 6.16267 15.1464 5.736V4.68C15.1464 4.25333 15.0851 3.92267 14.9624 3.688C14.8398 3.45333 14.6184 3.336 14.2984 3.336C13.9784 3.336 13.7571 3.45333 13.6344 3.688C13.5118 3.92267 13.4504 4.25333 13.4504 4.68V5.736C13.4504 6.16267 13.5118 6.49333 13.6344 6.728C13.7571 6.96267 13.9784 7.08 14.2984 7.08Z" fill="white"/>
</g>
<defs>
<clipPath id="clip0_14270_25183">
<rect width="32" height="32" fill="white"/>
</clipPath>
</defs>
</svg>
