<svg width="32" height="32" viewBox="0 0 32 32" fill="none" xmlns="http://www.w3.org/2000/svg">
<g clip-path="url(#clip0_14270_25189)">
<path d="M6 23H3V26H6V23Z" fill="#FF444F"/>
<path d="M9 26H6V29H9V26Z" fill="#FF444F"/>
<path d="M3 20H0V23H3V20Z" fill="#FF444F"/>
<path d="M29 10H26V13H29V10Z" fill="#FF444F"/>
<path d="M26 7H23V10H26V7Z" fill="#FF444F"/>
<path d="M32 13H29V16H32V13Z" fill="#FF444F"/>
<path d="M23 4H20L11 29H9V32H12.5L21.5 7H23V4Z" fill="#0AA0B0"/>
<path d="M0 2C0 0.89543 0.895431 0 2 0H22C23.1046 0 24 0.895431 24 2V8C24 9.10457 23.1046 10 22 10H2C0.89543 10 0 9.10457 0 8V2Z" fill="#414652"/>
<path d="M3.15825 8V7.032H4.66225V3.288H4.59025L3.45425 4.776L2.68625 4.176L4.02225 2.416H5.86225V7.032H7.04625V8H3.15825Z" fill="white"/>
<path d="M11.3791 3.464H8.84313L8.72313 5.232H8.78712C8.84046 5.09867 8.89913 4.97867 8.96313 4.872C9.03246 4.76 9.11246 4.66667 9.20312 4.592C9.29379 4.512 9.40313 4.45067 9.53113 4.408C9.65913 4.36533 9.81113 4.344 9.98713 4.344C10.2271 4.344 10.4511 4.384 10.6591 4.464C10.8671 4.544 11.0485 4.66133 11.2031 4.816C11.3578 4.96533 11.4805 5.152 11.5711 5.376C11.6618 5.59467 11.7071 5.84267 11.7071 6.12C11.7071 6.40267 11.6591 6.66667 11.5631 6.912C11.4725 7.152 11.3338 7.36 11.1471 7.536C10.9658 7.712 10.7418 7.85067 10.4751 7.952C10.2085 8.048 9.90446 8.096 9.56313 8.096C9.29113 8.096 9.05113 8.06667 8.84313 8.008C8.63513 7.94933 8.45113 7.872 8.29113 7.776C8.13113 7.67467 7.99246 7.56 7.87512 7.432C7.75779 7.304 7.65646 7.168 7.57113 7.024L8.44312 6.336C8.56579 6.55467 8.71246 6.74133 8.88313 6.896C9.05379 7.04533 9.28313 7.12 9.57113 7.12C9.85913 7.12 10.0751 7.03733 10.2191 6.872C10.3685 6.70667 10.4431 6.488 10.4431 6.216V6.152C10.4431 5.896 10.3685 5.69333 10.2191 5.544C10.0698 5.39467 9.86446 5.32 9.60312 5.32C9.38446 5.32 9.20312 5.36533 9.05912 5.456C8.92046 5.54133 8.81379 5.62667 8.73913 5.712L7.75513 5.576L7.96313 2.416H11.3791V3.464Z" fill="white"/>
<path d="M14.4 8.096C13.6693 8.096 13.128 7.84267 12.776 7.336C12.424 6.82933 12.248 6.12 12.248 5.208C12.248 4.296 12.424 3.58667 12.776 3.08C13.128 2.57333 13.6693 2.32 14.4 2.32C15.1307 2.32 15.672 2.57333 16.024 3.08C16.376 3.58667 16.552 4.296 16.552 5.208C16.552 6.12 16.376 6.82933 16.024 7.336C15.672 7.84267 15.1307 8.096 14.4 8.096ZM14.4 7.08C14.72 7.08 14.9413 6.96267 15.064 6.728C15.1867 6.49333 15.248 6.16267 15.248 5.736V4.68C15.248 4.25333 15.1867 3.92267 15.064 3.688C14.9413 3.45333 14.72 3.336 14.4 3.336C14.08 3.336 13.8587 3.45333 13.736 3.688C13.6133 3.92267 13.552 4.25333 13.552 4.68V5.736C13.552 6.16267 13.6133 6.49333 13.736 6.728C13.8587 6.96267 14.08 7.08 14.4 7.08Z" fill="white"/>
<path d="M19.1969 8.096C18.4662 8.096 17.9249 7.84267 17.5729 7.336C17.2209 6.82933 17.0449 6.12 17.0449 5.208C17.0449 4.296 17.2209 3.58667 17.5729 3.08C17.9249 2.57333 18.4662 2.32 19.1969 2.32C19.9275 2.32 20.4689 2.57333 20.8209 3.08C21.1729 3.58667 21.3489 4.296 21.3489 5.208C21.3489 6.12 21.1729 6.82933 20.8209 7.336C20.4689 7.84267 19.9275 8.096 19.1969 8.096ZM19.1969 7.08C19.5169 7.08 19.7382 6.96267 19.8609 6.728C19.9835 6.49333 20.0449 6.16267 20.0449 5.736V4.68C20.0449 4.25333 19.9835 3.92267 19.8609 3.688C19.7382 3.45333 19.5169 3.336 19.1969 3.336C18.8769 3.336 18.6555 3.45333 18.5329 3.688C18.4102 3.92267 18.3489 4.25333 18.3489 4.68V5.736C18.3489 6.16267 18.4102 6.49333 18.5329 6.728C18.6555 6.96267 18.8769 7.08 19.1969 7.08Z" fill="white"/>
</g>
<defs>
<clipPath id="clip0_14270_25189">
<rect width="32" height="32" fill="white"/>
</clipPath>
</defs>
</svg>
