<svg width="32" height="32" viewBox="0 0 32 32" fill="none" xmlns="http://www.w3.org/2000/svg">
<g clip-path="url(#clip0_14270_25186)">
<path d="M26 22H29V19H26V22Z" fill="#0AA0B0"/>
<path d="M23 25H26V22H23V25Z" fill="#0AA0B0"/>
<path d="M29 19H32V16H29V19Z" fill="#0AA0B0"/>
<path d="M3 9H6V6H3V9Z" fill="#0AA0B0"/>
<path d="M6 6H9V3H6V6Z" fill="#0AA0B0"/>
<path d="M0 12H3V9H0V12Z" fill="#0AA0B0"/>
<path d="M21 25L12 0H9V3H10.6L19.6 28H23V25H21Z" fill="#FF444F"/>
<path d="M0 24C0 22.8954 0.895431 22 2 22H22C23.1046 22 24 22.8954 24 24V30C24 31.1046 23.1046 32 22 32H2C0.89543 32 0 31.1046 0 30V24Z" fill="#414652"/>
<path d="M3.15825 30V29.032H4.66225V25.288H4.59025L3.45425 26.776L2.68625 26.176L4.02225 24.416H5.86225V29.032H7.04625V30H3.15825Z" fill="white"/>
<path d="M11.3791 25.464H8.84313L8.72313 27.232H8.78712C8.84046 27.0987 8.89913 26.9787 8.96313 26.872C9.03246 26.76 9.11246 26.6667 9.20312 26.592C9.29379 26.512 9.40312 26.4507 9.53113 26.408C9.65913 26.3653 9.81113 26.344 9.98713 26.344C10.2271 26.344 10.4511 26.384 10.6591 26.464C10.8671 26.544 11.0485 26.6613 11.2031 26.816C11.3578 26.9653 11.4805 27.152 11.5711 27.376C11.6618 27.5947 11.7071 27.8427 11.7071 28.12C11.7071 28.4027 11.6591 28.6667 11.5631 28.912C11.4725 29.152 11.3338 29.36 11.1471 29.536C10.9658 29.712 10.7418 29.8507 10.4751 29.952C10.2085 30.048 9.90446 30.096 9.56313 30.096C9.29113 30.096 9.05113 30.0667 8.84313 30.008C8.63513 29.9493 8.45113 29.872 8.29113 29.776C8.13113 29.6747 7.99246 29.56 7.87512 29.432C7.75779 29.304 7.65646 29.168 7.57113 29.024L8.44312 28.336C8.56579 28.5547 8.71246 28.7413 8.88313 28.896C9.05379 29.0453 9.28312 29.12 9.57113 29.12C9.85913 29.12 10.0751 29.0373 10.2191 28.872C10.3685 28.7067 10.4431 28.488 10.4431 28.216V28.152C10.4431 27.896 10.3685 27.6933 10.2191 27.544C10.0698 27.3947 9.86446 27.32 9.60312 27.32C9.38446 27.32 9.20312 27.3653 9.05912 27.456C8.92046 27.5413 8.81379 27.6267 8.73913 27.712L7.75513 27.576L7.96313 24.416H11.3791V25.464Z" fill="white"/>
<path d="M14.4 30.096C13.6693 30.096 13.128 29.8427 12.776 29.336C12.424 28.8293 12.248 28.12 12.248 27.208C12.248 26.296 12.424 25.5867 12.776 25.08C13.128 24.5733 13.6693 24.32 14.4 24.32C15.1307 24.32 15.672 24.5733 16.024 25.08C16.376 25.5867 16.552 26.296 16.552 27.208C16.552 28.12 16.376 28.8293 16.024 29.336C15.672 29.8427 15.1307 30.096 14.4 30.096ZM14.4 29.08C14.72 29.08 14.9413 28.9627 15.064 28.728C15.1867 28.4933 15.248 28.1627 15.248 27.736V26.68C15.248 26.2533 15.1867 25.9227 15.064 25.688C14.9413 25.4533 14.72 25.336 14.4 25.336C14.08 25.336 13.8587 25.4533 13.736 25.688C13.6133 25.9227 13.552 26.2533 13.552 26.68V27.736C13.552 28.1627 13.6133 28.4933 13.736 28.728C13.8587 28.9627 14.08 29.08 14.4 29.08Z" fill="white"/>
<path d="M19.1969 30.096C18.4662 30.096 17.9249 29.8427 17.5729 29.336C17.2209 28.8293 17.0449 28.12 17.0449 27.208C17.0449 26.296 17.2209 25.5867 17.5729 25.08C17.9249 24.5733 18.4662 24.32 19.1969 24.32C19.9275 24.32 20.4689 24.5733 20.8209 25.08C21.1729 25.5867 21.3489 26.296 21.3489 27.208C21.3489 28.12 21.1729 28.8293 20.8209 29.336C20.4689 29.8427 19.9275 30.096 19.1969 30.096ZM19.1969 29.08C19.5169 29.08 19.7382 28.9627 19.8609 28.728C19.9835 28.4933 20.0449 28.1627 20.0449 27.736V26.68C20.0449 26.2533 19.9835 25.9227 19.8609 25.688C19.7382 25.4533 19.5169 25.336 19.1969 25.336C18.8769 25.336 18.6555 25.4533 18.5329 25.688C18.4102 25.9227 18.3489 26.2533 18.3489 26.68V27.736C18.3489 28.1627 18.4102 28.4933 18.5329 28.728C18.6555 28.9627 18.8769 29.08 19.1969 29.08Z" fill="white"/>
</g>
<defs>
<clipPath id="clip0_14270_25186">
<rect width="32" height="32" fill="white"/>
</clipPath>
</defs>
</svg>
