<svg width="32" height="32" viewBox="0 0 32 32" fill="none" xmlns="http://www.w3.org/2000/svg">
<g clip-path="url(#clip0_14270_25180)">
<path d="M26 22H29V19H26V22Z" fill="#0AA0B0"/>
<path d="M23 25H26V22H23V25Z" fill="#0AA0B0"/>
<path d="M29 19H32V16H29V19Z" fill="#0AA0B0"/>
<path d="M3 9H6V6H3V9Z" fill="#0AA0B0"/>
<path d="M6 6H9V3H6V6Z" fill="#0AA0B0"/>
<path d="M0 12H3V9H0V12Z" fill="#0AA0B0"/>
<path d="M21 25L12 0H9V3H10.6L19.6 28H23V25H21Z" fill="#FF444F"/>
<path d="M0 24C0 22.8954 0.895431 22 2 22H17C18.1046 22 19 22.8954 19 24V30C19 31.1046 18.1046 32 17 32H2C0.895431 32 0 31.1046 0 30V24Z" fill="#414652"/>
<path d="M6.76869 26.536C6.76869 26.9307 6.70735 27.3013 6.58469 27.648C6.46735 27.9947 6.31269 28.3173 6.12069 28.616C5.93402 28.9093 5.72069 29.1733 5.48069 29.408C5.24602 29.6427 5.00869 29.84 4.76869 30H3.11269C3.45402 29.7547 3.76069 29.5227 4.03269 29.304C4.30469 29.08 4.53935 28.856 4.73669 28.632C4.93935 28.408 5.10469 28.1813 5.23269 27.952C5.36069 27.7173 5.45402 27.4667 5.51269 27.2L5.44069 27.176C5.39269 27.2827 5.33402 27.3867 5.26469 27.488C5.20069 27.5893 5.11802 27.68 5.01669 27.76C4.92069 27.8347 4.80602 27.896 4.67269 27.944C4.53935 27.992 4.38469 28.016 4.20869 28.016C3.97935 28.016 3.76335 27.976 3.56069 27.896C3.36335 27.8107 3.19002 27.6933 3.04069 27.544C2.89669 27.3947 2.78202 27.2133 2.69669 27C2.61669 26.7867 2.57669 26.5467 2.57669 26.28C2.57669 25.992 2.62469 25.728 2.72069 25.488C2.82202 25.248 2.96335 25.0427 3.14469 24.872C3.33135 24.696 3.55269 24.56 3.80869 24.464C4.06469 24.368 4.35269 24.32 4.67269 24.32C5.00335 24.32 5.29935 24.3733 5.56069 24.48C5.82202 24.5813 6.04069 24.7307 6.21669 24.928C6.39802 25.12 6.53402 25.352 6.62469 25.624C6.72069 25.896 6.76869 26.2 6.76869 26.536ZM4.67269 27.096C4.93935 27.096 5.14735 27.024 5.29669 26.88C5.44602 26.7307 5.52069 26.52 5.52069 26.248V26.104C5.52069 25.832 5.44602 25.624 5.29669 25.48C5.14735 25.3307 4.93935 25.256 4.67269 25.256C4.40602 25.256 4.19802 25.3307 4.04869 25.48C3.89935 25.624 3.82469 25.832 3.82469 26.104V26.248C3.82469 26.52 3.89935 26.7307 4.04869 26.88C4.19802 27.024 4.40602 27.096 4.67269 27.096Z" fill="white"/>
<path d="M9.50156 30.096C8.7709 30.096 8.22956 29.8427 7.87756 29.336C7.52556 28.8293 7.34956 28.12 7.34956 27.208C7.34956 26.296 7.52556 25.5867 7.87756 25.08C8.22956 24.5733 8.7709 24.32 9.50156 24.32C10.2322 24.32 10.7736 24.5733 11.1256 25.08C11.4776 25.5867 11.6536 26.296 11.6536 27.208C11.6536 28.12 11.4776 28.8293 11.1256 29.336C10.7736 29.8427 10.2322 30.096 9.50156 30.096ZM9.50156 29.08C9.82156 29.08 10.0429 28.9627 10.1656 28.728C10.2882 28.4933 10.3496 28.1627 10.3496 27.736V26.68C10.3496 26.2533 10.2882 25.9227 10.1656 25.688C10.0429 25.4533 9.82156 25.336 9.50156 25.336C9.18156 25.336 8.96023 25.4533 8.83756 25.688C8.7149 25.9227 8.65356 26.2533 8.65356 26.68V27.736C8.65356 28.1627 8.7149 28.4933 8.83756 28.728C8.96023 28.9627 9.18156 29.08 9.50156 29.08Z" fill="white"/>
<path d="M14.2984 30.096C13.5678 30.096 13.0264 29.8427 12.6744 29.336C12.3224 28.8293 12.1464 28.12 12.1464 27.208C12.1464 26.296 12.3224 25.5867 12.6744 25.08C13.0264 24.5733 13.5678 24.32 14.2984 24.32C15.0291 24.32 15.5704 24.5733 15.9224 25.08C16.2744 25.5867 16.4504 26.296 16.4504 27.208C16.4504 28.12 16.2744 28.8293 15.9224 29.336C15.5704 29.8427 15.0291 30.096 14.2984 30.096ZM14.2984 29.08C14.6184 29.08 14.8398 28.9627 14.9624 28.728C15.0851 28.4933 15.1464 28.1627 15.1464 27.736V26.68C15.1464 26.2533 15.0851 25.9227 14.9624 25.688C14.8398 25.4533 14.6184 25.336 14.2984 25.336C13.9784 25.336 13.7571 25.4533 13.6344 25.688C13.5118 25.9227 13.4504 26.2533 13.4504 26.68V27.736C13.4504 28.1627 13.5118 28.4933 13.6344 28.728C13.7571 28.9627 13.9784 29.08 14.2984 29.08Z" fill="white"/>
</g>
<defs>
<clipPath id="clip0_14270_25180">
<rect width="32" height="32" fill="white"/>
</clipPath>
</defs>
</svg>
