<svg width="32" height="32" viewBox="0 0 32 32" fill="none" xmlns="http://www.w3.org/2000/svg">
<g clip-path="url(#clip0_8821_16950)">
<path d="M32 16C32 24.8366 24.8366 32 16 32C7.16344 32 0 24.8366 0 16C0 7.16344 7.16344 0 16 0C24.8366 0 32 7.16344 32 16Z" fill="#1942C8"/>
<path fill-rule="evenodd" clip-rule="evenodd" d="M22.4101 12.278C24.0799 13.6409 26.2419 15.9671 25.9779 18.6358C25.6497 20.7764 23.4091 22.3391 21.5111 22.8457C19.5351 23.3499 17.4666 23.3695 15.4815 22.9028C15.3531 23.2453 15.2246 23.6592 14.8322 23.8019C14.7023 23.8454 14.5639 23.857 14.4285 23.8359C14.2932 23.8148 14.1649 23.7616 14.0544 23.6806C13.4907 23.1526 13.9474 22.1393 13.1339 21.8182C11.392 21.1094 9.93929 19.8351 9.00955 18.2005C8.97131 18.0511 8.96949 17.8947 9.00426 17.7444C9.03903 17.5942 9.10936 17.4545 9.20934 17.3371C10.5147 16.4272 12.0199 15.8447 13.5977 15.6388C13.6905 15.6388 13.6548 15.5461 13.7262 15.5104C13.7449 14.4383 13.9032 13.3733 14.1971 12.3422C14.2369 12.2779 14.3006 12.232 14.3741 12.2146C14.4477 12.1972 14.5252 12.2098 14.5896 12.2494C15.5885 13.0129 15.1176 14.44 15.5457 15.4676C17.4438 15.5603 19.3418 15.6459 20.8403 16.7163C21.065 16.9227 21.228 17.1874 21.3111 17.4809C21.3943 17.7745 21.3943 18.0853 21.3113 18.3789C21.2083 18.6078 21.045 18.8045 20.8389 18.9478C20.6327 19.0911 20.3915 19.1756 20.141 19.1923C19.8128 19.1923 19.1991 19.1923 19.2348 18.9711C19.2705 18.7499 20.3408 18.3147 20.0126 17.9793C19.5416 17.4941 17.1584 17.2015 15.7313 17.0231C15.5457 16.9874 15.3816 17.0231 15.3816 17.2372C15.2763 18.6402 15.3074 20.0501 15.4744 21.4472C15.4885 21.4983 15.5156 21.5449 15.5532 21.5824C15.5907 21.62 15.6373 21.6471 15.6884 21.6612C18.2715 22.0822 21.0044 21.8468 23.0238 20.3626C23.4622 20.0047 23.7938 19.5332 23.9826 18.9997C24.1713 18.4662 24.2099 17.891 24.0941 17.3371C23.2807 14.069 19.8699 12.0996 17.0656 10.8294C14.2426 9.58894 11.1683 9.02687 8.08906 9.18826C7.5753 9.18826 6.75471 9.40233 6.75471 9.58785C6.75471 9.77338 7.6752 9.70916 7.56103 10.0588C7.44686 10.4084 6.50496 10.2015 6.22667 10.1087C5.94839 10.016 5.97693 9.62353 6.04829 9.39519C6.76184 8.1536 8.71699 8.05371 9.61607 8.00376C14.2445 7.91421 18.7617 9.42665 22.403 12.2851L22.4101 12.278ZM13.5406 17.123C12.2775 17.1022 11.0202 17.2977 9.823 17.701C9.58753 17.7866 9.3021 18.0435 9.48049 18.3503C9.96636 18.9649 10.5675 19.4787 11.2501 19.8631C11.9264 20.3093 12.6784 20.6285 13.4693 20.805C13.6295 19.6229 13.6844 18.429 13.6334 17.2372C13.562 17.2372 13.6334 17.1301 13.5406 17.0945V17.123Z" fill="white"/>
</g>
<defs>
<clipPath id="clip0_8821_16950">
<rect width="32" height="32" fill="white"/>
</clipPath>
</defs>
</svg>
