<svg width="32" height="32" viewBox="0 0 32 32" fill="none" xmlns="http://www.w3.org/2000/svg">
<path d="M2 10.4H0V17.3H2V10.4Z" fill="#FF444F"/>
<path d="M5.8 14.8H3.8V25.7H5.8V14.8Z" fill="#FF444F"/>
<path d="M9.5 21.5H7.5V28.1H9.5V21.5Z" fill="#FF444F"/>
<path d="M13.2 24.5H11.2V29.7H13.2V24.5Z" fill="#414652"/>
<path d="M17 25.1H15V28.7H17V25.1Z" fill="#414652"/>
<path d="M20.8 24.5H18.8V29.7H20.8V24.5Z" fill="#414652"/>
<path d="M32 10.4H30V17.3H32V10.4Z" fill="#0AA0B0"/>
<path d="M28.2 14.8H26.2V25.7H28.2V14.8Z" fill="#0AA0B0"/>
<path d="M24.5 21.5H22.5V28.1H24.5V21.5Z" fill="#0AA0B0"/>
<path d="M5 5C5 3.89543 5.89543 3 7 3H25C26.1046 3 27 3.89543 27 5V11C27 12.1046 26.1046 13 25 13H7C5.89543 13 5 12.1046 5 11V5Z" fill="#414652"/>
<path d="M7.95512 11V10.032H9.45913V6.288H9.38713L8.25113 7.776L7.48312 7.176L8.81913 5.416H10.6591V10.032H11.8431V11H7.95512Z" fill="white"/>
<path d="M14.4 11.096C13.6693 11.096 13.128 10.8427 12.776 10.336C12.424 9.82933 12.248 9.12 12.248 8.208C12.248 7.296 12.424 6.58667 12.776 6.08C13.128 5.57333 13.6693 5.32 14.4 5.32C15.1307 5.32 15.672 5.57333 16.024 6.08C16.376 6.58667 16.552 7.296 16.552 8.208C16.552 9.12 16.376 9.82933 16.024 10.336C15.672 10.8427 15.1307 11.096 14.4 11.096ZM14.4 10.08C14.72 10.08 14.9413 9.96267 15.064 9.728C15.1867 9.49333 15.248 9.16267 15.248 8.736V7.68C15.248 7.25333 15.1867 6.92267 15.064 6.688C14.9413 6.45333 14.72 6.336 14.4 6.336C14.08 6.336 13.8587 6.45333 13.736 6.688C13.6133 6.92267 13.552 7.25333 13.552 7.68V8.736C13.552 9.16267 13.6133 9.49333 13.736 9.728C13.8587 9.96267 14.08 10.08 14.4 10.08Z" fill="white"/>
<path d="M17.9778 11V6.8H19.1618V7.512H19.2098C19.2844 7.288 19.4124 7.09867 19.5938 6.944C19.7751 6.784 20.0231 6.704 20.3378 6.704C20.6258 6.704 20.8711 6.776 21.0738 6.92C21.2764 7.064 21.4231 7.27467 21.5138 7.552H21.5378C21.5751 7.43467 21.6311 7.32533 21.7058 7.224C21.7858 7.11733 21.8818 7.02667 21.9938 6.952C22.1058 6.87733 22.2311 6.81867 22.3698 6.776C22.5084 6.728 22.6578 6.704 22.8178 6.704C23.2231 6.704 23.5324 6.848 23.7458 7.136C23.9644 7.424 24.0738 7.83467 24.0738 8.368V11H22.8898V8.464C22.8898 7.93067 22.6978 7.664 22.3138 7.664C22.1378 7.664 21.9778 7.71467 21.8338 7.816C21.6898 7.91733 21.6178 8.072 21.6178 8.28V11H20.4338V8.464C20.4338 7.93067 20.2418 7.664 19.8578 7.664C19.7724 7.664 19.6871 7.67733 19.6018 7.704C19.5218 7.72533 19.4471 7.76267 19.3778 7.816C19.3138 7.86933 19.2604 7.936 19.2178 8.016C19.1804 8.09067 19.1618 8.17867 19.1618 8.28V11H17.9778Z" fill="white"/>
</svg>
