<svg width="32" height="32" viewBox="0 0 32 32" fill="none" xmlns="http://www.w3.org/2000/svg">
<path d="M2 10.4H0V17.3H2V10.4Z" fill="#FF444F"/>
<path d="M5.8 14.8H3.8V25.7H5.8V14.8Z" fill="#FF444F"/>
<path d="M9.5 21.5H7.5V28.1H9.5V21.5Z" fill="#FF444F"/>
<path d="M13.2 24.5H11.2V29.7H13.2V24.5Z" fill="#414652"/>
<path d="M17 25.1H15V28.7H17V25.1Z" fill="#414652"/>
<path d="M20.8 24.5H18.8V29.7H20.8V24.5Z" fill="#414652"/>
<path d="M32 10.4H30V17.3H32V10.4Z" fill="#0AA0B0"/>
<path d="M28.2 14.8H26.2V25.7H28.2V14.8Z" fill="#0AA0B0"/>
<path d="M24.5 21.5H22.5V28.1H24.5V21.5Z" fill="#0AA0B0"/>
<path d="M5 5C5 3.89543 5.89543 3 7 3H25C26.1046 3 27 3.89543 27 5V11C27 12.1046 26.1046 13 25 13H7C5.89543 13 5 12.1046 5 11V5Z" fill="#414652"/>
<path d="M9.29913 7.624C9.59779 7.624 9.81379 7.568 9.94713 7.456C10.0858 7.33867 10.1551 7.19467 10.1551 7.024V6.968C10.1551 6.76533 10.0885 6.60267 9.95512 6.48C9.82713 6.35733 9.64313 6.296 9.40312 6.296C9.17912 6.296 8.96846 6.35467 8.77112 6.472C8.57379 6.584 8.40579 6.74667 8.26713 6.96L7.51513 6.256C7.62179 6.11733 7.73646 5.992 7.85913 5.88C7.98179 5.76267 8.12046 5.664 8.27513 5.584C8.42979 5.49867 8.60312 5.43467 8.79513 5.392C8.98712 5.344 9.20312 5.32 9.44312 5.32C9.74179 5.32 10.0111 5.35467 10.2511 5.424C10.4965 5.49333 10.7045 5.59467 10.8751 5.728C11.0511 5.856 11.1845 6.01067 11.2751 6.192C11.3711 6.37333 11.4191 6.576 11.4191 6.8C11.4191 6.976 11.3898 7.136 11.3311 7.28C11.2778 7.424 11.2005 7.54933 11.0991 7.656C11.0031 7.76267 10.8911 7.85067 10.7631 7.92C10.6351 7.984 10.4991 8.02933 10.3551 8.056V8.104C10.5205 8.136 10.6725 8.18933 10.8111 8.264C10.9551 8.33333 11.0778 8.424 11.1791 8.536C11.2858 8.648 11.3685 8.78133 11.4271 8.936C11.4858 9.08533 11.5151 9.256 11.5151 9.448C11.5151 9.69867 11.4645 9.92533 11.3631 10.128C11.2618 10.3307 11.1178 10.504 10.9311 10.648C10.7445 10.792 10.5205 10.904 10.2591 10.984C9.99779 11.0587 9.70979 11.096 9.39513 11.096C9.11246 11.096 8.86179 11.0667 8.64313 11.008C8.42446 10.9493 8.23246 10.872 8.06713 10.776C7.90713 10.6747 7.76579 10.56 7.64313 10.432C7.52579 10.304 7.42179 10.168 7.33113 10.024L8.21912 9.336C8.34179 9.56533 8.49113 9.75467 8.66713 9.904C8.84846 10.048 9.09113 10.12 9.39513 10.12C9.66713 10.12 9.87779 10.0533 10.0271 9.92C10.1818 9.78133 10.2591 9.59467 10.2591 9.36V9.312C10.2591 9.08267 10.1711 8.912 9.99512 8.8C9.82446 8.68267 9.58712 8.624 9.28312 8.624H8.77913V7.624H9.29913Z" fill="white"/>
<path d="M14.4 11.096C13.6693 11.096 13.128 10.8427 12.776 10.336C12.424 9.82933 12.248 9.12 12.248 8.208C12.248 7.296 12.424 6.58667 12.776 6.08C13.128 5.57333 13.6693 5.32 14.4 5.32C15.1307 5.32 15.672 5.57333 16.024 6.08C16.376 6.58667 16.552 7.296 16.552 8.208C16.552 9.12 16.376 9.82933 16.024 10.336C15.672 10.8427 15.1307 11.096 14.4 11.096ZM14.4 10.08C14.72 10.08 14.9413 9.96267 15.064 9.728C15.1867 9.49333 15.248 9.16267 15.248 8.736V7.68C15.248 7.25333 15.1867 6.92267 15.064 6.688C14.9413 6.45333 14.72 6.336 14.4 6.336C14.08 6.336 13.8587 6.45333 13.736 6.688C13.6133 6.92267 13.552 7.25333 13.552 7.68V8.736C13.552 9.16267 13.6133 9.49333 13.736 9.728C13.8587 9.96267 14.08 10.08 14.4 10.08Z" fill="white"/>
<path d="M17.9778 11V6.8H19.1618V7.512H19.2098C19.2844 7.288 19.4124 7.09867 19.5938 6.944C19.7751 6.784 20.0231 6.704 20.3378 6.704C20.6258 6.704 20.8711 6.776 21.0738 6.92C21.2764 7.064 21.4231 7.27467 21.5138 7.552H21.5378C21.5751 7.43467 21.6311 7.32533 21.7058 7.224C21.7858 7.11733 21.8818 7.02667 21.9938 6.952C22.1058 6.87733 22.2311 6.81867 22.3698 6.776C22.5084 6.728 22.6578 6.704 22.8178 6.704C23.2231 6.704 23.5324 6.848 23.7458 7.136C23.9644 7.424 24.0738 7.83467 24.0738 8.368V11H22.8898V8.464C22.8898 7.93067 22.6978 7.664 22.3138 7.664C22.1378 7.664 21.9778 7.71467 21.8338 7.816C21.6898 7.91733 21.6178 8.072 21.6178 8.28V11H20.4338V8.464C20.4338 7.93067 20.2418 7.664 19.8578 7.664C19.7724 7.664 19.6871 7.67733 19.6018 7.704C19.5218 7.72533 19.4471 7.76267 19.3778 7.816C19.3138 7.86933 19.2604 7.936 19.2178 8.016C19.1804 8.09067 19.1618 8.17867 19.1618 8.28V11H17.9778Z" fill="white"/>
</svg>
