<svg width="32" height="32" viewBox="0 0 32 32" fill="none" xmlns="http://www.w3.org/2000/svg">
<g clip-path="url(#clip0_8821_16953)">
<path d="M32 16C32 24.8366 24.8366 32 16 32C7.16344 32 0 24.8366 0 16C0 7.16344 7.16344 0 16 0C24.8366 0 32 7.16344 32 16Z" fill="#F6F7F8"/>
<path d="M7.105 13.1C5.41 13.1 4 13.8125 4 15.98C4 17.6975 4.945 18.8075 7.15 18.8075C9.73749 18.8075 9.90249 17.105 9.90249 17.105H8.64999C8.5239 17.4106 8.3004 17.6659 8.01423 17.8314C7.72805 17.9969 7.39523 18.0632 7.0675 18.02C6.83204 18.0354 6.59592 18.0022 6.37386 17.9224C6.15181 17.8425 5.9486 17.7178 5.77689 17.556C5.60518 17.3941 5.46867 17.1986 5.37587 16.9816C5.28306 16.7647 5.23596 16.5309 5.2375 16.295H9.99999V15.665C9.99999 14.6375 9.39999 13.1 7.105 13.1ZM7.06 13.9025C7.27635 13.8803 7.49496 13.9041 7.70151 13.9722C7.90806 14.0403 8.09789 14.1513 8.2586 14.2978C8.41931 14.4444 8.54727 14.6232 8.6341 14.8226C8.72093 15.022 8.76468 15.2375 8.76249 15.455H5.2675C5.28172 15.2348 5.33957 15.0196 5.43768 14.822C5.53578 14.6244 5.67219 14.4482 5.83898 14.3038C6.00576 14.1593 6.19959 14.0494 6.40921 13.9806C6.61882 13.9117 6.84004 13.8851 7.06 13.9025Z" fill="#E53338"/>
<path d="M9.99999 11V17.69C9.99999 18.0725 9.99999 18.605 9.99999 18.605H11.2C11.2278 18.3559 11.2428 18.1056 11.245 17.855C11.5053 18.1816 11.8418 18.4392 12.225 18.6053C12.6081 18.7714 13.0262 18.8408 13.4425 18.8075C13.8219 18.8259 14.201 18.7644 14.5552 18.6271C14.9094 18.4898 15.2308 18.2797 15.4987 18.0104C15.7666 17.7411 15.9751 17.4185 16.1105 17.0636C16.2459 16.7087 16.3054 16.3293 16.285 15.95C16.3023 15.5731 16.2404 15.1968 16.1034 14.8454C15.9664 14.4939 15.7572 14.175 15.4894 13.9093C15.2216 13.6436 14.9011 13.437 14.5485 13.3028C14.196 13.1685 13.8192 13.1097 13.4425 13.13C11.77 13.13 11.2525 14.03 11.2525 14.03V11.03L9.99999 11ZM13.105 13.94C13.3632 13.935 13.6197 13.9842 13.8578 14.0842C14.096 14.1842 14.3106 14.3329 14.4879 14.5208C14.6651 14.7086 14.8012 14.9315 14.8872 15.1751C14.9732 15.4186 15.0074 15.6775 14.9875 15.935C15.0212 16.2011 14.9979 16.4714 14.9191 16.7278C14.8403 16.9842 14.7078 17.221 14.5304 17.4222C14.3531 17.6235 14.1349 17.7847 13.8904 17.8951C13.6459 18.0055 13.3807 18.0626 13.1125 18.0626C12.8442 18.0626 12.579 18.0055 12.3346 17.8951C12.0901 17.7847 11.8719 17.6235 11.6945 17.4222C11.5172 17.221 11.3847 16.9842 11.3059 16.7278C11.2271 16.4714 11.2038 16.2011 11.2375 15.935C11.2186 15.6764 11.254 15.4168 11.3413 15.1727C11.4287 14.9286 11.5661 14.7055 11.7448 14.5176C11.9235 14.3298 12.1394 14.1814 12.3788 14.0819C12.6183 13.9824 12.8758 13.9341 13.135 13.94H13.105Z" fill="#3466B1"/>
<path d="M19.255 13.1C16.705 13.1 16.54 14.495 16.54 14.7125H17.8075C17.8075 14.7125 17.875 13.9025 19.165 13.9025C20.005 13.9025 20.665 14.285 20.665 15.02V15.2825H19.165C17.1925 15.2825 16.165 15.86 16.165 17.03C16.165 18.2 17.1325 18.8075 18.415 18.8075C20.1925 18.8075 20.7625 17.8325 20.7625 17.8325C20.7625 18.2225 20.7625 18.5825 20.7625 18.5825H21.8875C21.8875 18.5825 21.85 18.1025 21.85 17.8325V15.185C21.85 13.46 20.455 13.1 19.225 13.1H19.255ZM20.65 16.4525C20.65 16.9025 20.3725 18.0425 18.715 18.0425C17.8075 18.0425 17.4175 17.585 17.4175 17.06C17.4175 16.0775 18.73 16.07 20.65 16.07V16.4525Z" fill="#F3AF1C"/>
<path d="M21.19 13.3175H22.6225L24.67 17.4125L26.71 13.3175H28L24.25 20.615H22.9225L24.0025 18.5825L21.19 13.3325V13.3175Z" fill="#86B940"/>
</g>
<defs>
<clipPath id="clip0_8821_16953">
<rect width="32" height="32" fill="white"/>
</clipPath>
</defs>
</svg>
