<svg width="32" height="32" viewBox="0 0 32 32" fill="none" xmlns="http://www.w3.org/2000/svg">
<path d="M22 4H2C0.89543 4 0 4.89543 0 6V18C0 19.1046 0.89543 20 2 20H22C23.1046 20 24 19.1046 24 18V6C24 4.89543 23.1046 4 22 4Z" fill="#0D47A1"/>
<path d="M12.0671 16.6713L12.233 17.1766L12.7574 17.1808C12.8253 17.1813 12.8534 17.2693 12.7988 17.3103L12.3769 17.6268L12.5351 18.1347C12.5556 18.2004 12.4819 18.2549 12.4266 18.2147L12 17.9049L11.5734 18.2147C11.5182 18.2548 11.4445 18.2004 11.4649 18.1347L11.6231 17.6268L11.2012 17.3103C11.1466 17.2693 11.1747 17.1813 11.2427 17.1808L11.7671 17.1766L11.933 16.6713C11.9544 16.6058 12.0456 16.6058 12.0671 16.6713ZM9.48298 15.8239L9.64891 16.3293L10.1733 16.3334C10.2412 16.334 10.2694 16.422 10.2147 16.463L9.79287 16.7794L9.95102 17.2874C9.97151 17.3531 9.89782 17.4075 9.84255 17.3674L9.41595 17.0576L8.98934 17.3674C8.93412 17.4075 8.86038 17.3531 8.88087 17.2874L9.03902 16.7794L8.61715 16.463C8.56254 16.422 8.59066 16.334 8.65859 16.3334L9.18298 16.3294L9.34891 15.824C9.37038 15.7584 9.46155 15.7584 9.48298 15.8239ZM14.6894 15.8239C14.7109 15.7584 14.802 15.7584 14.8235 15.824L14.9894 16.3294L15.5138 16.3334C15.5817 16.334 15.6099 16.422 15.5553 16.463L15.1334 16.7794L15.2915 17.2874C15.312 17.3531 15.2383 17.4075 15.1831 17.3674L14.7565 17.0576L14.3299 17.3674C14.2746 17.4075 14.2009 17.3531 14.2214 17.2874L14.3795 16.7794L13.9577 16.463C13.9031 16.422 13.9312 16.334 13.9991 16.3334L14.5235 16.3293L14.6894 15.8239ZM16.7783 13.8381L16.9442 14.3434L17.4686 14.3476C17.5365 14.3481 17.5646 14.4361 17.51 14.4771L17.0882 14.7936L17.2463 15.3015C17.2668 15.3673 17.1931 15.4217 17.1379 15.3815L16.7112 15.0717L16.2846 15.3815C16.2294 15.4216 16.1557 15.3673 16.1762 15.3015L16.3343 14.7936L15.9124 14.4771C15.8578 14.4361 15.886 14.3481 15.9539 14.3476L16.4783 14.3434L16.6442 13.8381C16.6657 13.7727 16.7568 13.7727 16.7783 13.8381ZM7.5081 13.8067L7.52824 13.8381L7.69418 14.3434L8.21857 14.3476C8.27291 14.348 8.30178 14.4044 8.28319 14.4479L8.26001 14.4771L7.83813 14.7936L7.99629 15.3015C8.01268 15.3541 7.96876 15.3994 7.92227 15.3949L7.88782 15.3815L7.46121 15.0717L7.0346 15.3815C6.99039 15.4137 6.93439 15.3853 6.92424 15.3389L6.92613 15.3015L7.08429 14.7936L6.66241 14.4771C6.61873 14.4443 6.62799 14.3814 6.66822 14.3573L6.70385 14.3476L7.22824 14.3434L7.39418 13.8381C7.41135 13.7858 7.47308 13.7753 7.5081 13.8067ZM17.4076 11.2459L17.5735 11.7513L18.0979 11.7554C18.1658 11.756 18.1939 11.844 18.1393 11.885L17.7175 12.2014L17.8756 12.7094C17.8961 12.7751 17.8224 12.8295 17.7671 12.7894L17.3405 12.4796L16.9139 12.7894C16.8587 12.8295 16.785 12.7751 16.8055 12.7094L16.9636 12.2014L16.5417 11.885C16.4871 11.844 16.5153 11.756 16.5832 11.7554L17.1076 11.7513L17.2735 11.2459C17.2949 11.1805 17.3861 11.1805 17.4076 11.2459ZM6.72649 11.2459L6.89243 11.7513L7.41682 11.7554C7.48474 11.756 7.51287 11.844 7.45826 11.885L7.03638 12.2014L7.19454 12.7094C7.21502 12.7751 7.14134 12.8295 7.08607 12.7894L6.65946 12.4796L6.23285 12.7894C6.17763 12.8295 6.1039 12.7751 6.12438 12.7094L6.28254 12.2014L5.86066 11.885C5.80605 11.844 5.83418 11.756 5.9021 11.7554L6.42649 11.7513L6.59243 11.2459C6.6139 11.1805 6.70507 11.1805 6.72649 11.2459ZM7.52824 8.41278L7.69418 8.91816L8.21857 8.9223C8.28649 8.92283 8.31462 9.01083 8.26001 9.05183L7.83813 9.3683L7.99629 9.87621C8.01677 9.94192 7.94309 9.9964 7.88782 9.95626L7.46121 9.64645L7.0346 9.95626C6.97938 9.99635 6.90565 9.94197 6.92613 9.87621L7.08429 9.3683L6.66241 9.05183C6.6078 9.01083 6.63593 8.92283 6.70385 8.9223L7.22824 8.91816L7.39418 8.41278C7.41565 8.34735 7.50673 8.34735 7.52824 8.41278ZM16.7581 8.38137L16.7783 8.41278L16.9442 8.91816L17.4686 8.9223C17.5229 8.92272 17.5518 8.97913 17.5332 9.02266L17.51 9.05183L17.0882 9.3683L17.2463 9.87621C17.2627 9.92882 17.2188 9.97414 17.1723 9.96964L17.1379 9.95626L16.7112 9.64645L16.2846 9.95626C16.2404 9.98837 16.1844 9.95993 16.1743 9.91362L16.1762 9.87621L16.3343 9.3683L15.9124 9.05183C15.8688 9.01903 15.878 8.95615 15.9182 8.93204L15.9539 8.9223L16.4783 8.91816L16.6442 8.41278C16.6614 8.36044 16.7231 8.34997 16.7581 8.38137ZM14.8235 6.42697L14.9895 6.93235L15.5139 6.93649C15.5818 6.93702 15.6099 7.02502 15.5553 7.06602L15.1334 7.38249L15.2916 7.8904C15.3121 7.95611 15.2384 8.01059 15.1831 7.97045L14.7565 7.66064L14.3299 7.97045C14.2746 8.01054 14.2009 7.95616 14.2214 7.8904L14.3795 7.38249L13.9577 7.06602C13.9031 7.02502 13.9312 6.93702 13.9991 6.93649L14.5235 6.93235L14.6894 6.42697C14.7109 6.36159 14.802 6.36159 14.8235 6.42697ZM9.46283 6.39559L9.48298 6.42697L9.64891 6.93235L10.1733 6.93649C10.2276 6.93691 10.2565 6.99332 10.2379 7.03685L10.2147 7.06602L9.79287 7.38249L9.95102 7.8904C9.96741 7.94301 9.9235 7.98833 9.87701 7.98383L9.84255 7.97045L9.41595 7.66064L8.98934 7.97045C8.94512 8.00256 8.88912 7.97412 8.87898 7.92781L8.88087 7.8904L9.03902 7.38249L8.61715 7.06602C8.57346 7.03322 8.58272 6.97034 8.62295 6.94623L8.65859 6.93649L9.18298 6.93235L9.34891 6.42697C9.36609 6.37467 9.42781 6.36421 9.46283 6.39559ZM12.0671 5.82064L12.233 6.32602L12.7574 6.33016C12.8253 6.33069 12.8534 6.41869 12.7988 6.45969L12.3769 6.77616L12.5351 7.28407C12.5556 7.34978 12.4819 7.40426 12.4266 7.36411L12 7.0543L11.5734 7.36411C11.5182 7.40421 11.4445 7.34983 11.4649 7.28407L11.6231 6.77616L11.2012 6.45969C11.1466 6.41869 11.1747 6.33069 11.2427 6.33016L11.7671 6.32602L11.933 5.82064C11.9544 5.75521 12.0456 5.75521 12.0671 5.82064Z" fill="#FFD955"/>
<path fill-rule="evenodd" clip-rule="evenodd" d="M22 5H2C1.44772 5 1 5.44772 1 6V18C1 18.5523 1.44772 19 2 19H22C22.5523 19 23 18.5523 23 18V6C23 5.44771 22.5523 5 22 5ZM2 4C0.89543 4 0 4.89543 0 6V18C0 19.1046 0.89543 20 2 20H22C23.1046 20 24 19.1046 24 18V6C24 4.89543 23.1046 4 22 4H2Z" fill="black" fill-opacity="0.08"/>
<path fill-rule="evenodd" clip-rule="evenodd" d="M14 12H26V28H14V12ZM20.6732 16.3408L20.0012 15.0612V15.0593L20.0007 15.0603L20.0012 15.0612L19.3281 16.3408C19.2372 16.514 19.0403 16.6002 18.8539 16.5484L18.2157 16.3711L18.6326 18.8334C18.6678 19.0419 18.41 19.1648 18.2747 19.004L17.2986 17.8435L17.199 18.3007C17.1473 18.5379 16.9091 18.6813 16.6794 18.6135L15.6399 18.3062L15.8232 19.7025C15.8466 19.8804 15.7561 20.0538 15.5981 20.1341L15.0347 20.4202L17.4901 21.8456C17.7445 21.9933 17.856 22.3064 17.7533 22.5851L17.5435 23.1555L19.6475 22.973C19.7638 22.9629 19.8629 23.0581 19.8595 23.1768L19.7932 25.4646H20.207L20.1406 23.1767C20.1372 23.058 20.2363 22.9628 20.3528 22.9729L22.4578 23.1555L22.2478 22.5851C22.1453 22.3064 22.2567 21.9932 22.5111 21.8456L24.9666 20.4202L24.4031 20.134C24.2451 20.0538 24.1547 19.8804 24.178 19.7025L24.3613 18.3062L23.3218 18.6134C23.0922 18.6813 22.8539 18.5378 22.8021 18.3006L22.7026 17.8435L21.7266 19.004C21.5913 19.1648 21.3335 19.042 21.3688 18.8334L21.7856 16.3711L21.1475 16.5484C20.9609 16.6002 20.7642 16.514 20.6732 16.3408Z" fill="white"/>
<path d="M26 12H30C31.1046 12 32 12.8954 32 14V26C32 27.1046 31.1046 28 30 28H26V12Z" fill="#F44336"/>
<path d="M10 12H14V28H10C8.89543 28 8 27.1046 8 26V14C8 12.8954 8.89543 12 10 12Z" fill="#F44336"/>
<path d="M20.0012 15.0593V15.0612L20.6732 16.3408C20.7642 16.514 20.9609 16.6002 21.1475 16.5484L21.7856 16.3711L21.3688 18.8334C21.3335 19.042 21.5913 19.1648 21.7266 19.004L22.7026 17.8435L22.8021 18.3006C22.8539 18.5378 23.0922 18.6813 23.3218 18.6134L24.3613 18.3062L24.178 19.7025C24.1547 19.8804 24.2451 20.0538 24.4031 20.134L24.9666 20.4202L22.5111 21.8456C22.2567 21.9932 22.1453 22.3064 22.2478 22.5851L22.4578 23.1555L20.3528 22.9729C20.2363 22.9628 20.1372 23.058 20.1406 23.1767L20.207 25.4646H19.7932L19.8595 23.1768C19.8629 23.0581 19.7638 22.9629 19.6475 22.973L17.5435 23.1555L17.7533 22.5851C17.856 22.3064 17.7445 21.9933 17.4901 21.8456L15.0347 20.4202L15.5981 20.1341C15.7561 20.0538 15.8466 19.8804 15.8232 19.7025L15.6399 18.3062L16.6794 18.6135C16.9091 18.6813 17.1473 18.5379 17.199 18.3007L17.2986 17.8435L18.2747 19.004C18.41 19.1648 18.6678 19.0419 18.6326 18.8334L18.2157 16.3711L18.8539 16.5484C19.0403 16.6002 19.2372 16.514 19.3281 16.3408L20.0001 15.0612L20.0007 15.0603L20.0012 15.0593Z" fill="#F44336"/>
<path fill-rule="evenodd" clip-rule="evenodd" d="M30 13H10C9.44772 13 9 13.4477 9 14V26C9 26.5523 9.44772 27 10 27H30C30.5523 27 31 26.5523 31 26V14C31 13.4477 30.5523 13 30 13ZM10 12C8.89543 12 8 12.8954 8 14V26C8 27.1046 8.89543 28 10 28H30C31.1046 28 32 27.1046 32 26V14C32 12.8954 31.1046 12 30 12H10Z" fill="black" fill-opacity="0.08"/>
</svg>
