<svg width="32" height="32" viewBox="0 0 32 32" fill="none" xmlns="http://www.w3.org/2000/svg">
<path d="M22 4H2C0.89543 4 0 4.89543 0 6V18C0 19.1046 0.89543 20 2 20H22C23.1046 20 24 19.1046 24 18V6C24 4.89543 23.1046 4 22 4Z" fill="#0D47A1"/>
<path d="M12.0671 16.6713L12.233 17.1766L12.7574 17.1808C12.8253 17.1813 12.8534 17.2693 12.7988 17.3103L12.3769 17.6268L12.5351 18.1347C12.5556 18.2004 12.4819 18.2549 12.4266 18.2147L12 17.9049L11.5734 18.2147C11.5182 18.2548 11.4445 18.2004 11.4649 18.1347L11.6231 17.6268L11.2012 17.3103C11.1466 17.2693 11.1747 17.1813 11.2427 17.1808L11.7671 17.1766L11.933 16.6713C11.9544 16.6058 12.0456 16.6058 12.0671 16.6713ZM9.48298 15.8239L9.64891 16.3293L10.1733 16.3334C10.2412 16.334 10.2694 16.422 10.2147 16.463L9.79287 16.7794L9.95102 17.2874C9.97151 17.3531 9.89782 17.4075 9.84255 17.3674L9.41595 17.0576L8.98934 17.3674C8.93412 17.4075 8.86038 17.3531 8.88087 17.2874L9.03902 16.7794L8.61715 16.463C8.56254 16.422 8.59066 16.334 8.65859 16.3334L9.18298 16.3294L9.34891 15.824C9.37038 15.7584 9.46155 15.7584 9.48298 15.8239ZM14.6894 15.8239C14.7109 15.7584 14.802 15.7584 14.8235 15.824L14.9894 16.3294L15.5138 16.3334C15.5817 16.334 15.6099 16.422 15.5553 16.463L15.1334 16.7794L15.2915 17.2874C15.312 17.3531 15.2383 17.4075 15.1831 17.3674L14.7565 17.0576L14.3299 17.3674C14.2746 17.4075 14.2009 17.3531 14.2214 17.2874L14.3795 16.7794L13.9577 16.463C13.9031 16.422 13.9312 16.334 13.9991 16.3334L14.5235 16.3293L14.6894 15.8239ZM16.7783 13.8381L16.9442 14.3434L17.4686 14.3476C17.5365 14.3481 17.5646 14.4361 17.51 14.4771L17.0882 14.7936L17.2463 15.3015C17.2668 15.3673 17.1931 15.4217 17.1379 15.3815L16.7112 15.0717L16.2846 15.3815C16.2294 15.4216 16.1557 15.3673 16.1762 15.3015L16.3343 14.7936L15.9124 14.4771C15.8578 14.4361 15.886 14.3481 15.9539 14.3476L16.4783 14.3434L16.6442 13.8381C16.6657 13.7727 16.7568 13.7727 16.7783 13.8381ZM7.5081 13.8067L7.52824 13.8381L7.69418 14.3434L8.21857 14.3476C8.27291 14.348 8.30178 14.4044 8.28319 14.4479L8.26001 14.4771L7.83813 14.7936L7.99629 15.3015C8.01268 15.3541 7.96876 15.3994 7.92227 15.3949L7.88782 15.3815L7.46121 15.0717L7.0346 15.3815C6.99039 15.4137 6.93439 15.3853 6.92424 15.3389L6.92613 15.3015L7.08429 14.7936L6.66241 14.4771C6.61873 14.4443 6.62799 14.3814 6.66822 14.3573L6.70385 14.3476L7.22824 14.3434L7.39418 13.8381C7.41135 13.7858 7.47308 13.7753 7.5081 13.8067ZM17.4076 11.2459L17.5735 11.7513L18.0979 11.7554C18.1658 11.756 18.1939 11.844 18.1393 11.885L17.7175 12.2014L17.8756 12.7094C17.8961 12.7751 17.8224 12.8295 17.7671 12.7894L17.3405 12.4796L16.9139 12.7894C16.8587 12.8295 16.785 12.7751 16.8055 12.7094L16.9636 12.2014L16.5417 11.885C16.4871 11.844 16.5153 11.756 16.5832 11.7554L17.1076 11.7513L17.2735 11.2459C17.2949 11.1805 17.3861 11.1805 17.4076 11.2459ZM6.72649 11.2459L6.89243 11.7513L7.41682 11.7554C7.48474 11.756 7.51287 11.844 7.45826 11.885L7.03638 12.2014L7.19454 12.7094C7.21502 12.7751 7.14134 12.8295 7.08607 12.7894L6.65946 12.4796L6.23285 12.7894C6.17763 12.8295 6.1039 12.7751 6.12438 12.7094L6.28254 12.2014L5.86066 11.885C5.80605 11.844 5.83418 11.756 5.9021 11.7554L6.42649 11.7513L6.59243 11.2459C6.6139 11.1805 6.70507 11.1805 6.72649 11.2459ZM7.52824 8.41278L7.69418 8.91816L8.21857 8.9223C8.28649 8.92283 8.31462 9.01083 8.26001 9.05183L7.83813 9.3683L7.99629 9.87621C8.01677 9.94192 7.94309 9.9964 7.88782 9.95626L7.46121 9.64645L7.0346 9.95626C6.97938 9.99635 6.90565 9.94197 6.92613 9.87621L7.08429 9.3683L6.66241 9.05183C6.6078 9.01083 6.63593 8.92283 6.70385 8.9223L7.22824 8.91816L7.39418 8.41278C7.41565 8.34735 7.50673 8.34735 7.52824 8.41278ZM16.7581 8.38137L16.7783 8.41278L16.9442 8.91816L17.4686 8.9223C17.5229 8.92272 17.5518 8.97913 17.5332 9.02266L17.51 9.05183L17.0882 9.3683L17.2463 9.87621C17.2627 9.92882 17.2188 9.97414 17.1723 9.96964L17.1379 9.95626L16.7112 9.64645L16.2846 9.95626C16.2404 9.98837 16.1844 9.95993 16.1743 9.91362L16.1762 9.87621L16.3343 9.3683L15.9124 9.05183C15.8688 9.01903 15.878 8.95615 15.9182 8.93204L15.9539 8.9223L16.4783 8.91816L16.6442 8.41278C16.6614 8.36044 16.7231 8.34997 16.7581 8.38137ZM14.8235 6.42697L14.9895 6.93235L15.5139 6.93649C15.5818 6.93702 15.6099 7.02502 15.5553 7.06602L15.1334 7.38249L15.2916 7.8904C15.3121 7.95611 15.2384 8.01059 15.1831 7.97045L14.7565 7.66064L14.3299 7.97045C14.2746 8.01054 14.2009 7.95616 14.2214 7.8904L14.3795 7.38249L13.9577 7.06602C13.9031 7.02502 13.9312 6.93702 13.9991 6.93649L14.5235 6.93235L14.6894 6.42697C14.7109 6.36159 14.802 6.36159 14.8235 6.42697ZM9.46283 6.39559L9.48298 6.42697L9.64891 6.93235L10.1733 6.93649C10.2276 6.93691 10.2565 6.99332 10.2379 7.03685L10.2147 7.06602L9.79287 7.38249L9.95102 7.8904C9.96741 7.94301 9.9235 7.98833 9.87701 7.98383L9.84255 7.97045L9.41595 7.66064L8.98934 7.97045C8.94512 8.00256 8.88912 7.97412 8.87898 7.92781L8.88087 7.8904L9.03902 7.38249L8.61715 7.06602C8.57346 7.03322 8.58272 6.97034 8.62295 6.94623L8.65859 6.93649L9.18298 6.93235L9.34891 6.42697C9.36609 6.37467 9.42781 6.36421 9.46283 6.39559ZM12.0671 5.82064L12.233 6.32602L12.7574 6.33016C12.8253 6.33069 12.8534 6.41869 12.7988 6.45969L12.3769 6.77616L12.5351 7.28407C12.5556 7.34978 12.4819 7.40426 12.4266 7.36411L12 7.0543L11.5734 7.36411C11.5182 7.40421 11.4445 7.34983 11.4649 7.28407L11.6231 6.77616L11.2012 6.45969C11.1466 6.41869 11.1747 6.33069 11.2427 6.33016L11.7671 6.32602L11.933 5.82064C11.9544 5.75521 12.0456 5.75521 12.0671 5.82064Z" fill="#FFD955"/>
<path fill-rule="evenodd" clip-rule="evenodd" d="M22 5H2C1.44772 5 1 5.44772 1 6V18C1 18.5523 1.44772 19 2 19H22C22.5523 19 23 18.5523 23 18V6C23 5.44771 22.5523 5 22 5ZM2 4C0.89543 4 0 4.89543 0 6V18C0 19.1046 0.89543 20 2 20H22C23.1046 20 24 19.1046 24 18V6C24 4.89543 23.1046 4 22 4H2Z" fill="black" fill-opacity="0.08"/>
<path d="M8 14C8 12.8954 8.89543 12 10 12H30C31.1046 12 32 12.8954 32 14V26C32 27.1046 31.1046 28 30 28H10C8.89543 28 8 27.1046 8 26V14Z" fill="#0D47A1"/>
<path d="M25.8265 17.144C25.851 17.0704 25.92 17.0182 25.9999 17.0182C26.0798 17.0182 26.149 17.0703 26.1735 17.1442L26.3415 17.6562L26.8716 17.6602C26.9509 17.6612 27.0201 17.7132 27.0442 17.7878C27.0682 17.8625 27.042 17.9444 26.9799 17.9917L26.5517 18.313L26.7124 18.8286C26.7355 18.9033 26.7093 18.9853 26.6462 19.0322L26.6453 19.0329C26.6134 19.056 26.5756 19.0679 26.5377 19.0679C26.4994 19.0679 26.4625 19.0557 26.4316 19.0337L25.9999 18.72L25.5688 19.0332C25.5378 19.0554 25.4999 19.0679 25.462 19.0679C25.424 19.0679 25.386 19.0559 25.3541 19.0325C25.2912 18.9857 25.2643 18.9035 25.2875 18.8287L25.4482 18.313L25.0205 17.9921C24.9581 17.9447 24.9317 17.8625 24.9556 17.788C24.9797 17.7134 25.0485 17.6611 25.128 17.6602L25.6584 17.6562L25.8265 17.144Z" fill="white"/>
<path d="M28.7231 19.2458C28.7476 19.1722 28.8166 19.1199 28.8965 19.1199C28.9764 19.1199 29.0456 19.172 29.0701 19.246L29.2381 19.758L29.7682 19.762C29.8475 19.7629 29.9167 19.8149 29.9408 19.8896C29.9648 19.9643 29.9386 20.0462 29.8764 20.0935L29.4483 20.4147L29.609 20.9303C29.6321 21.005 29.6059 21.0871 29.5428 21.1339L29.5417 21.1347C29.51 21.1576 29.4724 21.1697 29.4342 21.1697C29.3959 21.1697 29.359 21.1575 29.3282 21.1356L29.3274 21.135L28.8964 20.8218L28.4654 21.135C28.4344 21.1571 28.3965 21.1697 28.3586 21.1697C28.3206 21.1697 28.2826 21.1577 28.2507 21.1343C28.1878 21.0875 28.1609 21.0052 28.1841 20.9305L28.3447 20.4147L27.9171 20.0938C27.8547 20.0465 27.8283 19.9643 27.8522 19.8897C27.8763 19.8151 27.9451 19.7628 28.0246 19.762L28.555 19.758L28.7231 19.2458Z" fill="white"/>
<path d="M22.93 20.0865C22.9545 20.0129 23.0235 19.9606 23.1034 19.9606C23.1833 19.9606 23.2525 20.0127 23.277 20.0867L23.445 20.5987L23.9751 20.6027C24.0544 20.6036 24.1236 20.6556 24.1477 20.7303C24.1717 20.805 24.1455 20.8869 24.0834 20.9342L23.6552 21.2555L23.8159 21.771C23.839 21.8457 23.8128 21.9278 23.7497 21.9746L23.7488 21.9753C23.7169 21.9985 23.6791 22.0104 23.6411 22.0104C23.6028 22.0104 23.5659 21.9982 23.5351 21.9763L23.5343 21.9757L23.1033 21.6625L22.6723 21.9757C22.6413 21.9978 22.6034 22.0104 22.5655 22.0104C22.5275 22.0104 22.4895 21.9984 22.4576 21.975C22.3947 21.9282 22.3678 21.846 22.391 21.7712L22.5517 21.2555L22.124 20.9345C22.0616 20.8872 22.0352 20.805 22.0591 20.7304C22.0832 20.6559 22.152 20.6035 22.2315 20.6027L22.7619 20.5987L22.93 20.0865Z" fill="white"/>
<path d="M25.8265 23.9211C25.851 23.8475 25.92 23.7953 25.9999 23.7953C26.0798 23.7953 26.149 23.8474 26.1735 23.9213L26.3415 24.4334L26.8717 24.4377C26.9513 24.4387 27.0202 24.4908 27.0442 24.5654C27.0679 24.6402 27.042 24.722 26.9799 24.7692L26.5518 25.0901L26.7124 25.6057C26.7355 25.6804 26.7093 25.7624 26.6462 25.8093L26.6453 25.8099C26.6135 25.833 26.5758 25.845 26.5377 25.845C26.4997 25.845 26.4626 25.8329 26.4316 25.8109L25.9998 25.4974L25.5688 25.8103C25.5378 25.8325 25.4999 25.845 25.462 25.845C25.4237 25.845 25.3859 25.8329 25.3541 25.8096C25.2912 25.7628 25.2643 25.6806 25.2875 25.6058L25.4481 25.0901L25.0206 24.7696C24.9582 24.7223 24.9318 24.6406 24.9555 24.5658C24.9795 24.4914 25.0482 24.4386 25.128 24.4377L25.6584 24.4334L25.8265 23.9211Z" fill="white"/>
<path d="M25.8036 17.8551L26 17.2568L26.1963 17.8551L26.8223 17.8599L26.3188 18.2377L26.5068 18.8412L25.9999 18.4728L25.4931 18.841L25.6811 18.2377L25.1776 17.8599L25.8036 17.8551Z" fill="#F44336"/>
<path d="M28.7002 19.9569L28.8965 19.3586L29.0929 19.9569L29.7189 19.9616L29.2154 20.3395L29.4035 20.943L28.8965 20.5746L28.3897 20.9428L28.5777 20.3395L28.0742 19.9616L28.7002 19.9569Z" fill="#F44336"/>
<path d="M22.9071 20.7976L23.1035 20.1993L23.2998 20.7976L23.9258 20.8023L23.4223 21.1802L23.6104 21.7837L23.1034 21.4153L22.5966 21.7835L22.7846 21.1802L22.2811 20.8023L22.9071 20.7976Z" fill="#F44336"/>
<path d="M25.8036 24.6322L26 24.0339L26.1963 24.6322L26.8223 24.6373L26.3188 25.0148L26.5069 25.6184L25.9999 25.2503L25.4931 25.6181L25.6811 25.0148L25.1776 24.6373L25.8036 24.6322Z" fill="#F44336"/>
<path d="M13 12V14.1315L9.81538 12.0084C9.04206 12.0792 8.39607 12.5902 8.1302 13.2887L10.6972 15H8L8 17H10.6972L8 18.7981V20H9.80278L13 17.8685V20H15V17.8685L18.1972 20H20V18.7982L17.3028 17H20V15H17.3028L20 13.2019V12H18.1972L15 14.1315V12H13Z" fill="white"/>
<path d="M13.5 12V15.5H8V16.5H13.5V20H14.5V16.5H20V15.5H14.5V12H13.5Z" fill="#F44336"/>
<path d="M19.5493 12L15.0493 15H15.9507L20 12.3005V12H19.5493Z" fill="#F44336"/>
<path d="M8 20L8.4507 20L12.9507 17H12.0493L8 19.6995L8 20Z" fill="#F44336"/>
<path d="M8.52433 12.65L12.0493 15H12.9507L8.92268 12.3147C8.77564 12.4089 8.64173 12.5218 8.52433 12.65Z" fill="#F44336"/>
<path d="M15.9507 17L20 19.6995V20L19.5493 20L15.0493 17H15.9507Z" fill="#F44336"/>
<path fill-rule="evenodd" clip-rule="evenodd" d="M30 13H10C9.44772 13 9 13.4477 9 14V26C9 26.5523 9.44772 27 10 27H30C30.5523 27 31 26.5523 31 26V14C31 13.4477 30.5523 13 30 13ZM10 12C8.89543 12 8 12.8954 8 14V26C8 27.1046 8.89543 28 10 28H30C31.1046 28 32 27.1046 32 26V14C32 12.8954 31.1046 12 30 12H10Z" fill="black" fill-opacity="0.08"/>
</svg>
