<svg width="32" height="32" viewBox="0 0 32 32" fill="none" xmlns="http://www.w3.org/2000/svg">
<path d="M22 4H2C0.89543 4 0 4.89543 0 6V18C0 19.1046 0.89543 20 2 20H22C23.1046 20 24 19.1046 24 18V6C24 4.89543 23.1046 4 22 4Z" fill="#0D47A1"/>
<path d="M12.0671 16.6713L12.233 17.1766L12.7574 17.1808C12.8253 17.1813 12.8534 17.2693 12.7988 17.3103L12.3769 17.6268L12.5351 18.1347C12.5556 18.2004 12.4819 18.2549 12.4266 18.2147L12 17.9049L11.5734 18.2147C11.5182 18.2548 11.4445 18.2004 11.4649 18.1347L11.6231 17.6268L11.2012 17.3103C11.1466 17.2693 11.1747 17.1813 11.2427 17.1808L11.7671 17.1766L11.933 16.6713C11.9544 16.6058 12.0456 16.6058 12.0671 16.6713ZM9.48298 15.8239L9.64891 16.3293L10.1733 16.3334C10.2412 16.334 10.2694 16.422 10.2147 16.463L9.79287 16.7794L9.95102 17.2874C9.97151 17.3531 9.89782 17.4075 9.84255 17.3674L9.41595 17.0576L8.98934 17.3674C8.93412 17.4075 8.86038 17.3531 8.88087 17.2874L9.03902 16.7794L8.61715 16.463C8.56254 16.422 8.59066 16.334 8.65859 16.3334L9.18298 16.3294L9.34891 15.824C9.37038 15.7584 9.46155 15.7584 9.48298 15.8239ZM14.6894 15.8239C14.7109 15.7584 14.802 15.7584 14.8235 15.824L14.9894 16.3294L15.5138 16.3334C15.5817 16.334 15.6099 16.422 15.5553 16.463L15.1334 16.7794L15.2915 17.2874C15.312 17.3531 15.2383 17.4075 15.1831 17.3674L14.7565 17.0576L14.3299 17.3674C14.2746 17.4075 14.2009 17.3531 14.2214 17.2874L14.3795 16.7794L13.9577 16.463C13.9031 16.422 13.9312 16.334 13.9991 16.3334L14.5235 16.3293L14.6894 15.8239ZM16.7783 13.8381L16.9442 14.3434L17.4686 14.3476C17.5365 14.3481 17.5646 14.4361 17.51 14.4771L17.0882 14.7936L17.2463 15.3015C17.2668 15.3673 17.1931 15.4217 17.1379 15.3815L16.7112 15.0717L16.2846 15.3815C16.2294 15.4216 16.1557 15.3673 16.1762 15.3015L16.3343 14.7936L15.9124 14.4771C15.8578 14.4361 15.886 14.3481 15.9539 14.3476L16.4783 14.3434L16.6442 13.8381C16.6657 13.7727 16.7568 13.7727 16.7783 13.8381ZM7.5081 13.8067L7.52824 13.8381L7.69418 14.3434L8.21857 14.3476C8.27291 14.348 8.30178 14.4044 8.28319 14.4479L8.26001 14.4771L7.83813 14.7936L7.99629 15.3015C8.01268 15.3541 7.96876 15.3994 7.92227 15.3949L7.88782 15.3815L7.46121 15.0717L7.0346 15.3815C6.99039 15.4137 6.93439 15.3853 6.92424 15.3389L6.92613 15.3015L7.08429 14.7936L6.66241 14.4771C6.61873 14.4443 6.62799 14.3814 6.66822 14.3573L6.70385 14.3476L7.22824 14.3434L7.39418 13.8381C7.41135 13.7858 7.47308 13.7753 7.5081 13.8067ZM17.4076 11.2459L17.5735 11.7513L18.0979 11.7554C18.1658 11.756 18.1939 11.844 18.1393 11.885L17.7175 12.2014L17.8756 12.7094C17.8961 12.7751 17.8224 12.8295 17.7671 12.7894L17.3405 12.4796L16.9139 12.7894C16.8587 12.8295 16.785 12.7751 16.8055 12.7094L16.9636 12.2014L16.5417 11.885C16.4871 11.844 16.5153 11.756 16.5832 11.7554L17.1076 11.7513L17.2735 11.2459C17.2949 11.1805 17.3861 11.1805 17.4076 11.2459ZM6.72649 11.2459L6.89243 11.7513L7.41682 11.7554C7.48474 11.756 7.51287 11.844 7.45826 11.885L7.03638 12.2014L7.19454 12.7094C7.21502 12.7751 7.14134 12.8295 7.08607 12.7894L6.65946 12.4796L6.23285 12.7894C6.17763 12.8295 6.1039 12.7751 6.12438 12.7094L6.28254 12.2014L5.86066 11.885C5.80605 11.844 5.83418 11.756 5.9021 11.7554L6.42649 11.7513L6.59243 11.2459C6.6139 11.1805 6.70507 11.1805 6.72649 11.2459ZM7.52824 8.41278L7.69418 8.91816L8.21857 8.9223C8.28649 8.92283 8.31462 9.01083 8.26001 9.05183L7.83813 9.3683L7.99629 9.87621C8.01677 9.94192 7.94309 9.9964 7.88782 9.95626L7.46121 9.64645L7.0346 9.95626C6.97938 9.99635 6.90565 9.94197 6.92613 9.87621L7.08429 9.3683L6.66241 9.05183C6.6078 9.01083 6.63593 8.92283 6.70385 8.9223L7.22824 8.91816L7.39418 8.41278C7.41565 8.34735 7.50673 8.34735 7.52824 8.41278ZM16.7581 8.38137L16.7783 8.41278L16.9442 8.91816L17.4686 8.9223C17.5229 8.92272 17.5518 8.97913 17.5332 9.02266L17.51 9.05183L17.0882 9.3683L17.2463 9.87621C17.2627 9.92882 17.2188 9.97414 17.1723 9.96964L17.1379 9.95626L16.7112 9.64645L16.2846 9.95626C16.2404 9.98837 16.1844 9.95993 16.1743 9.91362L16.1762 9.87621L16.3343 9.3683L15.9124 9.05183C15.8688 9.01903 15.878 8.95615 15.9182 8.93204L15.9539 8.9223L16.4783 8.91816L16.6442 8.41278C16.6614 8.36044 16.7231 8.34997 16.7581 8.38137ZM14.8235 6.42697L14.9895 6.93235L15.5139 6.93649C15.5818 6.93702 15.6099 7.02502 15.5553 7.06602L15.1334 7.38249L15.2916 7.8904C15.3121 7.95611 15.2384 8.01059 15.1831 7.97045L14.7565 7.66064L14.3299 7.97045C14.2746 8.01054 14.2009 7.95616 14.2214 7.8904L14.3795 7.38249L13.9577 7.06602C13.9031 7.02502 13.9312 6.93702 13.9991 6.93649L14.5235 6.93235L14.6894 6.42697C14.7109 6.36159 14.802 6.36159 14.8235 6.42697ZM9.46283 6.39559L9.48298 6.42697L9.64891 6.93235L10.1733 6.93649C10.2276 6.93691 10.2565 6.99332 10.2379 7.03685L10.2147 7.06602L9.79287 7.38249L9.95102 7.8904C9.96741 7.94301 9.9235 7.98833 9.87701 7.98383L9.84255 7.97045L9.41595 7.66064L8.98934 7.97045C8.94512 8.00256 8.88912 7.97412 8.87898 7.92781L8.88087 7.8904L9.03902 7.38249L8.61715 7.06602C8.57346 7.03322 8.58272 6.97034 8.62295 6.94623L8.65859 6.93649L9.18298 6.93235L9.34891 6.42697C9.36609 6.37467 9.42781 6.36421 9.46283 6.39559ZM12.0671 5.82064L12.233 6.32602L12.7574 6.33016C12.8253 6.33069 12.8534 6.41869 12.7988 6.45969L12.3769 6.77616L12.5351 7.28407C12.5556 7.34978 12.4819 7.40426 12.4266 7.36411L12 7.0543L11.5734 7.36411C11.5182 7.40421 11.4445 7.34983 11.4649 7.28407L11.6231 6.77616L11.2012 6.45969C11.1466 6.41869 11.1747 6.33069 11.2427 6.33016L11.7671 6.32602L11.933 5.82064C11.9544 5.75521 12.0456 5.75521 12.0671 5.82064Z" fill="#FFD955"/>
<path fill-rule="evenodd" clip-rule="evenodd" d="M22 5H2C1.44772 5 1 5.44772 1 6V18C1 18.5523 1.44772 19 2 19H22C22.5523 19 23 18.5523 23 18V6C23 5.44771 22.5523 5 22 5ZM2 4C0.89543 4 0 4.89543 0 6V18C0 19.1046 0.89543 20 2 20H22C23.1046 20 24 19.1046 24 18V6C24 4.89543 23.1046 4 22 4H2Z" fill="black" fill-opacity="0.08"/>
<path d="M8 20.568V21.792H32V20.568H8Z" fill="white"/>
<path d="M19.5 19.344H32V18.12H19.5V19.344Z" fill="white"/>
<path d="M19.5 16.896H32V15.672H19.5V16.896Z" fill="white"/>
<path d="M19.5 14.448H32V14C32 13.7248 31.9445 13.4626 31.8439 13.224H19.5V14.448Z" fill="white"/>
<path d="M32 23.016H8V24.24H32V23.016Z" fill="white"/>
<path d="M8 25.464H32V26C32 26.2418 31.9572 26.4734 31.8785 26.688H8.12146C8.04285 26.4734 8 26.2418 8 26V25.464Z" fill="white"/>
<path d="M30 12H19.5V13.224H31.8439C31.5409 12.5048 30.8295 12 30 12Z" fill="#F44336"/>
<path d="M19.5 20.568H32V19.344H19.5V20.568Z" fill="#F44336"/>
<path d="M19.5 18.12H32V16.896H19.5V18.12Z" fill="#F44336"/>
<path d="M19.5 15.672H32V14.448H19.5V15.672Z" fill="#F44336"/>
<path d="M8 21.792H32V23.016H8V21.792Z" fill="#F44336"/>
<path d="M32 24.24H8V25.464H32V24.24Z" fill="#F44336"/>
<path d="M8.12146 26.688H31.8785C31.598 27.4536 30.8629 28 30 28H10C9.13708 28 8.40198 27.4536 8.12146 26.688Z" fill="#F44336"/>
<path fill-rule="evenodd" clip-rule="evenodd" d="M19.5 12H10C8.89539 12 8 12.8954 8 14V20.568H19.5V12ZM9.18872 19.0984L9.09351 18.8168C9.0824 18.7784 9.03442 18.7784 9.02881 18.8184L8.93359 19.1H8.63757C8.62073 19.1004 8.60608 19.1113 8.60071 19.1272C8.59534 19.1431 8.60046 19.1607 8.61353 19.1712L8.85352 19.348L8.75513 19.628C8.75208 19.6393 8.75415 19.6512 8.7605 19.6606C8.76318 19.6647 8.7666 19.6683 8.77075 19.6712C8.78455 19.6809 8.80298 19.6809 8.81677 19.6712L9.05676 19.4992L9.29675 19.6712C9.3103 19.6821 9.32947 19.6827 9.34375 19.6727C9.35803 19.6627 9.36389 19.6445 9.3584 19.628L9.26794 19.3464L9.50793 19.1696C9.51416 19.1647 9.51855 19.1581 9.52087 19.1509C9.52356 19.1428 9.52368 19.134 9.52087 19.1256C9.5155 19.1097 9.50073 19.0988 9.48401 19.0984H9.18872ZM18.1624 18.8168C18.1586 18.8015 18.1447 18.7909 18.1289 18.7913C18.1132 18.7916 18.0997 18.8029 18.0968 18.8184L18.0016 19.1H17.7064C17.6896 19.1004 17.6748 19.1113 17.6694 19.1272C17.6666 19.1356 17.6667 19.1443 17.6693 19.1523C17.6718 19.1596 17.6761 19.1662 17.6824 19.1712L17.9224 19.348L17.824 19.628C17.8196 19.6443 17.8258 19.6616 17.8396 19.6712C17.8534 19.6809 17.8718 19.6809 17.8856 19.6712L18.1256 19.4992L18.3656 19.6712C18.3792 19.6821 18.3983 19.6827 18.4126 19.6727C18.4268 19.6627 18.4327 19.6445 18.4271 19.628L18.3368 19.3464L18.5768 19.1696C18.5846 19.1633 18.5896 19.1545 18.5912 19.145C18.5923 19.1386 18.5918 19.132 18.5896 19.1256C18.5842 19.1097 18.5696 19.0988 18.5527 19.0984H18.2576L18.1624 18.8168ZM15.8936 18.8168C15.8898 18.8015 15.8759 18.7909 15.8601 18.7913C15.8444 18.7916 15.8309 18.8029 15.828 18.8184L15.7328 19.1H15.4376C15.4208 19.1004 15.406 19.1113 15.4006 19.1272C15.3953 19.1431 15.4005 19.1607 15.4136 19.1712L15.6536 19.348L15.5552 19.628C15.5508 19.6443 15.557 19.6616 15.5708 19.6712C15.5846 19.6809 15.603 19.6809 15.6168 19.6712L15.8568 19.4992L16.0968 19.6712C16.1104 19.6821 16.1295 19.6827 16.1438 19.6727C16.158 19.6627 16.1639 19.6445 16.1583 19.628L16.068 19.3464L16.308 19.1696C16.321 19.1591 16.3262 19.1415 16.3208 19.1256C16.3154 19.1097 16.3008 19.0988 16.2839 19.0984H15.9888L15.8936 18.8168ZM11.4568 19.0984L11.3616 18.8168C11.3503 18.7784 11.2976 18.7784 11.2968 18.8184L11.2015 19.1H10.9055C10.8888 19.1004 10.874 19.1113 10.8687 19.1272C10.8633 19.1431 10.8684 19.1607 10.8816 19.1712L11.1216 19.348L11.0232 19.628C11.0188 19.6443 11.025 19.6616 11.0388 19.6712C11.0526 19.6809 11.0709 19.6809 11.0847 19.6712L11.3247 19.4992L11.5648 19.6712C11.5784 19.6821 11.5975 19.6827 11.6117 19.6727C11.626 19.6627 11.632 19.6445 11.6263 19.628L11.536 19.3464L11.776 19.1696C11.7805 19.166 11.7841 19.1616 11.7865 19.1566C11.7913 19.1472 11.7924 19.136 11.7888 19.1256C11.7847 19.1132 11.7749 19.1039 11.7628 19.1002C11.7594 19.0991 11.7557 19.0985 11.752 19.0984H11.4568ZM13.7256 19.0984L13.6304 18.8168C13.6191 18.7784 13.5664 18.7784 13.5656 18.8184L13.4703 19.1H13.1743C13.1576 19.1004 13.1428 19.1113 13.1375 19.1272C13.1321 19.1431 13.1372 19.1607 13.1504 19.1712L13.3904 19.348L13.292 19.628C13.2896 19.6371 13.2904 19.6466 13.2941 19.6548C13.297 19.6613 13.3015 19.667 13.3076 19.6712C13.3214 19.6809 13.3397 19.6809 13.3535 19.6712L13.5935 19.4992L13.8336 19.6712C13.8472 19.6821 13.8663 19.6827 13.8805 19.6727C13.8948 19.6627 13.9008 19.6445 13.8951 19.628L13.8048 19.3464L14.0448 19.1696C14.0579 19.1591 14.063 19.1415 14.0576 19.1256C14.0522 19.1097 14.0376 19.0988 14.0208 19.0984H13.7256ZM10.3231 18.3544L10.2279 18.0728C10.2168 18.0344 10.1688 18.0344 10.1632 18.0728L10.068 18.3544H9.76392C9.74719 18.3549 9.73242 18.3657 9.72705 18.3816C9.72168 18.3975 9.72681 18.4151 9.73999 18.4256L9.97998 18.6024L9.88953 18.884C9.88513 18.9003 9.89136 18.9175 9.90515 18.9272C9.91895 18.9369 9.93738 18.9369 9.95117 18.9272L10.1912 18.7552L10.4312 18.9272C10.4447 18.938 10.4639 18.9387 10.4781 18.9286C10.4924 18.9187 10.4983 18.9005 10.4928 18.884L10.4023 18.6024L10.6423 18.4256C10.6555 18.4151 10.6606 18.3975 10.6553 18.3816C10.6499 18.3657 10.6351 18.3549 10.6184 18.3544H10.3231ZM17.028 18.0728C17.028 18.0596 17.021 18.0475 17.0095 18.041C16.9982 18.0344 16.9841 18.0344 16.9728 18.041C16.9614 18.0475 16.9543 18.0596 16.9543 18.0728L16.8591 18.3544H16.564C16.5471 18.3549 16.5325 18.3657 16.5271 18.3816C16.5217 18.3975 16.5269 18.4151 16.5399 18.4256L16.7799 18.6024L16.6896 18.884C16.6852 18.9003 16.6914 18.9175 16.7052 18.9272C16.719 18.9369 16.7374 18.9369 16.7512 18.9272L16.9912 18.7552L17.2312 18.9272C17.2448 18.938 17.2639 18.9387 17.2782 18.9286C17.2859 18.9233 17.2911 18.9155 17.2935 18.9069C17.2954 18.8995 17.2953 18.8916 17.2927 18.884L17.2024 18.6024L17.4424 18.4256C17.4554 18.4151 17.4606 18.3975 17.4552 18.3816C17.4498 18.3657 17.4352 18.3549 17.4183 18.3544H17.1232L17.028 18.0728ZM14.86 18.3544L14.7648 18.0728C14.7535 18.0344 14.7008 18.0344 14.6912 18.0728L14.5959 18.3544H14.3008C14.2925 18.3546 14.2847 18.3574 14.2782 18.3621C14.2717 18.3669 14.2666 18.3736 14.2639 18.3816C14.2621 18.3871 14.2615 18.3928 14.262 18.3983C14.2631 18.4088 14.2682 18.4187 14.2767 18.4256L14.5167 18.6024L14.4264 18.884C14.422 18.9003 14.4282 18.9175 14.442 18.9272C14.4558 18.9369 14.4741 18.9369 14.4879 18.9272L14.7279 18.7552L14.968 18.9272C14.9816 18.938 15.0007 18.9387 15.0149 18.9286C15.0292 18.9187 15.0352 18.9005 15.0295 18.884L14.9392 18.6024L15.1792 18.4256C15.1923 18.4151 15.1974 18.3975 15.192 18.3816C15.1866 18.3657 15.172 18.3549 15.1552 18.3544H14.86ZM12.5912 18.3544L12.496 18.0728C12.4847 18.0344 12.432 18.0344 12.4312 18.0728L12.3359 18.3544H12.032C12.0151 18.3549 12.0005 18.3657 11.9951 18.3816C11.9897 18.3975 11.9949 18.4151 12.0079 18.4256L12.2479 18.6024L12.1576 18.884C12.1554 18.8923 12.1559 18.9008 12.1587 18.9083C12.1614 18.9158 12.1664 18.9224 12.1732 18.9272C12.1796 18.9317 12.187 18.9341 12.1945 18.9344C12.203 18.9348 12.2117 18.9324 12.2191 18.9272L12.4591 18.7552L12.6992 18.9272C12.7128 18.938 12.7319 18.9387 12.7461 18.9286C12.7604 18.9187 12.7664 18.9005 12.7607 18.884L12.6704 18.6024L12.9104 18.4256C12.9235 18.4151 12.9286 18.3975 12.9232 18.3816C12.9178 18.3657 12.9032 18.3549 12.8864 18.3544H12.5912ZM11.4568 17.6336L11.3616 17.352C11.3503 17.3192 11.2976 17.3192 11.2968 17.352L11.2015 17.6336H10.8976C10.8807 17.634 10.8661 17.6449 10.8607 17.6608C10.8553 17.6768 10.8605 17.6943 10.8735 17.7048L11.1135 17.8816L11.0232 18.1632C11.0188 18.1794 11.025 18.1968 11.0388 18.2064C11.0526 18.2161 11.0709 18.2161 11.0847 18.2064L11.3247 18.0344L11.5648 18.2064C11.5676 18.2087 11.5707 18.2105 11.574 18.2119C11.5862 18.2171 11.6005 18.2158 11.6117 18.2079C11.626 18.1979 11.632 18.1797 11.6263 18.1632L11.536 17.8816L11.776 17.7048C11.7891 17.6943 11.7942 17.6768 11.7888 17.6608C11.7834 17.6449 11.7688 17.634 11.752 17.6336H11.4568ZM18.2576 17.6336L18.1624 17.352C18.156 17.3192 18.1031 17.3192 18.0887 17.352L17.9935 17.6336H17.6984C17.6815 17.634 17.6669 17.6449 17.6615 17.6608C17.6561 17.6768 17.6613 17.6943 17.6743 17.7048L17.9143 17.8816L17.824 18.1632C17.8196 18.1794 17.8258 18.1968 17.8396 18.2064C17.8534 18.2161 17.8718 18.2161 17.8856 18.2064L18.1256 18.0344L18.3656 18.2064C18.3792 18.2173 18.3983 18.2179 18.4126 18.2079C18.4204 18.2024 18.4257 18.1945 18.428 18.1857C18.4298 18.1785 18.4297 18.1707 18.4271 18.1632L18.3368 17.8816L18.5768 17.7048C18.5898 17.6943 18.595 17.6768 18.5896 17.6608C18.5842 17.6449 18.5696 17.634 18.5527 17.6336H18.2576ZM9.18872 17.6336L9.09351 17.352C9.0824 17.3192 9.03442 17.3192 9.02881 17.352L8.93359 17.6336H8.62952C8.61279 17.634 8.59802 17.6449 8.59265 17.6608C8.58728 17.6768 8.59241 17.6943 8.60559 17.7048L8.84558 17.8816L8.75513 18.1632C8.75073 18.1794 8.75696 18.1968 8.77075 18.2064C8.78455 18.2161 8.80298 18.2161 8.81677 18.2064L9.05676 18.0344L9.29675 18.2064C9.3103 18.2173 9.32947 18.2179 9.34375 18.2079C9.35803 18.1979 9.36389 18.1797 9.3584 18.1632L9.26794 17.8816L9.50793 17.7048C9.52112 17.6943 9.52625 17.6768 9.52087 17.6608C9.5155 17.6449 9.50073 17.634 9.48401 17.6336H9.18872ZM15.9888 17.6336L15.8936 17.352C15.8899 17.3331 15.8707 17.3251 15.8524 17.328C15.839 17.3301 15.826 17.3381 15.8199 17.352L15.7247 17.6336H15.4296C15.4232 17.6338 15.4172 17.6354 15.4119 17.6382C15.403 17.6429 15.396 17.6509 15.3927 17.6608C15.3873 17.6768 15.3925 17.6943 15.4055 17.7048L15.6455 17.8816L15.5552 18.1632C15.5508 18.1794 15.557 18.1968 15.5708 18.2064C15.5846 18.2161 15.603 18.2161 15.6168 18.2064L15.8568 18.0344L16.0968 18.2064C16.1104 18.2173 16.1295 18.2179 16.1438 18.2079C16.158 18.1979 16.1639 18.1797 16.1583 18.1632L16.068 17.8816L16.308 17.7048C16.321 17.6943 16.3262 17.6768 16.3208 17.6608C16.3154 17.6449 16.3008 17.634 16.2839 17.6336H15.9888ZM13.7256 17.6336L13.6304 17.352C13.6191 17.3192 13.5664 17.3192 13.5656 17.352L13.4703 17.6336H13.1664C13.1495 17.634 13.1349 17.6449 13.1295 17.6608C13.1241 17.6768 13.1293 17.6943 13.1423 17.7048L13.3823 17.8816L13.292 18.1632C13.2876 18.1794 13.2938 18.1968 13.3076 18.2064C13.3214 18.2161 13.3397 18.2161 13.3535 18.2064L13.5935 18.0344L13.8336 18.2064C13.8472 18.2173 13.8663 18.2179 13.8805 18.2079C13.8948 18.1979 13.9008 18.1797 13.8951 18.1632L13.8048 17.8816L14.0448 17.7048C14.0579 17.6943 14.063 17.6768 14.0576 17.6608C14.0522 17.6449 14.0376 17.634 14.0208 17.6336H13.7256ZM10.3231 16.8904L10.2279 16.6088C10.2168 16.5704 10.1688 16.5704 10.1632 16.6104L10.068 16.892H9.77197C9.75513 16.8925 9.74048 16.9033 9.73511 16.9192C9.72974 16.9351 9.73486 16.9527 9.74792 16.9632L9.98792 17.14L9.88953 17.42C9.88513 17.4363 9.89136 17.4536 9.90515 17.4632C9.91895 17.4729 9.93738 17.4729 9.95117 17.4632L10.1912 17.2912L10.4312 17.4632C10.4447 17.4741 10.4639 17.4747 10.4781 17.4647C10.4924 17.4547 10.4983 17.4365 10.4928 17.42L10.4023 17.1384L10.6423 16.9616C10.6555 16.9511 10.6606 16.9335 10.6553 16.9176C10.6499 16.9017 10.6351 16.8908 10.6184 16.8904H10.3231ZM17.028 16.6088C17.028 16.5885 17.0115 16.572 16.9912 16.572C16.975 16.572 16.9613 16.5825 16.9563 16.5969C16.9551 16.6006 16.9543 16.6047 16.9543 16.6088L16.8591 16.8904H16.564C16.5576 16.8906 16.5516 16.8922 16.5463 16.895C16.5374 16.8997 16.5304 16.9077 16.5271 16.9176C16.5217 16.9335 16.5269 16.9511 16.5399 16.9616L16.7799 17.1384L16.6896 17.42C16.6852 17.4363 16.6914 17.4536 16.7052 17.4632C16.7134 17.469 16.7233 17.4713 16.7328 17.4702C16.7393 17.4694 16.7456 17.4671 16.7512 17.4632L16.9912 17.2912L17.2312 17.4632C17.2448 17.4741 17.2639 17.4747 17.2782 17.4647C17.2924 17.4547 17.2983 17.4365 17.2927 17.42L17.2024 17.1384L17.4424 16.9616C17.4554 16.9511 17.4606 16.9335 17.4552 16.9176C17.4498 16.9017 17.4352 16.8908 17.4183 16.8904H17.1232L17.028 16.6088ZM14.86 16.8904L14.7648 16.6088C14.7535 16.5704 14.7008 16.5704 14.6912 16.6088L14.5959 16.8904H14.3008C14.293 16.8906 14.2858 16.893 14.2797 16.8971C14.2725 16.9019 14.2668 16.909 14.2639 16.9176C14.2585 16.9335 14.2637 16.9511 14.2767 16.9616L14.5167 17.1384L14.4264 17.42C14.4232 17.4319 14.4257 17.4443 14.4325 17.4539C14.4351 17.4574 14.4382 17.4606 14.442 17.4632C14.4558 17.4729 14.4741 17.4729 14.4879 17.4632L14.7279 17.2912L14.968 17.4632C14.9816 17.4741 15.0007 17.4747 15.0149 17.4647C15.0292 17.4547 15.0352 17.4365 15.0295 17.42L14.9392 17.1384L15.1792 16.9616C15.1923 16.9511 15.1974 16.9335 15.192 16.9176C15.1866 16.9017 15.172 16.8908 15.1552 16.8904H14.86ZM12.5912 16.8904L12.496 16.6088C12.4847 16.5704 12.432 16.5704 12.4312 16.6104L12.3359 16.892H12.0399C12.0232 16.8925 12.0084 16.9033 12.0031 16.9192C11.9996 16.9292 12.0004 16.9399 12.0048 16.949C12.0073 16.9544 12.0111 16.9593 12.016 16.9632L12.256 17.14L12.1576 17.42C12.1532 17.4363 12.1594 17.4536 12.1732 17.4632C12.187 17.4729 12.2053 17.4729 12.2191 17.4632L12.4591 17.2912L12.6992 17.4632C12.7128 17.4741 12.7319 17.4747 12.7461 17.4647C12.7604 17.4547 12.7664 17.4365 12.7607 17.42L12.6704 17.1384L12.9104 16.9616C12.9235 16.9511 12.9286 16.9335 12.9232 16.9176C12.9178 16.9017 12.9032 16.8908 12.8864 16.8904H12.5912ZM11.4568 16.1744L11.3616 15.8928C11.3503 15.8544 11.2976 15.8544 11.2968 15.8944L11.2015 16.176H10.9055C10.8943 16.1763 10.8839 16.1813 10.8767 16.1894C10.8732 16.1934 10.8704 16.198 10.8687 16.2032C10.8633 16.2191 10.8684 16.2367 10.8816 16.2472L11.1216 16.424L11.0232 16.704C11.0188 16.7203 11.025 16.7375 11.0388 16.7473C11.0526 16.7569 11.0709 16.7569 11.0847 16.7472L11.3247 16.5752L11.5648 16.7472C11.5784 16.7581 11.5975 16.7587 11.6117 16.7487C11.626 16.7387 11.632 16.7205 11.6263 16.704L11.536 16.4224L11.776 16.2456C11.7833 16.2397 11.7882 16.2316 11.79 16.2227C11.7915 16.2158 11.7911 16.2086 11.7888 16.2016C11.7863 16.1939 11.7815 16.1874 11.7754 16.1827C11.7688 16.1776 11.7606 16.1746 11.752 16.1744H11.4568ZM18.144 15.8704C18.1394 15.8683 18.1343 15.8671 18.1289 15.8672C18.1132 15.8676 18.0997 15.8789 18.0968 15.8944L18.0016 16.176H17.7064C17.6896 16.1765 17.6748 16.1873 17.6694 16.2032C17.6641 16.2191 17.6693 16.2367 17.6824 16.2472L17.9224 16.424L17.824 16.704C17.8196 16.7203 17.8258 16.7375 17.8396 16.7473C17.8534 16.7569 17.8718 16.7569 17.8856 16.7472L18.1256 16.5752L18.3656 16.7472C18.3729 16.7531 18.3818 16.7559 18.3907 16.7557C18.3984 16.7556 18.406 16.7532 18.4126 16.7487C18.4207 16.743 18.426 16.7346 18.4282 16.7255C18.4298 16.7185 18.4296 16.7111 18.4271 16.704L18.3368 16.4224L18.5768 16.2456C18.5898 16.2351 18.595 16.2175 18.5896 16.2016C18.5842 16.1857 18.5696 16.1748 18.5527 16.1744H18.2576L18.1624 15.8928C18.1599 15.8827 18.153 15.8746 18.144 15.8704ZM15.8936 15.8928C15.8936 15.8725 15.8771 15.856 15.8568 15.856C15.8364 15.856 15.8199 15.8725 15.8199 15.8928L15.7247 16.1744H15.4296C15.4127 16.1748 15.3981 16.1857 15.3927 16.2016C15.3873 16.2175 15.3925 16.2351 15.4055 16.2456L15.6455 16.4224L15.5552 16.704C15.5508 16.7203 15.557 16.7375 15.5708 16.7473C15.5846 16.7569 15.603 16.7569 15.6168 16.7472L15.8568 16.5752L16.0968 16.7472C16.1029 16.7521 16.1101 16.7549 16.1176 16.7556C16.1266 16.7564 16.136 16.7542 16.1438 16.7487C16.158 16.7387 16.1639 16.7205 16.1583 16.704L16.068 16.4224L16.308 16.2456C16.321 16.2351 16.3262 16.2175 16.3208 16.2016C16.3154 16.1857 16.3008 16.1748 16.2839 16.1744H15.9888L15.8936 15.8928ZM9.18872 16.1744L9.09351 15.8928C9.0824 15.8544 9.03442 15.8544 9.02881 15.8944L8.93359 16.176H8.63757C8.62073 16.1765 8.60608 16.1873 8.60071 16.2032C8.59534 16.2191 8.60046 16.2367 8.61353 16.2472L8.85352 16.424L8.75513 16.704C8.75073 16.7203 8.75696 16.7375 8.77075 16.7473C8.77991 16.7537 8.79102 16.7558 8.80151 16.7537C8.80688 16.7527 8.81213 16.7505 8.81677 16.7472L9.05676 16.5752L9.29675 16.7472C9.3103 16.7581 9.32947 16.7587 9.34375 16.7487C9.35803 16.7387 9.36389 16.7205 9.3584 16.704L9.26794 16.4224L9.50793 16.2456C9.52112 16.2351 9.52625 16.2175 9.52087 16.2016C9.5155 16.1857 9.50073 16.1748 9.48401 16.1744H9.18872ZM13.7256 16.1744L13.6304 15.8928C13.6191 15.8544 13.5664 15.8544 13.5656 15.8928L13.4703 16.1744H13.1664C13.1495 16.1748 13.1349 16.1857 13.1295 16.2016C13.1266 16.2101 13.1267 16.2191 13.1294 16.2272C13.1318 16.2343 13.1362 16.2407 13.1423 16.2456L13.3823 16.4224L13.292 16.704C13.2876 16.7203 13.2938 16.7375 13.3076 16.7473C13.3147 16.7522 13.323 16.7546 13.3312 16.7545C13.339 16.7543 13.3468 16.752 13.3535 16.7472L13.5935 16.5752L13.8336 16.7472C13.8472 16.7581 13.8663 16.7587 13.8805 16.7487C13.8948 16.7387 13.9008 16.7205 13.8951 16.704L13.8048 16.4224L14.0448 16.2456C14.0579 16.2351 14.063 16.2175 14.0576 16.2016C14.0522 16.1857 14.0376 16.1748 14.0208 16.1744H13.7256ZM10.3231 15.4248L10.2279 15.1432C10.2168 15.1104 10.1688 15.1104 10.1632 15.1432L10.068 15.4248H9.76392C9.75671 15.425 9.74988 15.4271 9.74402 15.4308C9.73621 15.4356 9.7301 15.443 9.72705 15.452C9.72168 15.468 9.72681 15.4855 9.73999 15.496L9.97998 15.6728L9.88953 15.9544C9.88513 15.9706 9.89136 15.988 9.90515 15.9976C9.91895 16.0073 9.93738 16.0073 9.95117 15.9976L10.1912 15.8256L10.4312 15.9976C10.4447 16.0085 10.4639 16.0091 10.4781 15.9991C10.4924 15.9891 10.4983 15.9709 10.4928 15.9544L10.4023 15.6728L10.6423 15.496C10.6555 15.4855 10.6606 15.468 10.6553 15.452C10.6499 15.4361 10.6351 15.4252 10.6184 15.4248H10.3231ZM14.86 15.4248L14.7648 15.1432C14.7535 15.1104 14.7008 15.1104 14.6912 15.1432L14.5959 15.4248H14.3008C14.2839 15.4252 14.2693 15.4361 14.2639 15.452C14.2606 15.4619 14.2614 15.4723 14.2654 15.4813C14.2679 15.4869 14.2717 15.492 14.2767 15.496L14.5167 15.6728L14.4264 15.9544C14.422 15.9706 14.4282 15.988 14.442 15.9976C14.4558 16.0073 14.4741 16.0073 14.4879 15.9976L14.7279 15.8256L14.968 15.9976C14.9742 16.0026 14.9818 16.0055 14.9895 16.0061C14.9983 16.0068 15.0073 16.0045 15.0149 15.9991C15.0292 15.9891 15.0352 15.9709 15.0295 15.9544L14.9392 15.6728L15.1792 15.496C15.1858 15.4907 15.1904 15.4835 15.1926 15.4757C15.1947 15.4681 15.1947 15.4599 15.192 15.452C15.1866 15.4361 15.172 15.4252 15.1552 15.4248H14.86ZM12.5912 15.4248L12.496 15.1432C12.4847 15.1104 12.432 15.1104 12.4312 15.1432L12.3359 15.4248H12.032C12.0151 15.4252 12.0005 15.4361 11.9951 15.452C11.9897 15.468 11.9949 15.4855 12.0079 15.496L12.2479 15.6728L12.1576 15.9544C12.1532 15.9706 12.1594 15.988 12.1732 15.9976C12.187 16.0073 12.2053 16.0073 12.2191 15.9976L12.4591 15.8256L12.6992 15.9976C12.7128 16.0085 12.7319 16.0091 12.7461 15.9991C12.7604 15.9891 12.7664 15.9709 12.7607 15.9544L12.6704 15.6728L12.9104 15.496C12.9235 15.4855 12.9286 15.468 12.9232 15.452C12.9178 15.4361 12.9032 15.4252 12.8864 15.4248H12.5912ZM17.1232 15.4248L17.028 15.1432C17.0216 15.1104 16.9688 15.1104 16.9543 15.1432L16.8591 15.4248H16.564C16.5471 15.4252 16.5325 15.4361 16.5271 15.452C16.5217 15.468 16.5269 15.4855 16.5399 15.496L16.7799 15.6728L16.6896 15.9544C16.6852 15.9706 16.6914 15.988 16.7052 15.9976C16.719 16.0073 16.7374 16.0073 16.7512 15.9976L16.9912 15.8256L17.2312 15.9976C17.239 16.0039 17.2488 16.0068 17.2584 16.0061C17.2654 16.0056 17.2722 16.0033 17.2782 15.9991C17.2924 15.9891 17.2983 15.9709 17.2927 15.9544L17.2024 15.6728L17.4424 15.496C17.4554 15.4855 17.4606 15.468 17.4552 15.452C17.4515 15.4413 17.4437 15.4329 17.4338 15.4284C17.4291 15.4262 17.4238 15.4249 17.4183 15.4248H17.1232ZM13.7256 14.7096L13.6304 14.428C13.6191 14.3952 13.5664 14.3952 13.5656 14.428L13.4703 14.7096H13.1664C13.1495 14.71 13.1349 14.7209 13.1295 14.7368C13.1241 14.7527 13.1293 14.7703 13.1423 14.7808L13.3823 14.9576L13.292 15.2392C13.2886 15.2518 13.2915 15.265 13.2994 15.2748C13.3018 15.2776 13.3044 15.2802 13.3076 15.2824C13.3162 15.2884 13.3263 15.2907 13.3362 15.2893C13.3423 15.2885 13.3483 15.2861 13.3535 15.2824L13.5935 15.1104L13.8336 15.2824C13.8472 15.2933 13.8663 15.2939 13.8805 15.2839C13.8948 15.2739 13.9008 15.2557 13.8951 15.2392L13.8048 14.9576L14.0448 14.7808C14.0579 14.7703 14.063 14.7527 14.0576 14.7368C14.0522 14.7209 14.0376 14.71 14.0208 14.7096H13.7256ZM9.18872 14.7096L9.09351 14.428C9.0824 14.3952 9.03442 14.3952 9.02881 14.428L8.93359 14.7096H8.62952C8.61279 14.71 8.59802 14.7209 8.59265 14.7368C8.58728 14.7527 8.59241 14.7703 8.60559 14.7808L8.84558 14.9576L8.75513 15.2392C8.75073 15.2555 8.75696 15.2728 8.77075 15.2824C8.78455 15.2921 8.80298 15.2921 8.81677 15.2824L9.05676 15.1104L9.29675 15.2824C9.3103 15.2933 9.32947 15.2939 9.34375 15.2839C9.35803 15.2739 9.36389 15.2557 9.3584 15.2392L9.26794 14.9576L9.50793 14.7808C9.52112 14.7703 9.52625 14.7527 9.52087 14.7368C9.5155 14.7209 9.50073 14.71 9.48401 14.7096H9.18872ZM11.46 14.7096L11.3647 14.428C11.3503 14.3952 11.2976 14.3952 11.292 14.428L11.1968 14.7096H10.9023C10.8856 14.71 10.8708 14.7209 10.8655 14.7368C10.8616 14.7484 10.8632 14.7607 10.8694 14.7708C10.8717 14.7745 10.8748 14.778 10.8784 14.7808L11.1184 14.9576L11.028 15.2392C11.0236 15.2555 11.0298 15.2728 11.0436 15.2824C11.0574 15.2921 11.0758 15.2921 11.0896 15.2824L11.3296 15.1104L11.5696 15.2824C11.5831 15.2933 11.6023 15.2939 11.6166 15.2839C11.6307 15.2739 11.6367 15.2557 11.6311 15.2392L11.5408 14.9576L11.7808 14.7808C11.7893 14.774 11.7944 14.7642 11.7955 14.7538C11.7961 14.7482 11.7955 14.7424 11.7937 14.7368C11.7883 14.7209 11.7736 14.71 11.7567 14.7096H11.46ZM15.9888 14.7096L15.8936 14.428C15.8872 14.3952 15.8344 14.3952 15.8199 14.428L15.7247 14.7096H15.4296C15.4127 14.71 15.3981 14.7209 15.3927 14.7368C15.3873 14.7527 15.3925 14.7703 15.4055 14.7808L15.6455 14.9576L15.5552 15.2392C15.5522 15.2499 15.5541 15.2611 15.5594 15.2703C15.5623 15.275 15.566 15.2791 15.5708 15.2824C15.5846 15.2921 15.603 15.2921 15.6168 15.2824L15.8568 15.1104L16.0968 15.2824C16.1104 15.2933 16.1295 15.2939 16.1438 15.2839C16.158 15.2739 16.1639 15.2557 16.1583 15.2392L16.068 14.9576L16.308 14.7808C16.321 14.7703 16.3262 14.7527 16.3208 14.7368C16.3174 14.7266 16.3101 14.7184 16.3008 14.7137C16.2957 14.7112 16.2899 14.7097 16.2839 14.7096H15.9888ZM18.2576 14.7096L18.1624 14.428C18.156 14.3952 18.1031 14.3952 18.0887 14.428L17.9935 14.7096H17.6984C17.6815 14.71 17.6669 14.7209 17.6615 14.7368C17.6561 14.7527 17.6613 14.7703 17.6743 14.7808L17.9143 14.9576L17.824 15.2392C17.8196 15.2555 17.8258 15.2728 17.8396 15.2824C17.8534 15.2921 17.8718 15.2921 17.8856 15.2824L18.1256 15.1104L18.3656 15.2824C18.3743 15.2894 18.3853 15.2921 18.3958 15.2905C18.4017 15.2897 18.4075 15.2875 18.4126 15.2839C18.4268 15.2739 18.4327 15.2557 18.4271 15.2392L18.3368 14.9576L18.5768 14.7808C18.5898 14.7703 18.595 14.7527 18.5896 14.7368C18.5842 14.7209 18.5696 14.71 18.5527 14.7096H18.2576ZM14.86 13.9656L14.7648 13.684C14.7535 13.6456 14.7008 13.6456 14.6912 13.684L14.5959 13.9656H14.3008C14.2839 13.966 14.2693 13.9769 14.2639 13.9928C14.2585 14.0087 14.2637 14.0263 14.2767 14.0368L14.5167 14.2136L14.4264 14.4952C14.4238 14.5049 14.4249 14.5149 14.4291 14.5234C14.432 14.5293 14.4364 14.5345 14.442 14.5385C14.4558 14.5481 14.4741 14.5481 14.4879 14.5384L14.7279 14.3664L14.968 14.5384C14.9816 14.5493 15.0007 14.5499 15.0149 14.5399C15.0292 14.5299 15.0352 14.5117 15.0295 14.4952L14.9392 14.2136L15.1792 14.0368C15.1923 14.0263 15.1974 14.0087 15.192 13.9928C15.1895 13.9852 15.1847 13.9787 15.1786 13.974C15.172 13.9689 15.1639 13.9658 15.1552 13.9656H14.86ZM12.5912 13.9656L12.496 13.684C12.4884 13.6583 12.4623 13.6498 12.4456 13.6591C12.4374 13.6636 12.4314 13.6724 12.4312 13.6856L12.3359 13.9672H12.0399C12.0232 13.9677 12.0084 13.9785 12.0031 13.9944C11.9977 14.0103 12.0028 14.0279 12.016 14.0384L12.256 14.2152L12.1576 14.4952C12.1532 14.5115 12.1594 14.5287 12.1732 14.5385C12.1804 14.5435 12.189 14.5459 12.1974 14.5457C12.205 14.5454 12.2125 14.543 12.2191 14.5384L12.4591 14.3664L12.6992 14.5384C12.7128 14.5493 12.7319 14.5499 12.7461 14.5399C12.7604 14.5299 12.7664 14.5117 12.7607 14.4952L12.6704 14.2136L12.9104 14.0368C12.9235 14.0263 12.9286 14.0087 12.9232 13.9928C12.9178 13.9769 12.9032 13.966 12.8864 13.9656H12.5912ZM10.3231 13.9656L10.2279 13.684C10.2168 13.6456 10.1688 13.6456 10.1632 13.6856L10.068 13.9672H9.77197C9.75513 13.9677 9.74048 13.9785 9.73511 13.9944C9.72974 14.0103 9.73486 14.0279 9.74792 14.0384L9.98792 14.2152L9.88953 14.4952C9.88513 14.5115 9.89136 14.5287 9.90515 14.5385C9.91895 14.5481 9.93738 14.5481 9.95117 14.5384L10.1912 14.3664L10.4312 14.5384C10.4447 14.5493 10.4639 14.5499 10.4781 14.5399C10.4924 14.5299 10.4983 14.5117 10.4928 14.4952L10.4023 14.2136L10.6423 14.0368C10.6555 14.0263 10.6606 14.0087 10.6553 13.9928C10.6499 13.9769 10.6351 13.966 10.6184 13.9656H10.3231ZM17.028 13.684C17.028 13.6708 17.021 13.6587 17.0095 13.6522C16.9982 13.6456 16.9841 13.6456 16.9728 13.6522C16.9614 13.6587 16.9543 13.6708 16.9543 13.684L16.8591 13.9656H16.564C16.5471 13.966 16.5325 13.9769 16.5271 13.9928C16.5217 14.0087 16.5269 14.0263 16.5399 14.0368L16.7799 14.2136L16.6896 14.4952C16.6852 14.5115 16.6914 14.5287 16.7052 14.5385C16.719 14.5481 16.7374 14.5481 16.7512 14.5384L16.9912 14.3664L17.2312 14.5384C17.2377 14.5436 17.2455 14.5465 17.2534 14.5469C17.262 14.5474 17.2708 14.545 17.2782 14.5399C17.2924 14.5299 17.2983 14.5117 17.2927 14.4952L17.2024 14.2136L17.4424 14.0368C17.4554 14.0263 17.4606 14.0087 17.4552 13.9928C17.4498 13.9769 17.4352 13.966 17.4183 13.9656H17.1232L17.028 13.684ZM9.18872 13.2504L9.09351 12.9688C9.0824 12.9304 9.03442 12.9304 9.02881 12.9704L8.93359 13.252H8.63757C8.62073 13.2524 8.60608 13.2633 8.60071 13.2792C8.59534 13.2951 8.60046 13.3127 8.61353 13.3232L8.85352 13.5L8.75513 13.78C8.75073 13.7963 8.75696 13.8135 8.77075 13.8232C8.78455 13.8329 8.80298 13.8329 8.81677 13.8232L9.05676 13.6512L9.29675 13.8232C9.3103 13.834 9.32947 13.8347 9.34375 13.8247C9.35803 13.8147 9.36389 13.7965 9.3584 13.78L9.26794 13.4984L9.50793 13.3216C9.52112 13.3111 9.52625 13.2935 9.52087 13.2776C9.5155 13.2617 9.50073 13.2509 9.48401 13.2504H9.18872ZM11.4568 13.2504L11.3616 12.9688C11.355 12.9464 11.3344 12.9371 11.3181 12.9412C11.3065 12.944 11.2971 12.9537 11.2968 12.9704L11.2015 13.252H10.9055C10.8888 13.2524 10.874 13.2633 10.8687 13.2792C10.8633 13.2951 10.8684 13.3127 10.8816 13.3232L11.1216 13.5L11.0232 13.78C11.0188 13.7963 11.025 13.8135 11.0388 13.8232C11.0448 13.8274 11.0515 13.8298 11.0583 13.8303C11.0675 13.8311 11.0769 13.8287 11.0847 13.8232L11.3247 13.6512L11.5648 13.8232C11.5784 13.834 11.5975 13.8347 11.6117 13.8247C11.626 13.8147 11.632 13.7965 11.6263 13.78L11.536 13.4984L11.776 13.3216C11.783 13.316 11.7876 13.3085 11.7897 13.3002C11.7915 13.2928 11.7914 13.285 11.7888 13.2776C11.7834 13.2617 11.7688 13.2509 11.752 13.2504H11.4568ZM13.7256 13.2504L13.6304 12.9688C13.6191 12.9304 13.5664 12.9304 13.5656 12.9688L13.4703 13.2504H13.1664C13.1495 13.2509 13.1349 13.2617 13.1295 13.2776C13.1241 13.2935 13.1293 13.3111 13.1423 13.3216L13.3823 13.4984L13.292 13.78C13.2898 13.7883 13.2903 13.7969 13.2932 13.8047C13.296 13.812 13.3009 13.8185 13.3076 13.8232C13.313 13.827 13.319 13.8292 13.3252 13.8301C13.335 13.8314 13.3451 13.8292 13.3535 13.8232L13.5935 13.6512L13.8336 13.8232C13.8472 13.834 13.8663 13.8347 13.8805 13.8247C13.8948 13.8147 13.9008 13.7965 13.8951 13.78L13.8048 13.4984L14.0448 13.3216C14.0579 13.3111 14.063 13.2935 14.0576 13.2776C14.0522 13.2617 14.0376 13.2509 14.0208 13.2504H13.7256ZM15.8936 12.9688C15.8936 12.9557 15.8866 12.9435 15.8751 12.937C15.8708 12.9344 15.8662 12.9329 15.8615 12.9323C15.8536 12.9313 15.8455 12.9329 15.8384 12.937C15.827 12.9435 15.8199 12.9557 15.8199 12.9688L15.7247 13.2504H15.4296C15.4127 13.2509 15.3981 13.2617 15.3927 13.2776C15.3873 13.2935 15.3925 13.3111 15.4055 13.3216L15.6455 13.4984L15.5552 13.78C15.5508 13.7963 15.557 13.8135 15.5708 13.8232C15.5846 13.8329 15.603 13.8329 15.6168 13.8232L15.8568 13.6512L16.0968 13.8232C16.1025 13.8278 16.1094 13.8306 16.1165 13.8314C16.1259 13.8326 16.1356 13.8304 16.1438 13.8247C16.158 13.8147 16.1639 13.7965 16.1583 13.78L16.068 13.4984L16.308 13.3216C16.321 13.3111 16.3262 13.2935 16.3208 13.2776C16.3154 13.2617 16.3008 13.2509 16.2839 13.2504H15.9888L15.8936 12.9688ZM18.1624 12.9688C18.1586 12.9535 18.1447 12.9429 18.1289 12.9432C18.1132 12.9437 18.0997 12.955 18.0968 12.9704L18.0016 13.252H17.7064C17.6991 13.2522 17.6921 13.2543 17.6862 13.2581C17.6785 13.2629 17.6725 13.2703 17.6694 13.2792C17.6641 13.2951 17.6693 13.3127 17.6824 13.3232L17.9224 13.5L17.824 13.78C17.8196 13.7963 17.8258 13.8135 17.8396 13.8232C17.8534 13.8329 17.8718 13.8329 17.8856 13.8232L18.1256 13.6512L18.3656 13.8232C18.3704 13.827 18.3757 13.8295 18.3813 13.8307C18.392 13.8332 18.4033 13.8312 18.4126 13.8247C18.4268 13.8147 18.4327 13.7965 18.4271 13.78L18.3368 13.4984L18.5768 13.3216C18.5898 13.3111 18.595 13.2935 18.5896 13.2776C18.5842 13.2617 18.5696 13.2509 18.5527 13.2504H18.2576L18.1624 12.9688Z" fill="#0D47A1"/>
<path d="M9.09351 18.8168L9.18872 19.0984H9.48401C9.50073 19.0988 9.5155 19.1097 9.52087 19.1256C9.52624 19.1415 9.52104 19.1591 9.50793 19.1696L9.26794 19.3464L9.3584 19.628C9.36389 19.6445 9.35803 19.6627 9.34375 19.6727C9.32947 19.6827 9.3103 19.6821 9.29675 19.6712L9.05676 19.4992L8.81677 19.6712C8.80298 19.6809 8.78455 19.6809 8.77075 19.6712C8.75696 19.6615 8.75072 19.6443 8.75513 19.628L8.85352 19.348L8.61353 19.1712C8.60046 19.1607 8.59534 19.1431 8.60071 19.1272C8.60608 19.1113 8.62073 19.1004 8.63757 19.1H8.93359L9.02881 18.8184C9.03442 18.7784 9.0824 18.7784 9.09351 18.8168ZM18.1289 18.7913C18.1447 18.7909 18.1586 18.8015 18.1624 18.8168L18.2576 19.0984H18.5527C18.5696 19.0988 18.5842 19.1097 18.5896 19.1256C18.595 19.1415 18.5899 19.1591 18.5768 19.1696L18.3368 19.3464L18.4271 19.628C18.4327 19.6445 18.4268 19.6627 18.4126 19.6727C18.3983 19.6827 18.3792 19.6821 18.3656 19.6712L18.1256 19.4992L17.8856 19.6712C17.8718 19.6809 17.8534 19.6809 17.8396 19.6712C17.8258 19.6616 17.8196 19.6443 17.824 19.628L17.9224 19.348L17.6824 19.1712C17.6693 19.1607 17.6641 19.1431 17.6694 19.1272C17.6748 19.1113 17.6896 19.1004 17.7064 19.1H18.0016L18.0968 18.8184C18.0997 18.8029 18.1132 18.7916 18.1289 18.7913ZM15.8601 18.7913C15.8759 18.7909 15.8898 18.8015 15.8936 18.8168L15.9888 19.0984H16.2839C16.3008 19.0988 16.3154 19.1097 16.3208 19.1256C16.3262 19.1415 16.321 19.1591 16.308 19.1696L16.068 19.3464L16.1583 19.628C16.1639 19.6445 16.158 19.6627 16.1438 19.6727C16.1295 19.6827 16.1104 19.6821 16.0968 19.6712L15.8568 19.4992L15.6168 19.6712C15.603 19.6809 15.5846 19.6809 15.5708 19.6712C15.557 19.6616 15.5508 19.6443 15.5552 19.628L15.6536 19.348L15.4136 19.1712C15.4005 19.1607 15.3953 19.1431 15.4006 19.1272C15.406 19.1113 15.4208 19.1004 15.4376 19.1H15.7328L15.828 18.8184C15.8309 18.8029 15.8444 18.7916 15.8601 18.7913ZM11.3616 18.8168L11.4568 19.0984H11.752C11.7687 19.0988 11.7835 19.1097 11.7888 19.1256C11.7942 19.1415 11.7891 19.1591 11.776 19.1696L11.536 19.3464L11.6263 19.628C11.632 19.6445 11.626 19.6627 11.6117 19.6727C11.5975 19.6827 11.5784 19.6821 11.5648 19.6712L11.3247 19.4992L11.0847 19.6712C11.0709 19.6809 11.0526 19.6809 11.0388 19.6712C11.025 19.6616 11.0188 19.6443 11.0232 19.628L11.1216 19.348L10.8816 19.1712C10.8684 19.1607 10.8633 19.1431 10.8687 19.1272C10.874 19.1113 10.8888 19.1004 10.9055 19.1H11.2015L11.2968 18.8184C11.2976 18.7784 11.3503 18.7784 11.3616 18.8168ZM13.6304 18.8168L13.7256 19.0984H14.0208C14.0376 19.0988 14.0522 19.1097 14.0576 19.1256C14.063 19.1415 14.0579 19.1591 14.0448 19.1696L13.8048 19.3464L13.8951 19.628C13.9008 19.6445 13.8948 19.6627 13.8805 19.6727C13.8663 19.6827 13.8472 19.6821 13.8336 19.6712L13.5935 19.4992L13.3535 19.6712C13.3397 19.6809 13.3214 19.6809 13.3076 19.6712C13.2938 19.6615 13.2876 19.6443 13.292 19.628L13.3904 19.348L13.1504 19.1712C13.1372 19.1607 13.1321 19.1431 13.1375 19.1272C13.1428 19.1113 13.1576 19.1004 13.1743 19.1H13.4703L13.5656 18.8184C13.5664 18.7784 13.6191 18.7784 13.6304 18.8168ZM10.2279 18.0728L10.3231 18.3544H10.6184C10.6351 18.3549 10.6499 18.3657 10.6553 18.3816C10.6606 18.3975 10.6555 18.4151 10.6423 18.4256L10.4023 18.6024L10.4928 18.884C10.4983 18.9005 10.4924 18.9187 10.4781 18.9286C10.4639 18.9387 10.4447 18.938 10.4312 18.9272L10.1912 18.7552L9.95117 18.9272C9.93738 18.9369 9.91895 18.9369 9.90515 18.9272C9.89136 18.9175 9.88513 18.9003 9.88953 18.884L9.97998 18.6024L9.73999 18.4256C9.72681 18.4151 9.72168 18.3975 9.72705 18.3816C9.73242 18.3657 9.74719 18.3549 9.76392 18.3544H10.068L10.1632 18.0728C10.1688 18.0344 10.2168 18.0344 10.2279 18.0728ZM17.0095 18.041C17.021 18.0475 17.028 18.0596 17.028 18.0728L17.1232 18.3544H17.4183C17.4352 18.3549 17.4498 18.3657 17.4552 18.3816C17.4606 18.3975 17.4554 18.4151 17.4424 18.4256L17.2024 18.6024L17.2927 18.884C17.2983 18.9005 17.2924 18.9187 17.2782 18.9286C17.2639 18.9387 17.2448 18.938 17.2312 18.9272L16.9912 18.7552L16.7512 18.9272C16.7374 18.9369 16.719 18.9369 16.7052 18.9272C16.6914 18.9175 16.6852 18.9003 16.6896 18.884L16.7799 18.6024L16.5399 18.4256C16.5269 18.4151 16.5217 18.3975 16.5271 18.3816C16.5325 18.3657 16.5471 18.3549 16.564 18.3544H16.8591L16.9543 18.0728C16.9543 18.0596 16.9614 18.0475 16.9728 18.041C16.9841 18.0344 16.9982 18.0344 17.0095 18.041ZM14.7648 18.0728L14.86 18.3544H15.1552C15.172 18.3549 15.1866 18.3657 15.192 18.3816C15.1974 18.3975 15.1923 18.4151 15.1792 18.4256L14.9392 18.6024L15.0295 18.884C15.0352 18.9005 15.0292 18.9187 15.0149 18.9286C15.0007 18.9387 14.9816 18.938 14.968 18.9272L14.7279 18.7552L14.4879 18.9272C14.4741 18.9369 14.4558 18.9369 14.442 18.9272C14.4282 18.9175 14.422 18.9003 14.4264 18.884L14.5167 18.6024L14.2767 18.4256C14.2636 18.4151 14.2586 18.3975 14.2639 18.3816C14.2693 18.3657 14.284 18.3549 14.3008 18.3544H14.5959L14.6912 18.0728C14.7008 18.0344 14.7535 18.0344 14.7648 18.0728ZM12.496 18.0728L12.5912 18.3544H12.8864C12.9032 18.3549 12.9178 18.3657 12.9232 18.3816C12.9286 18.3975 12.9235 18.4151 12.9104 18.4256L12.6704 18.6024L12.7607 18.884C12.7664 18.9005 12.7604 18.9187 12.7461 18.9286C12.7319 18.9387 12.7128 18.938 12.6992 18.9272L12.4591 18.7552L12.2191 18.9272C12.2053 18.9369 12.187 18.9369 12.1732 18.9272C12.1594 18.9176 12.1532 18.9003 12.1576 18.884L12.2479 18.6024L12.0079 18.4256C11.9949 18.4151 11.9897 18.3975 11.9951 18.3816C12.0005 18.3657 12.0151 18.3549 12.032 18.3544H12.3359L12.4312 18.0728C12.432 18.0344 12.4847 18.0344 12.496 18.0728ZM11.3616 17.352L11.4568 17.6336H11.752C11.7688 17.634 11.7834 17.6449 11.7888 17.6608C11.7942 17.6768 11.7891 17.6943 11.776 17.7048L11.536 17.8816L11.6263 18.1632C11.632 18.1797 11.626 18.1979 11.6117 18.2079C11.5974 18.2179 11.5784 18.2173 11.5648 18.2064L11.3247 18.0344L11.0847 18.2064C11.0709 18.2161 11.0526 18.2161 11.0388 18.2064C11.025 18.1968 11.0188 18.1794 11.0232 18.1632L11.1135 17.8816L10.8735 17.7048C10.8605 17.6943 10.8553 17.6768 10.8607 17.6608C10.8661 17.6449 10.8807 17.634 10.8976 17.6336H11.2015L11.2968 17.352C11.2976 17.3192 11.3503 17.3192 11.3616 17.352ZM18.1624 17.352L18.2576 17.6336H18.5527C18.5696 17.634 18.5842 17.6449 18.5896 17.6608C18.595 17.6768 18.5898 17.6943 18.5768 17.7048L18.3368 17.8816L18.4271 18.1632C18.4327 18.1797 18.4268 18.1979 18.4126 18.2079C18.3983 18.2179 18.3792 18.2173 18.3656 18.2064L18.1256 18.0344L17.8856 18.2064C17.8718 18.2161 17.8534 18.2161 17.8396 18.2064C17.8258 18.1968 17.8196 18.1794 17.824 18.1632L17.9143 17.8816L17.6743 17.7048C17.6613 17.6943 17.6561 17.6768 17.6615 17.6608C17.6669 17.6449 17.6815 17.634 17.6984 17.6336H17.9935L18.0887 17.352C18.1031 17.3192 18.156 17.3192 18.1624 17.352ZM9.09351 17.352L9.18872 17.6336H9.48401C9.50073 17.634 9.5155 17.6449 9.52087 17.6608C9.52625 17.6768 9.52112 17.6943 9.50793 17.7048L9.26794 17.8816L9.3584 18.1632C9.36389 18.1797 9.35803 18.1979 9.34375 18.2079C9.32947 18.2179 9.3103 18.2173 9.29675 18.2064L9.05676 18.0344L8.81677 18.2064C8.80298 18.2161 8.78455 18.2161 8.77075 18.2064C8.75696 18.1968 8.75073 18.1794 8.75513 18.1632L8.84558 17.8816L8.60559 17.7048C8.59241 17.6943 8.58728 17.6768 8.59265 17.6608C8.59802 17.6449 8.61279 17.634 8.62952 17.6336H8.93359L9.02881 17.352C9.03442 17.3192 9.0824 17.3192 9.09351 17.352ZM15.8936 17.352L15.9888 17.6336H16.2839C16.3008 17.634 16.3154 17.6449 16.3208 17.6608C16.3262 17.6768 16.321 17.6943 16.308 17.7048L16.068 17.8816L16.1583 18.1632C16.1639 18.1797 16.158 18.1979 16.1438 18.2079C16.1295 18.2179 16.1104 18.2173 16.0968 18.2064L15.8568 18.0344L15.6168 18.2064C15.603 18.2161 15.5846 18.2161 15.5708 18.2064C15.557 18.1968 15.5508 18.1794 15.5552 18.1632L15.6455 17.8816L15.4055 17.7048C15.3925 17.6943 15.3873 17.6768 15.3927 17.6608C15.3981 17.6449 15.4128 17.634 15.4296 17.6336H15.7247L15.8199 17.352C15.8343 17.3192 15.8872 17.3192 15.8936 17.352ZM13.6304 17.352L13.7256 17.6336H14.0208C14.0376 17.634 14.0522 17.6449 14.0576 17.6608C14.063 17.6768 14.0579 17.6943 14.0448 17.7048L13.8048 17.8816L13.8951 18.1632C13.9008 18.1797 13.8948 18.1979 13.8805 18.2079C13.8663 18.2179 13.8472 18.2173 13.8336 18.2064L13.5935 18.0344L13.3535 18.2064C13.3397 18.2161 13.3214 18.2161 13.3076 18.2064C13.2938 18.1968 13.2876 18.1794 13.292 18.1632L13.3823 17.8816L13.1423 17.7048C13.1293 17.6943 13.1241 17.6768 13.1295 17.6608C13.1349 17.6449 13.1495 17.634 13.1664 17.6336H13.4703L13.5656 17.352C13.5664 17.3192 13.6191 17.3192 13.6304 17.352ZM10.2279 16.6088L10.3231 16.8904H10.6184C10.6351 16.8908 10.6499 16.9017 10.6553 16.9176C10.6606 16.9335 10.6555 16.9511 10.6423 16.9616L10.4023 17.1384L10.4928 17.42C10.4983 17.4365 10.4924 17.4547 10.4781 17.4647C10.4639 17.4747 10.4447 17.4741 10.4312 17.4632L10.1912 17.2912L9.95117 17.4632C9.93738 17.4729 9.91895 17.4729 9.90515 17.4632C9.89136 17.4536 9.88513 17.4363 9.88953 17.42L9.98792 17.14L9.74792 16.9632C9.73486 16.9527 9.72974 16.9351 9.73511 16.9192C9.74048 16.9033 9.75513 16.8925 9.77197 16.892H10.068L10.1632 16.6104C10.1688 16.5704 10.2168 16.5704 10.2279 16.6088ZM16.9912 16.572C17.0115 16.572 17.028 16.5885 17.028 16.6088L17.1232 16.8904H17.4183C17.4352 16.8908 17.4498 16.9017 17.4552 16.9176C17.4606 16.9335 17.4554 16.9511 17.4424 16.9616L17.2024 17.1384L17.2927 17.42C17.2983 17.4365 17.2924 17.4547 17.2782 17.4647C17.2639 17.4747 17.2448 17.4741 17.2312 17.4632L16.9912 17.2912L16.7512 17.4632C16.7374 17.4729 16.719 17.4729 16.7052 17.4632C16.6914 17.4536 16.6852 17.4363 16.6896 17.42L16.7799 17.1384L16.5399 16.9616C16.5269 16.9511 16.5217 16.9335 16.5271 16.9176C16.5325 16.9017 16.5472 16.8908 16.564 16.8904H16.8591L16.9543 16.6088C16.9543 16.5885 16.9709 16.572 16.9912 16.572ZM14.7648 16.6088L14.86 16.8904H15.1552C15.172 16.8908 15.1866 16.9017 15.192 16.9176C15.1974 16.9335 15.1923 16.9511 15.1792 16.9616L14.9392 17.1384L15.0295 17.42C15.0352 17.4365 15.0292 17.4547 15.0149 17.4647C15.0007 17.4747 14.9816 17.4741 14.968 17.4632L14.7279 17.2912L14.4879 17.4632C14.4741 17.4729 14.4558 17.4729 14.442 17.4632C14.4282 17.4535 14.422 17.4362 14.4264 17.42L14.5167 17.1384L14.2767 16.9616C14.2637 16.9511 14.2585 16.9335 14.2639 16.9176C14.2693 16.9017 14.284 16.8908 14.3008 16.8904H14.5959L14.6912 16.6088C14.7008 16.5704 14.7535 16.5704 14.7648 16.6088ZM12.496 16.6088L12.5912 16.8904H12.8864C12.9032 16.8908 12.9178 16.9017 12.9232 16.9176C12.9286 16.9335 12.9235 16.9511 12.9104 16.9616L12.6704 17.1384L12.7607 17.42C12.7664 17.4365 12.7604 17.4547 12.7461 17.4647C12.7319 17.4747 12.7128 17.4741 12.6992 17.4632L12.4591 17.2912L12.2191 17.4632C12.2053 17.4729 12.187 17.4729 12.1732 17.4632C12.1594 17.4536 12.1532 17.4363 12.1576 17.42L12.256 17.14L12.016 16.9632C12.0029 16.9527 11.9977 16.9351 12.0031 16.9192C12.0084 16.9033 12.0232 16.8925 12.0399 16.892H12.3359L12.4312 16.6104C12.432 16.5704 12.4847 16.5704 12.496 16.6088ZM11.3616 15.8928L11.4568 16.1744H11.752C11.7687 16.1748 11.7835 16.1857 11.7888 16.2016C11.7942 16.2175 11.7891 16.2351 11.776 16.2456L11.536 16.4224L11.6263 16.704C11.632 16.7205 11.626 16.7387 11.6117 16.7487C11.5975 16.7587 11.5784 16.7581 11.5648 16.7472L11.3247 16.5752L11.0847 16.7472C11.0709 16.7569 11.0526 16.7569 11.0388 16.7473C11.025 16.7375 11.0188 16.7203 11.0232 16.704L11.1216 16.424L10.8816 16.2472C10.8684 16.2367 10.8633 16.2191 10.8687 16.2032C10.874 16.1873 10.8887 16.1765 10.9055 16.176H11.2015L11.2968 15.8944C11.2976 15.8544 11.3503 15.8544 11.3616 15.8928ZM18.1289 15.8672C18.1447 15.8669 18.1586 15.8775 18.1624 15.8928L18.2576 16.1744H18.5527C18.5696 16.1748 18.5842 16.1857 18.5896 16.2016C18.595 16.2175 18.5898 16.2351 18.5768 16.2456L18.3368 16.4224L18.4271 16.704C18.4327 16.7205 18.4268 16.7387 18.4126 16.7487C18.3983 16.7587 18.3792 16.7581 18.3656 16.7472L18.1256 16.5752L17.8856 16.7472C17.8718 16.7569 17.8534 16.7569 17.8396 16.7473C17.8258 16.7375 17.8196 16.7203 17.824 16.704L17.9224 16.424L17.6824 16.2472C17.6693 16.2367 17.6641 16.2191 17.6694 16.2032C17.6748 16.1873 17.6896 16.1765 17.7064 16.176H18.0016L18.0968 15.8944C18.0997 15.8789 18.1132 15.8676 18.1289 15.8672ZM15.8568 15.856C15.8771 15.856 15.8936 15.8725 15.8936 15.8928L15.9888 16.1744H16.2839C16.3008 16.1748 16.3154 16.1857 16.3208 16.2016C16.3262 16.2175 16.321 16.2351 16.308 16.2456L16.068 16.4224L16.1583 16.704C16.1639 16.7205 16.158 16.7387 16.1438 16.7487C16.1295 16.7587 16.1104 16.7581 16.0968 16.7472L15.8568 16.5752L15.6168 16.7472C15.603 16.7569 15.5846 16.7569 15.5708 16.7473C15.557 16.7375 15.5508 16.7203 15.5552 16.704L15.6455 16.4224L15.4055 16.2456C15.3925 16.2351 15.3873 16.2175 15.3927 16.2016C15.3981 16.1857 15.4127 16.1748 15.4296 16.1744H15.7247L15.8199 15.8928C15.8199 15.8725 15.8364 15.856 15.8568 15.856ZM9.09351 15.8928L9.18872 16.1744H9.48401C9.50073 16.1748 9.5155 16.1857 9.52087 16.2016C9.52625 16.2175 9.52112 16.2351 9.50793 16.2456L9.26794 16.4224L9.3584 16.704C9.36389 16.7205 9.35803 16.7387 9.34375 16.7487C9.32947 16.7587 9.3103 16.7581 9.29675 16.7472L9.05676 16.5752L8.81677 16.7472C8.80299 16.7569 8.78455 16.7569 8.77075 16.7473C8.75696 16.7375 8.75073 16.7203 8.75513 16.704L8.85352 16.424L8.61353 16.2472C8.60046 16.2367 8.59534 16.2191 8.60071 16.2032C8.60608 16.1873 8.62073 16.1765 8.63757 16.176H8.93359L9.02881 15.8944C9.03442 15.8544 9.0824 15.8544 9.09351 15.8928ZM13.6304 15.8928L13.7256 16.1744H14.0208C14.0376 16.1748 14.0522 16.1857 14.0576 16.2016C14.063 16.2175 14.0579 16.2351 14.0448 16.2456L13.8048 16.4224L13.8951 16.704C13.9008 16.7205 13.8948 16.7387 13.8805 16.7487C13.8663 16.7587 13.8472 16.7581 13.8336 16.7472L13.5935 16.5752L13.3535 16.7472C13.3397 16.7569 13.3214 16.7569 13.3076 16.7473C13.2938 16.7375 13.2876 16.7203 13.292 16.704L13.3823 16.4224L13.1423 16.2456C13.1292 16.2351 13.1242 16.2175 13.1295 16.2016C13.1349 16.1857 13.1495 16.1748 13.1664 16.1744H13.4703L13.5656 15.8928C13.5664 15.8544 13.6191 15.8544 13.6304 15.8928ZM10.2279 15.1432L10.3231 15.4248H10.6184C10.6351 15.4252 10.6499 15.4361 10.6553 15.452C10.6606 15.468 10.6555 15.4855 10.6423 15.496L10.4023 15.6728L10.4928 15.9544C10.4983 15.9709 10.4924 15.9891 10.4781 15.9991C10.4639 16.0091 10.4447 16.0085 10.4312 15.9976L10.1912 15.8256L9.95117 15.9976C9.93738 16.0073 9.91895 16.0073 9.90515 15.9976C9.89136 15.988 9.88513 15.9706 9.88953 15.9544L9.97998 15.6728L9.73999 15.496C9.72681 15.4855 9.72168 15.468 9.72705 15.452C9.73242 15.4361 9.74713 15.4252 9.76392 15.4248H10.068L10.1632 15.1432C10.1688 15.1104 10.2168 15.1104 10.2279 15.1432ZM14.7648 15.1432L14.86 15.4248H15.1552C15.172 15.4252 15.1866 15.4361 15.192 15.452C15.1974 15.4679 15.1923 15.4855 15.1792 15.496L14.9392 15.6728L15.0295 15.9544C15.0352 15.9709 15.0292 15.9891 15.0149 15.9991C15.0006 16.0091 14.9816 16.0085 14.968 15.9976L14.7279 15.8256L14.4879 15.9976C14.4741 16.0073 14.4558 16.0073 14.442 15.9976C14.4282 15.988 14.422 15.9706 14.4264 15.9544L14.5167 15.6728L14.2767 15.496C14.2636 15.4855 14.2586 15.4679 14.2639 15.452C14.2693 15.4361 14.2839 15.4252 14.3008 15.4248H14.5959L14.6912 15.1432C14.7008 15.1104 14.7535 15.1104 14.7648 15.1432ZM12.496 15.1432L12.5912 15.4248H12.8864C12.9032 15.4252 12.9178 15.4361 12.9232 15.452C12.9286 15.468 12.9235 15.4855 12.9104 15.496L12.6704 15.6728L12.7607 15.9544C12.7664 15.9709 12.7604 15.9891 12.7461 15.9991C12.7319 16.0091 12.7128 16.0085 12.6992 15.9976L12.4591 15.8256L12.2191 15.9976C12.2053 16.0073 12.187 16.0073 12.1732 15.9976C12.1594 15.988 12.1532 15.9706 12.1576 15.9544L12.2479 15.6728L12.0079 15.496C11.9949 15.4855 11.9897 15.468 11.9951 15.452C12.0005 15.4361 12.0151 15.4252 12.032 15.4248H12.3359L12.4312 15.1432C12.432 15.1104 12.4847 15.1104 12.496 15.1432ZM17.028 15.1432L17.1232 15.4248H17.4183C17.4351 15.4252 17.4498 15.4361 17.4552 15.452C17.4606 15.468 17.4554 15.4855 17.4424 15.496L17.2024 15.6728L17.2927 15.9544C17.2983 15.9709 17.2924 15.9891 17.2782 15.9991C17.2639 16.0091 17.2448 16.0085 17.2312 15.9976L16.9912 15.8256L16.7512 15.9976C16.7374 16.0073 16.719 16.0073 16.7052 15.9976C16.6914 15.988 16.6852 15.9706 16.6896 15.9544L16.7799 15.6728L16.5399 15.496C16.5269 15.4855 16.5217 15.468 16.5271 15.452C16.5325 15.4361 16.5471 15.4252 16.564 15.4248H16.8591L16.9543 15.1432C16.9688 15.1104 17.0216 15.1104 17.028 15.1432ZM13.6304 14.428L13.7256 14.7096H14.0208C14.0376 14.71 14.0522 14.7209 14.0576 14.7368C14.063 14.7527 14.0579 14.7703 14.0448 14.7808L13.8048 14.9576L13.8951 15.2392C13.9008 15.2557 13.8948 15.2739 13.8805 15.2839C13.8663 15.2939 13.8472 15.2933 13.8336 15.2824L13.5935 15.1104L13.3535 15.2824C13.3397 15.2921 13.3214 15.2921 13.3076 15.2824C13.2938 15.2727 13.2876 15.2555 13.292 15.2392L13.3823 14.9576L13.1423 14.7808C13.1293 14.7703 13.1241 14.7527 13.1295 14.7368C13.1349 14.7209 13.1495 14.71 13.1664 14.7096H13.4703L13.5656 14.428C13.5664 14.3952 13.6191 14.3952 13.6304 14.428ZM9.09351 14.428L9.18872 14.7096H9.48401C9.50073 14.71 9.5155 14.7209 9.52087 14.7368C9.52625 14.7527 9.52112 14.7703 9.50793 14.7808L9.26794 14.9576L9.3584 15.2392C9.36389 15.2557 9.35803 15.2739 9.34375 15.2839C9.32947 15.2939 9.3103 15.2933 9.29675 15.2824L9.05676 15.1104L8.81677 15.2824C8.80298 15.2921 8.78455 15.2921 8.77075 15.2824C8.75696 15.2728 8.75073 15.2555 8.75513 15.2392L8.84558 14.9576L8.60559 14.7808C8.59241 14.7703 8.58728 14.7527 8.59265 14.7368C8.59802 14.7209 8.61279 14.71 8.62952 14.7096H8.93359L9.02881 14.428C9.03442 14.3952 9.0824 14.3952 9.09351 14.428ZM11.3647 14.428L11.46 14.7096H11.7567C11.7736 14.71 11.7883 14.7209 11.7937 14.7368C11.7991 14.7527 11.7939 14.7703 11.7808 14.7808L11.5408 14.9576L11.6311 15.2392C11.6367 15.2557 11.6307 15.2739 11.6166 15.2839C11.6023 15.2939 11.5831 15.2933 11.5696 15.2824L11.3296 15.1104L11.0896 15.2824C11.0758 15.2921 11.0574 15.2921 11.0436 15.2824C11.0298 15.2728 11.0236 15.2555 11.028 15.2392L11.1184 14.9576L10.8784 14.7808C10.8653 14.7703 10.8601 14.7527 10.8655 14.7368C10.8708 14.7209 10.8856 14.71 10.9023 14.7096H11.1968L11.292 14.428C11.2976 14.3952 11.3503 14.3952 11.3647 14.428ZM15.8936 14.428L15.9888 14.7096H16.2839C16.3007 14.71 16.3154 14.7209 16.3208 14.7368C16.3262 14.7527 16.321 14.7703 16.308 14.7808L16.068 14.9576L16.1583 15.2392C16.1639 15.2557 16.158 15.2739 16.1438 15.2839C16.1295 15.2939 16.1104 15.2933 16.0968 15.2824L15.8568 15.1104L15.6168 15.2824C15.603 15.2921 15.5846 15.2921 15.5708 15.2824C15.557 15.2727 15.5508 15.2555 15.5552 15.2392L15.6455 14.9576L15.4055 14.7808C15.3925 14.7703 15.3873 14.7527 15.3927 14.7368C15.3981 14.7209 15.4127 14.71 15.4296 14.7096H15.7247L15.8199 14.428C15.8344 14.3952 15.8872 14.3952 15.8936 14.428ZM18.1624 14.428L18.2576 14.7096H18.5527C18.5696 14.71 18.5842 14.7209 18.5896 14.7368C18.595 14.7527 18.5898 14.7703 18.5768 14.7808L18.3368 14.9576L18.4271 15.2392C18.4327 15.2557 18.4268 15.2739 18.4126 15.2839C18.3983 15.2939 18.3792 15.2933 18.3656 15.2824L18.1256 15.1104L17.8856 15.2824C17.8718 15.2921 17.8534 15.2921 17.8396 15.2824C17.8258 15.2728 17.8196 15.2555 17.824 15.2392L17.9143 14.9576L17.6743 14.7808C17.6613 14.7703 17.6561 14.7527 17.6615 14.7368C17.6669 14.7209 17.6815 14.71 17.6984 14.7096H17.9935L18.0887 14.428C18.1031 14.3952 18.156 14.3952 18.1624 14.428ZM14.7648 13.684L14.86 13.9656H15.1552C15.1719 13.9661 15.1867 13.9769 15.192 13.9928C15.1974 14.0087 15.1923 14.0263 15.1792 14.0368L14.9392 14.2136L15.0295 14.4952C15.0352 14.5117 15.0292 14.5299 15.0149 14.5399C15.0007 14.5499 14.9816 14.5493 14.968 14.5384L14.7279 14.3664L14.4879 14.5384C14.4741 14.5481 14.4558 14.5481 14.442 14.5385C14.4282 14.5288 14.422 14.5114 14.4264 14.4952L14.5167 14.2136L14.2767 14.0368C14.2637 14.0263 14.2585 14.0087 14.2639 13.9928C14.2693 13.9769 14.2839 13.966 14.3008 13.9656H14.5959L14.6912 13.684C14.7008 13.6456 14.7535 13.6456 14.7648 13.684ZM12.496 13.684L12.5912 13.9656H12.8864C12.9032 13.966 12.9178 13.9769 12.9232 13.9928C12.9286 14.0087 12.9235 14.0263 12.9104 14.0368L12.6704 14.2136L12.7607 14.4952C12.7664 14.5117 12.7604 14.5299 12.7461 14.5399C12.7319 14.5499 12.7128 14.5493 12.6992 14.5384L12.4591 14.3664L12.2191 14.5384C12.2053 14.5481 12.187 14.5481 12.1732 14.5385C12.1594 14.5287 12.1532 14.5115 12.1576 14.4952L12.256 14.2152L12.016 14.0384C12.0028 14.0279 11.9977 14.0103 12.0031 13.9944C12.0084 13.9785 12.0232 13.9677 12.0399 13.9672H12.3359L12.4312 13.6856C12.432 13.6456 12.4848 13.6456 12.496 13.684ZM10.2279 13.684L10.3231 13.9656H10.6184C10.6351 13.966 10.6499 13.9769 10.6553 13.9928C10.6606 14.0087 10.6555 14.0263 10.6423 14.0368L10.4023 14.2136L10.4928 14.4952C10.4983 14.5117 10.4924 14.5299 10.4781 14.5399C10.4639 14.5499 10.4447 14.5493 10.4312 14.5384L10.1912 14.3664L9.95117 14.5384C9.93738 14.5481 9.91895 14.5481 9.90515 14.5385C9.89136 14.5287 9.88513 14.5115 9.88953 14.4952L9.98792 14.2152L9.74792 14.0384C9.73486 14.0279 9.72974 14.0103 9.73511 13.9944C9.74048 13.9785 9.75513 13.9677 9.77197 13.9672H10.068L10.1632 13.6856C10.1688 13.6456 10.2168 13.6456 10.2279 13.684ZM17.0095 13.6522C17.021 13.6587 17.028 13.6708 17.028 13.684L17.1232 13.9656H17.4183C17.4352 13.966 17.4498 13.9769 17.4552 13.9928C17.4606 14.0087 17.4554 14.0263 17.4424 14.0368L17.2024 14.2136L17.2927 14.4952C17.2983 14.5117 17.2924 14.5299 17.2782 14.5399C17.2639 14.5498 17.2448 14.5493 17.2312 14.5384L16.9912 14.3664L16.7512 14.5384C16.7374 14.5481 16.719 14.5481 16.7052 14.5385C16.6914 14.5287 16.6852 14.5115 16.6896 14.4952L16.7799 14.2136L16.5399 14.0368C16.5269 14.0263 16.5217 14.0087 16.5271 13.9928C16.5325 13.9769 16.5471 13.966 16.564 13.9656H16.8591L16.9543 13.684C16.9543 13.6708 16.9614 13.6587 16.9728 13.6522C16.9841 13.6456 16.9982 13.6456 17.0095 13.6522ZM9.09351 12.9688L9.18872 13.2504H9.48401C9.50073 13.2509 9.5155 13.2617 9.52087 13.2776C9.52625 13.2935 9.52112 13.3111 9.50793 13.3216L9.26794 13.4984L9.3584 13.78C9.36389 13.7965 9.35803 13.8147 9.34375 13.8247C9.32947 13.8347 9.3103 13.834 9.29675 13.8232L9.05676 13.6512L8.81677 13.8232C8.80298 13.8329 8.78455 13.8329 8.77075 13.8232C8.75696 13.8135 8.75073 13.7963 8.75513 13.78L8.85352 13.5L8.61353 13.3232C8.60046 13.3127 8.59534 13.2951 8.60071 13.2792C8.60608 13.2633 8.62073 13.2524 8.63757 13.252H8.93359L9.02881 12.9704C9.03442 12.9304 9.0824 12.9304 9.09351 12.9688ZM11.3616 12.9688L11.4568 13.2504H11.752C11.7688 13.2509 11.7834 13.2617 11.7888 13.2776C11.7942 13.2935 11.7891 13.3111 11.776 13.3216L11.536 13.4984L11.6263 13.78C11.632 13.7965 11.626 13.8147 11.6117 13.8247C11.5975 13.8347 11.5784 13.834 11.5648 13.8232L11.3247 13.6512L11.0847 13.8232C11.0709 13.8329 11.0526 13.8329 11.0388 13.8232C11.025 13.8135 11.0188 13.7963 11.0232 13.78L11.1216 13.5L10.8816 13.3232C10.8684 13.3127 10.8633 13.2951 10.8687 13.2792C10.874 13.2633 10.8888 13.2524 10.9055 13.252H11.2015L11.2968 12.9704C11.2976 12.9304 11.3504 12.9304 11.3616 12.9688ZM13.6304 12.9688L13.7256 13.2504H14.0208C14.0376 13.2509 14.0522 13.2617 14.0576 13.2776C14.063 13.2935 14.0579 13.3111 14.0448 13.3216L13.8048 13.4984L13.8951 13.78C13.9008 13.7965 13.8948 13.8147 13.8805 13.8247C13.8663 13.8347 13.8472 13.834 13.8336 13.8232L13.5935 13.6512L13.3535 13.8232C13.3397 13.8329 13.3214 13.8329 13.3076 13.8232C13.2938 13.8136 13.2876 13.7963 13.292 13.78L13.3823 13.4984L13.1423 13.3216C13.1293 13.3111 13.1241 13.2935 13.1295 13.2776C13.1349 13.2617 13.1495 13.2509 13.1664 13.2504H13.4703L13.5656 12.9688C13.5664 12.9304 13.6191 12.9304 13.6304 12.9688ZM15.8751 12.937C15.8866 12.9435 15.8936 12.9557 15.8936 12.9688L15.9888 13.2504H16.2839C16.3008 13.2509 16.3154 13.2617 16.3208 13.2776C16.3262 13.2935 16.321 13.3111 16.308 13.3216L16.068 13.4984L16.1583 13.78C16.1639 13.7965 16.158 13.8147 16.1438 13.8247C16.1295 13.8347 16.1104 13.834 16.0968 13.8232L15.8568 13.6512L15.6168 13.8232C15.603 13.8329 15.5846 13.8329 15.5708 13.8232C15.557 13.8135 15.5508 13.7963 15.5552 13.78L15.6455 13.4984L15.4055 13.3216C15.3925 13.3111 15.3873 13.2935 15.3927 13.2776C15.3981 13.2617 15.4127 13.2509 15.4296 13.2504H15.7247L15.8199 12.9688C15.8199 12.9557 15.827 12.9435 15.8384 12.937C15.8498 12.9304 15.8637 12.9304 15.8751 12.937ZM18.1289 12.9432C18.1447 12.9429 18.1586 12.9535 18.1624 12.9688L18.2576 13.2504H18.5527C18.5696 13.2509 18.5842 13.2617 18.5896 13.2776C18.595 13.2935 18.5898 13.3111 18.5768 13.3216L18.3368 13.4984L18.4271 13.78C18.4327 13.7965 18.4268 13.8147 18.4126 13.8247C18.3983 13.8347 18.3792 13.834 18.3656 13.8232L18.1256 13.6512L17.8856 13.8232C17.8718 13.8329 17.8534 13.8329 17.8396 13.8232C17.8258 13.8135 17.8196 13.7963 17.824 13.78L17.9224 13.5L17.6824 13.3232C17.6693 13.3127 17.6641 13.2951 17.6694 13.2792C17.6748 13.2633 17.6896 13.2524 17.7064 13.252H18.0016L18.0968 12.9704C18.0997 12.955 18.1132 12.9437 18.1289 12.9432Z" fill="#F5F5F5"/>
<path fill-rule="evenodd" clip-rule="evenodd" d="M30 13H10C9.44772 13 9 13.4477 9 14V26C9 26.5523 9.44772 27 10 27H30C30.5523 27 31 26.5523 31 26V14C31 13.4477 30.5523 13 30 13ZM10 12C8.89539 12 8 12.8954 8 14V26C8 27.1046 8.89543 28 10 28H30C31.1046 28 32 27.1046 32 26V14C32 12.8954 31.1046 12 30 12H10Z" fill="black" fill-opacity="0.08"/>
</svg>
