<svg width="32" height="32" viewBox="0 0 32 32" fill="none" xmlns="http://www.w3.org/2000/svg">
<g clip-path="url(#clip0_8821_16959)">
<path d="M32 16C32 24.8366 24.8366 32 16 32C7.16344 32 0 24.8366 0 16C0 7.16344 7.16344 0 16 0C24.8366 0 32 7.16344 32 16Z" fill="#4D148C"/>
<path fill-rule="evenodd" clip-rule="evenodd" d="M24.8938 18.2918L25.8769 19.3943H28L25.9784 17.1335L27.9723 14.8909H25.9319L24.9764 15.9849L23.9834 14.8909H21.869H19.5996V13.8813H21.869V12.3H17.9319V19.3943H21.869H23.9194L24.8938 18.2918ZM23.873 17.1429L21.869 19.3943V17.809H19.5996V16.4125H21.869V14.8909L23.873 17.1429Z" fill="#FF5A00"/>
<path d="M16.2703 12.3V15.2034H16.2518C15.8841 14.7807 15.4245 14.6335 14.8916 14.6335C13.7996 14.6335 12.977 15.3763 12.6882 16.3577C12.3588 15.2762 11.5094 14.6132 10.2502 14.6132C9.22738 14.6132 8.41998 15.0722 7.9982 15.8202V14.8907H5.88433V13.8815H8.19143V12.3003H4V19.3943H5.88433V16.4125H7.76251C7.70466 16.6418 7.67574 16.8774 7.67643 17.1139C7.67643 18.593 8.80676 19.6325 10.2499 19.6325C11.463 19.6325 12.2631 19.0624 12.6859 18.0246H11.0709C10.8526 18.3369 10.6868 18.4291 10.2501 18.4291C9.74386 18.4291 9.30699 17.9873 9.30699 17.4642H12.5953C12.738 18.6393 13.6535 19.6525 14.91 19.6525C15.4521 19.6525 15.9483 19.386 16.2517 18.9357H16.2699V19.3953H17.9313L17.9319 12.3H16.2703ZM9.3594 16.4337C9.46439 15.9829 9.81386 15.6883 10.2501 15.6883C10.7304 15.6883 11.0621 15.9738 11.1492 16.4337H9.3594ZM15.262 18.3147C14.6498 18.3147 14.2693 17.7443 14.2693 17.1485C14.2693 16.5116 14.6004 15.8998 15.262 15.8998C15.9485 15.8998 16.222 16.512 16.222 17.1485C16.222 17.7519 15.9324 18.3147 15.262 18.3147Z" fill="white"/>
</g>
<defs>
<clipPath id="clip0_8821_16959">
<rect width="32" height="32" fill="white"/>
</clipPath>
</defs>
</svg>
