<svg width="32" height="32" viewBox="0 0 32 32" fill="none" xmlns="http://www.w3.org/2000/svg">
<path d="M0 6C0 4.89543 0.895431 4 2 4H22C23.1046 4 24 4.89543 24 6V18C24 19.1046 23.1046 20 22 20H2C0.89543 20 0 19.1046 0 18V6Z" fill="#0D47A1"/>
<path d="M6.12522 14.6855L6.43755 15.733L7.43847 15.328C7.52388 15.2934 7.6015 15.3924 7.54938 15.4692L6.93794 16.3704L7.87366 16.9128C7.95349 16.9591 7.92578 17.0824 7.8341 17.089L6.7593 17.1652L6.92528 18.2466C6.93944 18.3389 6.82722 18.3938 6.76507 18.325L6.03625 17.5189L5.30744 18.325C5.24528 18.3937 5.13306 18.3388 5.14722 18.2466L5.31321 17.1652L4.23841 17.089C4.14672 17.0824 4.11897 16.9591 4.19885 16.9128L5.13456 16.3704L4.52313 15.4692C4.471 15.3924 4.54863 15.2934 4.63403 15.328L5.63496 15.733L5.94728 14.6855C5.97405 14.5961 6.0986 14.5961 6.12522 14.6855ZM18.435 16.2096L18.5876 16.7212L19.0765 16.5234C19.1181 16.5065 19.1561 16.5548 19.1306 16.5924L18.832 17.0326L19.289 17.2976C19.328 17.3202 19.3145 17.3805 19.2697 17.3836L18.7447 17.4209L18.8257 17.9491C18.8327 17.9942 18.7778 18.021 18.7474 17.9874L18.3914 17.5936L18.0354 17.9874C18.005 18.021 17.9502 17.9942 17.9571 17.9491L18.0382 17.4209L17.5132 17.3836C17.4684 17.3805 17.4548 17.3202 17.4938 17.2976L17.9509 17.0326L17.6523 16.5924C17.6268 16.5548 17.6647 16.5065 17.7064 16.5234L18.1953 16.7212L18.3479 16.2096C18.3611 16.166 18.422 16.166 18.435 16.2096ZM19.6154 12.0847C19.6312 12.0364 19.6985 12.0364 19.7144 12.0847L19.8369 12.4578L20.2241 12.4609C20.2742 12.4613 20.295 12.5262 20.2546 12.5565L19.9431 12.7901L20.0599 13.1651C20.075 13.2137 20.0207 13.2538 19.9799 13.2242L19.6649 12.9955L19.3499 13.2242C19.3091 13.2539 19.2547 13.2137 19.2698 13.1651L19.3866 12.7901L19.0752 12.5565C19.0348 12.5262 19.0556 12.4613 19.1058 12.4609L19.4929 12.4578L19.6154 12.0847ZM15.0329 11.1652L15.1855 11.6769L15.6745 11.4791C15.7161 11.4622 15.7541 11.5105 15.7286 11.5481L15.43 11.9883L15.887 12.2533C15.926 12.2759 15.9125 12.3362 15.8677 12.3393L15.3427 12.3766L15.4238 12.9048C15.4307 12.9499 15.3759 12.9767 15.3455 12.9431L14.9895 12.5493L14.6335 12.9431C14.6031 12.9767 14.5483 12.9499 14.5552 12.9048L14.6363 12.3766L14.1113 12.3393C14.0665 12.3361 14.0529 12.2759 14.0919 12.2533L14.549 11.9883L14.2503 11.5481C14.2248 11.5105 14.2628 11.4622 14.3045 11.4791L14.7934 11.6769L14.946 11.1652C14.959 11.1216 15.0199 11.1216 15.0329 11.1652ZM21.6536 9.48377L21.8062 9.99543L22.2951 9.79763C22.3368 9.78077 22.3748 9.82905 22.3493 9.86663L22.0506 10.3069L22.5077 10.5719C22.5467 10.5944 22.5332 10.6547 22.4883 10.6579L21.9633 10.6951L22.0444 11.2233C22.0514 11.2684 21.9965 11.2952 21.9662 11.2616L21.6101 10.8679L21.2541 11.2616C21.2238 11.2952 21.169 11.2684 21.1759 11.2233L21.257 10.6951L20.732 10.6579C20.6872 10.6547 20.6736 10.5944 20.7126 10.5719L21.1697 10.3069L20.8711 9.86663C20.8456 9.82905 20.8835 9.78077 20.9252 9.79763L21.4142 9.99543L21.5667 9.48377C21.5797 9.44015 21.6406 9.44015 21.6536 9.48377ZM18.435 7.23786L18.5876 7.74953L19.0765 7.55172C19.1181 7.53486 19.1561 7.58315 19.1306 7.62072L18.832 8.06096L19.289 8.32596C19.328 8.34853 19.3145 8.40882 19.2697 8.41196L18.7447 8.4492L18.8257 8.97744C18.8327 9.02253 18.7778 9.04934 18.7474 9.01572L18.3914 8.62196L18.0354 9.01572C18.005 9.04929 17.9502 9.02248 17.9571 8.97744L18.0382 8.4492L17.5132 8.41196C17.4684 8.40877 17.4548 8.34853 17.4938 8.32596L17.9509 8.06096L17.6523 7.62072C17.6268 7.58315 17.6647 7.53486 17.7064 7.55172L18.1953 7.74953L18.3479 7.23786C18.3611 7.19415 18.422 7.19415 18.435 7.23786Z" fill="white"/>
<path d="M5 4V6.13149L1.81538 4.00841C1.04206 4.07919 0.396074 4.5902 0.130201 5.28865L2.69722 7H2.563e-06L0 9H2.69722L2.563e-06 10.7981V12H1.80278L5 9.86852V12H7V9.86852L10.1972 12H12V10.7982L9.30277 9H12V7H9.30277L12 5.20185V4H10.1972L7 6.13149V4H5Z" fill="white"/>
<path d="M5.5 4V7.5H0V8.5H5.5V12H6.5V8.5H12V7.5H6.5V4H5.5Z" fill="#F44336"/>
<path d="M11.5493 4L7.04932 7H7.9507L12 4.30047V4H11.5493Z" fill="#F44336"/>
<path d="M2.563e-06 12L0.450704 12L4.9507 9H4.04932L0 11.6995L2.563e-06 12Z" fill="#F44336"/>
<path d="M0.524331 4.65002L4.0493 7H4.95069L0.92268 4.31466C0.775637 4.40885 0.641733 4.52176 0.524331 4.65002Z" fill="#F44336"/>
<path d="M7.95069 9L12 11.6995V12L11.5493 12L7.0493 9H7.95069Z" fill="#F44336"/>
<path fill-rule="evenodd" clip-rule="evenodd" d="M22 5H2C1.44772 5 1 5.44772 1 6V18C1 18.5523 1.44772 19 2 19H22C22.5523 19 23 18.5523 23 18V6C23 5.44771 22.5523 5 22 5ZM2 4C0.895431 4 0 4.89543 0 6V18C0 19.1046 0.89543 20 2 20H22C23.1046 20 24 19.1046 24 18V6C24 4.89543 23.1046 4 22 4H2Z" fill="black" fill-opacity="0.08"/>
<path d="M8 14C8 12.8954 8.89543 12 10 12H30C31.1046 12 32 12.8954 32 14V26C32 27.1046 31.1046 28 30 28H10C8.89543 28 8 27.1046 8 26V14Z" fill="white"/>
<path fill-rule="evenodd" clip-rule="evenodd" d="M30 13H10C9.44772 13 9 13.4477 9 14V26C9 26.5523 9.44772 27 10 27H30C30.5523 27 31 26.5523 31 26V14C31 13.4477 30.5523 13 30 13ZM10 12C8.89543 12 8 12.8954 8 14V26C8 27.1046 8.89543 28 10 28H30C31.1046 28 32 27.1046 32 26V14C32 12.8954 31.1046 12 30 12H10Z" fill="black" fill-opacity="0.08"/>
<path d="M24.5 20C24.5 22.4853 22.4853 24.5 20 24.5C17.5147 24.5 15.5 22.4853 15.5 20C15.5 17.5147 17.5147 15.5 20 15.5C22.4853 15.5 24.5 17.5147 24.5 20Z" fill="#ED293F"/>
</svg>
