<svg width="32" height="32" viewBox="0 0 32 32" fill="none" xmlns="http://www.w3.org/2000/svg">
<path d="M0 6C0 4.89543 0.895431 4 2 4H22C23.1046 4 24 4.89543 24 6V18C24 19.1046 23.1046 20 22 20H2C0.89543 20 0 19.1046 0 18V6Z" fill="#0D47A1"/>
<path d="M0 6C0 4.89543 0.895431 4 2 4H3.60554L10 8.26297V4.00001H14V8.26297L20.3945 4H22C23.1046 4 24 4.89543 24 6L24 6.4037L18.6056 10H24V14H18.6056L24 17.5963L24 18C24 19.1046 23.1046 20 22 20H20.3944L14 15.737V20H10V15.737L3.60556 20H2C0.89543 20 0 19.1046 0 18L5.126e-06 17.5963L5.39445 14H0L5.126e-06 10H5.39445L5.126e-06 6.40371L0 6Z" fill="white"/>
<path d="M10.7586 4V10.7258H0V13.248H10.7586V20H13.2414V13.248H24V10.7258H13.2414V4H10.7586Z" fill="#F44336"/>
<path d="M22.7641 4.15115L14.069 9.88504H15.589L23.4951 4.67152C23.2955 4.44702 23.046 4.26779 22.7641 4.15115Z" fill="#F44336"/>
<path d="M23.7192 19.0225L16.2369 14.0887H14.7169L23.1404 19.6433C23.3747 19.4803 23.5726 19.2685 23.7192 19.0225Z" fill="#F44336"/>
<path d="M1.19769 19.8326L9.90826 14.0887H8.38818L0.481995 19.3022C0.676422 19.5287 0.920654 19.7111 1.19769 19.8326Z" fill="#F44336"/>
<path d="M0.242645 5.04434L7.5834 9.88504H9.10345L0.793182 4.40498C0.567383 4.57608 0.379059 4.79404 0.242645 5.04434Z" fill="#F44336"/>
<path fill-rule="evenodd" clip-rule="evenodd" d="M22 5H2C1.44772 5 1 5.44772 1 6V18C1 18.5523 1.44772 19 2 19H22C22.5523 19 23 18.5523 23 18V6C23 5.44771 22.5523 5 22 5ZM2 4C0.895431 4 0 4.89543 0 6V18C0 19.1046 0.89543 20 2 20H22C23.1046 20 24 19.1046 24 18V6C24 4.89543 23.1046 4 22 4H2Z" fill="black" fill-opacity="0.08"/>
<path d="M8 14C8 12.8954 8.89543 12 10 12H30C31.1046 12 32 12.8954 32 14V26C32 27.1046 31.1046 28 30 28H10C8.89543 28 8 27.1046 8 26V14Z" fill="#0D47A1"/>
<path d="M25.8265 17.144C25.851 17.0704 25.92 17.0182 25.9999 17.0182C26.0798 17.0182 26.149 17.0703 26.1735 17.1442L26.3415 17.6562L26.8716 17.6602C26.9509 17.6612 27.0201 17.7132 27.0442 17.7878C27.0682 17.8625 27.042 17.9444 26.9799 17.9917L26.5517 18.313L26.7124 18.8286C26.7355 18.9033 26.7093 18.9853 26.6462 19.0322L26.6453 19.0329C26.6134 19.056 26.5756 19.0679 26.5377 19.0679C26.4994 19.0679 26.4625 19.0557 26.4316 19.0337L25.9999 18.72L25.5688 19.0332C25.5378 19.0554 25.4999 19.0679 25.462 19.0679C25.424 19.0679 25.386 19.0559 25.3541 19.0325C25.2912 18.9857 25.2643 18.9035 25.2875 18.8287L25.4482 18.313L25.0205 17.9921C24.9581 17.9447 24.9317 17.8625 24.9556 17.788C24.9797 17.7134 25.0485 17.6611 25.128 17.6602L25.6584 17.6562L25.8265 17.144Z" fill="white"/>
<path d="M28.7231 19.2458C28.7476 19.1722 28.8166 19.1199 28.8965 19.1199C28.9764 19.1199 29.0456 19.172 29.0701 19.246L29.2381 19.758L29.7682 19.762C29.8475 19.7629 29.9167 19.8149 29.9408 19.8896C29.9648 19.9643 29.9386 20.0462 29.8764 20.0935L29.4483 20.4147L29.609 20.9303C29.6321 21.005 29.6059 21.0871 29.5428 21.1339L29.5417 21.1347C29.51 21.1576 29.4724 21.1697 29.4342 21.1697C29.3959 21.1697 29.359 21.1575 29.3282 21.1356L29.3274 21.135L28.8964 20.8218L28.4654 21.135C28.4344 21.1571 28.3965 21.1697 28.3586 21.1697C28.3206 21.1697 28.2826 21.1577 28.2507 21.1343C28.1878 21.0875 28.1609 21.0052 28.1841 20.9305L28.3447 20.4147L27.9171 20.0938C27.8547 20.0465 27.8283 19.9643 27.8522 19.8897C27.8763 19.8151 27.9451 19.7628 28.0246 19.762L28.555 19.758L28.7231 19.2458Z" fill="white"/>
<path d="M22.93 20.0865C22.9545 20.0129 23.0235 19.9606 23.1034 19.9606C23.1833 19.9606 23.2525 20.0127 23.277 20.0867L23.445 20.5987L23.9751 20.6027C24.0544 20.6036 24.1236 20.6556 24.1477 20.7303C24.1717 20.805 24.1455 20.8869 24.0834 20.9342L23.6552 21.2555L23.8159 21.771C23.839 21.8457 23.8128 21.9278 23.7497 21.9746L23.7488 21.9753C23.7169 21.9985 23.6791 22.0104 23.6411 22.0104C23.6028 22.0104 23.5659 21.9982 23.5351 21.9763L23.5343 21.9757L23.1033 21.6625L22.6723 21.9757C22.6413 21.9978 22.6034 22.0104 22.5655 22.0104C22.5275 22.0104 22.4895 21.9984 22.4576 21.975C22.3947 21.9282 22.3678 21.846 22.391 21.7712L22.5517 21.2555L22.124 20.9345C22.0616 20.8872 22.0352 20.805 22.0591 20.7304C22.0832 20.6559 22.152 20.6035 22.2315 20.6027L22.7619 20.5987L22.93 20.0865Z" fill="white"/>
<path d="M25.8265 23.9211C25.851 23.8475 25.92 23.7953 25.9999 23.7953C26.0798 23.7953 26.149 23.8474 26.1735 23.9213L26.3415 24.4334L26.8717 24.4377C26.9513 24.4387 27.0202 24.4908 27.0442 24.5654C27.0679 24.6402 27.042 24.722 26.9799 24.7692L26.5518 25.0901L26.7124 25.6057C26.7355 25.6804 26.7093 25.7624 26.6462 25.8093L26.6453 25.8099C26.6135 25.833 26.5758 25.845 26.5377 25.845C26.4997 25.845 26.4626 25.8329 26.4316 25.8109L25.9998 25.4974L25.5688 25.8103C25.5378 25.8325 25.4999 25.845 25.462 25.845C25.4237 25.845 25.3859 25.8329 25.3541 25.8096C25.2912 25.7628 25.2643 25.6806 25.2875 25.6058L25.4481 25.0901L25.0206 24.7696C24.9582 24.7223 24.9318 24.6406 24.9555 24.5658C24.9795 24.4914 25.0482 24.4386 25.128 24.4377L25.6584 24.4334L25.8265 23.9211Z" fill="white"/>
<path d="M25.8036 17.8551L26 17.2568L26.1963 17.8551L26.8223 17.8599L26.3188 18.2377L26.5068 18.8412L25.9999 18.4728L25.4931 18.841L25.6811 18.2377L25.1776 17.8599L25.8036 17.8551Z" fill="#F44336"/>
<path d="M28.7002 19.9569L28.8965 19.3586L29.0929 19.9569L29.7189 19.9616L29.2154 20.3395L29.4035 20.943L28.8965 20.5746L28.3897 20.9428L28.5777 20.3395L28.0742 19.9616L28.7002 19.9569Z" fill="#F44336"/>
<path d="M22.9071 20.7976L23.1035 20.1993L23.2998 20.7976L23.9258 20.8023L23.4223 21.1802L23.6104 21.7837L23.1034 21.4153L22.5966 21.7835L22.7846 21.1802L22.2811 20.8023L22.9071 20.7976Z" fill="#F44336"/>
<path d="M25.8036 24.6322L26 24.0339L26.1963 24.6322L26.8223 24.6373L26.3188 25.0148L26.5069 25.6184L25.9999 25.2503L25.4931 25.6181L25.6811 25.0148L25.1776 24.6373L25.8036 24.6322Z" fill="#F44336"/>
<path d="M13 12V14.1315L9.81538 12.0084C9.04206 12.0792 8.39607 12.5902 8.1302 13.2887L10.6972 15H8L8 17H10.6972L8 18.7981V20H9.80278L13 17.8685V20H15V17.8685L18.1972 20H20V18.7982L17.3028 17H20V15H17.3028L20 13.2019V12H18.1972L15 14.1315V12H13Z" fill="white"/>
<path d="M13.5 12V15.5H8V16.5H13.5V20H14.5V16.5H20V15.5H14.5V12H13.5Z" fill="#F44336"/>
<path d="M19.5493 12L15.0493 15H15.9507L20 12.3005V12H19.5493Z" fill="#F44336"/>
<path d="M8 20L8.4507 20L12.9507 17H12.0493L8 19.6995L8 20Z" fill="#F44336"/>
<path d="M8.52433 12.65L12.0493 15H12.9507L8.92268 12.3147C8.77564 12.4089 8.64173 12.5218 8.52433 12.65Z" fill="#F44336"/>
<path d="M15.9507 17L20 19.6995V20L19.5493 20L15.0493 17H15.9507Z" fill="#F44336"/>
<path fill-rule="evenodd" clip-rule="evenodd" d="M30 13H10C9.44772 13 9 13.4477 9 14V26C9 26.5523 9.44772 27 10 27H30C30.5523 27 31 26.5523 31 26V14C31 13.4477 30.5523 13 30 13ZM10 12C8.89543 12 8 12.8954 8 14V26C8 27.1046 8.89543 28 10 28H30C31.1046 28 32 27.1046 32 26V14C32 12.8954 31.1046 12 30 12H10Z" fill="black" fill-opacity="0.08"/>
</svg>
