<svg width="32" height="32" viewBox="0 0 32 32" fill="none" xmlns="http://www.w3.org/2000/svg">
<path d="M0 6C0 4.89543 0.895431 4 2 4H22C23.1046 4 24 4.89543 24 6V18C24 19.1046 23.1046 20 22 20H2C0.89543 20 0 19.1046 0 18V6Z" fill="#0D47A1"/>
<path d="M0 6C0 4.89543 0.895431 4 2 4H3.60554L10 8.26297V4.00001H14V8.26297L20.3945 4H22C23.1046 4 24 4.89543 24 6L24 6.4037L18.6056 10H24V14H18.6056L24 17.5963L24 18C24 19.1046 23.1046 20 22 20H20.3944L14 15.737V20H10V15.737L3.60556 20H2C0.89543 20 0 19.1046 0 18L5.126e-06 17.5963L5.39445 14H0L5.126e-06 10H5.39445L5.126e-06 6.40371L0 6Z" fill="white"/>
<path d="M10.7586 4V10.7258H0V13.248H10.7586V20H13.2414V13.248H24V10.7258H13.2414V4H10.7586Z" fill="#F44336"/>
<path d="M22.7641 4.15115L14.069 9.88504H15.589L23.4951 4.67152C23.2955 4.44702 23.046 4.26779 22.7641 4.15115Z" fill="#F44336"/>
<path d="M23.7192 19.0225L16.2369 14.0887H14.7169L23.1404 19.6433C23.3747 19.4803 23.5726 19.2685 23.7192 19.0225Z" fill="#F44336"/>
<path d="M1.19769 19.8326L9.90826 14.0887H8.38818L0.481995 19.3022C0.676422 19.5287 0.920654 19.7111 1.19769 19.8326Z" fill="#F44336"/>
<path d="M0.242645 5.04434L7.5834 9.88504H9.10345L0.793182 4.40498C0.567383 4.57608 0.379059 4.79404 0.242645 5.04434Z" fill="#F44336"/>
<path fill-rule="evenodd" clip-rule="evenodd" d="M22 5H2C1.44772 5 1 5.44772 1 6V18C1 18.5523 1.44772 19 2 19H22C22.5523 19 23 18.5523 23 18V6C23 5.44771 22.5523 5 22 5ZM2 4C0.895431 4 0 4.89543 0 6V18C0 19.1046 0.89543 20 2 20H22C23.1046 20 24 19.1046 24 18V6C24 4.89543 23.1046 4 22 4H2Z" fill="black" fill-opacity="0.08"/>
<path d="M8 14C8 12.8954 8.89543 12 10 12H30C31.1046 12 32 12.8954 32 14V26C32 27.1046 31.1046 28 30 28H10C8.89543 28 8 27.1046 8 26V14Z" fill="#0D47A1"/>
<path d="M14.1252 22.6855L14.4375 23.733L15.4385 23.328C15.5239 23.2934 15.6015 23.3924 15.5494 23.4692L14.9379 24.3704L15.8737 24.9128C15.9535 24.9591 15.9258 25.0824 15.8341 25.089L14.7593 25.1652L14.9253 26.2466C14.9394 26.3389 14.8272 26.3938 14.7651 26.325L14.0363 25.5189L13.3074 26.325C13.2453 26.3937 13.1331 26.3388 13.1472 26.2466L13.3132 25.1652L12.2384 25.089C12.1467 25.0824 12.119 24.9591 12.1988 24.9128L13.1346 24.3704L12.5231 23.4692C12.471 23.3924 12.5486 23.2934 12.634 23.328L13.635 23.733L13.9473 22.6855C13.974 22.5961 14.0986 22.5961 14.1252 22.6855ZM26.435 24.2096L26.5876 24.7212L27.0765 24.5234C27.1181 24.5065 27.1561 24.5548 27.1306 24.5924L26.832 25.0326L27.289 25.2976C27.328 25.3202 27.3145 25.3805 27.2697 25.3836L26.7447 25.4209L26.8257 25.9491C26.8327 25.9942 26.7778 26.021 26.7474 25.9874L26.3914 25.5936L26.0354 25.9874C26.005 26.021 25.9502 25.9942 25.9571 25.9491L26.0382 25.4209L25.5132 25.3836C25.4684 25.3805 25.4548 25.3202 25.4938 25.2976L25.9509 25.0326L25.6523 24.5924C25.6268 24.5548 25.6647 24.5065 25.7064 24.5234L26.1953 24.7212L26.3479 24.2096C26.3611 24.166 26.422 24.166 26.435 24.2096ZM27.6154 20.0847C27.6312 20.0364 27.6985 20.0364 27.7144 20.0847L27.8369 20.4578L28.2241 20.4609C28.2742 20.4613 28.295 20.5262 28.2546 20.5565L27.9431 20.7901L28.0599 21.1651C28.075 21.2137 28.0207 21.2538 27.9799 21.2242L27.6649 20.9955L27.3499 21.2242C27.3091 21.2539 27.2547 21.2137 27.2698 21.1651L27.3866 20.7901L27.0752 20.5565C27.0348 20.5262 27.0556 20.4613 27.1058 20.4609L27.4929 20.4578L27.6154 20.0847ZM23.0329 19.1652L23.1855 19.6769L23.6745 19.4791C23.7161 19.4622 23.7541 19.5105 23.7286 19.5481L23.43 19.9883L23.887 20.2533C23.926 20.2759 23.9125 20.3362 23.8677 20.3393L23.3427 20.3766L23.4238 20.9048C23.4307 20.9499 23.3759 20.9767 23.3455 20.9431L22.9895 20.5493L22.6335 20.9431C22.6031 20.9767 22.5483 20.9499 22.5552 20.9048L22.6363 20.3766L22.1113 20.3393C22.0665 20.3361 22.0529 20.2759 22.0919 20.2533L22.549 19.9883L22.2503 19.5481C22.2248 19.5105 22.2628 19.4622 22.3045 19.4791L22.7934 19.6769L22.946 19.1652C22.959 19.1216 23.0199 19.1216 23.0329 19.1652ZM29.6536 17.4838L29.8062 17.9954L30.2951 17.7976C30.3368 17.7808 30.3748 17.8291 30.3493 17.8666L30.0506 18.3069L30.5077 18.5719C30.5467 18.5944 30.5332 18.6547 30.4883 18.6579L29.9633 18.6951L30.0444 19.2233C30.0514 19.2684 29.9965 19.2952 29.9662 19.2616L29.6101 18.8679L29.2541 19.2616C29.2238 19.2952 29.169 19.2684 29.1759 19.2233L29.257 18.6951L28.732 18.6579C28.6872 18.6547 28.6736 18.5944 28.7126 18.5719L29.1697 18.3069L28.8711 17.8666C28.8456 17.8291 28.8835 17.7808 28.9252 17.7976L29.4142 17.9954L29.5667 17.4838C29.5797 17.4401 29.6406 17.4401 29.6536 17.4838ZM26.435 15.2379L26.5876 15.7495L27.0765 15.5517C27.1181 15.5349 27.1561 15.5831 27.1306 15.6207L26.832 16.061L27.289 16.326C27.328 16.3485 27.3145 16.4088 27.2697 16.412L26.7447 16.4492L26.8257 16.9774C26.8327 17.0225 26.7778 17.0493 26.7474 17.0157L26.3914 16.622L26.0354 17.0157C26.005 17.0493 25.9502 17.0225 25.9571 16.9774L26.0382 16.4492L25.5132 16.412C25.4684 16.4088 25.4548 16.3485 25.4938 16.326L25.9509 16.061L25.6523 15.6207C25.6268 15.5831 25.6647 15.5349 25.7064 15.5517L26.1953 15.7495L26.3479 15.2379C26.3611 15.1941 26.422 15.1941 26.435 15.2379Z" fill="white"/>
<path d="M13 12V14.1315L9.81538 12.0084C9.04206 12.0792 8.39607 12.5902 8.1302 13.2887L10.6972 15H8L8 17H10.6972L8 18.7981V20H9.80278L13 17.8685V20H15V17.8685L18.1972 20H20V18.7982L17.3028 17H20V15H17.3028L20 13.2019V12H18.1972L15 14.1315V12H13Z" fill="white"/>
<path d="M13.5 12V15.5H8V16.5H13.5V20H14.5V16.5H20V15.5H14.5V12H13.5Z" fill="#F44336"/>
<path d="M19.5493 12L15.0493 15H15.9507L20 12.3005V12H19.5493Z" fill="#F44336"/>
<path d="M8 20L8.4507 20L12.9507 17H12.0493L8 19.6995L8 20Z" fill="#F44336"/>
<path d="M8.52433 12.65L12.0493 15H12.9507L8.92268 12.3147C8.77564 12.4089 8.64173 12.5218 8.52433 12.65Z" fill="#F44336"/>
<path d="M15.9507 17L20 19.6995V20L19.5493 20L15.0493 17H15.9507Z" fill="#F44336"/>
<path fill-rule="evenodd" clip-rule="evenodd" d="M30 13H10C9.44772 13 9 13.4477 9 14V26C9 26.5523 9.44772 27 10 27H30C30.5523 27 31 26.5523 31 26V14C31 13.4477 30.5523 13 30 13ZM10 12C8.89543 12 8 12.8954 8 14V26C8 27.1046 8.89543 28 10 28H30C31.1046 28 32 27.1046 32 26V14C32 12.8954 31.1046 12 30 12H10Z" fill="black" fill-opacity="0.08"/>
</svg>
