<svg width="32" height="32" viewBox="0 0 32 32" fill="none" xmlns="http://www.w3.org/2000/svg">
<path d="M0 6C0 4.89543 0.895431 4 2 4H22C23.1046 4 24 4.89543 24 6V18C24 19.1046 23.1046 20 22 20H2C0.89543 20 0 19.1046 0 18V6Z" fill="#0D47A1"/>
<path d="M0 6C0 4.89543 0.895431 4 2 4H3.60554L10 8.26297V4.00001H14V8.26297L20.3945 4H22C23.1046 4 24 4.89543 24 6L24 6.4037L18.6056 10H24V14H18.6056L24 17.5963L24 18C24 19.1046 23.1046 20 22 20H20.3944L14 15.737V20H10V15.737L3.60556 20H2C0.89543 20 0 19.1046 0 18L5.126e-06 17.5963L5.39445 14H0L5.126e-06 10H5.39445L5.126e-06 6.40371L0 6Z" fill="white"/>
<path d="M10.7586 4V10.7258H0V13.248H10.7586V20H13.2414V13.248H24V10.7258H13.2414V4H10.7586Z" fill="#F44336"/>
<path d="M22.7641 4.15115L14.069 9.88504H15.589L23.4951 4.67152C23.2955 4.44702 23.046 4.26779 22.7641 4.15115Z" fill="#F44336"/>
<path d="M23.7192 19.0225L16.2369 14.0887H14.7169L23.1404 19.6433C23.3747 19.4803 23.5726 19.2685 23.7192 19.0225Z" fill="#F44336"/>
<path d="M1.19769 19.8326L9.90826 14.0887H8.38818L0.481995 19.3022C0.676422 19.5287 0.920654 19.7111 1.19769 19.8326Z" fill="#F44336"/>
<path d="M0.242645 5.04434L7.5834 9.88504H9.10345L0.793182 4.40498C0.567383 4.57608 0.379059 4.79404 0.242645 5.04434Z" fill="#F44336"/>
<path fill-rule="evenodd" clip-rule="evenodd" d="M22 5H2C1.44772 5 1 5.44772 1 6V18C1 18.5523 1.44772 19 2 19H22C22.5523 19 23 18.5523 23 18V6C23 5.44771 22.5523 5 22 5ZM2 4C0.895431 4 0 4.89543 0 6V18C0 19.1046 0.89543 20 2 20H22C23.1046 20 24 19.1046 24 18V6C24 4.89543 23.1046 4 22 4H2Z" fill="black" fill-opacity="0.08"/>
<path fill-rule="evenodd" clip-rule="evenodd" d="M14 12H26V28H14V12ZM20.6732 16.3408L20.0012 15.0612V15.0593L20.0007 15.0603L20.0012 15.0612L19.3281 16.3408C19.2372 16.514 19.0403 16.6002 18.8539 16.5484L18.2157 16.3711L18.6326 18.8334C18.6678 19.0419 18.41 19.1648 18.2747 19.004L17.2986 17.8435L17.199 18.3007C17.1473 18.5379 16.9091 18.6813 16.6794 18.6135L15.6399 18.3062L15.8232 19.7025C15.8466 19.8804 15.7561 20.0538 15.5981 20.1341L15.0347 20.4202L17.4901 21.8456C17.7445 21.9933 17.856 22.3064 17.7533 22.5851L17.5435 23.1555L19.6475 22.973C19.7638 22.9629 19.8629 23.0581 19.8595 23.1768L19.7932 25.4646H20.207L20.1406 23.1767C20.1372 23.058 20.2363 22.9628 20.3528 22.9729L22.4578 23.1555L22.2478 22.5851C22.1453 22.3064 22.2567 21.9932 22.5111 21.8456L24.9666 20.4202L24.4031 20.134C24.2451 20.0538 24.1547 19.8804 24.178 19.7025L24.3613 18.3062L23.3218 18.6134C23.0922 18.6813 22.8539 18.5378 22.8021 18.3006L22.7026 17.8435L21.7266 19.004C21.5913 19.1648 21.3335 19.042 21.3688 18.8334L21.7856 16.3711L21.1475 16.5484C20.9609 16.6002 20.7642 16.514 20.6732 16.3408Z" fill="white"/>
<path d="M26 12H30C31.1046 12 32 12.8954 32 14V26C32 27.1046 31.1046 28 30 28H26V12Z" fill="#F44336"/>
<path d="M10 12H14V28H10C8.89543 28 8 27.1046 8 26V14C8 12.8954 8.89543 12 10 12Z" fill="#F44336"/>
<path d="M20.0012 15.0593V15.0612L20.6732 16.3408C20.7642 16.514 20.9609 16.6002 21.1475 16.5484L21.7856 16.3711L21.3688 18.8334C21.3335 19.042 21.5913 19.1648 21.7266 19.004L22.7026 17.8435L22.8021 18.3006C22.8539 18.5378 23.0922 18.6813 23.3218 18.6134L24.3613 18.3062L24.178 19.7025C24.1547 19.8804 24.2451 20.0538 24.4031 20.134L24.9666 20.4202L22.5111 21.8456C22.2567 21.9932 22.1453 22.3064 22.2478 22.5851L22.4578 23.1555L20.3528 22.9729C20.2363 22.9628 20.1372 23.058 20.1406 23.1767L20.207 25.4646H19.7932L19.8595 23.1768C19.8629 23.0581 19.7638 22.9629 19.6475 22.973L17.5435 23.1555L17.7533 22.5851C17.856 22.3064 17.7445 21.9933 17.4901 21.8456L15.0347 20.4202L15.5981 20.1341C15.7561 20.0538 15.8466 19.8804 15.8232 19.7025L15.6399 18.3062L16.6794 18.6135C16.9091 18.6813 17.1473 18.5379 17.199 18.3007L17.2986 17.8435L18.2747 19.004C18.41 19.1648 18.6678 19.0419 18.6326 18.8334L18.2157 16.3711L18.8539 16.5484C19.0403 16.6002 19.2372 16.514 19.3281 16.3408L20.0001 15.0612L20.0007 15.0603L20.0012 15.0593Z" fill="#F44336"/>
<path fill-rule="evenodd" clip-rule="evenodd" d="M30 13H10C9.44772 13 9 13.4477 9 14V26C9 26.5523 9.44772 27 10 27H30C30.5523 27 31 26.5523 31 26V14C31 13.4477 30.5523 13 30 13ZM10 12C8.89543 12 8 12.8954 8 14V26C8 27.1046 8.89543 28 10 28H30C31.1046 28 32 27.1046 32 26V14C32 12.8954 31.1046 12 30 12H10Z" fill="black" fill-opacity="0.08"/>
</svg>
