<svg width="32" height="32" viewBox="0 0 32 32" fill="none" xmlns="http://www.w3.org/2000/svg">
<path d="M0 6C0 4.89543 0.895431 4 2 4H22C23.1046 4 24 4.89543 24 6V18C24 19.1046 23.1046 20 22 20H2C0.89543 20 0 19.1046 0 18V6Z" fill="#0D47A1"/>
<path d="M17.8265 9.14403C17.851 9.07044 17.92 9.01817 17.9999 9.01817C18.0798 9.01817 18.149 9.07026 18.1735 9.14419L18.3415 9.65623L18.8716 9.66022C18.9509 9.66117 19.0201 9.71315 19.0442 9.78783C19.0682 9.86249 19.042 9.94444 18.9799 9.99169L18.5517 10.313L18.7124 10.8286C18.7355 10.9033 18.7093 10.9853 18.6462 11.0322L18.6453 11.0329C18.6134 11.056 18.5756 11.0679 18.5377 11.0679C18.4994 11.0679 18.4625 11.0557 18.4316 11.0337L17.9999 10.72L17.5688 11.0332C17.5378 11.0554 17.4999 11.0679 17.462 11.0679C17.424 11.0679 17.386 11.0559 17.3541 11.0325C17.2912 10.9857 17.2643 10.9035 17.2875 10.8287L17.4482 10.313L17.0205 9.99205C16.9581 9.94474 16.9317 9.86254 16.9556 9.78795C16.9797 9.71338 17.0485 9.66107 17.128 9.66022L17.6584 9.65623L17.8265 9.14403Z" fill="white"/>
<path d="M20.7231 11.2458C20.7476 11.1722 20.8166 11.1199 20.8965 11.1199C20.9764 11.1199 21.0456 11.172 21.0701 11.246L21.2381 11.758L21.7682 11.762C21.8475 11.7629 21.9167 11.8149 21.9408 11.8896C21.9648 11.9643 21.9386 12.0462 21.8764 12.0935L21.4483 12.4147L21.609 12.9303C21.6321 13.005 21.6059 13.0871 21.5428 13.1339L21.5417 13.1347C21.51 13.1576 21.4724 13.1697 21.4342 13.1697C21.3959 13.1697 21.359 13.1575 21.3282 13.1356L21.3274 13.135L20.8964 12.8218L20.4654 13.135C20.4344 13.1571 20.3965 13.1697 20.3586 13.1697C20.3206 13.1697 20.2826 13.1577 20.2507 13.1343C20.1878 13.0875 20.1609 13.0052 20.1841 12.9305L20.3447 12.4147L19.9171 12.0938C19.8547 12.0465 19.8283 11.9643 19.8522 11.8897C19.8763 11.8151 19.9451 11.7628 20.0246 11.762L20.555 11.758L20.7231 11.2458Z" fill="white"/>
<path d="M14.93 12.0865C14.9545 12.0129 15.0235 11.9606 15.1034 11.9606C15.1833 11.9606 15.2525 12.0127 15.277 12.0867L15.445 12.5987L15.9751 12.6027C16.0544 12.6036 16.1236 12.6556 16.1477 12.7303C16.1717 12.805 16.1455 12.8869 16.0834 12.9342L15.6552 13.2555L15.8159 13.771C15.839 13.8457 15.8128 13.9278 15.7497 13.9746L15.7488 13.9753C15.7169 13.9985 15.6791 14.0104 15.6411 14.0104C15.6028 14.0104 15.5659 13.9982 15.5351 13.9763L15.5343 13.9757L15.1033 13.6625L14.6723 13.9757C14.6413 13.9978 14.6034 14.0104 14.5655 14.0104C14.5275 14.0104 14.4895 13.9984 14.4576 13.975C14.3947 13.9282 14.3678 13.846 14.391 13.7712L14.5517 13.2555L14.124 12.9345C14.0616 12.8872 14.0352 12.805 14.0591 12.7304C14.0832 12.6559 14.152 12.6035 14.2315 12.6027L14.7619 12.5987L14.93 12.0865Z" fill="white"/>
<path d="M17.8265 15.9211C17.851 15.8475 17.92 15.7953 17.9999 15.7953C18.0798 15.7953 18.149 15.8474 18.1735 15.9213L18.3415 16.4334L18.8717 16.4377C18.9513 16.4387 19.0202 16.4908 19.0442 16.5654C19.0679 16.6402 19.042 16.722 18.9799 16.7692L18.5518 17.0901L18.7124 17.6057C18.7355 17.6804 18.7093 17.7624 18.6462 17.8093L18.6453 17.8099C18.6135 17.833 18.5758 17.845 18.5377 17.845C18.4997 17.845 18.4626 17.8329 18.4316 17.8109L17.9998 17.4974L17.5688 17.8103C17.5378 17.8325 17.4999 17.845 17.462 17.845C17.4237 17.845 17.3859 17.8329 17.3541 17.8096C17.2912 17.7628 17.2643 17.6806 17.2875 17.6058L17.4481 17.0901L17.0206 16.7696C16.9582 16.7223 16.9318 16.6406 16.9555 16.5658C16.9795 16.4914 17.0482 16.4386 17.128 16.4377L17.6584 16.4334L17.8265 15.9211Z" fill="white"/>
<path d="M17.8036 9.85515L18 9.25681L18.1963 9.85515L18.8223 9.85985L18.3188 10.2377L18.5068 10.8412L17.9999 10.4728L17.4931 10.841L17.6811 10.2377L17.1776 9.85985L17.8036 9.85515Z" fill="#F44336"/>
<path d="M20.7002 11.9569L20.8965 11.3586L21.0929 11.9569L21.7189 11.9616L21.2154 12.3395L21.4035 12.943L20.8965 12.5746L20.3897 12.9428L20.5777 12.3395L20.0742 11.9616L20.7002 11.9569Z" fill="#F44336"/>
<path d="M14.9071 12.7976L15.1035 12.1993L15.2998 12.7976L15.9258 12.8023L15.4223 13.1802L15.6104 13.7837L15.1034 13.4153L14.5966 13.7835L14.7846 13.1802L14.2811 12.8023L14.9071 12.7976Z" fill="#F44336"/>
<path d="M17.8036 16.6322L18 16.0339L18.1963 16.6322L18.8223 16.6373L18.3188 17.0148L18.5069 17.6184L17.9999 17.2503L17.4931 17.6181L17.6811 17.0148L17.1776 16.6373L17.8036 16.6322Z" fill="#F44336"/>
<path d="M5 4V6.13149L1.81538 4.00841C1.04206 4.07919 0.396074 4.5902 0.130201 5.28865L2.69722 7H2.563e-06L0 9H2.69722L2.563e-06 10.7981V12H1.80278L5 9.86852V12H7V9.86852L10.1972 12H12V10.7982L9.30277 9H12V7H9.30277L12 5.20185V4H10.1972L7 6.13149V4H5Z" fill="white"/>
<path d="M5.5 4V7.5H0V8.5H5.5V12H6.5V8.5H12V7.5H6.5V4H5.5Z" fill="#F44336"/>
<path d="M11.5493 4L7.04932 7H7.9507L12 4.30047V4H11.5493Z" fill="#F44336"/>
<path d="M2.563e-06 12L0.450704 12L4.9507 9H4.04932L0 11.6995L2.563e-06 12Z" fill="#F44336"/>
<path d="M0.524331 4.65002L4.0493 7H4.95069L0.92268 4.31466C0.775637 4.40885 0.641733 4.52176 0.524331 4.65002Z" fill="#F44336"/>
<path d="M7.95069 9L12 11.6995V12L11.5493 12L7.0493 9H7.95069Z" fill="#F44336"/>
<path fill-rule="evenodd" clip-rule="evenodd" d="M22 5H2C1.44772 5 1 5.44772 1 6V18C1 18.5523 1.44772 19 2 19H22C22.5523 19 23 18.5523 23 18V6C23 5.44771 22.5523 5 22 5ZM2 4C0.895431 4 0 4.89543 0 6V18C0 19.1046 0.89543 20 2 20H22C23.1046 20 24 19.1046 24 18V6C24 4.89543 23.1046 4 22 4H2Z" fill="black" fill-opacity="0.08"/>
<path d="M8 14C8 12.8954 8.89543 12 10 12H30C31.1046 12 32 12.8954 32 14V26C32 27.1046 31.1046 28 30 28H10C8.89543 28 8 27.1046 8 26V14Z" fill="white"/>
<path fill-rule="evenodd" clip-rule="evenodd" d="M30 13H10C9.44772 13 9 13.4477 9 14V26C9 26.5523 9.44772 27 10 27H30C30.5523 27 31 26.5523 31 26V14C31 13.4477 30.5523 13 30 13ZM10 12C8.89543 12 8 12.8954 8 14V26C8 27.1046 8.89543 28 10 28H30C31.1046 28 32 27.1046 32 26V14C32 12.8954 31.1046 12 30 12H10Z" fill="black" fill-opacity="0.08"/>
<path d="M24.5 20C24.5 22.4853 22.4853 24.5 20 24.5C17.5147 24.5 15.5 22.4853 15.5 20C15.5 17.5147 17.5147 15.5 20 15.5C22.4853 15.5 24.5 17.5147 24.5 20Z" fill="#ED293F"/>
</svg>
