<svg width="32" height="32" viewBox="0 0 32 32" fill="none" xmlns="http://www.w3.org/2000/svg">
<path d="M0 6C0 4.89543 0.895431 4 2 4H22C23.1046 4 24 4.89543 24 6V18C24 19.1046 23.1046 20 22 20H2C0.89543 20 0 19.1046 0 18V6Z" fill="#0D47A1"/>
<path d="M0 6C0 4.89543 0.895431 4 2 4H3.60554L10 8.26297V4.00001H14V8.26297L20.3945 4H22C23.1046 4 24 4.89543 24 6L24 6.4037L18.6056 10H24V14H18.6056L24 17.5963L24 18C24 19.1046 23.1046 20 22 20H20.3944L14 15.737V20H10V15.737L3.60556 20H2C0.89543 20 0 19.1046 0 18L5.126e-06 17.5963L5.39445 14H0L5.126e-06 10H5.39445L5.126e-06 6.40371L0 6Z" fill="white"/>
<path d="M10.7586 4V10.7258H0V13.248H10.7586V20H13.2414V13.248H24V10.7258H13.2414V4H10.7586Z" fill="#F44336"/>
<path d="M22.7641 4.15115L14.069 9.88504H15.589L23.4951 4.67152C23.2955 4.44702 23.046 4.26779 22.7641 4.15115Z" fill="#F44336"/>
<path d="M23.7192 19.0225L16.2369 14.0887H14.7169L23.1404 19.6433C23.3747 19.4803 23.5726 19.2685 23.7192 19.0225Z" fill="#F44336"/>
<path d="M1.19769 19.8326L9.90826 14.0887H8.38818L0.481995 19.3022C0.676422 19.5287 0.920654 19.7111 1.19769 19.8326Z" fill="#F44336"/>
<path d="M0.242645 5.04434L7.5834 9.88504H9.10345L0.793182 4.40498C0.567383 4.57608 0.379059 4.79404 0.242645 5.04434Z" fill="#F44336"/>
<path fill-rule="evenodd" clip-rule="evenodd" d="M22 5H2C1.44772 5 1 5.44772 1 6V18C1 18.5523 1.44772 19 2 19H22C22.5523 19 23 18.5523 23 18V6C23 5.44771 22.5523 5 22 5ZM2 4C0.895431 4 0 4.89543 0 6V18C0 19.1046 0.89543 20 2 20H22C23.1046 20 24 19.1046 24 18V6C24 4.89543 23.1046 4 22 4H2Z" fill="black" fill-opacity="0.08"/>
<path d="M8 14C8 12.8954 8.89543 12 10 12H30C31.1046 12 32 12.8954 32 14V26C32 27.1046 31.1046 28 30 28H10C8.89543 28 8 27.1046 8 26V14Z" fill="white"/>
<path fill-rule="evenodd" clip-rule="evenodd" d="M30 13H10C9.44772 13 9 13.4477 9 14V26C9 26.5523 9.44772 27 10 27H30C30.5523 27 31 26.5523 31 26V14C31 13.4477 30.5523 13 30 13ZM10 12C8.89543 12 8 12.8954 8 14V26C8 27.1046 8.89543 28 10 28H30C31.1046 28 32 27.1046 32 26V14C32 12.8954 31.1046 12 30 12H10Z" fill="black" fill-opacity="0.08"/>
<path d="M24.5 20C24.5 22.4853 22.4853 24.5 20 24.5C17.5147 24.5 15.5 22.4853 15.5 20C15.5 17.5147 17.5147 15.5 20 15.5C22.4853 15.5 24.5 17.5147 24.5 20Z" fill="#ED293F"/>
</svg>
