<svg width="32" height="32" viewBox="0 0 32 32" fill="none" xmlns="http://www.w3.org/2000/svg">
<g clip-path="url(#clip0_17199_3225)">
<circle cx="16" cy="16" r="16" fill="black"/>
<g clip-path="url(#clip1_17199_3225)">
<path d="M5.90386 15.8075H4.65382V15.4196C4.65382 15.1751 4.64195 15.022 4.61819 14.9604C4.59444 14.8989 4.53802 14.8681 4.44895 14.8681C4.37175 14.8681 4.31929 14.8945 4.29158 14.9472C4.26386 15 4.25001 15.1355 4.25001 15.3536V17.4041C4.25001 17.5959 4.26386 17.7221 4.29158 17.7828C4.31929 17.8435 4.37472 17.8738 4.45786 17.8738C4.54891 17.8738 4.61077 17.8395 4.64343 17.7709C4.67609 17.7023 4.69242 17.5686 4.69242 17.3698V16.8631H4.44004V16.2139H5.90386V18.5072H5.11702L5.00122 18.2011C4.9161 18.333 4.80872 18.432 4.67906 18.4979C4.5494 18.5639 4.39649 18.5969 4.22032 18.5969C4.01049 18.5969 3.81403 18.5516 3.63093 18.461C3.44783 18.3704 3.30877 18.2582 3.21375 18.1245C3.11874 17.9908 3.05935 17.8505 3.0356 17.7036C3.01185 17.5567 2.99997 17.3364 2.99997 17.0426V15.7732C2.99997 15.3651 3.02471 15.0686 3.0742 14.8839C3.12369 14.6992 3.26571 14.5298 3.50028 14.3759C3.73485 14.222 4.0382 14.145 4.41035 14.145C4.77655 14.145 5.0804 14.2118 5.3219 14.3455C5.56339 14.4793 5.72076 14.638 5.794 14.8219C5.86724 15.0057 5.90386 15.2727 5.90386 15.6228V15.8075ZM7.3231 16.3617H6.19776V16.1268C6.19776 15.8559 6.2329 15.647 6.30317 15.5001C6.37344 15.3532 6.51448 15.2234 6.72628 15.1108C6.93809 14.9983 7.21323 14.942 7.55172 14.942C7.95752 14.942 8.3153 15.0057 8.52117 15.1333C8.72704 15.2608 8.85075 15.4174 8.89232 15.603C8.93389 15.7886 8.95467 16.1708 8.95468 16.7496V18.5072H7.73582V18.1958C7.66257 18.3207 7.56805 18.4144 7.45226 18.4768C7.33646 18.5393 7.19839 18.5705 7.03805 18.5705C6.82823 18.5705 6.63572 18.5182 6.46054 18.4135C6.28535 18.3088 6.19776 18.0797 6.19776 17.7261V17.4384C6.19776 17.1763 6.24428 16.9977 6.33732 16.9027C6.43035 16.8077 6.66096 16.6969 7.02914 16.5702C7.42306 16.433 7.63387 16.3406 7.66159 16.2931C7.6893 16.2456 7.70315 16.1488 7.70316 16.0028C7.70315 15.8198 7.68781 15.7007 7.65713 15.6452C7.62645 15.5898 7.57548 15.5621 7.50422 15.5621C7.42306 15.5621 7.37258 15.5854 7.35279 15.632C7.33299 15.6787 7.32309 15.7996 7.3231 15.9949V16.3617ZM7.70316 16.842C7.51114 16.9669 7.3998 17.0716 7.36912 17.156C7.33844 17.2405 7.32309 17.3619 7.3231 17.5202C7.32309 17.7014 7.33646 17.8184 7.36318 17.8712C7.3899 17.924 7.44285 17.9504 7.52203 17.9504C7.59725 17.9504 7.64624 17.9297 7.66901 17.8884C7.69177 17.847 7.70315 17.7384 7.70316 17.5624V16.842ZM10.5002 15.0053L10.4794 15.3378C10.5724 15.2059 10.6833 15.1069 10.8119 15.0409C10.9406 14.9749 11.0871 14.942 11.2514 14.942C11.572 14.942 11.8244 15.0739 12.0085 15.3378C12.1095 15.2059 12.2233 15.1069 12.35 15.0409C12.4767 14.9749 12.6172 14.942 12.7716 14.942C12.9755 14.942 13.1442 14.9859 13.2779 15.0739C13.4115 15.1619 13.4971 15.2696 13.5347 15.3972C13.5723 15.5247 13.5911 15.7319 13.5911 16.0186V18.5072H12.4272V16.2245C12.4272 15.9254 12.4158 15.7402 12.393 15.669C12.3703 15.5977 12.3173 15.5621 12.2342 15.5621C12.1491 15.5621 12.0941 15.5973 12.0694 15.6677C12.0446 15.738 12.0323 15.9236 12.0323 16.2245V18.5072H10.8683V16.2825C10.8683 15.9395 10.8589 15.7336 10.8401 15.665C10.8213 15.5964 10.7694 15.5621 10.6842 15.5621C10.6308 15.5621 10.5853 15.5801 10.5477 15.6162C10.5101 15.6523 10.4893 15.6963 10.4853 15.7482C10.4814 15.8001 10.4794 15.9105 10.4794 16.0793V18.5072H9.27647V15.0053H10.5002ZM16.7236 16.8183H15.1707V17.5756C15.1707 17.734 15.1836 17.836 15.2093 17.8818C15.2351 17.9275 15.2846 17.9504 15.3578 17.9504C15.4489 17.9504 15.5097 17.92 15.5404 17.8593C15.5711 17.7986 15.5864 17.6812 15.5864 17.507V17.0452H16.7236V17.3038C16.7236 17.5202 16.7083 17.6865 16.6776 17.8026C16.6469 17.9187 16.5752 18.0427 16.4623 18.1747C16.3495 18.3066 16.2065 18.4056 16.0333 18.4716C15.8601 18.5375 15.6428 18.5705 15.3816 18.5705C15.1282 18.5705 14.9045 18.538 14.7105 18.4729C14.5165 18.4078 14.3656 18.3185 14.2577 18.205C14.1498 18.0916 14.0751 17.9666 14.0335 17.8303C13.992 17.6939 13.9712 17.4956 13.9712 17.2352V16.2139C13.9712 15.9078 14.0177 15.6664 14.1107 15.4895C14.2038 15.3127 14.3562 15.1773 14.568 15.0831C14.7798 14.989 15.0233 14.942 15.2984 14.942C15.6349 14.942 15.9125 14.9987 16.1313 15.1122C16.35 15.2256 16.5034 15.3761 16.5915 15.5634C16.6796 15.7508 16.7236 16.0143 16.7236 16.3538V16.8183ZM15.5211 16.2482V15.9923C15.5211 15.8111 15.5102 15.6941 15.4884 15.6413C15.4667 15.5885 15.4221 15.5621 15.3548 15.5621C15.2717 15.5621 15.2202 15.5845 15.2004 15.6294C15.1806 15.6743 15.1707 15.7952 15.1707 15.9923V16.2482H15.5211Z" fill="white"/>
<path d="M19.805 15.4296H18.644V15.113C18.644 14.9652 18.6292 14.8711 18.5995 14.8306C18.5698 14.7901 18.5203 14.7699 18.451 14.7699C18.3758 14.7699 18.3189 14.7972 18.2803 14.8517C18.2417 14.9063 18.2224 14.9889 18.2224 15.0998C18.2224 15.2423 18.2442 15.3496 18.2877 15.4217C18.3293 15.4939 18.4471 15.5809 18.6411 15.683C19.1973 15.9768 19.5477 16.2178 19.6922 16.4061C19.8367 16.5943 19.9089 16.8978 19.9089 17.3165C19.9089 17.6209 19.8688 17.8452 19.7887 17.9894C19.7085 18.1337 19.5536 18.2547 19.324 18.3523C19.0944 18.4499 18.8271 18.4988 18.5223 18.4988C18.1878 18.4988 17.9022 18.4425 17.6657 18.3299C17.4291 18.2173 17.2742 18.0739 17.201 17.8997C17.1278 17.7255 17.0911 17.4784 17.0911 17.1582V16.8784H18.2521V17.3983C18.2521 17.5584 18.2684 17.6613 18.3011 17.7071C18.3338 17.7528 18.3917 17.7757 18.4748 17.7757C18.5579 17.7757 18.6198 17.7467 18.6604 17.6886C18.701 17.6305 18.7212 17.5443 18.7212 17.43C18.7212 17.1784 18.6826 17.0139 18.6054 16.9365C18.5263 16.8591 18.3313 16.7298 18.0205 16.5486C17.7097 16.3656 17.4649 16.2328 17.3639 16.1501C17.263 16.0674 17.1794 15.953 17.113 15.807C17.0467 15.661 17.0136 15.4745 17.0136 15.2476C17.0136 14.9203 17.0606 14.6291 17.1546 14.4778C17.2486 14.3265 17.4006 14.2082 17.6104 14.1229C17.8202 14.0375 18.1126 13.9949 18.4095 13.9949C18.7341 13.9949 19.0107 14.0415 19.2394 14.1347C19.468 14.228 19.6194 14.3454 19.6937 14.487C19.7679 14.6287 19.805 14.9212 19.805 15.2608V15.4296ZM21.5851 14.44V14.8617H21.9217V15.4159H21.5851V17.4194C21.5851 17.6499 21.5984 17.7783 21.6251 17.8047C21.6519 17.8311 21.7112 17.8443 21.9072 17.8443V18.409H21.4232C21.1501 18.409 20.9551 18.3989 20.8383 18.3787C20.7215 18.3584 20.6186 18.3118 20.5295 18.2388C20.4404 18.1658 20.385 18.0822 20.3632 17.9881C20.3415 17.894 20.3306 17.6728 20.3306 17.3244V15.4159H20.0722V14.8617H20.3306V14.44H21.5851ZM24.9258 16.1369V16.9945C24.9258 17.3095 24.908 17.5404 24.8723 17.6873C24.8367 17.8342 24.7605 17.9714 24.6437 18.099C24.5269 18.2265 24.377 18.3206 24.1939 18.3813C24.0108 18.442 23.8005 18.4724 23.5629 18.4724C23.2977 18.4724 23.073 18.4464 22.8889 18.3945C22.7048 18.3426 22.5618 18.2643 22.4599 18.1596C22.3579 18.055 22.2852 17.9283 22.2416 17.7796C22.1981 17.631 22.1763 17.408 22.1763 17.1107V16.2134C22.1763 15.8879 22.2159 15.6337 22.2951 15.4508C22.3742 15.2678 22.5168 15.1209 22.7226 15.0101C22.9285 14.8992 23.1918 14.8438 23.5124 14.8438C23.7817 14.8438 24.0128 14.8794 24.2058 14.9507C24.3988 15.0219 24.5477 15.1147 24.6526 15.2291C24.7575 15.3434 24.8293 15.4613 24.8679 15.5827C24.9065 15.7041 24.9258 15.8888 24.9258 16.1369ZM23.7262 15.873C23.7262 15.6935 23.7153 15.5805 23.6936 15.5339C23.6718 15.4873 23.6253 15.464 23.554 15.464C23.4828 15.464 23.4352 15.4873 23.4115 15.5339C23.3877 15.5805 23.3759 15.6935 23.3759 15.873V17.4537C23.3759 17.6191 23.3877 17.7269 23.4115 17.777C23.4352 17.8271 23.4818 17.8522 23.551 17.8522C23.6223 17.8522 23.6693 17.8293 23.6921 17.7836C23.7148 17.7379 23.7262 17.6393 23.7262 17.488V15.873ZM26.4791 14.9071L26.4583 15.2159C26.5652 15.091 26.683 14.9977 26.8116 14.9362C26.9403 14.8746 27.0808 14.8438 27.2333 14.8438C27.945 14.818 28.1934 15.2077 28.2019 15.8756V17.3508C28.2019 17.6692 28.1807 17.8958 28.1381 18.0303C27.9023 18.4999 27.2576 18.5744 26.8057 18.38C26.679 18.3184 26.5632 18.2269 26.4583 18.1055V18.9078H25.2587V14.9071H26.4791ZM26.8205 15.9258C26.8205 15.7094 26.8116 15.5783 26.7938 15.5326C26.776 15.4868 26.7265 15.464 26.6453 15.464C26.5662 15.464 26.5152 15.4903 26.4924 15.5431C26.4697 15.5959 26.4583 15.7235 26.4583 15.9258V17.3772C26.4583 17.5883 26.4702 17.7203 26.4939 17.773C26.5177 17.8258 26.5691 17.8522 26.6483 17.8522C26.7255 17.8522 26.7735 17.828 26.7923 17.7796C26.8111 17.7313 26.8205 17.6138 26.8205 17.4273V15.9258Z" fill="#FD0000"/>
<path d="M28.6031 14.892V14.5741H28.7441C28.7724 14.5741 28.7939 14.577 28.8087 14.5827C28.8234 14.5884 28.8352 14.5985 28.844 14.6129C28.8529 14.6274 28.8573 14.6433 28.8573 14.6608C28.8573 14.6834 28.85 14.7024 28.8354 14.7179C28.8208 14.7333 28.7982 14.7432 28.7677 14.7474C28.7788 14.7527 28.7873 14.758 28.7931 14.7632C28.8054 14.7745 28.817 14.7886 28.828 14.8055L28.8833 14.892H28.8304L28.7883 14.8259C28.776 14.8068 28.7659 14.7922 28.758 14.7821C28.75 14.7719 28.7429 14.7649 28.7366 14.7608C28.7303 14.7568 28.7239 14.7539 28.7174 14.7524C28.7126 14.7513 28.7048 14.7508 28.694 14.7508H28.6452V14.892L28.6031 14.892ZM28.6452 14.7144H28.7356C28.7548 14.7144 28.7699 14.7124 28.7807 14.7084C28.7916 14.7045 28.7998 14.6981 28.8054 14.6894C28.8111 14.6806 28.8139 14.6711 28.8139 14.6608C28.8139 14.6458 28.8084 14.6334 28.7975 14.6238C28.7866 14.6141 28.7694 14.6092 28.7458 14.6092H28.6452V14.7144Z" fill="#FF0000"/>
<path d="M28.9769 14.7341C28.9769 14.8758 28.862 14.9907 28.7203 14.9907C28.5786 14.9907 28.4637 14.8758 28.4637 14.7341C28.4637 14.5924 28.5786 14.4775 28.7203 14.4775C28.862 14.4775 28.9769 14.5924 28.9769 14.7341Z" stroke="#FF0000" stroke-width="0.0431852"/>
</g>
</g>
<defs>
<clipPath id="clip0_17199_3225">
<rect width="32" height="32" fill="white"/>
</clipPath>
<clipPath id="clip1_17199_3225">
<rect width="26" height="4.91292" fill="white" transform="translate(3 13.9969)"/>
</clipPath>
</defs>
</svg>
