<svg width="32" height="32" viewBox="0 0 32 32" fill="none" xmlns="http://www.w3.org/2000/svg">
<g clip-path="url(#clip0_8821_16968)">
<path d="M32 16C32 24.8366 24.8366 32 16 32C7.16344 32 0 24.8366 0 16C0 7.16344 7.16344 0 16 0C24.8366 0 32 7.16344 32 16Z" fill="#F6F7F8"/>
<path d="M26.5555 16.6295V15.0298H26.02V14.5048H26.5555V13.5725H27.1285V14.507H27.8785V15.032H27.1285V16.586C27.1285 16.9288 27.2717 17.084 27.5395 17.084C27.6292 17.0881 27.7186 17.0712 27.8005 17.0345L28 17.5265C27.854 17.586 27.697 17.6136 27.5395 17.6075C27.407 17.6233 27.2727 17.6089 27.1465 17.5654C27.0204 17.5219 26.9057 17.4505 26.8111 17.3564C26.7164 17.2623 26.6443 17.1481 26.6 17.0222C26.5558 16.8963 26.5405 16.7621 26.5555 16.6295ZM22.8632 16.0295C22.8515 15.8239 22.8812 15.6181 22.9505 15.4241C23.0198 15.2302 23.1274 15.0522 23.2668 14.9007C23.4062 14.7491 23.5746 14.627 23.7621 14.5418C23.9495 14.4565 24.1521 14.4097 24.358 14.4043C24.567 14.3991 24.7747 14.4386 24.9672 14.5203C25.1596 14.6019 25.3324 14.7238 25.4739 14.8778C25.6154 15.0317 25.7223 15.2141 25.7876 15.4127C25.8528 15.6114 25.8747 15.8217 25.852 16.0295C25.852 16.073 25.846 16.1353 25.846 16.1353H23.4363C23.4341 16.2649 23.4576 16.3937 23.5056 16.5141C23.5536 16.6346 23.625 16.7443 23.7157 16.837C23.8064 16.9296 23.9145 17.0033 24.0339 17.0538C24.1534 17.1044 24.2816 17.1307 24.4113 17.1313C24.5877 17.1417 24.7631 17.0966 24.9128 17.0025C25.0624 16.9084 25.1789 16.7698 25.246 16.6063L25.75 16.826C25.6389 17.0838 25.4519 17.3016 25.214 17.4506C24.976 17.5995 24.6984 17.6726 24.418 17.66C24.2067 17.6637 23.997 17.6237 23.8019 17.5424C23.6069 17.4612 23.4307 17.3405 23.2845 17.188C23.1383 17.0354 23.0252 16.8543 22.9523 16.656C22.8794 16.4577 22.8484 16.2464 22.861 16.0355L22.8632 16.0295ZM24.3453 14.927C24.1375 14.9301 23.9371 15.0049 23.7783 15.1389C23.6194 15.2729 23.5118 15.4577 23.4738 15.662H25.2423C25.2188 15.4467 25.1115 15.2492 24.9437 15.1122C24.7759 14.9753 24.5609 14.9098 24.3453 14.93V14.927ZM20.056 17.1313H20.0312V17.5542H19.483V13.1H20.056V14.507L20.0312 14.93H20.056C20.1718 14.7628 20.3276 14.6273 20.5091 14.5356C20.6907 14.4439 20.8922 14.399 21.0955 14.405C21.5034 14.4282 21.8854 14.6125 22.1576 14.9172C22.4297 15.222 22.5697 15.6223 22.5467 16.0303C22.5695 16.4381 22.4294 16.8382 22.1573 17.1428C21.8852 17.4474 21.5033 17.6315 21.0955 17.6548C20.8926 17.6612 20.6913 17.617 20.5098 17.5262C20.3283 17.4353 20.1723 17.3006 20.056 17.1343V17.1313ZM21.9738 16.0295C21.9909 15.8918 21.9786 15.7521 21.9376 15.6195C21.8966 15.487 21.8279 15.3646 21.7361 15.2607C21.6442 15.1567 21.5313 15.0734 21.4049 15.0164C21.2784 14.9593 21.1412 14.9298 21.0025 14.9298C20.8638 14.9298 20.7266 14.9593 20.6001 15.0164C20.4737 15.0734 20.3608 15.1567 20.2689 15.2607C20.1771 15.3646 20.1084 15.487 20.0674 15.6195C20.0264 15.7521 20.0141 15.8918 20.0312 16.0295C20.0141 16.1672 20.0264 16.3069 20.0674 16.4395C20.1084 16.572 20.1771 16.6944 20.2689 16.7983C20.3608 16.9023 20.4737 16.9856 20.6001 17.0427C20.7266 17.0997 20.8638 17.1292 21.0025 17.1292C21.1412 17.1292 21.2784 17.0997 21.4049 17.0427C21.5313 16.9856 21.6442 16.9023 21.7361 16.7983C21.8279 16.6944 21.8966 16.572 21.9376 16.4395C21.9786 16.3069 21.9909 16.1672 21.9738 16.0295ZM16.1838 16.6295C16.1838 15.938 16.8063 15.5645 17.5225 15.5645C17.8086 15.5586 18.0918 15.6228 18.3475 15.7513V15.671C18.3333 15.4956 18.2621 15.3297 18.145 15.1984C18.0278 15.0671 17.8709 14.9777 17.6983 14.9438C17.5256 14.9098 17.3466 14.9332 17.1884 15.0103C17.0303 15.0874 16.9016 15.2141 16.822 15.371L16.297 15.146C16.4027 14.9104 16.5782 14.713 16.7999 14.5805C17.0215 14.4479 17.2784 14.3867 17.536 14.405C17.7137 14.3902 17.8925 14.4135 18.0605 14.4732C18.2285 14.533 18.3818 14.6279 18.5102 14.7516C18.6386 14.8754 18.7391 15.025 18.8051 15.1907C18.871 15.3563 18.9009 15.5341 18.8927 15.7122V17.555H18.3453V17.132H18.325C18.2173 17.2985 18.0683 17.4344 17.8927 17.5263C17.717 17.6183 17.5205 17.6633 17.3223 17.657C17.1794 17.6699 17.0354 17.6532 16.8992 17.608C16.7631 17.5629 16.6377 17.4901 16.5309 17.3944C16.4241 17.2986 16.3381 17.1819 16.2784 17.0514C16.2187 16.921 16.1865 16.7797 16.1838 16.6362V16.6295ZM18.3505 16.2373C18.1353 16.094 17.8796 16.024 17.6215 16.0378C17.0215 16.0378 16.7815 16.3618 16.7815 16.6378C16.7815 16.9618 17.1175 17.1238 17.4167 17.1238C17.6542 17.1205 17.8818 17.0283 18.0547 16.8654C18.2275 16.7026 18.3331 16.4808 18.3505 16.244V16.2373ZM13.5872 14.5002L13.5625 14.9233H13.5872C13.6921 14.7627 13.8352 14.6306 14.0036 14.539C14.1721 14.4473 14.3607 14.399 14.5525 14.3983C14.7178 14.3908 14.8827 14.4198 15.0354 14.4833C15.1882 14.5468 15.3251 14.6433 15.4363 14.7657C15.5475 14.8882 15.6304 15.0337 15.6789 15.1919C15.7275 15.35 15.7406 15.517 15.7172 15.6807V17.5483H15.1442V15.776C15.1442 15.1408 14.8263 14.9293 14.3905 14.9293C14.1593 14.9476 13.9449 15.057 13.7943 15.2333C13.6437 15.4097 13.5692 15.6386 13.5872 15.8698V17.5565H13.015V13.1H13.5872V14.507V14.5002ZM10.0953 17.1253H10.0705L10.0953 17.5483V18.893H9.52225V14.498H10.0705V14.921H10.0953C10.2111 14.7538 10.3668 14.6183 10.5484 14.5266C10.7299 14.4349 10.9315 14.39 11.1347 14.396C11.5425 14.4194 11.9244 14.6037 12.1963 14.9085C12.4683 15.2132 12.6082 15.6134 12.5852 16.0213C12.608 16.4289 12.468 16.829 12.196 17.1336C11.9241 17.4381 11.5424 17.6223 11.1347 17.6458C10.9327 17.6532 10.7319 17.6104 10.5505 17.5211C10.369 17.4319 10.2126 17.2989 10.0953 17.1343V17.1253ZM12.013 16.0235C12.0301 15.8858 12.0178 15.7461 11.9768 15.6135C11.9359 15.481 11.8672 15.3586 11.7753 15.2547C11.6835 15.1507 11.5706 15.0674 11.4441 15.0104C11.3176 14.9533 11.1805 14.9238 11.0417 14.9238C10.903 14.9238 10.7659 14.9533 10.6394 15.0104C10.5129 15.0674 10.4 15.1507 10.3082 15.2547C10.2163 15.3586 10.1476 15.481 10.1067 15.6135C10.0657 15.7461 10.0534 15.8858 10.0705 16.0235C10.0534 16.1612 10.0657 16.3009 10.1067 16.4335C10.1476 16.566 10.2163 16.6884 10.3082 16.7923C10.4 16.8963 10.5129 16.9796 10.6394 17.0367C10.7659 17.0937 10.903 17.1232 11.0417 17.1232C11.1805 17.1232 11.3176 17.0937 11.4441 17.0367C11.5706 16.9796 11.6835 16.8963 11.7753 16.7923C11.8672 16.6884 11.9359 16.566 11.9768 16.4335C12.0178 16.3009 12.0301 16.1612 12.013 16.0235ZM8.338 17.5483H8.9125V13.1H8.3395L8.338 17.5483ZM5.68075 13.1L4 17.5573H4.63525L5.071 16.3498H6.946L7.375 17.5573H8.01025L6.32875 13.1H5.68075ZM5.992 13.8035H6.0175L6.74575 15.8143H5.26375L5.992 13.8035Z" fill="#ED1C24"/>
</g>
<defs>
<clipPath id="clip0_8821_16968">
<rect width="32" height="32" fill="white"/>
</clipPath>
</defs>
</svg>
