<svg width="32" height="32" viewBox="0 0 32 32" fill="none" xmlns="http://www.w3.org/2000/svg">
<path d="M26 8H6C4.89543 8 4 8.89543 4 10V22C4 23.1046 4.89543 24 6 24H26C27.1046 24 28 23.1046 28 22V10C28 8.89543 27.1046 8 26 8Z" fill="#F0371D"/>
<path d="M19.4772 18.7051C19.9502 20.1609 19.444 21.63 18.3467 21.9866C17.9404 20.7361 17.2374 20.8263 17.042 20.2249C16.8022 19.487 16.7414 19.2996 17.062 18.0328C17.3826 16.7659 16.0926 16.8906 16.6338 16.7148C17.7311 16.3583 19.0042 17.2493 19.4772 18.7051ZM15.6087 17.2353C16.2869 18.1688 15.8328 19.6549 14.5945 20.5546C13.3561 21.4543 11.8024 21.4269 11.1242 20.4935C12.188 19.7206 11.8849 19.08 12.3966 18.7082C13.0243 18.2522 13.1836 18.1364 14.4876 18.0499C15.7915 17.9633 15.2742 16.775 15.6087 17.2353ZM13.2423 19.2836C13.0875 19.396 13.0536 19.6133 13.1667 19.7689C13.2797 19.9245 13.4968 19.9594 13.6516 19.847C13.8064 19.7345 13.8403 19.5172 13.7272 19.3616C13.6142 19.2061 13.3971 19.1711 13.2423 19.2836ZM18.074 19.1628C17.8911 19.2223 17.7907 19.418 17.8499 19.5999C17.909 19.7819 18.1052 19.8812 18.2881 19.8218C18.471 19.7624 18.5713 19.5667 18.5122 19.3847C18.4531 19.2028 18.2569 19.1034 18.074 19.1628ZM10.3138 13.1419C11.3776 13.9148 11.8932 13.4286 12.4048 13.8003C13.0326 14.2564 13.1919 14.3721 13.6772 15.5855C14.1624 16.7989 15.1327 15.9398 14.7983 16.4001C14.1201 17.3335 12.5664 17.3609 11.328 16.4612C10.0897 15.5615 9.63562 14.0754 10.3138 13.1419ZM19.2285 13.4686C20.7591 13.4686 22 14.404 22 15.5579C20.6851 15.5579 20.5538 16.2543 19.9213 16.2543C19.1455 16.2543 18.9485 16.2543 17.8427 15.5579C16.7369 14.8615 16.4569 16.1268 16.4569 15.5579C16.4569 14.404 17.6978 13.4686 19.2285 13.4686ZM11.6347 14.8589C11.5217 15.0145 11.5555 15.2318 11.7103 15.3443C11.8651 15.4567 12.0822 15.4218 12.1953 15.2662C12.3083 15.1106 12.2745 14.8933 12.1197 14.7808C11.9649 14.6684 11.7478 14.7033 11.6347 14.8589ZM17.0354 10.0916C16.6291 11.3421 17.2508 11.6822 17.0554 12.2837C16.8157 13.0216 16.7548 13.2089 15.7508 14.0454C14.7467 14.8819 15.8636 15.5392 15.3225 15.3634C14.2251 15.0068 13.719 13.5376 14.192 12.0819C14.665 10.6261 15.9381 9.73501 17.0354 10.0916ZM19.5749 14.5963C19.3836 14.5963 19.2285 14.7522 19.2285 14.9445C19.2285 15.1368 19.3836 15.2927 19.5749 15.2927C19.7662 15.2927 19.9213 15.1368 19.9213 14.9445C19.9213 14.7522 19.7662 14.5963 19.5749 14.5963ZM15.3711 12.0992C15.312 12.2811 15.4123 12.4768 15.5952 12.5362C15.7781 12.5957 15.9743 12.4963 16.0334 12.3144C16.0926 12.1324 15.9922 11.9367 15.8093 11.8773C15.6264 11.8178 15.4302 11.9172 15.3711 12.0992Z" fill="white"/>
<path fill-rule="evenodd" clip-rule="evenodd" d="M26 9H6C5.44772 9 5 9.44772 5 10V22C5 22.5523 5.44772 23 6 23H26C26.5523 23 27 22.5523 27 22V10C27 9.44771 26.5523 9 26 9ZM6 8C4.89543 8 4 8.89543 4 10V22C4 23.1046 4.89543 24 6 24H26C27.1046 24 28 23.1046 28 22V10C28 8.89543 27.1046 8 26 8H6Z" fill="black" fill-opacity="0.08"/>
<path d="M28.0642 6.72801C27.9415 6.96267 27.7202 7.08001 27.4002 7.08001C27.0802 7.08001 26.8588 6.96267 26.7362 6.72801C26.6135 6.49334 26.5522 6.16267 26.5522 5.73601V4.68001C26.5522 4.25334 26.6135 3.92267 26.7362 3.68801C26.8588 3.45334 27.0802 3.33601 27.4002 3.33601C27.7202 3.33601 27.9415 3.45334 28.0642 3.68801C28.1868 3.92267 28.2482 4.25334 28.2482 4.68001V5.73601C28.2482 6.16267 28.1868 6.49334 28.0642 6.72801Z" fill="#414652"/>
<path fill-rule="evenodd" clip-rule="evenodd" d="M20 0C18.8954 0 18 0.89543 18 2V8C18 9.10457 18.8954 10 20 10H30C31.1046 10 32 9.10457 32 8V2C32 0.895431 31.1046 0 30 0H20ZM25.7762 7.33601C26.1282 7.84267 26.6695 8.09601 27.4002 8.09601C28.1308 8.09601 28.6722 7.84267 29.0242 7.33601C29.3762 6.82934 29.5522 6.12001 29.5522 5.20801C29.5522 4.29601 29.3762 3.58667 29.0242 3.08001C28.6722 2.57334 28.1308 2.32001 27.4002 2.32001C26.6695 2.32001 26.1282 2.57334 25.7762 3.08001C25.4242 3.58667 25.2482 4.29601 25.2482 5.20801C25.2482 6.12001 25.4242 6.82934 25.7762 7.33601ZM21.8433 3.46401H24.3793V2.41601H20.9633L20.7553 5.57601L21.7393 5.71201C21.814 5.62667 21.9206 5.54134 22.0593 5.45601C22.2033 5.36534 22.3846 5.32001 22.6033 5.32001C22.8646 5.32001 23.07 5.39467 23.2193 5.54401C23.3686 5.69334 23.4433 5.89601 23.4433 6.15201V6.21601C23.4433 6.48801 23.3686 6.70667 23.2193 6.87201C23.0753 7.03734 22.8593 7.12001 22.5713 7.12001C22.2833 7.12001 22.054 7.04534 21.8833 6.89601C21.7126 6.74134 21.566 6.55467 21.4433 6.33601L20.5713 7.02401C20.6566 7.16801 20.758 7.30401 20.8753 7.43201C20.9926 7.56001 21.1313 7.67467 21.2913 7.77601C21.4513 7.87201 21.6353 7.94934 21.8433 8.00801C22.0513 8.06667 22.2913 8.09601 22.5633 8.09601C22.9046 8.09601 23.2086 8.04801 23.4753 7.95201C23.742 7.85067 23.966 7.71201 24.1473 7.53601C24.334 7.36001 24.4726 7.15201 24.5633 6.91201C24.6593 6.66667 24.7073 6.40267 24.7073 6.12001C24.7073 5.84267 24.662 5.59467 24.5713 5.37601C24.4806 5.15201 24.358 4.96534 24.2033 4.81601C24.0486 4.66134 23.8673 4.54401 23.6593 4.46401C23.4513 4.38401 23.2273 4.34401 22.9873 4.34401C22.8113 4.34401 22.6593 4.36534 22.5313 4.40801C22.4033 4.45067 22.294 4.51201 22.2033 4.59201C22.1126 4.66667 22.0326 4.76001 21.9633 4.87201C21.8993 4.97867 21.8406 5.09867 21.7873 5.23201H21.7233L21.8433 3.46401Z" fill="#414652"/>
<path d="M24.3793 3.46401H21.8433L21.7233 5.23201H21.7873C21.8406 5.09867 21.8993 4.97867 21.9633 4.87201C22.0326 4.76001 22.1126 4.66667 22.2033 4.59201C22.294 4.51201 22.4033 4.45067 22.5313 4.40801C22.6593 4.36534 22.8113 4.34401 22.9873 4.34401C23.2273 4.34401 23.4513 4.38401 23.6593 4.46401C23.8673 4.54401 24.0486 4.66134 24.2033 4.81601C24.358 4.96534 24.4806 5.15201 24.5713 5.37601C24.662 5.59467 24.7073 5.84267 24.7073 6.12001C24.7073 6.40267 24.6593 6.66667 24.5633 6.91201C24.4726 7.15201 24.334 7.36001 24.1473 7.53601C23.966 7.71201 23.742 7.85067 23.4753 7.95201C23.2086 8.04801 22.9046 8.09601 22.5633 8.09601C22.2913 8.09601 22.0513 8.06667 21.8433 8.00801C21.6353 7.94934 21.4513 7.87201 21.2913 7.77601C21.1313 7.67467 20.9926 7.56001 20.8753 7.43201C20.758 7.30401 20.6566 7.16801 20.5713 7.02401L21.4433 6.33601C21.566 6.55467 21.7126 6.74134 21.8833 6.89601C22.054 7.04534 22.2833 7.12001 22.5713 7.12001C22.8593 7.12001 23.0753 7.03734 23.2193 6.87201C23.3686 6.70667 23.4433 6.48801 23.4433 6.21601V6.15201C23.4433 5.89601 23.3686 5.69334 23.2193 5.54401C23.07 5.39467 22.8646 5.32001 22.6033 5.32001C22.3846 5.32001 22.2033 5.36534 22.0593 5.45601C21.9206 5.54134 21.814 5.62667 21.7393 5.71201L20.7553 5.57601L20.9633 2.41601H24.3793V3.46401Z" fill="white"/>
<path d="M27.4002 8.09601C26.6695 8.09601 26.1282 7.84267 25.7762 7.33601C25.4242 6.82934 25.2482 6.12001 25.2482 5.20801C25.2482 4.29601 25.4242 3.58667 25.7762 3.08001C26.1282 2.57334 26.6695 2.32001 27.4002 2.32001C28.1308 2.32001 28.6722 2.57334 29.0242 3.08001C29.3762 3.58667 29.5522 4.29601 29.5522 5.20801C29.5522 6.12001 29.3762 6.82934 29.0242 7.33601C28.6722 7.84267 28.1308 8.09601 27.4002 8.09601ZM27.4002 7.08001C27.7202 7.08001 27.9415 6.96267 28.0642 6.72801C28.1868 6.49334 28.2482 6.16267 28.2482 5.73601V4.68001C28.2482 4.25334 28.1868 3.92267 28.0642 3.68801C27.9415 3.45334 27.7202 3.33601 27.4002 3.33601C27.0802 3.33601 26.8588 3.45334 26.7362 3.68801C26.6135 3.92267 26.5522 4.25334 26.5522 4.68001V5.73601C26.5522 6.16267 26.6135 6.49334 26.7362 6.72801C26.8588 6.96267 27.0802 7.08001 27.4002 7.08001Z" fill="white"/>
</svg>
