<svg width="32" height="32" viewBox="0 0 32 32" fill="none" xmlns="http://www.w3.org/2000/svg">
<g clip-path="url(#clip0_8821_16977)">
<path fill-rule="evenodd" clip-rule="evenodd" d="M16 32C24.8366 32 32 24.8366 32 16C32 7.16344 24.8366 0 16 0C7.16344 0 0 7.16344 0 16C0 24.8366 7.16344 32 16 32ZM21.3648 12.3325H23.2723L20.6018 19.675H18.7018L21.3648 12.3325ZM15.6722 28H16.0312C19.2055 28 22.2498 26.7357 24.4944 24.4853C26.739 22.2348 28 19.1826 28 16C28 12.8174 26.739 9.76516 24.4944 7.51472C22.2498 5.26428 19.2055 4 16.0312 4H15.4851L13.039 10.75H15.171C15.4396 10.7202 15.7113 10.7639 15.9571 10.8764C16.2029 10.989 16.4138 11.1662 16.5672 11.3893C16.7207 11.6124 16.811 11.8729 16.8286 12.1433C16.8461 12.4137 16.7903 12.6838 16.6671 12.925L13.6749 21.25H11.139L14.378 12.3325H12.4705L9.23146 21.25H6.69557L10.5106 10.75L12.7847 4.4125C10.2214 5.12175 7.96673 6.66662 6.37643 8.80329C4.78613 10.94 3.95079 13.5468 4.00224 16.2123C4.0537 18.8778 4.98902 21.4502 6.6606 23.5236C8.33217 25.597 10.6448 27.0532 13.2335 27.6625L15.4777 21.55L19.39 10.75H24.0877C24.3563 10.7202 24.628 10.7639 24.8738 10.8764C25.1197 10.989 25.3305 11.1662 25.484 11.3893C25.6374 11.6124 25.7277 11.8729 25.7453 12.1433C25.7629 12.4137 25.7071 12.6838 25.5838 12.925L22.9282 20.2375C22.8073 20.5256 22.6076 20.7735 22.3521 20.9526C22.0966 21.1318 21.7959 21.2349 21.4845 21.25H18.1183L15.6722 28Z" fill="#00A1DD"/>
<path d="M23.2723 12.3325H21.3648L18.7018 19.675H20.6018L23.2723 12.3325Z" fill="#F6F7F8"/>
<path d="M16.0312 28H15.6722L18.1183 21.25H21.4845C21.7959 21.2349 22.0966 21.1318 22.3521 20.9526C22.6076 20.7735 22.8073 20.5256 22.9282 20.2375L25.5838 12.925C25.7071 12.6838 25.7629 12.4137 25.7453 12.1433C25.7277 11.8729 25.6374 11.6124 25.484 11.3893C25.3305 11.1662 25.1197 10.989 24.8738 10.8764C24.628 10.7639 24.3563 10.7202 24.0877 10.75H19.39L15.4777 21.55L13.2335 27.6625C10.6448 27.0532 8.33217 25.597 6.6606 23.5236C4.98902 21.4502 4.0537 18.8778 4.00224 16.2123C3.95079 13.5468 4.78613 10.94 6.37643 8.80329C7.96673 6.66662 10.2214 5.12175 12.7847 4.4125L10.5106 10.75L6.69557 21.25H9.23146L12.4705 12.3325H14.378L11.139 21.25H13.6749L16.6671 12.925C16.7903 12.6838 16.8461 12.4137 16.8286 12.1433C16.811 11.8729 16.7207 11.6124 16.5672 11.3893C16.4138 11.1662 16.2029 10.989 15.9571 10.8764C15.7113 10.7639 15.4396 10.7202 15.171 10.75H13.039L15.4851 4H16.0312C19.2055 4 22.2498 5.26428 24.4944 7.51472C26.739 9.76516 28 12.8174 28 16C28 19.1826 26.739 22.2348 24.4944 24.4853C22.2498 26.7357 19.2055 28 16.0312 28Z" fill="#F6F7F8"/>
</g>
<defs>
<clipPath id="clip0_8821_16977">
<rect width="32" height="32" fill="white"/>
</clipPath>
</defs>
</svg>
