<svg width="32" height="32" viewBox="0 0 32 32" fill="none" xmlns="http://www.w3.org/2000/svg">
<g clip-path="url(#clip0_8821_16983)">
<path d="M32 16C32 24.8366 24.8366 32 16 32C7.16344 32 0 24.8366 0 16C0 7.16344 7.16344 0 16 0C24.8366 0 32 7.16344 32 16Z" fill="#54BFF6"/>
<path d="M5.88908 11.1416H4V13.0362H5.88908V11.1416Z" fill="#2868AF"/>
<path d="M5.84195 21.0123V14.1891H4.05371V21.0123H5.84195ZM17.7277 21.0797V19.4076C17.4655 19.4076 17.2436 19.3941 17.0823 19.3672C16.8941 19.3402 16.7529 19.2728 16.6588 19.1784C16.5647 19.084 16.5042 18.9491 16.4705 18.7738C16.4436 18.6053 16.4302 18.3828 16.4302 18.1131V15.7263H17.7277V14.1891H16.4302V11.5259H14.6352V18.1266C14.6352 18.6862 14.6823 19.1581 14.7764 19.5357C14.8705 19.9065 15.0319 20.2099 15.2537 20.4392C15.4756 20.6684 15.7714 20.8302 16.1277 20.9314C16.4907 21.0325 16.9478 21.0797 17.4924 21.0797H17.7277ZM28 21.0123V11H26.205V21.0123H28ZM12.9075 14.8566C12.41 14.3172 11.7109 14.0475 10.8235 14.0475C10.3932 14.0475 10.0033 14.1352 9.647 14.3105C9.29742 14.4858 8.9949 14.7285 8.7596 15.0386L8.65876 15.1667V14.1891H6.89069V21.0123H8.6722V17.3782V17.6277C8.6722 17.5872 8.6722 17.5467 8.6722 17.5063C8.69237 16.8658 8.847 16.3938 9.14279 16.0904C9.45876 15.7668 9.84196 15.605 10.2789 15.605C10.7966 15.605 11.1932 15.7668 11.4554 16.0769C11.7109 16.3871 11.8453 16.8253 11.8453 17.3849V21.0055H13.6537V17.1355C13.6604 16.1646 13.405 15.396 12.9075 14.8566ZM25.2773 17.5872C25.2773 17.095 25.1899 16.6365 25.0218 16.205C24.847 15.7803 24.605 15.4027 24.3025 15.0791C23.9932 14.7554 23.6235 14.506 23.1932 14.3239C22.763 14.1419 22.2857 14.0542 21.768 14.0542C21.2773 14.0542 20.8134 14.1486 20.3831 14.3307C19.9529 14.5195 19.5764 14.7689 19.2605 15.0858C18.9445 15.4027 18.689 15.7803 18.5075 16.2118C18.3193 16.6433 18.2319 17.1085 18.2319 17.6007C18.2319 18.0929 18.3193 18.5581 18.4941 18.9896C18.6689 19.4211 18.9176 19.7987 19.2268 20.1156C19.5361 20.4324 19.9193 20.6886 20.363 20.8707C20.8067 21.0595 21.2974 21.1539 21.8218 21.1539C23.3411 21.1539 24.2823 20.4594 24.847 19.8121L23.5563 18.8278C23.2874 19.1514 22.642 19.5897 21.8353 19.5897C21.331 19.5897 20.9142 19.475 20.5983 19.2391C20.2823 19.0098 20.0672 18.6862 19.9529 18.2884L19.9327 18.2277H25.2773V17.5872ZM19.9462 16.9602C19.9462 16.4612 20.5176 15.5915 21.7479 15.5847C22.9781 15.5847 23.5563 16.4545 23.5563 16.9534L19.9462 16.9602Z" fill="white"/>
</g>
<defs>
<clipPath id="clip0_8821_16983">
<rect width="32" height="32" fill="white"/>
</clipPath>
</defs>
</svg>
