<svg width="32" height="32" viewBox="0 0 32 32" fill="none" xmlns="http://www.w3.org/2000/svg">
<path d="M19.9999 11C19.9999 15.97 15.9709 19.9989 11.0009 19.9989C6.03094 19.9989 2.00195 15.97 2.00195 11C2.00195 6.02996 6.03094 2.00098 11.0009 2.00098C15.9709 2.00098 19.9999 6.02996 19.9999 11Z" fill="#131F37"/>
<path d="M13.3348 7.63331C13.2499 7.69032 13.1501 7.72091 13.0478 7.72121C12.9105 7.72136 12.7787 7.66697 12.6814 7.56999C12.5841 7.473 12.5294 7.34135 12.5291 7.20399C12.5291 7.10176 12.5594 7.00183 12.6162 6.9168C12.6729 6.83178 12.7536 6.76549 12.8481 6.7263C12.9425 6.68711 13.0464 6.67678 13.1467 6.69662C13.247 6.71645 13.3391 6.76556 13.4115 6.83774C13.4839 6.90993 13.5333 7.00195 13.5534 7.10218C13.5735 7.20241 13.5635 7.30635 13.5246 7.40089C13.4857 7.49542 13.4196 7.5763 13.3348 7.63331Z" fill="white"/>
<path d="M13.9183 14.939C13.8334 14.996 13.7335 15.0265 13.6312 15.0268C13.494 15.0268 13.3623 14.9725 13.2652 14.8757C13.168 14.7788 13.1132 14.6474 13.1128 14.5102C13.1127 14.4079 13.1429 14.3079 13.1996 14.2228C13.2563 14.1377 13.3369 14.0713 13.4314 14.032C13.5258 13.9927 13.6297 13.9823 13.7301 14.0021C13.8304 14.0219 13.9226 14.071 13.9951 14.1432C14.0675 14.2154 14.1169 14.3074 14.1371 14.4077C14.1572 14.508 14.1472 14.612 14.1082 14.7065C14.0693 14.8011 14.0032 14.882 13.9183 14.939Z" fill="white"/>
<path d="M13.1958 9.01414C13.2816 9.0139 13.3655 8.98824 13.4367 8.94039C13.5079 8.89255 13.5634 8.82467 13.596 8.74533C13.6287 8.66598 13.6371 8.57873 13.6203 8.49461C13.6034 8.41048 13.5619 8.33324 13.5012 8.27265C13.4404 8.21205 13.3631 8.17083 13.2789 8.15418C13.1947 8.13752 13.1075 8.14619 13.0282 8.17908C12.949 8.21197 12.8813 8.26761 12.8336 8.33898C12.786 8.41034 12.7605 8.49422 12.7605 8.58003C12.7606 8.63713 12.7719 8.69366 12.7938 8.74639C12.8157 8.79912 12.8478 8.84701 12.8882 8.88733C12.9286 8.92765 12.9766 8.9596 13.0294 8.98136C13.0822 9.00312 13.1387 9.01426 13.1958 9.01414Z" fill="white"/>
<path d="M14.5943 9.10678C14.523 9.15458 14.4391 9.1802 14.3533 9.18037C14.2381 9.18045 14.1275 9.13477 14.046 9.05337C13.9644 8.97197 13.9185 8.8615 13.9183 8.74626C13.9183 8.66044 13.9438 8.57655 13.9914 8.50518C14.0391 8.43381 14.1068 8.37817 14.1861 8.34529C14.2654 8.3124 14.3526 8.30376 14.4368 8.32043C14.521 8.33711 14.5983 8.37837 14.6591 8.43899C14.7198 8.49961 14.7612 8.57687 14.7781 8.66102C14.7949 8.74517 14.7865 8.83243 14.7538 8.91177C14.721 8.99111 14.6655 9.05897 14.5943 9.10678Z" fill="white"/>
<path d="M13.048 10.1136C13.1211 10.1135 13.1925 10.0917 13.2532 10.051C13.3139 10.0103 13.3612 9.95256 13.389 9.88501C13.4169 9.81747 13.4242 9.74317 13.4098 9.67151C13.3955 9.59985 13.3602 9.53405 13.3085 9.48242C13.2568 9.43079 13.191 9.39565 13.1193 9.38144C13.0476 9.36722 12.9733 9.37458 12.9058 9.40257C12.8383 9.43056 12.7806 9.47794 12.74 9.5387C12.6994 9.59947 12.6778 9.67091 12.6778 9.74399C12.6779 9.84207 12.717 9.93608 12.7864 10.0054C12.8558 10.0747 12.9499 10.1136 13.048 10.1136Z" fill="white"/>
<path d="M14.4105 10.2076C14.3498 10.2483 14.2784 10.2701 14.2053 10.2703C14.1568 10.2704 14.1087 10.2609 14.0637 10.2424C14.0188 10.2239 13.978 10.1967 13.9436 10.1624C13.9092 10.1281 13.8819 10.0874 13.8632 10.0425C13.8446 9.99766 13.8349 9.94958 13.8348 9.901C13.8348 9.82792 13.8564 9.75647 13.8969 9.69567C13.9375 9.63487 13.9951 9.58745 14.0626 9.5594C14.1301 9.53135 14.2043 9.52394 14.276 9.53809C14.3477 9.55225 14.4136 9.58734 14.4654 9.63893C14.5171 9.69051 14.5524 9.75629 14.5668 9.82793C14.5812 9.89958 14.574 9.97388 14.5462 10.0415C14.5184 10.109 14.4711 10.1668 14.4105 10.2076Z" fill="white"/>
<path d="M15.1314 10.6306C15.2045 10.6305 15.2759 10.6087 15.3366 10.568C15.3973 10.5273 15.4446 10.4696 15.4725 10.402C15.5003 10.3345 15.5076 10.2602 15.4933 10.1885C15.4789 10.1169 15.4437 10.0511 15.392 9.99944C15.3402 9.94781 15.2744 9.91266 15.2027 9.89845C15.131 9.88424 15.0567 9.89159 14.9892 9.91958C14.9217 9.94758 14.864 9.99495 14.8235 10.0557C14.7829 10.1165 14.7612 10.1879 14.7612 10.261C14.7614 10.3591 14.8004 10.4531 14.8699 10.5224C14.9393 10.5917 15.0333 10.6306 15.1314 10.6306Z" fill="white"/>
<path d="M14.0425 11.1022C13.9894 11.1378 13.9269 11.1569 13.863 11.157C13.7772 11.1571 13.6949 11.1231 13.6341 11.0625C13.5734 11.0019 13.5391 10.9197 13.539 10.8339C13.5389 10.77 13.5578 10.7074 13.5933 10.6542C13.6288 10.601 13.6792 10.5595 13.7383 10.535C13.7973 10.5104 13.8623 10.5039 13.9251 10.5163C13.9878 10.5287 14.0455 10.5594 14.0908 10.6046C14.136 10.6498 14.1669 10.7073 14.1795 10.77C14.1921 10.8327 14.1858 10.8978 14.1614 10.9569C14.137 11.016 14.0956 11.0666 14.0425 11.1022Z" fill="white"/>
<path d="M12.7056 10.9999C12.7696 10.9999 12.8321 10.9809 12.8852 10.9453C12.9384 10.9097 12.9798 10.8592 13.0042 10.8001C13.0286 10.741 13.035 10.676 13.0225 10.6132C13.01 10.5505 12.9792 10.4929 12.9339 10.4477C12.8887 10.4025 12.831 10.3718 12.7683 10.3593C12.7056 10.3469 12.6406 10.3533 12.5815 10.3778C12.5224 10.4022 12.4719 10.4437 12.4364 10.4969C12.4009 10.5501 12.3819 10.6126 12.3819 10.6765C12.3821 10.7623 12.4163 10.8445 12.4769 10.9051C12.5376 10.9658 12.6199 10.9998 12.7056 10.9999Z" fill="white"/>
<path d="M14.9777 11.4625C14.9246 11.4981 14.8621 11.5172 14.7982 11.5173C14.7124 11.5174 14.63 11.4834 14.5693 11.4228C14.5085 11.3622 14.4743 11.28 14.4741 11.1942C14.4741 11.1303 14.493 11.0677 14.5285 11.0145C14.5639 10.9613 14.6144 10.9198 14.6734 10.8953C14.7325 10.8707 14.7975 10.8642 14.8602 10.8766C14.923 10.889 14.9806 10.9197 15.0259 10.9649C15.0712 11.0101 15.1021 11.0676 15.1147 11.1303C15.1272 11.193 15.1209 11.2581 15.0965 11.3172C15.0722 11.3763 15.0308 11.4269 14.9777 11.4625Z" fill="white"/>
<path d="M13.4001 11.8313C13.4549 11.8312 13.5084 11.8149 13.5539 11.7843C13.5995 11.7538 13.6349 11.7105 13.6558 11.6598C13.6767 11.6091 13.6821 11.5534 13.6713 11.4997C13.6605 11.446 13.6341 11.3966 13.5953 11.3579C13.5565 11.3192 13.5071 11.2929 13.4534 11.2822C13.3996 11.2716 13.3439 11.2771 13.2933 11.2981C13.2427 11.3191 13.1994 11.3546 13.169 11.4002C13.1385 11.4458 13.1223 11.4993 13.1223 11.5541C13.1223 11.5906 13.1296 11.6267 13.1435 11.6603C13.1575 11.694 13.178 11.7245 13.2038 11.7503C13.2296 11.776 13.2602 11.7964 13.2939 11.8103C13.3276 11.8242 13.3637 11.8314 13.4001 11.8313Z" fill="white"/>
<path d="M14.4884 12.1355C14.4429 12.166 14.3893 12.1824 14.3345 12.1825C14.261 12.1825 14.1904 12.1533 14.1383 12.1013C14.0862 12.0494 14.0569 11.9789 14.0567 11.9053C14.0567 11.8505 14.073 11.7969 14.1034 11.7513C14.1338 11.7058 14.1771 11.6702 14.2277 11.6492C14.2783 11.6282 14.334 11.6227 14.3878 11.6334C14.4415 11.644 14.4909 11.6703 14.5297 11.7091C14.5685 11.7478 14.595 11.7971 14.6057 11.8508C14.6165 11.9046 14.6111 11.9603 14.5902 12.0109C14.5693 12.0616 14.5339 12.1049 14.4884 12.1355Z" fill="white"/>
<path d="M12.2515 11.6647C12.3063 11.6647 12.3599 11.6484 12.4055 11.6179C12.451 11.5874 12.4865 11.5441 12.5074 11.4934C12.5284 11.4428 12.5338 11.387 12.5231 11.3333C12.5123 11.2795 12.4859 11.2302 12.4471 11.1914C12.4084 11.1527 12.359 11.1263 12.3052 11.1156C12.2514 11.105 12.1957 11.1105 12.1451 11.1315C12.0944 11.1524 12.0512 11.188 12.0207 11.2336C11.9903 11.2791 11.974 11.3327 11.974 11.3875C11.9741 11.4611 12.0034 11.5316 12.0554 11.5836C12.1074 11.6355 12.178 11.6647 12.2515 11.6647Z" fill="white"/>
<path d="M13.02 12.2445C12.9821 12.27 12.9375 12.2837 12.8918 12.2838C12.8614 12.2839 12.8314 12.278 12.8033 12.2664C12.7752 12.2548 12.7497 12.2379 12.7282 12.2164C12.7067 12.195 12.6896 12.1696 12.6779 12.1415C12.6663 12.1135 12.6602 12.0834 12.6602 12.0531C12.6601 12.0074 12.6736 11.9627 12.6989 11.9247C12.7243 11.8867 12.7603 11.857 12.8025 11.8395C12.8446 11.822 12.8911 11.8173 12.9359 11.8261C12.9807 11.835 13.0219 11.8569 13.0542 11.8891C13.0866 11.9213 13.1087 11.9625 13.1177 12.0072C13.1267 12.052 13.1222 12.0985 13.1048 12.1407C13.0874 12.1829 13.0579 12.2191 13.02 12.2445Z" fill="white"/>
<path d="M13.2887 12.92C13.3288 12.9199 13.368 12.9079 13.4013 12.8855C13.4346 12.8631 13.4606 12.8313 13.4759 12.7942C13.4911 12.7571 13.4951 12.7163 13.4872 12.6769C13.4793 12.6376 13.4599 12.6014 13.4315 12.5731C13.403 12.5447 13.3668 12.5255 13.3275 12.5177C13.2881 12.5099 13.2473 12.5139 13.2102 12.5293C13.1731 12.5447 13.1414 12.5707 13.1191 12.6041C13.0968 12.6375 13.0849 12.6768 13.0849 12.7169C13.0849 12.7436 13.0902 12.7701 13.1005 12.7948C13.1107 12.8195 13.1257 12.8419 13.1446 12.8607C13.1636 12.8796 13.186 12.8946 13.2107 12.9047C13.2355 12.9149 13.2619 12.9201 13.2887 12.92Z" fill="white"/>
<path d="M12.8897 13.022C12.8624 13.0403 12.8303 13.0501 12.7974 13.0502C12.7533 13.0502 12.711 13.0327 12.6798 13.0015C12.6486 12.9703 12.631 12.9281 12.6309 12.884C12.6309 12.8511 12.6407 12.819 12.6589 12.7917C12.6772 12.7643 12.7031 12.743 12.7334 12.7304C12.7638 12.7179 12.7972 12.7145 12.8294 12.7209C12.8617 12.7273 12.8913 12.7431 12.9145 12.7663C12.9378 12.7895 12.9536 12.8191 12.9601 12.8514C12.9665 12.8836 12.9633 12.917 12.9508 12.9474C12.9382 12.9777 12.917 13.0037 12.8897 13.022Z" fill="white"/>
<path d="M12.363 12.57C12.4032 12.5698 12.4424 12.5578 12.4757 12.5354C12.509 12.5131 12.5349 12.4813 12.5502 12.4442C12.5655 12.4071 12.5694 12.3662 12.5615 12.3269C12.5536 12.2875 12.5342 12.2514 12.5058 12.223C12.4774 12.1947 12.4412 12.1754 12.4018 12.1676C12.3624 12.1598 12.3216 12.1639 12.2845 12.1793C12.2475 12.1947 12.2158 12.2207 12.1935 12.2541C12.1712 12.2875 12.1593 12.3267 12.1593 12.3669C12.1593 12.3936 12.1646 12.42 12.1749 12.4447C12.1852 12.4693 12.2002 12.4917 12.2191 12.5106C12.238 12.5295 12.2605 12.5444 12.2851 12.5546C12.3098 12.5648 12.3363 12.57 12.363 12.57Z" fill="white"/>
<path d="M11.8615 12.0875C11.8236 12.1129 11.779 12.1266 11.7333 12.1267C11.7029 12.1267 11.6728 12.1208 11.6447 12.1092C11.6167 12.0976 11.5911 12.0806 11.5696 12.0592C11.5481 12.0377 11.5311 12.0122 11.5194 11.9842C11.5077 11.9561 11.5017 11.9261 11.5017 11.8957C11.5017 11.85 11.5152 11.8054 11.5406 11.7674C11.5659 11.7294 11.602 11.6998 11.6441 11.6823C11.6863 11.6648 11.7327 11.6602 11.7775 11.6691C11.8223 11.6779 11.8635 11.6999 11.8958 11.7321C11.9282 11.7644 11.9502 11.8055 11.9592 11.8503C11.9682 11.895 11.9637 11.9415 11.9463 11.9837C11.9289 12.0259 11.8994 12.062 11.8615 12.0875Z" fill="white"/>
<path d="M11.7238 10.3904C11.7694 10.3903 11.814 10.3766 11.8519 10.3512C11.8899 10.3257 11.9194 10.2896 11.9368 10.2474C11.9542 10.2051 11.9586 10.1587 11.9497 10.1139C11.9407 10.0692 11.9186 10.0281 11.8863 9.99582C11.854 9.96358 11.8128 9.94163 11.768 9.93277C11.7232 9.9239 11.6768 9.92851 11.6346 9.94601C11.5925 9.96352 11.5564 9.99313 11.5311 10.0311C11.5057 10.0691 11.4922 10.1137 11.4922 10.1594C11.4922 10.1898 11.4982 10.2198 11.5099 10.2479C11.5215 10.2759 11.5386 10.3014 11.5601 10.3228C11.5816 10.3443 11.6072 10.3613 11.6352 10.3729C11.6633 10.3845 11.6934 10.3904 11.7238 10.3904Z" fill="white"/>
<path d="M11.9384 9.54316C11.905 9.56556 11.8657 9.57754 11.8255 9.5776C11.7988 9.57764 11.7723 9.57242 11.7476 9.56223C11.7229 9.55205 11.7005 9.5371 11.6816 9.51824C11.6627 9.49938 11.6476 9.47698 11.6374 9.45232C11.6271 9.42765 11.6218 9.40121 11.6218 9.3745C11.6217 9.33427 11.6336 9.29493 11.6559 9.26144C11.6782 9.22796 11.7099 9.20184 11.7471 9.18639C11.7842 9.17094 11.8251 9.16685 11.8646 9.17464C11.904 9.18243 11.9403 9.20175 11.9688 9.23016C11.9973 9.25856 12.0167 9.29478 12.0246 9.33422C12.0325 9.37367 12.0286 9.41457 12.0132 9.45176C11.9979 9.48895 11.9719 9.52076 11.9384 9.54316Z" fill="white"/>
<path d="M12.0478 8.91259C12.0807 8.91247 12.1127 8.90262 12.14 8.88429C12.1673 8.86595 12.1885 8.83996 12.201 8.80958C12.2134 8.7792 12.2166 8.7458 12.2102 8.71359C12.2037 8.68139 12.1878 8.65184 12.1645 8.62865C12.1413 8.60547 12.1117 8.5897 12.0794 8.58333C12.0472 8.57697 12.0138 8.58029 11.9835 8.59289C11.9532 8.60549 11.9272 8.62679 11.909 8.65411C11.8908 8.68143 11.881 8.71354 11.881 8.74639C11.8811 8.76825 11.8854 8.7899 11.8938 8.81008C11.9022 8.83027 11.9145 8.8486 11.93 8.86403C11.9455 8.87947 11.9639 8.8917 11.9841 8.90003C12.0043 8.90836 12.026 8.91263 12.0478 8.91259Z" fill="white"/>
<path d="M11.7715 8.56552C11.7381 8.58792 11.6988 8.5999 11.6585 8.59996C11.6318 8.60004 11.6053 8.59485 11.5806 8.58468C11.5559 8.5745 11.5334 8.55956 11.5145 8.54069C11.4956 8.52182 11.4806 8.4994 11.4703 8.47472C11.4601 8.45004 11.4548 8.42358 11.4548 8.39686C11.4548 8.35663 11.4666 8.31729 11.4889 8.2838C11.5112 8.25032 11.543 8.2242 11.5801 8.20875C11.6172 8.1933 11.6581 8.18922 11.6976 8.19701C11.7371 8.2048 11.7733 8.22412 11.8018 8.25252C11.8303 8.28092 11.8498 8.31714 11.8577 8.35658C11.8656 8.39603 11.8616 8.43693 11.8463 8.47412C11.8309 8.51131 11.8049 8.54312 11.7715 8.56552Z" fill="white"/>
<path d="M13.8167 12.6346C13.8624 12.6344 13.907 12.6208 13.9449 12.5953C13.9828 12.5698 14.0124 12.5337 14.0297 12.4915C14.0471 12.4492 14.0516 12.4028 14.0426 12.358C14.0336 12.3132 14.0115 12.2721 13.9791 12.2399C13.9468 12.2077 13.9056 12.1857 13.8608 12.1769C13.816 12.1681 13.7695 12.1727 13.7274 12.1903C13.6852 12.2078 13.6492 12.2375 13.6239 12.2755C13.5985 12.3135 13.5851 12.3582 13.5851 12.4039C13.5852 12.4342 13.5912 12.4643 13.6028 12.4923C13.6145 12.5203 13.6316 12.5458 13.6531 12.5672C13.6746 12.5886 13.7001 12.6056 13.7282 12.6172C13.7563 12.6287 13.7864 12.6346 13.8167 12.6346Z" fill="white"/>
<path d="M11.2597 8.29065C11.2219 8.31614 11.1773 8.32984 11.1316 8.33002C11.1012 8.3301 11.0711 8.32418 11.043 8.31261C11.0149 8.30104 10.9893 8.28404 10.9678 8.26259C10.9462 8.24113 10.9292 8.21564 10.9175 8.18757C10.9058 8.15951 10.8998 8.12941 10.8997 8.09901C10.8997 8.05336 10.9132 8.00873 10.9386 7.97077C10.9639 7.9328 11 7.90319 11.0421 7.88568C11.0843 7.86817 11.1307 7.86354 11.1755 7.87238C11.2202 7.88122 11.2614 7.90313 11.2938 7.93535C11.3261 7.96757 11.3482 8.00864 11.3572 8.0534C11.3662 8.09815 11.3618 8.14457 11.3444 8.18679C11.3271 8.22902 11.2976 8.26516 11.2597 8.29065Z" fill="white"/>
<path d="M11.2888 9.30985C11.3345 9.30974 11.3791 9.29608 11.417 9.27061C11.4549 9.24514 11.4844 9.209 11.5018 9.16677C11.5192 9.12453 11.5237 9.07808 11.5146 9.03331C11.5056 8.98853 11.4836 8.94742 11.4512 8.91519C11.4188 8.88295 11.3777 8.86103 11.3328 8.8522C11.288 8.84337 11.2416 8.84802 11.1994 8.86557C11.1573 8.88312 11.1212 8.91278 11.0959 8.95079C11.0706 8.98881 11.0571 9.03347 11.0572 9.07915C11.0573 9.14044 11.0818 9.19917 11.1252 9.24242C11.1687 9.28568 11.2275 9.30993 11.2888 9.30985Z" fill="white"/>
<path d="M11.1834 10.1956C11.1379 10.2261 11.0844 10.2425 11.0296 10.2426C10.9932 10.2426 10.9571 10.2355 10.9234 10.2216C10.8897 10.2077 10.8591 10.1873 10.8333 10.1615C10.8075 10.1358 10.787 10.1052 10.773 10.0716C10.7591 10.0379 10.7518 10.0018 10.7518 9.96538C10.7518 9.91058 10.768 9.85701 10.7985 9.81143C10.8289 9.76586 10.8722 9.73033 10.9228 9.70933C10.9734 9.68833 11.0291 9.68281 11.0829 9.69346C11.1366 9.7041 11.186 9.73045 11.2248 9.76915C11.2636 9.80786 11.29 9.8572 11.3008 9.91093C11.3116 9.96467 11.3062 10.0204 11.2853 10.071C11.2644 10.1217 11.229 10.165 11.1834 10.1956Z" fill="white"/>
<path d="M10.1865 10.2423C10.2504 10.242 10.3128 10.2227 10.3658 10.1869C10.4188 10.1511 10.4599 10.1004 10.4841 10.0413C10.5083 9.98207 10.5144 9.91706 10.5016 9.85442C10.4889 9.79178 10.4578 9.73432 10.4124 9.68931C10.367 9.6443 10.3093 9.61374 10.2466 9.60151C10.1838 9.58928 10.1189 9.59592 10.0599 9.62059C10.0009 9.64525 9.9506 9.68685 9.91525 9.74011C9.8799 9.79337 9.86113 9.85591 9.8613 9.91984C9.86142 9.96239 9.86993 10.0045 9.88635 10.0437C9.90277 10.083 9.92677 10.1186 9.95698 10.1486C9.98719 10.1785 10.023 10.2022 10.0624 10.2183C10.1018 10.2344 10.144 10.2426 10.1865 10.2423Z" fill="white"/>
<path d="M9.4102 10.4016C9.34954 10.4424 9.27817 10.4642 9.20511 10.4644C9.1565 10.4644 9.10836 10.4549 9.06343 10.4364C9.0185 10.4179 8.97767 10.3907 8.94326 10.3563C8.90885 10.322 8.88154 10.2813 8.8629 10.2364C8.84425 10.1915 8.83464 10.1434 8.8346 10.0948C8.8346 10.0217 8.85625 9.95028 8.89683 9.88951C8.9374 9.82875 8.99507 9.78138 9.06256 9.75338C9.13004 9.72538 9.20431 9.718 9.27598 9.73219C9.34765 9.74638 9.41351 9.78149 9.46524 9.83309C9.51696 9.88469 9.55224 9.95047 9.5666 10.0221C9.58096 10.0937 9.57377 10.168 9.54594 10.2356C9.5181 10.3031 9.47087 10.3609 9.4102 10.4016Z" fill="white"/>
<path d="M8.13086 10.9907C8.21668 10.9905 8.30052 10.9649 8.37179 10.9171C8.44306 10.8692 8.49856 10.8014 8.53128 10.722C8.564 10.6427 8.57247 10.5555 8.55562 10.4713C8.53876 10.3872 8.49735 10.3099 8.4366 10.2493C8.37585 10.1886 8.2985 10.1474 8.21432 10.1307C8.13013 10.114 8.0429 10.1227 7.96362 10.1556C7.88435 10.1885 7.81661 10.2441 7.76895 10.3155C7.72129 10.3868 7.69585 10.4707 7.69585 10.5565C7.69601 10.6718 7.74192 10.7822 7.82349 10.8636C7.90506 10.9451 8.01562 10.9907 8.13086 10.9907Z" fill="white"/>
<path d="M7.30687 11.7893C7.22198 11.8463 7.1221 11.8769 7.01986 11.8771C6.95186 11.8772 6.88451 11.8639 6.82165 11.8379C6.7588 11.812 6.70167 11.7739 6.65353 11.7258C6.60539 11.6778 6.56719 11.6208 6.54109 11.558C6.515 11.4952 6.50152 11.4279 6.50145 11.3599C6.50145 11.2576 6.53175 11.1577 6.58853 11.0727C6.64531 10.9876 6.72601 10.9213 6.82045 10.8822C6.91489 10.843 7.01882 10.8327 7.11912 10.8525C7.21941 10.8724 7.31157 10.9215 7.38395 10.9937C7.45634 11.0659 7.50569 11.158 7.52578 11.2582C7.54587 11.3585 7.5358 11.4624 7.49684 11.557C7.45788 11.6515 7.39177 11.7324 7.30687 11.7893Z" fill="white"/>
<path d="M7.69616 9.91012C7.78197 9.90989 7.86578 9.88423 7.93701 9.83638C8.00824 9.78854 8.0637 9.72066 8.09637 9.64131C8.12904 9.56197 8.13747 9.47472 8.12059 9.39059C8.1037 9.30646 8.06226 9.22922 8.0015 9.16863C7.94074 9.10804 7.86339 9.06681 7.77921 9.05016C7.69504 9.03351 7.60781 9.04217 7.52856 9.07507C7.44931 9.10796 7.38158 9.1636 7.33393 9.23496C7.28629 9.30632 7.26086 9.39021 7.26085 9.47601C7.26093 9.5331 7.27226 9.58961 7.29417 9.64233C7.31609 9.69504 7.34818 9.74291 7.3886 9.78323C7.42902 9.82354 7.47699 9.85549 7.52976 9.87726C7.58253 9.89904 7.63908 9.9102 7.69616 9.91012Z" fill="white"/>
<path d="M8.97499 9.32126C8.91429 9.36195 8.84289 9.38372 8.76981 9.38384C8.67173 9.38384 8.57766 9.34492 8.50825 9.27562C8.43884 9.20633 8.39976 9.11232 8.3996 9.01423C8.3996 8.94116 8.42126 8.86972 8.46185 8.80895C8.50244 8.74819 8.56013 8.70081 8.62763 8.67282C8.69513 8.64483 8.76942 8.63747 8.8411 8.65169C8.91278 8.6659 8.97864 8.70104 9.03035 8.75267C9.08207 8.8043 9.11731 8.8701 9.13164 8.94176C9.14597 9.01342 9.13874 9.08771 9.11086 9.15526C9.08297 9.22281 9.03569 9.28058 8.97499 9.32126Z" fill="white"/>
<path d="M8.61253 8.40474C8.68558 8.40444 8.7569 8.3825 8.81749 8.3417C8.87808 8.30089 8.92522 8.24305 8.95296 8.17547C8.9807 8.10789 8.98779 8.0336 8.97333 7.962C8.95888 7.89039 8.92353 7.82467 8.87175 7.77314C8.81997 7.72162 8.75408 7.68659 8.6824 7.67248C8.61073 7.65837 8.53648 7.66582 8.46904 7.69389C8.40159 7.72195 8.34398 7.76937 8.30346 7.83016C8.26295 7.89095 8.24136 7.96238 8.24142 8.03543C8.24146 8.08407 8.2511 8.13222 8.26979 8.17713C8.28847 8.22203 8.31584 8.26281 8.35031 8.29712C8.38479 8.33143 8.4257 8.35859 8.4707 8.37706C8.51569 8.39553 8.56389 8.40493 8.61253 8.40474Z" fill="white"/>
<path d="M9.77336 8.12812C9.72029 8.16378 9.65784 8.1829 9.5939 8.18308C9.55139 8.18316 9.50928 8.17487 9.46998 8.15867C9.43067 8.14248 9.39494 8.1187 9.36483 8.0887C9.33471 8.05869 9.3108 8.02305 9.29446 7.98381C9.27812 7.94456 9.26967 7.90249 9.26959 7.85998C9.26953 7.79604 9.28843 7.73352 9.32389 7.68031C9.35935 7.62711 9.40978 7.58561 9.46882 7.56106C9.52786 7.53651 9.59285 7.53001 9.65558 7.54238C9.71831 7.55475 9.77596 7.58544 9.82126 7.63057C9.86655 7.6757 9.89745 7.73324 9.91006 7.79592C9.92266 7.85861 9.9164 7.92362 9.89207 7.98275C9.86774 8.04187 9.82643 8.09246 9.77336 8.12812Z" fill="white"/>
<path d="M10.4364 8.18332C10.4912 8.1832 10.5448 8.16684 10.5903 8.13631C10.6358 8.10578 10.6712 8.06244 10.6921 8.01178C10.713 7.96112 10.7184 7.9054 10.7076 7.85167C10.6969 7.79793 10.6704 7.7486 10.6316 7.70989C10.5928 7.67118 10.5434 7.64484 10.4897 7.63419C10.4359 7.62354 10.3802 7.62907 10.3296 7.65007C10.279 7.67106 10.2357 7.7066 10.2053 7.75217C10.1749 7.79774 10.1586 7.85131 10.1586 7.90611C10.1588 7.97969 10.1881 8.05019 10.2402 8.10216C10.2923 8.15413 10.3629 8.18332 10.4364 8.18332Z" fill="white"/>
<path d="M10.7477 9.11466C10.7022 9.14521 10.6487 9.16157 10.5939 9.16169C10.5203 9.16177 10.4498 9.13265 10.3977 9.08073C10.3456 9.02881 10.3162 8.95833 10.3161 8.88478C10.316 8.82997 10.3322 8.77637 10.3626 8.73076C10.393 8.68515 10.4362 8.64957 10.4868 8.62852C10.5375 8.60748 10.5932 8.60191 10.6469 8.61253C10.7007 8.62314 10.7501 8.64946 10.789 8.68815C10.8278 8.72685 10.8543 8.77619 10.8651 8.82993C10.8758 8.88367 10.8705 8.9394 10.8496 8.99008C10.8287 9.04076 10.7933 9.08412 10.7477 9.11466Z" fill="white"/>
<path d="M9.75208 9.17134C9.816 9.17116 9.87844 9.15204 9.93151 9.1164C9.98457 9.08075 10.0259 9.03018 10.0502 8.97107C10.0746 8.91196 10.0808 8.84697 10.0683 8.78429C10.0557 8.72161 10.0248 8.66407 9.97954 8.61893C9.93428 8.57379 9.87665 8.54308 9.81394 8.53068C9.75123 8.51827 9.68625 8.52473 9.62721 8.54923C9.56817 8.57374 9.51771 8.61519 9.48221 8.66835C9.44672 8.72152 9.42777 8.78401 9.42777 8.84793C9.42781 8.89047 9.43623 8.93258 9.45256 8.97186C9.46888 9.01114 9.49278 9.04681 9.5229 9.07685C9.55302 9.10688 9.58876 9.13069 9.62809 9.1469C9.66741 9.16311 9.70954 9.17142 9.75208 9.17134Z" fill="white"/>
<path d="M8.92734 11.5997C8.90009 11.618 8.86801 11.6279 8.83517 11.628C8.79103 11.628 8.74869 11.6105 8.71743 11.5794C8.68616 11.5482 8.66852 11.5059 8.66836 11.4618C8.66836 11.429 8.6781 11.3969 8.69633 11.3695C8.71457 11.3422 8.74049 11.3209 8.77082 11.3083C8.80116 11.2957 8.83455 11.2924 8.86677 11.2988C8.89899 11.3051 8.92861 11.3209 8.95188 11.3441C8.97515 11.3673 8.99102 11.3968 8.9975 11.429C9.00398 11.4612 9.00078 11.4946 8.98829 11.525C8.9758 11.5554 8.95459 11.5814 8.92734 11.5997Z" fill="white"/>
<path d="M9.50142 11.5447C9.54156 11.5446 9.58073 11.5325 9.61402 11.5101C9.6473 11.4876 9.67319 11.4559 9.68842 11.4187C9.70366 11.3816 9.70755 11.3408 9.69962 11.3015C9.69168 11.2621 9.67226 11.226 9.64382 11.1977C9.61538 11.1694 9.57919 11.1501 9.53982 11.1424C9.50044 11.1346 9.45965 11.1387 9.42259 11.1541C9.38553 11.1695 9.35387 11.1955 9.33159 11.2289C9.30931 11.2623 9.29742 11.3015 9.29742 11.3416C9.29746 11.3684 9.30277 11.3948 9.31305 11.4195C9.32332 11.4442 9.33837 11.4666 9.35731 11.4855C9.37626 11.5043 9.39874 11.5193 9.42347 11.5294C9.4482 11.5396 9.47469 11.5448 9.50142 11.5447Z" fill="white"/>
<path d="M10.3615 11.2286C10.3235 11.254 10.2789 11.2676 10.2332 11.2677C10.1719 11.2677 10.1131 11.2434 10.0698 11.2001C10.0264 11.1567 10.002 11.098 10.0019 11.0367C10.0019 10.991 10.0154 10.9464 10.0408 10.9084C10.0662 10.8704 10.1022 10.8408 10.1444 10.8233C10.1866 10.8058 10.2331 10.8012 10.2779 10.8101C10.3227 10.819 10.3638 10.841 10.3961 10.8732C10.4285 10.9055 10.4505 10.9466 10.4594 10.9914C10.4684 11.0362 10.4639 11.0827 10.4464 11.1249C10.429 11.1671 10.3994 11.2032 10.3615 11.2286Z" fill="white"/>
<path d="M10.409 12.0067C10.4638 12.0067 10.5174 11.9904 10.563 11.9599C10.6085 11.9294 10.644 11.8861 10.6649 11.8354C10.6859 11.7847 10.6913 11.729 10.6806 11.6753C10.6698 11.6215 10.6434 11.5721 10.6046 11.5334C10.5659 11.4947 10.5165 11.4683 10.4627 11.4576C10.4089 11.447 10.3532 11.4525 10.3026 11.4734C10.2519 11.4944 10.2087 11.53 10.1782 11.5755C10.1478 11.6211 10.1315 11.6747 10.1315 11.7295C10.1317 11.803 10.161 11.8735 10.213 11.9255C10.265 11.9774 10.3355 12.0067 10.409 12.0067Z" fill="white"/>
<path d="M9.64819 12.1429C9.61024 12.1683 9.56561 12.1819 9.51994 12.182C9.45864 12.182 9.39985 12.1577 9.35649 12.1143C9.31312 12.071 9.28871 12.0123 9.28863 11.951C9.28863 11.9053 9.30217 11.8607 9.32754 11.8227C9.35291 11.7847 9.38897 11.7551 9.43117 11.7376C9.47336 11.7201 9.51979 11.7155 9.56459 11.7244C9.6094 11.7333 9.65056 11.7553 9.68288 11.7875C9.71519 11.8198 9.73722 11.8609 9.74617 11.9057C9.75511 11.9505 9.75058 11.997 9.73314 12.0392C9.71571 12.0814 9.68614 12.1175 9.64819 12.1429Z" fill="white"/>
<path d="M8.73293 12.1727C8.77307 12.1726 8.81228 12.1606 8.8456 12.1382C8.87892 12.1158 8.90486 12.084 8.92014 12.0469C8.93542 12.0098 8.93936 11.969 8.93146 11.9296C8.92355 11.8902 8.90416 11.8541 8.87573 11.8258C8.8473 11.7974 8.81111 11.7781 8.77173 11.7703C8.73235 11.7626 8.69154 11.7666 8.65446 11.782C8.61739 11.7974 8.5857 11.8234 8.56341 11.8568C8.54112 11.8902 8.52922 11.9294 8.52922 11.9696C8.52926 11.9963 8.53456 12.0227 8.54482 12.0474C8.55508 12.0721 8.57009 12.0945 8.58901 12.1133C8.60793 12.1322 8.63037 12.1471 8.65506 12.1573C8.67976 12.1675 8.70622 12.1727 8.73293 12.1727Z" fill="white"/>
<path d="M8.87069 12.7711C8.83279 12.7965 8.78818 12.8102 8.74252 12.8103C8.71214 12.8104 8.68206 12.8044 8.65398 12.7928C8.6259 12.7812 8.60038 12.7642 8.57887 12.7428C8.55737 12.7213 8.5403 12.6958 8.52864 12.6678C8.51698 12.6398 8.51095 12.6097 8.51091 12.5793C8.51091 12.5336 8.52445 12.489 8.5498 12.451C8.57516 12.4131 8.6112 12.3834 8.65338 12.3659C8.69556 12.3484 8.74197 12.3438 8.78677 12.3527C8.83156 12.3616 8.87272 12.3835 8.90505 12.4158C8.93738 12.448 8.95943 12.4891 8.96841 12.5339C8.97739 12.5786 8.9729 12.6251 8.95551 12.6673C8.93812 12.7095 8.9086 12.7456 8.87069 12.7711Z" fill="white"/>
<path d="M9.68654 12.9302C9.74134 12.9301 9.79487 12.9137 9.84038 12.8832C9.88589 12.8526 9.92132 12.8093 9.94221 12.7586C9.9631 12.708 9.96851 12.6523 9.95774 12.5985C9.94698 12.5448 9.92053 12.4955 9.88174 12.4567C9.84295 12.418 9.79355 12.3917 9.7398 12.381C9.68604 12.3704 9.63033 12.3759 9.57972 12.3969C9.5291 12.4179 9.48584 12.4535 9.45541 12.499C9.42497 12.5446 9.40873 12.5982 9.40873 12.653C9.40877 12.6894 9.41599 12.7255 9.42997 12.7591C9.44395 12.7928 9.46443 12.8234 9.49022 12.8491C9.51602 12.8749 9.54663 12.8953 9.58032 12.9092C9.614 12.9231 9.65009 12.9302 9.68654 12.9302Z" fill="white"/>
<path d="M10.968 12.7556C10.9149 12.7911 10.8524 12.8101 10.7884 12.8102C10.7027 12.8101 10.6204 12.776 10.5597 12.7154C10.4991 12.6548 10.4649 12.5726 10.4647 12.4868C10.4647 12.4229 10.4837 12.3603 10.5192 12.3072C10.5547 12.254 10.6052 12.2125 10.6643 12.188C10.7234 12.1636 10.7884 12.1571 10.8511 12.1696C10.9138 12.182 10.9715 12.2128 11.0167 12.258C11.062 12.3032 11.0928 12.3608 11.1053 12.4235C11.1178 12.4862 11.1114 12.5513 11.087 12.6104C11.0626 12.6695 11.0212 12.72 10.968 12.7556Z" fill="white"/>
<path d="M11.4372 13.6137C11.5103 13.6135 11.5817 13.5917 11.6423 13.5509C11.703 13.5102 11.7502 13.4524 11.7781 13.3848C11.8059 13.3173 11.8131 13.243 11.7987 13.1713C11.7843 13.0997 11.749 13.0339 11.6972 12.9823C11.6455 12.9307 11.5796 12.8956 11.5079 12.8815C11.4362 12.8673 11.3619 12.8747 11.2944 12.9028C11.227 12.9308 11.1693 12.9782 11.1288 13.039C11.0882 13.0999 11.0666 13.1713 11.0667 13.2444C11.0668 13.293 11.0764 13.341 11.0951 13.3859C11.1137 13.4307 11.1411 13.4715 11.1755 13.5058C11.2099 13.5401 11.2507 13.5672 11.2956 13.5858C11.3405 13.6043 11.3886 13.6138 11.4372 13.6137Z" fill="white"/>
<path d="M10.2546 13.6699C10.2015 13.7055 10.1391 13.7244 10.0752 13.7245C10.0326 13.7245 9.99044 13.716 9.95112 13.6997C9.91181 13.6834 9.8761 13.6594 9.84604 13.6293C9.81597 13.5991 9.79215 13.5634 9.77592 13.524C9.75969 13.4846 9.75138 13.4425 9.75146 13.3999C9.75169 13.336 9.77085 13.2736 9.80652 13.2206C9.84219 13.1676 9.89276 13.1263 9.95186 13.102C10.011 13.0777 10.0759 13.0714 10.1386 13.084C10.2012 13.0966 10.2587 13.1275 10.3039 13.1727C10.349 13.218 10.3797 13.2756 10.3921 13.3383C10.4045 13.4009 10.3981 13.4659 10.3736 13.5249C10.3492 13.584 10.3077 13.6344 10.2546 13.6699Z" fill="white"/>
<path d="M9.30683 14.3525C9.3708 14.3523 9.43327 14.3331 9.48635 14.2975C9.53944 14.2618 9.58075 14.2111 9.60506 14.152C9.62938 14.0928 9.6356 14.0278 9.62295 13.9651C9.61029 13.9024 9.57933 13.8448 9.53398 13.7997C9.48862 13.7546 9.43091 13.724 9.36814 13.7117C9.30537 13.6994 9.24036 13.706 9.18134 13.7306C9.12231 13.7553 9.07192 13.7968 9.03653 13.8501C9.00114 13.9034 8.98235 13.966 8.98253 14.03C8.98284 14.1157 9.01717 14.1978 9.07797 14.2583C9.13878 14.3188 9.22108 14.3526 9.30683 14.3525Z" fill="white"/>
<path d="M10.1511 15.1025C10.0904 15.1432 10.019 15.165 9.94591 15.1651C9.84785 15.1652 9.75378 15.1263 9.68436 15.0571C9.61494 14.9878 9.57586 14.8938 9.5757 14.7958C9.57564 14.7227 9.59725 14.6512 9.6378 14.5904C9.67835 14.5296 9.73602 14.4822 9.80352 14.4542C9.87101 14.4261 9.94531 14.4187 10.017 14.4329C10.0887 14.4471 10.1546 14.4822 10.2063 14.5338C10.2581 14.5854 10.2934 14.6512 10.3077 14.7229C10.3221 14.7946 10.3149 14.8689 10.287 14.9364C10.2591 15.004 10.2118 15.0618 10.1511 15.1025Z" fill="white"/>
<path d="M11.6499 15.3131C11.7357 15.3129 11.8195 15.2872 11.8908 15.2394C11.962 15.1915 12.0175 15.1237 12.0501 15.0443C12.0828 14.965 12.0912 14.8777 12.0743 14.7936C12.0575 14.7095 12.016 14.6322 11.9553 14.5716C11.8945 14.5111 11.8172 14.4698 11.733 14.4532C11.6488 14.4365 11.5616 14.4452 11.4823 14.4781C11.4031 14.511 11.3353 14.5666 11.2877 14.638C11.24 14.7093 11.2146 14.7932 11.2146 14.879C11.2147 14.9361 11.226 14.9927 11.2479 15.0454C11.2698 15.0981 11.3018 15.146 11.3423 15.1863C11.3827 15.2266 11.4307 15.2586 11.4835 15.2804C11.5363 15.3021 11.5928 15.3133 11.6499 15.3131Z" fill="white"/>
<path d="M10.9195 14.4744C10.8589 14.5151 10.7875 14.537 10.7144 14.5371C10.6658 14.5372 10.6177 14.5277 10.5728 14.5092C10.5279 14.4907 10.4871 14.4635 10.4527 14.4292C10.4183 14.3949 10.3909 14.3542 10.3723 14.3093C10.3536 14.2645 10.344 14.2164 10.3439 14.1678C10.3438 14.0948 10.3654 14.0233 10.406 13.9625C10.4465 13.9017 10.5042 13.8543 10.5716 13.8262C10.6391 13.7982 10.7134 13.7908 10.7851 13.8049C10.8568 13.8191 10.9227 13.8542 10.9744 13.9058C11.0262 13.9573 11.0615 14.0231 11.0759 14.0948C11.0903 14.1664 11.0831 14.2407 11.0553 14.3083C11.0274 14.3758 10.9802 14.4337 10.9195 14.4744Z" fill="white"/>
<path d="M12.3629 14.3901C12.4487 14.3899 12.5326 14.3643 12.6038 14.3165C12.6751 14.2686 12.7306 14.2008 12.7633 14.1214C12.796 14.0421 12.8045 13.9549 12.7877 13.8707C12.7708 13.7866 12.7294 13.7093 12.6686 13.6487C12.6079 13.588 12.5305 13.5468 12.4464 13.5301C12.3622 13.5134 12.2749 13.5221 12.1957 13.555C12.1164 13.5879 12.0487 13.6435 12.001 13.7149C11.9533 13.7862 11.9279 13.8701 11.9279 13.9559C11.9279 14.013 11.9392 14.0695 11.9611 14.1222C11.983 14.1749 12.015 14.2228 12.0554 14.2631C12.0958 14.3035 12.1438 14.3354 12.1965 14.3572C12.2493 14.379 12.3058 14.3901 12.3629 14.3901Z" fill="white"/>
<path d="M9.0724 13.5113C9.02693 13.5419 8.97343 13.5583 8.91864 13.5585C8.88217 13.5586 8.84605 13.5515 8.81233 13.5376C8.77861 13.5237 8.74796 13.5033 8.72213 13.4775C8.6963 13.4518 8.6758 13.4212 8.6618 13.3875C8.6478 13.3539 8.64057 13.3178 8.64053 13.2813C8.64053 13.2265 8.65677 13.173 8.68719 13.1274C8.71761 13.0818 8.76085 13.0463 8.81145 13.0253C8.86205 13.0043 8.91774 12.9987 8.97149 13.0094C9.02524 13.02 9.07463 13.0463 9.11344 13.085C9.15224 13.1236 9.17871 13.173 9.18951 13.2267C9.20031 13.2804 9.19495 13.3361 9.1741 13.3868C9.15326 13.4374 9.11787 13.4808 9.0724 13.5113Z" fill="white"/>
<path d="M12.0193 20.4375C12.0078 20.6235 12.002 20.8111 12.002 21C12.002 21.3809 12.0256 21.7563 12.0716 22.1248H29.9303C29.9762 21.7563 29.9999 21.3809 29.9999 21C29.9999 20.8111 29.9941 20.6235 29.9826 20.4375H12.0193Z" fill="white"/>
<path d="M21.0009 17.0629V18.7502H29.7164C29.5651 18.1624 29.3559 17.5978 29.0952 17.0629H21.0009Z" fill="white"/>
<path d="M21.0009 15.3756H28.0262C27.5133 14.7358 26.9148 14.1676 26.2482 13.6883H21.0009V15.3756Z" fill="white"/>
<path d="M12.4501 23.8121C12.6446 24.4041 12.899 24.9689 13.2059 25.4995H28.796C29.1029 24.9689 29.3572 24.4041 29.5518 23.8121H12.4501Z" fill="white"/>
<path d="M14.466 27.1868C15.098 27.8541 15.8312 28.4247 16.641 28.8741H25.3609C26.1707 28.4247 26.9038 27.8541 27.5359 27.1868H14.466Z" fill="white"/>
<path d="M21.0011 12.001L21.0009 13.6883H26.2482C24.7711 12.6264 22.9592 12.001 21.0011 12.001Z" fill="#F44336"/>
<path d="M21.0011 20.4375H29.9826C29.9469 19.8586 29.8565 19.2944 29.7164 18.7502H21.0009L21.0011 20.4375Z" fill="#F44336"/>
<path d="M21.0009 17.0629H29.0952C28.8012 16.4596 28.4418 15.8941 28.0262 15.3756H21.0009V17.0629Z" fill="#F44336"/>
<path d="M29.9303 22.1248C29.8578 22.7063 29.7298 23.2706 29.5518 23.8121H12.4501C12.272 23.2706 12.1441 22.7063 12.0716 22.1248H29.9303Z" fill="#F44336"/>
<path d="M13.2059 25.4995C13.5596 26.111 13.9833 26.6771 14.466 27.1868H27.5359C28.0186 26.6771 28.4422 26.111 28.796 25.4995H13.2059Z" fill="#F44336"/>
<path d="M21.0011 29.9989C22.5829 29.9989 24.0693 29.5908 25.3609 28.8741H16.641C17.9326 29.5908 19.4192 29.9989 21.0011 29.9989Z" fill="#F44336"/>
<path fill-rule="evenodd" clip-rule="evenodd" d="M21.0011 20.4375H12.0193C12.0377 20.1381 12.0708 19.8426 12.1178 19.5518C12.1158 19.5647 12.1138 19.5774 12.1117 19.5904C12.1174 19.5891 12.1227 19.5868 12.1277 19.5834C12.1437 19.5721 12.1504 19.5517 12.1441 19.5331L12.1288 19.4856C12.1514 19.3523 12.177 19.22 12.2053 19.0888C12.2047 19.0918 12.204 19.0948 12.2034 19.0978L12.3124 19.0175C12.3271 19.0057 12.3329 18.9859 12.3269 18.968C12.3209 18.9501 12.3042 18.9379 12.2854 18.9374H12.2394C12.3993 18.2557 12.6367 17.6038 12.9418 16.9916C12.9385 16.9981 12.9353 17.0047 12.932 17.0112L13.0809 16.9045L13.3509 17.098C13.3583 17.104 13.3673 17.1072 13.3763 17.1076C13.3858 17.1081 13.3955 17.1054 13.4037 17.0997C13.4105 17.0949 13.4156 17.0885 13.4188 17.0813C13.4231 17.0715 13.4238 17.0601 13.4201 17.0494L13.3184 16.7326L13.5885 16.5338C13.6032 16.522 13.609 16.5022 13.603 16.4843C13.5969 16.4664 13.5803 16.4542 13.5614 16.4537H13.2331C13.8699 15.368 14.7278 14.4278 15.7448 13.6947L15.903 13.808C15.9091 13.8128 15.9161 13.8159 15.9234 13.8171C15.9284 13.8179 15.9336 13.8178 15.9387 13.8169C15.9427 13.8161 15.9466 13.8148 15.9504 13.8129L15.9534 13.8112L15.9558 13.8096C15.9718 13.7984 15.9786 13.7779 15.9722 13.7594L15.9134 13.5761C17.3605 12.5824 19.1129 12.001 21.0011 12.001V20.4375ZM19.6034 12.3591L19.5231 12.1217C19.4781 12.1292 19.4332 12.137 19.3884 12.1451L19.3154 12.3609H18.9833C18.9773 12.3611 18.9715 12.3624 18.9662 12.3648L18.9612 12.3674L18.9591 12.3688C18.9512 12.3742 18.9451 12.3821 18.9419 12.3915C18.9358 12.4095 18.9416 12.4292 18.9563 12.441L19.2263 12.6399L19.1156 12.9549C19.1107 12.9732 19.1177 12.9926 19.1332 13.0035C19.1422 13.0098 19.153 13.0124 19.1634 13.0114C19.171 13.0107 19.1784 13.0081 19.1849 13.0035L19.4549 12.81L19.7249 13.0035C19.73 13.0075 19.7357 13.0103 19.7418 13.0118C19.7539 13.0148 19.767 13.0126 19.7777 13.0051C19.7937 12.9939 19.8004 12.9734 19.7942 12.9549L19.6925 12.6381L19.9624 12.4392C19.9679 12.4349 19.972 12.4294 19.9749 12.4234L19.9766 12.4195C19.9772 12.4179 19.9777 12.4162 19.9781 12.4145C19.9788 12.4115 19.9792 12.4085 19.9793 12.4054C19.9794 12.4002 19.9786 12.3949 19.9769 12.3897C19.9725 12.3765 19.9622 12.3664 19.9496 12.3618C19.9451 12.3602 19.9404 12.3593 19.9355 12.3591H19.6034ZM17.2256 13.0051C17.2416 12.9939 17.2483 12.9734 17.242 12.9549L17.2047 12.8385C17.1732 12.8532 17.1418 12.8681 17.1105 12.8831L17.0475 12.9137L17.1727 13.0035C17.188 13.0157 17.2096 13.0164 17.2256 13.0051ZM19.3154 18.9392L19.4224 18.6224C19.4259 18.605 19.4409 18.5923 19.4586 18.5919C19.4764 18.5915 19.492 18.6034 19.4963 18.6206L19.6034 18.9374H19.9355C19.9466 18.9377 19.957 18.9421 19.9648 18.9494C19.9703 18.9544 19.9744 18.9607 19.9769 18.968C19.983 18.9859 19.9772 19.0057 19.9624 19.0175L19.6925 19.2164L19.7942 19.5331C19.8004 19.5517 19.7937 19.5721 19.7777 19.5834C19.7617 19.5946 19.7401 19.5939 19.7249 19.5817L19.4549 19.3883L19.1849 19.5817C19.1825 19.5834 19.18 19.5849 19.1773 19.586L19.1742 19.5873L19.1694 19.5887C19.1654 19.5897 19.1613 19.5901 19.1572 19.5899C19.1548 19.5898 19.1526 19.5895 19.1503 19.5891C19.1443 19.5879 19.1384 19.5854 19.1332 19.5818C19.1309 19.5801 19.1287 19.5783 19.1268 19.5764C19.1248 19.5742 19.1228 19.5719 19.1213 19.5694L19.1199 19.5671L19.1187 19.565L19.1171 19.5615C19.1137 19.5527 19.113 19.5427 19.1156 19.5331L19.2263 19.2182L18.9563 19.0193C18.9469 19.0118 18.9412 19.001 18.9398 18.9895C18.939 18.983 18.9397 18.9763 18.9419 18.9698C18.9442 18.9628 18.9482 18.9566 18.9532 18.9517C18.9552 18.9499 18.9573 18.9482 18.9595 18.9467L18.9632 18.9445L18.9659 18.9431L18.9685 18.9421L18.9733 18.9406C18.9765 18.9398 18.9799 18.9393 18.9833 18.9392H19.3154ZM16.9441 18.6206C16.9399 18.6034 16.9243 18.5915 16.9065 18.5919C16.8888 18.5923 16.8738 18.605 16.8703 18.6224L16.7633 18.9392H16.4312C16.4123 18.9397 16.3958 18.9519 16.3897 18.9698C16.3837 18.9877 16.3895 19.0075 16.4042 19.0193L16.6742 19.2182L16.5635 19.5331C16.5602 19.5453 16.5622 19.5579 16.5685 19.5683L16.5711 19.5722L16.5736 19.5752C16.5758 19.5776 16.5783 19.5798 16.5811 19.5818C16.5966 19.5926 16.6173 19.5926 16.6328 19.5817L16.9027 19.3883L17.1727 19.5817C17.1786 19.5865 17.1855 19.5895 17.1926 19.5907L17.1966 19.5912L17.1997 19.5914C17.2017 19.5914 17.2038 19.5913 17.2059 19.591C17.2127 19.5901 17.2195 19.5876 17.2256 19.5834C17.2416 19.5721 17.2483 19.5517 17.242 19.5331L17.1404 19.2164L17.4103 19.0175C17.4122 19.016 17.414 19.0143 17.4155 19.0126C17.4168 19.0112 17.418 19.0097 17.4191 19.0082L17.4216 19.0041C17.4225 19.0023 17.4234 19.0005 17.4242 18.9986C17.4252 18.9958 17.426 18.993 17.4265 18.9901C17.4271 18.9869 17.4273 18.9836 17.4271 18.9803L17.4267 18.9764L17.426 18.9725L17.4248 18.968C17.4188 18.9501 17.4022 18.9379 17.3833 18.9374H17.0512L16.9441 18.6206ZM14.3984 18.6206L14.5055 18.9374H14.8375C14.8564 18.9379 14.873 18.9501 14.879 18.968C14.8819 18.9765 14.8821 18.9855 14.8799 18.9937C14.8775 19.0029 14.8722 19.0113 14.8645 19.0175L14.5945 19.2164L14.6962 19.5331C14.6969 19.5354 14.6976 19.5377 14.698 19.54L14.6984 19.5442L14.6985 19.5492C14.6983 19.5535 14.6974 19.5578 14.696 19.5619C14.693 19.5704 14.6875 19.578 14.6798 19.5834C14.6637 19.5946 14.6422 19.5939 14.6269 19.5817L14.357 19.3883L14.087 19.5817C14.0715 19.5926 14.0508 19.5926 14.0353 19.5818C14.0253 19.5748 14.0189 19.5642 14.0168 19.5528C14.0163 19.55 14.0161 19.5473 14.0161 19.5445C14.0161 19.5422 14.0163 19.5398 14.0168 19.5374L14.0177 19.5331L14.1284 19.2182L13.8584 19.0193C13.8523 19.0144 13.8478 19.0082 13.845 19.0013C13.8429 18.9964 13.8417 18.9911 13.8415 18.9858C13.8414 18.9805 13.8422 18.9751 13.8439 18.9698C13.8476 18.9589 13.8552 18.95 13.8649 18.9447C13.8711 18.9413 13.8781 18.9394 13.8854 18.9392H14.2184L14.3254 18.6224C14.3263 18.5774 14.3858 18.5774 14.3984 18.6206ZM18.2202 17.7837C18.2202 17.7689 18.2123 17.7553 18.1995 17.7479C18.1928 17.744 18.1853 17.7422 18.1778 17.7423C18.171 17.7425 18.1642 17.7444 18.1581 17.7479C18.1528 17.751 18.1483 17.7551 18.1449 17.76C18.1432 17.7623 18.1419 17.7647 18.1408 17.7673C18.1386 17.7724 18.1374 17.778 18.1374 17.7837L18.0304 18.1005H17.6983C17.6794 18.101 17.6628 18.1132 17.6568 18.1311C17.6508 18.149 17.6565 18.1688 17.6713 18.1806L17.9412 18.3795L17.8396 18.6962C17.8372 18.7049 17.8376 18.7138 17.8402 18.7219C17.8431 18.731 17.849 18.7391 17.8571 18.7448C17.8727 18.7557 17.8933 18.7557 17.9088 18.7448L18.1788 18.5513L18.4488 18.7448C18.4641 18.757 18.4856 18.7577 18.5016 18.7465C18.5177 18.7352 18.5243 18.7148 18.5181 18.6962L18.4164 18.3795L18.6864 18.1806C18.7011 18.1688 18.7069 18.149 18.7009 18.1311C18.6981 18.1228 18.693 18.1158 18.6866 18.1105C18.679 18.1044 18.6696 18.1007 18.6594 18.1005H18.3273L18.2202 17.7837ZM15.6744 17.7837L15.7815 18.1005H16.1135C16.1324 18.101 16.149 18.1132 16.1551 18.1311C16.1611 18.149 16.1553 18.1688 16.1406 18.1806L15.8706 18.3795L15.9722 18.6962C15.9786 18.7148 15.9718 18.7352 15.9558 18.7465C15.9482 18.7518 15.9394 18.7544 15.9306 18.7545C15.9259 18.7545 15.9212 18.7537 15.9166 18.7522C15.9118 18.7506 15.9072 18.7481 15.903 18.7448L15.633 18.5513L15.363 18.7448C15.3475 18.7557 15.3269 18.7557 15.3113 18.7448C15.2958 18.734 15.2888 18.7145 15.2938 18.6962L15.3955 18.3795L15.1255 18.1806C15.1107 18.1688 15.105 18.149 15.1109 18.1311C15.117 18.1132 15.1336 18.101 15.1525 18.1005H15.4845L15.5916 17.7837C15.6024 17.7405 15.6618 17.7405 15.6744 17.7837ZM13.2294 18.1005L13.1223 17.7837C13.1097 17.7405 13.0503 17.7405 13.0494 17.7837L12.9423 18.1005H12.6004C12.5969 18.1006 12.5936 18.1011 12.5903 18.1019C12.5859 18.103 12.5818 18.1048 12.5779 18.1072C12.5691 18.1126 12.5623 18.1209 12.5588 18.1311C12.5529 18.149 12.5586 18.1688 12.5734 18.1806L12.8433 18.3795L12.7417 18.6962C12.7366 18.7145 12.7437 18.734 12.7592 18.7448C12.7662 18.7497 12.7741 18.7524 12.7822 18.7529C12.7922 18.7535 12.8024 18.7508 12.8109 18.7448L13.0809 18.5513L13.3509 18.7448C13.3662 18.757 13.3877 18.7577 13.4037 18.7465C13.4197 18.7352 13.4264 18.7148 13.4201 18.6962L13.3184 18.3795L13.5885 18.1806C13.6032 18.1688 13.609 18.149 13.603 18.1311C13.5969 18.1132 13.5803 18.101 13.5614 18.1005H13.2294ZM19.4963 16.9729L19.6034 17.2897H19.9355C19.9543 17.2902 19.9709 17.3024 19.9769 17.3203C19.9793 17.3275 19.9799 17.335 19.9786 17.3422C19.9769 17.3528 19.9712 17.3627 19.9624 17.3698L19.6925 17.5686L19.7942 17.8854C19.7973 17.8947 19.7972 17.9044 19.7942 17.9133C19.7933 17.9161 19.7922 17.9187 19.7907 17.9213C19.7894 17.9236 19.7878 17.9259 19.7861 17.928C19.7837 17.9308 19.7809 17.9334 19.7777 17.9357C19.7617 17.9469 19.7401 17.9462 19.7249 17.934L19.4549 17.7405L19.1849 17.934C19.1766 17.9398 19.1668 17.9426 19.1572 17.9422C19.1487 17.9418 19.1404 17.9391 19.1332 17.934C19.1177 17.9231 19.1107 17.9037 19.1156 17.8854L19.2173 17.5686L18.9473 17.3698C18.9326 17.358 18.9268 17.3382 18.9329 17.3203C18.9364 17.3097 18.9436 17.3011 18.9528 17.2958C18.9592 17.292 18.9666 17.2899 18.9743 17.2897H19.3064L19.4135 16.9729C19.4297 16.936 19.489 16.936 19.4963 16.9729ZM17.0512 17.2897L16.9441 16.9729C16.9369 16.936 16.8775 16.936 16.8613 16.9729L16.7543 17.2897H16.4222C16.4033 17.2902 16.3868 17.3024 16.3807 17.3203C16.3747 17.3382 16.3805 17.358 16.3952 17.3698L16.6652 17.5686L16.5635 17.8854C16.5586 17.9037 16.5656 17.9231 16.5811 17.934C16.5966 17.9449 16.6173 17.9449 16.6328 17.934L16.9027 17.7405L17.1727 17.934C17.188 17.9462 17.2096 17.9469 17.2256 17.9357C17.2348 17.9292 17.2409 17.9198 17.2433 17.9093C17.2443 17.9049 17.2447 17.9003 17.2442 17.8956C17.2439 17.8922 17.2432 17.8888 17.242 17.8854L17.1404 17.5686L17.4103 17.3698C17.4251 17.358 17.4309 17.3382 17.4248 17.3203C17.4214 17.3101 17.4146 17.3018 17.4059 17.2964C17.3992 17.2923 17.3915 17.2899 17.3833 17.2897H17.0512ZM14.3984 16.9729L14.5055 17.2897H14.8375C14.8564 17.2902 14.873 17.3024 14.879 17.3203C14.8851 17.3382 14.8792 17.358 14.8645 17.3698L14.5945 17.5686L14.6962 17.8854C14.7025 17.904 14.6958 17.9244 14.6798 17.9357C14.6637 17.9469 14.6422 17.9462 14.6269 17.934L14.357 17.7405L14.087 17.934C14.0715 17.9449 14.0508 17.9449 14.0353 17.934C14.0198 17.9231 14.0127 17.9037 14.0177 17.8854L14.1194 17.5686L13.8494 17.3698C13.8347 17.358 13.8289 17.3382 13.8349 17.3203C13.8409 17.3024 13.8575 17.2902 13.8764 17.2897H14.2184L14.3254 16.9729C14.3263 16.936 14.3858 16.936 14.3984 16.9729ZM18.2202 16.1369C18.2202 16.1141 18.2017 16.0955 18.1788 16.0955C18.1708 16.0955 18.1632 16.0978 18.1568 16.1018L18.1556 16.1026L18.1523 16.1051L18.1497 16.1074L18.1469 16.1105C18.1449 16.113 18.1432 16.1156 18.1417 16.1185C18.1406 16.1208 18.1397 16.1231 18.139 16.1256C18.1384 16.1278 18.1379 16.13 18.1376 16.1322L18.1374 16.1369L18.0304 16.4537H17.6983C17.6794 16.4542 17.6628 16.4664 17.6568 16.4843C17.6508 16.5022 17.6565 16.522 17.6713 16.5338L17.9412 16.7326L17.8396 17.0494C17.837 17.0588 17.8376 17.0685 17.8409 17.0772C17.8429 17.0823 17.8458 17.0872 17.8496 17.0913L17.8531 17.0948C17.8543 17.0959 17.8557 17.097 17.8571 17.098C17.8658 17.1041 17.8761 17.1068 17.8862 17.1061C17.8941 17.1055 17.902 17.1028 17.9088 17.098L18.1788 16.9045L18.4488 17.098C18.4533 17.1016 18.4583 17.1042 18.4636 17.1058C18.4672 17.1069 18.4709 17.1075 18.4747 17.1076C18.484 17.108 18.4935 17.1053 18.5016 17.0997C18.5119 17.0925 18.5183 17.0815 18.52 17.0697C18.5209 17.063 18.5204 17.0561 18.5181 17.0494L18.4164 16.7326L18.6864 16.5338C18.6937 16.5279 18.6988 16.5201 18.7013 16.5115C18.704 16.5028 18.7039 16.4933 18.7009 16.4843C18.6978 16.4752 18.6921 16.4677 18.6847 16.4623C18.6775 16.457 18.6687 16.4539 18.6594 16.4537H18.3273L18.2202 16.1369ZM15.6744 16.1369L15.7815 16.4537H16.1135C16.1324 16.4542 16.149 16.4664 16.1551 16.4843C16.1611 16.5022 16.1553 16.522 16.1406 16.5338L15.8706 16.7326L15.9722 17.0494C15.9731 17.052 15.9737 17.0547 15.9741 17.0573C15.9746 17.0606 15.9747 17.064 15.9744 17.0673C15.9741 17.0715 15.9731 17.0757 15.9716 17.0796C15.9702 17.0829 15.9685 17.0861 15.9665 17.089C15.9637 17.0931 15.9601 17.0967 15.9558 17.0997C15.9398 17.1109 15.9183 17.1102 15.903 17.098L15.633 16.9045L15.363 17.098C15.3475 17.1089 15.3269 17.1089 15.3113 17.098C15.3071 17.095 15.3035 17.0914 15.3006 17.0873C15.2971 17.0824 15.2946 17.0769 15.2933 17.0711L15.2925 17.0665L15.2921 17.0612C15.2921 17.0592 15.2923 17.0572 15.2925 17.0552C15.2928 17.0533 15.2932 17.0513 15.2938 17.0494L15.3955 16.7326L15.1255 16.5338C15.1107 16.522 15.105 16.5022 15.1109 16.4843C15.117 16.4664 15.1336 16.4542 15.1525 16.4537H15.4845L15.5916 16.1369C15.6024 16.0937 15.6618 16.0937 15.6744 16.1369ZM19.6034 15.6483L19.4963 15.3315C19.492 15.3143 19.4764 15.3023 19.4586 15.3028C19.4533 15.3029 19.4483 15.3041 19.4438 15.3062C19.433 15.3112 19.4249 15.3211 19.4224 15.3333L19.3154 15.6501H18.9833C18.9709 15.6504 18.9596 15.6558 18.9515 15.6645C18.9472 15.6691 18.9439 15.6745 18.9419 15.6807C18.9395 15.6875 18.939 15.6947 18.9399 15.7015C18.9415 15.7125 18.9472 15.7229 18.9563 15.7302L19.2263 15.929L19.1156 16.244C19.1107 16.2623 19.1177 16.2817 19.1332 16.2926C19.1487 16.3035 19.1694 16.3035 19.1849 16.2926L19.4549 16.0991L19.7249 16.2926C19.7401 16.3048 19.7617 16.3055 19.7777 16.2942C19.7937 16.283 19.8004 16.2625 19.7942 16.244L19.6925 15.9272L19.9624 15.7284C19.9772 15.7165 19.983 15.6968 19.9769 15.6789C19.9709 15.661 19.9543 15.6487 19.9355 15.6483H19.6034ZM16.9027 15.2901C16.9135 15.2901 16.9233 15.2942 16.9307 15.301C16.9389 15.3085 16.9441 15.3194 16.9441 15.3315L17.0512 15.6483H17.3833C17.4022 15.6487 17.4188 15.661 17.4248 15.6789C17.4309 15.6968 17.4251 15.7165 17.4103 15.7284L17.1404 15.9272L17.242 16.244C17.245 16.2528 17.2451 16.262 17.2426 16.2705C17.2412 16.2752 17.239 16.2797 17.2361 16.2837L17.2338 16.2867L17.2316 16.2892C17.2298 16.291 17.2278 16.2927 17.2256 16.2942C17.2096 16.3055 17.188 16.3048 17.1727 16.2926L16.9027 16.0991L16.6328 16.2926C16.6173 16.3035 16.5966 16.3035 16.5811 16.2926C16.5656 16.2817 16.5586 16.2623 16.5635 16.244L16.6652 15.9272L16.3952 15.7284C16.3805 15.7165 16.3747 15.6968 16.3807 15.6789C16.3868 15.661 16.4033 15.6487 16.4222 15.6483H16.7543L16.8613 15.3315C16.8613 15.3086 16.8799 15.2901 16.9027 15.2901ZM14.5055 15.6483L14.3984 15.3315C14.3858 15.2883 14.3263 15.2883 14.3254 15.3315L14.2184 15.6483H13.8764C13.8575 15.6487 13.8409 15.661 13.8349 15.6789C13.8289 15.6968 13.8347 15.7165 13.8494 15.7284L14.1194 15.9272L14.0177 16.244C14.0127 16.2623 14.0198 16.2817 14.0353 16.2926C14.0508 16.3035 14.0715 16.3035 14.087 16.2926L14.357 16.0991L14.6269 16.2926C14.6422 16.3048 14.6637 16.3055 14.6798 16.2942C14.6906 16.2867 14.6971 16.2748 14.6984 16.2622C14.6989 16.2562 14.6982 16.25 14.6962 16.244L14.5945 15.9272L14.8645 15.7284C14.8792 15.7165 14.8851 15.6968 14.879 15.6789C14.873 15.661 14.8564 15.6487 14.8375 15.6483H14.5055ZM15.6744 14.4883L15.7815 14.8051H16.1135C16.1243 14.8053 16.1343 14.8094 16.1421 14.8162C16.1479 14.8214 16.1525 14.828 16.1551 14.8357C16.1611 14.8536 16.1553 14.8733 16.1406 14.8852L15.8706 15.084L15.9722 15.4008C15.9786 15.4193 15.9718 15.4398 15.9558 15.451C15.9451 15.4586 15.9318 15.4608 15.9196 15.4577C15.9137 15.4562 15.908 15.4534 15.903 15.4494L15.633 15.2559L15.363 15.4494C15.3543 15.4555 15.344 15.4582 15.3338 15.4575C15.3259 15.4569 15.3181 15.4542 15.3113 15.4494C15.2958 15.4385 15.2888 15.4191 15.2938 15.4008L15.3955 15.084L15.1255 14.8852C15.1107 14.8733 15.105 14.8536 15.1109 14.8357C15.117 14.8178 15.1336 14.8055 15.1525 14.8051H15.4845L15.5916 14.4883C15.6024 14.4514 15.6618 14.4514 15.6744 14.4883ZM18.3273 14.8051L18.2202 14.4883C18.213 14.4514 18.1536 14.4514 18.1374 14.4883L18.0304 14.8051H17.6983C17.6794 14.8055 17.6628 14.8178 17.6568 14.8357C17.6508 14.8536 17.6565 14.8733 17.6713 14.8852L17.9412 15.084L17.8396 15.4008C17.8346 15.4191 17.8416 15.4385 17.8571 15.4494C17.8727 15.4603 17.8933 15.4603 17.9088 15.4494L18.1788 15.2559L18.4488 15.4494C18.4641 15.4616 18.4856 15.4623 18.5016 15.451C18.5177 15.4398 18.5243 15.4193 18.5181 15.4008L18.4164 15.084L18.6864 14.8852C18.7011 14.8733 18.7069 14.8536 18.7009 14.8357C18.6948 14.8178 18.6783 14.8055 18.6594 14.8051H18.3273ZM16.9441 13.6838L17.0512 14.0006H17.3833C17.3866 14.0006 17.3899 14.0011 17.393 14.0019C17.3975 14.003 17.4017 14.0048 17.4057 14.0071C17.4144 14.0125 17.4214 14.0209 17.4248 14.0312C17.4309 14.0491 17.4251 14.0688 17.4103 14.0807L17.1404 14.2795L17.242 14.5963C17.2483 14.6148 17.2416 14.6353 17.2256 14.6465C17.2096 14.6578 17.188 14.6571 17.1727 14.6449L16.9027 14.4514L16.6328 14.6449C16.6173 14.6558 16.5966 14.6558 16.5811 14.6449C16.5687 14.6362 16.5617 14.622 16.5619 14.6074C16.562 14.6052 16.5622 14.6031 16.5625 14.601L16.5635 14.5963L16.6652 14.2795L16.3952 14.0807C16.3805 14.0688 16.3747 14.0491 16.3807 14.0312C16.3868 14.0133 16.4033 14.001 16.4222 14.0006H16.7543L16.8613 13.6838C16.8775 13.6469 16.9369 13.6469 16.9441 13.6838ZM19.6034 14.0006L19.4963 13.6838C19.489 13.6469 19.4297 13.6469 19.4135 13.6838L19.3064 14.0006H18.9743C18.9667 14.0008 18.9595 14.0029 18.9532 14.0065C18.9438 14.0118 18.9364 14.0205 18.9329 14.0312C18.9268 14.0491 18.9326 14.0688 18.9473 14.0807L19.2173 14.2795L19.1156 14.5963C19.1149 14.5988 19.1145 14.6013 19.1142 14.6038C19.114 14.6061 19.114 14.6085 19.1141 14.6108C19.1144 14.6146 19.1151 14.6184 19.1162 14.622C19.1178 14.6267 19.1201 14.6312 19.1231 14.6352C19.1259 14.6389 19.1293 14.6422 19.1332 14.6449C19.1487 14.6558 19.1694 14.6558 19.1849 14.6449L19.4549 14.4514L19.7249 14.6449C19.7401 14.6571 19.7617 14.6578 19.7777 14.6465C19.7937 14.6353 19.8004 14.6148 19.7942 14.5963L19.6925 14.2795L19.9624 14.0807C19.9701 14.0745 19.9753 14.0663 19.9777 14.0573C19.9799 14.0489 19.9798 14.0398 19.9769 14.0312C19.9709 14.0133 19.9543 14.001 19.9355 14.0006H19.6034ZM18.2129 12.8235C18.2151 12.8266 18.2168 12.8301 18.218 12.8337C18.2186 12.8354 18.2191 12.8372 18.2194 12.8391C18.22 12.8416 18.2202 12.8442 18.2202 12.8469L18.3273 13.1637H18.6594C18.6633 13.1638 18.6672 13.1644 18.6708 13.1654C18.6744 13.1665 18.6777 13.1679 18.6809 13.1698C18.6901 13.1751 18.6973 13.1837 18.7009 13.1943C18.7069 13.2122 18.7011 13.2319 18.6864 13.2437L18.4164 13.4426L18.5181 13.7594C18.5223 13.7719 18.5206 13.7853 18.5142 13.7961C18.513 13.7982 18.5115 13.8002 18.5099 13.8021C18.5075 13.8049 18.5048 13.8074 18.5016 13.8096C18.4856 13.8209 18.4641 13.8202 18.4488 13.808L18.1788 13.6145L17.9088 13.808C17.902 13.8128 17.894 13.8155 17.886 13.816C17.876 13.8167 17.8658 13.814 17.8571 13.808C17.8416 13.7971 17.8346 13.7777 17.8396 13.7594L17.9412 13.4426L17.6713 13.2437C17.6565 13.2319 17.6508 13.2122 17.6568 13.1943C17.6628 13.1764 17.6794 13.1641 17.6983 13.1637H18.0304L18.1374 12.8469C18.1374 12.8321 18.1453 12.8184 18.1581 12.811C18.1662 12.8063 18.1756 12.8046 18.1846 12.8059C18.1898 12.8066 18.1949 12.8083 18.1995 12.811C18.2028 12.8129 18.2056 12.8152 18.2082 12.8178C18.21 12.8195 18.2115 12.8215 18.2129 12.8235Z" fill="#283991"/>
<path d="M14.6919 14.583L14.648 14.6265L14.6284 14.646C14.6436 14.6571 14.6643 14.6574 14.6798 14.6465C14.6897 14.6396 14.6961 14.629 14.698 14.6176C14.6991 14.6106 14.6986 14.6033 14.6962 14.5963L14.6919 14.583Z" fill="#283991"/>
<path d="M19.3884 12.1451C19.4332 12.137 19.4781 12.1292 19.5231 12.1217L19.6034 12.3591H19.9355C19.9543 12.3596 19.9709 12.3718 19.9769 12.3897C19.983 12.4076 19.9772 12.4274 19.9624 12.4392L19.6925 12.6381L19.7942 12.9549C19.8004 12.9734 19.7937 12.9939 19.7777 13.0051C19.7616 13.0164 19.7402 13.0157 19.7249 13.0035L19.4549 12.81L19.1849 13.0035C19.1694 13.0144 19.1487 13.0144 19.1332 13.0035C19.1177 12.9926 19.1107 12.9732 19.1156 12.9549L19.2263 12.6399L18.9563 12.441C18.9416 12.4292 18.9358 12.4095 18.9419 12.3915C18.9479 12.3736 18.9644 12.3614 18.9833 12.3609H19.3154L19.3884 12.1451Z" fill="white"/>
<path d="M17.0475 12.9137C17.0996 12.8881 17.152 12.8631 17.2047 12.8385L17.242 12.9549C17.2483 12.9734 17.2416 12.9939 17.2256 13.0051C17.2096 13.0164 17.188 13.0157 17.1727 13.0035L17.0475 12.9137Z" fill="white"/>
<path d="M15.7448 13.6947C15.8006 13.6545 15.8567 13.615 15.9134 13.5761L15.9722 13.7594C15.9786 13.7779 15.9718 13.7984 15.9558 13.8096C15.9398 13.8209 15.9183 13.8202 15.903 13.808L15.7448 13.6947Z" fill="white"/>
<path d="M14.6284 14.646C14.6495 14.6249 14.6707 14.6039 14.6919 14.583L14.6962 14.5963C14.7025 14.6148 14.6958 14.6353 14.6798 14.6465C14.6643 14.6574 14.6436 14.6571 14.6284 14.646Z" fill="white"/>
<path d="M12.932 17.0112C13.026 16.8215 13.1264 16.6355 13.2331 16.4537H13.5614C13.5803 16.4542 13.5969 16.4664 13.603 16.4843C13.609 16.5022 13.6032 16.522 13.5885 16.5338L13.3184 16.7326L13.4201 17.0494C13.4264 17.068 13.4197 17.0884 13.4037 17.0997C13.3877 17.1109 13.3661 17.1102 13.3509 17.098L13.0809 16.9045L12.932 17.0112Z" fill="white"/>
<path d="M12.1117 19.5904C12.1174 19.5891 12.1227 19.5868 12.1277 19.5834C12.1437 19.5721 12.1504 19.5517 12.1441 19.5331L12.1288 19.4856C12.1229 19.5205 12.1172 19.5554 12.1117 19.5904Z" fill="white"/>
<path d="M12.2034 19.0978C12.2149 19.0441 12.2269 18.9907 12.2394 18.9374H12.2854C12.3042 18.9379 12.3209 18.9501 12.3269 18.968C12.3329 18.9859 12.3271 19.0057 12.3124 19.0175L12.2034 19.0978Z" fill="white"/>
<path d="M19.4963 18.6206C19.492 18.6034 19.4764 18.5915 19.4586 18.5919C19.4409 18.5923 19.4259 18.605 19.4224 18.6224L19.3154 18.9392H18.9833C18.9644 18.9397 18.9479 18.9519 18.9419 18.9698C18.9358 18.9877 18.9416 19.0075 18.9563 19.0193L19.2263 19.2182L19.1156 19.5331C19.1107 19.5514 19.1177 19.5709 19.1332 19.5818C19.1487 19.5926 19.1694 19.5926 19.1849 19.5817L19.4549 19.3883L19.7249 19.5817C19.7401 19.5939 19.7617 19.5946 19.7777 19.5834C19.7937 19.5721 19.8004 19.5517 19.7942 19.5331L19.6925 19.2164L19.9624 19.0175C19.9772 19.0057 19.983 18.9859 19.9769 18.968C19.9709 18.9501 19.9543 18.9379 19.9355 18.9374H19.6034L19.4963 18.6206Z" fill="white"/>
<path d="M16.9441 18.6206C16.9399 18.6034 16.9243 18.5915 16.9065 18.5919C16.8888 18.5923 16.8738 18.605 16.8703 18.6224L16.7633 18.9392H16.4312C16.4123 18.9397 16.3958 18.9519 16.3897 18.9698C16.3837 18.9877 16.3895 19.0075 16.4042 19.0193L16.6742 19.2182L16.5635 19.5331C16.5585 19.5514 16.5656 19.5709 16.5811 19.5818C16.5966 19.5926 16.6173 19.5926 16.6328 19.5817L16.9027 19.3883L17.1727 19.5817C17.188 19.5939 17.2095 19.5946 17.2256 19.5834C17.2416 19.5721 17.2483 19.5517 17.242 19.5331L17.1404 19.2164L17.4103 19.0175C17.4251 19.0057 17.4308 18.9859 17.4248 18.968C17.4188 18.9501 17.4022 18.9379 17.3833 18.9374H17.0512L16.9441 18.6206Z" fill="white"/>
<path d="M14.5055 18.9374L14.3984 18.6206C14.3858 18.5774 14.3263 18.5774 14.3254 18.6224L14.2184 18.9392H13.8854C13.8665 18.9397 13.85 18.9519 13.8439 18.9698C13.8379 18.9877 13.8437 19.0075 13.8584 19.0193L14.1284 19.2182L14.0177 19.5331C14.0128 19.5514 14.0198 19.5709 14.0353 19.5818C14.0508 19.5926 14.0715 19.5926 14.087 19.5817L14.357 19.3883L14.6269 19.5817C14.6422 19.5939 14.6637 19.5946 14.6798 19.5834C14.6958 19.5721 14.7025 19.5517 14.6962 19.5331L14.5945 19.2164L14.8645 19.0175C14.8793 19.0057 14.8851 18.9859 14.879 18.968C14.873 18.9501 14.8564 18.9379 14.8375 18.9374H14.5055Z" fill="white"/>
<path d="M18.2202 17.7837C18.2202 17.7689 18.2123 17.7553 18.1995 17.7479C18.1867 17.7405 18.1709 17.7405 18.1581 17.7479C18.1453 17.7553 18.1374 17.7689 18.1374 17.7837L18.0304 18.1005H17.6983C17.6794 18.101 17.6628 18.1132 17.6568 18.1311C17.6508 18.149 17.6565 18.1688 17.6713 18.1806L17.9412 18.3795L17.8396 18.6962C17.8346 18.7145 17.8416 18.734 17.8571 18.7448C17.8727 18.7557 17.8933 18.7557 17.9088 18.7448L18.1788 18.5513L18.4488 18.7448C18.4641 18.757 18.4856 18.7577 18.5016 18.7465C18.5177 18.7352 18.5243 18.7148 18.5181 18.6962L18.4164 18.3795L18.6864 18.1806C18.7011 18.1688 18.7069 18.149 18.7009 18.1311C18.6948 18.1132 18.6783 18.101 18.6594 18.1005H18.3273L18.2202 17.7837Z" fill="white"/>
<path d="M15.7815 18.1005L15.6744 17.7837C15.6618 17.7405 15.6024 17.7405 15.5916 17.7837L15.4845 18.1005H15.1525C15.1336 18.101 15.117 18.1132 15.1109 18.1311C15.105 18.149 15.1107 18.1688 15.1255 18.1806L15.3955 18.3795L15.2938 18.6962C15.2888 18.7145 15.2958 18.734 15.3113 18.7448C15.3269 18.7557 15.3475 18.7557 15.363 18.7448L15.633 18.5513L15.903 18.7448C15.9183 18.757 15.9398 18.7577 15.9558 18.7465C15.9718 18.7352 15.9786 18.7148 15.9722 18.6962L15.8706 18.3795L16.1406 18.1806C16.1553 18.1688 16.1611 18.149 16.1551 18.1311C16.149 18.1132 16.1324 18.101 16.1135 18.1005H15.7815Z" fill="white"/>
<path d="M13.2294 18.1005L13.1223 17.7837C13.1097 17.7405 13.0503 17.7405 13.0494 17.7837L12.9423 18.1005H12.6004C12.5815 18.101 12.5649 18.1132 12.5588 18.1311C12.5529 18.149 12.5586 18.1688 12.5734 18.1806L12.8433 18.3795L12.7417 18.6962C12.7366 18.7145 12.7437 18.734 12.7592 18.7448C12.7748 18.7557 12.7954 18.7557 12.8109 18.7448L13.0809 18.5513L13.3509 18.7448C13.3662 18.757 13.3877 18.7577 13.4037 18.7465C13.4197 18.7352 13.4264 18.7148 13.4201 18.6962L13.3184 18.3795L13.5885 18.1806C13.6032 18.1688 13.609 18.149 13.603 18.1311C13.5969 18.1132 13.5803 18.101 13.5614 18.1005H13.2294Z" fill="white"/>
<path d="M19.6034 17.2897L19.4963 16.9729C19.489 16.936 19.4297 16.936 19.4135 16.9729L19.3064 17.2897H18.9743C18.9554 17.2902 18.9389 17.3024 18.9329 17.3203C18.9268 17.3382 18.9326 17.358 18.9473 17.3698L19.2173 17.5686L19.1156 17.8854C19.1107 17.9037 19.1177 17.9231 19.1332 17.934C19.1487 17.9449 19.1694 17.9449 19.1849 17.934L19.4549 17.7405L19.7249 17.934C19.7401 17.9462 19.7617 17.9469 19.7777 17.9357C19.7937 17.9244 19.8004 17.904 19.7942 17.8854L19.6925 17.5686L19.9624 17.3698C19.9772 17.358 19.983 17.3382 19.9769 17.3203C19.9709 17.3024 19.9543 17.2902 19.9355 17.2897H19.6034Z" fill="white"/>
<path d="M17.0512 17.2897L16.9441 16.9729C16.9369 16.936 16.8775 16.936 16.8613 16.9729L16.7543 17.2897H16.4222C16.4033 17.2902 16.3868 17.3024 16.3807 17.3203C16.3747 17.3382 16.3805 17.358 16.3952 17.3698L16.6652 17.5686L16.5635 17.8854C16.5586 17.9037 16.5656 17.9231 16.5811 17.934C16.5966 17.9449 16.6173 17.9449 16.6328 17.934L16.9027 17.7405L17.1727 17.934C17.188 17.9462 17.2096 17.9469 17.2256 17.9357C17.2416 17.9244 17.2483 17.904 17.242 17.8854L17.1404 17.5686L17.4103 17.3698C17.4251 17.358 17.4309 17.3382 17.4248 17.3203C17.4188 17.3024 17.4022 17.2902 17.3833 17.2897H17.0512Z" fill="white"/>
<path d="M14.5055 17.2897L14.3984 16.9729C14.3858 16.936 14.3263 16.936 14.3254 16.9729L14.2184 17.2897H13.8764C13.8575 17.2902 13.8409 17.3024 13.8349 17.3203C13.8289 17.3382 13.8347 17.358 13.8494 17.3698L14.1194 17.5686L14.0177 17.8854C14.0127 17.9037 14.0198 17.9231 14.0353 17.934C14.0508 17.9449 14.0715 17.9449 14.087 17.934L14.357 17.7405L14.6269 17.934C14.6422 17.9462 14.6637 17.9469 14.6798 17.9357C14.6958 17.9244 14.7025 17.904 14.6962 17.8854L14.5945 17.5686L14.8645 17.3698C14.8792 17.358 14.8851 17.3382 14.879 17.3203C14.873 17.3024 14.8564 17.2902 14.8375 17.2897H14.5055Z" fill="white"/>
<path d="M18.2202 16.1369C18.2202 16.1141 18.2017 16.0955 18.1788 16.0955C18.1559 16.0955 18.1374 16.1141 18.1374 16.1369L18.0304 16.4537H17.6983C17.6794 16.4542 17.6628 16.4664 17.6568 16.4843C17.6508 16.5022 17.6565 16.522 17.6713 16.5338L17.9412 16.7326L17.8396 17.0494C17.8346 17.0677 17.8416 17.0871 17.8571 17.098C17.8727 17.1089 17.8933 17.1089 17.9088 17.098L18.1788 16.9045L18.4488 17.098C18.4641 17.1102 18.4856 17.1109 18.5016 17.0997C18.5177 17.0884 18.5244 17.068 18.5181 17.0494L18.4164 16.7326L18.6864 16.5338C18.7011 16.522 18.7069 16.5022 18.7009 16.4843C18.6948 16.4664 18.6783 16.4542 18.6594 16.4537H18.3273L18.2202 16.1369Z" fill="white"/>
<path d="M15.7815 16.4537L15.6744 16.1369C15.6618 16.0937 15.6024 16.0937 15.5916 16.1369L15.4845 16.4537H15.1525C15.1336 16.4542 15.117 16.4664 15.1109 16.4843C15.105 16.5022 15.1107 16.522 15.1255 16.5338L15.3955 16.7326L15.2938 17.0494C15.2888 17.0677 15.2958 17.0871 15.3113 17.098C15.3269 17.1089 15.3475 17.1089 15.363 17.098L15.633 16.9045L15.903 17.098C15.9183 17.1102 15.9398 17.1109 15.9558 17.0997C15.9719 17.0884 15.9785 17.068 15.9722 17.0494L15.8706 16.7326L16.1406 16.5338C16.1553 16.522 16.1611 16.5022 16.1551 16.4843C16.149 16.4664 16.1324 16.4542 16.1135 16.4537H15.7815Z" fill="white"/>
<path d="M19.4963 15.3315C19.492 15.3143 19.4764 15.3023 19.4586 15.3028C19.4409 15.3032 19.4258 15.3159 19.4224 15.3333L19.3154 15.6501H18.9833C18.9644 15.6505 18.9479 15.6628 18.9419 15.6807C18.9358 15.6986 18.9416 15.7183 18.9563 15.7302L19.2263 15.929L19.1156 16.244C19.1107 16.2623 19.1177 16.2817 19.1332 16.2926C19.1487 16.3035 19.1694 16.3035 19.1849 16.2926L19.4549 16.0991L19.7249 16.2926C19.7401 16.3048 19.7617 16.3055 19.7777 16.2942C19.7937 16.283 19.8004 16.2625 19.7942 16.244L19.6925 15.9272L19.9624 15.7284C19.9772 15.7165 19.983 15.6968 19.9769 15.6789C19.9709 15.661 19.9543 15.6487 19.9355 15.6483H19.6034L19.4963 15.3315Z" fill="white"/>
<path d="M16.9441 15.3315C16.9441 15.3086 16.9256 15.2901 16.9027 15.2901C16.8799 15.2901 16.8613 15.3086 16.8613 15.3315L16.7543 15.6483H16.4222C16.4033 15.6487 16.3868 15.661 16.3807 15.6789C16.3747 15.6968 16.3805 15.7165 16.3952 15.7284L16.6652 15.9272L16.5635 16.244C16.5586 16.2623 16.5656 16.2817 16.5811 16.2926C16.5966 16.3035 16.6173 16.3035 16.6328 16.2926L16.9027 16.0991L17.1727 16.2926C17.188 16.3048 17.2096 16.3055 17.2256 16.2942C17.2416 16.283 17.2483 16.2625 17.242 16.244L17.1404 15.9272L17.4103 15.7284C17.4251 15.7165 17.4309 15.6968 17.4248 15.6789C17.4188 15.661 17.4022 15.6487 17.3833 15.6483H17.0512L16.9441 15.3315Z" fill="white"/>
<path d="M14.5055 15.6483L14.3984 15.3315C14.3858 15.2883 14.3263 15.2883 14.3254 15.3315L14.2184 15.6483H13.8764C13.8575 15.6487 13.8409 15.661 13.8349 15.6789C13.8289 15.6968 13.8347 15.7165 13.8494 15.7284L14.1194 15.9272L14.0177 16.244C14.0127 16.2623 14.0198 16.2817 14.0353 16.2926C14.0508 16.3035 14.0715 16.3035 14.087 16.2926L14.357 16.0991L14.6269 16.2926C14.6422 16.3048 14.6637 16.3055 14.6798 16.2942C14.6958 16.283 14.7025 16.2625 14.6962 16.244L14.5945 15.9272L14.8645 15.7284C14.8792 15.7165 14.8851 15.6968 14.879 15.6789C14.873 15.661 14.8564 15.6487 14.8375 15.6483H14.5055Z" fill="white"/>
<path d="M15.7815 14.8051L15.6744 14.4883C15.6618 14.4514 15.6024 14.4514 15.5916 14.4883L15.4845 14.8051H15.1525C15.1336 14.8055 15.117 14.8178 15.1109 14.8357C15.105 14.8536 15.1107 14.8733 15.1255 14.8852L15.3955 15.084L15.2938 15.4008C15.2888 15.4191 15.2958 15.4385 15.3113 15.4494C15.3269 15.4603 15.3475 15.4603 15.363 15.4494L15.633 15.2559L15.903 15.4494C15.9183 15.4616 15.9398 15.4623 15.9558 15.451C15.9718 15.4398 15.9786 15.4193 15.9722 15.4008L15.8706 15.084L16.1406 14.8852C16.1553 14.8733 16.1611 14.8536 16.1551 14.8357C16.149 14.8178 16.1324 14.8055 16.1135 14.8051H15.7815Z" fill="white"/>
<path d="M18.3273 14.8051L18.2202 14.4883C18.213 14.4514 18.1536 14.4514 18.1374 14.4883L18.0304 14.8051H17.6983C17.6794 14.8055 17.6628 14.8178 17.6568 14.8357C17.6508 14.8536 17.6565 14.8733 17.6713 14.8852L17.9412 15.084L17.8396 15.4008C17.8346 15.4191 17.8416 15.4385 17.8571 15.4494C17.8727 15.4603 17.8933 15.4603 17.9088 15.4494L18.1788 15.2559L18.4488 15.4494C18.4641 15.4616 18.4856 15.4623 18.5016 15.451C18.5177 15.4398 18.5243 15.4193 18.5181 15.4008L18.4164 15.084L18.6864 14.8852C18.7011 14.8733 18.7069 14.8536 18.7009 14.8357C18.6948 14.8178 18.6783 14.8055 18.6594 14.8051H18.3273Z" fill="white"/>
<path d="M17.0512 14.0006L16.9441 13.6838C16.9369 13.6469 16.8775 13.6469 16.8613 13.6838L16.7543 14.0006H16.4222C16.4033 14.001 16.3868 14.0133 16.3807 14.0312C16.3747 14.0491 16.3805 14.0688 16.3952 14.0807L16.6652 14.2795L16.5635 14.5963C16.5585 14.6146 16.5656 14.634 16.5811 14.6449C16.5966 14.6558 16.6173 14.6558 16.6328 14.6449L16.9027 14.4514L17.1727 14.6449C17.188 14.6571 17.2096 14.6578 17.2256 14.6465C17.2416 14.6353 17.2483 14.6148 17.242 14.5963L17.1404 14.2795L17.4103 14.0807C17.4251 14.0688 17.4309 14.0491 17.4248 14.0312C17.4188 14.0133 17.4022 14.001 17.3833 14.0006H17.0512Z" fill="white"/>
<path d="M19.6034 14.0006L19.4963 13.6838C19.489 13.6469 19.4297 13.6469 19.4135 13.6838L19.3064 14.0006H18.9743C18.9554 14.001 18.9389 14.0133 18.9329 14.0312C18.9268 14.0491 18.9326 14.0688 18.9473 14.0807L19.2173 14.2795L19.1156 14.5963C19.1107 14.6146 19.1177 14.634 19.1332 14.6449C19.1487 14.6558 19.1694 14.6558 19.1849 14.6449L19.4549 14.4514L19.7249 14.6449C19.7401 14.6571 19.7617 14.6578 19.7777 14.6465C19.7937 14.6353 19.8004 14.6148 19.7942 14.5963L19.6925 14.2795L19.9624 14.0807C19.9772 14.0688 19.983 14.0491 19.9769 14.0312C19.9709 14.0133 19.9543 14.001 19.9355 14.0006H19.6034Z" fill="white"/>
<path d="M18.2202 12.8469C18.2202 12.8321 18.2123 12.8184 18.1995 12.811C18.1867 12.8036 18.1709 12.8036 18.1581 12.811C18.1453 12.8184 18.1374 12.8321 18.1374 12.8469L18.0304 13.1637H17.6983C17.6794 13.1641 17.6628 13.1764 17.6568 13.1943C17.6508 13.2122 17.6565 13.2319 17.6713 13.2437L17.9412 13.4426L17.8396 13.7594C17.8346 13.7777 17.8416 13.7971 17.8571 13.808C17.8727 13.8189 17.8933 13.8189 17.9088 13.808L18.1788 13.6145L18.4488 13.808C18.4641 13.8202 18.4856 13.8209 18.5016 13.8096C18.5177 13.7984 18.5244 13.7779 18.5181 13.7594L18.4164 13.4426L18.6864 13.2437C18.7011 13.2319 18.7069 13.2122 18.7009 13.1943C18.6948 13.1764 18.6783 13.1641 18.6594 13.1637H18.3273L18.2202 12.8469Z" fill="white"/>
</svg>
