<svg width="32" height="32" viewBox="0 0 32 32" fill="none" xmlns="http://www.w3.org/2000/svg">
<path fill-rule="evenodd" clip-rule="evenodd" d="M4 12V14H2V12H4Z" fill="#FF444F"/>
<path fill-rule="evenodd" clip-rule="evenodd" d="M8 12V16H6V12H8Z" fill="#FF444F"/>
<path fill-rule="evenodd" clip-rule="evenodd" d="M12 12V29H10V12H12Z" fill="#FF444F"/>
<path fill-rule="evenodd" clip-rule="evenodd" d="M16 26V32H14V26H16Z" fill="#FF444F"/>
<path fill-rule="evenodd" clip-rule="evenodd" d="M20 22V29H18V22H20Z" fill="#0AA0B0"/>
<path fill-rule="evenodd" clip-rule="evenodd" d="M24 0V26H22V0H24Z" fill="#0AA0B0"/>
<path fill-rule="evenodd" clip-rule="evenodd" d="M28 4V12H26V4H28Z" fill="#0AA0B0"/>
<path fill-rule="evenodd" clip-rule="evenodd" d="M32 8V12H30V8H32Z" fill="#0AA0B0"/>
<path d="M10.064 6.728C9.94136 6.96267 9.72003 7.08 9.40003 7.08C9.08003 7.08 8.8587 6.96267 8.73603 6.728C8.61336 6.49333 8.55203 6.16267 8.55203 5.736V4.68C8.55203 4.25333 8.61336 3.92267 8.73603 3.688C8.8587 3.45333 9.08003 3.336 9.40003 3.336C9.72003 3.336 9.94136 3.45333 10.064 3.688C10.1867 3.92267 10.248 4.25333 10.248 4.68V5.736C10.248 6.16267 10.1867 6.49333 10.064 6.728Z" fill="#414652"/>
<path fill-rule="evenodd" clip-rule="evenodd" d="M2 0C0.895431 0 0 0.89543 0 2V8C0 9.10457 0.89543 10 2 10H12C13.1046 10 14 9.10457 14 8V2C14 0.895431 13.1046 0 12 0H2ZM7.77603 7.336C8.12803 7.84267 8.66936 8.096 9.40003 8.096C10.1307 8.096 10.672 7.84267 11.024 7.336C11.376 6.82933 11.552 6.12 11.552 5.208C11.552 4.296 11.376 3.58667 11.024 3.08C10.672 2.57333 10.1307 2.32 9.40003 2.32C8.66936 2.32 8.12803 2.57333 7.77603 3.08C7.42403 3.58667 7.24803 4.296 7.24803 5.208C7.24803 6.12 7.42403 6.82933 7.77603 7.336ZM2.95515 7.032V8H6.84315V7.032H5.65915V2.416H3.81915L2.48315 4.176L3.25115 4.776L4.38715 3.288H4.45915V7.032H2.95515Z" fill="#414652"/>
<path d="M2.95515 8V7.032H4.45915V3.288H4.38715L3.25115 4.776L2.48315 4.176L3.81915 2.416H5.65915V7.032H6.84315V8H2.95515Z" fill="white"/>
<path d="M9.40003 8.096C8.66936 8.096 8.12803 7.84267 7.77603 7.336C7.42403 6.82933 7.24803 6.12 7.24803 5.208C7.24803 4.296 7.42403 3.58667 7.77603 3.08C8.12803 2.57333 8.66936 2.32 9.40003 2.32C10.1307 2.32 10.672 2.57333 11.024 3.08C11.376 3.58667 11.552 4.296 11.552 5.208C11.552 6.12 11.376 6.82933 11.024 7.336C10.672 7.84267 10.1307 8.096 9.40003 8.096ZM9.40003 7.08C9.72003 7.08 9.94136 6.96267 10.064 6.728C10.1867 6.49333 10.248 6.16267 10.248 5.736V4.68C10.248 4.25333 10.1867 3.92267 10.064 3.688C9.94136 3.45333 9.72003 3.336 9.40003 3.336C9.08003 3.336 8.8587 3.45333 8.73603 3.688C8.61336 3.92267 8.55203 4.25333 8.55203 4.68V5.736C8.55203 6.16267 8.61336 6.49333 8.73603 6.728C8.8587 6.96267 9.08003 7.08 9.40003 7.08Z" fill="white"/>
</svg>
