<svg width="32" height="32" viewBox="0 0 32 32" fill="none" xmlns="http://www.w3.org/2000/svg">
<path fill-rule="evenodd" clip-rule="evenodd" d="M4 12V14H2V12H4Z" fill="#FF444F"/>
<path fill-rule="evenodd" clip-rule="evenodd" d="M8 12V16H6V12H8Z" fill="#FF444F"/>
<path fill-rule="evenodd" clip-rule="evenodd" d="M12 12V29H10V12H12Z" fill="#FF444F"/>
<path fill-rule="evenodd" clip-rule="evenodd" d="M16 26V32H14V26H16Z" fill="#FF444F"/>
<path fill-rule="evenodd" clip-rule="evenodd" d="M20 22V29H18V22H20Z" fill="#0AA0B0"/>
<path fill-rule="evenodd" clip-rule="evenodd" d="M24 0V26H22V0H24Z" fill="#0AA0B0"/>
<path fill-rule="evenodd" clip-rule="evenodd" d="M28 4V12H26V4H28Z" fill="#0AA0B0"/>
<path fill-rule="evenodd" clip-rule="evenodd" d="M32 8V12H30V8H32Z" fill="#0AA0B0"/>
<path fill-rule="evenodd" clip-rule="evenodd" d="M2 0C0.895431 0 0 0.89543 0 2V8C0 9.10457 0.89543 10 2 10H12C13.1046 10 14 9.10457 14 8V2C14 0.895431 13.1046 0 12 0H2ZM2.65912 8H6.61112V6.992H3.97112L5.01112 6.176C5.20846 6.016 5.39779 5.85867 5.57912 5.704C5.76046 5.54933 5.91779 5.38667 6.05112 5.216C6.18979 5.04 6.29912 4.85333 6.37912 4.656C6.45912 4.45867 6.49912 4.24 6.49912 4C6.49912 3.76 6.45646 3.53867 6.37112 3.336C6.28579 3.128 6.16046 2.94933 5.99512 2.8C5.83512 2.65067 5.63779 2.53333 5.40312 2.448C5.16846 2.36267 4.89912 2.32 4.59512 2.32C4.30712 2.32 4.04846 2.35733 3.81912 2.432C3.58979 2.50667 3.38979 2.61067 3.21912 2.744C3.05379 2.872 2.91512 3.024 2.80312 3.2C2.69112 3.37067 2.60312 3.552 2.53912 3.744L3.58712 4.144C3.61379 4.03733 3.65112 3.93867 3.69912 3.848C3.74712 3.752 3.80579 3.66933 3.87512 3.6C3.94979 3.52533 4.03512 3.46667 4.13112 3.424C4.23246 3.38133 4.34979 3.36 4.48312 3.36C4.57379 3.36 4.66179 3.37333 4.74712 3.4C4.83779 3.42667 4.91779 3.46667 4.98712 3.52C5.05646 3.57333 5.11246 3.64 5.15512 3.72C5.19779 3.8 5.21912 3.89333 5.21912 4V4.112C5.21912 4.22933 5.20312 4.33867 5.17112 4.44C5.14446 4.54133 5.09646 4.64533 5.02712 4.752C4.96312 4.85333 4.87779 4.96 4.77112 5.072C4.66446 5.17867 4.53379 5.29867 4.37912 5.432L2.65912 6.904V8ZM8.64 3.464H11.176V2.416H7.76L7.552 5.576L8.536 5.712C8.61067 5.62667 8.71733 5.54133 8.856 5.456C9 5.36533 9.18133 5.32 9.4 5.32C9.66133 5.32 9.86666 5.39467 10.016 5.544C10.1653 5.69333 10.24 5.896 10.24 6.152V6.216C10.24 6.488 10.1653 6.70667 10.016 6.872C9.872 7.03733 9.656 7.12 9.368 7.12C9.08 7.12 8.85067 7.04533 8.68 6.896C8.50933 6.74133 8.36267 6.55467 8.24 6.336L7.368 7.024C7.45333 7.168 7.55467 7.304 7.672 7.432C7.78933 7.56 7.928 7.67467 8.088 7.776C8.248 7.872 8.432 7.94933 8.64 8.008C8.848 8.06667 9.088 8.096 9.36 8.096C9.70133 8.096 10.0053 8.048 10.272 7.952C10.5387 7.85067 10.7627 7.712 10.944 7.536C11.1307 7.36 11.2693 7.152 11.36 6.912C11.456 6.66667 11.504 6.40267 11.504 6.12C11.504 5.84267 11.4587 5.59467 11.368 5.376C11.2773 5.152 11.1547 4.96533 11 4.816C10.8453 4.66133 10.664 4.544 10.456 4.464C10.248 4.384 10.024 4.344 9.784 4.344C9.608 4.344 9.456 4.36533 9.328 4.408C9.2 4.45067 9.09067 4.512 9 4.592C8.90933 4.66667 8.82933 4.76 8.76 4.872C8.696 4.97867 8.63733 5.09867 8.584 5.232H8.52L8.64 3.464Z" fill="#414652"/>
<path d="M6.61112 8H2.65912V6.904L4.37912 5.432C4.53379 5.29867 4.66446 5.17867 4.77112 5.072C4.87779 4.96 4.96312 4.85333 5.02712 4.752C5.09646 4.64533 5.14446 4.54133 5.17112 4.44C5.20312 4.33867 5.21912 4.22933 5.21912 4.112V4C5.21912 3.89333 5.19779 3.8 5.15512 3.72C5.11246 3.64 5.05646 3.57333 4.98712 3.52C4.91779 3.46667 4.83779 3.42667 4.74712 3.4C4.66179 3.37333 4.57379 3.36 4.48312 3.36C4.34979 3.36 4.23246 3.38133 4.13112 3.424C4.03512 3.46667 3.94979 3.52533 3.87512 3.6C3.80579 3.66933 3.74712 3.752 3.69912 3.848C3.65112 3.93867 3.61379 4.03733 3.58712 4.144L2.53912 3.744C2.60312 3.552 2.69112 3.37067 2.80312 3.2C2.91512 3.024 3.05379 2.872 3.21912 2.744C3.38979 2.61067 3.58979 2.50667 3.81912 2.432C4.04846 2.35733 4.30712 2.32 4.59512 2.32C4.89912 2.32 5.16846 2.36267 5.40312 2.448C5.63779 2.53333 5.83512 2.65067 5.99512 2.8C6.16046 2.94933 6.28579 3.128 6.37112 3.336C6.45646 3.53867 6.49912 3.76 6.49912 4C6.49912 4.24 6.45912 4.45867 6.37912 4.656C6.29912 4.85333 6.18979 5.04 6.05112 5.216C5.91779 5.38667 5.76046 5.54933 5.57912 5.704C5.39779 5.85867 5.20846 6.016 5.01112 6.176L3.97112 6.992H6.61112V8Z" fill="white"/>
<path d="M11.176 3.464H8.64L8.52 5.232H8.584C8.63733 5.09867 8.696 4.97867 8.76 4.872C8.82933 4.76 8.90933 4.66667 9 4.592C9.09067 4.512 9.2 4.45067 9.328 4.408C9.456 4.36533 9.608 4.344 9.784 4.344C10.024 4.344 10.248 4.384 10.456 4.464C10.664 4.544 10.8453 4.66133 11 4.816C11.1547 4.96533 11.2773 5.152 11.368 5.376C11.4587 5.59467 11.504 5.84267 11.504 6.12C11.504 6.40267 11.456 6.66667 11.36 6.912C11.2693 7.152 11.1307 7.36 10.944 7.536C10.7627 7.712 10.5387 7.85067 10.272 7.952C10.0053 8.048 9.70133 8.096 9.36 8.096C9.088 8.096 8.848 8.06667 8.64 8.008C8.432 7.94933 8.248 7.872 8.088 7.776C7.928 7.67467 7.78933 7.56 7.672 7.432C7.55467 7.304 7.45333 7.168 7.368 7.024L8.24 6.336C8.36267 6.55467 8.50933 6.74133 8.68 6.896C8.85067 7.04533 9.08 7.12 9.368 7.12C9.656 7.12 9.872 7.03733 10.016 6.872C10.1653 6.70667 10.24 6.488 10.24 6.216V6.152C10.24 5.896 10.1653 5.69333 10.016 5.544C9.86666 5.39467 9.66133 5.32 9.4 5.32C9.18133 5.32 9 5.36533 8.856 5.456C8.71733 5.54133 8.61067 5.62667 8.536 5.712L7.552 5.576L7.76 2.416H11.176V3.464Z" fill="white"/>
</svg>
