<svg width="32" height="32" viewBox="0 0 32 32" fill="none" xmlns="http://www.w3.org/2000/svg">
<path fill-rule="evenodd" clip-rule="evenodd" d="M4 12V14H2V12H4Z" fill="#FF444F"/>
<path fill-rule="evenodd" clip-rule="evenodd" d="M8 12V16H6V12H8Z" fill="#FF444F"/>
<path fill-rule="evenodd" clip-rule="evenodd" d="M12 12V29H10V12H12Z" fill="#FF444F"/>
<path fill-rule="evenodd" clip-rule="evenodd" d="M16 26V32H14V26H16Z" fill="#FF444F"/>
<path fill-rule="evenodd" clip-rule="evenodd" d="M20 22V29H18V22H20Z" fill="#0AA0B0"/>
<path fill-rule="evenodd" clip-rule="evenodd" d="M24 0V26H22V0H24Z" fill="#0AA0B0"/>
<path fill-rule="evenodd" clip-rule="evenodd" d="M28 4V12H26V4H28Z" fill="#0AA0B0"/>
<path fill-rule="evenodd" clip-rule="evenodd" d="M32 8V12H30V8H32Z" fill="#0AA0B0"/>
<path d="M10.064 6.728C9.94131 6.96267 9.71998 7.08 9.39998 7.08C9.07998 7.08 8.85865 6.96267 8.73598 6.728C8.61331 6.49333 8.55198 6.16267 8.55198 5.736V4.68C8.55198 4.25333 8.61331 3.92267 8.73598 3.688C8.85865 3.45333 9.07998 3.336 9.39998 3.336C9.71998 3.336 9.94131 3.45333 10.064 3.688C10.1866 3.92267 10.248 4.25333 10.248 4.68V5.736C10.248 6.16267 10.1866 6.49333 10.064 6.728Z" fill="#414652"/>
<path fill-rule="evenodd" clip-rule="evenodd" d="M2 0C0.895431 0 0 0.89543 0 2V8C0 9.10457 0.89543 10 2 10H12C13.1046 10 14 9.10457 14 8V2C14 0.895431 13.1046 0 12 0H2ZM7.77598 7.336C8.12798 7.84267 8.66931 8.096 9.39998 8.096C10.1306 8.096 10.672 7.84267 11.024 7.336C11.376 6.82933 11.552 6.12 11.552 5.208C11.552 4.296 11.376 3.58667 11.024 3.08C10.672 2.57333 10.1306 2.32 9.39998 2.32C8.66931 2.32 8.12798 2.57333 7.77598 3.08C7.42398 3.58667 7.24798 4.296 7.24798 5.208C7.24798 6.12 7.42398 6.82933 7.77598 7.336ZM3.84311 3.464H6.37911V2.416H2.96311L2.75511 5.576L3.73911 5.712C3.81377 5.62667 3.92044 5.54133 4.05911 5.456C4.20311 5.36533 4.38444 5.32 4.60311 5.32C4.86444 5.32 5.06977 5.39467 5.21911 5.544C5.36844 5.69333 5.44311 5.896 5.44311 6.152V6.216C5.44311 6.488 5.36844 6.70667 5.21911 6.872C5.07511 7.03733 4.85911 7.12 4.57111 7.12C4.28311 7.12 4.05377 7.04533 3.88311 6.896C3.71244 6.74133 3.56577 6.55467 3.44311 6.336L2.57111 7.024C2.65644 7.168 2.75777 7.304 2.87511 7.432C2.99244 7.56 3.13111 7.67467 3.29111 7.776C3.45111 7.872 3.63511 7.94933 3.84311 8.008C4.05111 8.06667 4.29111 8.096 4.56311 8.096C4.90444 8.096 5.20844 8.048 5.47511 7.952C5.74177 7.85067 5.96577 7.712 6.14711 7.536C6.33377 7.36 6.47244 7.152 6.56311 6.912C6.65911 6.66667 6.70711 6.40267 6.70711 6.12C6.70711 5.84267 6.66177 5.59467 6.57111 5.376C6.48044 5.152 6.35777 4.96533 6.20311 4.816C6.04844 4.66133 5.86711 4.544 5.65911 4.464C5.45111 4.384 5.22711 4.344 4.98711 4.344C4.81111 4.344 4.65911 4.36533 4.53111 4.408C4.40311 4.45067 4.29377 4.512 4.20311 4.592C4.11244 4.66667 4.03244 4.76 3.96311 4.872C3.89911 4.97867 3.84044 5.09867 3.78711 5.232H3.72311L3.84311 3.464Z" fill="#414652"/>
<path d="M6.37911 3.464H3.84311L3.72311 5.232H3.78711C3.84044 5.09867 3.89911 4.97867 3.96311 4.872C4.03244 4.76 4.11244 4.66667 4.20311 4.592C4.29377 4.512 4.40311 4.45067 4.53111 4.408C4.65911 4.36533 4.81111 4.344 4.98711 4.344C5.22711 4.344 5.45111 4.384 5.65911 4.464C5.86711 4.544 6.04844 4.66133 6.20311 4.816C6.35777 4.96533 6.48044 5.152 6.57111 5.376C6.66177 5.59467 6.70711 5.84267 6.70711 6.12C6.70711 6.40267 6.65911 6.66667 6.56311 6.912C6.47244 7.152 6.33377 7.36 6.14711 7.536C5.96577 7.712 5.74177 7.85067 5.47511 7.952C5.20844 8.048 4.90444 8.096 4.56311 8.096C4.29111 8.096 4.05111 8.06667 3.84311 8.008C3.63511 7.94933 3.45111 7.872 3.29111 7.776C3.13111 7.67467 2.99244 7.56 2.87511 7.432C2.75777 7.304 2.65644 7.168 2.57111 7.024L3.44311 6.336C3.56577 6.55467 3.71244 6.74133 3.88311 6.896C4.05377 7.04533 4.28311 7.12 4.57111 7.12C4.85911 7.12 5.07511 7.03733 5.21911 6.872C5.36844 6.70667 5.44311 6.488 5.44311 6.216V6.152C5.44311 5.896 5.36844 5.69333 5.21911 5.544C5.06977 5.39467 4.86444 5.32 4.60311 5.32C4.38444 5.32 4.20311 5.36533 4.05911 5.456C3.92044 5.54133 3.81377 5.62667 3.73911 5.712L2.75511 5.576L2.96311 2.416H6.37911V3.464Z" fill="white"/>
<path d="M9.39998 8.096C8.66931 8.096 8.12798 7.84267 7.77598 7.336C7.42398 6.82933 7.24798 6.12 7.24798 5.208C7.24798 4.296 7.42398 3.58667 7.77598 3.08C8.12798 2.57333 8.66931 2.32 9.39998 2.32C10.1306 2.32 10.672 2.57333 11.024 3.08C11.376 3.58667 11.552 4.296 11.552 5.208C11.552 6.12 11.376 6.82933 11.024 7.336C10.672 7.84267 10.1306 8.096 9.39998 8.096ZM9.39998 7.08C9.71998 7.08 9.94131 6.96267 10.064 6.728C10.1866 6.49333 10.248 6.16267 10.248 5.736V4.68C10.248 4.25333 10.1866 3.92267 10.064 3.688C9.94131 3.45333 9.71998 3.336 9.39998 3.336C9.07998 3.336 8.85865 3.45333 8.73598 3.688C8.61331 3.92267 8.55198 4.25333 8.55198 4.68V5.736C8.55198 6.16267 8.61331 6.49333 8.73598 6.728C8.85865 6.96267 9.07998 7.08 9.39998 7.08Z" fill="white"/>
</svg>
