<svg width="32" height="32" viewBox="0 0 32 32" fill="none" xmlns="http://www.w3.org/2000/svg">
<g clip-path="url(#clip0_8821_16986)">
<path d="M32 16C32 24.8366 24.8366 32 16 32C7.16344 32 0 24.8366 0 16C0 7.16344 7.16344 0 16 0C24.8366 0 32 7.16344 32 16Z" fill="#E92431"/>
<path d="M25.6443 13.5192C25.5649 13.5769 25.4936 13.6448 25.4322 13.7212L24.9962 14.1273C24.7962 14.3173 24.5962 14.5073 24.4101 14.7114C24.3721 14.7494 23.71 15.3574 23.71 15.3574C23.6099 14.507 23.5439 13.6529 23.512 12.7971C23.4646 11.871 23.436 10.9441 23.426 10.0168C23.412 9.10472 23.426 8.19261 23.574 7.28051C23.624 6.92447 24.1741 5.72033 23.35 6.07437C21.5918 6.83446 18.9995 9.06671 18.9495 12.6551C18.9375 13.4152 19.0375 14.1773 19.2735 14.9134C19.3235 15.0774 19.3856 15.2294 19.4476 15.3934C19.4976 15.5095 19.6736 15.7495 19.6736 15.8775C19.6736 16.1435 18.9875 16.3215 18.7495 16.3716C18.5453 16.4203 18.3371 16.4497 18.1274 16.4596C17.8894 16.4856 17.6774 16.5616 17.6033 16.3335C17.5033 16.0035 17.4793 15.5975 17.2913 15.1794C16.8433 14.2153 16.0712 13.4932 15.0231 13.3392C14.0889 13.2132 13.1528 13.5812 12.3307 14.0133C11.8067 14.2933 11.2946 14.6094 10.8106 14.9514C10.7226 14.1513 10.6345 13.3152 10.5725 12.3771C10.4345 10.3109 10.3725 8.34463 10.8846 6.3404C10.9086 6.25239 10.9226 6.15038 10.8726 6.07437C10.7966 5.96035 10.6225 5.99836 10.4985 6.05036C9.03555 6.65253 7.80973 7.71677 7.00813 9.08071C6.20325 10.4629 5.86649 12.0681 6.04802 13.6572C6.26004 15.4835 7.23215 17.2577 8.82834 18.1078C8.05115 19.3061 7.45784 20.6141 7.06813 21.9882C6.82011 22.8643 6.67009 23.7764 6.82011 24.6645C6.92012 25.2346 7.22015 25.8686 7.78022 25.9847C8.25427 26.0847 8.72833 25.7686 9.07637 25.4246C10.1865 24.3345 10.7346 22.7883 10.9346 21.2541C11.0946 19.974 11.1346 18.6938 11.0346 17.3997L10.9586 16.5116C10.8846 15.7755 11.4086 15.3454 11.9447 14.9394C12.3187 14.6594 12.6908 14.3933 13.1148 14.2153C13.5389 14.0393 14.0009 13.9233 14.461 13.9873C15.1211 14.0773 15.8591 14.5333 16.1572 15.1534C16.2192 15.2934 16.4572 15.7875 16.1332 15.7635C16.0572 15.7635 15.9832 15.7115 15.9212 15.6735C15.3038 15.3237 14.5965 15.1649 13.8889 15.2174C13.5915 15.2408 13.3044 15.337 13.0528 15.4975C12.8048 15.6735 12.6288 15.9655 12.6668 16.2695C12.6788 16.4496 12.7668 16.6116 12.8668 16.7656C13.022 17.0272 13.2408 17.2453 13.5029 17.3997C14.1009 17.7277 14.811 17.5757 15.4591 17.5517C15.7792 17.5287 16.1001 17.585 16.3932 17.7157C16.5185 17.7647 16.6303 17.8428 16.7192 17.9437C16.8433 18.0958 16.9193 18.4518 17.0793 18.4378C17.2913 18.4258 17.3673 17.9437 17.4033 17.8037C17.4653 17.5897 17.4793 17.2717 17.7654 17.1836C18.1894 17.0556 18.6255 16.9436 19.0615 16.8416C19.2735 16.7896 19.4976 16.7516 19.7216 16.7136C19.8716 16.6896 20.0336 16.6376 20.1836 16.7016C20.4077 16.8016 20.5337 17.0556 20.6957 17.2337C20.8957 17.4617 21.1318 17.6537 21.3798 17.8037C21.4298 17.8297 21.8178 18.0317 21.7918 18.0838C21.7538 18.1598 21.7038 18.2238 21.6678 18.2998C20.5457 20.188 20.2477 21.1781 19.9596 22.3062C19.5356 23.9544 19.6736 25.7166 20.7077 25.9327C22.1279 26.2367 23.588 23.6884 23.9121 21.2281C24.1241 19.5679 23.9121 17.5877 23.8721 15.9155C23.8721 15.9155 24.2721 15.5215 24.3841 15.4074C24.6722 15.1274 24.9582 14.8374 25.2322 14.5473C25.3822 14.3933 25.5183 14.2413 25.6683 14.1013C25.7803 13.9873 25.9423 13.8613 25.9923 13.6952C26.0183 13.5952 25.9803 13.4432 25.8563 13.4292C25.7818 13.4491 25.7104 13.4794 25.6443 13.5192ZM9.98647 22.3322C9.75044 24.8165 8.64032 25.0325 8.14226 24.8545C7.56819 24.6385 7.40617 22.8383 8.29227 20.568C8.71432 19.4779 9.25239 18.5138 9.73644 17.7277C9.96247 19.4019 10.1105 21.0381 9.98647 22.3322ZM10.2725 6.97447C9.94847 7.72256 9.31239 9.14272 9.22638 11.515C9.17638 13.0752 9.41241 14.9754 9.65043 16.8536C9.46241 17.1336 9.26439 17.4117 9.09037 17.7037C8.00424 16.9296 7.47018 15.3054 7.39417 12.7951C7.26816 9.04271 9.07637 7.1905 10.0605 6.72244C10.3105 6.59443 10.4345 6.62043 10.2725 6.97447ZM15.9952 16.8816C15.9712 16.9196 15.9212 16.9436 15.8591 16.9696C15.7028 16.9991 15.5427 17.0032 15.3851 16.9816C15.0917 16.9718 14.8033 16.9031 14.537 16.7796C14.363 16.7011 14.2126 16.5784 14.1009 16.4236C14.0509 16.3235 14.0009 16.2095 14.0509 16.1075C14.0749 16.0435 14.1369 16.0075 14.201 15.9675C14.3492 15.8987 14.5106 15.8631 14.674 15.8631C14.8374 15.8631 14.9988 15.8987 15.1471 15.9675C15.4471 16.0955 15.6951 16.3235 15.9212 16.5636C16.0212 16.6636 16.0572 16.7916 15.9952 16.8816ZM22.952 22.3342C22.7139 24.8185 21.6058 25.0345 21.1178 24.8565C20.5457 24.6405 20.3837 22.8403 21.2678 20.57C21.6918 19.4799 22.2279 18.5158 22.7139 17.7297C22.914 19.4039 23.076 21.0401 22.952 22.3342ZM23.238 6.97647C22.914 7.72456 22.2659 9.14472 22.1899 11.517C22.1419 13.0772 22.3779 14.9774 22.6139 16.8556C22.4139 17.1356 22.2279 17.4137 22.0419 17.7057C20.9557 16.9316 20.4217 15.3074 20.3457 12.7971C20.2337 9.04471 22.0279 7.1925 23.026 6.72444C23.264 6.59643 23.386 6.62243 23.238 6.97647Z" fill="white"/>
</g>
<defs>
<clipPath id="clip0_8821_16986">
<rect width="32" height="32" fill="white"/>
</clipPath>
</defs>
</svg>
