<svg width="32" height="32" viewBox="0 0 32 32" fill="none" xmlns="http://www.w3.org/2000/svg">
<g clip-path="url(#clip0_8821_16998)">
<path d="M32 16C32 24.8366 24.8366 32 16 32C7.16344 32 0 24.8366 0 16C0 7.16344 7.16344 0 16 0C24.8366 0 32 7.16344 32 16Z" fill="#F6F7F8"/>
<path d="M19 16C19 20.1421 15.6421 23.5 11.5 23.5C7.35786 23.5 4 20.1421 4 16C4 11.8579 7.35786 8.5 11.5 8.5C15.6421 8.5 19 11.8579 19 16Z" fill="#EB001B"/>
<path d="M28 16C28 20.1421 24.6421 23.5 20.5 23.5C16.3579 23.5 13 20.1421 13 16C13 11.8579 16.3579 8.5 20.5 8.5C24.6421 8.5 28 11.8579 28 16Z" fill="#F79E1B"/>
<path d="M16 22.0005C17.8217 20.6322 19 18.4537 19 16C19 13.5463 17.8217 11.3678 16 9.99945C14.1783 11.3678 13 13.5463 13 16C13 18.4537 14.1783 20.6322 16 22.0005Z" fill="#FF5F00"/>
</g>
<defs>
<clipPath id="clip0_8821_16998">
<rect width="32" height="32" fill="white"/>
</clipPath>
</defs>
</svg>
