<svg width="32" height="32" viewBox="0 0 32 32" fill="none" xmlns="http://www.w3.org/2000/svg">
<g clip-path="url(#clip0_8821_16956)">
<path d="M32 16C32 24.8366 24.8366 32 16 32C7.16344 32 0 24.8366 0 16C0 7.16344 7.16344 0 16 0C24.8366 0 32 7.16344 32 16Z" fill="#F2F5F8"/>
<path d="M20.3531 9.35498C18.7131 9.35498 17.432 10.5896 16.2705 12.1592C14.6757 10.1285 13.3427 9.35498 11.7466 9.35498C8.49319 9.35498 6 13.5892 6 18.072C6 20.8763 7.3569 22.6452 9.62948 22.6452C11.2655 22.6452 12.4416 21.8744 14.5335 18.2182C14.5335 18.2182 15.4053 16.6792 16.0047 15.6187C16.2146 15.9576 16.4366 16.323 16.6691 16.7151L17.6499 18.3644C19.5597 21.5607 20.6242 22.6452 22.5539 22.6452C24.768 22.6452 26 20.8523 26 17.9896C25.9987 13.2969 23.4497 9.35498 20.3531 9.35498ZM12.9373 17.2281C11.2415 19.8861 10.6555 20.4815 9.71055 20.4815C8.73905 20.4815 8.16094 19.6283 8.16094 18.1079C8.16094 14.8545 9.78364 11.5266 11.7173 11.5266C12.7646 11.5266 13.6404 12.1313 14.98 14.0504C13.7095 16.0041 12.9373 17.2281 12.9373 17.2281ZM19.3378 16.8932L18.1656 14.9382C17.848 14.4225 17.5436 13.9467 17.2512 13.5135C18.3078 11.8828 19.1796 11.0694 20.2162 11.0694C22.3705 11.0694 24.0929 14.2405 24.0929 18.1358C24.0929 19.6203 23.6065 20.4829 22.5991 20.4829C21.6329 20.4815 21.1718 19.8449 19.3378 16.8932Z" fill="url(#paint0_linear_8821_16956)"/>
</g>
<defs>
<linearGradient id="paint0_linear_8821_16956" x1="17.5718" y1="12.0808" x2="11.5173" y2="16.0006" gradientUnits="userSpaceOnUse">
<stop stop-color="#0180F9"/>
<stop offset="0.332195" stop-color="#0768E1"/>
<stop offset="0.627237" stop-color="#0768E1"/>
<stop offset="1" stop-color="#0180F9"/>
</linearGradient>
<clipPath id="clip0_8821_16956">
<rect width="32" height="32" fill="white"/>
</clipPath>
</defs>
</svg>
