<svg width="32" height="32" viewBox="0 0 32 32" fill="none" xmlns="http://www.w3.org/2000/svg">
<g clip-path="url(#clip0_8821_17004)">
<path d="M32 16C32 24.8366 24.8366 32 16 32C7.16344 32 0 24.8366 0 16C0 7.16344 7.16344 0 16 0C24.8366 0 32 7.16344 32 16Z" fill="#F6F7F8"/>
<path fill-rule="evenodd" clip-rule="evenodd" d="M2.50757 18.9623C2.50757 18.8655 2.58598 18.7871 2.68271 18.7871H4.12955C4.22628 18.7871 4.3047 18.8655 4.3047 18.9623C4.3047 19.059 4.22628 19.1374 4.12955 19.1374H2.68271C2.58598 19.1374 2.50757 19.059 2.50757 18.9623Z" fill="#A6DFF9"/>
<path fill-rule="evenodd" clip-rule="evenodd" d="M4.79205 18.9623C4.79205 18.8655 4.87047 18.7871 4.96719 18.7871H6.41403C6.51076 18.7871 6.58918 18.8655 6.58918 18.9623C6.58918 19.059 6.51076 19.1374 6.41403 19.1374H4.96719C4.87047 19.1374 4.79205 19.059 4.79205 18.9623Z" fill="#93DAF8"/>
<path fill-rule="evenodd" clip-rule="evenodd" d="M7.07653 18.9623C7.07653 18.8655 7.15495 18.7871 7.25168 18.7871H8.69851C8.79524 18.7871 8.87366 18.8655 8.87366 18.9623C8.87366 19.059 8.79524 19.1374 8.69851 19.1374H7.25168C7.15495 19.1374 7.07653 19.059 7.07653 18.9623Z" fill="#7ED4F7"/>
<path fill-rule="evenodd" clip-rule="evenodd" d="M9.36102 18.9623C9.36102 18.8655 9.43943 18.7871 9.53616 18.7871H10.983C11.0797 18.7871 11.1581 18.8655 11.1581 18.9623C11.1581 19.059 11.0797 19.1374 10.983 19.1374H9.53616C9.43943 19.1374 9.36102 19.059 9.36102 18.9623Z" fill="#6BCFF6"/>
<path fill-rule="evenodd" clip-rule="evenodd" d="M11.6455 18.9623C11.6455 18.8655 11.7239 18.7871 11.8206 18.7871H13.2675C13.3642 18.7871 13.4426 18.8655 13.4426 18.9623C13.4426 19.059 13.3642 19.1374 13.2675 19.1374H11.8206C11.7239 19.1374 11.6455 19.059 11.6455 18.9623Z" fill="#52CBF5"/>
<path fill-rule="evenodd" clip-rule="evenodd" d="M13.93 18.9623C13.93 18.8655 14.0084 18.7871 14.1051 18.7871H15.552C15.6487 18.7871 15.7271 18.8655 15.7271 18.9623C15.7271 19.059 15.6487 19.1374 15.552 19.1374H14.1051C14.0084 19.1374 13.93 19.059 13.93 18.9623Z" fill="#39C6F4"/>
<path fill-rule="evenodd" clip-rule="evenodd" d="M16.2145 18.9623C16.2145 18.8655 16.2929 18.7871 16.3896 18.7871H17.8365C17.9332 18.7871 18.0116 18.8655 18.0116 18.9623C18.0116 19.059 17.9332 19.1374 17.8365 19.1374H16.3896C16.2929 19.1374 16.2145 19.059 16.2145 18.9623Z" fill="#20C2F3"/>
<path fill-rule="evenodd" clip-rule="evenodd" d="M18.4989 18.9623C18.4989 18.8655 18.5774 18.7871 18.6741 18.7871H20.1209C20.2177 18.7871 20.2961 18.8655 20.2961 18.9623C20.2961 19.059 20.2177 19.1374 20.1209 19.1374H18.6741C18.5774 19.1374 18.4989 19.059 18.4989 18.9623Z" fill="#04BEF2"/>
<path fill-rule="evenodd" clip-rule="evenodd" d="M20.7834 18.9623C20.7834 18.8655 20.8618 18.7871 20.9586 18.7871H22.4054C22.5021 18.7871 22.5806 18.8655 22.5806 18.9623C22.5806 19.059 22.5021 19.1374 22.4054 19.1374H20.9586C20.8618 19.1374 20.7834 19.059 20.7834 18.9623Z" fill="#00BAF2"/>
<path fill-rule="evenodd" clip-rule="evenodd" d="M23.0679 18.9623C23.0679 18.8655 23.1463 18.7871 23.2431 18.7871H24.6899C24.7866 18.7871 24.865 18.8655 24.865 18.9623C24.865 19.059 24.7866 19.1374 24.6899 19.1374H23.2431C23.1463 19.1374 23.0679 19.059 23.0679 18.9623Z" fill="#00B6F1"/>
<path fill-rule="evenodd" clip-rule="evenodd" d="M25.3524 18.9623C25.3524 18.8655 25.4308 18.7871 25.5275 18.7871H26.9744C27.0711 18.7871 27.1495 18.8655 27.1495 18.9623C27.1495 19.059 27.0711 19.1374 26.9744 19.1374H25.5275C25.4308 19.1374 25.3524 19.059 25.3524 18.9623Z" fill="#00B3F0"/>
<path fill-rule="evenodd" clip-rule="evenodd" d="M27.6369 18.9623C27.6369 18.8655 27.7153 18.7871 27.812 18.7871H29.2589C29.3556 18.7871 29.434 18.8655 29.434 18.9623C29.434 19.059 29.3556 19.1374 29.2589 19.1374H27.812C27.7153 19.1374 27.6369 19.059 27.6369 18.9623Z" fill="#00AFEF"/>
<path d="M15.1864 12.8703V14.7359C15.0456 14.5221 14.8532 14.3472 14.627 14.2274C14.4007 14.1076 14.1479 14.0468 13.8919 14.0506C13.4198 14.0506 13.0238 14.2181 12.6887 14.5532C12.5306 14.7121 12.406 14.9012 12.3223 15.1091C12.2386 15.3171 12.1975 15.5398 12.2014 15.7639C12.2014 16.2513 12.3689 16.6549 12.6963 16.9899C13.0162 17.3326 13.4198 17.5001 13.8767 17.5001C14.1432 17.5001 14.3869 17.4392 14.6077 17.3402C14.8209 17.226 15.0189 17.0661 15.194 16.8529V17.4164H15.6129V12.8703H15.1864ZM4.14476 14.0125C3.91631 14.0125 3.68786 14.0734 3.47464 14.2029C3.29483 14.3255 3.14195 14.4836 3.02536 14.6674V14.0963H2.60654V17.4164H3.02536V16.0076C3.02536 15.5888 3.07105 15.2842 3.1472 15.0786C3.22239 14.8859 3.35204 14.7192 3.52033 14.5989C3.68786 14.4846 3.87062 14.4237 4.06099 14.4237C4.22852 14.4237 4.3732 14.4694 4.50266 14.5532C4.62271 14.6375 4.71327 14.7573 4.76157 14.8958C4.80726 15.0481 4.8301 15.3147 4.8301 15.7182V17.4164H5.24892V16.1218C5.24892 15.6421 5.287 15.2994 5.36315 15.0938C5.4393 14.8958 5.56875 14.7283 5.73628 14.6065C5.90381 14.4846 6.08657 14.4237 6.29217 14.4237C6.4597 14.4237 6.59677 14.4618 6.71861 14.5455C6.84045 14.6217 6.92421 14.7359 6.97752 14.8654C7.03082 15.0024 7.05366 15.2461 7.05366 15.604V17.4164H7.4801V15.6116C7.4801 15.2004 7.44203 14.8806 7.35826 14.675C7.28245 14.4755 7.14641 14.3045 6.96902 14.1858C6.79163 14.067 6.58169 14.0065 6.36832 14.0125C6.13226 14.0125 5.91142 14.0887 5.6982 14.2181C5.4926 14.3552 5.31746 14.5532 5.17277 14.8121C5.11185 14.6217 5.02809 14.4694 4.94432 14.3628C4.84928 14.2523 4.72917 14.1661 4.59404 14.1115C4.44935 14.043 4.30467 14.0125 4.13714 14.0125H4.14476ZM9.87881 14.0125C9.38384 14.0125 8.97263 14.1953 8.66042 14.5684C8.36275 14.895 8.19954 15.3221 8.20352 15.7639C8.20352 16.2208 8.35582 16.632 8.67565 16.9823C8.98025 17.325 9.38384 17.5001 9.87119 17.5001C10.097 17.5067 10.3214 17.463 10.5281 17.3721C10.7349 17.2812 10.9189 17.1455 11.0667 16.9747C11.3708 16.6454 11.537 16.2121 11.5313 15.7639C11.5313 15.307 11.3866 14.9034 11.0896 14.5608C10.9405 14.3835 10.7538 14.2417 10.543 14.1455C10.3323 14.0494 10.1028 14.0013 9.87119 14.0049L9.87881 14.0125ZM18.0649 14.0125C17.5318 14.0125 17.1054 14.2181 16.7779 14.6369C16.5267 14.9644 16.4048 15.3375 16.4048 15.7639C16.4048 16.2132 16.5571 16.6092 16.8541 16.9671C17.0053 17.1444 17.1951 17.2846 17.4089 17.377C17.6228 17.4695 17.855 17.5116 18.0877 17.5001C18.5113 17.5062 18.9207 17.3479 19.23 17.0585C19.3823 16.9214 19.5193 16.731 19.6259 16.5026L19.2833 16.3122C19.1538 16.533 19.0396 16.693 18.9254 16.7843C18.6811 16.9923 18.3704 17.1058 18.0496 17.1042C17.7146 17.1042 17.4252 16.9823 17.1968 16.7387C16.9607 16.4874 16.8389 16.1751 16.8313 15.7868H19.7402C19.7402 15.3299 19.6183 14.9491 19.3823 14.6445C19.2295 14.4412 19.0301 14.2775 18.8008 14.1675C18.5715 14.0575 18.3191 14.0043 18.0649 14.0125ZM21.6287 14.0125C21.4688 14.0125 21.3165 14.0582 21.1718 14.1496C21.0019 14.2641 20.8568 14.4117 20.7453 14.5836V14.0886H20.3037V17.4088H20.7453V16.297C20.7453 15.7182 20.7758 15.3299 20.8291 15.1471C20.9052 14.8958 21.0042 14.7131 21.1337 14.5989C21.2483 14.4882 21.4009 14.4256 21.5601 14.4237C21.6134 14.4237 21.6896 14.4389 21.7886 14.4846L22.017 14.1191C21.8723 14.043 21.7505 14.0049 21.6287 14.0049V14.0125ZM24.1416 14.0125C23.8979 14.0125 23.6771 14.0658 23.4715 14.18C23.2513 14.3077 23.0616 14.4818 22.9156 14.6902V14.0886H22.4968V17.4088H22.9156V16.1904C22.9156 15.7563 22.9384 15.4517 22.9765 15.2842C23.0374 15.0329 23.1745 14.8273 23.3725 14.6522C23.5781 14.477 23.8065 14.3932 24.0578 14.3932C24.2863 14.3932 24.4614 14.4542 24.5909 14.5608C24.7397 14.6878 24.8394 14.8629 24.8726 15.0557C24.9107 15.1852 24.9259 15.4365 24.9259 15.8249V17.4088H25.3448V15.7106C25.3448 15.2537 25.2991 14.9187 25.2077 14.7055C25.1163 14.4922 24.9792 14.3247 24.7889 14.1953C24.5972 14.0681 24.3716 14.0017 24.1416 14.0049V14.0125ZM27.7206 14.0125C27.2713 14.0125 26.883 14.18 26.5632 14.5151C26.4053 14.6773 26.281 14.8692 26.1973 15.0795C26.1137 15.2899 26.0724 15.5147 26.0758 15.7411C26.0662 16.2018 26.2386 16.6478 26.5555 16.9823C26.7131 17.1554 26.9074 17.291 27.1242 17.3793C27.341 17.4675 27.5748 17.5061 27.8085 17.4922C28.0422 17.4784 28.2697 17.4124 28.4746 17.2991C28.6794 17.1858 28.8563 17.0282 28.9923 16.8376V17.4164H29.4035V14.0886H28.9999V14.6978C28.8577 14.4794 28.6643 14.299 28.4364 14.1724C28.2201 14.061 27.9791 14.006 27.7359 14.0125H27.7206ZM18.0649 14.4161C18.2629 14.4161 18.4456 14.4618 18.6131 14.5455C18.7959 14.6217 18.933 14.7359 19.0396 14.873C19.1386 15.0101 19.2223 15.1852 19.2833 15.4137H16.8693C16.9607 15.1091 17.0825 14.8806 17.2501 14.7283C17.4785 14.5227 17.7527 14.4237 18.0649 14.4237V14.4161ZM27.7587 14.4161C28.1166 14.4161 28.4136 14.5455 28.6649 14.8045C28.9009 15.0634 29.0228 15.3832 29.0228 15.7716C29.0228 16.0228 28.9695 16.2513 28.8705 16.4493C28.7611 16.6466 28.6011 16.8112 28.4071 16.9263C28.2131 17.0414 27.9919 17.1028 27.7663 17.1042C27.5379 17.1042 27.3246 17.0432 27.1267 16.929C26.8351 16.7355 26.6261 16.4403 26.5402 16.1011C26.4543 15.7618 26.4978 15.4028 26.6621 15.0938C26.7657 14.8922 26.9228 14.7229 27.1163 14.6047C27.3097 14.4865 27.532 14.4239 27.7587 14.4237V14.4161ZM9.86358 14.4313C10.2063 14.4313 10.5032 14.5608 10.7469 14.8197C10.9446 15.0356 11.0706 15.3076 11.1074 15.598C11.1442 15.8885 11.0901 16.1832 10.9525 16.4417C10.8508 16.6404 10.6958 16.8069 10.5048 16.9226C10.3138 17.0382 10.0944 17.0985 9.87119 17.0966C9.64794 17.0985 9.42856 17.0382 9.23759 16.9226C9.04662 16.8069 8.8916 16.6404 8.78987 16.4417C8.67958 16.2355 8.62203 16.0053 8.62234 15.7716C8.62234 15.3984 8.74418 15.0862 8.98786 14.8197C9.23154 14.5608 9.52091 14.4313 9.87119 14.4313H9.86358ZM13.9147 14.4542C14.088 14.4541 14.2595 14.4888 14.4191 14.5562C14.5787 14.6236 14.7231 14.7224 14.8438 14.8467C14.9646 14.971 15.0591 15.1182 15.1219 15.2797C15.1846 15.4412 15.2144 15.6136 15.2093 15.7868C15.2129 16.0234 15.1551 16.2568 15.0417 16.4645C14.923 16.6597 14.7566 16.8216 14.5581 16.9348C14.3596 17.048 14.1356 17.1089 13.9071 17.1118C13.6779 17.1092 13.4535 17.0458 13.2568 16.9281C13.0602 16.8103 12.8983 16.6425 12.7877 16.4417C12.6743 16.2393 12.6148 16.0112 12.6148 15.7792C12.6148 15.5472 12.6743 15.3191 12.7877 15.1167C12.898 14.9146 13.0611 14.7462 13.2596 14.6295C13.4581 14.5128 13.6845 14.4522 13.9147 14.4542ZM30.0203 14.3552H30.0813C30.1117 14.3552 30.1346 14.3552 30.1422 14.3399C30.1574 14.3399 30.165 14.3247 30.165 14.3095L30.1498 14.2866C30.1498 14.2714 30.1498 14.2714 30.1346 14.2638H30.0203V14.3552ZM29.9746 14.5303V14.2257H30.1574C30.1802 14.2333 30.1955 14.2486 30.2031 14.2638L30.2183 14.3019C30.2183 14.3323 30.2031 14.3476 30.1955 14.3628C30.1734 14.3797 30.147 14.3902 30.1193 14.3932L30.1498 14.4085L30.1955 14.4694L30.2336 14.5303H30.1726L30.1498 14.477L30.0965 14.4009H30.028V14.5303H29.9746ZM30.0965 14.1267C30.0584 14.1267 30.0203 14.1343 29.9823 14.1648C29.9442 14.18 29.9137 14.2105 29.8985 14.2486C29.8755 14.285 29.8633 14.3273 29.8633 14.3704C29.8633 14.4135 29.8755 14.4558 29.8985 14.4922C29.9137 14.5303 29.9442 14.5608 29.9823 14.576C30.0203 14.6065 30.0584 14.6141 30.0965 14.6141C30.1422 14.6141 30.1803 14.6065 30.2183 14.576C30.2564 14.5608 30.2945 14.5303 30.3097 14.4922C30.3249 14.4542 30.3402 14.4161 30.3402 14.3704C30.3402 14.3323 30.3249 14.2943 30.3097 14.2486C30.2875 14.2128 30.2559 14.1838 30.2183 14.1648C30.1803 14.1343 30.1422 14.1267 30.0965 14.1267ZM30.0965 14.0886C30.1498 14.0886 30.1955 14.0963 30.2412 14.1191C30.2869 14.142 30.3173 14.18 30.3478 14.2257C30.3782 14.2714 30.3859 14.3171 30.3859 14.378C30.3859 14.4237 30.3782 14.4694 30.3478 14.5151C30.3249 14.5608 30.2869 14.5912 30.2412 14.6217C30.1969 14.6462 30.1471 14.6593 30.0965 14.6598C30.0508 14.6598 30.0051 14.6445 29.9594 14.6217C29.9137 14.5989 29.8833 14.5608 29.8528 14.5151C29.83 14.4694 29.8147 14.4237 29.8147 14.3704C29.8147 14.3171 29.83 14.2714 29.8528 14.2257C29.8833 14.18 29.9137 14.1496 29.9594 14.1191C30.0051 14.0963 30.0584 14.0886 30.0965 14.0886Z" fill="#E51937"/>
</g>
<defs>
<clipPath id="clip0_8821_17004">
<rect width="32" height="32" fill="white"/>
</clipPath>
</defs>
</svg>
