<svg width="32" height="32" viewBox="0 0 32 32" fill="none" xmlns="http://www.w3.org/2000/svg">
<g clip-path="url(#clip0_17199_3167)">
<circle cx="16" cy="16" r="16" fill="#F6F7F8"/>
<g clip-path="url(#clip1_17199_3167)">
<mask id="mask0_17199_3167" style="mask-type:luminance" maskUnits="userSpaceOnUse" x="3" y="12" width="26" height="8">
<path d="M3.98712 12.9805V19.8818H28.9944V12.9805" fill="white"/>
</mask>
<g mask="url(#mask0_17199_3167)">
<mask id="mask1_17199_3167" style="mask-type:luminance" maskUnits="userSpaceOnUse" x="3" y="12" width="26" height="8">
<path d="M3.99802 12.9934H28.998V19.8828H3.99802V12.9934Z" fill="white"/>
</mask>
<g mask="url(#mask1_17199_3167)">
<mask id="mask2_17199_3167" style="mask-type:luminance" maskUnits="userSpaceOnUse" x="-7" y="3" width="132" height="171">
<path d="M-6.28165 3.69564H124.824V173.361H-6.28165V3.69564Z" fill="white"/>
</mask>
<g mask="url(#mask2_17199_3167)">
<path d="M15.9417 18.4218C14.8022 18.4218 13.7797 17.7746 13.7797 16.8697C13.7797 15.9644 14.8022 15.3166 15.9498 15.3166C16.4487 15.3166 16.9147 15.4425 17.4213 15.7251L17.0642 16.184C16.7394 16.0269 16.3571 15.9329 15.9498 15.9329C15.4674 15.9329 14.9104 16.203 14.9104 16.8697C14.9104 17.5359 15.4592 17.8059 15.9498 17.8059C16.3571 17.8059 16.7478 17.7242 17.0803 17.5794L17.438 18.0636C17.0141 18.2902 16.4984 18.4218 15.9417 18.4218Z" fill="#104076"/>
<path d="M22.441 18.4088C23.5881 18.4088 24.6111 17.7614 24.6111 16.8567C24.6111 15.9514 23.5881 15.3036 22.441 15.3036C21.2934 15.3036 20.2704 15.9514 20.2704 16.8567C20.2704 17.7614 21.2934 18.4088 22.441 18.4088ZM23.4804 16.8567C23.4804 17.5229 22.9234 17.7929 22.441 17.7929C21.9583 17.7929 21.4016 17.5229 21.4016 16.8567C21.4016 16.1898 21.9583 15.9199 22.441 15.9199C22.9234 15.9199 23.4804 16.1898 23.4804 16.8567Z" fill="#104076"/>
<path d="M25.0858 18.3228H26.1575V16.4744C26.1575 16.2249 26.3514 15.9312 26.6982 15.9292C26.9405 15.9312 27.1729 16.097 27.1729 16.3073L27.1708 18.3228H28.2454V16.2501C28.2454 15.7043 27.6601 15.2486 26.9619 15.2486C26.9551 15.2486 26.9484 15.2495 26.9416 15.2497C26.9347 15.2495 26.9281 15.2486 26.9214 15.2486C26.6329 15.2486 26.3591 15.3328 26.1355 15.4738C26.1335 15.4659 26.0733 15.2677 25.0858 15.2677V18.3228Z" fill="#104076"/>
<path d="M12.2098 18.3344H13.2597V15.38H12.2098V18.3344Z" fill="#104076"/>
<path d="M17.9384 18.3228H18.9887V16.5312C18.9887 16.2482 19.321 16.0218 19.6787 16.0218C19.8536 16.0218 20.0181 16.0567 20.1563 16.118V15.341C20.0324 15.3221 19.8988 15.3118 19.7807 15.3118C19.4992 15.3118 19.2169 15.3934 18.9857 15.5306C18.9686 15.4956 18.8398 15.3305 17.9384 15.3305V18.3228Z" fill="#104076"/>
<path d="M10.2128 17.1554L10.2126 18.3332H11.2877V16.1828C10.9763 16.5041 10.617 16.8313 10.2128 17.1554Z" fill="#104076"/>
<path d="M11.28 16.1791C12.4641 14.9576 12.9544 13.8222 12.5727 13.2757C12.1742 12.705 10.9362 12.9362 9.33145 13.7841C9.25968 13.8192 9.19606 13.8565 9.14914 13.8888C9.07159 13.9426 9.1168 13.9818 9.17399 13.961C9.23269 13.9398 9.29953 13.9141 9.37494 13.877C10.5778 13.3066 11.5161 13.2042 11.8829 13.6024C12.4418 14.2089 11.2972 16.1965 9.31517 17.6667C9.0506 17.8629 8.64229 18.1502 8.37644 18.3098C8.35844 18.3209 8.34066 18.3318 8.32331 18.343C8.25304 18.389 8.19049 18.4319 8.14122 18.4704C8.09323 18.5077 8.10244 18.5671 8.18899 18.5298C8.24169 18.5073 8.30574 18.4732 8.37386 18.4315C8.38929 18.422 8.4045 18.4135 8.42057 18.4036C8.71941 18.2222 9.16307 17.9158 9.4662 17.7042C9.72691 17.5221 9.97326 17.3372 10.2051 17.1517C10.6093 16.8276 10.9686 16.5002 11.28 16.1791Z" fill="#104076"/>
<path d="M6.0048 19.8653H7.08V18.7511C7.37391 18.5774 7.67147 18.3869 7.96389 18.1875C8.02965 18.1423 8.08792 18.0973 8.13013 18.0587C8.19975 17.9951 8.14941 17.9623 8.09564 17.9906C8.04037 18.0198 7.97503 18.0592 7.90433 18.1042C6.24345 19.1665 5.1222 19.4906 4.7081 18.9285C4.34842 18.4405 4.93797 17.497 6.0048 16.4315V18.9047C6.3075 18.8019 6.66526 18.638 7.07978 18.4075L7.07957 16.1129L7.31607 16.6162C7.57528 17.1719 8.04572 17.5041 8.64384 17.5041C9.24174 17.5041 9.71217 17.1719 9.97139 16.6162L10.2079 16.1129L10.2077 16.6984C10.5924 16.3252 10.9208 15.9527 11.17 15.5924C11.201 15.5478 11.1982 15.5103 11.1813 15.4692C11.0155 15.1232 10.6627 14.8848 10.2527 14.8848C9.84713 14.8848 9.49495 15.12 9.32614 15.4602L8.87627 16.4146C8.82978 16.5075 8.74409 16.5592 8.64384 16.5592C8.54379 16.5592 8.45767 16.5075 8.41119 16.4146L7.96132 15.4602C7.87563 15.2873 7.74238 15.1416 7.57893 15.0401C7.90797 14.779 8.22781 14.5457 8.54272 14.3546C8.61427 14.3111 8.67297 14.2676 8.72246 14.2297C8.77108 14.1926 8.76209 14.1333 8.67533 14.1697C8.62263 14.1918 8.55429 14.2254 8.48595 14.267C8.16419 14.4619 7.83535 14.6614 7.52087 14.8762C7.48274 14.9021 7.44504 14.9283 7.40733 14.9544C7.29165 14.9094 7.16611 14.8848 7.0348 14.8848C6.46496 14.8848 6.0048 15.3452 6.0048 15.915V16.0568C4.48595 17.4111 3.68861 18.7522 4.10528 19.3492C4.41119 19.7871 5.13655 19.686 6.0048 19.3087V19.8653Z" fill="#104076"/>
<path d="M28.6559 15.6427H28.6949C28.7393 15.6427 28.7767 15.6267 28.7767 15.5851C28.7767 15.5555 28.7553 15.526 28.6949 15.526C28.6773 15.526 28.6654 15.5273 28.6559 15.5286V15.6427ZM28.6559 15.8293H28.6022V15.4923C28.6304 15.4885 28.6572 15.4844 28.6977 15.4844C28.7487 15.4844 28.7821 15.4951 28.8022 15.5099C28.8224 15.5247 28.8331 15.5474 28.8331 15.5795C28.8331 15.6239 28.8035 15.6507 28.7673 15.6616V15.6642C28.7969 15.6695 28.817 15.6965 28.8237 15.746C28.8318 15.7983 28.8397 15.8186 28.8451 15.8293H28.7887C28.7808 15.8186 28.7727 15.7878 28.766 15.7434C28.7581 15.7004 28.7365 15.6843 28.6934 15.6843H28.6559V15.8293ZM28.7123 15.3985C28.5794 15.3985 28.4708 15.5125 28.4708 15.6534C28.4708 15.797 28.5794 15.9097 28.7136 15.9097C28.8479 15.9112 28.9552 15.797 28.9552 15.6547C28.9552 15.5125 28.8479 15.3985 28.7136 15.3985H28.7123ZM28.7136 15.3514C28.8787 15.3514 29.0103 15.4857 29.0103 15.6534C29.0103 15.824 28.8787 15.9568 28.7123 15.9568C28.5473 15.9568 28.4132 15.824 28.4132 15.6534C28.4132 15.4857 28.5473 15.3514 28.7123 15.3514H28.7136Z" fill="#104076"/>
</g>
</g>
</g>
</g>
</g>
<defs>
<clipPath id="clip0_17199_3167">
<rect width="32" height="32" fill="white"/>
</clipPath>
<clipPath id="clip1_17199_3167">
<rect width="25" height="6.88946" fill="white" transform="translate(4.00024 12.9992)"/>
</clipPath>
</defs>
</svg>
