<svg width="32" height="32" viewBox="0 0 32 32" fill="none" xmlns="http://www.w3.org/2000/svg">
<g clip-path="url(#clip0_14270_25169)">
<path d="M32 30.0001H0V32H32V30.0001Z" fill="#0AA0B0"/>
<path d="M2.5 18.6001C2.6 18.6001 2.7 18.6001 2.8 18.6001L4.6 21.8001C4.3 22.2001 4.20001 22.7001 4.20001 23.2001C4.20001 24.6001 5.3 25.7001 6.7 25.7001C8.1 25.7001 9.20001 24.6001 9.20001 23.2001C9.20001 22.7001 9.10001 22.3001 8.80001 21.9001C11.4057 17.8055 12.9107 15.5457 15.5 11.6001C15.6 11.6001 15.8 11.6001 15.9 11.6001C16 11.6001 16.2 11.6001 16.3 11.6001L18.4 16.8001C18.1 17.2001 18 17.7001 18 18.1001C18 19.5001 19.1 20.6001 20.5 20.6001C21.9 20.6001 23 19.5001 23 18.1001C23 17.6001 22.9 17.1001 22.6 16.8001L24.7 13.6001C24.8 13.6001 25 13.6001 25.1 13.6001C26.5 13.6001 27.6 12.5001 27.6 11.1001C27.6 10.6001 27.4 10.1 27.2 9.70005L29.2 7.00005C29.3 7.00005 29.4 7.00005 29.5 7.00005C30.9 7.00005 32 5.90005 32 4.50005C32 3.10005 30.9 2.00006 29.5 2.00006C28.1 2.00006 27 3.10005 27 4.50005C27 5.00005 27.2 5.50005 27.5 5.90005L25.8 8.60005C25.7 8.60005 25.6 8.60005 25.4 8.60005C24 8.60005 22.9 9.70005 22.9 11.1001C22.9 11.6001 23 12.1001 23.3 12.4001L21.2 15.6C21.1 15.6 20.9 15.6 20.8 15.6C20.7 15.6 20.5 15.6 20.4 15.6L18.3 10.4001C18.6 10.0001 18.7 9.50005 18.7 9.10005C18.7 7.70005 17.6 6.60005 16.2 6.60005C14.8 6.60005 13.7 7.70005 13.7 9.10005C13.7 9.60005 13.8 10.1001 14.1 10.4001C11.4205 14.4831 10.0298 16.6928 7.40001 20.7001C7.20001 20.7001 7.10001 20.6001 6.90001 20.6001C6.80001 20.6001 6.6 20.6001 6.5 20.6001L4.70001 17.5001C4.80001 17.2001 5 16.7001 5 16.1001C5 14.7001 3.9 13.6001 2.5 13.6001C1.1 13.6001 0 14.7001 0 16.1001C0 17.5001 1.1 18.6001 2.5 18.6001Z" fill="#0AA0B0"/>
<path d="M0 2C0 0.895432 0.895432 0 2 0L9 1.14441e-06C10.1046 1.14441e-06 11 0.895434 11 2V8C11 9.10457 10.1046 10 9 10H2C0.895432 10 0 9.10457 0 8V2Z" fill="#414652"/>
<path d="M7.40794 8.00007H3.45594V6.90407L5.17594 5.43207C5.33061 5.29873 5.46127 5.17873 5.56794 5.07207C5.67461 4.96007 5.75994 4.8534 5.82394 4.75207C5.89327 4.6454 5.94127 4.5414 5.96794 4.44007C5.99994 4.33873 6.01594 4.2294 6.01594 4.11207V4.00007C6.01594 3.8934 5.99461 3.80007 5.95194 3.72007C5.90927 3.64007 5.85327 3.5734 5.78394 3.52007C5.71461 3.46673 5.63461 3.42673 5.54394 3.40007C5.45861 3.3734 5.37061 3.36007 5.27994 3.36007C5.14661 3.36007 5.02927 3.3814 4.92794 3.42407C4.83194 3.46673 4.74661 3.5254 4.67194 3.60007C4.60261 3.6694 4.54394 3.75207 4.49594 3.84807C4.44794 3.93873 4.41061 4.0374 4.38394 4.14407L3.33594 3.74407C3.39994 3.55207 3.48794 3.37073 3.59994 3.20007C3.71194 3.02407 3.85061 2.87207 4.01594 2.74407C4.18661 2.61073 4.38661 2.50673 4.61594 2.43207C4.84527 2.3574 5.10394 2.32007 5.39194 2.32007C5.69594 2.32007 5.96527 2.36273 6.19994 2.44807C6.43461 2.5334 6.63194 2.65073 6.79194 2.80007C6.95727 2.9494 7.08261 3.12807 7.16794 3.33607C7.25327 3.53873 7.29594 3.76007 7.29594 4.00007C7.29594 4.24007 7.25594 4.45873 7.17594 4.65607C7.09594 4.8534 6.98661 5.04007 6.84794 5.21607C6.71461 5.38673 6.55727 5.5494 6.37594 5.70407C6.19461 5.85873 6.00527 6.01607 5.80794 6.17607L4.76794 6.99207H7.40794V8.00007Z" fill="white"/>
</g>
<defs>
<clipPath id="clip0_14270_25169">
<rect width="32" height="32" fill="white"/>
</clipPath>
</defs>
</svg>
