<svg width="32" height="32" viewBox="0 0 32 32" fill="none" xmlns="http://www.w3.org/2000/svg">
<g clip-path="url(#clip0_8821_17013)">
<path d="M32 16C32 24.8366 24.8366 32 16 32C7.16344 32 0 24.8366 0 16C0 7.16344 7.16344 0 16 0C24.8366 0 32 7.16344 32 16Z" fill="black"/>
<path d="M17.7142 15.6749C17.9655 15.6316 21.655 27.0594 21.9961 26.9999C21.9961 26.6769 21.9961 5.56863 21.9961 5.22653C21.6597 5.22652 18.2567 5.22652 17.7142 5.22652C17.7142 11.9249 17.5755 15.2691 17.7142 15.6749Z" fill="#B11D23"/>
<path d="M14.2855 16.9842C14.0343 17.0274 10.3411 5.16799 10 5.22749C10 5.55043 10.0037 26.6848 10.0037 27.0269C11.7046 26.8226 12.5553 26.7431 14.2855 26.6644C14.2855 18.3 14.4243 17.39 14.2855 16.9842Z" fill="#B11D23"/>
<path d="M14.2857 5.2268H10.0039L17.586 26.6646C19.7167 26.7184 21.9961 27.0273 21.9961 27.0273L14.2857 5.2268Z" fill="#E61D25"/>
</g>
<defs>
<clipPath id="clip0_8821_17013">
<rect width="32" height="32" fill="white"/>
</clipPath>
</defs>
</svg>
