<svg width="32" height="33" viewBox="0 0 32 33" fill="none" xmlns="http://www.w3.org/2000/svg">
<g clip-path="url(#clip0_503_177)">
<path d="M16 32.9852C24.8366 32.9852 32 25.8218 32 16.9852C32 8.14867 24.8366 0.985229 16 0.985229C7.16344 0.985229 0 8.14867 0 16.9852C0 25.8218 7.16344 32.9852 16 32.9852Z" fill="#2C9AFF"/>
<g clip-path="url(#clip1_503_177)">
<path d="M21.842 17.9063C21.2014 16.976 20.8747 16.2779 20.7876 15.1164C20.7223 14.2483 21.0873 13.2459 21.0873 13.2459C20.635 13.5471 20.63 13.5149 20.3314 13.7616C18.7774 15.046 18.3714 16.3314 18.3239 16.4975C18.3206 16.5093 18.3188 16.5161 18.3188 16.5161L18.3239 16.4975C18.3239 16.4975 19.5385 11.746 16.1574 9.53334C15.8769 9.34976 15.2297 8.98523 15.2297 8.98523C15.2297 8.98523 16.9083 13.1006 13.9028 15.5421C13.3112 13.1276 10.1881 13.0979 10.1881 13.0979C10.1881 13.0979 10.4281 13.9391 10.4667 14.1381C10.9728 16.7621 9.4215 17.5924 9.1064 20.0729C9.14235 19.7882 9.12806 19.9015 9.10619 20.0745C9.10608 20.075 9.10598 20.0757 9.10598 20.0763C9.10603 20.076 9.10603 20.0758 9.10608 20.0755C9.10598 20.0762 9.10592 20.0769 9.10587 20.0775C8.85995 22.0248 9.78784 23.533 11.2138 24.5506C11.2803 23.8633 11.5621 23.1814 11.9537 22.6125C12.3968 21.969 12.6229 21.486 12.6829 20.6826C12.7277 20.082 12.4756 19.3885 12.4756 19.3885C12.7881 19.5971 12.792 19.5748 12.9985 19.7454C13.8718 20.4672 14.221 21.1895 14.3389 21.4967C14.3428 21.4943 14.3469 21.492 14.3511 21.4897C14.2022 20.8173 13.7823 18.1971 15.8859 16.8204C16.0799 16.6937 16.5277 16.4414 16.5277 16.4414C16.5277 16.4414 15.3364 19.0462 17.959 21.162C17.9005 20.2961 18.2308 19.4966 18.849 18.8805C19.1849 18.5461 19.7901 18.3854 19.7901 18.3854C19.7901 18.3854 19.6238 18.9677 19.5973 19.1052C19.2471 20.9209 20.7714 22.3326 20.4457 24.0524C20.3846 24.3748 20.2972 24.6876 20.1752 24.9852H20.3208C21.0939 24.5723 21.8114 24.0354 22.3028 23.2987C23.4208 21.6226 22.9183 19.4697 21.842 17.9063Z" fill="white"/>
</g>
</g>
<defs>
<clipPath id="clip0_503_177">
<rect width="32" height="32" fill="white" transform="translate(0 0.985229)"/>
</clipPath>
<clipPath id="clip1_503_177">
<rect width="16" height="16" fill="white" transform="translate(8 8.98523)"/>
</clipPath>
</defs>
</svg>
