<svg width="32" height="32" viewBox="0 0 32 32" fill="none" xmlns="http://www.w3.org/2000/svg">
<g clip-path="url(#clip0_8821_17016)">
<path d="M32 16C32 24.8366 24.8366 32 16 32C7.16344 32 0 24.8366 0 16C0 7.16344 7.16344 0 16 0C24.8366 0 32 7.16344 32 16Z" fill="black"/>
<path fill-rule="evenodd" clip-rule="evenodd" d="M7.07702 12.3822C5.50239 14.2193 4.00274 16.4913 4.00274 18.1934C3.98671 18.4981 4.04053 18.8024 4.16009 19.0831C4.27965 19.3638 4.46178 19.6134 4.69258 19.813C5.31406 20.3576 6.11585 20.6516 6.94205 20.6378C8.02816 20.5657 9.0912 20.291 10.0763 19.828C11.576 19.2431 27.8996 12.1423 27.8996 12.1423C28.0571 12.0598 28.0271 11.9623 27.8247 12.0148L10.0013 16.8362C9.66717 16.931 9.32144 16.979 8.97407 16.9787C7.60939 16.9787 6.40218 16.2288 6.40967 14.6392C6.4503 13.851 6.66815 13.0821 7.04703 12.3897L7.07702 12.3822Z" fill="white"/>
</g>
<defs>
<clipPath id="clip0_8821_17016">
<rect width="32" height="32" fill="white"/>
</clipPath>
</defs>
</svg>
