<svg width="32" height="32" viewBox="0 0 32 32" fill="none" xmlns="http://www.w3.org/2000/svg">
<g clip-path="url(#clip0_17199_3212)">
<circle cx="16" cy="16" r="16" fill="#F6F7F8"/>
<g clip-path="url(#clip1_17199_3212)">
<path d="M21.205 13.1781V18.6782H22.0298V13.1781H21.205ZM12.3924 13.0841C10.7855 13.0841 9.53865 14.2537 9.53865 15.9282C9.53865 17.678 10.7855 18.7722 12.3924 18.7722C13.9993 18.7721 15.2487 17.678 15.2462 15.9282C15.2438 14.3417 13.9993 13.0842 12.3924 13.0841ZM14.4228 15.9282C14.4228 17.1677 13.5138 17.9892 12.3924 17.9892C11.2711 17.9892 10.362 17.1677 10.362 15.9282C10.362 14.7111 11.2711 13.8671 12.3924 13.8671C13.5138 13.8671 14.4228 14.7111 14.4228 15.9282ZM4 13V18.6782H4.84183V14.9257L9.21648 18.8563V17.6791L4 13ZM15.8665 15.9282L18.9279 18.6782H20.1554L17.0894 15.9282L20.1554 13.1781H18.9279L15.8665 15.9282ZM28.8893 18.6782H27.9819L27.3184 17.4602H24.3129L23.6493 18.6782H22.7418L23.8408 16.6481H26.8868L25.3679 13.8269L25.8156 13L28.8893 18.6782Z" fill="#005AFF"/>
</g>
</g>
<defs>
<clipPath id="clip0_17199_3212">
<rect width="32" height="32" fill="white"/>
</clipPath>
<clipPath id="clip1_17199_3212">
<rect width="24.8893" height="5.85631" fill="white" transform="translate(4 13)"/>
</clipPath>
</defs>
</svg>
