<svg width="32" height="32" viewBox="0 0 32 32" fill="none" xmlns="http://www.w3.org/2000/svg">
<path fill-rule="evenodd" clip-rule="evenodd" d="M6 8H26C27.1046 8 28 8.89543 28 10V22C28 23.1046 27.1046 24 26 24H6C4.89539 24 4 23.1046 4 22V10C4 8.89543 4.89539 8 6 8ZM17.6552 14.3186H20.5518C20.7803 14.3186 20.9656 14.5068 20.9656 14.7389V17.261C20.9656 17.4932 20.7803 17.6814 20.5518 17.6814H17.6552V20.624C17.6552 20.8562 17.4698 21.0444 17.2413 21.0444H14.7585C14.53 21.0444 14.3447 20.8562 14.3447 20.624V17.6815H11.4482C11.2197 17.6815 11.0344 17.4933 11.0344 17.2611V14.739C11.0344 14.5068 11.2197 14.3186 11.4482 14.3186H14.3447V11.376C14.3447 11.1439 14.53 10.9557 14.7585 10.9557H17.2413C17.4698 10.9557 17.6552 11.1439 17.6552 11.376V14.3186Z" fill="#F44336"/>
<path d="M20.5518 14.3186H17.6552V11.376C17.6552 11.1439 17.4698 10.9557 17.2413 10.9557H14.7585C14.53 10.9557 14.3447 11.1439 14.3447 11.376V14.3186H11.4482C11.2197 14.3186 11.0344 14.5068 11.0344 14.739V17.2611C11.0344 17.4933 11.2197 17.6815 11.4482 17.6815H14.3447V20.624C14.3447 20.8562 14.53 21.0444 14.7585 21.0444H17.2413C17.4698 21.0444 17.6552 20.8562 17.6552 20.624V17.6814H20.5518C20.7803 17.6814 20.9656 17.4932 20.9656 17.261V14.7389C20.9656 14.5068 20.7803 14.3186 20.5518 14.3186Z" fill="white"/>
<path fill-rule="evenodd" clip-rule="evenodd" d="M26 9H6C5.44772 9 5 9.44772 5 10V22C5 22.5523 5.44772 23 6 23H26C26.5523 23 27 22.5523 27 22V10C27 9.44771 26.5523 9 26 9ZM6 8C4.89539 8 4 8.89543 4 10V22C4 23.1046 4.89539 24 6 24H26C27.1046 24 28 23.1046 28 22V10C28 8.89543 27.1046 8 26 8H6Z" fill="black" fill-opacity="0.08"/>
<path d="M18 2C18 0.89543 18.8954 0 20 0H30C31.1046 0 32 0.895431 32 2V8C32 9.10457 31.1046 10 30 10H20C18.8954 10 18 9.10457 18 8V2Z" fill="#414652"/>
<path d="M24.6111 8H20.6591V6.904L22.3791 5.432C22.5338 5.29867 22.6645 5.17867 22.7711 5.072C22.8778 4.96 22.9631 4.85333 23.0271 4.752C23.0965 4.64533 23.1445 4.54133 23.1711 4.44C23.2031 4.33867 23.2191 4.22933 23.2191 4.112V4C23.2191 3.89333 23.1978 3.8 23.1551 3.72C23.1125 3.64 23.0565 3.57333 22.9871 3.52C22.9178 3.46667 22.8378 3.42667 22.7471 3.4C22.6618 3.37333 22.5738 3.36 22.4831 3.36C22.3498 3.36 22.2325 3.38133 22.1311 3.424C22.0351 3.46667 21.9498 3.52533 21.8751 3.6C21.8058 3.66933 21.7471 3.752 21.6991 3.848C21.6511 3.93867 21.6138 4.03733 21.5871 4.144L20.5391 3.744C20.6031 3.552 20.6911 3.37067 20.8031 3.2C20.9151 3.024 21.0538 2.872 21.2191 2.744C21.3898 2.61067 21.5898 2.50667 21.8191 2.432C22.0485 2.35733 22.3071 2.32 22.5951 2.32C22.8991 2.32 23.1685 2.36267 23.4031 2.448C23.6378 2.53333 23.8351 2.65067 23.9951 2.8C24.1605 2.94933 24.2858 3.128 24.3711 3.336C24.4565 3.53867 24.4991 3.76 24.4991 4C24.4991 4.24 24.4591 4.45867 24.3791 4.656C24.2991 4.85333 24.1898 5.04 24.0511 5.216C23.9178 5.38667 23.7605 5.54933 23.5791 5.704C23.3978 5.85867 23.2085 6.016 23.0111 6.176L21.9711 6.992H24.6111V8Z" fill="white"/>
<path d="M27.4 8.096C26.6693 8.096 26.128 7.84267 25.776 7.336C25.424 6.82933 25.248 6.12 25.248 5.208C25.248 4.296 25.424 3.58667 25.776 3.08C26.128 2.57333 26.6693 2.32 27.4 2.32C28.1307 2.32 28.672 2.57333 29.024 3.08C29.376 3.58667 29.552 4.296 29.552 5.208C29.552 6.12 29.376 6.82933 29.024 7.336C28.672 7.84267 28.1307 8.096 27.4 8.096ZM27.4 7.08C27.72 7.08 27.9413 6.96267 28.064 6.728C28.1867 6.49333 28.248 6.16267 28.248 5.736V4.68C28.248 4.25333 28.1867 3.92267 28.064 3.688C27.9413 3.45333 27.72 3.336 27.4 3.336C27.08 3.336 26.8587 3.45333 26.736 3.688C26.6133 3.92267 26.552 4.25333 26.552 4.68V5.736C26.552 6.16267 26.6133 6.49333 26.736 6.728C26.8587 6.96267 27.08 7.08 27.4 7.08Z" fill="white"/>
</svg>
