<svg width="32" height="32" viewBox="0 0 32 32" fill="none" xmlns="http://www.w3.org/2000/svg">
<path d="M4 19H28V22C28 23.1046 27.1046 24 26 24H6C4.89543 24 4 23.1046 4 22V19Z" fill="#124590"/>
<path d="M28 13H4V19H28V13Z" fill="white"/>
<path d="M6 8H26C27.1046 8 28 8.89543 28 10V13H4V10C4 8.89543 4.89543 8 6 8Z" fill="#BE0020"/>
<path fill-rule="evenodd" clip-rule="evenodd" d="M26 9H6C5.44772 9 5 9.44772 5 10V22C5 22.5523 5.44772 23 6 23H26C26.5523 23 27 22.5523 27 22V10C27 9.44771 26.5523 9 26 9ZM6 8C4.89543 8 4 8.89543 4 10V22C4 23.1046 4.89543 24 6 24H26C27.1046 24 28 23.1046 28 22V10C28 8.89543 27.1046 8 26 8H6Z" fill="black" fill-opacity="0.08"/>
<path d="M18 2C18 0.89543 18.8954 0 20 0H30C31.1046 0 32 0.895431 32 2V8C32 9.10457 31.1046 10 30 10H20C18.8954 10 18 9.10457 18 8V2Z" fill="#414652"/>
<path d="M24.6111 8H20.6591V6.904L22.3791 5.432C22.5338 5.29867 22.6645 5.17867 22.7711 5.072C22.8778 4.96 22.9631 4.85333 23.0271 4.752C23.0965 4.64533 23.1445 4.54133 23.1711 4.44C23.2031 4.33867 23.2191 4.22933 23.2191 4.112V4C23.2191 3.89333 23.1978 3.8 23.1551 3.72C23.1125 3.64 23.0565 3.57333 22.9871 3.52C22.9178 3.46667 22.8378 3.42667 22.7471 3.4C22.6618 3.37333 22.5738 3.36 22.4831 3.36C22.3498 3.36 22.2325 3.38133 22.1311 3.424C22.0351 3.46667 21.9498 3.52533 21.8751 3.6C21.8058 3.66933 21.7471 3.752 21.6991 3.848C21.6511 3.93867 21.6138 4.03733 21.5871 4.144L20.5391 3.744C20.6031 3.552 20.6911 3.37067 20.8031 3.2C20.9151 3.024 21.0538 2.872 21.2191 2.744C21.3898 2.61067 21.5898 2.50667 21.8191 2.432C22.0485 2.35733 22.3071 2.32 22.5951 2.32C22.8991 2.32 23.1685 2.36267 23.4031 2.448C23.6378 2.53333 23.8351 2.65067 23.9951 2.8C24.1605 2.94933 24.2858 3.128 24.3711 3.336C24.4565 3.53867 24.4991 3.76 24.4991 4C24.4991 4.24 24.4591 4.45867 24.3791 4.656C24.2991 4.85333 24.1898 5.04 24.0511 5.216C23.9178 5.38667 23.7605 5.54933 23.5791 5.704C23.3978 5.85867 23.2085 6.016 23.0111 6.176L21.9711 6.992H24.6111V8Z" fill="white"/>
<path d="M29.176 3.464H26.64L26.52 5.232H26.584C26.6373 5.09867 26.696 4.97867 26.76 4.872C26.8293 4.76 26.9093 4.66667 27 4.592C27.0907 4.512 27.2 4.45067 27.328 4.408C27.456 4.36533 27.608 4.344 27.784 4.344C28.024 4.344 28.248 4.384 28.456 4.464C28.664 4.544 28.8453 4.66133 29 4.816C29.1547 4.96533 29.2773 5.152 29.368 5.376C29.4587 5.59467 29.504 5.84267 29.504 6.12C29.504 6.40267 29.456 6.66667 29.36 6.912C29.2693 7.152 29.1307 7.36 28.944 7.536C28.7627 7.712 28.5387 7.85067 28.272 7.952C28.0053 8.048 27.7013 8.096 27.36 8.096C27.088 8.096 26.848 8.06667 26.64 8.008C26.432 7.94933 26.248 7.872 26.088 7.776C25.928 7.67467 25.7893 7.56 25.672 7.432C25.5547 7.304 25.4533 7.168 25.368 7.024L26.24 6.336C26.3627 6.55467 26.5093 6.74133 26.68 6.896C26.8507 7.04533 27.08 7.12 27.368 7.12C27.656 7.12 27.872 7.03733 28.016 6.872C28.1653 6.70667 28.24 6.488 28.24 6.216V6.152C28.24 5.896 28.1653 5.69333 28.016 5.544C27.8667 5.39467 27.6613 5.32 27.4 5.32C27.1813 5.32 27 5.36533 26.856 5.456C26.7173 5.54133 26.6107 5.62667 26.536 5.712L25.552 5.576L25.76 2.416H29.176V3.464Z" fill="white"/>
</svg>
