<svg width="32" height="32" viewBox="0 0 32 32" fill="none" xmlns="http://www.w3.org/2000/svg">
<path d="M4 10C4 8.89543 4.89543 8 6 8H26C27.1046 8 28 8.89543 28 10V22C28 23.1046 27.1046 24 26 24H6C4.89543 24 4 23.1046 4 22V10Z" fill="#0D47A1"/>
<path d="M10.1252 18.6855L10.4375 19.733L11.4385 19.328C11.5239 19.2934 11.6015 19.3924 11.5494 19.4692L10.9379 20.3704L11.8737 20.9128C11.9535 20.9591 11.9258 21.0824 11.8341 21.089L10.7593 21.1652L10.9253 22.2466C10.9394 22.3389 10.8272 22.3938 10.7651 22.325L10.0363 21.5189L9.30744 22.325C9.24528 22.3937 9.13306 22.3388 9.14722 22.2466L9.31321 21.1652L8.23841 21.089C8.14672 21.0824 8.11897 20.9591 8.19885 20.9128L9.13456 20.3704L8.52313 19.4692C8.471 19.3924 8.54863 19.2934 8.63403 19.328L9.63496 19.733L9.94728 18.6855C9.97405 18.5961 10.0986 18.5961 10.1252 18.6855ZM22.435 20.2096L22.5876 20.7212L23.0765 20.5234C23.1181 20.5065 23.1561 20.5548 23.1306 20.5924L22.832 21.0326L23.289 21.2976C23.328 21.3202 23.3145 21.3805 23.2697 21.3836L22.7447 21.4209L22.8257 21.9491C22.8327 21.9942 22.7778 22.021 22.7474 21.9874L22.3914 21.5936L22.0354 21.9874C22.005 22.021 21.9502 21.9942 21.9571 21.9491L22.0382 21.4209L21.5132 21.3836C21.4684 21.3805 21.4548 21.3202 21.4938 21.2976L21.9509 21.0326L21.6523 20.5924C21.6268 20.5548 21.6647 20.5065 21.7064 20.5234L22.1953 20.7212L22.3479 20.2096C22.3611 20.166 22.422 20.166 22.435 20.2096ZM23.6154 16.0847C23.6312 16.0364 23.6985 16.0364 23.7144 16.0847L23.8369 16.4578L24.2241 16.4609C24.2742 16.4613 24.295 16.5262 24.2546 16.5565L23.9431 16.7901L24.0599 17.1651C24.075 17.2137 24.0207 17.2538 23.9799 17.2242L23.6649 16.9955L23.3499 17.2242C23.3091 17.2539 23.2547 17.2137 23.2698 17.1651L23.3866 16.7901L23.0752 16.5565C23.0348 16.5262 23.0556 16.4613 23.1058 16.4609L23.4929 16.4578L23.6154 16.0847ZM19.0329 15.1652L19.1855 15.6769L19.6745 15.4791C19.7161 15.4622 19.7541 15.5105 19.7286 15.5481L19.43 15.9883L19.887 16.2533C19.926 16.2759 19.9125 16.3362 19.8677 16.3393L19.3427 16.3766L19.4238 16.9048C19.4307 16.9499 19.3759 16.9767 19.3455 16.9431L18.9895 16.5493L18.6335 16.9431C18.6031 16.9767 18.5483 16.9499 18.5552 16.9048L18.6363 16.3766L18.1113 16.3393C18.0665 16.3361 18.0529 16.2759 18.0919 16.2533L18.549 15.9883L18.2503 15.5481C18.2248 15.5105 18.2628 15.4622 18.3045 15.4791L18.7934 15.6769L18.946 15.1652C18.959 15.1216 19.0199 15.1216 19.0329 15.1652ZM25.6536 13.4838L25.8062 13.9954L26.2951 13.7976C26.3368 13.7808 26.3748 13.8291 26.3493 13.8666L26.0506 14.3069L26.5077 14.5719C26.5467 14.5944 26.5332 14.6547 26.4883 14.6579L25.9633 14.6951L26.0444 15.2233C26.0514 15.2684 25.9965 15.2952 25.9662 15.2616L25.6101 14.8679L25.2541 15.2616C25.2238 15.2952 25.169 15.2684 25.1759 15.2233L25.257 14.6951L24.732 14.6579C24.6872 14.6547 24.6736 14.5944 24.7126 14.5719L25.1697 14.3069L24.8711 13.8666C24.8456 13.8291 24.8835 13.7808 24.9252 13.7976L25.4142 13.9954L25.5667 13.4838C25.5797 13.4401 25.6406 13.4401 25.6536 13.4838ZM22.435 11.2379L22.5876 11.7495L23.0765 11.5517C23.1181 11.5349 23.1561 11.5831 23.1306 11.6207L22.832 12.061L23.289 12.326C23.328 12.3485 23.3145 12.4088 23.2697 12.412L22.7447 12.4492L22.8257 12.9774C22.8327 13.0225 22.7778 13.0493 22.7474 13.0157L22.3914 12.622L22.0354 13.0157C22.005 13.0493 21.9502 13.0225 21.9571 12.9774L22.0382 12.4492L21.5132 12.412C21.4684 12.4088 21.4548 12.3485 21.4938 12.326L21.9509 12.061L21.6523 11.6207C21.6268 11.5831 21.6647 11.5349 21.7064 11.5517L22.1953 11.7495L22.3479 11.2379C22.3611 11.1941 22.422 11.1941 22.435 11.2379Z" fill="white"/>
<path d="M9 8V10.1315L5.81538 8.00841C5.04206 8.07919 4.39607 8.5902 4.1302 9.28865L6.69722 11H4L4 13H6.69722L4 14.7981V16H5.80278L9 13.8685V16H11V13.8685L14.1972 16H16V14.7982L13.3028 13H16V11H13.3028L16 9.20185V8H14.1972L11 10.1315V8H9Z" fill="white"/>
<path d="M9.5 8V11.5H4V12.5H9.5V16H10.5V12.5H16V11.5H10.5V8H9.5Z" fill="#F44336"/>
<path d="M15.5493 8L11.0493 11H11.9507L16 8.30047V8H15.5493Z" fill="#F44336"/>
<path d="M4 16L4.4507 16L8.9507 13H8.04932L4 15.6995L4 16Z" fill="#F44336"/>
<path d="M4.52433 8.65002L8.0493 11H8.95069L4.92268 8.31466C4.77564 8.40885 4.64173 8.52176 4.52433 8.65002Z" fill="#F44336"/>
<path d="M11.9507 13L16 15.6995V16L15.5493 16L11.0493 13H11.9507Z" fill="#F44336"/>
<path fill-rule="evenodd" clip-rule="evenodd" d="M26 9H6C5.44772 9 5 9.44772 5 10V22C5 22.5523 5.44772 23 6 23H26C26.5523 23 27 22.5523 27 22V10C27 9.44771 26.5523 9 26 9ZM6 8C4.89543 8 4 8.89543 4 10V22C4 23.1046 4.89543 24 6 24H26C27.1046 24 28 23.1046 28 22V10C28 8.89543 27.1046 8 26 8H6Z" fill="black" fill-opacity="0.08"/>
<path d="M22.5016 7.08001C22.8216 7.08001 23.0429 6.96267 23.1656 6.72801C23.2882 6.49334 23.3496 6.16267 23.3496 5.73601V4.68001C23.3496 4.25334 23.2882 3.92267 23.1656 3.68801C23.0429 3.45334 22.8216 3.33601 22.5016 3.33601C22.1816 3.33601 21.9602 3.45334 21.8376 3.68801C21.7149 3.92267 21.6536 4.25334 21.6536 4.68001V5.73601C21.6536 6.16267 21.7149 6.49334 21.8376 6.72801C21.9602 6.96267 22.1816 7.08001 22.5016 7.08001Z" fill="#414652"/>
<path d="M27.9624 6.72801C27.8398 6.96267 27.6184 7.08001 27.2984 7.08001C26.9784 7.08001 26.7571 6.96267 26.6344 6.72801C26.5118 6.49334 26.4504 6.16267 26.4504 5.73601V4.68001C26.4504 4.25334 26.5118 3.92267 26.6344 3.68801C26.7571 3.45334 26.9784 3.33601 27.2984 3.33601C27.6184 3.33601 27.8398 3.45334 27.9624 3.68801C28.0851 3.92267 28.1464 4.25334 28.1464 4.68001V5.73601C28.1464 6.16267 28.0851 6.49334 27.9624 6.72801Z" fill="#414652"/>
<path fill-rule="evenodd" clip-rule="evenodd" d="M15 0C13.8954 0 13 0.89543 13 2V8C13 9.10457 13.8954 10 15 10H30C31.1046 10 32 9.10457 32 8V2C32 0.895431 31.1046 0 30 0H15ZM19.7127 8.00001H15.7607V6.90401L17.4807 5.43201C17.6354 5.29867 17.766 5.17867 17.8727 5.07201C17.9794 4.96001 18.0647 4.85334 18.1287 4.75201C18.198 4.64534 18.246 4.54134 18.2727 4.44001C18.3047 4.33867 18.3207 4.22934 18.3207 4.11201V4.00001C18.3207 3.89334 18.2994 3.80001 18.2567 3.72001C18.214 3.64001 18.158 3.57334 18.0887 3.52001C18.0194 3.46667 17.9394 3.42667 17.8487 3.40001C17.7634 3.37334 17.6754 3.36001 17.5847 3.36001C17.4514 3.36001 17.334 3.38134 17.2327 3.42401C17.1367 3.46667 17.0514 3.52534 16.9767 3.60001C16.9074 3.66934 16.8487 3.75201 16.8007 3.84801C16.7527 3.93867 16.7154 4.03734 16.6887 4.14401L15.6407 3.74401C15.7047 3.55201 15.7927 3.37067 15.9047 3.20001C16.0167 3.02401 16.1554 2.87201 16.3207 2.74401C16.4914 2.61067 16.6914 2.50667 16.9207 2.43201C17.15 2.35734 17.4087 2.32001 17.6967 2.32001C18.0007 2.32001 18.27 2.36267 18.5047 2.44801C18.7394 2.53334 18.9367 2.65067 19.0967 2.80001C19.262 2.94934 19.3874 3.12801 19.4727 3.33601C19.558 3.53867 19.6007 3.76001 19.6007 4.00001C19.6007 4.24001 19.5607 4.45867 19.4807 4.65601C19.4007 4.85334 19.2914 5.04001 19.1527 5.21601C19.0194 5.38667 18.862 5.54934 18.6807 5.70401C18.4994 5.85867 18.31 6.01601 18.1127 6.17601L17.0727 6.99201H19.7127V8.00001ZM22.5016 8.09601C21.7709 8.09601 21.2296 7.84267 20.8776 7.33601C20.5256 6.82934 20.3496 6.12001 20.3496 5.20801C20.3496 4.29601 20.5256 3.58667 20.8776 3.08001C21.2296 2.57334 21.7709 2.32001 22.5016 2.32001C23.2322 2.32001 23.7736 2.57334 24.1256 3.08001C24.4776 3.58667 24.6536 4.29601 24.6536 5.20801C24.6536 6.12001 24.4776 6.82934 24.1256 7.33601C23.7736 7.84267 23.2322 8.09601 22.5016 8.09601ZM25.6744 7.33601C26.0264 7.84267 26.5678 8.09601 27.2984 8.09601C28.0291 8.09601 28.5704 7.84267 28.9224 7.33601C29.2744 6.82934 29.4504 6.12001 29.4504 5.20801C29.4504 4.29601 29.2744 3.58667 28.9224 3.08001C28.5704 2.57334 28.0291 2.32001 27.2984 2.32001C26.5678 2.32001 26.0264 2.57334 25.6744 3.08001C25.3224 3.58667 25.1464 4.29601 25.1464 5.20801C25.1464 6.12001 25.3224 6.82934 25.6744 7.33601Z" fill="#414652"/>
<path d="M19.7127 8.00001H15.7607V6.90401L17.4807 5.43201C17.6354 5.29867 17.766 5.17867 17.8727 5.07201C17.9794 4.96001 18.0647 4.85334 18.1287 4.75201C18.198 4.64534 18.246 4.54134 18.2727 4.44001C18.3047 4.33867 18.3207 4.22934 18.3207 4.11201V4.00001C18.3207 3.89334 18.2994 3.80001 18.2567 3.72001C18.214 3.64001 18.158 3.57334 18.0887 3.52001C18.0194 3.46667 17.9394 3.42667 17.8487 3.40001C17.7634 3.37334 17.6754 3.36001 17.5847 3.36001C17.4514 3.36001 17.334 3.38134 17.2327 3.42401C17.1367 3.46667 17.0514 3.52534 16.9767 3.60001C16.9074 3.66934 16.8487 3.75201 16.8007 3.84801C16.7527 3.93867 16.7154 4.03734 16.6887 4.14401L15.6407 3.74401C15.7047 3.55201 15.7927 3.37067 15.9047 3.20001C16.0167 3.02401 16.1554 2.87201 16.3207 2.74401C16.4914 2.61067 16.6914 2.50667 16.9207 2.43201C17.15 2.35734 17.4087 2.32001 17.6967 2.32001C18.0007 2.32001 18.27 2.36267 18.5047 2.44801C18.7394 2.53334 18.9367 2.65067 19.0967 2.80001C19.262 2.94934 19.3874 3.12801 19.4727 3.33601C19.558 3.53867 19.6007 3.76001 19.6007 4.00001C19.6007 4.24001 19.5607 4.45867 19.4807 4.65601C19.4007 4.85334 19.2914 5.04001 19.1527 5.21601C19.0194 5.38667 18.862 5.54934 18.6807 5.70401C18.4994 5.85867 18.31 6.01601 18.1127 6.17601L17.0727 6.99201H19.7127V8.00001Z" fill="white"/>
<path d="M22.5016 8.09601C21.7709 8.09601 21.2296 7.84267 20.8776 7.33601C20.5256 6.82934 20.3496 6.12001 20.3496 5.20801C20.3496 4.29601 20.5256 3.58667 20.8776 3.08001C21.2296 2.57334 21.7709 2.32001 22.5016 2.32001C23.2322 2.32001 23.7736 2.57334 24.1256 3.08001C24.4776 3.58667 24.6536 4.29601 24.6536 5.20801C24.6536 6.12001 24.4776 6.82934 24.1256 7.33601C23.7736 7.84267 23.2322 8.09601 22.5016 8.09601ZM22.5016 7.08001C22.8216 7.08001 23.0429 6.96267 23.1656 6.72801C23.2882 6.49334 23.3496 6.16267 23.3496 5.73601V4.68001C23.3496 4.25334 23.2882 3.92267 23.1656 3.68801C23.0429 3.45334 22.8216 3.33601 22.5016 3.33601C22.1816 3.33601 21.9602 3.45334 21.8376 3.68801C21.7149 3.92267 21.6536 4.25334 21.6536 4.68001V5.73601C21.6536 6.16267 21.7149 6.49334 21.8376 6.72801C21.9602 6.96267 22.1816 7.08001 22.5016 7.08001Z" fill="white"/>
<path d="M27.2984 8.09601C26.5678 8.09601 26.0264 7.84267 25.6744 7.33601C25.3224 6.82934 25.1464 6.12001 25.1464 5.20801C25.1464 4.29601 25.3224 3.58667 25.6744 3.08001C26.0264 2.57334 26.5678 2.32001 27.2984 2.32001C28.0291 2.32001 28.5704 2.57334 28.9224 3.08001C29.2744 3.58667 29.4504 4.29601 29.4504 5.20801C29.4504 6.12001 29.2744 6.82934 28.9224 7.33601C28.5704 7.84267 28.0291 8.09601 27.2984 8.09601ZM27.2984 7.08001C27.6184 7.08001 27.8398 6.96267 27.9624 6.72801C28.0851 6.49334 28.1464 6.16267 28.1464 5.73601V4.68001C28.1464 4.25334 28.0851 3.92267 27.9624 3.68801C27.8398 3.45334 27.6184 3.33601 27.2984 3.33601C26.9784 3.33601 26.7571 3.45334 26.6344 3.68801C26.5118 3.92267 26.4504 4.25334 26.4504 4.68001V5.73601C26.4504 6.16267 26.5118 6.49334 26.6344 6.72801C26.7571 6.96267 26.9784 7.08001 27.2984 7.08001Z" fill="white"/>
</svg>
