<svg width="32" height="32" viewBox="0 0 32 32" fill="none" xmlns="http://www.w3.org/2000/svg">
<path d="M4 19H28V22C28 23.1046 27.1046 24 26 24H6C4.89543 24 4 23.1046 4 22V19Z" fill="#FFCD00"/>
<path d="M28 13H4V19H28V13Z" fill="#F10000"/>
<path d="M6 8H26C27.1046 8 28 8.89543 28 10V13H4V10C4 8.89543 4.89543 8 6 8Z" fill="#333333"/>
<path fill-rule="evenodd" clip-rule="evenodd" d="M26 9H6C5.44772 9 5 9.44772 5 10V22C5 22.5523 5.44772 23 6 23H26C26.5523 23 27 22.5523 27 22V10C27 9.44771 26.5523 9 26 9ZM6 8C4.89543 8 4 8.89543 4 10V22C4 23.1046 4.89543 24 6 24H26C27.1046 24 28 23.1046 28 22V10C28 8.89543 27.1046 8 26 8H6Z" fill="black" fill-opacity="0.08"/>
<path d="M28.064 6.728C27.9413 6.96267 27.72 7.08 27.4 7.08C27.08 7.08 26.8587 6.96267 26.736 6.728C26.6133 6.49333 26.552 6.16267 26.552 5.736V4.68C26.552 4.25333 26.6133 3.92267 26.736 3.688C26.8587 3.45333 27.08 3.336 27.4 3.336C27.72 3.336 27.9413 3.45333 28.064 3.688C28.1867 3.92267 28.248 4.25333 28.248 4.68V5.736C28.248 6.16267 28.1867 6.49333 28.064 6.728Z" fill="#414652"/>
<path d="M22.8991 6H21.4031L22.8191 3.656H22.8991V6Z" fill="#414652"/>
<path fill-rule="evenodd" clip-rule="evenodd" d="M20 0C18.8954 0 18 0.89543 18 2V8C18 9.10457 18.8954 10 20 10H30C31.1046 10 32 9.10457 32 8V2C32 0.895431 31.1046 0 30 0H20ZM25.776 7.336C26.128 7.84267 26.6693 8.096 27.4 8.096C28.1307 8.096 28.672 7.84267 29.024 7.336C29.376 6.82933 29.552 6.12 29.552 5.208C29.552 4.296 29.376 3.58667 29.024 3.08C28.672 2.57333 28.1307 2.32 27.4 2.32C26.6693 2.32 26.128 2.57333 25.776 3.08C25.424 3.58667 25.248 4.296 25.248 5.208C25.248 6.12 25.424 6.82933 25.776 7.336ZM22.8991 6.928V8H24.0431V6.928H24.7471V6H24.0431V2.416H22.6191L20.4431 5.904V6.928H22.8991Z" fill="#414652"/>
<path d="M27.4 8.096C26.6693 8.096 26.128 7.84267 25.776 7.336C25.424 6.82933 25.248 6.12 25.248 5.208C25.248 4.296 25.424 3.58667 25.776 3.08C26.128 2.57333 26.6693 2.32 27.4 2.32C28.1307 2.32 28.672 2.57333 29.024 3.08C29.376 3.58667 29.552 4.296 29.552 5.208C29.552 6.12 29.376 6.82933 29.024 7.336C28.672 7.84267 28.1307 8.096 27.4 8.096ZM27.4 7.08C27.72 7.08 27.9413 6.96267 28.064 6.728C28.1867 6.49333 28.248 6.16267 28.248 5.736V4.68C28.248 4.25333 28.1867 3.92267 28.064 3.688C27.9413 3.45333 27.72 3.336 27.4 3.336C27.08 3.336 26.8587 3.45333 26.736 3.688C26.6133 3.92267 26.552 4.25333 26.552 4.68V5.736C26.552 6.16267 26.6133 6.49333 26.736 6.728C26.8587 6.96267 27.08 7.08 27.4 7.08Z" fill="white"/>
<path d="M22.8991 8V6.928H20.4431V5.904L22.6191 2.416H24.0431V6H24.7471V6.928H24.0431V8H22.8991ZM21.4031 6H22.8991V3.656H22.8191L21.4031 6Z" fill="white"/>
</svg>
