<svg width="32" height="32" viewBox="0 0 32 32" fill="none" xmlns="http://www.w3.org/2000/svg">
<path d="M4 10C4 8.89543 4.89543 8 6 8H26C27.1046 8 28 8.89543 28 10V22C28 23.1046 27.1046 24 26 24H6C4.89543 24 4 23.1046 4 22V10Z" fill="white"/>
<path fill-rule="evenodd" clip-rule="evenodd" d="M26 9H6C5.44772 9 5 9.44772 5 10V22C5 22.5523 5.44772 23 6 23H26C26.5523 23 27 22.5523 27 22V10C27 9.44771 26.5523 9 26 9ZM6 8C4.89543 8 4 8.89543 4 10V22C4 23.1046 4.89543 24 6 24H26C27.1046 24 28 23.1046 28 22V10C28 8.89543 27.1046 8 26 8H6Z" fill="black" fill-opacity="0.08"/>
<path d="M20.5 16C20.5 18.4853 18.4853 20.5 16 20.5C13.5147 20.5 11.5 18.4853 11.5 16C11.5 13.5147 13.5147 11.5 16 11.5C18.4853 11.5 20.5 13.5147 20.5 16Z" fill="#ED293F"/>
<path d="M13 2C13 0.89543 13.8954 0 15 0H30C31.1046 0 32 0.895431 32 2V8C32 9.10457 31.1046 10 30 10H15C13.8954 10 13 9.10457 13 8V2Z" fill="#414652"/>
<path d="M19.7127 8H15.7607V6.904L17.4807 5.432C17.6354 5.29867 17.766 5.17867 17.8727 5.072C17.9794 4.96 18.0647 4.85333 18.1287 4.752C18.198 4.64533 18.246 4.54133 18.2727 4.44C18.3047 4.33867 18.3207 4.22933 18.3207 4.112V4C18.3207 3.89333 18.2994 3.8 18.2567 3.72C18.214 3.64 18.158 3.57333 18.0887 3.52C18.0194 3.46667 17.9394 3.42667 17.8487 3.4C17.7634 3.37333 17.6754 3.36 17.5847 3.36C17.4514 3.36 17.334 3.38133 17.2327 3.424C17.1367 3.46667 17.0514 3.52533 16.9767 3.6C16.9074 3.66933 16.8487 3.752 16.8007 3.848C16.7527 3.93867 16.7154 4.03733 16.6887 4.144L15.6407 3.744C15.7047 3.552 15.7927 3.37067 15.9047 3.2C16.0167 3.024 16.1554 2.872 16.3207 2.744C16.4914 2.61067 16.6914 2.50667 16.9207 2.432C17.15 2.35733 17.4087 2.32 17.6967 2.32C18.0007 2.32 18.27 2.36267 18.5047 2.448C18.7394 2.53333 18.9367 2.65067 19.0967 2.8C19.262 2.94933 19.3874 3.128 19.4727 3.336C19.558 3.53867 19.6007 3.76 19.6007 4C19.6007 4.24 19.5607 4.45867 19.4807 4.656C19.4007 4.85333 19.2914 5.04 19.1527 5.216C19.0194 5.38667 18.862 5.54933 18.6807 5.704C18.4994 5.85867 18.31 6.016 18.1127 6.176L17.0727 6.992H19.7127V8Z" fill="white"/>
<path d="M24.5096 8H20.5576V6.904L22.2776 5.432C22.4322 5.29867 22.5629 5.17867 22.6696 5.072C22.7762 4.96 22.8616 4.85333 22.9256 4.752C22.9949 4.64533 23.0429 4.54133 23.0696 4.44C23.1016 4.33867 23.1176 4.22933 23.1176 4.112V4C23.1176 3.89333 23.0962 3.8 23.0536 3.72C23.0109 3.64 22.9549 3.57333 22.8856 3.52C22.8162 3.46667 22.7362 3.42667 22.6456 3.4C22.5602 3.37333 22.4722 3.36 22.3816 3.36C22.2482 3.36 22.1309 3.38133 22.0296 3.424C21.9336 3.46667 21.8482 3.52533 21.7736 3.6C21.7042 3.66933 21.6456 3.752 21.5976 3.848C21.5496 3.93867 21.5122 4.03733 21.4856 4.144L20.4376 3.744C20.5016 3.552 20.5896 3.37067 20.7016 3.2C20.8136 3.024 20.9522 2.872 21.1176 2.744C21.2882 2.61067 21.4882 2.50667 21.7176 2.432C21.9469 2.35733 22.2056 2.32 22.4936 2.32C22.7976 2.32 23.0669 2.36267 23.3016 2.448C23.5362 2.53333 23.7336 2.65067 23.8936 2.8C24.0589 2.94933 24.1842 3.128 24.2696 3.336C24.3549 3.53867 24.3976 3.76 24.3976 4C24.3976 4.24 24.3576 4.45867 24.2776 4.656C24.1976 4.85333 24.0882 5.04 23.9496 5.216C23.8162 5.38667 23.6589 5.54933 23.4776 5.704C23.2962 5.85867 23.1069 6.016 22.9096 6.176L21.8696 6.992H24.5096V8Z" fill="white"/>
<path d="M29.0744 3.464H26.5384L26.4184 5.232H26.4824C26.5358 5.09867 26.5944 4.97867 26.6584 4.872C26.7278 4.76 26.8078 4.66667 26.8984 4.592C26.9891 4.512 27.0984 4.45067 27.2264 4.408C27.3544 4.36533 27.5064 4.344 27.6824 4.344C27.9224 4.344 28.1464 4.384 28.3544 4.464C28.5624 4.544 28.7438 4.66133 28.8984 4.816C29.0531 4.96533 29.1758 5.152 29.2664 5.376C29.3571 5.59467 29.4024 5.84267 29.4024 6.12C29.4024 6.40267 29.3544 6.66667 29.2584 6.912C29.1678 7.152 29.0291 7.36 28.8424 7.536C28.6611 7.712 28.4371 7.85067 28.1704 7.952C27.9038 8.048 27.5998 8.096 27.2584 8.096C26.9864 8.096 26.7464 8.06667 26.5384 8.008C26.3304 7.94933 26.1464 7.872 25.9864 7.776C25.8264 7.67467 25.6878 7.56 25.5704 7.432C25.4531 7.304 25.3518 7.168 25.2664 7.024L26.1384 6.336C26.2611 6.55467 26.4078 6.74133 26.5784 6.896C26.7491 7.04533 26.9784 7.12 27.2664 7.12C27.5544 7.12 27.7704 7.03733 27.9144 6.872C28.0638 6.70667 28.1384 6.488 28.1384 6.216V6.152C28.1384 5.896 28.0638 5.69333 27.9144 5.544C27.7651 5.39467 27.5598 5.32 27.2984 5.32C27.0798 5.32 26.8984 5.36533 26.7544 5.456C26.6158 5.54133 26.5091 5.62667 26.4344 5.712L25.4504 5.576L25.6584 2.416H29.0744V3.464Z" fill="white"/>
</svg>
