<svg width="32" height="32" viewBox="0 0 32 32" fill="none" xmlns="http://www.w3.org/2000/svg">
<path d="M26 8H6C4.89543 8 4 8.89543 4 10V22C4 23.1046 4.89543 24 6 24H26C27.1046 24 28 23.1046 28 22V10C28 8.89543 27.1046 8 26 8Z" fill="#0D47A1"/>
<path d="M16.0671 20.6713L16.233 21.1766L16.7574 21.1808C16.8253 21.1813 16.8534 21.2693 16.7988 21.3103L16.3769 21.6268L16.5351 22.1347C16.5556 22.2004 16.4819 22.2549 16.4266 22.2147L16 21.9049L15.5734 22.2147C15.5182 22.2548 15.4445 22.2004 15.4649 22.1347L15.6231 21.6268L15.2012 21.3103C15.1466 21.2693 15.1747 21.1813 15.2427 21.1808L15.7671 21.1766L15.933 20.6713C15.9544 20.6058 16.0456 20.6058 16.0671 20.6713ZM13.483 19.8239L13.6489 20.3293L14.1733 20.3334C14.2412 20.334 14.2694 20.422 14.2147 20.463L13.7929 20.7794L13.951 21.2874C13.9715 21.3531 13.8978 21.4075 13.8426 21.3674L13.4159 21.0576L12.9893 21.3674C12.9341 21.4075 12.8604 21.3531 12.8809 21.2874L13.039 20.7794L12.6171 20.463C12.5625 20.422 12.5907 20.334 12.6586 20.3334L13.183 20.3294L13.3489 19.824C13.3704 19.7584 13.4616 19.7584 13.483 19.8239ZM18.6894 19.8239C18.7109 19.7584 18.802 19.7584 18.8235 19.824L18.9894 20.3294L19.5138 20.3334C19.5817 20.334 19.6099 20.422 19.5553 20.463L19.1334 20.7794L19.2915 21.2874C19.312 21.3531 19.2383 21.4075 19.1831 21.3674L18.7565 21.0576L18.3299 21.3674C18.2746 21.4075 18.2009 21.3531 18.2214 21.2874L18.3795 20.7794L17.9577 20.463C17.9031 20.422 17.9312 20.334 17.9991 20.3334L18.5235 20.3293L18.6894 19.8239ZM20.7783 17.8381L20.9442 18.3434L21.4686 18.3476C21.5365 18.3481 21.5646 18.4361 21.51 18.4771L21.0882 18.7936L21.2463 19.3015C21.2668 19.3673 21.1931 19.4217 21.1379 19.3815L20.7112 19.0717L20.2846 19.3815C20.2294 19.4216 20.1557 19.3673 20.1762 19.3015L20.3343 18.7936L19.9124 18.4771C19.8578 18.4361 19.886 18.3481 19.9539 18.3476L20.4783 18.3434L20.6442 17.8381C20.6657 17.7727 20.7568 17.7727 20.7783 17.8381ZM11.5081 17.8067L11.5282 17.8381L11.6942 18.3434L12.2186 18.3476C12.2729 18.348 12.3018 18.4044 12.2832 18.4479L12.26 18.4771L11.8381 18.7936L11.9963 19.3015C12.0127 19.3541 11.9688 19.3994 11.9223 19.3949L11.8878 19.3815L11.4612 19.0717L11.0346 19.3815C10.9904 19.4137 10.9344 19.3853 10.9242 19.3389L10.9261 19.3015L11.0843 18.7936L10.6624 18.4771C10.6187 18.4443 10.628 18.3814 10.6682 18.3573L10.7039 18.3476L11.2282 18.3434L11.3942 17.8381C11.4114 17.7858 11.4731 17.7753 11.5081 17.8067ZM21.4076 15.2459L21.5735 15.7513L22.0979 15.7554C22.1658 15.756 22.1939 15.844 22.1393 15.885L21.7175 16.2014L21.8756 16.7094C21.8961 16.7751 21.8224 16.8295 21.7671 16.7894L21.3405 16.4796L20.9139 16.7894C20.8587 16.8295 20.785 16.7751 20.8055 16.7094L20.9636 16.2014L20.5417 15.885C20.4871 15.844 20.5153 15.756 20.5832 15.7554L21.1076 15.7513L21.2735 15.2459C21.2949 15.1805 21.3861 15.1805 21.4076 15.2459ZM10.7265 15.2459L10.8924 15.7513L11.4168 15.7554C11.4847 15.756 11.5129 15.844 11.4583 15.885L11.0364 16.2014L11.1945 16.7094C11.215 16.7751 11.1413 16.8295 11.0861 16.7894L10.6595 16.4796L10.2329 16.7894C10.1776 16.8295 10.1039 16.7751 10.1244 16.7094L10.2825 16.2014L9.86066 15.885C9.80605 15.844 9.83418 15.756 9.9021 15.7554L10.4265 15.7513L10.5924 15.2459C10.6139 15.1805 10.7051 15.1805 10.7265 15.2459ZM11.5282 12.4128L11.6942 12.9182L12.2186 12.9223C12.2865 12.9228 12.3146 13.0108 12.26 13.0518L11.8381 13.3683L11.9963 13.8762C12.0168 13.9419 11.9431 13.9964 11.8878 13.9563L11.4612 13.6464L11.0346 13.9563C10.9794 13.9964 10.9056 13.942 10.9261 13.8762L11.0843 13.3683L10.6624 13.0518C10.6078 13.0108 10.6359 12.9228 10.7039 12.9223L11.2282 12.9182L11.3942 12.4128C11.4156 12.3474 11.5067 12.3474 11.5282 12.4128ZM20.7581 12.3814L20.7783 12.4128L20.9442 12.9182L21.4686 12.9223C21.5229 12.9227 21.5518 12.9791 21.5332 13.0227L21.51 13.0518L21.0882 13.3683L21.2463 13.8762C21.2627 13.9288 21.2188 13.9741 21.1723 13.9696L21.1379 13.9563L20.7112 13.6464L20.2846 13.9563C20.2404 13.9884 20.1844 13.9599 20.1743 13.9136L20.1762 13.8762L20.3343 13.3683L19.9124 13.0518C19.8688 13.019 19.878 12.9561 19.9182 12.932L19.9539 12.9223L20.4783 12.9182L20.6442 12.4128C20.6614 12.3604 20.7231 12.35 20.7581 12.3814ZM18.8235 10.427L18.9895 10.9324L19.5139 10.9365C19.5818 10.937 19.6099 11.025 19.5553 11.066L19.1334 11.3825L19.2916 11.8904C19.3121 11.9561 19.2384 12.0106 19.1831 11.9704L18.7565 11.6606L18.3299 11.9704C18.2746 12.0105 18.2009 11.9562 18.2214 11.8904L18.3795 11.3825L17.9577 11.066C17.9031 11.025 17.9312 10.937 17.9991 10.9365L18.5235 10.9324L18.6894 10.427C18.7109 10.3616 18.802 10.3616 18.8235 10.427ZM13.4628 10.3956L13.483 10.427L13.6489 10.9324L14.1733 10.9365C14.2276 10.9369 14.2565 10.9933 14.2379 11.0369L14.2147 11.066L13.7929 11.3825L13.951 11.8904C13.9674 11.943 13.9235 11.9883 13.877 11.9838L13.8426 11.9704L13.4159 11.6606L12.9893 11.9704C12.9451 12.0026 12.8891 11.9741 12.879 11.9278L12.8809 11.8904L13.039 11.3825L12.6171 11.066C12.5735 11.0332 12.5827 10.9703 12.623 10.9462L12.6586 10.9365L13.183 10.9324L13.3489 10.427C13.3661 10.3747 13.4278 10.3642 13.4628 10.3956ZM16.0671 9.82064L16.233 10.326L16.7574 10.3302C16.8253 10.3307 16.8534 10.4187 16.7988 10.4597L16.3769 10.7762L16.5351 11.2841C16.5556 11.3498 16.4819 11.4043 16.4266 11.3641L16 11.0543L15.5734 11.3641C15.5182 11.4042 15.4445 11.3498 15.4649 11.2841L15.6231 10.7762L15.2012 10.4597C15.1466 10.4187 15.1747 10.3307 15.2427 10.3302L15.7671 10.326L15.933 9.82064C15.9544 9.75521 16.0456 9.75521 16.0671 9.82064Z" fill="#FFD955"/>
<path fill-rule="evenodd" clip-rule="evenodd" d="M26 9H6C5.44772 9 5 9.44772 5 10V22C5 22.5523 5.44772 23 6 23H26C26.5523 23 27 22.5523 27 22V10C27 9.44771 26.5523 9 26 9ZM6 8C4.89543 8 4 8.89543 4 10V22C4 23.1046 4.89543 24 6 24H26C27.1046 24 28 23.1046 28 22V10C28 8.89543 27.1046 8 26 8H6Z" fill="black" fill-opacity="0.08"/>
<path d="M28.0642 6.72801C27.9415 6.96267 27.7202 7.08001 27.4002 7.08001C27.0802 7.08001 26.8588 6.96267 26.7362 6.72801C26.6135 6.49334 26.5522 6.16267 26.5522 5.73601V4.68001C26.5522 4.25334 26.6135 3.92267 26.7362 3.68801C26.8588 3.45334 27.0802 3.33601 27.4002 3.33601C27.7202 3.33601 27.9415 3.45334 28.0642 3.68801C28.1868 3.92267 28.2482 4.25334 28.2482 4.68001V5.73601C28.2482 6.16267 28.1868 6.49334 28.0642 6.72801Z" fill="#414652"/>
<path fill-rule="evenodd" clip-rule="evenodd" d="M20 0C18.8954 0 18 0.89543 18 2V8C18 9.10457 18.8954 10 20 10H30C31.1046 10 32 9.10457 32 8V2C32 0.895431 31.1046 0 30 0H20ZM25.7762 7.33601C26.1282 7.84267 26.6695 8.09601 27.4002 8.09601C28.1308 8.09601 28.6722 7.84267 29.0242 7.33601C29.3762 6.82934 29.5522 6.12001 29.5522 5.20801C29.5522 4.29601 29.3762 3.58667 29.0242 3.08001C28.6722 2.57334 28.1308 2.32001 27.4002 2.32001C26.6695 2.32001 26.1282 2.57334 25.7762 3.08001C25.4242 3.58667 25.2482 4.29601 25.2482 5.20801C25.2482 6.12001 25.4242 6.82934 25.7762 7.33601ZM21.8433 3.46401H24.3793V2.41601H20.9633L20.7553 5.57601L21.7393 5.71201C21.814 5.62667 21.9206 5.54134 22.0593 5.45601C22.2033 5.36534 22.3846 5.32001 22.6033 5.32001C22.8646 5.32001 23.07 5.39467 23.2193 5.54401C23.3686 5.69334 23.4433 5.89601 23.4433 6.15201V6.21601C23.4433 6.48801 23.3686 6.70667 23.2193 6.87201C23.0753 7.03734 22.8593 7.12001 22.5713 7.12001C22.2833 7.12001 22.054 7.04534 21.8833 6.89601C21.7126 6.74134 21.566 6.55467 21.4433 6.33601L20.5713 7.02401C20.6566 7.16801 20.758 7.30401 20.8753 7.43201C20.9926 7.56001 21.1313 7.67467 21.2913 7.77601C21.4513 7.87201 21.6353 7.94934 21.8433 8.00801C22.0513 8.06667 22.2913 8.09601 22.5633 8.09601C22.9046 8.09601 23.2086 8.04801 23.4753 7.95201C23.742 7.85067 23.966 7.71201 24.1473 7.53601C24.334 7.36001 24.4726 7.15201 24.5633 6.91201C24.6593 6.66667 24.7073 6.40267 24.7073 6.12001C24.7073 5.84267 24.662 5.59467 24.5713 5.37601C24.4806 5.15201 24.358 4.96534 24.2033 4.81601C24.0486 4.66134 23.8673 4.54401 23.6593 4.46401C23.4513 4.38401 23.2273 4.34401 22.9873 4.34401C22.8113 4.34401 22.6593 4.36534 22.5313 4.40801C22.4033 4.45067 22.294 4.51201 22.2033 4.59201C22.1126 4.66667 22.0326 4.76001 21.9633 4.87201C21.8993 4.97867 21.8406 5.09867 21.7873 5.23201H21.7233L21.8433 3.46401Z" fill="#414652"/>
<path d="M24.3793 3.46401H21.8433L21.7233 5.23201H21.7873C21.8406 5.09867 21.8993 4.97867 21.9633 4.87201C22.0326 4.76001 22.1126 4.66667 22.2033 4.59201C22.294 4.51201 22.4033 4.45067 22.5313 4.40801C22.6593 4.36534 22.8113 4.34401 22.9873 4.34401C23.2273 4.34401 23.4513 4.38401 23.6593 4.46401C23.8673 4.54401 24.0486 4.66134 24.2033 4.81601C24.358 4.96534 24.4806 5.15201 24.5713 5.37601C24.662 5.59467 24.7073 5.84267 24.7073 6.12001C24.7073 6.40267 24.6593 6.66667 24.5633 6.91201C24.4726 7.15201 24.334 7.36001 24.1473 7.53601C23.966 7.71201 23.742 7.85067 23.4753 7.95201C23.2086 8.04801 22.9046 8.09601 22.5633 8.09601C22.2913 8.09601 22.0513 8.06667 21.8433 8.00801C21.6353 7.94934 21.4513 7.87201 21.2913 7.77601C21.1313 7.67467 20.9926 7.56001 20.8753 7.43201C20.758 7.30401 20.6566 7.16801 20.5713 7.02401L21.4433 6.33601C21.566 6.55467 21.7126 6.74134 21.8833 6.89601C22.054 7.04534 22.2833 7.12001 22.5713 7.12001C22.8593 7.12001 23.0753 7.03734 23.2193 6.87201C23.3686 6.70667 23.4433 6.48801 23.4433 6.21601V6.15201C23.4433 5.89601 23.3686 5.69334 23.2193 5.54401C23.07 5.39467 22.8646 5.32001 22.6033 5.32001C22.3846 5.32001 22.2033 5.36534 22.0593 5.45601C21.9206 5.54134 21.814 5.62667 21.7393 5.71201L20.7553 5.57601L20.9633 2.41601H24.3793V3.46401Z" fill="white"/>
<path d="M27.4002 8.09601C26.6695 8.09601 26.1282 7.84267 25.7762 7.33601C25.4242 6.82934 25.2482 6.12001 25.2482 5.20801C25.2482 4.29601 25.4242 3.58667 25.7762 3.08001C26.1282 2.57334 26.6695 2.32001 27.4002 2.32001C28.1308 2.32001 28.6722 2.57334 29.0242 3.08001C29.3762 3.58667 29.5522 4.29601 29.5522 5.20801C29.5522 6.12001 29.3762 6.82934 29.0242 7.33601C28.6722 7.84267 28.1308 8.09601 27.4002 8.09601ZM27.4002 7.08001C27.7202 7.08001 27.9415 6.96267 28.0642 6.72801C28.1868 6.49334 28.2482 6.16267 28.2482 5.73601V4.68001C28.2482 4.25334 28.1868 3.92267 28.0642 3.68801C27.9415 3.45334 27.7202 3.33601 27.4002 3.33601C27.0802 3.33601 26.8588 3.45334 26.7362 3.68801C26.6135 3.92267 26.5522 4.25334 26.5522 4.68001V5.73601C26.5522 6.16267 26.6135 6.49334 26.7362 6.72801C26.8588 6.96267 27.0802 7.08001 27.4002 7.08001Z" fill="white"/>
</svg>
