<svg width="32" height="32" viewBox="0 0 32 32" fill="none" xmlns="http://www.w3.org/2000/svg">
<g clip-path="url(#clip0_8821_17025)">
<path d="M32 16C32 24.8366 24.8366 32 16 32C7.16344 32 0 24.8366 0 16C0 7.16344 7.16344 0 16 0C24.8366 0 32 7.16344 32 16Z" fill="#F6F7F8"/>
<path fill-rule="evenodd" clip-rule="evenodd" d="M9.19978 16.9724H9.8474C10.1001 16.9724 10.1962 17.0596 10.1962 17.2731C10.1962 17.4787 10.1 17.5658 9.8474 17.5658H9.19978V16.9724ZM8.1965 19.1324H9.19983V18.254H10.2745C10.986 18.254 11.2422 17.8349 11.2422 17.293C11.2422 16.6639 10.9788 16.308 10.2673 16.308H8.1965V19.1324ZM11.5731 16.308H14.2734V16.9961H12.5764V17.3759H14.1527V18.0643H12.5764V18.4441H14.2734V19.1324H11.5731V16.308ZM15.6967 16.9724H16.3443C16.5969 16.9724 16.6931 17.0596 16.6931 17.2731C16.6931 17.4787 16.5969 17.5658 16.3443 17.5658H15.6967V16.9724ZM14.6934 19.1324H15.6967V18.254H16.7712C17.4829 18.254 17.7392 17.8349 17.7392 17.293C17.7392 16.6639 17.4757 16.308 16.7641 16.308H14.6934V19.1324ZM18.7103 17.9338C18.2194 17.8505 18.0167 17.5341 18.0167 17.1386C18.0167 16.4067 18.6608 16.2091 19.486 16.2091C20.6173 16.2091 21.0835 16.5373 21.1191 17.1347H19.952C19.952 17.0199 19.8915 16.9486 19.7992 16.9091C19.7102 16.8657 19.5964 16.8499 19.486 16.8499C19.1872 16.8499 19.0841 16.9329 19.0841 17.0516C19.0841 17.1306 19.116 17.1822 19.2156 17.198L20.4146 17.3957C20.9199 17.4787 21.233 17.7398 21.233 18.2184C21.233 18.9069 20.7278 19.2313 19.5998 19.2313C18.8278 19.2313 17.9845 19.1126 17.981 18.2819H19.1907C19.1941 18.3767 19.2263 18.44 19.2975 18.4835C19.372 18.5231 19.4824 18.543 19.6389 18.543C19.9519 18.543 20.0375 18.448 20.0375 18.3134C20.0375 18.2304 19.9911 18.1474 19.8562 18.1237L18.7103 17.9338ZM21.5602 16.308H22.5635V19.1324H21.5602V16.308ZM26.2819 18.0327C26.2178 18.4045 26.1038 18.7052 25.8547 18.9108C25.6094 19.1165 25.225 19.2313 24.6131 19.2313C24.0047 19.2313 22.8768 19.1837 22.8768 17.7202C22.8768 16.2565 24.0047 16.209 24.6131 16.209C25.2178 16.209 26.1501 16.296 26.2819 17.4156H25.1504C25.1219 17.2137 25.0008 16.921 24.6131 16.921C24.2038 16.921 23.9441 17.1465 23.9441 17.7202C23.9441 18.2938 24.1968 18.5191 24.5632 18.5191C24.8799 18.5191 25.0685 18.3728 25.1504 18.0326L26.2819 18.0327ZM27.5946 17.7203C27.5946 17.1465 27.8545 16.9211 28.2637 16.9211C28.6728 16.9211 28.9326 17.1466 28.9326 17.7203C28.9326 18.2939 28.6728 18.5192 28.2637 18.5192C27.8545 18.5192 27.5946 18.2938 27.5946 17.7203ZM26.5271 17.7203C26.5271 19.1837 27.655 19.2313 28.2636 19.2313C28.8721 19.2313 30 19.1837 30 17.7203C30 16.2566 28.8721 16.2091 28.2636 16.2091C27.655 16.2091 26.5271 16.2565 26.5271 17.7203ZM6.68043 16.336C6.74521 14.9809 5.57664 13.4549 3.98353 13.2663L3.98625 13.2478C5.55681 13.2478 6.76081 14.7018 6.76081 15.8488C6.75931 16.0876 6.74045 16.2355 6.70682 16.3429L6.68043 16.336ZM6.58526 16.5082C6.48077 16.6359 6.34935 16.7644 6.19538 16.8865C5.91213 15.2574 4.71503 13.8329 3.86868 13.4171L3.85055 13.4298C4.70171 14.1283 5.7169 15.485 6.11169 16.9504C5.91032 17.0983 5.69279 17.2229 5.4633 17.3217C4.66011 16.4058 3.9113 14.6393 3.67 13.5184L3.64545 13.5257C3.6509 14.6138 4.42342 16.461 5.36551 17.3623C5.14944 17.4478 4.92481 17.5099 4.69549 17.5474C3.79242 17.1897 3.14962 16.0438 3.14962 14.8701C3.14962 14.1038 3.38325 13.6298 3.42845 13.5328L3.4092 13.5252C3.35453 13.6079 3.01227 14.0816 3.01227 14.9089C3.01227 16.2357 3.6666 17.2498 4.5353 17.5691C4.22465 17.6033 3.91057 17.5886 3.60448 17.5255L3.59802 17.5457C3.69094 17.5799 4.00622 17.7122 4.48718 17.7122C5.57503 17.7122 6.31042 17.0363 6.60645 16.5226L6.58526 16.5082Z" fill="#28458E"/>
<path fill-rule="evenodd" clip-rule="evenodd" d="M4.37842 12.769C3.55375 12.769 2.58677 13.3642 2.58677 13.9082C2.58677 14.1187 2.77928 14.2965 3.17772 14.2965C4.10265 14.2965 4.96197 13.661 4.96197 13.1669C4.96197 12.9069 4.71226 12.769 4.37842 12.769ZM4.70764 13.1515C4.70764 13.568 3.90781 14.0772 3.2392 14.0772C2.9438 14.0772 2.78419 13.9609 2.78419 13.7691C2.78419 13.3466 3.59311 12.8461 4.22027 12.8461C4.62915 12.8461 4.70764 13.0542 4.70764 13.1515Z" fill="#0096D6"/>
<path fill-rule="evenodd" clip-rule="evenodd" d="M2.25822 14.1601C2.23504 14.2002 2.14221 14.382 2.14221 14.5683C2.14221 14.9137 2.49122 15.2343 3.13315 15.2343C4.36807 15.2343 5.79482 14.3253 5.79482 13.4816C5.79482 13.1028 5.43628 12.8969 5.18734 12.8543L5.18268 12.8691C5.2601 12.8936 5.54374 13.0254 5.54374 13.3628C5.54374 14.0351 4.28403 14.9512 3.02924 14.9512C2.54886 14.9512 2.24621 14.7141 2.24621 14.3686C2.24621 14.2594 2.26896 14.1874 2.27499 14.1666L2.25822 14.1601Z" fill="#EB7B30"/>
<path fill-rule="evenodd" clip-rule="evenodd" d="M6.30394 13.5447C6.33782 13.5704 6.54121 13.7399 6.54121 14.0605C6.54121 15.1535 4.8286 16.2283 3.31452 16.2283C2.4116 16.2283 2 15.7825 2.01823 15.3866H2.03441C2.06979 15.5922 2.36295 15.9601 3.15321 15.9601C4.66919 15.9601 6.36183 14.8479 6.36183 13.8735C6.36183 13.7064 6.31643 13.6022 6.29077 13.5559L6.30394 13.5447Z" fill="#00984A"/>
<path fill-rule="evenodd" clip-rule="evenodd" d="M6.87636 14.5651C6.88346 14.5884 6.92034 14.693 6.92034 14.8569C6.92034 16.0728 5.18718 17.1138 3.67981 17.1138C2.90399 17.1138 2.49885 16.7369 2.41331 16.5839L2.42711 16.5736C2.64178 16.7614 3.06461 16.904 3.55806 16.904C4.88935 16.904 6.87583 15.8912 6.85809 14.5695L6.87636 14.5651Z" fill="#DF002C"/>
</g>
<defs>
<clipPath id="clip0_8821_17025">
<rect width="32" height="32" fill="white"/>
</clipPath>
</defs>
</svg>
