<svg width="32" height="32" viewBox="0 0 32 32" fill="none" xmlns="http://www.w3.org/2000/svg">
<g clip-path="url(#clip0_8821_17028)">
<path d="M32 16C32 24.8366 24.8366 32 16 32C7.16344 32 0 24.8366 0 16C0 7.16344 7.16344 0 16 0C24.8366 0 32 7.16344 32 16Z" fill="#D0ECFC"/>
<path fill-rule="evenodd" clip-rule="evenodd" d="M14.4047 14.1149L13.3144 18.1011H14.2306L14.6344 16.625H15.4303C16.3085 16.625 16.8912 16.1403 17.0488 15.4665C17.196 14.8375 16.8286 14.1148 15.8445 14.1148L14.4047 14.1149ZM15.1926 14.5839H15.5449C15.9137 14.5839 16.2064 14.8791 16.1357 15.393C16.0703 15.8693 15.553 16.1548 15.1021 16.1548H14.763L15.1926 14.5839Z" fill="#2B01BE"/>
<path fill-rule="evenodd" clip-rule="evenodd" d="M23.8813 15.3559C23.1109 15.3559 22.5551 16.0187 22.4218 16.681C22.2936 17.3175 22.6586 18.1634 23.6635 18.1634C24.3777 18.1634 24.7369 17.8489 24.7369 17.8489L24.5725 17.4431C24.5725 17.4431 24.2723 17.6875 23.8539 17.6875C23.4355 17.6875 23.173 17.3572 23.2311 16.8309H24.9396C25.0618 16.521 25.1286 15.3559 23.8813 15.3559ZM23.878 15.7959C24.3558 15.7959 24.2471 16.4269 24.2471 16.4269L23.2898 16.4246C23.2898 16.4246 23.4486 15.7959 23.878 15.7959Z" fill="#2B01BE"/>
<path d="M15.9101 20.7621H16.789L18.1246 15.8793H19.0375L18.4298 18.1011H19.3086L20.0374 15.4366H18.2458L18.5152 14.4513C18.6626 13.9125 18.9033 13.5213 19.2534 13.5345C19.564 13.5461 19.4983 13.7122 19.4329 13.8774C19.4169 13.918 19.4008 13.9585 19.3904 13.9967C19.3171 14.2647 19.515 14.5342 19.8617 14.5342C20.6148 14.5342 20.8005 13.1513 19.3903 13.1513C17.9917 13.1513 17.6248 14.4935 17.4216 15.2368L15.9101 20.7621Z" fill="#2B01BE"/>
<path d="M20.3685 15.4367L20.2474 15.8794H21.3614L19.6101 18.1011H22.0832L22.2043 17.6584H20.9476L22.6989 15.4367H20.3685Z" fill="#2B01BE"/>
<path d="M27.2868 15.3918C26.7138 15.3918 26.376 15.9835 26.376 15.9835L26.5255 15.4367H25.6466L24.9178 18.1011H25.7967C25.7967 18.1011 26.0084 17.3226 26.1161 16.934C26.2823 16.3264 26.6215 15.9461 26.7845 15.9305C26.8643 15.9229 26.9071 15.9999 26.9578 16.0913C27.0268 16.2156 27.1105 16.3665 27.3223 16.3665C27.8798 16.3665 27.9999 15.3918 27.2868 15.3918Z" fill="#2B01BE"/>
<path d="M11.2519 18.1073C8.10013 17.9108 4.43749 16.2851 4.56679 14.9471L4.13195 16.537C4.00003 17.9021 7.39763 19.5228 10.7905 19.7941L11.2519 18.1073Z" fill="#2B01BE"/>
<path d="M9.88317 17.2097C10.9544 17.1797 12.1179 16.9366 12.3973 15.9152L12.8586 14.2285C12.5793 15.2498 11.4158 15.4929 10.3446 15.5229C9.46389 15.5476 8.48204 15.4312 8.48204 15.4312L8.02069 17.1179C8.02069 17.1179 9.00256 17.2344 9.88317 17.2097Z" fill="#2B01BE"/>
<path d="M12.3973 15.9152C12.5265 14.5772 8.86393 12.9516 5.71216 12.7551L6.17354 11.0683C9.56645 11.3396 12.964 12.9603 12.8321 14.3254L12.3973 15.9152Z" fill="#0190FF"/>
<path d="M7.08092 13.6527C6.0097 13.6827 4.84617 13.9257 4.56679 14.9471L4.10547 16.6339C4.38482 15.6125 5.54834 15.3695 6.61957 15.3394C7.50018 15.3148 8.48204 15.4312 8.48204 15.4312L8.94344 13.7444C8.94344 13.7444 7.96154 13.628 7.08092 13.6527Z" fill="#0190FF"/>
</g>
<defs>
<clipPath id="clip0_8821_17028">
<rect width="32" height="32" fill="white"/>
</clipPath>
</defs>
</svg>
