<svg width="32" height="32" viewBox="0 0 32 32" fill="none" xmlns="http://www.w3.org/2000/svg">
<g clip-path="url(#clip0_8821_17034)">
<path d="M18.5 0.194168C10.8509 1.39437 5 8.01391 5 16C5 23.9861 10.8509 30.6056 18.5 31.8058C26.1491 30.6056 32 23.9861 32 16C32 8.01392 26.1491 1.39437 18.5 0.194168Z" fill="url(#paint0_linear_8821_17034)"/>
<path d="M18.5 0.194168C17.6854 0.066359 16.8504 0 16 0C7.16344 0 0 7.16344 0 16C0 24.8366 7.16344 32 16 32C20.4183 32 24.4183 30.2091 27.3137 27.3137C24.9756 29.6518 21.9172 31.2696 18.5 31.8058C10.8509 30.6056 5 23.9861 5 16C5 8.01391 10.8509 1.39437 18.5 0.194168Z" fill="url(#paint1_radial_8821_17034)"/>
<path d="M26.5505 12.9183C26.1423 12.7906 25.7105 12.7572 25.2875 12.8206H25.3188C23.8625 13.1706 22.9375 15.0206 22.6125 16.0269C21.198 20.4347 23.4819 20.0914 23.8689 20.0332C23.894 20.0294 23.9111 20.0269 23.9188 20.0269L24.875 16.9706C24.8953 16.8946 24.8998 16.8152 24.8882 16.7374C24.8766 16.6596 24.8492 16.585 24.8076 16.5182C24.766 16.4514 24.7111 16.3938 24.6464 16.3491C24.5817 16.3044 24.5084 16.2734 24.4313 16.2581H27.7687C27.5889 16.3104 27.4255 16.4079 27.2942 16.5414C27.1629 16.6749 27.068 16.8399 27.0188 17.0206L26.0563 20.0706C26.0515 20.0729 26.0451 20.076 26.037 20.08C25.7576 20.2174 23.5097 21.3227 21.4625 20.3144C19.5 19.3456 19.8813 15.7206 21.4313 13.9519C23.8748 11.1557 27.3116 12.22 27.9525 12.4185C27.9706 12.4241 27.9865 12.429 28 12.4331L27.6438 13.5581C27.3324 13.2648 26.9586 13.0461 26.5505 12.9183Z" fill="white"/>
<path fill-rule="evenodd" clip-rule="evenodd" d="M16.4562 15.1456C17.4062 12.8019 15.625 12.1644 14.4687 12.1644H10.6312C10.7428 12.2332 10.8253 12.3405 10.8633 12.466C10.9013 12.5914 10.8921 12.7264 10.8375 12.8456L8.625 19.9893C8.5681 20.1301 8.48344 20.258 8.37607 20.3654C8.26869 20.4728 8.14079 20.5575 8 20.6143H11.125C11.0612 20.5966 11.0018 20.566 10.9502 20.5245C10.8986 20.4831 10.8561 20.4315 10.8251 20.373C10.7941 20.3145 10.7753 20.2504 10.7699 20.1844C10.7646 20.1184 10.7727 20.0521 10.7937 19.9893L11.6062 17.4081C11.6062 17.4081 15.3562 17.9081 16.475 15.1144L16.4562 15.1456ZM13.4375 12.8081C13.8437 12.8081 14.9687 12.8644 14.2437 14.9956C13.4812 17.2269 11.7937 16.7706 11.7937 16.7706L13.0437 12.8081H13.4375Z" fill="white"/>
<path fill-rule="evenodd" clip-rule="evenodd" d="M18.9625 20.5956H21.05C20.2829 20.3141 19.5842 19.8731 19 19.3019C19.4483 18.8623 19.7177 18.2722 19.7562 17.6456H18.675C18.7378 17.6861 18.7895 17.7415 18.8256 17.807C18.8616 17.8725 18.8807 17.9459 18.8812 18.0206C18.8784 18.3031 18.7889 18.578 18.625 18.8081C18.2214 18.2843 17.9492 17.6713 17.8312 17.0206C18.3662 16.8013 18.8704 16.5135 19.3312 16.1644C19.4891 16.043 19.6193 15.8893 19.713 15.7137C19.8068 15.538 19.862 15.3443 19.875 15.1456C19.8745 15.0211 19.8495 14.8979 19.8012 14.7831C19.7529 14.6684 19.6824 14.5643 19.5937 14.4769C19.4168 14.3172 19.204 14.2026 18.9733 14.1427C18.7427 14.0829 18.501 14.0796 18.2687 14.1331C17.9159 14.2017 17.5879 14.3636 17.3187 14.6019C16.8247 15.1501 16.5664 15.8709 16.6 16.6081C16.5953 16.6872 16.5953 16.7665 16.6 16.8456L16.5 16.8831C16.4552 16.8994 16.4032 16.9173 16.3454 16.9372C15.8064 17.1224 14.7639 17.4806 14.3687 18.3894C14.2872 18.6136 14.247 18.8508 14.25 19.0894C14.2467 19.3954 14.329 19.6963 14.4875 19.9581C14.6703 20.2284 14.9236 20.4436 15.22 20.5802C15.5163 20.7168 15.8445 20.7697 16.1687 20.7331C16.8848 20.6666 17.5694 20.4074 18.15 19.9831C18.3882 20.2178 18.65 20.4272 18.9312 20.6081L18.9625 20.5956ZM17.7125 19.5206C17.3865 19.7132 17.0252 19.8386 16.65 19.8894C16.5059 19.9207 16.3565 19.9182 16.2136 19.8818C16.0707 19.8455 15.9382 19.7764 15.8266 19.6799C15.715 19.5835 15.6274 19.4625 15.5707 19.3263C15.514 19.1902 15.4898 19.0427 15.5 18.8956C15.5 18.1706 16.2875 17.6456 16.7125 17.4644C16.9122 18.207 17.2516 18.9049 17.7125 19.5206ZM18.9625 14.9706C18.7561 15.5911 18.3261 16.1124 17.7562 16.4331C17.6923 15.9199 17.7976 15.3998 18.0562 14.9519C18.2687 14.6269 18.55 14.4831 18.775 14.5581C18.9975 14.6323 18.9816 14.786 18.9631 14.9647L18.9625 14.9706Z" fill="white"/>
</g>
<defs>
<linearGradient id="paint0_linear_8821_17034" x1="18.963" y1="-0.196538" x2="18.963" y2="32.1966" gradientUnits="userSpaceOnUse">
<stop stop-color="#0093D7"/>
<stop offset="1" stop-color="#002A78"/>
</linearGradient>
<radialGradient id="paint1_radial_8821_17034" cx="0" cy="0" r="1" gradientUnits="userSpaceOnUse" gradientTransform="translate(9.23499 8) rotate(72.4777) scale(23.5948 14.0808)">
<stop stop-color="#D8F1FC"/>
<stop offset="1" stop-color="#0098DA"/>
</radialGradient>
<clipPath id="clip0_8821_17034">
<rect width="32" height="32" fill="white"/>
</clipPath>
</defs>
</svg>
