<svg width="32" height="32" viewBox="0 0 32 32" fill="none" xmlns="http://www.w3.org/2000/svg">
<g clip-path="url(#clip0_17199_3273)">
<circle cx="16" cy="16" r="16" fill="black"/>
<g clip-path="url(#clip1_17199_3273)">
<path fill-rule="evenodd" clip-rule="evenodd" d="M22.9106 13.4139C22.9106 17.4887 19.6231 20.8282 15.6142 20.8282C11.6052 20.8282 8.31771 17.4877 8.31771 13.4139C8.31771 9.34049 11.6052 6 15.6142 6C19.6231 6 22.9106 9.34049 22.9106 13.4139ZM20.6658 13.4139C20.6658 10.5626 18.4201 8.28103 15.6142 8.28103C12.8071 8.28103 10.5625 10.5626 10.5625 13.4139C10.5625 16.2657 12.8071 18.5472 15.6142 18.5472C18.3405 18.5472 20.5853 16.2657 20.6658 13.4139ZM22.1082 20.177L23.2315 22.2138L15.6142 25.4724L7.99677 22.2138L9.11915 20.177L15.6142 23.0278L22.1082 20.177Z" fill="#F6F7F8"/>
</g>
</g>
<defs>
<clipPath id="clip0_17199_3273">
<rect width="32" height="32" fill="white"/>
</clipPath>
<clipPath id="clip1_17199_3273">
<rect width="15.2408" height="19.4724" fill="white" transform="translate(8 6)"/>
</clipPath>
</defs>
</svg>
