<svg width="32" height="32" viewBox="0 0 32 32" fill="none" xmlns="http://www.w3.org/2000/svg">
<g clip-path="url(#clip0_8821_17037)">
<path d="M32 16C32 24.8366 24.8366 32 16 32C7.16344 32 0 24.8366 0 16C0 7.16344 7.16344 0 16 0C24.8366 0 32 7.16344 32 16Z" fill="#F6F7F8"/>
<path d="M32 16C32 24.8366 24.8366 32 16 32C7.16344 32 0 24.8366 0 16C0 7.16344 7.16344 0 16 0C24.8366 0 32 7.16344 32 16Z" fill="url(#paint0_linear_8821_17037)"/>
<path d="M22.4312 7.50787C23.2727 8.46695 23.5184 9.52543 23.2744 11.0814C23.0675 10.9717 22.8425 10.8772 22.6011 10.797C22.5406 10.777 22.4793 10.7577 22.4167 10.7396C22.2919 10.7029 22.1627 10.6701 22.0299 10.6405C21.8969 10.611 21.76 10.5849 21.6194 10.5623C21.1274 10.4831 20.5892 10.4452 20.0119 10.4452H15.1393C15.0198 10.4452 14.9055 10.4725 14.8034 10.5214C14.5787 10.6289 14.4117 10.842 14.3707 11.102L12.3711 23.781H8.5336C8.20603 23.781 7.95567 23.4882 8.0066 23.1643L10.5952 6.75088C10.6632 6.3184 11.036 6 11.4736 6H17.6896C19.831 6 21.5047 6.45224 22.4312 7.50787Z" fill="white"/>
<path d="M23.2744 11.0814C23.2558 11.1999 23.2353 11.3207 23.2108 11.445C22.3915 15.6537 19.5866 17.109 16.0045 17.109H14.1805C13.7427 17.109 13.3734 17.4276 13.3051 17.8599L13.3351 17.6682L12.1063 25.4605C12.0617 25.7439 12.2805 26 12.5673 26H15.8021C16.1848 26 16.5108 25.7215 16.5705 25.3432L16.6022 25.1786L17.2115 21.3146L17.2508 21.1011C17.3105 20.723 17.6365 20.4441 18.0192 20.4441H18.5031C21.6368 20.4441 24.0905 19.1712 24.8073 15.4893C25.107 13.9508 24.952 12.6666 24.1597 11.7638C23.9204 11.4912 23.6221 11.2655 23.2744 11.0814Z" fill="#AED3EA"/>
<path d="M23.2744 11.0814C23.2744 11.0814 23.2744 11.0814 23.2744 11.0814C23.2558 11.1999 23.2353 11.3207 23.2108 11.445C22.3915 15.6537 19.5866 17.109 16.0045 17.109H14.1805C13.7427 17.109 13.3734 17.4276 13.3051 17.8599L13.3351 17.6682L14.3707 11.102C14.4117 10.842 14.5787 10.6289 14.8034 10.5214C14.9055 10.4725 15.0198 10.4452 15.1393 10.4452H20.0119C20.5892 10.4452 21.1274 10.4831 21.6194 10.5623C21.76 10.5849 21.8969 10.611 22.0299 10.6405C22.1627 10.6701 22.2919 10.7029 22.4167 10.7396C22.4793 10.7577 22.5406 10.777 22.6011 10.797C22.8425 10.8772 23.0675 10.9717 23.2744 11.0814Z" fill="#E7F1F8"/>
</g>
<defs>
<linearGradient id="paint0_linear_8821_17037" x1="32" y1="9.53674e-07" x2="-9.53674e-07" y2="32" gradientUnits="userSpaceOnUse">
<stop stop-color="#004090"/>
<stop offset="1" stop-color="#009EDF"/>
</linearGradient>
<clipPath id="clip0_8821_17037">
<rect width="32" height="32" fill="white"/>
</clipPath>
</defs>
</svg>
