<svg width="32" height="32" viewBox="0 0 32 32" fill="none" xmlns="http://www.w3.org/2000/svg">
<path fill-rule="evenodd" clip-rule="evenodd" d="M29 16C30.6569 16 32 14.6569 32 13C32 11.3431 30.6569 10 29 10C27.3431 10 26 11.3431 26 13C26 13.4631 26.1049 13.9018 26.2924 14.2934L18.5 22.0858L14 17.5858L9.49995 22.0858L4.99995 17.5858L0 22.5858V25.4142L4.99995 20.4142L9.49995 24.9142L14 20.4142L18.5 24.9142L27.7066 15.7076C28.0982 15.895 28.5368 16 29 16ZM29 14C29.5523 14 30 13.5523 30 13C30 12.4477 29.5523 12 29 12C28.4477 12 28 12.4477 28 13C28 13.5523 28.4477 14 29 14Z" fill="#0AA0B0"/>
<path d="M22.0172 14H0V12H24L22.0172 14Z" fill="#0AA0B0"/>
<path d="M24 32H3.05176e-05V30H24V32Z" fill="#0AA0B0"/>
<path d="M21.793 23.2072L23.593 25.0072L25.0072 23.593L23.2072 21.793L21.793 23.2072Z" fill="#FF444F"/>
<path fill-rule="evenodd" clip-rule="evenodd" d="M26.2925 27.7067L24.493 25.9072L25.9072 24.493L27.7067 26.2925C28.0983 26.105 28.537 26.0001 29.0001 26.0001C30.657 26.0001 32.0001 27.3432 32.0001 29.0001C32.0001 30.6569 30.657 32.0001 29.0001 32.0001C27.3433 32.0001 26.0001 30.6569 26.0001 29.0001C26.0001 28.5369 26.1051 28.0983 26.2925 27.7067ZM30.0001 29.0001C30.0001 29.5524 29.5524 30.0001 29.0001 30.0001C28.4478 30.0001 28.0001 29.5524 28.0001 29.0001C28.0001 28.4478 28.4478 28.0001 29.0001 28.0001C29.5524 28.0001 30.0001 28.4478 30.0001 29.0001Z" fill="#FF444F"/>
<path d="M9.50156 7.08001C9.82156 7.08001 10.0429 6.96267 10.1656 6.72801C10.2882 6.49334 10.3496 6.16267 10.3496 5.73601V4.68001C10.3496 4.25334 10.2882 3.92267 10.1656 3.68801C10.0429 3.45334 9.82156 3.33601 9.50156 3.33601C9.18156 3.33601 8.96023 3.45334 8.83756 3.68801C8.71489 3.92267 8.65356 4.25334 8.65356 4.68001V5.73601C8.65356 6.16267 8.71489 6.49334 8.83756 6.72801C8.96023 6.96267 9.18156 7.08001 9.50156 7.08001Z" fill="#414652"/>
<path d="M14.9624 6.72801C14.8398 6.96267 14.6184 7.08001 14.2984 7.08001C13.9784 7.08001 13.7571 6.96267 13.6344 6.72801C13.5118 6.49334 13.4504 6.16267 13.4504 5.73601V4.68001C13.4504 4.25334 13.5118 3.92267 13.6344 3.68801C13.7571 3.45334 13.9784 3.33601 14.2984 3.33601C14.6184 3.33601 14.8398 3.45334 14.9624 3.68801C15.0851 3.92267 15.1464 4.25334 15.1464 4.68001V5.73601C15.1464 6.16267 15.0851 6.49334 14.9624 6.72801Z" fill="#414652"/>
<path fill-rule="evenodd" clip-rule="evenodd" d="M2 0C0.895431 0 0 0.89543 0 2V8C0 9.10457 0.895431 10 2 10H17C18.1046 10 19 9.10457 19 8V2C19 0.895431 18.1046 0 17 0H2ZM6.71269 8.00001H2.76069V6.90401L4.48069 5.43201C4.63535 5.29867 4.76602 5.17867 4.87269 5.07201C4.97935 4.96001 5.06469 4.85334 5.12869 4.75201C5.19802 4.64534 5.24602 4.54134 5.27269 4.44001C5.30469 4.33867 5.32069 4.22934 5.32069 4.11201V4.00001C5.32069 3.89334 5.29935 3.80001 5.25669 3.72001C5.21402 3.64001 5.15802 3.57334 5.08869 3.52001C5.01935 3.46667 4.93935 3.42667 4.84869 3.40001C4.76335 3.37334 4.67535 3.36001 4.58469 3.36001C4.45135 3.36001 4.33402 3.38134 4.23269 3.42401C4.13669 3.46667 4.05135 3.52534 3.97669 3.60001C3.90735 3.66934 3.84869 3.75201 3.80069 3.84801C3.75269 3.93867 3.71535 4.03734 3.68869 4.14401L2.64069 3.74401C2.70469 3.55201 2.79269 3.37067 2.90469 3.20001C3.01669 3.02401 3.15535 2.87201 3.32069 2.74401C3.49135 2.61067 3.69135 2.50667 3.92069 2.43201C4.15002 2.35734 4.40869 2.32001 4.69669 2.32001C5.00069 2.32001 5.27002 2.36267 5.50469 2.44801C5.73935 2.53334 5.93669 2.65067 6.09669 2.80001C6.26202 2.94934 6.38735 3.12801 6.47269 3.33601C6.55802 3.53867 6.60069 3.76001 6.60069 4.00001C6.60069 4.24001 6.56069 4.45867 6.48069 4.65601C6.40069 4.85334 6.29135 5.04001 6.15269 5.21601C6.01935 5.38667 5.86202 5.54934 5.68069 5.70401C5.49935 5.85867 5.31002 6.01601 5.11269 6.17601L4.07269 6.99201H6.71269V8.00001ZM9.50156 8.09601C8.7709 8.09601 8.22956 7.84267 7.87756 7.33601C7.52556 6.82934 7.34956 6.12001 7.34956 5.20801C7.34956 4.29601 7.52556 3.58667 7.87756 3.08001C8.22956 2.57334 8.7709 2.32001 9.50156 2.32001C10.2322 2.32001 10.7736 2.57334 11.1256 3.08001C11.4776 3.58667 11.6536 4.29601 11.6536 5.20801C11.6536 6.12001 11.4776 6.82934 11.1256 7.33601C10.7736 7.84267 10.2322 8.09601 9.50156 8.09601ZM12.6744 7.33601C13.0264 7.84267 13.5678 8.09601 14.2984 8.09601C15.0291 8.09601 15.5704 7.84267 15.9224 7.33601C16.2744 6.82934 16.4504 6.12001 16.4504 5.20801C16.4504 4.29601 16.2744 3.58667 15.9224 3.08001C15.5704 2.57334 15.0291 2.32001 14.2984 2.32001C13.5678 2.32001 13.0264 2.57334 12.6744 3.08001C12.3224 3.58667 12.1464 4.29601 12.1464 5.20801C12.1464 6.12001 12.3224 6.82934 12.6744 7.33601Z" fill="#414652"/>
<path d="M6.71269 8.00001H2.76069V6.90401L4.48069 5.43201C4.63535 5.29867 4.76602 5.17867 4.87269 5.07201C4.97935 4.96001 5.06469 4.85334 5.12869 4.75201C5.19802 4.64534 5.24602 4.54134 5.27269 4.44001C5.30469 4.33867 5.32069 4.22934 5.32069 4.11201V4.00001C5.32069 3.89334 5.29935 3.80001 5.25669 3.72001C5.21402 3.64001 5.15802 3.57334 5.08869 3.52001C5.01935 3.46667 4.93935 3.42667 4.84869 3.40001C4.76335 3.37334 4.67535 3.36001 4.58469 3.36001C4.45135 3.36001 4.33402 3.38134 4.23269 3.42401C4.13669 3.46667 4.05135 3.52534 3.97669 3.60001C3.90735 3.66934 3.84869 3.75201 3.80069 3.84801C3.75269 3.93867 3.71535 4.03734 3.68869 4.14401L2.64069 3.74401C2.70469 3.55201 2.79269 3.37067 2.90469 3.20001C3.01669 3.02401 3.15535 2.87201 3.32069 2.74401C3.49135 2.61067 3.69135 2.50667 3.92069 2.43201C4.15002 2.35734 4.40869 2.32001 4.69669 2.32001C5.00069 2.32001 5.27002 2.36267 5.50469 2.44801C5.73935 2.53334 5.93669 2.65067 6.09669 2.80001C6.26202 2.94934 6.38735 3.12801 6.47269 3.33601C6.55802 3.53867 6.60069 3.76001 6.60069 4.00001C6.60069 4.24001 6.56069 4.45867 6.48069 4.65601C6.40069 4.85334 6.29135 5.04001 6.15269 5.21601C6.01935 5.38667 5.86202 5.54934 5.68069 5.70401C5.49935 5.85867 5.31002 6.01601 5.11269 6.17601L4.07269 6.99201H6.71269V8.00001Z" fill="white"/>
<path d="M9.50156 8.09601C8.7709 8.09601 8.22956 7.84267 7.87756 7.33601C7.52556 6.82934 7.34956 6.12001 7.34956 5.20801C7.34956 4.29601 7.52556 3.58667 7.87756 3.08001C8.22956 2.57334 8.7709 2.32001 9.50156 2.32001C10.2322 2.32001 10.7736 2.57334 11.1256 3.08001C11.4776 3.58667 11.6536 4.29601 11.6536 5.20801C11.6536 6.12001 11.4776 6.82934 11.1256 7.33601C10.7736 7.84267 10.2322 8.09601 9.50156 8.09601ZM9.50156 7.08001C9.82156 7.08001 10.0429 6.96267 10.1656 6.72801C10.2882 6.49334 10.3496 6.16267 10.3496 5.73601V4.68001C10.3496 4.25334 10.2882 3.92267 10.1656 3.68801C10.0429 3.45334 9.82156 3.33601 9.50156 3.33601C9.18156 3.33601 8.96023 3.45334 8.83756 3.68801C8.71489 3.92267 8.65356 4.25334 8.65356 4.68001V5.73601C8.65356 6.16267 8.71489 6.49334 8.83756 6.72801C8.96023 6.96267 9.18156 7.08001 9.50156 7.08001Z" fill="white"/>
<path d="M14.2984 8.09601C13.5678 8.09601 13.0264 7.84267 12.6744 7.33601C12.3224 6.82934 12.1464 6.12001 12.1464 5.20801C12.1464 4.29601 12.3224 3.58667 12.6744 3.08001C13.0264 2.57334 13.5678 2.32001 14.2984 2.32001C15.0291 2.32001 15.5704 2.57334 15.9224 3.08001C16.2744 3.58667 16.4504 4.29601 16.4504 5.20801C16.4504 6.12001 16.2744 6.82934 15.9224 7.33601C15.5704 7.84267 15.0291 8.09601 14.2984 8.09601ZM14.2984 7.08001C14.6184 7.08001 14.8398 6.96267 14.9624 6.72801C15.0851 6.49334 15.1464 6.16267 15.1464 5.73601V4.68001C15.1464 4.25334 15.0851 3.92267 14.9624 3.68801C14.8398 3.45334 14.6184 3.33601 14.2984 3.33601C13.9784 3.33601 13.7571 3.45334 13.6344 3.68801C13.5118 3.92267 13.4504 4.25334 13.4504 4.68001V5.73601C13.4504 6.16267 13.5118 6.49334 13.6344 6.72801C13.7571 6.96267 13.9784 7.08001 14.2984 7.08001Z" fill="white"/>
</svg>
