<svg width="32" height="32" viewBox="0 0 32 32" fill="none" xmlns="http://www.w3.org/2000/svg">
<g clip-path="url(#clip0_8821_16660)">
<path d="M32 8C32 12.4183 28.4183 16 24 16C19.5817 16 16 12.4183 16 8C16 3.58172 19.5817 0 24 0C28.4183 0 32 3.58172 32 8Z" fill="#414652"/>
<path d="M28.1013 4.08209C29.4242 4.4747 29.3184 6.49385 27.5721 6.99864H27.5191L27.8896 8.12039L28.4717 9.91519C27.9954 11.3735 26.1432 11.8222 26.1432 11.8222L25.7199 12.5513C25.5611 12.8317 25.2965 13 24.979 13H23.0739C22.7564 13 22.4918 12.8317 22.333 12.6074L21.9097 11.8783C21.9097 11.8783 20.0575 11.3735 19.5812 9.97128L20.1633 8.17648L20.5338 7.05473L20.4279 6.99864C18.6816 6.49385 18.5758 4.4747 19.8987 4.08209C20.9571 3.74556 21.2747 4.53079 21.3805 4.86731L22.333 4.58688C22.8622 4.41861 23.4443 4.36253 24.0265 4.36253C24.6086 4.36253 25.1907 4.41861 25.7199 4.58688L26.6195 4.86731C26.6724 4.53079 27.0429 3.74556 28.1013 4.08209Z" fill="white"/>
<path d="M32 32H24V30H28.5857L19 20.4142L14 25.4142L0 11.4143V8.58583L14 22.5858L19 17.5858L30 28.5858V24H32V32Z" fill="#FF444F"/>
</g>
<defs>
<clipPath id="clip0_8821_16660">
<rect width="32" height="32" fill="white"/>
</clipPath>
</defs>
</svg>
