<svg width="32" height="32" viewBox="0 0 32 32" fill="none" xmlns="http://www.w3.org/2000/svg">
<g clip-path="url(#clip0_8821_16663)">
<path d="M32 24C32 28.4183 28.4183 32 24 32C19.5817 32 16 28.4183 16 24C16 19.5817 19.5817 16 24 16C28.4183 16 32 19.5817 32 24Z" fill="#414652"/>
<path d="M27.9721 19.5555C27.9721 19.5555 29.1704 22.1233 26.6597 22.2945L26.4885 21.895C26.3173 21.5527 25.9179 21.3244 25.5755 21.4385L24.0349 21.838H23.9778L22.4943 21.4956C22.0948 21.3815 21.6954 21.6097 21.5242 21.9521L21.3531 22.2945C18.8424 22.1233 20.0407 19.5555 20.0407 19.5555C16.7311 22.4656 20.4401 23.778 20.4401 23.778L20.8966 23.2645L20.2118 24.8051L21.3531 25.1475L22.0378 27.0305C22.1519 27.4299 22.209 27.8293 22.1519 28.2288L22.0948 28.6852L23.3502 29.8265H24.7196L25.975 28.6852L25.9179 28.1717C25.8608 27.7723 25.9179 27.3728 26.032 26.9734L26.6597 25.1475L27.8009 24.8051L27.0591 23.2645L27.5156 23.778C27.5156 23.778 31.2816 22.4656 27.9721 19.5555Z" fill="white"/>
<path d="M32 0H24V2H28.5857L19 11.5858L14 6.58579L0 20.5857V23.4142L14 9.41421L19 14.4142L30 3.41421V8H32V0Z" fill="#0AA0B0"/>
</g>
<defs>
<clipPath id="clip0_8821_16663">
<rect width="32" height="32" fill="white"/>
</clipPath>
</defs>
</svg>
