<svg width="32" height="32" viewBox="0 0 32 32" fill="none" xmlns="http://www.w3.org/2000/svg">
<g clip-path="url(#clip0_17199_3270)">
<circle cx="16" cy="16" r="16" fill="black"/>
<path d="M26.5879 15.2119C25.432 14.021 19.0923 7.50613 17.9364 6.56042C17.5161 6.24518 16.9907 6 16.3252 6C15.6597 6 15.1343 6.24518 14.714 6.56042C13.5231 7.50613 7.21838 14.021 6.02748 15.2119C5.95743 15.317 6.02748 15.4921 6.16759 15.4921H8.89964C9.17985 15.4921 9.28493 15.4571 9.46006 15.2469C9.63519 15.0368 10.5459 14.0911 10.5459 14.0911C11.7017 12.8651 14.4688 10.1331 15.4846 9.29247C15.8699 8.97723 16.2902 8.97723 16.2902 8.97723C16.2902 8.97723 16.7455 8.97723 17.0958 9.29247C18.1466 10.1681 20.9487 12.8651 22.0695 14.0911C22.0695 14.0911 22.9802 15.0718 23.1553 15.2469C23.3305 15.4571 23.4355 15.4921 23.7157 15.4921H26.4478C26.5879 15.4921 26.693 15.317 26.5879 15.2119ZM6.02748 16.7881C7.18335 17.979 13.5231 24.4939 14.679 25.4396C15.0993 25.7548 15.6247 26 16.2902 26C16.9557 26 17.4811 25.7548 17.9014 25.4396C19.0923 24.4939 25.397 17.979 26.5529 16.7881C26.658 16.683 26.5529 16.5079 26.4128 16.5079H23.6807C23.4005 16.5079 23.2954 16.5429 23.1203 16.7531C22.9452 16.9632 22.0345 17.9089 22.0345 17.9089C20.8786 19.1349 18.1115 21.8669 17.0958 22.7075C16.7105 23.0228 16.2902 23.0228 16.2902 23.0228C16.2902 23.0228 15.8348 23.0228 15.4846 22.7075C14.4688 21.8669 11.6667 19.1349 10.5459 17.9089C10.5459 17.9089 9.63519 16.9282 9.46006 16.7531C9.28493 16.5429 9.17985 16.5079 8.89964 16.5079H6.16759C6.02748 16.4729 5.95743 16.648 6.02748 16.7881ZM15.5546 18.1541C15.0292 17.6637 14.1186 16.7881 13.7683 16.4028C13.6282 16.2277 13.6282 16.0175 13.6282 16.0175C13.6282 16.0175 13.6282 15.8074 13.7683 15.6322C14.1186 15.2469 15.0292 14.3363 15.5546 13.8809C15.7648 13.6708 15.8348 13.5657 15.8348 13.3205V10.6235C15.8348 10.5184 15.6947 10.4483 15.6247 10.5534C14.4688 11.6392 11.8769 14.1961 11.0012 15.1769C10.5809 15.6322 10.6159 16.0525 10.6159 16.0525C10.6159 16.0525 10.5809 16.5079 11.0012 16.9282C11.8769 17.9089 14.4688 20.5009 15.6247 21.5517C15.7298 21.6567 15.8348 21.5867 15.8348 21.4466V18.7496C15.7998 18.4694 15.7648 18.3643 15.5546 18.1541ZM17.0608 18.1541C17.5862 17.6637 18.4968 16.7881 18.8471 16.4028C18.9872 16.2277 18.9872 16.0175 18.9872 16.0175C18.9872 16.0175 18.9872 15.8074 18.8471 15.6322C18.4968 15.2469 17.5862 14.3363 17.0608 13.8809C16.8506 13.6708 16.7805 13.5657 16.7805 13.3205V10.6235C16.7805 10.4834 16.8856 10.4483 16.9907 10.5184C18.1466 11.6042 20.7385 14.1611 21.6142 15.1419C22.0345 15.5972 21.9995 16.0175 21.9995 16.0175C21.9995 16.0175 22.0345 16.4729 21.6142 16.8932C20.7385 17.8739 18.1466 20.4658 16.9907 21.5166C16.8856 21.6217 16.7805 21.5517 16.7805 21.4116V18.7145C16.8156 18.4694 16.8506 18.3643 17.0608 18.1541Z" fill="#FFAC00"/>
</g>
<defs>
<clipPath id="clip0_17199_3270">
<rect width="32" height="32" fill="white"/>
</clipPath>
</defs>
</svg>
