<svg width="32" height="32" viewBox="0 0 32 32" fill="none" xmlns="http://www.w3.org/2000/svg">
<g clip-path="url(#clip0_14267_24957)">
<path d="M32 0H24V2H28.5857L19 11.5858L14 6.58579L0 20.5857V23.4142L14 9.41421L19 14.4142L30 3.41421V8H32V0Z" fill="#19790A"/>
<path d="M12.8218 25.5713C12.8218 24.6876 13.5382 23.9713 14.4218 23.9713H30.4218C31.3055 23.9713 32.0218 24.6876 32.0218 25.5713V30.3713C32.0218 31.2549 31.3055 31.9713 30.4218 31.9713H14.4218C13.5382 31.9713 12.8218 31.2549 12.8218 30.3713V25.5713Z" fill="#19790A"/>
<path d="M27.0293 26.4162C26.6165 26.4162 26.3174 26.5317 26.1318 26.7626C25.9501 26.9898 25.8592 27.3023 25.8592 27.6999C25.8592 27.893 25.8819 28.0691 25.9273 28.2281C25.9728 28.3834 26.0409 28.5178 26.1318 28.6314C26.2227 28.745 26.3363 28.834 26.4726 28.8984C26.609 28.959 26.768 28.9893 26.9498 28.9893C27.0482 28.9893 27.1315 28.9874 27.1997 28.9836C27.2716 28.9798 27.3341 28.9722 27.3871 28.9609V27.5919H28.2732V29.5402C28.1672 29.5819 27.9968 29.6254 27.762 29.6709C27.5272 29.7201 27.2376 29.7447 26.893 29.7447C26.5976 29.7447 26.3287 29.6993 26.0864 29.6084C25.8478 29.5175 25.6433 29.385 25.4729 29.2108C25.3025 29.0366 25.17 28.8226 25.0753 28.5689C24.9844 28.3152 24.939 28.0255 24.939 27.6999C24.939 27.3704 24.9901 27.0788 25.0924 26.8251C25.1946 26.5714 25.3347 26.3575 25.5127 26.1833C25.6907 26.0053 25.8989 25.8709 26.1375 25.78C26.3799 25.6891 26.6374 25.6437 26.91 25.6437C27.0956 25.6437 27.2622 25.6569 27.4099 25.6834C27.5613 25.7061 27.6901 25.7345 27.7961 25.7686C27.9059 25.7989 27.9949 25.8311 28.0631 25.8652C28.135 25.8993 28.1861 25.9258 28.2164 25.9447L27.9608 26.6547C27.8397 26.5903 27.6995 26.5354 27.5405 26.49C27.3852 26.4408 27.2148 26.4162 27.0293 26.4162Z" fill="white"/>
<path d="M23.7955 29.6709C23.7539 29.5346 23.7065 29.3944 23.6535 29.2505C23.6043 29.1066 23.5551 28.9628 23.5058 28.8189H21.9722C21.923 28.9628 21.8718 29.1066 21.8188 29.2505C21.7696 29.3944 21.7242 29.5346 21.6825 29.6709H20.7623C20.91 29.2468 21.0501 28.8548 21.1826 28.4951C21.3152 28.1353 21.4439 27.7964 21.5689 27.4783C21.6976 27.1603 21.8226 26.8592 21.9438 26.5752C22.0687 26.2874 22.1975 26.0072 22.33 25.7345H23.1764C23.3051 26.0072 23.432 26.2874 23.5569 26.5752C23.6819 26.8592 23.8069 27.1603 23.9318 27.4783C24.0606 27.7964 24.1912 28.1353 24.3238 28.4951C24.4563 28.8548 24.5964 29.2468 24.7441 29.6709H23.7955ZM22.7333 26.6263C22.7144 26.6831 22.686 26.7608 22.6481 26.8592C22.6103 26.9577 22.5667 27.0713 22.5175 27.2C22.4683 27.3288 22.4133 27.4708 22.3528 27.626C22.296 27.7813 22.2373 27.9441 22.1767 28.1145H23.2957C23.2351 27.9441 23.1764 27.7813 23.1196 27.626C23.0628 27.4708 23.0079 27.3288 22.9549 27.2C22.9056 27.0713 22.8621 26.9577 22.8242 26.8592C22.7863 26.7608 22.756 26.6831 22.7333 26.6263Z" fill="white"/>
<path d="M19.3824 29.6709C19.2726 29.4512 19.1514 29.2297 19.0189 29.0063C18.8901 28.7791 18.7405 28.5481 18.5701 28.3133C18.5171 28.3815 18.449 28.4762 18.3657 28.5973C18.2861 28.7185 18.2047 28.8473 18.1214 28.9836C18.0419 29.1199 17.9662 29.2505 17.8942 29.3755C17.8223 29.5005 17.7692 29.5989 17.7352 29.6709H16.7241C16.8907 29.3641 17.0838 29.0423 17.3035 28.7053C17.5269 28.3682 17.7749 28.0104 18.0476 27.6317L16.7809 25.7345H17.8544L18.6213 26.9614L19.371 25.7345H20.3821L19.1325 27.6431C19.4506 28.0558 19.7175 28.4383 19.9334 28.7905C20.1492 29.1388 20.3196 29.4323 20.4446 29.6709H19.3824Z" fill="white"/>
</g>
<defs>
<clipPath id="clip0_14267_24957">
<rect width="32" height="32" fill="white"/>
</clipPath>
</defs>
</svg>
