<svg width="32" height="32" viewBox="0 0 32 32" fill="none" xmlns="http://www.w3.org/2000/svg">
<path d="M0 1.6C0 0.716344 0.716344 0 1.6 0H17.6C18.4837 0 19.2 0.716344 19.2 1.6V6.4C19.2 7.28366 18.4837 8 17.6 8H1.6C0.716344 8 0 7.28366 0 6.4V1.6Z" fill="#1557BD"/>
<path d="M14.2073 2.44492C13.7946 2.44492 13.4954 2.56042 13.3099 2.79141C13.1281 3.01861 13.0372 3.33102 13.0372 3.72863C13.0372 3.92175 13.06 4.09784 13.1054 4.25688C13.1508 4.41214 13.219 4.54657 13.3099 4.66017C13.4008 4.77378 13.5144 4.86276 13.6507 4.92714C13.787 4.98773 13.9461 5.01802 14.1278 5.01802C14.2263 5.01802 14.3096 5.01613 14.3777 5.01234C14.4497 5.00855 14.5122 5.00098 14.5652 4.98962V3.62071H15.4513V5.56899C15.3453 5.61065 15.1749 5.6542 14.9401 5.69964C14.7053 5.74887 14.4156 5.77348 14.071 5.77348C13.7756 5.77348 13.5068 5.72804 13.2644 5.63716C13.0259 5.54627 12.8214 5.41374 12.651 5.23955C12.4806 5.06536 12.348 4.8514 12.2534 4.59769C12.1625 4.34398 12.117 4.05429 12.117 3.72863C12.117 3.39918 12.1682 3.1076 12.2704 2.85389C12.3727 2.60018 12.5128 2.38623 12.6907 2.21203C12.8687 2.03406 13.077 1.89963 13.3156 1.80874C13.5579 1.71786 13.8154 1.67242 14.0881 1.67242C14.2736 1.67242 14.4402 1.68567 14.5879 1.71218C14.7394 1.7349 14.8681 1.7633 14.9742 1.79738C15.084 1.82768 15.173 1.85987 15.2411 1.89395C15.3131 1.92803 15.3642 1.95453 15.3945 1.97347L15.1389 2.68349C15.0177 2.61911 14.8776 2.5642 14.7186 2.51876C14.5633 2.46953 14.3929 2.44492 14.2073 2.44492Z" fill="white"/>
<path d="M10.9736 5.69964C10.9319 5.56331 10.8846 5.4232 10.8316 5.27931C10.7823 5.13541 10.7331 4.99151 10.6839 4.84762H9.15024C9.10101 4.99151 9.04989 5.13541 8.99687 5.27931C8.94765 5.4232 8.90221 5.56331 8.86055 5.69964H7.94037C8.08805 5.27552 8.22816 4.88359 8.3607 4.52385C8.49324 4.16411 8.62199 3.82519 8.74695 3.5071C8.8757 3.18902 9.00066 2.88797 9.12184 2.60396C9.2468 2.31617 9.37555 2.03595 9.50809 1.7633H10.3544C10.4832 2.03595 10.61 2.31617 10.735 2.60396C10.86 2.88797 10.9849 3.18902 11.1099 3.5071C11.2386 3.82519 11.3693 4.16411 11.5018 4.52385C11.6344 4.88359 11.7745 5.27552 11.9221 5.69964H10.9736ZM9.91138 2.65508C9.89244 2.71189 9.86404 2.78951 9.82617 2.88797C9.78831 2.98643 9.74476 3.10003 9.69553 3.22878C9.6463 3.35753 9.5914 3.49953 9.53081 3.65479C9.47401 3.81004 9.41531 3.97288 9.35472 4.14328H10.4737C10.4131 3.97288 10.3544 3.81004 10.2976 3.65479C10.2408 3.49953 10.1859 3.35753 10.1329 3.22878C10.0837 3.10003 10.0401 2.98643 10.0023 2.88797C9.96439 2.78951 9.9341 2.71189 9.91138 2.65508Z" fill="white"/>
<path d="M6.56055 5.69964C6.45073 5.48 6.32955 5.25848 6.19702 5.03506C6.06827 4.80786 5.91869 4.57686 5.74829 4.34208C5.69527 4.41025 5.62711 4.50491 5.5438 4.62609C5.46428 4.74727 5.38286 4.87602 5.29956 5.01234C5.22003 5.14866 5.1443 5.27931 5.07235 5.40427C5.0004 5.52923 4.94739 5.62769 4.91331 5.69964H3.90224C4.06886 5.39291 4.26198 5.07103 4.48162 4.73401C4.70503 4.39699 4.95307 4.03914 5.22571 3.66047L3.95904 1.7633H5.03259L5.79941 2.99021L6.54919 1.7633H7.56025L6.31062 3.67183C6.62871 4.08458 6.89567 4.46705 7.11152 4.81922C7.32736 5.1676 7.49777 5.46107 7.62273 5.69964H6.56055Z" fill="white"/>
<path d="M7.01044 24.4143L0.0104904 17.4143V14.5859L7.01044 21.5858L10.0104 18.5858L17.0104 25.5858L20.0104 22.5858L26.0104 28.5858L26.0106 13.8284L23.7177 16.1213L22.3035 14.7071L27.0106 9.99997L31.7177 14.7071L30.3035 16.1213L28.0106 13.8284L28.0106 32H26.5963L26.0104 31.4143L20.0104 25.4143L17.0104 28.4143L10.0104 21.4143L7.01044 24.4143Z" fill="#1557BD"/>
</svg>
