<svg width="32" height="32" viewBox="0 0 32 32" fill="none" xmlns="http://www.w3.org/2000/svg">
<path d="M0 25.5712C0 24.6876 0.716344 23.9712 1.6 23.9712H17.6C18.4837 23.9712 19.2 24.6876 19.2 25.5712V30.3712C19.2 31.2549 18.4837 31.9712 17.6 31.9712H1.6C0.716344 31.9712 0 31.2549 0 30.3712V25.5712Z" fill="#3E1DC5"/>
<path d="M14.2074 26.4161C13.7947 26.4161 13.4955 26.5316 13.31 26.7626C13.1282 26.9898 13.0373 27.3022 13.0373 27.6999C13.0373 27.893 13.0601 28.0691 13.1055 28.2281C13.1509 28.3834 13.2191 28.5178 13.31 28.6314C13.4009 28.745 13.5145 28.834 13.6508 28.8984C13.7871 28.959 13.9462 28.9892 14.1279 28.9892C14.2264 28.9892 14.3097 28.9874 14.3778 28.9836C14.4498 28.9798 14.5123 28.9722 14.5653 28.9608V27.5919H15.4514V29.5402C15.3454 29.5819 15.175 29.6254 14.9402 29.6709C14.7054 29.7201 14.4157 29.7447 14.0711 29.7447C13.7757 29.7447 13.5069 29.6993 13.2645 29.6084C13.026 29.5175 12.8215 29.385 12.6511 29.2108C12.4807 29.0366 12.3481 28.8226 12.2535 28.5689C12.1626 28.3152 12.1171 28.0255 12.1171 27.6999C12.1171 27.3704 12.1683 27.0788 12.2705 26.8251C12.3728 26.5714 12.5129 26.3575 12.6908 26.1833C12.8688 26.0053 13.0771 25.8709 13.3157 25.78C13.558 25.6891 13.8155 25.6436 14.0882 25.6436C14.2737 25.6436 14.4403 25.6569 14.588 25.6834C14.7395 25.7061 14.8682 25.7345 14.9743 25.7686C15.0841 25.7989 15.1731 25.8311 15.2412 25.8652C15.3132 25.8993 15.3643 25.9258 15.3946 25.9447L15.139 26.6547C15.0178 26.5903 14.8777 26.5354 14.7187 26.49C14.5634 26.4408 14.393 26.4161 14.2074 26.4161Z" fill="white"/>
<path d="M10.9737 29.6709C10.932 29.5345 10.8847 29.3944 10.8317 29.2505C10.7824 29.1066 10.7332 28.9627 10.684 28.8188H9.15034C9.10111 28.9627 9.04999 29.1066 8.99698 29.2505C8.94775 29.3944 8.90231 29.5345 8.86065 29.6709H7.94047C8.08816 29.2467 8.22827 28.8548 8.3608 28.4951C8.49334 28.1353 8.62209 27.7964 8.74705 27.4783C8.8758 27.1602 9.00077 26.8592 9.12194 26.5752C9.2469 26.2874 9.37565 26.0072 9.50819 25.7345H10.3545C10.4833 26.0072 10.6101 26.2874 10.7351 26.5752C10.8601 26.8592 10.985 27.1602 11.11 27.4783C11.2387 27.7964 11.3694 28.1353 11.5019 28.4951C11.6345 28.8548 11.7746 29.2467 11.9222 29.6709H10.9737ZM9.91148 26.6263C9.89255 26.6831 9.86415 26.7607 9.82628 26.8592C9.78841 26.9577 9.74486 27.0713 9.69563 27.2C9.64641 27.3288 9.5915 27.4708 9.53091 27.626C9.47411 27.7813 9.41542 27.9441 9.35483 28.1145H10.4738C10.4132 27.9441 10.3545 27.7813 10.2977 27.626C10.2409 27.4708 10.186 27.3288 10.133 27.2C10.0838 27.0713 10.0402 26.9577 10.0024 26.8592C9.96449 26.7607 9.9342 26.6831 9.91148 26.6263Z" fill="white"/>
<path d="M6.56056 29.6709C6.45074 29.4512 6.32956 29.2297 6.19703 29.0063C6.06828 28.7791 5.9187 28.5481 5.7483 28.3133C5.69528 28.3815 5.62712 28.4761 5.54381 28.5973C5.46429 28.7185 5.38287 28.8472 5.29957 28.9836C5.22004 29.1199 5.14431 29.2505 5.07236 29.3755C5.00041 29.5005 4.9474 29.5989 4.91332 29.6709H3.90225C4.06887 29.3641 4.26199 29.0423 4.48163 28.7052C4.70504 28.3682 4.95308 28.0104 5.22572 27.6317L3.95905 25.7345H5.0326L5.79942 26.9614L6.5492 25.7345H7.56026L6.31063 27.6431C6.62872 28.0558 6.89568 28.4383 7.11153 28.7904C7.32737 29.1388 7.49778 29.4323 7.62274 29.6709H6.56056Z" fill="white"/>
<path d="M7.0002 7.58567L0.000244141 14.5856V17.414L7.0002 10.4141L10.0002 13.4141L17.0002 6.4141L20.0002 9.41409L26.0002 3.4141L26.0001 18.1716L23.7072 15.8787L22.293 17.2929L27.0001 22L31.7072 17.2929L30.293 15.8787L28.0001 18.1716L28.0001 0H26.5859L26.0002 0.58567L20.0002 6.58567L17.0002 3.58567L10.0002 10.5857L7.0002 7.58567Z" fill="#3E1DC5"/>
</svg>
