<svg width="32" height="32" viewBox="0 0 32 32" fill="none" xmlns="http://www.w3.org/2000/svg">
<g clip-path="url(#clip0_14267_24951)">
<path d="M32 32H24V30H28.5857L19 20.4142L14 25.4142L0 11.4143V8.58583L14 22.5858L19 17.5858L30 28.5858V24H32V32Z" fill="#D04229"/>
<path d="M12.8218 1.6C12.8218 0.716345 13.5381 0 14.4218 0H30.4218C31.3054 0 32.0218 0.716344 32.0218 1.6V6.4C32.0218 7.28366 31.3054 8 30.4218 8H14.4218C13.5381 8 12.8218 7.28366 12.8218 6.4V1.6Z" fill="#D04229"/>
<path d="M27.0292 2.4449C26.6164 2.4449 26.3173 2.5604 26.1317 2.79139C25.95 3.01859 25.8591 3.331 25.8591 3.72861C25.8591 3.92174 25.8818 4.09782 25.9273 4.25686C25.9727 4.41212 26.0409 4.54655 26.1317 4.66015C26.2226 4.77376 26.3362 4.86274 26.4725 4.92712C26.6089 4.98771 26.7679 5.018 26.9497 5.018C27.0481 5.018 27.1314 5.01611 27.1996 5.01232C27.2716 5.00854 27.334 5.00096 27.387 4.9896V3.62069H28.2731V5.56898C28.1671 5.61063 27.9967 5.65418 27.7619 5.69962C27.5272 5.74885 27.2375 5.77346 26.8929 5.77346C26.5975 5.77346 26.3286 5.72802 26.0863 5.63714C25.8477 5.54625 25.6432 5.41372 25.4728 5.23953C25.3024 5.06534 25.1699 4.85138 25.0752 4.59767C24.9843 4.34396 24.9389 4.05427 24.9389 3.72861C24.9389 3.39916 24.99 3.10758 25.0923 2.85387C25.1945 2.60016 25.3346 2.38621 25.5126 2.21201C25.6906 2.03404 25.8989 1.89961 26.1374 1.80872C26.3798 1.71784 26.6373 1.6724 26.9099 1.6724C27.0955 1.6724 27.2621 1.68566 27.4098 1.71216C27.5612 1.73488 27.69 1.76328 27.796 1.79736C27.9058 1.82766 27.9948 1.85985 28.063 1.89393C28.1349 1.92801 28.1861 1.95452 28.2163 1.97345L27.9607 2.68347C27.8396 2.61909 27.6995 2.56418 27.5404 2.51874C27.3852 2.46951 27.2148 2.4449 27.0292 2.4449Z" fill="white"/>
<path d="M23.7954 5.69962C23.7538 5.5633 23.7064 5.42319 23.6534 5.27929C23.6042 5.13539 23.555 4.99149 23.5057 4.8476H21.9721C21.9229 4.99149 21.8718 5.13539 21.8187 5.27929C21.7695 5.42319 21.7241 5.5633 21.6824 5.69962H20.7622C20.9099 5.2755 21.05 4.88357 21.1826 4.52383C21.3151 4.16409 21.4439 3.82517 21.5688 3.50709C21.6976 3.189 21.8225 2.88795 21.9437 2.60394C22.0687 2.31615 22.1974 2.03593 22.33 1.76328H23.1763C23.305 2.03593 23.4319 2.31615 23.5569 2.60394C23.6818 2.88795 23.8068 3.189 23.9317 3.50709C24.0605 3.82517 24.1911 4.16409 24.3237 4.52383C24.4562 4.88357 24.5963 5.2755 24.744 5.69962H23.7954ZM22.7332 2.65507C22.7143 2.71187 22.6859 2.7895 22.648 2.88795C22.6102 2.98641 22.5666 3.10001 22.5174 3.22876C22.4682 3.35751 22.4133 3.49951 22.3527 3.65477C22.2959 3.81003 22.2372 3.97286 22.1766 4.14326H23.2956C23.235 3.97286 23.1763 3.81003 23.1195 3.65477C23.0627 3.49951 23.0078 3.35751 22.9548 3.22876C22.9055 3.10001 22.862 2.98641 22.8241 2.88795C22.7863 2.7895 22.756 2.71187 22.7332 2.65507Z" fill="white"/>
<path d="M19.3823 5.69962C19.2725 5.47999 19.1513 5.25846 19.0188 5.03504C18.89 4.80784 18.7405 4.57684 18.5701 4.34207C18.517 4.41023 18.4489 4.5049 18.3656 4.62607C18.2861 4.74725 18.2046 4.876 18.1213 5.01232C18.0418 5.14864 17.9661 5.27929 17.8941 5.40425C17.8222 5.52921 17.7692 5.62767 17.7351 5.69962H16.724C16.8906 5.39289 17.0838 5.07102 17.3034 4.734C17.5268 4.39697 17.7748 4.03913 18.0475 3.66045L16.7808 1.76328H17.8544L18.6212 2.99019L19.371 1.76328H20.382L19.1324 3.67181C19.4505 4.08457 19.7174 4.46703 19.9333 4.8192C20.1491 5.16758 20.3195 5.46105 20.4445 5.69962H19.3823Z" fill="white"/>
</g>
<defs>
<clipPath id="clip0_14267_24951">
<rect width="32" height="32" fill="white"/>
</clipPath>
</defs>
</svg>
