<svg width="32" height="32" viewBox="0 0 32 32" fill="none" xmlns="http://www.w3.org/2000/svg">
<path fill-rule="evenodd" clip-rule="evenodd" d="M21.4628 32H26V29H23.5372L13.5372 2H0V5H11.4628L21.4628 32Z" fill="#0AA0B0"/>
<path d="M26 29H29V26H26V29Z" fill="#FF444F"/>
<path d="M29 26H32V23H29V26Z" fill="#FF444F"/>
<path d="M0 24C0 22.8954 0.895431 22 2 22H12C13.1046 22 14 22.8954 14 24V30C14 31.1046 13.1046 32 12 32H2C0.89543 32 0 31.1046 0 30V24Z" fill="#414652"/>
<path d="M7.29756 30V28.928H4.84156V27.904L7.01756 24.416H8.44156V28H9.14556V28.928H8.44156V30H7.29756ZM5.80156 28H7.29756V25.656H7.21756L5.80156 28Z" fill="white"/>
</svg>
