<svg width="32" height="32" viewBox="0 0 32 32" fill="none" xmlns="http://www.w3.org/2000/svg">
<path fill-rule="evenodd" clip-rule="evenodd" d="M21.4628 2H26V5H23.5372L13.5372 32H0V29H11.4628L21.4628 2Z" fill="#0AA0B0"/>
<path d="M26 5H29V8H26V5Z" fill="#FF444F"/>
<path d="M0 2C0 0.89543 0.895431 0 2 0H12C13.1046 0 14 0.895431 14 2V8C14 9.10457 13.1046 10 12 10H2C0.89543 10 0 9.10457 0 8V2Z" fill="#414652"/>
<path d="M8.77756 3.464H6.24156L6.12156 5.232H6.18556C6.2389 5.09867 6.29756 4.97867 6.36156 4.872C6.4309 4.76 6.5109 4.66667 6.60156 4.592C6.69223 4.512 6.80156 4.45067 6.92956 4.408C7.05756 4.36533 7.20956 4.344 7.38556 4.344C7.62556 4.344 7.84956 4.384 8.05756 4.464C8.26556 4.544 8.4469 4.66133 8.60156 4.816C8.75623 4.96533 8.8789 5.152 8.96956 5.376C9.06023 5.59467 9.10556 5.84267 9.10556 6.12C9.10556 6.40267 9.05756 6.66667 8.96156 6.912C8.8709 7.152 8.73223 7.36 8.54556 7.536C8.36423 7.712 8.14023 7.85067 7.87356 7.952C7.6069 8.048 7.3029 8.096 6.96156 8.096C6.68956 8.096 6.44956 8.06667 6.24156 8.008C6.03356 7.94933 5.84956 7.872 5.68956 7.776C5.52956 7.67467 5.3909 7.56 5.27356 7.432C5.15623 7.304 5.0549 7.168 4.96956 7.024L5.84156 6.336C5.96423 6.55467 6.1109 6.74133 6.28156 6.896C6.45223 7.04533 6.68156 7.12 6.96956 7.12C7.25756 7.12 7.47356 7.03733 7.61756 6.872C7.7669 6.70667 7.84156 6.488 7.84156 6.216V6.152C7.84156 5.896 7.7669 5.69333 7.61756 5.544C7.46823 5.39467 7.2629 5.32 7.00156 5.32C6.7829 5.32 6.60156 5.36533 6.45756 5.456C6.3189 5.54133 6.21223 5.62667 6.13756 5.712L5.15356 5.576L5.36156 2.416H8.77756V3.464Z" fill="white"/>
</svg>
