<svg width="32" height="32" viewBox="0 0 32 32" fill="none" xmlns="http://www.w3.org/2000/svg">
<path fill-rule="evenodd" clip-rule="evenodd" d="M21.4628 32H26V29H23.5372L13.5372 2H0V5H11.4628L21.4628 32Z" fill="#0AA0B0"/>
<path d="M26 29H29V26H26V29Z" fill="#FF444F"/>
<path d="M0 24C0 22.8954 0.895431 22 2 22H12C13.1046 22 14 22.8954 14 24V30C14 31.1046 13.1046 32 12 32H2C0.89543 32 0 31.1046 0 30V24Z" fill="#414652"/>
<path d="M8.77756 25.464H6.24156L6.12156 27.232H6.18556C6.2389 27.0987 6.29756 26.9787 6.36156 26.872C6.4309 26.76 6.5109 26.6667 6.60156 26.592C6.69223 26.512 6.80156 26.4507 6.92956 26.408C7.05756 26.3653 7.20956 26.344 7.38556 26.344C7.62556 26.344 7.84956 26.384 8.05756 26.464C8.26556 26.544 8.4469 26.6613 8.60156 26.816C8.75623 26.9653 8.8789 27.152 8.96956 27.376C9.06023 27.5947 9.10556 27.8427 9.10556 28.12C9.10556 28.4027 9.05756 28.6667 8.96156 28.912C8.8709 29.152 8.73223 29.36 8.54556 29.536C8.36423 29.712 8.14023 29.8507 7.87356 29.952C7.6069 30.048 7.3029 30.096 6.96156 30.096C6.68956 30.096 6.44956 30.0667 6.24156 30.008C6.03356 29.9493 5.84956 29.872 5.68956 29.776C5.52956 29.6747 5.3909 29.56 5.27356 29.432C5.15623 29.304 5.0549 29.168 4.96956 29.024L5.84156 28.336C5.96423 28.5547 6.1109 28.7413 6.28156 28.896C6.45223 29.0453 6.68156 29.12 6.96956 29.12C7.25756 29.12 7.47356 29.0373 7.61756 28.872C7.7669 28.7067 7.84156 28.488 7.84156 28.216V28.152C7.84156 27.896 7.7669 27.6933 7.61756 27.544C7.46823 27.3947 7.2629 27.32 7.00156 27.32C6.7829 27.32 6.60156 27.3653 6.45756 27.456C6.3189 27.5413 6.21223 27.6267 6.13756 27.712L5.15356 27.576L5.36156 24.416H8.77756V25.464Z" fill="white"/>
</svg>
