<svg width="32" height="32" viewBox="0 0 32 32" fill="none" xmlns="http://www.w3.org/2000/svg">
<path d="M4 16.568V17.792H28V16.568H4Z" fill="white"/>
<path d="M15.5 15.344H28V14.12H15.5V15.344Z" fill="white"/>
<path d="M15.5 12.896H28V11.672H15.5V12.896Z" fill="white"/>
<path d="M15.5 10.448H28V10C28 9.72479 27.9445 9.46259 27.8439 9.224H15.5V10.448Z" fill="white"/>
<path d="M28 19.016H4V20.24H28V19.016Z" fill="white"/>
<path d="M4 21.464H28V22C28 22.2418 27.9572 22.4734 27.8785 22.688H4.12146C4.04285 22.4734 4 22.2418 4 22V21.464Z" fill="white"/>
<path d="M26 8H15.5V9.224H27.8439C27.5409 8.50482 26.8295 8 26 8Z" fill="#F44336"/>
<path d="M15.5 16.568H28V15.344H15.5V16.568Z" fill="#F44336"/>
<path d="M15.5 14.12H28V12.896H15.5V14.12Z" fill="#F44336"/>
<path d="M15.5 11.672H28V10.448H15.5V11.672Z" fill="#F44336"/>
<path d="M4 17.792H28V19.016H4V17.792Z" fill="#F44336"/>
<path d="M28 20.24H4V21.464H28V20.24Z" fill="#F44336"/>
<path d="M4.12146 22.688H27.8785C27.598 23.4536 26.8629 24 26 24H6C5.13708 24 4.40198 23.4536 4.12146 22.688Z" fill="#F44336"/>
<path fill-rule="evenodd" clip-rule="evenodd" d="M15.5 8H6C4.89539 8 4 8.89545 4 10V16.568H15.5V8ZM5.18872 15.0984L5.09351 14.8168C5.0824 14.7784 5.03442 14.7784 5.02881 14.8184L4.93359 15.1H4.63757C4.62073 15.1004 4.60608 15.1113 4.60071 15.1272C4.59534 15.1431 4.60046 15.1607 4.61353 15.1712L4.85352 15.348L4.75513 15.628C4.75208 15.6393 4.75415 15.6512 4.7605 15.6606C4.76318 15.6647 4.7666 15.6683 4.77075 15.6712C4.78455 15.6809 4.80298 15.6809 4.81677 15.6712L5.05676 15.4992L5.29675 15.6712C5.3103 15.6821 5.32947 15.6827 5.34375 15.6727C5.35803 15.6627 5.36389 15.6445 5.3584 15.628L5.26794 15.3464L5.50793 15.1696C5.51416 15.1647 5.51855 15.1581 5.52087 15.1509C5.52356 15.1428 5.52368 15.134 5.52087 15.1256C5.5155 15.1097 5.50073 15.0988 5.48401 15.0984H5.18872ZM14.1624 14.8168C14.1586 14.8015 14.1447 14.7909 14.1289 14.7913C14.1132 14.7916 14.0997 14.8029 14.0968 14.8184L14.0016 15.1H13.7064C13.6896 15.1004 13.6748 15.1113 13.6694 15.1272C13.6666 15.1356 13.6667 15.1443 13.6693 15.1523C13.6718 15.1596 13.6761 15.1662 13.6824 15.1712L13.9224 15.348L13.824 15.628C13.8196 15.6443 13.8258 15.6616 13.8396 15.6712C13.8534 15.6809 13.8718 15.6809 13.8856 15.6712L14.1256 15.4992L14.3656 15.6712C14.3792 15.6821 14.3983 15.6827 14.4126 15.6727C14.4268 15.6627 14.4327 15.6445 14.4271 15.628L14.3368 15.3464L14.5768 15.1696C14.5846 15.1633 14.5896 15.1545 14.5912 15.145C14.5923 15.1386 14.5918 15.132 14.5896 15.1256C14.5842 15.1097 14.5696 15.0988 14.5527 15.0984H14.2576L14.1624 14.8168ZM11.8936 14.8168C11.8898 14.8015 11.8759 14.7909 11.8601 14.7913C11.8444 14.7916 11.8309 14.8029 11.828 14.8184L11.7328 15.1H11.4376C11.4208 15.1004 11.406 15.1113 11.4006 15.1272C11.3953 15.1431 11.4005 15.1607 11.4136 15.1712L11.6536 15.348L11.5552 15.628C11.5508 15.6443 11.557 15.6616 11.5708 15.6712C11.5846 15.6809 11.603 15.6809 11.6168 15.6712L11.8568 15.4992L12.0968 15.6712C12.1104 15.6821 12.1295 15.6827 12.1438 15.6727C12.158 15.6627 12.1639 15.6445 12.1583 15.628L12.068 15.3464L12.308 15.1696C12.321 15.1591 12.3262 15.1415 12.3208 15.1256C12.3154 15.1097 12.3008 15.0988 12.2839 15.0984H11.9888L11.8936 14.8168ZM7.45679 15.0984L7.36157 14.8168C7.35034 14.7784 7.29761 14.7784 7.29675 14.8184L7.20154 15.1H6.90552C6.88879 15.1004 6.87402 15.1113 6.86865 15.1272C6.86328 15.1431 6.86841 15.1607 6.88159 15.1712L7.12158 15.348L7.02319 15.628C7.0188 15.6443 7.02502 15.6616 7.03882 15.6712C7.05261 15.6809 7.07092 15.6809 7.08472 15.6712L7.32471 15.4992L7.56482 15.6712C7.57837 15.6821 7.59753 15.6827 7.61169 15.6727C7.62598 15.6627 7.63196 15.6445 7.62634 15.628L7.53601 15.3464L7.776 15.1696C7.78052 15.166 7.78406 15.1616 7.7865 15.1566C7.79126 15.1472 7.79236 15.136 7.78882 15.1256C7.78467 15.1132 7.7749 15.1039 7.76282 15.1002C7.7594 15.0991 7.75574 15.0985 7.75195 15.0984H7.45679ZM9.72559 15.0984L9.63037 14.8168C9.61914 14.7784 9.56641 14.7784 9.56555 14.8184L9.47034 15.1H9.17432C9.15759 15.1004 9.14282 15.1113 9.13745 15.1272C9.13208 15.1431 9.13721 15.1607 9.15039 15.1712L9.39038 15.348L9.29199 15.628C9.28955 15.6371 9.29041 15.6466 9.29407 15.6548C9.297 15.6613 9.30151 15.667 9.30762 15.6712C9.32141 15.6809 9.33972 15.6809 9.35352 15.6712L9.59351 15.4992L9.83362 15.6712C9.84717 15.6821 9.86633 15.6827 9.88049 15.6727C9.89478 15.6627 9.90076 15.6445 9.89514 15.628L9.80481 15.3464L10.0448 15.1696C10.0579 15.1591 10.063 15.1415 10.0576 15.1256C10.0522 15.1097 10.0376 15.0988 10.0208 15.0984H9.72559ZM6.32312 14.3544L6.22791 14.0728C6.2168 14.0344 6.16882 14.0344 6.16321 14.0728L6.06799 14.3544H5.76392C5.74719 14.3549 5.73242 14.3657 5.72705 14.3816C5.72168 14.3975 5.72681 14.4151 5.73999 14.4256L5.97998 14.6024L5.88953 14.884C5.88513 14.9003 5.89136 14.9175 5.90515 14.9272C5.91895 14.9369 5.93738 14.9369 5.95117 14.9272L6.19116 14.7552L6.43115 14.9272C6.4447 14.938 6.46387 14.9387 6.47815 14.9286C6.49243 14.9187 6.49829 14.9005 6.4928 14.884L6.40234 14.6024L6.64233 14.4256C6.65552 14.4151 6.66064 14.3975 6.65527 14.3816C6.6499 14.3657 6.63513 14.3549 6.61841 14.3544H6.32312ZM13.028 14.0728C13.028 14.0596 13.021 14.0475 13.0095 14.041C12.9982 14.0344 12.9841 14.0344 12.9728 14.041C12.9614 14.0475 12.9543 14.0596 12.9543 14.0728L12.8591 14.3544H12.564C12.5471 14.3549 12.5325 14.3657 12.5271 14.3816C12.5217 14.3975 12.5269 14.4151 12.5399 14.4256L12.7799 14.6024L12.6896 14.884C12.6852 14.9003 12.6914 14.9175 12.7052 14.9272C12.719 14.9369 12.7374 14.9369 12.7512 14.9272L12.9912 14.7552L13.2312 14.9272C13.2448 14.938 13.2639 14.9387 13.2782 14.9286C13.2859 14.9233 13.2911 14.9155 13.2935 14.9069C13.2954 14.8995 13.2953 14.8916 13.2927 14.884L13.2024 14.6024L13.4424 14.4256C13.4554 14.4151 13.4606 14.3975 13.4552 14.3816C13.4498 14.3657 13.4352 14.3549 13.4183 14.3544H13.1232L13.028 14.0728ZM10.86 14.3544L10.7648 14.0728C10.7535 14.0344 10.7008 14.0344 10.6912 14.0728L10.5959 14.3544H10.3008C10.2925 14.3546 10.2847 14.3574 10.2782 14.3621C10.2717 14.3669 10.2666 14.3736 10.2639 14.3816C10.2621 14.3871 10.2615 14.3928 10.262 14.3983C10.2631 14.4088 10.2682 14.4187 10.2767 14.4256L10.5167 14.6024L10.4264 14.884C10.422 14.9003 10.4282 14.9175 10.442 14.9272C10.4558 14.9369 10.4741 14.9369 10.4879 14.9272L10.7279 14.7552L10.968 14.9272C10.9816 14.938 11.0007 14.9387 11.0149 14.9286C11.0292 14.9187 11.0352 14.9005 11.0295 14.884L10.9392 14.6024L11.1792 14.4256C11.1923 14.4151 11.1974 14.3975 11.192 14.3816C11.1866 14.3657 11.172 14.3549 11.1552 14.3544H10.86ZM8.59119 14.3544L8.49597 14.0728C8.48474 14.0344 8.43201 14.0344 8.43115 14.0728L8.33594 14.3544H8.03198C8.01514 14.3549 8.00049 14.3657 7.99512 14.3816C7.98975 14.3975 7.99487 14.4151 8.00793 14.4256L8.24792 14.6024L8.15759 14.884C8.1554 14.8923 8.15588 14.9008 8.15869 14.9083C8.16138 14.9158 8.16638 14.9224 8.17322 14.9272C8.17957 14.9317 8.18701 14.9341 8.19446 14.9344C8.203 14.9348 8.21167 14.9324 8.21912 14.9272L8.45911 14.7552L8.69922 14.9272C8.71277 14.938 8.73193 14.9387 8.74609 14.9286C8.76038 14.9187 8.76636 14.9005 8.76074 14.884L8.67041 14.6024L8.9104 14.4256C8.92346 14.4151 8.92859 14.3975 8.92322 14.3816C8.91785 14.3657 8.9032 14.3549 8.88635 14.3544H8.59119ZM7.45679 13.6336L7.36157 13.352C7.35034 13.3192 7.29761 13.3192 7.29675 13.352L7.20154 13.6336H6.89758C6.88074 13.634 6.86609 13.6449 6.86072 13.6608C6.85535 13.6768 6.86047 13.6943 6.87354 13.7048L7.11353 13.8816L7.02319 14.1632C7.0188 14.1794 7.02502 14.1968 7.03882 14.2064C7.05261 14.2161 7.07092 14.2161 7.08472 14.2064L7.32471 14.0344L7.56482 14.2064C7.56763 14.2087 7.57068 14.2105 7.57397 14.2119C7.58618 14.2171 7.60046 14.2158 7.61169 14.2079C7.62598 14.1979 7.63196 14.1797 7.62634 14.1632L7.53601 13.8816L7.776 13.7048C7.78906 13.6943 7.79419 13.6768 7.78882 13.6608C7.78345 13.6449 7.7688 13.634 7.75195 13.6336H7.45679ZM14.2576 13.6336L14.1624 13.352C14.156 13.3192 14.1031 13.3192 14.0887 13.352L13.9935 13.6336H13.6984C13.6815 13.634 13.6669 13.6449 13.6615 13.6608C13.6561 13.6768 13.6613 13.6943 13.6743 13.7048L13.9143 13.8816L13.824 14.1632C13.8196 14.1794 13.8258 14.1968 13.8396 14.2064C13.8534 14.2161 13.8718 14.2161 13.8856 14.2064L14.1256 14.0344L14.3656 14.2064C14.3792 14.2173 14.3983 14.2179 14.4126 14.2079C14.4204 14.2024 14.4257 14.1945 14.428 14.1857C14.4298 14.1785 14.4297 14.1707 14.4271 14.1632L14.3368 13.8816L14.5768 13.7048C14.5898 13.6943 14.595 13.6768 14.5896 13.6608C14.5842 13.6449 14.5696 13.634 14.5527 13.6336H14.2576ZM5.18872 13.6336L5.09351 13.352C5.0824 13.3192 5.03442 13.3192 5.02881 13.352L4.93359 13.6336H4.62952C4.61279 13.634 4.59802 13.6449 4.59265 13.6608C4.58728 13.6768 4.59241 13.6943 4.60559 13.7048L4.84558 13.8816L4.75513 14.1632C4.75073 14.1794 4.75696 14.1968 4.77075 14.2064C4.78455 14.2161 4.80298 14.2161 4.81677 14.2064L5.05676 14.0344L5.29675 14.2064C5.3103 14.2173 5.32947 14.2179 5.34375 14.2079C5.35803 14.1979 5.36389 14.1797 5.3584 14.1632L5.26794 13.8816L5.50793 13.7048C5.52112 13.6943 5.52625 13.6768 5.52087 13.6608C5.5155 13.6449 5.50073 13.634 5.48401 13.6336H5.18872ZM11.9888 13.6336L11.8936 13.352C11.8899 13.3331 11.8707 13.3251 11.8524 13.328C11.839 13.3301 11.826 13.3381 11.8199 13.352L11.7247 13.6336H11.4296C11.4232 13.6338 11.4172 13.6354 11.4119 13.6382C11.403 13.6429 11.396 13.6509 11.3927 13.6608C11.3873 13.6768 11.3925 13.6943 11.4055 13.7048L11.6455 13.8816L11.5552 14.1632C11.5508 14.1794 11.557 14.1968 11.5708 14.2064C11.5846 14.2161 11.603 14.2161 11.6168 14.2064L11.8568 14.0344L12.0968 14.2064C12.1104 14.2173 12.1295 14.2179 12.1438 14.2079C12.158 14.1979 12.1639 14.1797 12.1583 14.1632L12.068 13.8816L12.308 13.7048C12.321 13.6943 12.3262 13.6768 12.3208 13.6608C12.3154 13.6449 12.3008 13.634 12.2839 13.6336H11.9888ZM9.72559 13.6336L9.63037 13.352C9.61914 13.3192 9.56641 13.3192 9.56555 13.352L9.47034 13.6336H9.16638C9.14954 13.634 9.13489 13.6449 9.12952 13.6608C9.12415 13.6768 9.12927 13.6943 9.14233 13.7048L9.38232 13.8816L9.29199 14.1632C9.2876 14.1794 9.29382 14.1968 9.30762 14.2064C9.32141 14.2161 9.33972 14.2161 9.35352 14.2064L9.59351 14.0344L9.83362 14.2064C9.84717 14.2173 9.86633 14.2179 9.88049 14.2079C9.89478 14.1979 9.90076 14.1797 9.89514 14.1632L9.80481 13.8816L10.0448 13.7048C10.0579 13.6943 10.063 13.6768 10.0576 13.6608C10.0522 13.6449 10.0376 13.634 10.0208 13.6336H9.72559ZM6.32312 12.8904L6.22791 12.6088C6.2168 12.5704 6.16882 12.5704 6.16321 12.6104L6.06799 12.892H5.77197C5.75513 12.8925 5.74048 12.9033 5.73511 12.9192C5.72974 12.9351 5.73486 12.9527 5.74792 12.9632L5.98792 13.14L5.88953 13.42C5.88513 13.4363 5.89136 13.4536 5.90515 13.4632C5.91895 13.4729 5.93738 13.4729 5.95117 13.4632L6.19116 13.2912L6.43115 13.4632C6.4447 13.4741 6.46387 13.4747 6.47815 13.4647C6.49243 13.4547 6.49829 13.4365 6.4928 13.42L6.40234 13.1384L6.64233 12.9616C6.65552 12.9511 6.66064 12.9335 6.65527 12.9176C6.6499 12.9017 6.63513 12.8908 6.61841 12.8904H6.32312ZM13.028 12.6088C13.028 12.5885 13.0115 12.572 12.9912 12.572C12.975 12.572 12.9613 12.5825 12.9563 12.5969C12.9551 12.6006 12.9543 12.6047 12.9543 12.6088L12.8591 12.8904H12.564C12.5576 12.8906 12.5516 12.8922 12.5463 12.895C12.5374 12.8997 12.5304 12.9077 12.5271 12.9176C12.5217 12.9335 12.5269 12.9511 12.5399 12.9616L12.7799 13.1384L12.6896 13.42C12.6852 13.4363 12.6914 13.4536 12.7052 13.4632C12.7134 13.469 12.7233 13.4713 12.7328 13.4702C12.7393 13.4694 12.7456 13.4671 12.7512 13.4632L12.9912 13.2912L13.2312 13.4632C13.2448 13.4741 13.2639 13.4747 13.2782 13.4647C13.2924 13.4547 13.2983 13.4365 13.2927 13.42L13.2024 13.1384L13.4424 12.9616C13.4554 12.9511 13.4606 12.9335 13.4552 12.9176C13.4498 12.9017 13.4352 12.8908 13.4183 12.8904H13.1232L13.028 12.6088ZM10.86 12.8904L10.7648 12.6088C10.7535 12.5704 10.7008 12.5704 10.6912 12.6088L10.5959 12.8904H10.3008C10.293 12.8906 10.2858 12.893 10.2797 12.8971C10.2725 12.9019 10.2668 12.909 10.2639 12.9176C10.2585 12.9335 10.2637 12.9511 10.2767 12.9616L10.5167 13.1384L10.4264 13.42C10.4232 13.4319 10.4257 13.4443 10.4325 13.4539C10.4351 13.4574 10.4382 13.4606 10.442 13.4632C10.4558 13.4729 10.4741 13.4729 10.4879 13.4632L10.7279 13.2912L10.968 13.4632C10.9816 13.4741 11.0007 13.4747 11.0149 13.4647C11.0292 13.4547 11.0352 13.4365 11.0295 13.42L10.9392 13.1384L11.1792 12.9616C11.1923 12.9511 11.1974 12.9335 11.192 12.9176C11.1866 12.9017 11.172 12.8908 11.1552 12.8904H10.86ZM8.59119 12.8904L8.49597 12.6088C8.48474 12.5704 8.43201 12.5704 8.43115 12.6104L8.33594 12.892H8.03992C8.02319 12.8925 8.00842 12.9033 8.00305 12.9192C7.99963 12.9292 8.00037 12.9399 8.00476 12.949C8.00732 12.9544 8.01111 12.9593 8.01599 12.9632L8.25598 13.14L8.15759 13.42C8.1532 13.4363 8.15942 13.4536 8.17322 13.4632C8.18701 13.4729 8.20532 13.4729 8.21912 13.4632L8.45911 13.2912L8.69922 13.4632C8.71277 13.4741 8.73193 13.4747 8.74609 13.4647C8.76038 13.4547 8.76636 13.4365 8.76074 13.42L8.67041 13.1384L8.9104 12.9616C8.92346 12.9511 8.92859 12.9335 8.92322 12.9176C8.91785 12.9017 8.9032 12.8908 8.88635 12.8904H8.59119ZM7.45679 12.1744L7.36157 11.8928C7.35034 11.8544 7.29761 11.8544 7.29675 11.8944L7.20154 12.176H6.90552C6.89429 12.1763 6.88391 12.1813 6.87671 12.1894C6.87317 12.1934 6.87036 12.198 6.86865 12.2032C6.86328 12.2191 6.86841 12.2367 6.88159 12.2472L7.12158 12.424L7.02319 12.704C7.0188 12.7203 7.02502 12.7375 7.03882 12.7473C7.05261 12.7569 7.07092 12.7569 7.08472 12.7472L7.32471 12.5752L7.56482 12.7472C7.57837 12.7581 7.59753 12.7587 7.61169 12.7487C7.62598 12.7387 7.63196 12.7205 7.62634 12.704L7.53601 12.4224L7.776 12.2456C7.78333 12.2397 7.78821 12.2316 7.79004 12.2227C7.7915 12.2158 7.79114 12.2086 7.78882 12.2016C7.78625 12.1939 7.78149 12.1874 7.77539 12.1827C7.7688 12.1776 7.76062 12.1746 7.75195 12.1744H7.45679ZM14.144 11.8704C14.1394 11.8683 14.1343 11.8671 14.1289 11.8672C14.1132 11.8676 14.0997 11.8789 14.0968 11.8944L14.0016 12.176H13.7064C13.6896 12.1765 13.6748 12.1873 13.6694 12.2032C13.6641 12.2191 13.6693 12.2367 13.6824 12.2472L13.9224 12.424L13.824 12.704C13.8196 12.7203 13.8258 12.7375 13.8396 12.7473C13.8534 12.7569 13.8718 12.7569 13.8856 12.7472L14.1256 12.5752L14.3656 12.7472C14.3729 12.7531 14.3818 12.7559 14.3907 12.7557C14.3984 12.7556 14.406 12.7532 14.4126 12.7487C14.4207 12.743 14.426 12.7346 14.4282 12.7255C14.4298 12.7185 14.4296 12.7111 14.4271 12.704L14.3368 12.4224L14.5768 12.2456C14.5898 12.2351 14.595 12.2175 14.5896 12.2016C14.5842 12.1857 14.5696 12.1748 14.5527 12.1744H14.2576L14.1624 11.8928C14.1599 11.8827 14.153 11.8746 14.144 11.8704ZM11.8936 11.8928C11.8936 11.8725 11.8771 11.856 11.8568 11.856C11.8364 11.856 11.8199 11.8725 11.8199 11.8928L11.7247 12.1744H11.4296C11.4127 12.1748 11.3981 12.1857 11.3927 12.2016C11.3873 12.2175 11.3925 12.2351 11.4055 12.2456L11.6455 12.4224L11.5552 12.704C11.5508 12.7203 11.557 12.7375 11.5708 12.7473C11.5846 12.7569 11.603 12.7569 11.6168 12.7472L11.8568 12.5752L12.0968 12.7472C12.1029 12.7521 12.1101 12.7549 12.1176 12.7556C12.1266 12.7564 12.136 12.7542 12.1438 12.7487C12.158 12.7387 12.1639 12.7205 12.1583 12.704L12.068 12.4224L12.308 12.2456C12.321 12.2351 12.3262 12.2175 12.3208 12.2016C12.3154 12.1857 12.3008 12.1748 12.2839 12.1744H11.9888L11.8936 11.8928ZM5.18872 12.1744L5.09351 11.8928C5.0824 11.8544 5.03442 11.8544 5.02881 11.8944L4.93359 12.176H4.63757C4.62073 12.1765 4.60608 12.1873 4.60071 12.2032C4.59534 12.2191 4.60046 12.2367 4.61353 12.2472L4.85352 12.424L4.75513 12.704C4.75073 12.7203 4.75696 12.7375 4.77075 12.7473C4.77991 12.7537 4.79102 12.7558 4.80151 12.7537C4.80688 12.7527 4.81213 12.7505 4.81677 12.7472L5.05676 12.5752L5.29675 12.7472C5.3103 12.7581 5.32947 12.7587 5.34375 12.7487C5.35803 12.7387 5.36389 12.7205 5.3584 12.704L5.26794 12.4224L5.50793 12.2456C5.52112 12.2351 5.52625 12.2175 5.52087 12.2016C5.5155 12.1857 5.50073 12.1748 5.48401 12.1744H5.18872ZM9.72559 12.1744L9.63037 11.8928C9.61914 11.8544 9.56641 11.8544 9.56555 11.8928L9.47034 12.1744H9.16638C9.14954 12.1748 9.13489 12.1857 9.12952 12.2016C9.12659 12.2101 9.12671 12.2191 9.12939 12.2272C9.13184 12.2343 9.13623 12.2407 9.14233 12.2456L9.38232 12.4224L9.29199 12.704C9.2876 12.7203 9.29382 12.7375 9.30762 12.7473C9.3147 12.7522 9.323 12.7546 9.33118 12.7545C9.33899 12.7543 9.3468 12.752 9.35352 12.7472L9.59351 12.5752L9.83362 12.7472C9.84717 12.7581 9.86633 12.7587 9.88049 12.7487C9.89478 12.7387 9.90076 12.7205 9.89514 12.704L9.80481 12.4224L10.0448 12.2456C10.0579 12.2351 10.063 12.2175 10.0576 12.2016C10.0522 12.1857 10.0376 12.1748 10.0208 12.1744H9.72559ZM6.32312 11.4248L6.22791 11.1432C6.2168 11.1104 6.16882 11.1104 6.16321 11.1432L6.06799 11.4248H5.76392C5.75671 11.425 5.74988 11.4271 5.74402 11.4308C5.73621 11.4356 5.7301 11.443 5.72705 11.452C5.72168 11.468 5.72681 11.4855 5.73999 11.496L5.97998 11.6728L5.88953 11.9544C5.88513 11.9706 5.89136 11.988 5.90515 11.9976C5.91895 12.0073 5.93738 12.0073 5.95117 11.9976L6.19116 11.8256L6.43115 11.9976C6.4447 12.0085 6.46387 12.0091 6.47815 11.9991C6.49243 11.9891 6.49829 11.9709 6.4928 11.9544L6.40234 11.6728L6.64233 11.496C6.65552 11.4855 6.66064 11.468 6.65527 11.452C6.6499 11.4361 6.63513 11.4252 6.61841 11.4248H6.32312ZM10.86 11.4248L10.7648 11.1432C10.7535 11.1104 10.7008 11.1104 10.6912 11.1432L10.5959 11.4248H10.3008C10.2839 11.4252 10.2693 11.4361 10.2639 11.452C10.2606 11.4619 10.2614 11.4723 10.2654 11.4813C10.2679 11.4869 10.2717 11.492 10.2767 11.496L10.5167 11.6728L10.4264 11.9544C10.422 11.9706 10.4282 11.988 10.442 11.9976C10.4558 12.0073 10.4741 12.0073 10.4879 11.9976L10.7279 11.8256L10.968 11.9976C10.9742 12.0026 10.9818 12.0055 10.9895 12.0061C10.9983 12.0068 11.0073 12.0045 11.0149 11.9991C11.0292 11.9891 11.0352 11.9709 11.0295 11.9544L10.9392 11.6728L11.1792 11.496C11.1858 11.4907 11.1904 11.4835 11.1926 11.4757C11.1947 11.4681 11.1947 11.4599 11.192 11.452C11.1866 11.4361 11.172 11.4252 11.1552 11.4248H10.86ZM8.59119 11.4248L8.49597 11.1432C8.48474 11.1104 8.43201 11.1104 8.43115 11.1432L8.33594 11.4248H8.03198C8.01514 11.4252 8.00049 11.4361 7.99512 11.452C7.98975 11.468 7.99487 11.4855 8.00793 11.496L8.24792 11.6728L8.15759 11.9544C8.1532 11.9706 8.15942 11.988 8.17322 11.9976C8.18701 12.0073 8.20532 12.0073 8.21912 11.9976L8.45911 11.8256L8.69922 11.9976C8.71277 12.0085 8.73193 12.0091 8.74609 11.9991C8.76038 11.9891 8.76636 11.9709 8.76074 11.9544L8.67041 11.6728L8.9104 11.496C8.92346 11.4855 8.92859 11.468 8.92322 11.452C8.91785 11.4361 8.9032 11.4252 8.88635 11.4248H8.59119ZM13.1232 11.4248L13.028 11.1432C13.0216 11.1104 12.9688 11.1104 12.9543 11.1432L12.8591 11.4248H12.564C12.5471 11.4252 12.5325 11.4361 12.5271 11.452C12.5217 11.468 12.5269 11.4855 12.5399 11.496L12.7799 11.6728L12.6896 11.9544C12.6852 11.9706 12.6914 11.988 12.7052 11.9976C12.719 12.0073 12.7374 12.0073 12.7512 11.9976L12.9912 11.8256L13.2312 11.9976C13.239 12.0039 13.2488 12.0068 13.2584 12.0061C13.2654 12.0056 13.2722 12.0033 13.2782 11.9991C13.2924 11.9891 13.2983 11.9709 13.2927 11.9544L13.2024 11.6728L13.4424 11.496C13.4554 11.4855 13.4606 11.468 13.4552 11.452C13.4515 11.4413 13.4437 11.4329 13.4338 11.4284C13.4291 11.4262 13.4238 11.4249 13.4183 11.4248H13.1232ZM9.72559 10.7096L9.63037 10.428C9.61914 10.3952 9.56641 10.3952 9.56555 10.428L9.47034 10.7096H9.16638C9.14954 10.71 9.13489 10.7209 9.12952 10.7368C9.12415 10.7527 9.12927 10.7703 9.14233 10.7808L9.38232 10.9576L9.29199 11.2392C9.28857 11.2518 9.2915 11.265 9.29944 11.2748C9.30176 11.2776 9.30444 11.2802 9.30762 11.2824C9.31616 11.2884 9.32629 11.2907 9.33618 11.2893C9.34229 11.2885 9.34827 11.2861 9.35352 11.2824L9.59351 11.1104L9.83362 11.2824C9.84717 11.2933 9.86633 11.2939 9.88049 11.2839C9.89478 11.2739 9.90076 11.2557 9.89514 11.2392L9.80481 10.9576L10.0448 10.7808C10.0579 10.7703 10.063 10.7527 10.0576 10.7368C10.0522 10.7209 10.0376 10.71 10.0208 10.7096H9.72559ZM5.18872 10.7096L5.09351 10.428C5.0824 10.3952 5.03442 10.3952 5.02881 10.428L4.93359 10.7096H4.62952C4.61279 10.71 4.59802 10.7209 4.59265 10.7368C4.58728 10.7527 4.59241 10.7703 4.60559 10.7808L4.84558 10.9576L4.75513 11.2392C4.75073 11.2555 4.75696 11.2728 4.77075 11.2824C4.78455 11.2921 4.80298 11.2921 4.81677 11.2824L5.05676 11.1104L5.29675 11.2824C5.3103 11.2933 5.32947 11.2939 5.34375 11.2839C5.35803 11.2739 5.36389 11.2557 5.3584 11.2392L5.26794 10.9576L5.50793 10.7808C5.52112 10.7703 5.52625 10.7527 5.52087 10.7368C5.5155 10.7209 5.50073 10.71 5.48401 10.7096H5.18872ZM7.45996 10.7096L7.36475 10.428C7.35034 10.3952 7.29761 10.3952 7.29199 10.428L7.19678 10.7096H6.90234C6.88562 10.71 6.87085 10.7209 6.86548 10.7368C6.86157 10.7484 6.86316 10.7607 6.86938 10.7708C6.8717 10.7745 6.87476 10.778 6.87842 10.7808L7.11841 10.9576L7.02795 11.2392C7.02356 11.2555 7.02979 11.2728 7.04358 11.2824C7.05737 11.2921 7.07581 11.2921 7.0896 11.2824L7.32959 11.1104L7.56958 11.2824C7.58313 11.2933 7.60229 11.2939 7.61658 11.2839C7.63074 11.2739 7.63672 11.2557 7.6311 11.2392L7.54077 10.9576L7.78076 10.7808C7.78931 10.774 7.79443 10.7642 7.79553 10.7538C7.79614 10.7482 7.79553 10.7424 7.7937 10.7368C7.78833 10.7209 7.77356 10.71 7.75671 10.7096H7.45996ZM11.9888 10.7096L11.8936 10.428C11.8872 10.3952 11.8344 10.3952 11.8199 10.428L11.7247 10.7096H11.4296C11.4127 10.71 11.3981 10.7209 11.3927 10.7368C11.3873 10.7527 11.3925 10.7703 11.4055 10.7808L11.6455 10.9576L11.5552 11.2392C11.5522 11.2499 11.5541 11.2611 11.5594 11.2703C11.5623 11.275 11.566 11.2791 11.5708 11.2824C11.5846 11.2921 11.603 11.2921 11.6168 11.2824L11.8568 11.1104L12.0968 11.2824C12.1104 11.2933 12.1295 11.2939 12.1438 11.2839C12.158 11.2739 12.1639 11.2557 12.1583 11.2392L12.068 10.9576L12.308 10.7808C12.321 10.7703 12.3262 10.7527 12.3208 10.7368C12.3174 10.7266 12.3101 10.7184 12.3008 10.7137C12.2957 10.7112 12.2899 10.7097 12.2839 10.7096H11.9888ZM14.2576 10.7096L14.1624 10.428C14.156 10.3952 14.1031 10.3952 14.0887 10.428L13.9935 10.7096H13.6984C13.6815 10.71 13.6669 10.7209 13.6615 10.7368C13.6561 10.7527 13.6613 10.7703 13.6743 10.7808L13.9143 10.9576L13.824 11.2392C13.8196 11.2555 13.8258 11.2728 13.8396 11.2824C13.8534 11.2921 13.8718 11.2921 13.8856 11.2824L14.1256 11.1104L14.3656 11.2824C14.3743 11.2894 14.3853 11.2921 14.3958 11.2905C14.4017 11.2897 14.4075 11.2875 14.4126 11.2839C14.4268 11.2739 14.4327 11.2557 14.4271 11.2392L14.3368 10.9576L14.5768 10.7808C14.5898 10.7703 14.595 10.7527 14.5896 10.7368C14.5842 10.7209 14.5696 10.71 14.5527 10.7096H14.2576ZM10.86 9.96564L10.7648 9.68402C10.7535 9.64563 10.7008 9.64563 10.6912 9.68402L10.5959 9.96564H10.3008C10.2839 9.966 10.2693 9.97693 10.2639 9.9928C10.2585 10.0087 10.2637 10.0263 10.2767 10.0368L10.5167 10.2136L10.4264 10.4952C10.4238 10.5049 10.4249 10.5149 10.4291 10.5234C10.432 10.5293 10.4364 10.5345 10.442 10.5385C10.4558 10.5481 10.4741 10.5481 10.4879 10.5384L10.7279 10.3664L10.968 10.5384C10.9816 10.5493 11.0007 10.5499 11.0149 10.5399C11.0292 10.5299 11.0352 10.5117 11.0295 10.4952L10.9392 10.2136L11.1792 10.0368C11.1923 10.0263 11.1974 10.0087 11.192 9.9928C11.1895 9.98517 11.1847 9.9787 11.1786 9.974C11.172 9.96887 11.1639 9.96582 11.1552 9.96564H10.86ZM8.59119 9.96564L8.49597 9.68402C8.4884 9.65833 8.46228 9.64984 8.44556 9.65906C8.43738 9.66357 8.4314 9.67242 8.43115 9.68561L8.33594 9.96722H8.03992C8.02319 9.96765 8.00842 9.97852 8.00305 9.99445C7.99768 10.0103 8.00281 10.0279 8.01599 10.0384L8.25598 10.2152L8.15759 10.4952C8.1532 10.5115 8.15942 10.5287 8.17322 10.5385C8.18042 10.5435 8.18896 10.5459 8.19739 10.5457C8.20496 10.5454 8.21252 10.543 8.21912 10.5384L8.45911 10.3664L8.69922 10.5384C8.71277 10.5493 8.73193 10.5499 8.74609 10.5399C8.76038 10.5299 8.76636 10.5117 8.76074 10.4952L8.67041 10.2136L8.9104 10.0368C8.92346 10.0263 8.92859 10.0087 8.92322 9.9928C8.91785 9.97693 8.9032 9.966 8.88635 9.96564H8.59119ZM6.32312 9.96564L6.22791 9.68402C6.2168 9.64563 6.16882 9.64563 6.16321 9.68561L6.06799 9.96722H5.77197C5.75513 9.96765 5.74048 9.97852 5.73511 9.99445C5.72974 10.0103 5.73486 10.0279 5.74792 10.0384L5.98792 10.2152L5.88953 10.4952C5.88513 10.5115 5.89136 10.5287 5.90515 10.5385C5.91895 10.5481 5.93738 10.5481 5.95117 10.5384L6.19116 10.3664L6.43115 10.5384C6.4447 10.5493 6.46387 10.5499 6.47815 10.5399C6.49243 10.5299 6.49829 10.5117 6.4928 10.4952L6.40234 10.2136L6.64233 10.0368C6.65552 10.0263 6.66064 10.0087 6.65527 9.9928C6.6499 9.97693 6.63513 9.966 6.61841 9.96564H6.32312ZM13.028 9.68402C13.028 9.67084 13.021 9.65869 13.0095 9.65216C12.9982 9.64557 12.9841 9.64557 12.9728 9.65216C12.9614 9.65869 12.9543 9.67084 12.9543 9.68402L12.8591 9.96564H12.564C12.5471 9.966 12.5325 9.97693 12.5271 9.9928C12.5217 10.0087 12.5269 10.0263 12.5399 10.0368L12.7799 10.2136L12.6896 10.4952C12.6852 10.5115 12.6914 10.5287 12.7052 10.5385C12.719 10.5481 12.7374 10.5481 12.7512 10.5384L12.9912 10.3664L13.2312 10.5384C13.2377 10.5436 13.2455 10.5465 13.2534 10.5469C13.262 10.5474 13.2708 10.545 13.2782 10.5399C13.2924 10.5299 13.2983 10.5117 13.2927 10.4952L13.2024 10.2136L13.4424 10.0368C13.4554 10.0263 13.4606 10.0087 13.4552 9.9928C13.4498 9.97693 13.4352 9.966 13.4183 9.96564H13.1232L13.028 9.68402ZM5.18872 9.25043L5.09351 8.96881C5.0824 8.93042 5.03442 8.93042 5.02881 8.9704L4.93359 9.25201H4.63757C4.62073 9.25244 4.60608 9.26331 4.60071 9.27924C4.59534 9.2951 4.60046 9.31268 4.61353 9.32318L4.85352 9.5L4.75513 9.78003C4.75073 9.79626 4.75696 9.81354 4.77075 9.82324C4.78455 9.83289 4.80298 9.83289 4.81677 9.82318L5.05676 9.65118L5.29675 9.82318C5.3103 9.83405 5.32947 9.83466 5.34375 9.82471C5.35803 9.8147 5.36389 9.79651 5.3584 9.78003L5.26794 9.49841L5.50793 9.32159C5.52112 9.3111 5.52625 9.29352 5.52087 9.27759C5.5155 9.26172 5.50073 9.25085 5.48401 9.25043H5.18872ZM7.45679 9.25043L7.36157 8.96881C7.35498 8.94641 7.33435 8.93707 7.31812 8.94116C7.30652 8.94403 7.29712 8.95374 7.29675 8.9704L7.20154 9.25201H6.90552C6.88879 9.25244 6.87402 9.26331 6.86865 9.27924C6.86328 9.2951 6.86841 9.31268 6.88159 9.32318L7.12158 9.5L7.02319 9.78003C7.0188 9.79626 7.02502 9.81354 7.03882 9.82324C7.0448 9.82739 7.05151 9.82977 7.05835 9.83032C7.0675 9.83112 7.0769 9.82874 7.08472 9.82318L7.32471 9.65118L7.56482 9.82318C7.57837 9.83405 7.59753 9.83466 7.61169 9.82471C7.62598 9.8147 7.63196 9.79651 7.62634 9.78003L7.53601 9.49841L7.776 9.32159C7.78296 9.31604 7.7876 9.30847 7.78967 9.30017C7.7915 9.29285 7.79138 9.28503 7.78882 9.27759C7.78345 9.26172 7.7688 9.25085 7.75195 9.25043H7.45679ZM9.72559 9.25043L9.63037 8.96881C9.61914 8.93042 9.56641 8.93042 9.56555 8.96881L9.47034 9.25043H9.16638C9.14954 9.25085 9.13489 9.26172 9.12952 9.27759C9.12415 9.29352 9.12927 9.3111 9.14233 9.32159L9.38232 9.49841L9.29199 9.78003C9.28979 9.78833 9.29028 9.79694 9.29321 9.80469C9.29602 9.81201 9.3009 9.81854 9.30762 9.82324C9.31299 9.82697 9.31897 9.82922 9.3252 9.83008C9.33496 9.83142 9.34509 9.82916 9.35352 9.82318L9.59351 9.65118L9.83362 9.82318C9.84717 9.83405 9.86633 9.83466 9.88049 9.82471C9.89478 9.8147 9.90076 9.79651 9.89514 9.78003L9.80481 9.49841L10.0448 9.32159C10.0579 9.3111 10.063 9.29352 10.0576 9.27759C10.0522 9.26172 10.0376 9.25085 10.0208 9.25043H9.72559ZM11.8936 8.96881C11.8936 8.95569 11.8866 8.94348 11.8751 8.93695C11.8708 8.93445 11.8662 8.93292 11.8615 8.93231C11.8536 8.93127 11.8455 8.93286 11.8384 8.93695C11.827 8.94348 11.8199 8.95569 11.8199 8.96881L11.7247 9.25043H11.4296C11.4127 9.25085 11.3981 9.26172 11.3927 9.27759C11.3873 9.29352 11.3925 9.3111 11.4055 9.32159L11.6455 9.49841L11.5552 9.78003C11.5508 9.79626 11.557 9.81354 11.5708 9.82324C11.5846 9.83289 11.603 9.83289 11.6168 9.82318L11.8568 9.65118L12.0968 9.82318C12.1025 9.82782 12.1094 9.83057 12.1165 9.83142C12.1259 9.83264 12.1356 9.83044 12.1438 9.82471C12.158 9.8147 12.1639 9.79651 12.1583 9.78003L12.068 9.49841L12.308 9.32159C12.321 9.3111 12.3262 9.29352 12.3208 9.27759C12.3154 9.26172 12.3008 9.25085 12.2839 9.25043H11.9888L11.8936 8.96881ZM14.1624 8.96881C14.1586 8.95349 14.1447 8.94287 14.1289 8.94324C14.1132 8.94366 14.0997 8.95496 14.0968 8.9704L14.0016 9.25201H13.7064C13.6991 9.2522 13.6921 9.25433 13.6862 9.25806C13.6785 9.26288 13.6725 9.27026 13.6694 9.27924C13.6641 9.2951 13.6693 9.31268 13.6824 9.32318L13.9224 9.5L13.824 9.78003C13.8196 9.79626 13.8258 9.81354 13.8396 9.82324C13.8534 9.83289 13.8718 9.83289 13.8856 9.82318L14.1256 9.65118L14.3656 9.82318C14.3704 9.82697 14.3757 9.82947 14.3813 9.83075C14.392 9.83319 14.4033 9.83118 14.4126 9.82471C14.4268 9.8147 14.4327 9.79651 14.4271 9.78003L14.3368 9.49841L14.5768 9.32159C14.5898 9.3111 14.595 9.29352 14.5896 9.27759C14.5842 9.26172 14.5696 9.25085 14.5527 9.25043H14.2576L14.1624 8.96881Z" fill="#0D47A1"/>
<path d="M5.09351 14.8168L5.18872 15.0984H5.48401C5.50073 15.0988 5.5155 15.1097 5.52087 15.1256C5.52624 15.1415 5.52104 15.1591 5.50793 15.1696L5.26794 15.3464L5.3584 15.628C5.36389 15.6445 5.35803 15.6627 5.34375 15.6727C5.32947 15.6827 5.3103 15.6821 5.29675 15.6712L5.05676 15.4992L4.81677 15.6712C4.80298 15.6809 4.78455 15.6809 4.77075 15.6712C4.75696 15.6615 4.75072 15.6443 4.75513 15.628L4.85352 15.348L4.61353 15.1712C4.60046 15.1607 4.59534 15.1431 4.60071 15.1272C4.60608 15.1113 4.62073 15.1004 4.63757 15.1H4.93359L5.02881 14.8184C5.03442 14.7784 5.0824 14.7784 5.09351 14.8168ZM14.1289 14.7913C14.1447 14.7909 14.1586 14.8015 14.1624 14.8168L14.2576 15.0984H14.5527C14.5696 15.0988 14.5842 15.1097 14.5896 15.1256C14.595 15.1415 14.5899 15.1591 14.5768 15.1696L14.3368 15.3464L14.4271 15.628C14.4327 15.6445 14.4268 15.6627 14.4126 15.6727C14.3983 15.6827 14.3792 15.6821 14.3656 15.6712L14.1256 15.4992L13.8856 15.6712C13.8718 15.6809 13.8534 15.6809 13.8396 15.6712C13.8258 15.6616 13.8196 15.6443 13.824 15.628L13.9224 15.348L13.6824 15.1712C13.6693 15.1607 13.6641 15.1431 13.6694 15.1272C13.6748 15.1113 13.6896 15.1004 13.7064 15.1H14.0016L14.0968 14.8184C14.0997 14.8029 14.1132 14.7916 14.1289 14.7913ZM11.8601 14.7913C11.8759 14.7909 11.8898 14.8015 11.8936 14.8168L11.9888 15.0984H12.2839C12.3008 15.0988 12.3154 15.1097 12.3208 15.1256C12.3262 15.1415 12.321 15.1591 12.308 15.1696L12.068 15.3464L12.1583 15.628C12.1639 15.6445 12.158 15.6627 12.1438 15.6727C12.1295 15.6827 12.1104 15.6821 12.0968 15.6712L11.8568 15.4992L11.6168 15.6712C11.603 15.6809 11.5846 15.6809 11.5708 15.6712C11.557 15.6616 11.5508 15.6443 11.5552 15.628L11.6536 15.348L11.4136 15.1712C11.4005 15.1607 11.3953 15.1431 11.4006 15.1272C11.406 15.1113 11.4208 15.1004 11.4376 15.1H11.7328L11.828 14.8184C11.8309 14.8029 11.8444 14.7916 11.8601 14.7913ZM7.36157 14.8168L7.45679 15.0984H7.75195C7.76874 15.0988 7.78345 15.1097 7.78882 15.1256C7.79418 15.1415 7.78911 15.1591 7.776 15.1696L7.53601 15.3464L7.62634 15.628C7.63196 15.6445 7.62598 15.6627 7.61169 15.6727C7.59753 15.6827 7.57837 15.6821 7.56482 15.6712L7.32471 15.4992L7.08472 15.6712C7.07092 15.6809 7.05261 15.6809 7.03882 15.6712C7.02502 15.6616 7.0188 15.6443 7.02319 15.628L7.12158 15.348L6.88159 15.1712C6.86841 15.1607 6.86328 15.1431 6.86865 15.1272C6.87402 15.1113 6.88879 15.1004 6.90552 15.1H7.20154L7.29675 14.8184C7.29761 14.7784 7.35034 14.7784 7.36157 14.8168ZM9.63037 14.8168L9.72559 15.0984H10.0208C10.0376 15.0988 10.0522 15.1097 10.0576 15.1256C10.063 15.1415 10.0579 15.1591 10.0448 15.1696L9.80481 15.3464L9.89514 15.628C9.90076 15.6445 9.89478 15.6627 9.88049 15.6727C9.86633 15.6827 9.84717 15.6821 9.83362 15.6712L9.59351 15.4992L9.35352 15.6712C9.33972 15.6809 9.32141 15.6809 9.30762 15.6712C9.29382 15.6615 9.28758 15.6443 9.29199 15.628L9.39038 15.348L9.15039 15.1712C9.13721 15.1607 9.13208 15.1431 9.13745 15.1272C9.14282 15.1113 9.15759 15.1004 9.17432 15.1H9.47034L9.56555 14.8184C9.56641 14.7784 9.61914 14.7784 9.63037 14.8168ZM6.22791 14.0728L6.32312 14.3544H6.61841C6.63513 14.3549 6.6499 14.3657 6.65527 14.3816C6.66064 14.3975 6.65552 14.4151 6.64233 14.4256L6.40234 14.6024L6.4928 14.884C6.49829 14.9005 6.49243 14.9187 6.47815 14.9286C6.46387 14.9387 6.4447 14.938 6.43115 14.9272L6.19116 14.7552L5.95117 14.9272C5.93738 14.9369 5.91895 14.9369 5.90515 14.9272C5.89136 14.9175 5.88513 14.9003 5.88953 14.884L5.97998 14.6024L5.73999 14.4256C5.72681 14.4151 5.72168 14.3975 5.72705 14.3816C5.73242 14.3657 5.74719 14.3549 5.76392 14.3544H6.06799L6.16321 14.0728C6.16882 14.0344 6.2168 14.0344 6.22791 14.0728ZM13.0095 14.041C13.021 14.0475 13.028 14.0596 13.028 14.0728L13.1232 14.3544H13.4183C13.4352 14.3549 13.4498 14.3657 13.4552 14.3816C13.4606 14.3975 13.4554 14.4151 13.4424 14.4256L13.2024 14.6024L13.2927 14.884C13.2983 14.9005 13.2924 14.9187 13.2782 14.9286C13.2639 14.9387 13.2448 14.938 13.2312 14.9272L12.9912 14.7552L12.7512 14.9272C12.7374 14.9369 12.719 14.9369 12.7052 14.9272C12.6914 14.9175 12.6852 14.9003 12.6896 14.884L12.7799 14.6024L12.5399 14.4256C12.5269 14.4151 12.5217 14.3975 12.5271 14.3816C12.5325 14.3657 12.5471 14.3549 12.564 14.3544H12.8591L12.9543 14.0728C12.9543 14.0596 12.9614 14.0475 12.9728 14.041C12.9841 14.0344 12.9982 14.0344 13.0095 14.041ZM10.7648 14.0728L10.86 14.3544H11.1552C11.172 14.3549 11.1866 14.3657 11.192 14.3816C11.1974 14.3975 11.1923 14.4151 11.1792 14.4256L10.9392 14.6024L11.0295 14.884C11.0352 14.9005 11.0292 14.9187 11.0149 14.9286C11.0007 14.9387 10.9816 14.938 10.968 14.9272L10.7279 14.7552L10.4879 14.9272C10.4741 14.9369 10.4558 14.9369 10.442 14.9272C10.4282 14.9175 10.422 14.9003 10.4264 14.884L10.5167 14.6024L10.2767 14.4256C10.2636 14.4151 10.2586 14.3975 10.2639 14.3816C10.2693 14.3657 10.284 14.3549 10.3008 14.3544H10.5959L10.6912 14.0728C10.7008 14.0344 10.7535 14.0344 10.7648 14.0728ZM8.49597 14.0728L8.59119 14.3544H8.88635C8.9032 14.3549 8.91785 14.3657 8.92322 14.3816C8.92859 14.3975 8.92346 14.4151 8.9104 14.4256L8.67041 14.6024L8.76074 14.884C8.76636 14.9005 8.76038 14.9187 8.74609 14.9286C8.73193 14.9387 8.71277 14.938 8.69922 14.9272L8.45911 14.7552L8.21912 14.9272C8.20533 14.9369 8.18701 14.9369 8.17322 14.9272C8.15942 14.9176 8.15318 14.9003 8.15759 14.884L8.24792 14.6024L8.00793 14.4256C7.99487 14.4151 7.98975 14.3975 7.99512 14.3816C8.00049 14.3657 8.01514 14.3549 8.03198 14.3544H8.33594L8.43115 14.0728C8.43201 14.0344 8.48474 14.0344 8.49597 14.0728ZM7.36157 13.352L7.45679 13.6336H7.75195C7.7688 13.634 7.78345 13.6449 7.78882 13.6608C7.79419 13.6768 7.78906 13.6943 7.776 13.7048L7.53601 13.8816L7.62634 14.1632C7.63196 14.1797 7.62598 14.1979 7.61169 14.2079C7.59744 14.2179 7.57842 14.2173 7.56482 14.2064L7.32471 14.0344L7.08472 14.2064C7.07092 14.2161 7.05261 14.2161 7.03882 14.2064C7.02502 14.1968 7.0188 14.1794 7.02319 14.1632L7.11353 13.8816L6.87354 13.7048C6.86047 13.6943 6.85535 13.6768 6.86072 13.6608C6.86609 13.6449 6.88074 13.634 6.89758 13.6336H7.20154L7.29675 13.352C7.29761 13.3192 7.35034 13.3192 7.36157 13.352ZM14.1624 13.352L14.2576 13.6336H14.5527C14.5696 13.634 14.5842 13.6449 14.5896 13.6608C14.595 13.6768 14.5898 13.6943 14.5768 13.7048L14.3368 13.8816L14.4271 14.1632C14.4327 14.1797 14.4268 14.1979 14.4126 14.2079C14.3983 14.2179 14.3792 14.2173 14.3656 14.2064L14.1256 14.0344L13.8856 14.2064C13.8718 14.2161 13.8534 14.2161 13.8396 14.2064C13.8258 14.1968 13.8196 14.1794 13.824 14.1632L13.9143 13.8816L13.6743 13.7048C13.6613 13.6943 13.6561 13.6768 13.6615 13.6608C13.6669 13.6449 13.6815 13.634 13.6984 13.6336H13.9935L14.0887 13.352C14.1031 13.3192 14.156 13.3192 14.1624 13.352ZM5.09351 13.352L5.18872 13.6336H5.48401C5.50073 13.634 5.5155 13.6449 5.52087 13.6608C5.52625 13.6768 5.52112 13.6943 5.50793 13.7048L5.26794 13.8816L5.3584 14.1632C5.36389 14.1797 5.35803 14.1979 5.34375 14.2079C5.32947 14.2179 5.3103 14.2173 5.29675 14.2064L5.05676 14.0344L4.81677 14.2064C4.80298 14.2161 4.78455 14.2161 4.77075 14.2064C4.75696 14.1968 4.75073 14.1794 4.75513 14.1632L4.84558 13.8816L4.60559 13.7048C4.59241 13.6943 4.58728 13.6768 4.59265 13.6608C4.59802 13.6449 4.61279 13.634 4.62952 13.6336H4.93359L5.02881 13.352C5.03442 13.3192 5.0824 13.3192 5.09351 13.352ZM11.8936 13.352L11.9888 13.6336H12.2839C12.3008 13.634 12.3154 13.6449 12.3208 13.6608C12.3262 13.6768 12.321 13.6943 12.308 13.7048L12.068 13.8816L12.1583 14.1632C12.1639 14.1797 12.158 14.1979 12.1438 14.2079C12.1295 14.2179 12.1104 14.2173 12.0968 14.2064L11.8568 14.0344L11.6168 14.2064C11.603 14.2161 11.5846 14.2161 11.5708 14.2064C11.557 14.1968 11.5508 14.1794 11.5552 14.1632L11.6455 13.8816L11.4055 13.7048C11.3925 13.6943 11.3873 13.6768 11.3927 13.6608C11.3981 13.6449 11.4128 13.634 11.4296 13.6336H11.7247L11.8199 13.352C11.8343 13.3192 11.8872 13.3192 11.8936 13.352ZM9.63037 13.352L9.72559 13.6336H10.0208C10.0376 13.634 10.0522 13.6449 10.0576 13.6608C10.063 13.6768 10.0579 13.6943 10.0448 13.7048L9.80481 13.8816L9.89514 14.1632C9.90076 14.1797 9.89478 14.1979 9.88049 14.2079C9.86633 14.2179 9.84717 14.2173 9.83362 14.2064L9.59351 14.0344L9.35352 14.2064C9.33972 14.2161 9.32141 14.2161 9.30762 14.2064C9.29382 14.1968 9.2876 14.1794 9.29199 14.1632L9.38232 13.8816L9.14233 13.7048C9.12927 13.6943 9.12415 13.6768 9.12952 13.6608C9.13489 13.6449 9.14954 13.634 9.16638 13.6336H9.47034L9.56555 13.352C9.56641 13.3192 9.61914 13.3192 9.63037 13.352ZM6.22791 12.6088L6.32312 12.8904H6.61841C6.63513 12.8908 6.6499 12.9017 6.65527 12.9176C6.66064 12.9335 6.65552 12.9511 6.64233 12.9616L6.40234 13.1384L6.4928 13.42C6.49829 13.4365 6.49243 13.4547 6.47815 13.4647C6.46387 13.4747 6.4447 13.4741 6.43115 13.4632L6.19116 13.2912L5.95117 13.4632C5.93738 13.4729 5.91895 13.4729 5.90515 13.4632C5.89136 13.4536 5.88513 13.4363 5.88953 13.42L5.98792 13.14L5.74792 12.9632C5.73486 12.9527 5.72974 12.9351 5.73511 12.9192C5.74048 12.9033 5.75513 12.8925 5.77197 12.892H6.06799L6.16321 12.6104C6.16882 12.5704 6.2168 12.5704 6.22791 12.6088ZM12.9912 12.572C13.0115 12.572 13.028 12.5885 13.028 12.6088L13.1232 12.8904H13.4183C13.4352 12.8908 13.4498 12.9017 13.4552 12.9176C13.4606 12.9335 13.4554 12.9511 13.4424 12.9616L13.2024 13.1384L13.2927 13.42C13.2983 13.4365 13.2924 13.4547 13.2782 13.4647C13.2639 13.4747 13.2448 13.4741 13.2312 13.4632L12.9912 13.2912L12.7512 13.4632C12.7374 13.4729 12.719 13.4729 12.7052 13.4632C12.6914 13.4536 12.6852 13.4363 12.6896 13.42L12.7799 13.1384L12.5399 12.9616C12.5269 12.9511 12.5217 12.9335 12.5271 12.9176C12.5325 12.9017 12.5472 12.8908 12.564 12.8904H12.8591L12.9543 12.6088C12.9543 12.5885 12.9709 12.572 12.9912 12.572ZM10.7648 12.6088L10.86 12.8904H11.1552C11.172 12.8908 11.1866 12.9017 11.192 12.9176C11.1974 12.9335 11.1923 12.9511 11.1792 12.9616L10.9392 13.1384L11.0295 13.42C11.0352 13.4365 11.0292 13.4547 11.0149 13.4647C11.0007 13.4747 10.9816 13.4741 10.968 13.4632L10.7279 13.2912L10.4879 13.4632C10.4741 13.4729 10.4558 13.4729 10.442 13.4632C10.4282 13.4535 10.422 13.4362 10.4264 13.42L10.5167 13.1384L10.2767 12.9616C10.2637 12.9511 10.2585 12.9335 10.2639 12.9176C10.2693 12.9017 10.284 12.8908 10.3008 12.8904H10.5959L10.6912 12.6088C10.7008 12.5704 10.7535 12.5704 10.7648 12.6088ZM8.49597 12.6088L8.59119 12.8904H8.88635C8.9032 12.8908 8.91785 12.9017 8.92322 12.9176C8.92859 12.9335 8.92346 12.9511 8.9104 12.9616L8.67041 13.1384L8.76074 13.42C8.76636 13.4365 8.76038 13.4547 8.74609 13.4647C8.73193 13.4747 8.71277 13.4741 8.69922 13.4632L8.45911 13.2912L8.21912 13.4632C8.20532 13.4729 8.18701 13.4729 8.17322 13.4632C8.15942 13.4536 8.1532 13.4363 8.15759 13.42L8.25598 13.14L8.01599 12.9632C8.00289 12.9527 7.99769 12.9351 8.00305 12.9192C8.00842 12.9033 8.02319 12.8925 8.03992 12.892H8.33594L8.43115 12.6104C8.43201 12.5704 8.48474 12.5704 8.49597 12.6088ZM7.36157 11.8928L7.45679 12.1744H7.75195C7.76874 12.1748 7.78345 12.1857 7.78882 12.2016C7.79418 12.2175 7.78911 12.2351 7.776 12.2456L7.53601 12.4224L7.62634 12.704C7.63196 12.7205 7.62598 12.7387 7.61169 12.7487C7.59753 12.7587 7.57837 12.7581 7.56482 12.7472L7.32471 12.5752L7.08472 12.7472C7.07092 12.7569 7.05261 12.7569 7.03882 12.7473C7.02502 12.7375 7.0188 12.7203 7.02319 12.704L7.12158 12.424L6.88159 12.2472C6.86841 12.2367 6.86328 12.2191 6.86865 12.2032C6.87402 12.1873 6.88873 12.1765 6.90552 12.176H7.20154L7.29675 11.8944C7.29761 11.8544 7.35034 11.8544 7.36157 11.8928ZM14.1289 11.8672C14.1447 11.8669 14.1586 11.8775 14.1624 11.8928L14.2576 12.1744H14.5527C14.5696 12.1748 14.5842 12.1857 14.5896 12.2016C14.595 12.2175 14.5898 12.2351 14.5768 12.2456L14.3368 12.4224L14.4271 12.704C14.4327 12.7205 14.4268 12.7387 14.4126 12.7487C14.3983 12.7587 14.3792 12.7581 14.3656 12.7472L14.1256 12.5752L13.8856 12.7472C13.8718 12.7569 13.8534 12.7569 13.8396 12.7473C13.8258 12.7375 13.8196 12.7203 13.824 12.704L13.9224 12.424L13.6824 12.2472C13.6693 12.2367 13.6641 12.2191 13.6694 12.2032C13.6748 12.1873 13.6896 12.1765 13.7064 12.176H14.0016L14.0968 11.8944C14.0997 11.8789 14.1132 11.8676 14.1289 11.8672ZM11.8568 11.856C11.8771 11.856 11.8936 11.8725 11.8936 11.8928L11.9888 12.1744H12.2839C12.3008 12.1748 12.3154 12.1857 12.3208 12.2016C12.3262 12.2175 12.321 12.2351 12.308 12.2456L12.068 12.4224L12.1583 12.704C12.1639 12.7205 12.158 12.7387 12.1438 12.7487C12.1295 12.7587 12.1104 12.7581 12.0968 12.7472L11.8568 12.5752L11.6168 12.7472C11.603 12.7569 11.5846 12.7569 11.5708 12.7473C11.557 12.7375 11.5508 12.7203 11.5552 12.704L11.6455 12.4224L11.4055 12.2456C11.3925 12.2351 11.3873 12.2175 11.3927 12.2016C11.3981 12.1857 11.4127 12.1748 11.4296 12.1744H11.7247L11.8199 11.8928C11.8199 11.8725 11.8364 11.856 11.8568 11.856ZM5.09351 11.8928L5.18872 12.1744H5.48401C5.50073 12.1748 5.5155 12.1857 5.52087 12.2016C5.52625 12.2175 5.52112 12.2351 5.50793 12.2456L5.26794 12.4224L5.3584 12.704C5.36389 12.7205 5.35803 12.7387 5.34375 12.7487C5.32947 12.7587 5.3103 12.7581 5.29675 12.7472L5.05676 12.5752L4.81677 12.7472C4.80299 12.7569 4.78455 12.7569 4.77075 12.7473C4.75696 12.7375 4.75073 12.7203 4.75513 12.704L4.85352 12.424L4.61353 12.2472C4.60046 12.2367 4.59534 12.2191 4.60071 12.2032C4.60608 12.1873 4.62073 12.1765 4.63757 12.176H4.93359L5.02881 11.8944C5.03442 11.8544 5.0824 11.8544 5.09351 11.8928ZM9.63037 11.8928L9.72559 12.1744H10.0208C10.0376 12.1748 10.0522 12.1857 10.0576 12.2016C10.063 12.2175 10.0579 12.2351 10.0448 12.2456L9.80481 12.4224L9.89514 12.704C9.90076 12.7205 9.89478 12.7387 9.88049 12.7487C9.86633 12.7587 9.84717 12.7581 9.83362 12.7472L9.59351 12.5752L9.35352 12.7472C9.33973 12.7569 9.32141 12.7569 9.30762 12.7473C9.29382 12.7375 9.2876 12.7203 9.29199 12.704L9.38232 12.4224L9.14233 12.2456C9.12923 12.2351 9.12415 12.2175 9.12952 12.2016C9.13489 12.1857 9.14954 12.1748 9.16638 12.1744H9.47034L9.56555 11.8928C9.56641 11.8544 9.61914 11.8544 9.63037 11.8928ZM6.22791 11.1432L6.32312 11.4248H6.61841C6.63513 11.4252 6.6499 11.4361 6.65527 11.452C6.66064 11.468 6.65552 11.4855 6.64233 11.496L6.40234 11.6728L6.4928 11.9544C6.49829 11.9709 6.49243 11.9891 6.47815 11.9991C6.46387 12.0091 6.4447 12.0085 6.43115 11.9976L6.19116 11.8256L5.95117 11.9976C5.93738 12.0073 5.91895 12.0073 5.90515 11.9976C5.89136 11.988 5.88513 11.9706 5.88953 11.9544L5.97998 11.6728L5.73999 11.496C5.72681 11.4855 5.72168 11.468 5.72705 11.452C5.73242 11.4361 5.74713 11.4252 5.76392 11.4248H6.06799L6.16321 11.1432C6.16882 11.1104 6.2168 11.1104 6.22791 11.1432ZM10.7648 11.1432L10.86 11.4248H11.1552C11.172 11.4252 11.1866 11.4361 11.192 11.452C11.1974 11.4679 11.1923 11.4855 11.1792 11.496L10.9392 11.6728L11.0295 11.9544C11.0352 11.9709 11.0292 11.9891 11.0149 11.9991C11.0006 12.0091 10.9816 12.0085 10.968 11.9976L10.7279 11.8256L10.4879 11.9976C10.4741 12.0073 10.4558 12.0073 10.442 11.9976C10.4282 11.988 10.422 11.9706 10.4264 11.9544L10.5167 11.6728L10.2767 11.496C10.2636 11.4855 10.2586 11.4679 10.2639 11.452C10.2693 11.4361 10.2839 11.4252 10.3008 11.4248H10.5959L10.6912 11.1432C10.7008 11.1104 10.7535 11.1104 10.7648 11.1432ZM8.49597 11.1432L8.59119 11.4248H8.88635C8.9032 11.4252 8.91785 11.4361 8.92322 11.452C8.92859 11.468 8.92346 11.4855 8.9104 11.496L8.67041 11.6728L8.76074 11.9544C8.76636 11.9709 8.76038 11.9891 8.74609 11.9991C8.73193 12.0091 8.71277 12.0085 8.69922 11.9976L8.45911 11.8256L8.21912 11.9976C8.20532 12.0073 8.18701 12.0073 8.17322 11.9976C8.15942 11.988 8.1532 11.9706 8.15759 11.9544L8.24792 11.6728L8.00793 11.496C7.99487 11.4855 7.98975 11.468 7.99512 11.452C8.00049 11.4361 8.01514 11.4252 8.03198 11.4248H8.33594L8.43115 11.1432C8.43201 11.1104 8.48474 11.1104 8.49597 11.1432ZM13.028 11.1432L13.1232 11.4248H13.4183C13.4351 11.4252 13.4498 11.4361 13.4552 11.452C13.4606 11.468 13.4554 11.4855 13.4424 11.496L13.2024 11.6728L13.2927 11.9544C13.2983 11.9709 13.2924 11.9891 13.2782 11.9991C13.2639 12.0091 13.2448 12.0085 13.2312 11.9976L12.9912 11.8256L12.7512 11.9976C12.7374 12.0073 12.719 12.0073 12.7052 11.9976C12.6914 11.988 12.6852 11.9706 12.6896 11.9544L12.7799 11.6728L12.5399 11.496C12.5269 11.4855 12.5217 11.468 12.5271 11.452C12.5325 11.4361 12.5471 11.4252 12.564 11.4248H12.8591L12.9543 11.1432C12.9688 11.1104 13.0216 11.1104 13.028 11.1432ZM9.63037 10.428L9.72559 10.7096H10.0208C10.0376 10.71 10.0522 10.7209 10.0576 10.7368C10.063 10.7527 10.0579 10.7703 10.0448 10.7808L9.80481 10.9576L9.89514 11.2392C9.90076 11.2557 9.89478 11.2739 9.88049 11.2839C9.86633 11.2939 9.84717 11.2933 9.83362 11.2824L9.59351 11.1104L9.35352 11.2824C9.33973 11.2921 9.32141 11.2921 9.30762 11.2824C9.29382 11.2727 9.28758 11.2555 9.29199 11.2392L9.38232 10.9576L9.14233 10.7808C9.12927 10.7703 9.12415 10.7527 9.12952 10.7368C9.13489 10.7209 9.14954 10.71 9.16638 10.7096H9.47034L9.56555 10.428C9.56641 10.3952 9.61914 10.3952 9.63037 10.428ZM5.09351 10.428L5.18872 10.7096H5.48401C5.50073 10.71 5.5155 10.7209 5.52087 10.7368C5.52625 10.7527 5.52112 10.7703 5.50793 10.7808L5.26794 10.9576L5.3584 11.2392C5.36389 11.2557 5.35803 11.2739 5.34375 11.2839C5.32947 11.2939 5.3103 11.2933 5.29675 11.2824L5.05676 11.1104L4.81677 11.2824C4.80298 11.2921 4.78455 11.2921 4.77075 11.2824C4.75696 11.2728 4.75073 11.2555 4.75513 11.2392L4.84558 10.9576L4.60559 10.7808C4.59241 10.7703 4.58728 10.7527 4.59265 10.7368C4.59802 10.7209 4.61279 10.71 4.62952 10.7096H4.93359L5.02881 10.428C5.03442 10.3952 5.0824 10.3952 5.09351 10.428ZM7.36475 10.428L7.45996 10.7096H7.75671C7.77356 10.71 7.78833 10.7209 7.7937 10.7368C7.79907 10.7527 7.79387 10.7703 7.78076 10.7808L7.54077 10.9576L7.6311 11.2392C7.63672 11.2557 7.63074 11.2739 7.61658 11.2839C7.60229 11.2939 7.58313 11.2933 7.56958 11.2824L7.32959 11.1104L7.0896 11.2824C7.07581 11.2921 7.05737 11.2921 7.04358 11.2824C7.02979 11.2728 7.02356 11.2555 7.02795 11.2392L7.11841 10.9576L6.87842 10.7808C6.86531 10.7703 6.86011 10.7527 6.86548 10.7368C6.87085 10.7209 6.88562 10.71 6.90234 10.7096H7.19678L7.29199 10.428C7.29761 10.3952 7.35034 10.3952 7.36475 10.428ZM11.8936 10.428L11.9888 10.7096H12.2839C12.3007 10.71 12.3154 10.7209 12.3208 10.7368C12.3262 10.7527 12.321 10.7703 12.308 10.7808L12.068 10.9576L12.1583 11.2392C12.1639 11.2557 12.158 11.2739 12.1438 11.2839C12.1295 11.2939 12.1104 11.2933 12.0968 11.2824L11.8568 11.1104L11.6168 11.2824C11.603 11.2921 11.5846 11.2921 11.5708 11.2824C11.557 11.2727 11.5508 11.2555 11.5552 11.2392L11.6455 10.9576L11.4055 10.7808C11.3925 10.7703 11.3873 10.7527 11.3927 10.7368C11.3981 10.7209 11.4127 10.71 11.4296 10.7096H11.7247L11.8199 10.428C11.8344 10.3952 11.8872 10.3952 11.8936 10.428ZM14.1624 10.428L14.2576 10.7096H14.5527C14.5696 10.71 14.5842 10.7209 14.5896 10.7368C14.595 10.7527 14.5898 10.7703 14.5768 10.7808L14.3368 10.9576L14.4271 11.2392C14.4327 11.2557 14.4268 11.2739 14.4126 11.2839C14.3983 11.2939 14.3792 11.2933 14.3656 11.2824L14.1256 11.1104L13.8856 11.2824C13.8718 11.2921 13.8534 11.2921 13.8396 11.2824C13.8258 11.2728 13.8196 11.2555 13.824 11.2392L13.9143 10.9576L13.6743 10.7808C13.6613 10.7703 13.6561 10.7527 13.6615 10.7368C13.6669 10.7209 13.6815 10.71 13.6984 10.7096H13.9935L14.0887 10.428C14.1031 10.3952 14.156 10.3952 14.1624 10.428ZM10.7648 9.68402L10.86 9.96564H11.1552C11.1719 9.96606 11.1867 9.97688 11.192 9.9928C11.1974 10.0087 11.1923 10.0263 11.1792 10.0368L10.9392 10.2136L11.0295 10.4952C11.0352 10.5117 11.0292 10.5299 11.0149 10.5399C11.0007 10.5499 10.9816 10.5493 10.968 10.5384L10.7279 10.3664L10.4879 10.5384C10.4741 10.5481 10.4558 10.5481 10.442 10.5385C10.4282 10.5288 10.422 10.5114 10.4264 10.4952L10.5167 10.2136L10.2767 10.0368C10.2637 10.0263 10.2585 10.0087 10.2639 9.9928C10.2693 9.97693 10.2839 9.966 10.3008 9.96564H10.5959L10.6912 9.68402C10.7008 9.64563 10.7535 9.64563 10.7648 9.68402ZM8.49597 9.68402L8.59119 9.96564H8.88635C8.9032 9.966 8.91785 9.97693 8.92322 9.9928C8.92859 10.0087 8.92346 10.0263 8.9104 10.0368L8.67041 10.2136L8.76074 10.4952C8.76636 10.5117 8.76038 10.5299 8.74609 10.5399C8.73193 10.5499 8.71277 10.5493 8.69922 10.5384L8.45911 10.3664L8.21912 10.5384C8.20533 10.5481 8.18701 10.5481 8.17322 10.5385C8.15942 10.5287 8.1532 10.5115 8.15759 10.4952L8.25598 10.2152L8.01599 10.0384C8.00281 10.0279 7.99768 10.0103 8.00305 9.99445C8.00842 9.97852 8.02319 9.96765 8.03992 9.96722H8.33594L8.43115 9.68561C8.43195 9.64561 8.48477 9.64562 8.49597 9.68402ZM6.22791 9.68402L6.32312 9.96564H6.61841C6.63513 9.966 6.6499 9.97693 6.65527 9.9928C6.66064 10.0087 6.65552 10.0263 6.64233 10.0368L6.40234 10.2136L6.4928 10.4952C6.49829 10.5117 6.49243 10.5299 6.47815 10.5399C6.46387 10.5499 6.4447 10.5493 6.43115 10.5384L6.19116 10.3664L5.95117 10.5384C5.93738 10.5481 5.91895 10.5481 5.90515 10.5385C5.89136 10.5287 5.88513 10.5115 5.88953 10.4952L5.98792 10.2152L5.74792 10.0384C5.73486 10.0279 5.72974 10.0103 5.73511 9.99445C5.74048 9.97852 5.75513 9.96765 5.77197 9.96722H6.06799L6.16321 9.68561C6.16882 9.64563 6.2168 9.64563 6.22791 9.68402ZM13.0095 9.65216C13.021 9.65869 13.028 9.67084 13.028 9.68402L13.1232 9.96564H13.4183C13.4352 9.966 13.4498 9.97693 13.4552 9.9928C13.4606 10.0087 13.4554 10.0263 13.4424 10.0368L13.2024 10.2136L13.2927 10.4952C13.2983 10.5117 13.2924 10.5299 13.2782 10.5399C13.2639 10.5498 13.2448 10.5493 13.2312 10.5384L12.9912 10.3664L12.7512 10.5384C12.7374 10.5481 12.719 10.5481 12.7052 10.5385C12.6914 10.5287 12.6852 10.5115 12.6896 10.4952L12.7799 10.2136L12.5399 10.0368C12.5269 10.0263 12.5217 10.0087 12.5271 9.9928C12.5325 9.97693 12.5471 9.966 12.564 9.96564H12.8591L12.9543 9.68402C12.9543 9.67084 12.9614 9.65869 12.9728 9.65216C12.9841 9.64557 12.9982 9.64557 13.0095 9.65216ZM5.09351 8.96881L5.18872 9.25043H5.48401C5.50073 9.25085 5.5155 9.26172 5.52087 9.27759C5.52625 9.29352 5.52112 9.3111 5.50793 9.32159L5.26794 9.49841L5.3584 9.78003C5.36389 9.79651 5.35803 9.8147 5.34375 9.82471C5.32947 9.83466 5.3103 9.83405 5.29675 9.82318L5.05676 9.65118L4.81677 9.82318C4.80298 9.83289 4.78455 9.83289 4.77075 9.82324C4.75696 9.81354 4.75073 9.79626 4.75513 9.78003L4.85352 9.5L4.61353 9.32318C4.60046 9.31268 4.59534 9.2951 4.60071 9.27924C4.60608 9.26331 4.62073 9.25244 4.63757 9.25201H4.93359L5.02881 8.9704C5.03442 8.93042 5.0824 8.93042 5.09351 8.96881ZM7.36157 8.96881L7.45679 9.25043H7.75195C7.7688 9.25085 7.78345 9.26172 7.78882 9.27759C7.79418 9.2935 7.78911 9.31109 7.776 9.32159L7.53601 9.49841L7.62634 9.78003C7.63196 9.79651 7.62598 9.8147 7.61169 9.82471C7.59753 9.83466 7.57837 9.83405 7.56482 9.82318L7.32471 9.65118L7.08472 9.82318C7.07093 9.83287 7.05261 9.83292 7.03882 9.82324C7.02502 9.81354 7.0188 9.79626 7.02319 9.78003L7.12158 9.5L6.88159 9.32318C6.86841 9.31268 6.86328 9.2951 6.86865 9.27924C6.87402 9.26331 6.88879 9.25244 6.90552 9.25201H7.20154L7.29675 8.9704C7.29755 8.9304 7.35037 8.93041 7.36157 8.96881ZM9.63037 8.96881L9.72559 9.25043H10.0208C10.0376 9.25085 10.0522 9.26172 10.0576 9.27759C10.063 9.29352 10.0579 9.3111 10.0448 9.32159L9.80481 9.49841L9.89514 9.78003C9.90076 9.79651 9.89478 9.8147 9.88049 9.82471C9.86633 9.83466 9.84717 9.83405 9.83362 9.82318L9.59351 9.65118L9.35352 9.82318C9.33973 9.83287 9.32141 9.83292 9.30762 9.82324C9.29382 9.81357 9.28758 9.79629 9.29199 9.78003L9.38232 9.49841L9.14233 9.32159C9.12927 9.3111 9.12415 9.29352 9.12952 9.27759C9.13489 9.26172 9.14954 9.25085 9.16638 9.25043H9.47034L9.56555 8.96881C9.56641 8.93042 9.61914 8.93042 9.63037 8.96881ZM11.8751 8.93695C11.8866 8.94348 11.8936 8.95569 11.8936 8.96881L11.9888 9.25043H12.2839C12.3008 9.25085 12.3154 9.26172 12.3208 9.27759C12.3262 9.29352 12.321 9.3111 12.308 9.32159L12.068 9.49841L12.1583 9.78003C12.1639 9.79651 12.158 9.8147 12.1438 9.82471C12.1295 9.8347 12.1104 9.83405 12.0968 9.82318L11.8568 9.65118L11.6168 9.82318C11.603 9.83289 11.5846 9.83289 11.5708 9.82324C11.557 9.81354 11.5508 9.79626 11.5552 9.78003L11.6455 9.49841L11.4055 9.32159C11.3925 9.3111 11.3873 9.29352 11.3927 9.27759C11.3981 9.26172 11.4127 9.25085 11.4296 9.25043H11.7247L11.8199 8.96881C11.8199 8.95569 11.827 8.94348 11.8384 8.93695C11.8498 8.93038 11.8637 8.93038 11.8751 8.93695ZM14.1289 8.94324C14.1447 8.94287 14.1586 8.95349 14.1624 8.96881L14.2576 9.25043H14.5527C14.5696 9.25085 14.5842 9.26172 14.5896 9.27759C14.595 9.29352 14.5898 9.3111 14.5768 9.32159L14.3368 9.49841L14.4271 9.78003C14.4327 9.79651 14.4268 9.8147 14.4126 9.82471C14.3983 9.8347 14.3792 9.83405 14.3656 9.82318L14.1256 9.65118L13.8856 9.82318C13.8718 9.83289 13.8534 9.83289 13.8396 9.82324C13.8258 9.81354 13.8196 9.79626 13.824 9.78003L13.9224 9.5L13.6824 9.32318C13.6693 9.31268 13.6641 9.2951 13.6694 9.27924C13.6748 9.26332 13.6896 9.25244 13.7064 9.25201H14.0016L14.0968 8.9704C14.0997 8.95496 14.1132 8.94366 14.1289 8.94324Z" fill="#F5F5F5"/>
<path fill-rule="evenodd" clip-rule="evenodd" d="M26 9H6C5.44772 9 5 9.44772 5 10V22C5 22.5523 5.44772 23 6 23H26C26.5523 23 27 22.5523 27 22V10C27 9.44771 26.5523 9 26 9ZM6 8C4.89539 8 4 8.89545 4 10V22C4 23.1046 4.89543 24 6 24H26C27.1046 24 28 23.1046 28 22V10C28 8.89543 27.1046 8 26 8H6Z" fill="black" fill-opacity="0.08"/>
<path d="M13 2C13 0.89543 13.8954 0 15 0H30C31.1046 0 32 0.895431 32 2V8C32 9.10457 31.1046 10 30 10H15C13.8954 10 13 9.10457 13 8V2Z" fill="#414652"/>
<path d="M19.4807 3.464H16.9447L16.8247 5.232H16.8887C16.942 5.09867 17.0007 4.97867 17.0647 4.872C17.134 4.76 17.214 4.66667 17.3047 4.592C17.3954 4.512 17.5047 4.45067 17.6327 4.408C17.7607 4.36533 17.9127 4.344 18.0887 4.344C18.3287 4.344 18.5527 4.384 18.7607 4.464C18.9687 4.544 19.15 4.66133 19.3047 4.816C19.4594 4.96533 19.582 5.152 19.6727 5.376C19.7634 5.59467 19.8087 5.84267 19.8087 6.12C19.8087 6.40267 19.7607 6.66667 19.6647 6.912C19.574 7.152 19.4354 7.36 19.2487 7.536C19.0674 7.712 18.8434 7.85067 18.5767 7.952C18.31 8.048 18.006 8.096 17.6647 8.096C17.3927 8.096 17.1527 8.06667 16.9447 8.008C16.7367 7.94933 16.5527 7.872 16.3927 7.776C16.2327 7.67467 16.094 7.56 15.9767 7.432C15.8594 7.304 15.758 7.168 15.6727 7.024L16.5447 6.336C16.6674 6.55467 16.814 6.74133 16.9847 6.896C17.1554 7.04533 17.3847 7.12 17.6727 7.12C17.9607 7.12 18.1767 7.03733 18.3207 6.872C18.47 6.70667 18.5447 6.488 18.5447 6.216V6.152C18.5447 5.896 18.47 5.69333 18.3207 5.544C18.1714 5.39467 17.966 5.32 17.7047 5.32C17.486 5.32 17.3047 5.36533 17.1607 5.456C17.022 5.54133 16.9154 5.62667 16.8407 5.712L15.8567 5.576L16.0647 2.416H19.4807V3.464Z" fill="white"/>
<path d="M22.5016 8.096C21.7709 8.096 21.2296 7.84267 20.8776 7.336C20.5256 6.82933 20.3496 6.12 20.3496 5.208C20.3496 4.296 20.5256 3.58667 20.8776 3.08C21.2296 2.57333 21.7709 2.32 22.5016 2.32C23.2322 2.32 23.7736 2.57333 24.1256 3.08C24.4776 3.58667 24.6536 4.296 24.6536 5.208C24.6536 6.12 24.4776 6.82933 24.1256 7.336C23.7736 7.84267 23.2322 8.096 22.5016 8.096ZM22.5016 7.08C22.8216 7.08 23.0429 6.96267 23.1656 6.728C23.2882 6.49333 23.3496 6.16267 23.3496 5.736V4.68C23.3496 4.25333 23.2882 3.92267 23.1656 3.688C23.0429 3.45333 22.8216 3.336 22.5016 3.336C22.1816 3.336 21.9602 3.45333 21.8376 3.688C21.7149 3.92267 21.6536 4.25333 21.6536 4.68V5.736C21.6536 6.16267 21.7149 6.49333 21.8376 6.728C21.9602 6.96267 22.1816 7.08 22.5016 7.08Z" fill="white"/>
<path d="M27.2984 8.096C26.5678 8.096 26.0264 7.84267 25.6744 7.336C25.3224 6.82933 25.1464 6.12 25.1464 5.208C25.1464 4.296 25.3224 3.58667 25.6744 3.08C26.0264 2.57333 26.5678 2.32 27.2984 2.32C28.0291 2.32 28.5704 2.57333 28.9224 3.08C29.2744 3.58667 29.4504 4.296 29.4504 5.208C29.4504 6.12 29.2744 6.82933 28.9224 7.336C28.5704 7.84267 28.0291 8.096 27.2984 8.096ZM27.2984 7.08C27.6184 7.08 27.8398 6.96267 27.9624 6.728C28.0851 6.49333 28.1464 6.16267 28.1464 5.736V4.68C28.1464 4.25333 28.0851 3.92267 27.9624 3.688C27.8398 3.45333 27.6184 3.336 27.2984 3.336C26.9784 3.336 26.7571 3.45333 26.6344 3.688C26.5118 3.92267 26.4504 4.25333 26.4504 4.68V5.736C26.4504 6.16267 26.5118 6.49333 26.6344 6.728C26.7571 6.96267 26.9784 7.08 27.2984 7.08Z" fill="white"/>
</svg>
