<svg width="72" height="72" viewBox="0 0 72 72" fill="none" xmlns="http://www.w3.org/2000/svg">
<path d="M0 13.5C0 6.04416 6.04416 0 13.5 0H58.5C65.9558 0 72 6.04416 72 13.5V58.5C72 65.9558 65.9558 72 58.5 72H13.5C6.04416 72 0 65.9558 0 58.5V13.5Z" fill="#384177"/>
<path d="M13.5 0C6.04416 0 0 6.04416 0 13.5V13.8921L67.3075 3.26845C64.9433 1.2315 61.8655 0 58.5 0H13.5Z" fill="#2A3052"/>
<path d="M68.6969 4.65243L56.3498 71.9999L58.5 72C65.9558 72 72 65.9558 72 58.5V13.5C72 10.1155 70.7545 7.02183 68.6969 4.65243Z" fill="#2A3052"/>
<path d="M26.9628 43.1978C27.6558 43.1978 28.2228 43.1453 28.6638 43.0403C29.1258 42.9143 29.4933 42.7568 29.7663 42.5678C30.0393 42.3578 30.2283 42.1163 30.3333 41.8433C30.4383 41.5703 30.4908 41.2658 30.4908 40.9298C30.4908 40.2158 30.1548 39.6278 29.4828 39.1658C28.8108 38.6828 27.6558 38.1683 26.0178 37.6223C25.3038 37.3703 24.5898 37.0868 23.8758 36.7718C23.1618 36.4358 22.5213 36.0263 21.9543 35.5433C21.3873 35.0393 20.9253 34.4408 20.5683 33.7478C20.2113 33.0338 20.0328 32.1728 20.0328 31.1648C20.0328 30.1568 20.2218 29.2538 20.5998 28.4558C20.9778 27.6368 21.5133 26.9438 22.2063 26.3768C22.8993 25.8098 23.7393 25.3793 24.7263 25.0853C25.7133 24.7703 26.8263 24.6128 28.0653 24.6128C29.5353 24.6128 30.8058 24.7703 31.8768 25.0853C32.9478 25.4003 33.8298 25.7468 34.5228 26.1248L33.1053 29.9993C32.4963 29.6843 31.8138 29.4113 31.0578 29.1803C30.3228 28.9283 29.4303 28.8023 28.3803 28.8023C27.2043 28.8023 26.3538 28.9703 25.8288 29.3063C25.3248 29.6213 25.0728 30.1148 25.0728 30.7868C25.0728 31.1858 25.1673 31.5218 25.3563 31.7948C25.5453 32.0678 25.8078 32.3198 26.1438 32.5508C26.5008 32.7608 26.8998 32.9603 27.3408 33.1493C27.8028 33.3173 28.3068 33.4958 28.8528 33.6848C29.9868 34.1048 30.9738 34.5248 31.8138 34.9448C32.6538 35.3438 33.3468 35.8163 33.8928 36.3623C34.4598 36.9083 34.8798 37.5488 35.1528 38.2838C35.4258 39.0188 35.5623 39.9113 35.5623 40.9613C35.5623 42.9983 34.8484 44.5838 33.4203 45.7178C31.9923 46.8308 29.8398 47.3873 26.9628 47.3873C25.9968 47.3873 25.1253 47.3243 24.3483 47.1983C23.5713 47.0933 22.8783 46.9568 22.2693 46.7888C21.6813 46.6208 21.1668 46.4423 20.7258 46.2533C20.3058 46.0643 19.9488 45.8858 19.6548 45.7178L21.0408 41.8118C21.6918 42.1688 22.4898 42.4943 23.4348 42.7883C24.4008 43.0613 25.5768 43.1978 26.9628 43.1978Z" fill="white"/>
<path d="M53.3441 25.1168V29.3063H46.7606V46.9463H41.8466V29.3063H35.2631V25.1168H53.3441Z" fill="white"/>
</svg>
