<svg width="32" height="32" viewBox="0 0 32 32" fill="none" xmlns="http://www.w3.org/2000/svg">
<g clip-path="url(#clip0_17199_3253)">
<circle cx="16" cy="16" r="16" fill="#F6F7F8"/>
<g clip-path="url(#clip1_17199_3253)">
<path d="M17.3045 20.4912C23.2878 19.9644 27.9242 17.1072 27.6603 14.1097C27.3963 11.1121 22.3319 9.10915 16.3486 9.63602C10.3653 10.1629 5.7289 13.02 5.99286 16.0176C6.25681 19.0152 11.3212 21.0181 17.3045 20.4912Z" fill="white"/>
<path d="M27.7576 13.9523C28.1784 17.3403 23.1935 20.739 16.6225 21.5483C10.0515 22.3575 4.4408 20.2643 4.02 16.8763C3.5992 13.4883 8.55172 10.0895 15.1227 9.28026C21.6937 8.47103 27.3476 10.5642 27.7576 13.9523ZM16.3528 9.63633C10.3644 10.165 5.72479 13.0243 5.99454 16.0239C6.26428 19.0235 11.3247 21.0304 17.3131 20.5017C23.3014 19.973 27.941 17.1137 27.6713 14.1141C27.4015 11.1037 22.3411 9.10762 16.3528 9.63633Z" fill="#00953B"/>
<path d="M27.617 16.8975C28.3083 16.8975 28.8686 16.3371 28.8686 15.6459C28.8686 14.9546 28.3083 14.3943 27.617 14.3943C26.9258 14.3943 26.3654 14.9546 26.3654 15.6459C26.3654 16.3371 26.9258 16.8975 27.617 16.8975Z" fill="#D7282F"/>
<path d="M27.2508 11.1464C27.3048 11.1464 27.3479 11.1572 27.4019 11.1895C27.445 11.2111 27.4882 11.2543 27.5098 11.2974C27.5422 11.3514 27.5529 11.3945 27.5529 11.4485C27.5529 11.5024 27.5422 11.5564 27.5098 11.5995C27.4882 11.6427 27.445 11.6859 27.4019 11.7074C27.3587 11.729 27.3048 11.7506 27.2508 11.7506C27.1969 11.7506 27.1429 11.7398 27.0998 11.7074C27.0566 11.6859 27.0135 11.6427 26.9919 11.5995C26.9703 11.5564 26.9487 11.5024 26.9487 11.4485C26.9487 11.3945 26.9595 11.3406 26.9919 11.2974C27.0242 11.2543 27.0566 11.2111 27.1106 11.1895C27.1537 11.1572 27.2077 11.1464 27.2508 11.1464ZM27.2508 11.1679C27.2077 11.1679 27.1645 11.1787 27.1106 11.2003C27.0566 11.2219 27.035 11.2543 27.0027 11.2974C26.9811 11.3406 26.9703 11.3837 26.9703 11.4377C26.9703 11.4808 26.9811 11.5348 27.0027 11.578C27.0242 11.6211 27.0566 11.6535 27.0998 11.6751C27.1429 11.6966 27.1861 11.7074 27.24 11.7074C27.2832 11.7074 27.3371 11.6966 27.3803 11.6751C27.4235 11.6535 27.4558 11.6211 27.4774 11.578C27.499 11.5348 27.5098 11.4916 27.5098 11.4377C27.5098 11.3945 27.499 11.3406 27.4774 11.2974C27.4558 11.2543 27.4235 11.2219 27.3695 11.2003C27.3156 11.1787 27.3048 11.1679 27.2508 11.1679ZM27.089 11.2543H27.2508C27.294 11.2543 27.3264 11.2651 27.3479 11.2866C27.3695 11.3082 27.3803 11.3298 27.3803 11.3514C27.3803 11.3729 27.3695 11.3945 27.3587 11.4053C27.3479 11.4269 27.3156 11.4377 27.2832 11.4377L27.3695 11.5672C27.3803 11.578 27.3911 11.5887 27.4019 11.5995C27.4127 11.5995 27.4127 11.6103 27.4235 11.6103V11.6211H27.3479L27.2185 11.4485H27.1861V11.5887C27.1861 11.5995 27.1969 11.6103 27.1969 11.6103C27.2077 11.6103 27.2185 11.6211 27.24 11.6211V11.6319H27.0782V11.6211C27.089 11.6211 27.0998 11.6211 27.1106 11.6211C27.1214 11.6211 27.1214 11.6103 27.1214 11.6103C27.1214 11.6103 27.1214 11.5887 27.1214 11.5672V11.3406C27.1214 11.319 27.1214 11.3082 27.1214 11.3082C27.1214 11.2974 27.1106 11.2974 27.1106 11.2974C27.1106 11.2974 27.0998 11.2974 27.0782 11.2974V11.2543H27.089ZM27.1861 11.4377C27.2185 11.4377 27.24 11.4377 27.2616 11.4269C27.2724 11.4161 27.294 11.4161 27.294 11.3945C27.3048 11.3837 27.3048 11.3729 27.3048 11.3514C27.3048 11.3298 27.294 11.3082 27.2832 11.2974C27.2724 11.2866 27.2508 11.2758 27.2185 11.2758C27.2077 11.2758 27.1969 11.2758 27.1861 11.2866V11.4377Z" fill="#003A70"/>
<path d="M10.3996 14.585H10.4428C10.5831 14.5958 10.6478 14.639 10.6694 14.6606C10.691 14.6821 10.7233 14.7577 10.7233 14.9843V15.8906C10.7233 16.1064 10.7017 16.2682 10.6478 16.3654C10.5615 16.538 10.3888 16.6243 10.1191 16.6243C9.88172 16.6243 9.71987 16.538 9.63355 16.3761C9.59039 16.279 9.56881 16.1496 9.56881 15.9661V14.844C9.56881 14.6929 9.60118 14.6498 9.61197 14.639C9.63355 14.6282 9.6875 14.5958 9.83856 14.585H9.88172V14.4232H8.79195V14.585H8.83511C8.99695 14.5958 9.04011 14.6282 9.06169 14.639C9.07248 14.6498 9.10485 14.6929 9.10485 14.844V15.9338C9.10485 16.1603 9.14801 16.3438 9.22354 16.484C9.3746 16.743 9.64434 16.8833 10.0436 16.8833C10.4428 16.8833 10.7233 16.7538 10.8636 16.484C10.9391 16.3438 10.9823 16.1388 10.9823 15.8906V14.9843C10.9823 14.7577 11.0146 14.6929 11.0362 14.6714C11.0578 14.639 11.1118 14.6066 11.2628 14.5958H11.306V14.434H10.3888V14.585H10.3996Z" fill="#003A70"/>
<path d="M8.1341 15.1677L7.75646 14.9303C7.61619 14.844 7.51908 14.7685 7.45434 14.6929C7.3896 14.6282 7.36802 14.5419 7.36802 14.4448C7.36802 14.3369 7.40039 14.2505 7.47592 14.1966C7.55145 14.1319 7.64856 14.0995 7.75646 14.0995C7.89672 14.0995 8.03699 14.1534 8.18805 14.2505C8.32832 14.3477 8.43622 14.5419 8.50095 14.8008L8.51174 14.844H8.71675L8.60885 13.8297H8.42543V13.8621C8.41464 13.9053 8.40385 13.9269 8.38227 13.9484C8.37148 13.9592 8.3499 13.97 8.31753 13.97C8.31753 13.97 8.27437 13.9592 8.09094 13.9053C7.95067 13.8513 7.8212 13.8297 7.72409 13.8297C7.47592 13.8297 7.27092 13.9053 7.10907 14.0563C6.95801 14.2074 6.88248 14.4016 6.88248 14.639C6.88248 14.8116 6.94722 14.9735 7.0767 15.1245C7.14144 15.2 7.23855 15.2756 7.34644 15.3511L7.7133 15.5777C7.9183 15.7072 8.05857 15.8043 8.12331 15.869C8.22042 15.9661 8.26358 16.074 8.26358 16.2035C8.26358 16.3438 8.22042 16.4517 8.1341 16.5272C8.04778 16.6027 7.93988 16.6459 7.81041 16.6459C7.57303 16.6459 7.37881 16.5488 7.21697 16.3653C7.11986 16.2575 7.04433 16.1064 6.9688 15.923L6.95801 15.8906H6.76379L6.90406 16.9156H7.08749L7.09828 16.8725C7.09828 16.8401 7.10907 16.8185 7.13065 16.7862C7.14144 16.7754 7.16302 16.7646 7.1846 16.7646C7.1846 16.7646 7.22776 16.7646 7.42197 16.8401C7.57303 16.894 7.72409 16.9156 7.85357 16.9156C8.1341 16.9156 8.36069 16.8293 8.54411 16.6783C8.72754 16.5164 8.81386 16.3114 8.81386 16.074C8.81386 15.8906 8.75991 15.7395 8.6628 15.6101C8.54411 15.4482 8.38227 15.3079 8.1341 15.1677Z" fill="#003A70"/>
<path d="M12.2452 15.8257C12.2991 15.8257 12.3531 15.8257 12.3962 15.8257C12.666 15.8257 12.8926 15.7717 13.076 15.6531C13.2702 15.5344 13.3565 15.3509 13.3565 15.092C13.3565 14.887 13.2702 14.7251 13.0976 14.5957C12.9357 14.477 12.6984 14.4122 12.3855 14.4122H11.4144V14.5741H11.4575C11.6086 14.5849 11.6517 14.6172 11.6625 14.628C11.6733 14.6388 11.7057 14.6928 11.7057 14.833V16.3436C11.7057 16.5162 11.6841 16.5702 11.6733 16.5918C11.6625 16.6026 11.6194 16.6349 11.4575 16.6565H11.4144V16.8184H12.4933V16.6565H12.4502C12.2776 16.6457 12.2236 16.6134 12.2128 16.6026C12.202 16.5918 12.1697 16.5486 12.1697 16.3976V15.8149C12.1912 15.8149 12.2128 15.8257 12.2452 15.8257ZM12.1697 14.7143C12.1697 14.6712 12.1804 14.6604 12.1804 14.6604C12.1804 14.6604 12.202 14.6496 12.2776 14.6496C12.4178 14.6496 12.5365 14.6712 12.6336 14.7143C12.7955 14.7899 12.8818 14.9194 12.8818 15.1028C12.8818 15.3078 12.8063 15.4481 12.6552 15.5236C12.5689 15.5667 12.4502 15.5883 12.2991 15.5883C12.2776 15.5883 12.2668 15.5883 12.2452 15.5883C12.2344 15.5883 12.202 15.5883 12.1697 15.5775V14.7143Z" fill="#003A70"/>
<path d="M15.1364 16.1386L15.1256 16.171C15.0392 16.3544 14.9529 16.4731 14.845 16.5162C14.7371 16.5594 14.5753 16.5918 14.3379 16.5918C14.0574 16.5918 13.9818 16.581 13.9603 16.5702C13.9495 16.5702 13.9279 16.5594 13.9279 16.4947V15.6854H14.4134C14.5861 15.6854 14.64 15.7178 14.6616 15.7394C14.6832 15.761 14.7156 15.8257 14.7479 15.9875L14.7587 16.0307H14.9313V15.1244H14.7587L14.7479 15.1675C14.7156 15.3186 14.6832 15.3833 14.6616 15.4049C14.64 15.4265 14.5861 15.4588 14.4134 15.4588H13.9279V14.7143C13.9279 14.6712 13.9387 14.6604 13.9279 14.6604C13.9279 14.6604 13.9495 14.6496 13.9818 14.6496H14.4566C14.7048 14.6496 14.7911 14.682 14.8235 14.7036C14.8558 14.7251 14.899 14.8007 14.9421 14.9733L14.9529 15.0165H15.1364L15.1256 14.4122H13.1726V14.5741H13.2158C13.3668 14.5849 13.4208 14.6172 13.4316 14.628C13.4424 14.6388 13.4747 14.6928 13.4747 14.833V16.3868C13.4747 16.5486 13.4424 16.581 13.4316 16.5918C13.41 16.6026 13.3668 16.6349 13.205 16.6457H13.1618V16.8076H15.1471L15.3306 16.117H15.1364V16.1386Z" fill="#003A70"/>
<path d="M17.4027 16.6241C17.3596 16.6026 17.3272 16.5702 17.284 16.5162L16.6151 15.6962C16.7769 15.6638 16.9172 15.5991 17.0143 15.5128C17.1438 15.4049 17.2085 15.2646 17.2085 15.0704C17.2085 14.7899 17.0682 14.5957 16.7877 14.4878C16.6474 14.4338 16.4748 14.4122 16.2698 14.4122H15.2448V14.5741H15.2879C15.439 14.5849 15.4821 14.6172 15.5037 14.628C15.5145 14.6388 15.5469 14.6928 15.5469 14.833V16.3436C15.5469 16.527 15.5253 16.5702 15.5145 16.5918C15.5037 16.6026 15.4605 16.6349 15.2987 16.6565H15.2555V16.8184H16.3345V16.6565H16.2914C16.1295 16.6457 16.0864 16.6134 16.0648 16.6026C16.054 16.5918 16.0216 16.5486 16.0216 16.3976V15.761H16.0971L16.9711 16.8399H17.6077V16.6781H17.5646C17.4998 16.6565 17.4459 16.6457 17.4027 16.6241ZM16.0108 15.5236V14.7143C16.0108 14.6712 16.0216 14.6604 16.0216 14.6604C16.0216 14.6604 16.054 14.6496 16.1727 14.6496C16.3129 14.6496 16.4208 14.6712 16.5072 14.7036C16.6582 14.7683 16.723 14.887 16.723 15.0704C16.723 15.2538 16.6474 15.3833 16.4748 15.4481C16.3885 15.4912 16.2266 15.5236 16.0108 15.5236Z" fill="#003A70"/>
<path d="M19.2582 16.0847L18.4922 14.4122H17.7153V14.5741H17.7692C17.9419 14.5849 17.9958 14.6172 18.0066 14.628C18.0282 14.6388 18.0498 14.6928 18.0498 14.833V16.2573C18.0498 16.4839 18.0174 16.5486 17.9958 16.581C17.9742 16.6026 17.9203 16.6457 17.7477 16.6565H17.7045V16.8184H18.6324V16.6565H18.5893C18.4382 16.6457 18.395 16.6134 18.3735 16.5918C18.3411 16.5594 18.3087 16.4731 18.3087 16.2573V15.1136L19.1072 16.8399H19.2259L20.0351 15.038V16.3652C20.0351 16.5486 20.0027 16.6026 19.9919 16.6134C19.9811 16.6241 19.938 16.6565 19.7654 16.6673H19.7222V16.8291H20.8012V16.6673H20.758C20.607 16.6565 20.553 16.6241 20.5422 16.6134C20.5314 16.6026 20.4991 16.5594 20.4991 16.4083V14.8438C20.4991 14.7036 20.5206 14.6496 20.5422 14.6388C20.553 14.628 20.607 14.5957 20.758 14.5849H20.8012V14.423H20.0243L19.2582 16.0847Z" fill="#003A70"/>
<path d="M21.7402 16.6135C21.7294 16.6027 21.6971 16.5704 21.6971 16.4085V14.844C21.6971 14.6929 21.7294 14.6498 21.7402 14.639C21.7618 14.6174 21.8158 14.5958 21.9884 14.585H22.0423V14.4232H20.9094V14.585H20.9634C21.136 14.5958 21.1899 14.6174 21.2115 14.639C21.2223 14.6498 21.2547 14.6929 21.2547 14.844V16.3977C21.2547 16.5596 21.2223 16.6027 21.2115 16.6027C21.1899 16.6135 21.136 16.6459 20.9634 16.6567H20.9202V16.8185H22.0531V16.6567H22.01C21.8158 16.6567 21.751 16.6243 21.7402 16.6135Z" fill="#003A70"/>
<path d="M23.8872 16.2898C23.7901 16.3869 23.693 16.4625 23.6067 16.5056C23.4664 16.5919 23.3046 16.6243 23.1319 16.6243C22.8946 16.6243 22.7003 16.538 22.5493 16.3653C22.3982 16.1927 22.3119 15.9553 22.3119 15.6532C22.3119 15.3295 22.3874 15.0706 22.5385 14.8871C22.6896 14.7037 22.873 14.6174 23.0996 14.6174C23.3262 14.6174 23.4988 14.7037 23.6391 14.8656C23.7146 14.9519 23.7685 15.0814 23.8117 15.2216L23.8225 15.254H23.9951L23.9628 14.3692H23.8009L23.7901 14.4016C23.7793 14.4232 23.7685 14.4448 23.747 14.4556C23.7254 14.4663 23.7038 14.4771 23.6822 14.4771C23.6714 14.4771 23.6391 14.4663 23.4664 14.4232C23.3262 14.38 23.1967 14.3692 23.0672 14.3692C22.6896 14.3692 22.3767 14.4987 22.1501 14.7469C21.9235 14.9843 21.8156 15.2864 21.8156 15.6424C21.8156 15.9877 21.9235 16.279 22.1393 16.5056C22.3659 16.7538 22.6788 16.8833 23.0672 16.8833C23.3046 16.8833 23.5312 16.8185 23.7362 16.689C23.8549 16.6135 23.952 16.5164 24.0383 16.4193L24.0707 16.3869L23.9412 16.2575L23.8872 16.2898Z" fill="#003A70"/>
<path d="M26.3687 16.6673C26.304 16.6565 26.2608 16.6457 26.2177 16.6241C26.1745 16.6026 26.1421 16.5702 26.099 16.5162L25.43 15.6962C25.5919 15.6638 25.7321 15.5991 25.8292 15.5128C25.9587 15.4049 26.0235 15.2646 26.0235 15.0704C26.0235 14.7899 25.8832 14.5957 25.6026 14.4878C25.4624 14.4338 25.2897 14.4122 25.0847 14.4122H24.0705V14.5741H24.1137C24.2647 14.5849 24.3079 14.6172 24.3295 14.628C24.3402 14.6388 24.3726 14.6928 24.3726 14.833V16.3436C24.3726 16.527 24.351 16.5702 24.3402 16.5918C24.3295 16.6026 24.2863 16.6349 24.1244 16.6565H24.0813V16.8184H25.1603V16.6565H25.1171C24.9553 16.6457 24.9121 16.6134 24.8905 16.6026C24.8797 16.5918 24.8474 16.5486 24.8474 16.3976V15.761H24.9229L25.7969 16.8399H26.4335V16.6781L26.3687 16.6673ZM24.8258 15.5236V14.7143C24.8258 14.6712 24.8366 14.6604 24.8366 14.6604C24.8366 14.6604 24.8689 14.6496 24.9876 14.6496C25.1279 14.6496 25.2358 14.6712 25.3221 14.7036C25.4732 14.7683 25.5379 14.887 25.5379 15.0704C25.5379 15.2538 25.4624 15.3833 25.2897 15.4481C25.2034 15.4912 25.0416 15.5236 24.8258 15.5236Z" fill="#003A70"/>
</g>
</g>
<defs>
<clipPath id="clip0_17199_3253">
<rect width="32" height="32" fill="white"/>
</clipPath>
<clipPath id="clip1_17199_3253">
<rect width="25" height="13.2607" fill="white" transform="translate(4 9)"/>
</clipPath>
</defs>
</svg>
