<svg width="32" height="32" viewBox="0 0 32 32" fill="none" xmlns="http://www.w3.org/2000/svg">
<path d="M4 10C4 8.89543 4.89543 8 6 8H26C27.1046 8 28 8.89543 28 10V12H4V10Z" fill="#DD172C"/>
<path d="M4 20H28V22C28 23.1046 27.1046 24 26 24H6C4.89543 24 4 23.1046 4 22V20Z" fill="#DD172C"/>
<path d="M4 12H28V20H4V12Z" fill="#FFCB00"/>
<path fill-rule="evenodd" clip-rule="evenodd" d="M11 13H10V13.8926L9.9259 13.8744L9.82556 13.8485C9.46753 13.7552 9.19189 13.6833 9.06958 14H9L9.02527 14.0252C8.42932 14.1902 8 14.6601 8 15.22V15H7V19H8V17.74C8 18.437 8.67395 19 9.5 19.002H11.5C12.328 19.002 13 18.442 13 17.742V19H14V15H13V15.222C13 14.6657 12.5684 14.1948 11.9738 14.0262L12 14H11.9301C11.8076 13.6859 11.5339 13.7567 11.1769 13.8491C11.12 13.8638 11.0609 13.8791 11 13.8935V13Z" fill="#FFCB00"/>
<path fill-rule="evenodd" clip-rule="evenodd" d="M13 15.222V17.742C13 18.442 12.328 19.002 11.5 19.002H9.5C8.67395 19 8 18.437 8 17.74V15.22C8 14.648 8.448 14.17 9.064 14.015C9.25 13.495 9.822 13.961 10.5 13.961C11.182 13.961 11.75 13.498 11.936 14.016C12.55 14.175 13 14.654 13 15.222Z" fill="#C8B47C"/>
<path fill-rule="evenodd" clip-rule="evenodd" d="M13 16H14V19H13V16ZM7 16H8V19H7V16Z" fill="#B5B5B5"/>
<path fill-rule="evenodd" clip-rule="evenodd" d="M13 18H14V19H13V18ZM7 18H8V19H7V18Z" fill="#165C96"/>
<path fill-rule="evenodd" clip-rule="evenodd" d="M13 15H14V16H13V15ZM7 15H8V16H7V15Z" fill="#A0790A"/>
<path fill-rule="evenodd" clip-rule="evenodd" d="M9 15H10V16.5H9V15ZM11 17H12V18.5H11V17Z" fill="#D20636"/>
<path fill-rule="evenodd" clip-rule="evenodd" d="M11 15H12V16.5H11V15Z" fill="#A18793"/>
<path fill-rule="evenodd" clip-rule="evenodd" d="M9 17H10V18.5H9V17Z" fill="#FFE100"/>
<path fill-rule="evenodd" clip-rule="evenodd" d="M10 15L9 14H12L11 15H10Z" fill="#B6161A"/>
<path fill-rule="evenodd" clip-rule="evenodd" d="M10 13H11V14H10V13Z" fill="#AC9300"/>
<path fill-rule="evenodd" clip-rule="evenodd" d="M26 9H6C5.44772 9 5 9.44772 5 10V22C5 22.5523 5.44772 23 6 23H26C26.5523 23 27 22.5523 27 22V10C27 9.44771 26.5523 9 26 9ZM6 8C4.89543 8 4 8.89543 4 10V22C4 23.1046 4.89543 24 6 24H26C27.1046 24 28 23.1046 28 22V10C28 8.89543 27.1046 8 26 8H6Z" fill="black" fill-opacity="0.08"/>
<path fill-rule="evenodd" clip-rule="evenodd" d="M18 2C18 0.89543 18.8954 0 20 0H30C31.1046 0 32 0.895431 32 2V8C32 9.10457 31.1046 10 30 10H20C18.8954 10 18 9.10457 18 8V2ZM22.9472 4.456C22.8138 4.568 22.5978 4.624 22.2992 4.624H21.7792V5.624H22.2832C22.5872 5.624 22.8245 5.68267 22.9952 5.8C23.1712 5.912 23.2592 6.08267 23.2592 6.312V6.36C23.2592 6.59467 23.1818 6.78133 23.0272 6.92C22.8778 7.05333 22.6672 7.12 22.3952 7.12C22.0912 7.12 21.8485 7.048 21.6672 6.904C21.4912 6.75467 21.3418 6.56533 21.2192 6.336L20.3312 7.024C20.4218 7.168 20.5258 7.304 20.6432 7.432C20.7658 7.56 20.9072 7.67467 21.0672 7.776C21.2325 7.872 21.4245 7.94933 21.6432 8.008C21.8618 8.06667 22.1125 8.096 22.3952 8.096C22.7098 8.096 22.9978 8.05867 23.2592 7.984C23.5205 7.904 23.7445 7.792 23.9312 7.648C24.1178 7.504 24.2618 7.33067 24.3632 7.128C24.4645 6.92533 24.5152 6.69867 24.5152 6.448C24.5152 6.256 24.4858 6.08533 24.4272 5.936C24.3685 5.78133 24.2858 5.648 24.1792 5.536C24.0778 5.424 23.9552 5.33333 23.8112 5.264C23.6725 5.18933 23.5205 5.136 23.3552 5.104V5.056C23.4992 5.02933 23.6352 4.984 23.7632 4.92C23.8912 4.85067 24.0032 4.76267 24.0992 4.656C24.2005 4.54933 24.2778 4.424 24.3312 4.28C24.3898 4.136 24.4192 3.976 24.4192 3.8C24.4192 3.576 24.3712 3.37333 24.2752 3.192C24.1845 3.01067 24.0512 2.856 23.8752 2.728C23.7045 2.59467 23.4965 2.49333 23.2512 2.424C23.0112 2.35467 22.7418 2.32 22.4432 2.32C22.2032 2.32 21.9872 2.344 21.7952 2.392C21.6032 2.43467 21.4298 2.49867 21.2752 2.584C21.1205 2.664 20.9818 2.76267 20.8592 2.88C20.7365 2.992 20.6218 3.11733 20.5152 3.256L21.2672 3.96C21.4058 3.74667 21.5738 3.584 21.7712 3.472C21.9685 3.35467 22.1792 3.296 22.4032 3.296C22.6432 3.296 22.8272 3.35733 22.9552 3.48C23.0885 3.60267 23.1552 3.76533 23.1552 3.968V4.024C23.1552 4.19467 23.0858 4.33867 22.9472 4.456ZM26.6401 3.464H29.1761V2.416H25.7601L25.5521 5.576L26.5361 5.712C26.6107 5.62667 26.7174 5.54133 26.8561 5.456C27.0001 5.36533 27.1814 5.32 27.4001 5.32C27.6614 5.32 27.8667 5.39467 28.0161 5.544C28.1654 5.69333 28.2401 5.896 28.2401 6.152V6.216C28.2401 6.488 28.1654 6.70667 28.0161 6.872C27.8721 7.03733 27.6561 7.12 27.3681 7.12C27.0801 7.12 26.8507 7.04533 26.6801 6.896C26.5094 6.74133 26.3627 6.55467 26.2401 6.336L25.3681 7.024C25.4534 7.168 25.5547 7.304 25.6721 7.432C25.7894 7.56 25.9281 7.67467 26.0881 7.776C26.2481 7.872 26.4321 7.94933 26.6401 8.008C26.8481 8.06667 27.0881 8.096 27.3601 8.096C27.7014 8.096 28.0054 8.048 28.2721 7.952C28.5387 7.85067 28.7627 7.712 28.9441 7.536C29.1307 7.36 29.2694 7.152 29.3601 6.912C29.4561 6.66667 29.5041 6.40267 29.5041 6.12C29.5041 5.84267 29.4587 5.59467 29.3681 5.376C29.2774 5.152 29.1547 4.96533 29.0001 4.816C28.8454 4.66133 28.6641 4.544 28.4561 4.464C28.2481 4.384 28.0241 4.344 27.7841 4.344C27.6081 4.344 27.4561 4.36533 27.3281 4.408C27.2001 4.45067 27.0907 4.512 27.0001 4.592C26.9094 4.66667 26.8294 4.76 26.7601 4.872C26.6961 4.97867 26.6374 5.09867 26.5841 5.232H26.5201L26.6401 3.464Z" fill="#414652"/>
<path d="M29.1761 3.464H26.6401L26.5201 5.232H26.5841C26.6374 5.09867 26.6961 4.97867 26.7601 4.872C26.8294 4.76 26.9094 4.66667 27.0001 4.592C27.0907 4.512 27.2001 4.45067 27.3281 4.408C27.4561 4.36533 27.6081 4.344 27.7841 4.344C28.0241 4.344 28.2481 4.384 28.4561 4.464C28.6641 4.544 28.8454 4.66133 29.0001 4.816C29.1547 4.96533 29.2774 5.152 29.3681 5.376C29.4587 5.59467 29.5041 5.84267 29.5041 6.12C29.5041 6.40267 29.4561 6.66667 29.3601 6.912C29.2694 7.152 29.1307 7.36 28.9441 7.536C28.7627 7.712 28.5387 7.85067 28.2721 7.952C28.0054 8.048 27.7014 8.096 27.3601 8.096C27.0881 8.096 26.8481 8.06667 26.6401 8.008C26.4321 7.94933 26.2481 7.872 26.0881 7.776C25.9281 7.67467 25.7894 7.56 25.6721 7.432C25.5547 7.304 25.4534 7.168 25.3681 7.024L26.2401 6.336C26.3627 6.55467 26.5094 6.74133 26.6801 6.896C26.8507 7.04533 27.0801 7.12 27.3681 7.12C27.6561 7.12 27.8721 7.03733 28.0161 6.872C28.1654 6.70667 28.2401 6.488 28.2401 6.216V6.152C28.2401 5.896 28.1654 5.69333 28.0161 5.544C27.8667 5.39467 27.6614 5.32 27.4001 5.32C27.1814 5.32 27.0001 5.36533 26.8561 5.456C26.7174 5.54133 26.6107 5.62667 26.5361 5.712L25.5521 5.576L25.7601 2.416H29.1761V3.464Z" fill="white"/>
<path d="M22.2992 4.624C22.5978 4.624 22.8138 4.568 22.9472 4.456C23.0858 4.33867 23.1552 4.19467 23.1552 4.024V3.968C23.1552 3.76533 23.0885 3.60267 22.9552 3.48C22.8272 3.35733 22.6432 3.296 22.4032 3.296C22.1792 3.296 21.9685 3.35467 21.7712 3.472C21.5738 3.584 21.4058 3.74667 21.2672 3.96L20.5152 3.256C20.6218 3.11733 20.7365 2.992 20.8592 2.88C20.9818 2.76267 21.1205 2.664 21.2752 2.584C21.4298 2.49867 21.6032 2.43467 21.7952 2.392C21.9872 2.344 22.2032 2.32 22.4432 2.32C22.7418 2.32 23.0112 2.35467 23.2512 2.424C23.4965 2.49333 23.7045 2.59467 23.8752 2.728C24.0512 2.856 24.1845 3.01067 24.2752 3.192C24.3712 3.37333 24.4192 3.576 24.4192 3.8C24.4192 3.976 24.3898 4.136 24.3312 4.28C24.2778 4.424 24.2005 4.54933 24.0992 4.656C24.0032 4.76267 23.8912 4.85067 23.7632 4.92C23.6352 4.984 23.4992 5.02933 23.3552 5.056V5.104C23.5205 5.136 23.6725 5.18933 23.8112 5.264C23.9552 5.33333 24.0778 5.424 24.1792 5.536C24.2858 5.648 24.3685 5.78133 24.4272 5.936C24.4858 6.08533 24.5152 6.256 24.5152 6.448C24.5152 6.69867 24.4645 6.92533 24.3632 7.128C24.2618 7.33067 24.1178 7.504 23.9312 7.648C23.7445 7.792 23.5205 7.904 23.2592 7.984C22.9978 8.05867 22.7098 8.096 22.3952 8.096C22.1125 8.096 21.8618 8.06667 21.6432 8.008C21.4245 7.94933 21.2325 7.872 21.0672 7.776C20.9072 7.67467 20.7658 7.56 20.6432 7.432C20.5258 7.304 20.4218 7.168 20.3312 7.024L21.2192 6.336C21.3418 6.56533 21.4912 6.75467 21.6672 6.904C21.8485 7.048 22.0912 7.12 22.3952 7.12C22.6672 7.12 22.8778 7.05333 23.0272 6.92C23.1818 6.78133 23.2592 6.59467 23.2592 6.36V6.312C23.2592 6.08267 23.1712 5.912 22.9952 5.8C22.8245 5.68267 22.5872 5.624 22.2832 5.624H21.7792V4.624H22.2992Z" fill="white"/>
</svg>
