<svg width="32" height="32" viewBox="0 0 32 32" fill="none" xmlns="http://www.w3.org/2000/svg">
<path d="M32 30H0V32H32V30Z" fill="#0AA0B0"/>
<path d="M2.5 18.6C2.6 18.6 2.7 18.6 2.8 18.6L4.6 21.8C4.3 22.2 4.2 22.7 4.2 23.2C4.2 24.6 5.3 25.7 6.7 25.7C8.1 25.7 9.2 24.6 9.2 23.2C9.2 22.7 9.1 22.3 8.8 21.9L10.9 18.6C11 18.6 11.2 18.6 11.3 18.6C12.7 18.6 13.8 17.5 13.8 16.1C13.8 15.6 13.7 15.1 13.4 14.8L15.5 11.6C15.6 11.6 15.8 11.6 15.9 11.6C16 11.6 16.2 11.6 16.3 11.6L18.4 14.8C18.1 15.2 18 15.7 18 16.1C18 17.5 19.1 18.6 20.5 18.6C21.9 18.6 23 17.5 23 16.1C23 15.6 22.9 15.1 22.6 14.8L24.7 11.6C24.8 11.6 25 11.6 25.1 11.6C26.5 11.6 27.6 10.5 27.6 9.1C27.6 8.6 27.4 8.1 27.2 7.7L29.2 5C29.3 5 29.4 5 29.5 5C30.9 5 32 3.9 32 2.5C32 1.1 30.9 0 29.5 0C28.1 0 27 1.1 27 2.5C27 3 27.2 3.5 27.5 3.9L25.8 6.6C25.7 6.6 25.6 6.6 25.4 6.6C24 6.6 22.9 7.7 22.9 9.1C22.9 9.6 23 10.1 23.3 10.4L21.2 13.6C21.1 13.6 20.9 13.6 20.8 13.6C20.7 13.6 20.5 13.6 20.4 13.6L18.3 10.4C18.6 10 18.7 9.5 18.7 9.1C18.7 7.7 17.6 6.6 16.2 6.6C14.8 6.6 13.7 7.7 13.7 9.1C13.7 9.6 13.8 10.1 14.1 10.4L12 13.6C11.9 13.6 11.7 13.6 11.6 13.6C10.2 13.6 9.1 14.7 9.1 16.1C9.1 16.6 9.3 17.1 9.5 17.5L7.4 20.7C7.2 20.7 7.1 20.6 6.9 20.6C6.8 20.6 6.6 20.6 6.5 20.6L4.7 17.5C4.8 17.2 5 16.7 5 16.1C5 14.7 3.9 13.6 2.5 13.6C1.1 13.6 0 14.7 0 16.1C0 17.5 1.1 18.6 2.5 18.6Z" fill="#0AA0B0"/>
<path d="M0 2C0 0.89543 0.895431 0 2 0H17C18.1046 0 19 0.895431 19 2V8C19 9.10457 18.1046 10 17 10H2C0.895431 10 0 9.10457 0 8V2Z" fill="#414652"/>
<path d="M3.05669 8V7.032H4.56069V3.288H4.48869L3.35269 4.776L2.58469 4.176L3.92069 2.416H5.76069V7.032H6.94469V8H3.05669Z" fill="white"/>
<path d="M9.50156 8.096C8.7709 8.096 8.22956 7.84267 7.87756 7.336C7.52556 6.82933 7.34956 6.12 7.34956 5.208C7.34956 4.296 7.52556 3.58667 7.87756 3.08C8.22956 2.57333 8.7709 2.32 9.50156 2.32C10.2322 2.32 10.7736 2.57333 11.1256 3.08C11.4776 3.58667 11.6536 4.296 11.6536 5.208C11.6536 6.12 11.4776 6.82933 11.1256 7.336C10.7736 7.84267 10.2322 8.096 9.50156 8.096ZM9.50156 7.08C9.82156 7.08 10.0429 6.96267 10.1656 6.728C10.2882 6.49333 10.3496 6.16267 10.3496 5.736V4.68C10.3496 4.25333 10.2882 3.92267 10.1656 3.688C10.0429 3.45333 9.82156 3.336 9.50156 3.336C9.18156 3.336 8.96023 3.45333 8.83756 3.688C8.7149 3.92267 8.65356 4.25333 8.65356 4.68V5.736C8.65356 6.16267 8.7149 6.49333 8.83756 6.728C8.96023 6.96267 9.18156 7.08 9.50156 7.08Z" fill="white"/>
<path d="M14.2984 8.096C13.5678 8.096 13.0264 7.84267 12.6744 7.336C12.3224 6.82933 12.1464 6.12 12.1464 5.208C12.1464 4.296 12.3224 3.58667 12.6744 3.08C13.0264 2.57333 13.5678 2.32 14.2984 2.32C15.0291 2.32 15.5704 2.57333 15.9224 3.08C16.2744 3.58667 16.4504 4.296 16.4504 5.208C16.4504 6.12 16.2744 6.82933 15.9224 7.336C15.5704 7.84267 15.0291 8.096 14.2984 8.096ZM14.2984 7.08C14.6184 7.08 14.8398 6.96267 14.9624 6.728C15.0851 6.49333 15.1464 6.16267 15.1464 5.736V4.68C15.1464 4.25333 15.0851 3.92267 14.9624 3.688C14.8398 3.45333 14.6184 3.336 14.2984 3.336C13.9784 3.336 13.7571 3.45333 13.6344 3.688C13.5118 3.92267 13.4504 4.25333 13.4504 4.68V5.736C13.4504 6.16267 13.5118 6.49333 13.6344 6.728C13.7571 6.96267 13.9784 7.08 14.2984 7.08Z" fill="white"/>
</svg>
