<svg width="32" height="32" viewBox="0 0 32 32" fill="none" xmlns="http://www.w3.org/2000/svg">
<path d="M32 30H0V32H32V30Z" fill="#0AA0B0"/>
<path d="M2.5 18.6C2.6 18.6 2.7 18.6 2.8 18.6L4.6 21.8C4.3 22.2 4.2 22.7 4.2 23.2C4.2 24.6 5.3 25.7 6.7 25.7C8.1 25.7 9.2 24.6 9.2 23.2C9.2 22.7 9.1 22.3 8.8 21.9L10.9 18.6C11 18.6 11.2 18.6 11.3 18.6C12.7 18.6 13.8 17.5 13.8 16.1C13.8 15.6 13.7 15.1 13.4 14.8L15.5 11.6C15.6 11.6 15.8 11.6 15.9 11.6C16 11.6 16.2 11.6 16.3 11.6L18.4 14.8C18.1 15.2 18 15.7 18 16.1C18 17.5 19.1 18.6 20.5 18.6C21.9 18.6 23 17.5 23 16.1C23 15.6 22.9 15.1 22.6 14.8L24.7 11.6C24.8 11.6 25 11.6 25.1 11.6C26.5 11.6 27.6 10.5 27.6 9.1C27.6 8.6 27.4 8.1 27.2 7.7L29.2 5C29.3 5 29.4 5 29.5 5C30.9 5 32 3.9 32 2.5C32 1.1 30.9 0 29.5 0C28.1 0 27 1.1 27 2.5C27 3 27.2 3.5 27.5 3.9L25.8 6.6C25.7 6.6 25.6 6.6 25.4 6.6C24 6.6 22.9 7.7 22.9 9.1C22.9 9.6 23 10.1 23.3 10.4L21.2 13.6C21.1 13.6 20.9 13.6 20.8 13.6C20.7 13.6 20.5 13.6 20.4 13.6L18.3 10.4C18.6 10 18.7 9.5 18.7 9.1C18.7 7.7 17.6 6.6 16.2 6.6C14.8 6.6 13.7 7.7 13.7 9.1C13.7 9.6 13.8 10.1 14.1 10.4L12 13.6C11.9 13.6 11.7 13.6 11.6 13.6C10.2 13.6 9.1 14.7 9.1 16.1C9.1 16.6 9.3 17.1 9.5 17.5L7.4 20.7C7.2 20.7 7.1 20.6 6.9 20.6C6.8 20.6 6.6 20.6 6.5 20.6L4.7 17.5C4.8 17.2 5 16.7 5 16.1C5 14.7 3.9 13.6 2.5 13.6C1.1 13.6 0 14.7 0 16.1C0 17.5 1.1 18.6 2.5 18.6Z" fill="#0AA0B0"/>
<path d="M0 2C0 0.89543 0.895431 0 2 0H17C18.1046 0 19 0.895431 19 2V8C19 9.10457 18.1046 10 17 10H2C0.895431 10 0 9.10457 0 8V2Z" fill="#414652"/>
<path d="M4.40069 4.624C4.69935 4.624 4.91535 4.568 5.04869 4.456C5.18735 4.33867 5.25669 4.19467 5.25669 4.024V3.968C5.25669 3.76533 5.19002 3.60267 5.05669 3.48C4.92869 3.35733 4.74469 3.296 4.50469 3.296C4.28069 3.296 4.07002 3.35467 3.87269 3.472C3.67535 3.584 3.50735 3.74667 3.36869 3.96L2.61669 3.256C2.72335 3.11733 2.83802 2.992 2.96069 2.88C3.08335 2.76267 3.22202 2.664 3.37669 2.584C3.53135 2.49867 3.70469 2.43467 3.89669 2.392C4.08869 2.344 4.30469 2.32 4.54469 2.32C4.84335 2.32 5.11269 2.35467 5.35269 2.424C5.59802 2.49333 5.80602 2.59467 5.97669 2.728C6.15269 2.856 6.28602 3.01067 6.37669 3.192C6.47269 3.37333 6.52069 3.576 6.52069 3.8C6.52069 3.976 6.49135 4.136 6.43269 4.28C6.37935 4.424 6.30202 4.54933 6.20069 4.656C6.10469 4.76267 5.99269 4.85067 5.86469 4.92C5.73669 4.984 5.60069 5.02933 5.45669 5.056V5.104C5.62202 5.136 5.77402 5.18933 5.91269 5.264C6.05669 5.33333 6.17935 5.424 6.28069 5.536C6.38735 5.648 6.47002 5.78133 6.52869 5.936C6.58735 6.08533 6.61669 6.256 6.61669 6.448C6.61669 6.69867 6.56602 6.92533 6.46469 7.128C6.36335 7.33067 6.21935 7.504 6.03269 7.648C5.84602 7.792 5.62202 7.904 5.36069 7.984C5.09935 8.05867 4.81135 8.096 4.49669 8.096C4.21402 8.096 3.96335 8.06667 3.74469 8.008C3.52602 7.94933 3.33402 7.872 3.16869 7.776C3.00869 7.67467 2.86735 7.56 2.74469 7.432C2.62735 7.304 2.52335 7.168 2.43269 7.024L3.32069 6.336C3.44335 6.56533 3.59269 6.75467 3.76869 6.904C3.95002 7.048 4.19269 7.12 4.49669 7.12C4.76869 7.12 4.97935 7.05333 5.12869 6.92C5.28335 6.78133 5.36069 6.59467 5.36069 6.36V6.312C5.36069 6.08267 5.27269 5.912 5.09669 5.8C4.92602 5.68267 4.68869 5.624 4.38469 5.624H3.88069V4.624H4.40069Z" fill="white"/>
<path d="M9.50156 8.096C8.7709 8.096 8.22956 7.84267 7.87756 7.336C7.52556 6.82933 7.34956 6.12 7.34956 5.208C7.34956 4.296 7.52556 3.58667 7.87756 3.08C8.22956 2.57333 8.7709 2.32 9.50156 2.32C10.2322 2.32 10.7736 2.57333 11.1256 3.08C11.4776 3.58667 11.6536 4.296 11.6536 5.208C11.6536 6.12 11.4776 6.82933 11.1256 7.336C10.7736 7.84267 10.2322 8.096 9.50156 8.096ZM9.50156 7.08C9.82156 7.08 10.0429 6.96267 10.1656 6.728C10.2882 6.49333 10.3496 6.16267 10.3496 5.736V4.68C10.3496 4.25333 10.2882 3.92267 10.1656 3.688C10.0429 3.45333 9.82156 3.336 9.50156 3.336C9.18156 3.336 8.96023 3.45333 8.83756 3.688C8.7149 3.92267 8.65356 4.25333 8.65356 4.68V5.736C8.65356 6.16267 8.7149 6.49333 8.83756 6.728C8.96023 6.96267 9.18156 7.08 9.50156 7.08Z" fill="white"/>
<path d="M14.2984 8.096C13.5678 8.096 13.0264 7.84267 12.6744 7.336C12.3224 6.82933 12.1464 6.12 12.1464 5.208C12.1464 4.296 12.3224 3.58667 12.6744 3.08C13.0264 2.57333 13.5678 2.32 14.2984 2.32C15.0291 2.32 15.5704 2.57333 15.9224 3.08C16.2744 3.58667 16.4504 4.296 16.4504 5.208C16.4504 6.12 16.2744 6.82933 15.9224 7.336C15.5704 7.84267 15.0291 8.096 14.2984 8.096ZM14.2984 7.08C14.6184 7.08 14.8398 6.96267 14.9624 6.728C15.0851 6.49333 15.1464 6.16267 15.1464 5.736V4.68C15.1464 4.25333 15.0851 3.92267 14.9624 3.688C14.8398 3.45333 14.6184 3.336 14.2984 3.336C13.9784 3.336 13.7571 3.45333 13.6344 3.688C13.5118 3.92267 13.4504 4.25333 13.4504 4.68V5.736C13.4504 6.16267 13.5118 6.49333 13.6344 6.728C13.7571 6.96267 13.9784 7.08 14.2984 7.08Z" fill="white"/>
</svg>
