<svg width="32" height="32" viewBox="0 0 32 32" fill="none" xmlns="http://www.w3.org/2000/svg">
<path d="M26 8H6C4.89543 8 4 8.89543 4 10V22C4 23.1046 4.89543 24 6 24H26C27.1046 24 28 23.1046 28 22V10C28 8.89543 27.1046 8 26 8Z" fill="#FE0000"/>
<path d="M4 10L4 16H16V8H6C4.89543 8 4 8.89543 4 10Z" fill="#02308A"/>
<path fill-rule="evenodd" clip-rule="evenodd" d="M10.1248 9.5L9.59965 10.8302C9.76542 10.7781 9.94182 10.75 10.1248 10.75C10.3077 10.75 10.4841 10.7781 10.6499 10.8302L10.1248 9.5ZM8.49183 11.8694C8.62175 11.5332 8.85251 11.2472 9.14702 11.0484L7.77929 10.6295L8.49183 11.8694ZM8.37478 12.5C8.37478 12.8223 8.46191 13.1242 8.6139 13.3836L7.2 13.1676L8.38035 12.3593C8.37666 12.4057 8.37478 12.4527 8.37478 12.5ZM8.92718 13.776C9.18261 14.0159 9.51007 14.1799 9.87362 14.2321L8.82313 15.2029L8.92718 13.776ZM11.1025 11.0484C11.3971 11.2472 11.6278 11.5332 11.7577 11.8694L12.4703 10.6295L11.1025 11.0484ZM11.8748 12.5C11.8748 12.4527 11.8729 12.4057 11.8692 12.3593L13.0496 13.1676L11.6357 13.3836C11.7877 13.1242 11.8748 12.8223 11.8748 12.5ZM11.3224 13.776L11.4264 15.2029L10.3759 14.2321C10.7395 14.1799 11.067 14.0159 11.3224 13.776ZM11.6248 12.4767C11.6248 13.3052 10.9532 13.9767 10.1248 13.9767C9.29638 13.9767 8.6248 13.3052 8.6248 12.4767C8.6248 11.6483 9.29638 10.9767 10.1248 10.9767C10.9532 10.9767 11.6248 11.6483 11.6248 12.4767Z" fill="#02308A"/>
<path d="M9.87362 14.2321C9.51007 14.1799 9.18261 14.0159 8.92718 13.776L8.82313 15.2029L9.87362 14.2321Z" fill="white"/>
<path d="M8.6139 13.3836C8.46191 13.1242 8.37478 12.8223 8.37478 12.5C8.37478 12.4527 8.37666 12.4057 8.38035 12.3593L7.2 13.1676L8.6139 13.3836Z" fill="white"/>
<path d="M8.49183 11.8694C8.62175 11.5332 8.85251 11.2472 9.14702 11.0484L7.77929 10.6295L8.49183 11.8694Z" fill="white"/>
<path d="M9.59965 10.8302L10.1248 9.5L10.6499 10.8302C10.4841 10.7781 10.3077 10.75 10.1248 10.75C9.94182 10.75 9.76542 10.7781 9.59965 10.8302Z" fill="white"/>
<path d="M11.1025 11.0484C11.3971 11.2472 11.6278 11.5332 11.7577 11.8694L12.4703 10.6295L11.1025 11.0484Z" fill="white"/>
<path d="M11.8692 12.3593C11.8729 12.4057 11.8748 12.4527 11.8748 12.5C11.8748 12.8223 11.7877 13.1242 11.6357 13.3836L13.0496 13.1676L11.8692 12.3593Z" fill="white"/>
<path d="M11.3224 13.776L11.4264 15.2029L10.3759 14.2321C10.7395 14.1799 11.067 14.0159 11.3224 13.776Z" fill="white"/>
<path d="M10.1248 13.9767C10.9532 13.9767 11.6248 13.3052 11.6248 12.4767C11.6248 11.6483 10.9532 10.9767 10.1248 10.9767C9.29638 10.9767 8.6248 11.6483 8.6248 12.4767C8.6248 13.3052 9.29638 13.9767 10.1248 13.9767Z" fill="white"/>
<path fill-rule="evenodd" clip-rule="evenodd" d="M26 9H6C5.44772 9 5 9.44772 5 10V22C5 22.5523 5.44772 23 6 23H26C26.5523 23 27 22.5523 27 22V10C27 9.44771 26.5523 9 26 9ZM6 8C4.89543 8 4 8.89543 4 10V22C4 23.1046 4.89543 24 6 24H26C27.1046 24 28 23.1046 28 22V10C28 8.89543 27.1046 8 26 8H6Z" fill="black" fill-opacity="0.08"/>
<path d="M17.0206 8H26C27.1046 8 28 8.89543 28 10V22C28 23.1046 27.1046 24 26 24H6C4.89543 24 4 23.1046 4 22V16.0286H17.0206V8Z" fill="#FE0000"/>
<path fill-rule="evenodd" clip-rule="evenodd" d="M17.0206 16V7.97144H6C4.89543 7.97144 4 8.86687 4 9.97144V16H17.0206ZM10.5102 9.13428L9.9851 10.4644C10.1509 10.4124 10.3273 10.3843 10.5102 10.3843C10.6932 10.3843 10.8696 10.4124 11.0354 10.4644L10.5102 9.13428ZM8.87728 11.5037C9.0072 11.1675 9.23796 10.8815 9.53247 10.6827L8.16474 10.2638L8.87728 11.5037ZM8.76023 12.1343C8.76023 12.4566 8.84736 12.7585 8.99934 13.0179L7.58545 12.8018L8.7658 11.9936C8.76211 12.04 8.76023 12.0869 8.76023 12.1343ZM9.31263 13.4103C9.56806 13.6501 9.89551 13.8141 10.2591 13.8664L9.20858 14.8372L9.31263 13.4103ZM11.488 10.6827C11.7825 10.8815 12.0133 11.1675 12.1432 11.5037L12.8557 10.2638L11.488 10.6827ZM12.2602 12.1343C12.2602 12.0869 12.2584 12.04 12.2547 11.9936L13.435 12.8018L12.0211 13.0179C12.1731 12.7585 12.2602 12.4566 12.2602 12.1343ZM11.7078 13.4103L11.8119 14.8372L10.7614 13.8664C11.125 13.8141 11.4524 13.6501 11.7078 13.4103ZM12.0103 12.111C12.0103 12.9395 11.3387 13.611 10.5103 13.611C9.68183 13.611 9.01025 12.9395 9.01025 12.111C9.01025 11.2826 9.68183 10.611 10.5103 10.611C11.3387 10.611 12.0103 11.2826 12.0103 12.111Z" fill="#02308A"/>
<path d="M10.2591 13.8664C9.89551 13.8141 9.56806 13.6501 9.31263 13.4103L9.20858 14.8372L10.2591 13.8664Z" fill="white"/>
<path d="M8.99934 13.0179C8.84736 12.7585 8.76023 12.4566 8.76023 12.1343C8.76023 12.0869 8.76211 12.04 8.7658 11.9936L7.58545 12.8018L8.99934 13.0179Z" fill="white"/>
<path d="M8.87728 11.5037C9.0072 11.1675 9.23796 10.8815 9.53247 10.6827L8.16474 10.2638L8.87728 11.5037Z" fill="white"/>
<path d="M9.9851 10.4644L10.5102 9.13428L11.0354 10.4644C10.8696 10.4124 10.6932 10.3843 10.5102 10.3843C10.3273 10.3843 10.1509 10.4124 9.9851 10.4644Z" fill="white"/>
<path d="M11.488 10.6827C11.7825 10.8815 12.0133 11.1675 12.1432 11.5037L12.8557 10.2638L11.488 10.6827Z" fill="white"/>
<path d="M12.2547 11.9936C12.2584 12.04 12.2602 12.0869 12.2602 12.1343C12.2602 12.4566 12.1731 12.7585 12.0211 13.0179L13.435 12.8018L12.2547 11.9936Z" fill="white"/>
<path d="M11.7078 13.4103L11.8119 14.8372L10.7614 13.8664C11.125 13.8141 11.4524 13.6501 11.7078 13.4103Z" fill="white"/>
<path d="M10.5103 13.611C11.3387 13.611 12.0103 12.9395 12.0103 12.111C12.0103 11.2826 11.3387 10.611 10.5103 10.611C9.68183 10.611 9.01025 11.2826 9.01025 12.111C9.01025 12.9395 9.68183 13.611 10.5103 13.611Z" fill="white"/>
<path fill-rule="evenodd" clip-rule="evenodd" d="M26 9H6C5.44772 9 5 9.44772 5 10V22C5 22.5523 5.44772 23 6 23H26C26.5523 23 27 22.5523 27 22V10C27 9.44771 26.5523 9 26 9ZM6 8C4.89543 8 4 8.89543 4 10V22C4 23.1046 4.89543 24 6 24H26C27.1046 24 28 23.1046 28 22V10C28 8.89543 27.1046 8 26 8H6Z" fill="black" fill-opacity="0.08"/>
<path d="M13 2C13 0.89543 13.8954 0 15 0H30C31.1046 0 32 0.895431 32 2V8C32 9.10457 31.1046 10 30 10H15C13.8954 10 13 9.10457 13 8V2Z" fill="#414652"/>
<path d="M15.8141 8V7.032H16.5341V3.384H15.8141V2.416H18.4701V3.384H17.7501V7.032H18.4701V8H15.8141Z" fill="white"/>
<path d="M19.4832 2.416H21.5872C21.9552 2.416 22.2912 2.47467 22.5952 2.592C22.8992 2.70933 23.1579 2.88533 23.3712 3.12C23.5845 3.34933 23.7499 3.64 23.8672 3.992C23.9845 4.33867 24.0432 4.744 24.0432 5.208C24.0432 5.672 23.9845 6.08 23.8672 6.432C23.7499 6.77867 23.5845 7.06933 23.3712 7.304C23.1579 7.53333 22.8992 7.70667 22.5952 7.824C22.2912 7.94133 21.9552 8 21.5872 8H19.4832V2.416ZM21.5872 6.92C21.9499 6.92 22.2352 6.81867 22.4432 6.616C22.6512 6.41333 22.7552 6.088 22.7552 5.64V4.776C22.7552 4.328 22.6512 4.00267 22.4432 3.8C22.2352 3.59733 21.9499 3.496 21.5872 3.496H20.6992V6.92H21.5872Z" fill="white"/>
<path d="M29.4591 8H28.0511L26.8431 5.944H26.8191L25.6431 8H24.3311L26.1231 5.112L24.4191 2.416H25.8351L26.9231 4.304H26.9471L28.0511 2.416H29.3631L27.6431 5.136L29.4591 8Z" fill="white"/>
</svg>
