<svg width="32" height="32" viewBox="0 0 32 32" fill="none" xmlns="http://www.w3.org/2000/svg">
<g clip-path="url(#clip0_8821_17046)">
<path d="M32 16C32 24.8366 24.8366 32 16 32C7.16344 32 0 24.8366 0 16C0 7.16344 7.16344 0 16 0C24.8366 0 32 7.16344 32 16Z" fill="#D2EBDB"/>
<path d="M20.1215 15.9389V22.4311L17.6051 25.7054C17.4004 25.9742 17.0638 26.0681 16.7611 25.9495C16.4591 25.8303 16.2572 25.5247 16.26 25.1768L16.2727 21.0599L20.1215 15.9389Z" fill="#204E77"/>
<path d="M23.9806 10.8043L23.9694 13.1486C24.0096 14.3517 23.8092 15.737 23.3364 17.1413C22.9038 18.4242 22.3393 19.5518 21.6703 20.4163L20.1215 22.4311V15.9389L23.9806 10.8043Z" fill="#35786E"/>
<path d="M20.1216 9.47913L22.6556 6.19565C22.8603 5.92679 23.1962 5.83293 23.4989 5.95148C23.8017 6.07074 24.0028 6.37559 24 6.72419L23.9806 10.8043L20.1215 15.9389L20.1216 9.47913Z" fill="#9FD142"/>
<path d="M16.2727 21.0599L16.2814 18.2971C16.2835 17.1709 16.5164 15.9127 16.949 14.6297C17.4401 13.169 18.1465 11.9284 18.9284 11.0252L20.1216 9.47913L20.1215 15.9389L16.2727 21.0599Z" fill="#269E75"/>
<path d="M8.01941 10.8043L8.03069 13.1486C7.99047 14.3517 8.1902 15.737 8.6637 17.1413C9.09628 18.4242 9.66079 19.5518 10.3298 20.4163L11.878 22.431V15.9388L8.01941 10.8043Z" fill="#35786E"/>
<path d="M11.878 15.9388V22.431L14.3948 25.7054C14.5995 25.9742 14.9361 26.0681 15.2388 25.9495C15.5409 25.8303 15.7427 25.5247 15.7398 25.1768L15.7271 21.0599L11.878 15.9388Z" fill="#204E77"/>
<path d="M15.7271 21.0599L15.7188 18.2971C15.7167 17.1709 15.4838 15.9127 15.0513 14.6297C14.5601 13.169 13.8537 11.9284 13.0719 11.0252L11.8785 9.47905L11.878 15.9388L15.7271 21.0599Z" fill="#269E75"/>
<path d="M11.8785 9.47905L9.34431 6.19565C9.13967 5.92679 8.80376 5.83293 8.50103 5.95148C8.199 6.07074 7.99721 6.37559 8.00003 6.72419L8.01941 10.8043L11.878 15.9388L11.8785 9.47905Z" fill="#9FD142"/>
</g>
<defs>
<clipPath id="clip0_8821_17046">
<rect width="32" height="32" fill="white"/>
</clipPath>
</defs>
</svg>
