<svg width="32" height="32" viewBox="0 0 32 32" fill="none" xmlns="http://www.w3.org/2000/svg">
<g clip-path="url(#clip0_8821_17055)">
<path d="M32 16C32 24.8366 24.8366 32 16 32C7.16344 32 0 24.8366 0 16C0 7.16344 7.16344 0 16 0C24.8366 0 32 7.16344 32 16Z" fill="#F6F7F8"/>
<path fill-rule="evenodd" clip-rule="evenodd" d="M12.6 14.83V11.83L11.42 11.8V20H12.64V19.28C12.914 19.5532 13.2361 19.7735 13.59 19.93C13.9625 20.0908 14.3643 20.1726 14.77 20.17C15.1926 20.1703 15.611 20.0853 16 19.92C16.7479 19.6049 17.3459 19.014 17.67 18.27C17.8329 17.8876 17.9147 17.4756 17.91 17.06C17.9127 16.6446 17.831 16.2329 17.67 15.85C17.5165 15.4748 17.2886 15.1346 17 14.85C16.7111 14.5665 16.372 14.3393 16 14.18C15.6103 14.0182 15.1919 13.9365 14.77 13.94C14.3674 13.9365 13.9687 14.0183 13.6 14.18C13.2283 14.331 12.8889 14.5516 12.6 14.83ZM13.17 18.49C12.9861 18.2992 12.8402 18.0753 12.74 17.83C12.5266 17.3111 12.5266 16.7289 12.74 16.21C12.8474 15.9638 13.0001 15.74 13.19 15.55C13.3787 15.3574 13.6045 15.205 13.8537 15.1018C14.1029 14.9987 14.3703 14.9471 14.64 14.95C14.9117 14.9468 15.1809 15.0014 15.43 15.11C15.6736 15.2123 15.8945 15.3618 16.08 15.55C16.2669 15.7404 16.4161 15.9643 16.52 16.21C16.7334 16.7289 16.7334 17.3111 16.52 17.83C16.4205 18.0766 16.2729 18.3009 16.0858 18.4898C15.8986 18.6787 15.6757 18.8283 15.43 18.93C15.1809 19.0386 14.9117 19.0932 14.64 19.09C14.3618 19.0936 14.0859 19.0391 13.83 18.93C13.5863 18.8225 13.363 18.6736 13.17 18.49Z" fill="#0E0E0E"/>
<path d="M5.80001 18.47C5.61454 18.271 5.47162 18.0362 5.38001 17.78C5.27599 17.495 5.22515 17.1933 5.23001 16.89V11.83H4.00001V17C3.98616 17.4281 4.05055 17.8551 4.19001 18.26C4.34173 18.6337 4.56606 18.9736 4.85001 19.26C5.13198 19.547 5.47329 19.7688 5.85001 19.91C6.23826 20.0639 6.65239 20.1419 7.07001 20.14C7.48225 20.1433 7.89075 20.0616 8.27001 19.9C8.64768 19.7512 8.98878 19.5227 9.27001 19.23V20H10.45V11.83H9.22001V16.89C9.22398 17.1933 9.17316 17.4948 9.07001 17.78C8.97631 18.0345 8.82976 18.2662 8.64001 18.46C8.45838 18.6507 8.24089 18.8036 8.00001 18.91C7.75911 19.011 7.5012 19.0653 7.24001 19.07C6.96502 19.074 6.69232 19.0194 6.44001 18.91C6.19506 18.8157 5.9758 18.6649 5.80001 18.47Z" fill="#0E0E0E"/>
<path fill-rule="evenodd" clip-rule="evenodd" d="M18.52 15.85C18.6675 15.4765 18.8886 15.1365 19.17 14.85C19.45 14.5558 19.7914 14.327 20.17 14.18C20.5505 14.0101 20.9633 13.9248 21.38 13.93C21.7911 13.9281 22.1987 14.0062 22.58 14.16C22.9379 14.3147 23.2612 14.5395 23.5309 14.8212C23.8005 15.1028 24.011 15.4357 24.15 15.8C24.2822 16.186 24.3465 16.592 24.34 17V17.39H19.48C19.5193 17.6259 19.6006 17.8528 19.72 18.06C19.8291 18.2647 19.9749 18.4478 20.15 18.6C20.3303 18.7502 20.5326 18.8716 20.75 18.96C21.182 19.1113 21.6511 19.1201 22.0885 18.9851C22.5258 18.8501 22.9084 18.5785 23.18 18.21L24.03 18.84C23.7443 19.2347 23.3667 19.5539 22.93 19.77C22.4756 20.0031 21.9705 20.1199 21.46 20.11C21.0322 20.1169 20.6073 20.0387 20.21 19.88C19.8357 19.7295 19.4955 19.505 19.21 19.22C18.9216 18.9331 18.6908 18.5936 18.53 18.22C18.2168 17.4403 18.2168 16.5697 18.53 15.79L18.52 15.85ZM20.17 15.39C19.8273 15.6691 19.5908 16.0574 19.5 16.49H23.14C23.0608 16.0578 22.8304 15.6678 22.49 15.39C22.1645 15.1183 21.754 14.9694 21.33 14.9694C20.906 14.9694 20.4955 15.1183 20.17 15.39Z" fill="#0E0E0E"/>
<path d="M26.17 16.63C26.1485 16.2248 26.2846 15.827 26.55 15.52C26.6701 15.3847 26.8181 15.2771 26.9839 15.2046C27.1496 15.132 27.3291 15.0964 27.51 15.1H28V14H27.59C27.3101 13.9867 27.0316 14.0471 26.7824 14.1752C26.5332 14.3033 26.322 14.4946 26.17 14.73V14H25V20H26.17V16.63Z" fill="#0E0E0E"/>
</g>
<defs>
<clipPath id="clip0_8821_17055">
<rect width="32" height="32" fill="white"/>
</clipPath>
</defs>
</svg>
