<svg width="32" height="32" viewBox="0 0 32 32" fill="none" xmlns="http://www.w3.org/2000/svg">
<path d="M4 10C4 8.89543 4.89543 8 6 8H26C27.1046 8 28 8.89543 28 10V22C28 23.1046 27.1046 24 26 24H6C4.89543 24 4 23.1046 4 22V10Z" fill="#0D47A1"/>
<path d="M4 10C4 8.89543 4.89543 8 6 8H7.60554L14 12.263V8.00001H18V12.263L24.3945 8H26C27.1046 8 28 8.89543 28 10L28 10.4037L22.6056 14H28V18H22.6056L28 21.5963L28 22C28 23.1046 27.1046 24 26 24H24.3944L18 19.737V24H14V19.737L7.60556 24H6C4.89543 24 4 23.1046 4 22L4.00001 21.5963L9.39445 18H4L4.00001 14H9.39445L4.00001 10.4037L4 10Z" fill="white"/>
<path d="M14.7586 8V14.7258H4V17.248H14.7586V24H17.2414V17.248H28V14.7258H17.2414V8H14.7586Z" fill="#F44336"/>
<path d="M26.7641 8.15115L18.069 13.885H19.589L27.4951 8.67152C27.2955 8.44702 27.046 8.26779 26.7641 8.15115Z" fill="#F44336"/>
<path d="M27.7192 23.0225L20.2369 18.0887H18.7169L27.1404 23.6433C27.3747 23.4803 27.5726 23.2685 27.7192 23.0225Z" fill="#F44336"/>
<path d="M5.19769 23.8326L13.9083 18.0887H12.3882L4.48199 23.3022C4.67642 23.5287 4.92065 23.7111 5.19769 23.8326Z" fill="#F44336"/>
<path d="M4.24265 9.04434L11.5834 13.885H13.1035L4.79318 8.40498C4.56738 8.57608 4.37906 8.79404 4.24265 9.04434Z" fill="#F44336"/>
<path fill-rule="evenodd" clip-rule="evenodd" d="M26 9H6C5.44772 9 5 9.44772 5 10V22C5 22.5523 5.44772 23 6 23H26C26.5523 23 27 22.5523 27 22V10C27 9.44771 26.5523 9 26 9ZM6 8C4.89543 8 4 8.89543 4 10V22C4 23.1046 4.89543 24 6 24H26C27.1046 24 28 23.1046 28 22V10C28 8.89543 27.1046 8 26 8H6Z" fill="black" fill-opacity="0.08"/>
<path d="M13 2C13 0.89543 13.8954 0 15 0H30C31.1046 0 32 0.895431 32 2V8C32 9.10457 31.1046 10 30 10H15C13.8954 10 13 9.10457 13 8V2Z" fill="#414652"/>
<path d="M16.0567 8V7.032H17.5607V3.288H17.4887L16.3527 4.776L15.5847 4.176L16.9207 2.416H18.7607V7.032H19.9447V8H16.0567Z" fill="white"/>
<path d="M22.5016 8.096C21.7709 8.096 21.2296 7.84267 20.8776 7.336C20.5256 6.82933 20.3496 6.12 20.3496 5.208C20.3496 4.296 20.5256 3.58667 20.8776 3.08C21.2296 2.57333 21.7709 2.32 22.5016 2.32C23.2322 2.32 23.7736 2.57333 24.1256 3.08C24.4776 3.58667 24.6536 4.296 24.6536 5.208C24.6536 6.12 24.4776 6.82933 24.1256 7.336C23.7736 7.84267 23.2322 8.096 22.5016 8.096ZM22.5016 7.08C22.8216 7.08 23.0429 6.96267 23.1656 6.728C23.2882 6.49333 23.3496 6.16267 23.3496 5.736V4.68C23.3496 4.25333 23.2882 3.92267 23.1656 3.688C23.0429 3.45333 22.8216 3.336 22.5016 3.336C22.1816 3.336 21.9602 3.45333 21.8376 3.688C21.7149 3.92267 21.6536 4.25333 21.6536 4.68V5.736C21.6536 6.16267 21.7149 6.49333 21.8376 6.728C21.9602 6.96267 22.1816 7.08 22.5016 7.08Z" fill="white"/>
<path d="M27.2984 8.096C26.5678 8.096 26.0264 7.84267 25.6744 7.336C25.3224 6.82933 25.1464 6.12 25.1464 5.208C25.1464 4.296 25.3224 3.58667 25.6744 3.08C26.0264 2.57333 26.5678 2.32 27.2984 2.32C28.0291 2.32 28.5704 2.57333 28.9224 3.08C29.2744 3.58667 29.4504 4.296 29.4504 5.208C29.4504 6.12 29.2744 6.82933 28.9224 7.336C28.5704 7.84267 28.0291 8.096 27.2984 8.096ZM27.2984 7.08C27.6184 7.08 27.8398 6.96267 27.9624 6.728C28.0851 6.49333 28.1464 6.16267 28.1464 5.736V4.68C28.1464 4.25333 28.0851 3.92267 27.9624 3.688C27.8398 3.45333 27.6184 3.336 27.2984 3.336C26.9784 3.336 26.7571 3.45333 26.6344 3.688C26.5118 3.92267 26.4504 4.25333 26.4504 4.68V5.736C26.4504 6.16267 26.5118 6.49333 26.6344 6.728C26.7571 6.96267 26.9784 7.08 27.2984 7.08Z" fill="white"/>
</svg>
