<svg width="32" height="32" viewBox="0 0 32 32" fill="none" xmlns="http://www.w3.org/2000/svg">
<path d="M23 6H9V26H23V6Z" fill="#5798B4"/>
<path fill-rule="evenodd" clip-rule="evenodd" d="M8.5 6H23.5C23.7761 6 24 6.22386 24 6.5C24 6.77614 23.7761 7 23.5 7H8.5C8.22386 7 8 6.77614 8 6.5C8 6.22386 8.22386 6 8.5 6ZM8.5 8H23.5C23.7761 8 24 8.22386 24 8.5C24 8.77614 23.7761 9 23.5 9H8.5C8.22386 9 8 8.77614 8 8.5C8 8.22386 8.22386 8 8.5 8ZM23.5 25H8.5C8.22386 25 8 25.2239 8 25.5C8 25.7761 8.22386 26 8.5 26H23.5C23.7761 26 24 25.7761 24 25.5C24 25.2239 23.7761 25 23.5 25ZM8.5 23H23.5C23.7761 23 24 23.2239 24 23.5C24 23.7761 23.7761 24 23.5 24H8.5C8.22386 24 8 23.7761 8 23.5C8 23.2239 8.22386 23 8.5 23Z" fill="#3B7B96"/>
<path d="M18.9901 17.15C18.9901 18.7333 17.6437 20 15.9999 20C14.3562 20 13.0098 18.7333 13.0098 17.15C13.0098 15.5667 15.9999 12 15.9999 12C15.9999 12 18.9901 15.5833 18.9901 17.15Z" fill="#FFC521"/>
<path d="M16.0002 19.2499C14.7936 19.2499 13.7969 18.3166 13.7969 17.1499C13.7969 17.0166 13.9193 16.8999 14.0592 16.8999C14.1991 16.8999 14.3215 17.0166 14.3215 17.1499C14.3215 18.0332 15.0734 18.7499 16.0002 18.7499C16.14 18.7499 16.2624 18.8666 16.2624 18.9999C16.2624 19.1332 16.14 19.2499 16.0002 19.2499Z" fill="white"/>
<path d="M17 1.25C17 0.559644 17.5596 0 18.25 0H30.75C31.4404 0 32 0.559644 32 1.25V8.75C32 9.44036 31.4404 10 30.75 10H18.25C17.5596 10 17 9.44036 17 8.75V1.25Z" fill="#0D47A1"/>
<path d="M17 1.25C17 0.559644 17.5596 0 18.25 0H19.2535L23.25 2.66436V4.76837e-06H25.75V2.66436L29.7465 0H30.75C31.4404 0 32 0.559644 32 1.25L32 1.50232L28.6285 3.75H32V6.25H28.6285L32 8.49769L32 8.75C32 9.44036 31.4404 10 30.75 10H29.7465L25.75 7.33565V10H23.25V7.33565L19.2535 10H18.25C17.5596 10 17 9.44036 17 8.75L17 8.49769L20.3715 6.25H17L17 3.75H20.3715L17 1.50232L17 1.25Z" fill="white"/>
<path d="M23.7241 0V4.20361H17V5.77997H23.7241V10H25.2759V5.77997H32V4.20361H25.2759V0H23.7241Z" fill="#F44336"/>
<path d="M31.2276 0.094471L25.7931 3.67815H26.7431L31.6844 0.419703C31.5597 0.279388 31.4037 0.16737 31.2276 0.094471Z" fill="#F44336"/>
<path d="M31.8245 9.38909L27.1481 6.30542H26.1981L31.4627 9.77704C31.6092 9.67519 31.7329 9.5428 31.8245 9.38909Z" fill="#F44336"/>
<path d="M17.7486 9.89536L23.1927 6.30542H22.2426L17.3012 9.56389C17.4228 9.70542 17.5754 9.81945 17.7486 9.89536Z" fill="#F44336"/>
<path d="M17.1517 0.652714L21.7396 3.67815H22.6897L17.4957 0.253115C17.3546 0.36005 17.2369 0.496273 17.1517 0.652714Z" fill="#F44336"/>
<path fill-rule="evenodd" clip-rule="evenodd" d="M30.75 0.625H18.25C17.9048 0.625 17.625 0.904822 17.625 1.25V8.75C17.625 9.09518 17.9048 9.375 18.25 9.375H30.75C31.0952 9.375 31.375 9.09518 31.375 8.75V1.25C31.375 0.904822 31.0952 0.625 30.75 0.625ZM18.25 0C17.5596 0 17 0.559644 17 1.25V8.75C17 9.44036 17.5596 10 18.25 10H30.75C31.4404 10 32 9.44036 32 8.75V1.25C32 0.559644 31.4404 0 30.75 0H18.25Z" fill="black" fill-opacity="0.08"/>
</svg>
