<svg width="32" height="32" viewBox="0 0 32 32" fill="none" xmlns="http://www.w3.org/2000/svg">
<g clip-path="url(#clip0_513_9197)">
<path d="M16 32C24.8366 32 32 24.8366 32 16C32 7.16344 24.8366 0 16 0C7.16344 0 0 7.16344 0 16C0 24.8366 7.16344 32 16 32Z" fill="#282C38"/>
<path d="M16.0119 12.5714C12.9828 12.5714 9.91672 11.7864 9.91672 10.2857C9.91672 8.78502 12.9828 8 16.0119 8C19.0409 8 22.1072 8.78502 22.1072 10.2857C22.1072 11.7864 19.0409 12.5714 16.0119 12.5714ZM13.3453 9.90472H12.5833C12.3729 9.90472 12.2024 10.0753 12.2024 10.2857C12.2024 10.4961 12.3729 10.6667 12.5833 10.6667H13.3453C13.5557 10.6667 13.7262 10.4961 13.7262 10.2857C13.7262 10.0753 13.5557 9.90472 13.3453 9.90472Z" fill="white"/>
<path d="M10.2976 12.1129C11.6363 12.9856 13.9351 13.3333 16.0119 13.3333C18.0886 13.3333 20.3874 12.9856 21.7262 12.1129V15.1569C21.9604 15.3761 22.0975 15.6795 22.1072 16C22.1072 17.5007 19.0409 18.2857 16.0119 18.2857C12.9828 18.2857 9.91672 17.5007 9.91672 16C9.92635 15.6795 10.0635 15.3761 10.2976 15.1569V12.1129Z" fill="white"/>
<path d="M10.2976 17.8271C11.6363 18.6999 13.9351 19.0476 16.0119 19.0476C18.0886 19.0476 20.3874 18.6999 21.7262 17.8271V20.8712C21.9604 21.0904 22.0975 21.3938 22.1072 21.7143C22.1072 23.215 19.0409 24 16.0119 24C12.9828 24 9.91672 23.215 9.91672 21.7143C9.92635 21.3938 10.0635 21.0904 10.2976 20.8712V17.8271Z" fill="white"/>
<g clip-path="url(#clip1_513_9197)">
<path d="M16 5.75C16 5.33579 16.3358 5 16.75 5H24.25C24.6642 5 25 5.33579 25 5.75V10.25C25 10.6642 24.6642 11 24.25 11H16.75C16.3358 11 16 10.6642 16 10.25V5.75Z" fill="#0D47A1"/>
<path d="M16 5.75C16 5.33579 16.3358 5 16.75 5H17.3521L19.75 6.59861V5H21.25V6.59862L23.6479 5H24.25C24.6642 5 25 5.33579 25 5.75L25 5.90139L22.9771 7.25H25V8.75H22.9771L25 10.0986L25 10.25C25 10.6642 24.6642 11 24.25 11H23.6479L21.25 9.40139V11H19.75V9.40139L17.3521 11H16.75C16.3358 11 16 10.6642 16 10.25L16 10.0986L18.0229 8.75H16L16 7.25H18.0229L16 5.90139L16 5.75Z" fill="white"/>
<path d="M20.0345 5V7.52216H16V8.46798H20.0345V11H20.9655V8.46798H25V7.52216H20.9655V5H20.0345Z" fill="#F44336"/>
<path d="M24.5365 5.05668L21.2759 7.20689H21.8459L24.8107 5.25182C24.7358 5.16763 24.6422 5.10042 24.5365 5.05668Z" fill="#F44336"/>
<path d="M24.8947 10.6335L22.0889 8.78325H21.5188L24.6776 10.8662C24.7655 10.8051 24.8397 10.7257 24.8947 10.6335Z" fill="#F44336"/>
<path d="M16.4491 10.9372L19.7156 8.78325H19.1456L16.1807 10.7383C16.2537 10.8233 16.3452 10.8917 16.4491 10.9372Z" fill="#F44336"/>
<path d="M16.091 5.39163L18.8438 7.20689H19.4138L16.2974 5.15187C16.2128 5.21603 16.1421 5.29776 16.091 5.39163Z" fill="#F44336"/>
<path fill-rule="evenodd" clip-rule="evenodd" d="M24.25 5.375H16.75C16.5429 5.375 16.375 5.54289 16.375 5.75V10.25C16.375 10.4571 16.5429 10.625 16.75 10.625H24.25C24.4571 10.625 24.625 10.4571 24.625 10.25V5.75C24.625 5.54289 24.4571 5.375 24.25 5.375ZM16.75 5C16.3358 5 16 5.33579 16 5.75V10.25C16 10.6642 16.3358 11 16.75 11H24.25C24.6642 11 25 10.6642 25 10.25V5.75C25 5.33579 24.6642 5 24.25 5H16.75Z" fill="black" fill-opacity="0.08"/>
</g>
<rect x="15.75" y="4.75" width="9.5" height="6.5" rx="1.25" stroke="#282C38" stroke-width="0.5"/>
</g>
<defs>
<clipPath id="clip0_513_9197">
<rect width="32" height="32" fill="white"/>
</clipPath>
<clipPath id="clip1_513_9197">
<rect x="16" y="5" width="9" height="6" rx="1" fill="white"/>
</clipPath>
</defs>
</svg>
