<svg width="32" height="32" viewBox="0 0 32 32" fill="none" xmlns="http://www.w3.org/2000/svg">
<g clip-path="url(#clip0_8821_16510)">
<path d="M19.9999 11C19.9999 15.97 15.9709 19.9989 11.0009 19.9989C6.03094 19.9989 2.00195 15.97 2.00195 11C2.00195 6.02996 6.03094 2.00098 11.0009 2.00098C15.9709 2.00098 19.9999 6.02996 19.9999 11Z" fill="#FF007A"/>
<path fill-rule="evenodd" clip-rule="evenodd" d="M6.22614 5.06274C7.57854 6.70536 9.66229 9.25925 9.76676 9.39855C9.85383 9.51464 9.819 9.62492 9.67389 9.70618C9.59263 9.75262 9.42431 9.79905 9.34305 9.79905C9.25018 9.79905 9.1399 9.75262 9.06444 9.67716C9.0122 9.62492 8.78584 9.29408 8.27506 8.49889C7.88617 7.88944 7.55533 7.38446 7.54952 7.37866C7.5263 7.36705 7.5263 7.36705 8.23443 8.63239C8.68136 9.42758 8.82647 9.71199 8.82647 9.74681C8.82647 9.82227 8.80325 9.8629 8.71038 9.96738C8.55367 10.1415 8.48401 10.3389 8.43178 10.751C8.37373 11.2095 8.21702 11.5345 7.77008 12.0859C7.50889 12.411 7.46826 12.469 7.40441 12.6025C7.32315 12.765 7.29994 12.8579 7.28833 13.0669C7.27672 13.2874 7.29994 13.4267 7.36378 13.6357C7.42183 13.8214 7.48567 13.9433 7.64239 14.1813C7.77589 14.3903 7.85715 14.547 7.85715 14.605C7.85715 14.6514 7.86876 14.6514 8.07771 14.605C8.57688 14.4889 8.98899 14.2916 9.21536 14.0478C9.35466 13.8969 9.38948 13.8156 9.38948 13.6067C9.38948 13.4732 9.38368 13.4442 9.34885 13.3629C9.29081 13.2352 9.18053 13.1307 8.94255 12.9682C8.62912 12.7534 8.49562 12.5793 8.4608 12.3471C8.43178 12.1498 8.4666 12.0163 8.64073 11.6506C8.82066 11.2733 8.8671 11.1166 8.89612 10.7335C8.91353 10.4898 8.94255 10.3911 9.01221 10.3156C9.08766 10.2344 9.15151 10.2054 9.33144 10.1821C9.62746 10.1415 9.819 10.066 9.96991 9.92094C10.1034 9.79905 10.1615 9.67716 10.1673 9.49723L10.1731 9.36373L10.0976 9.28247C9.82481 8.96904 6.04621 4.81316 6.0288 4.81316C6.02525 4.81316 6.05852 4.85431 6.11009 4.91809C6.14295 4.95872 6.18323 5.00854 6.22614 5.06274ZM8.00806 13.3165C8.07191 13.2062 8.03708 13.0669 7.9326 12.9972C7.83393 12.9334 7.68302 12.9624 7.68302 13.0495C7.68302 13.0727 7.69463 13.0959 7.72945 13.1075C7.78169 13.1365 7.7875 13.1655 7.74687 13.2294C7.70624 13.2932 7.70624 13.3513 7.75848 13.3919C7.83974 13.4558 7.95002 13.4209 8.00806 13.3165Z" fill="white"/>
<path d="M9.86001 7.37295C9.73812 7.35554 9.73232 7.34974 9.79036 7.34393C9.90064 7.32652 10.156 7.34974 10.336 7.39037C10.7539 7.48904 11.1312 7.74443 11.5316 8.19136L11.6361 8.31325L11.787 8.29003C12.4313 8.18555 13.093 8.26681 13.6444 8.5222C13.7953 8.59186 14.0333 8.73116 14.0623 8.76598C14.0739 8.77759 14.0913 8.85305 14.103 8.9285C14.1436 9.20131 14.1262 9.40446 14.0391 9.56117C13.9927 9.64824 13.9927 9.67146 14.0217 9.74691C14.0449 9.80495 14.1146 9.84558 14.1784 9.84558C14.3177 9.84558 14.4628 9.62502 14.5325 9.31739L14.5615 9.1955L14.6137 9.25355C14.9097 9.58439 15.1419 10.0429 15.1767 10.368L15.1884 10.455L15.1361 10.3796C15.0491 10.2461 14.9678 10.159 14.8575 10.0836C14.6602 9.95006 14.4512 9.90943 13.8998 9.88041C13.4006 9.85139 13.1162 9.81076 12.8376 9.71789C12.3617 9.56117 12.1179 9.35802 11.5549 8.60927C11.3053 8.27842 11.1486 8.09849 10.9918 7.94758C10.6494 7.61673 10.3069 7.4426 9.86001 7.37295Z" fill="white"/>
<path d="M14.184 8.10949C14.1956 7.88893 14.2246 7.74382 14.2885 7.61032C14.3117 7.55808 14.3349 7.51165 14.3407 7.51165C14.3465 7.51165 14.3349 7.55228 14.3175 7.59871C14.2711 7.7264 14.2653 7.90634 14.2943 8.10949C14.3349 8.37068 14.3523 8.40551 14.6309 8.68992C14.7586 8.82342 14.9095 8.99174 14.9676 9.06139L15.0663 9.18909L14.9676 9.09622C14.8457 8.98013 14.5671 8.75957 14.5032 8.73055C14.4626 8.70733 14.4568 8.70733 14.4278 8.73635C14.4046 8.75957 14.3988 8.7944 14.3988 8.96272C14.393 9.22391 14.3581 9.38643 14.2711 9.55476C14.2246 9.64182 14.2188 9.62441 14.2595 9.52574C14.2885 9.45028 14.2943 9.41546 14.2943 9.16587C14.2943 8.6609 14.2362 8.53901 13.8822 8.33586C13.7951 8.28362 13.6442 8.20816 13.5571 8.16753C13.4643 8.1269 13.3946 8.09208 13.4004 8.09208C13.412 8.08047 13.7545 8.17914 13.888 8.23718C14.0911 8.31844 14.126 8.32425 14.1492 8.31844C14.1666 8.30103 14.1782 8.2546 14.184 8.10949Z" fill="white"/>
<path d="M9.73205 7.72636C9.69722 8.11525 9.85394 8.63764 10.0977 8.97428C10.2893 9.23548 10.5853 9.43863 10.8058 9.46185C10.9509 9.47345 10.9916 9.42702 10.9277 9.33415C10.8349 9.20646 10.7246 9.00331 10.6956 8.91624C10.6781 8.864 10.6375 8.70148 10.6085 8.56218C10.5098 8.08623 10.4053 7.89469 10.1732 7.75538C10.0861 7.70314 9.90618 7.63349 9.8017 7.61608L9.74366 7.60447L9.73205 7.72636Z" fill="white"/>
<path d="M13.8879 11.4995C12.7386 11.0352 12.3323 10.6347 12.3323 9.95561C12.3323 9.85693 12.3381 9.77567 12.3381 9.77567C12.342 9.77567 12.3613 9.79115 12.3893 9.8135C12.4033 9.82468 12.4194 9.83758 12.4368 9.85113C12.669 10.0369 12.9302 10.1181 13.6557 10.2226C14.0794 10.2865 14.3232 10.3329 14.5438 10.4083C15.2461 10.6405 15.6814 11.1165 15.7859 11.7607C15.8149 11.9465 15.7975 12.3005 15.7511 12.4863C15.7104 12.6314 15.5943 12.8984 15.5653 12.9042C15.5595 12.9042 15.5479 12.8752 15.5479 12.8287C15.5363 12.585 15.4144 12.3528 15.2113 12.1728C14.9675 11.9639 14.654 11.8072 13.8879 11.4995Z" fill="white"/>
<path d="M13.0173 11.4473C13.0347 11.4938 13.0637 11.6041 13.0753 11.6911C13.1682 12.2367 12.8838 12.6837 12.3091 12.8636C12.2511 12.8868 12.0189 12.9332 11.7926 12.9681C11.334 13.0493 11.1251 13.1016 10.9219 13.2002C10.7768 13.2699 10.5969 13.3744 10.6085 13.386C10.6143 13.3918 10.6491 13.3802 10.6839 13.3686C10.9451 13.2757 11.2353 13.2293 11.6707 13.206C11.8164 13.1963 11.9785 13.1825 12.0682 13.1749L12.1118 13.1712C12.5007 13.119 12.7735 13.0029 12.9824 12.7881C13.0985 12.6662 13.1682 12.556 13.2262 12.3992C13.261 12.3006 13.2668 12.2599 13.2668 12.0858C13.2668 11.9059 13.2668 11.8711 13.2262 11.7608C13.174 11.6157 13.1159 11.5112 13.0405 11.4241L12.9882 11.3603L13.0173 11.4473Z" fill="white"/>
<path d="M13.6035 12.6261C13.4526 12.2953 13.4178 11.9818 13.499 11.6858C13.5106 11.6568 13.5223 11.6278 13.5339 11.6278C13.5455 11.6278 13.5803 11.6452 13.6151 11.6684C13.6848 11.7148 13.8299 11.7961 14.2014 11.9992C14.6715 12.2546 14.9385 12.452 15.1242 12.6783C15.2868 12.8757 15.3854 13.1021 15.4319 13.3807C15.4609 13.5374 15.4435 13.9147 15.4029 14.0714C15.2752 14.5647 14.9849 14.9594 14.5612 15.1858C14.4974 15.2206 14.4451 15.2438 14.4393 15.2438C14.4335 15.2438 14.4567 15.1858 14.4916 15.1161C14.6309 14.8201 14.6483 14.5357 14.5438 14.2165C14.48 14.0191 14.3465 13.7812 14.0795 13.3807C13.7602 12.9163 13.6848 12.7944 13.6035 12.6261Z" fill="white"/>
<path d="M10.7245 13.7052C10.237 13.7864 9.70877 14.0418 9.27926 14.4017L9.15737 14.5178L9.26765 14.5352C9.84808 14.6223 10.0048 14.7035 10.4111 15.1214C10.6433 15.3594 10.7245 15.4116 10.9161 15.4639C11.2005 15.5393 11.4791 15.4058 11.5778 15.1504C11.6184 15.0344 11.6126 14.8486 11.5661 14.7558C11.4501 14.5294 11.1076 14.4597 10.9451 14.6223C10.8116 14.7558 10.8522 14.9647 11.0205 14.9995C11.0362 15.0021 11.0449 15.0036 11.0453 15.0022C11.0459 15.0006 11.0344 14.9949 11.0089 14.9821C10.9335 14.9473 10.8987 14.9009 10.8987 14.8254C10.8929 14.6455 11.096 14.5526 11.2817 14.6339C11.421 14.6977 11.4733 14.779 11.4733 14.9183C11.4733 15.133 11.2875 15.3014 11.0728 15.2723C10.9567 15.2549 10.8174 15.1853 10.7419 15.0982C10.5562 14.8892 10.6259 14.5468 10.8929 14.4191C11.096 14.3204 11.363 14.3495 11.572 14.4829C11.8099 14.6397 11.9144 14.779 12.1176 15.2491C12.1872 15.4058 12.2685 15.5742 12.3091 15.6322C12.5006 15.9224 12.7386 16.0675 13.0172 16.0675C13.1739 16.0675 13.29 16.0443 13.4351 15.9688C13.5396 15.9166 13.6963 15.8121 13.6847 15.8005C13.6847 15.796 13.6559 15.8058 13.6181 15.8187L13.586 15.8295C13.2784 15.9456 12.965 15.9398 12.7851 15.8063C12.669 15.7193 12.5761 15.5567 12.5297 15.3478L12.524 15.3147C12.513 15.2509 12.4904 15.1204 12.4716 14.9937C12.4078 14.5932 12.3439 14.4133 12.2046 14.2043C12.0595 13.9896 11.7809 13.8155 11.4733 13.7342C11.2817 13.682 10.9335 13.6703 10.7245 13.7052Z" fill="white"/>
<path fill-rule="evenodd" clip-rule="evenodd" d="M10.0455 10.6063C10.0862 10.4554 10.2197 10.3045 10.359 10.2639C10.4518 10.2348 10.6318 10.2523 10.7188 10.2987C10.8872 10.3858 11.009 10.5773 10.98 10.7166C10.951 10.8849 10.6782 11.0242 10.359 11.0242C10.1964 11.0242 10.1384 11.001 10.0746 10.9198C10.0339 10.8675 10.0223 10.6992 10.0455 10.6063ZM10.6724 10.3567C10.7595 10.409 10.7769 10.4844 10.7304 10.5541C10.6956 10.6005 10.5911 10.647 10.5157 10.647C10.3996 10.647 10.2777 10.5657 10.2777 10.4902C10.2777 10.3393 10.5157 10.2581 10.6724 10.3567Z" fill="white"/>
</g>
<path d="M12.0193 20.4375C12.0078 20.6235 12.002 20.8111 12.002 21C12.002 21.3809 12.0256 21.7563 12.0716 22.1248H29.9303C29.9762 21.7563 29.9999 21.3809 29.9999 21C29.9999 20.8111 29.9941 20.6235 29.9826 20.4375H12.0193Z" fill="white"/>
<path d="M21.0009 17.0629V18.7502H29.7164C29.5651 18.1624 29.3559 17.5978 29.0952 17.0629H21.0009Z" fill="white"/>
<path d="M21.0009 15.3756H28.0262C27.5133 14.7358 26.9148 14.1676 26.2482 13.6883H21.0009V15.3756Z" fill="white"/>
<path d="M12.4501 23.8121C12.6446 24.4041 12.899 24.9689 13.2059 25.4995H28.796C29.1029 24.9689 29.3572 24.4041 29.5518 23.8121H12.4501Z" fill="white"/>
<path d="M14.466 27.1868C15.098 27.8541 15.8312 28.4247 16.641 28.8741H25.3609C26.1707 28.4247 26.9038 27.8541 27.5359 27.1868H14.466Z" fill="white"/>
<path d="M21.0011 12.001L21.0009 13.6883H26.2482C24.7711 12.6264 22.9592 12.001 21.0011 12.001Z" fill="#F44336"/>
<path d="M21.0011 20.4375H29.9826C29.9469 19.8586 29.8565 19.2944 29.7164 18.7502H21.0009L21.0011 20.4375Z" fill="#F44336"/>
<path d="M21.0009 17.0629H29.0952C28.8012 16.4596 28.4418 15.8941 28.0262 15.3756H21.0009V17.0629Z" fill="#F44336"/>
<path d="M29.9303 22.1248C29.8578 22.7063 29.7298 23.2706 29.5518 23.8121H12.4501C12.272 23.2706 12.1441 22.7063 12.0716 22.1248H29.9303Z" fill="#F44336"/>
<path d="M13.2059 25.4995C13.5596 26.111 13.9833 26.6771 14.466 27.1868H27.5359C28.0186 26.6771 28.4422 26.111 28.796 25.4995H13.2059Z" fill="#F44336"/>
<path d="M21.0011 29.9989C22.5829 29.9989 24.0693 29.5908 25.3609 28.8741H16.641C17.9326 29.5908 19.4192 29.9989 21.0011 29.9989Z" fill="#F44336"/>
<path fill-rule="evenodd" clip-rule="evenodd" d="M21.0011 20.4375H12.0193C12.0377 20.1381 12.0708 19.8426 12.1178 19.5518C12.1158 19.5647 12.1138 19.5774 12.1117 19.5904C12.1174 19.5891 12.1227 19.5868 12.1277 19.5834C12.1437 19.5721 12.1504 19.5517 12.1441 19.5331L12.1288 19.4856C12.1514 19.3523 12.177 19.22 12.2053 19.0888C12.2047 19.0918 12.204 19.0948 12.2034 19.0978L12.3124 19.0175C12.3271 19.0057 12.3329 18.9859 12.3269 18.968C12.3209 18.9501 12.3042 18.9379 12.2854 18.9374H12.2394C12.3993 18.2557 12.6367 17.6038 12.9418 16.9916C12.9385 16.9981 12.9353 17.0047 12.932 17.0112L13.0809 16.9045L13.3509 17.098C13.3583 17.104 13.3673 17.1072 13.3763 17.1076C13.3858 17.1081 13.3955 17.1054 13.4037 17.0997C13.4105 17.0949 13.4156 17.0885 13.4188 17.0813C13.4231 17.0715 13.4238 17.0601 13.4201 17.0494L13.3184 16.7326L13.5885 16.5338C13.6032 16.522 13.609 16.5022 13.603 16.4843C13.5969 16.4664 13.5803 16.4542 13.5614 16.4537H13.2331C13.8699 15.368 14.7278 14.4278 15.7448 13.6947L15.903 13.808C15.9091 13.8128 15.9161 13.8159 15.9234 13.8171C15.9284 13.8179 15.9336 13.8178 15.9387 13.8169C15.9427 13.8161 15.9466 13.8148 15.9504 13.8129L15.9534 13.8112L15.9558 13.8096C15.9718 13.7984 15.9786 13.7779 15.9722 13.7594L15.9134 13.5761C17.3605 12.5824 19.1129 12.001 21.0011 12.001V20.4375ZM19.6034 12.3591L19.5231 12.1217C19.4781 12.1292 19.4332 12.137 19.3884 12.1451L19.3154 12.3609H18.9833C18.9773 12.3611 18.9715 12.3624 18.9662 12.3648L18.9612 12.3674L18.9591 12.3688C18.9512 12.3742 18.9451 12.3821 18.9419 12.3915C18.9358 12.4095 18.9416 12.4292 18.9563 12.441L19.2263 12.6399L19.1156 12.9549C19.1107 12.9732 19.1177 12.9926 19.1332 13.0035C19.1422 13.0098 19.153 13.0124 19.1634 13.0114C19.171 13.0107 19.1784 13.0081 19.1849 13.0035L19.4549 12.81L19.7249 13.0035C19.73 13.0075 19.7357 13.0103 19.7418 13.0118C19.7539 13.0148 19.767 13.0126 19.7777 13.0051C19.7937 12.9939 19.8004 12.9734 19.7942 12.9549L19.6925 12.6381L19.9624 12.4392C19.9679 12.4349 19.972 12.4294 19.9749 12.4234L19.9766 12.4195C19.9772 12.4179 19.9777 12.4162 19.9781 12.4145C19.9788 12.4115 19.9792 12.4085 19.9793 12.4054C19.9794 12.4002 19.9786 12.3949 19.9769 12.3897C19.9725 12.3765 19.9622 12.3664 19.9496 12.3618C19.9451 12.3602 19.9404 12.3593 19.9355 12.3591H19.6034ZM17.2256 13.0051C17.2416 12.9939 17.2483 12.9734 17.242 12.9549L17.2047 12.8385C17.1732 12.8532 17.1418 12.8681 17.1105 12.8831L17.0475 12.9137L17.1727 13.0035C17.188 13.0157 17.2096 13.0164 17.2256 13.0051ZM19.3154 18.9392L19.4224 18.6224C19.4259 18.605 19.4409 18.5923 19.4586 18.5919C19.4764 18.5915 19.492 18.6034 19.4963 18.6206L19.6034 18.9374H19.9355C19.9466 18.9377 19.957 18.9421 19.9648 18.9494C19.9703 18.9544 19.9744 18.9607 19.9769 18.968C19.983 18.9859 19.9772 19.0057 19.9624 19.0175L19.6925 19.2164L19.7942 19.5331C19.8004 19.5517 19.7937 19.5721 19.7777 19.5834C19.7617 19.5946 19.7401 19.5939 19.7249 19.5817L19.4549 19.3883L19.1849 19.5817C19.1825 19.5834 19.18 19.5849 19.1773 19.586L19.1742 19.5873L19.1694 19.5887C19.1654 19.5897 19.1613 19.5901 19.1572 19.5899C19.1548 19.5898 19.1526 19.5895 19.1503 19.5891C19.1443 19.5879 19.1384 19.5854 19.1332 19.5818C19.1309 19.5801 19.1287 19.5783 19.1268 19.5764C19.1248 19.5742 19.1228 19.5719 19.1213 19.5694L19.1199 19.5671L19.1187 19.565L19.1171 19.5615C19.1137 19.5527 19.113 19.5427 19.1156 19.5331L19.2263 19.2182L18.9563 19.0193C18.9469 19.0118 18.9412 19.001 18.9398 18.9895C18.939 18.983 18.9397 18.9763 18.9419 18.9698C18.9442 18.9628 18.9482 18.9566 18.9532 18.9517C18.9552 18.9499 18.9573 18.9482 18.9595 18.9467L18.9632 18.9445L18.9659 18.9431L18.9685 18.9421L18.9733 18.9406C18.9765 18.9398 18.9799 18.9393 18.9833 18.9392H19.3154ZM16.9441 18.6206C16.9399 18.6034 16.9243 18.5915 16.9065 18.5919C16.8888 18.5923 16.8738 18.605 16.8703 18.6224L16.7633 18.9392H16.4312C16.4123 18.9397 16.3958 18.9519 16.3897 18.9698C16.3837 18.9877 16.3895 19.0075 16.4042 19.0193L16.6742 19.2182L16.5635 19.5331C16.5602 19.5453 16.5622 19.5579 16.5685 19.5683L16.5711 19.5722L16.5736 19.5752C16.5758 19.5776 16.5783 19.5798 16.5811 19.5818C16.5966 19.5926 16.6173 19.5926 16.6328 19.5817L16.9027 19.3883L17.1727 19.5817C17.1786 19.5865 17.1855 19.5895 17.1926 19.5907L17.1966 19.5912L17.1997 19.5914C17.2017 19.5914 17.2038 19.5913 17.2059 19.591C17.2127 19.5901 17.2195 19.5876 17.2256 19.5834C17.2416 19.5721 17.2483 19.5517 17.242 19.5331L17.1404 19.2164L17.4103 19.0175C17.4122 19.016 17.414 19.0143 17.4155 19.0126C17.4168 19.0112 17.418 19.0097 17.4191 19.0082L17.4216 19.0041C17.4225 19.0023 17.4234 19.0005 17.4242 18.9986C17.4252 18.9958 17.426 18.993 17.4265 18.9901C17.4271 18.9869 17.4273 18.9836 17.4271 18.9803L17.4267 18.9764L17.426 18.9725L17.4248 18.968C17.4188 18.9501 17.4022 18.9379 17.3833 18.9374H17.0512L16.9441 18.6206ZM14.3984 18.6206L14.5055 18.9374H14.8375C14.8564 18.9379 14.873 18.9501 14.879 18.968C14.8819 18.9765 14.8821 18.9855 14.8799 18.9937C14.8775 19.0029 14.8722 19.0113 14.8645 19.0175L14.5945 19.2164L14.6962 19.5331C14.6969 19.5354 14.6976 19.5377 14.698 19.54L14.6984 19.5442L14.6985 19.5492C14.6983 19.5535 14.6974 19.5578 14.696 19.5619C14.693 19.5704 14.6875 19.578 14.6798 19.5834C14.6637 19.5946 14.6422 19.5939 14.6269 19.5817L14.357 19.3883L14.087 19.5817C14.0715 19.5926 14.0508 19.5926 14.0353 19.5818C14.0253 19.5748 14.0189 19.5642 14.0168 19.5528C14.0163 19.55 14.0161 19.5473 14.0161 19.5445C14.0161 19.5422 14.0163 19.5398 14.0168 19.5374L14.0177 19.5331L14.1284 19.2182L13.8584 19.0193C13.8523 19.0144 13.8478 19.0082 13.845 19.0013C13.8429 18.9964 13.8417 18.9911 13.8415 18.9858C13.8414 18.9805 13.8422 18.9751 13.8439 18.9698C13.8476 18.9589 13.8552 18.95 13.8649 18.9447C13.8711 18.9413 13.8781 18.9394 13.8854 18.9392H14.2184L14.3254 18.6224C14.3263 18.5774 14.3858 18.5774 14.3984 18.6206ZM18.2202 17.7837C18.2202 17.7689 18.2123 17.7553 18.1995 17.7479C18.1928 17.744 18.1853 17.7422 18.1778 17.7423C18.171 17.7425 18.1642 17.7444 18.1581 17.7479C18.1528 17.751 18.1483 17.7551 18.1449 17.76C18.1432 17.7623 18.1419 17.7647 18.1408 17.7673C18.1386 17.7724 18.1374 17.778 18.1374 17.7837L18.0304 18.1005H17.6983C17.6794 18.101 17.6628 18.1132 17.6568 18.1311C17.6508 18.149 17.6565 18.1688 17.6713 18.1806L17.9412 18.3795L17.8396 18.6962C17.8372 18.7049 17.8376 18.7138 17.8402 18.7219C17.8431 18.731 17.849 18.7391 17.8571 18.7448C17.8727 18.7557 17.8933 18.7557 17.9088 18.7448L18.1788 18.5513L18.4488 18.7448C18.4641 18.757 18.4856 18.7577 18.5016 18.7465C18.5177 18.7352 18.5243 18.7148 18.5181 18.6962L18.4164 18.3795L18.6864 18.1806C18.7011 18.1688 18.7069 18.149 18.7009 18.1311C18.6981 18.1228 18.693 18.1158 18.6866 18.1105C18.679 18.1044 18.6696 18.1007 18.6594 18.1005H18.3273L18.2202 17.7837ZM15.6744 17.7837L15.7815 18.1005H16.1135C16.1324 18.101 16.149 18.1132 16.1551 18.1311C16.1611 18.149 16.1553 18.1688 16.1406 18.1806L15.8706 18.3795L15.9722 18.6962C15.9786 18.7148 15.9718 18.7352 15.9558 18.7465C15.9482 18.7518 15.9394 18.7544 15.9306 18.7545C15.9259 18.7545 15.9212 18.7537 15.9166 18.7522C15.9118 18.7506 15.9072 18.7481 15.903 18.7448L15.633 18.5513L15.363 18.7448C15.3475 18.7557 15.3269 18.7557 15.3113 18.7448C15.2958 18.734 15.2888 18.7145 15.2938 18.6962L15.3955 18.3795L15.1255 18.1806C15.1107 18.1688 15.105 18.149 15.1109 18.1311C15.117 18.1132 15.1336 18.101 15.1525 18.1005H15.4845L15.5916 17.7837C15.6024 17.7405 15.6618 17.7405 15.6744 17.7837ZM13.2294 18.1005L13.1223 17.7837C13.1097 17.7405 13.0503 17.7405 13.0494 17.7837L12.9423 18.1005H12.6004C12.5969 18.1006 12.5936 18.1011 12.5903 18.1019C12.5859 18.103 12.5818 18.1048 12.5779 18.1072C12.5691 18.1126 12.5623 18.1209 12.5588 18.1311C12.5529 18.149 12.5586 18.1688 12.5734 18.1806L12.8433 18.3795L12.7417 18.6962C12.7366 18.7145 12.7437 18.734 12.7592 18.7448C12.7662 18.7497 12.7741 18.7524 12.7822 18.7529C12.7922 18.7535 12.8024 18.7508 12.8109 18.7448L13.0809 18.5513L13.3509 18.7448C13.3662 18.757 13.3877 18.7577 13.4037 18.7465C13.4197 18.7352 13.4264 18.7148 13.4201 18.6962L13.3184 18.3795L13.5885 18.1806C13.6032 18.1688 13.609 18.149 13.603 18.1311C13.5969 18.1132 13.5803 18.101 13.5614 18.1005H13.2294ZM19.4963 16.9729L19.6034 17.2897H19.9355C19.9543 17.2902 19.9709 17.3024 19.9769 17.3203C19.9793 17.3275 19.9799 17.335 19.9786 17.3422C19.9769 17.3528 19.9712 17.3627 19.9624 17.3698L19.6925 17.5686L19.7942 17.8854C19.7973 17.8947 19.7972 17.9044 19.7942 17.9133C19.7933 17.9161 19.7922 17.9187 19.7907 17.9213C19.7894 17.9236 19.7878 17.9259 19.7861 17.928C19.7837 17.9308 19.7809 17.9334 19.7777 17.9357C19.7617 17.9469 19.7401 17.9462 19.7249 17.934L19.4549 17.7405L19.1849 17.934C19.1766 17.9398 19.1668 17.9426 19.1572 17.9422C19.1487 17.9418 19.1404 17.9391 19.1332 17.934C19.1177 17.9231 19.1107 17.9037 19.1156 17.8854L19.2173 17.5686L18.9473 17.3698C18.9326 17.358 18.9268 17.3382 18.9329 17.3203C18.9364 17.3097 18.9436 17.3011 18.9528 17.2958C18.9592 17.292 18.9666 17.2899 18.9743 17.2897H19.3064L19.4135 16.9729C19.4297 16.936 19.489 16.936 19.4963 16.9729ZM17.0512 17.2897L16.9441 16.9729C16.9369 16.936 16.8775 16.936 16.8613 16.9729L16.7543 17.2897H16.4222C16.4033 17.2902 16.3868 17.3024 16.3807 17.3203C16.3747 17.3382 16.3805 17.358 16.3952 17.3698L16.6652 17.5686L16.5635 17.8854C16.5586 17.9037 16.5656 17.9231 16.5811 17.934C16.5966 17.9449 16.6173 17.9449 16.6328 17.934L16.9027 17.7405L17.1727 17.934C17.188 17.9462 17.2096 17.9469 17.2256 17.9357C17.2348 17.9292 17.2409 17.9198 17.2433 17.9093C17.2443 17.9049 17.2447 17.9003 17.2442 17.8956C17.2439 17.8922 17.2432 17.8888 17.242 17.8854L17.1404 17.5686L17.4103 17.3698C17.4251 17.358 17.4309 17.3382 17.4248 17.3203C17.4214 17.3101 17.4146 17.3018 17.4059 17.2964C17.3992 17.2923 17.3915 17.2899 17.3833 17.2897H17.0512ZM14.3984 16.9729L14.5055 17.2897H14.8375C14.8564 17.2902 14.873 17.3024 14.879 17.3203C14.8851 17.3382 14.8792 17.358 14.8645 17.3698L14.5945 17.5686L14.6962 17.8854C14.7025 17.904 14.6958 17.9244 14.6798 17.9357C14.6637 17.9469 14.6422 17.9462 14.6269 17.934L14.357 17.7405L14.087 17.934C14.0715 17.9449 14.0508 17.9449 14.0353 17.934C14.0198 17.9231 14.0127 17.9037 14.0177 17.8854L14.1194 17.5686L13.8494 17.3698C13.8347 17.358 13.8289 17.3382 13.8349 17.3203C13.8409 17.3024 13.8575 17.2902 13.8764 17.2897H14.2184L14.3254 16.9729C14.3263 16.936 14.3858 16.936 14.3984 16.9729ZM18.2202 16.1369C18.2202 16.1141 18.2017 16.0955 18.1788 16.0955C18.1708 16.0955 18.1632 16.0978 18.1568 16.1018L18.1556 16.1026L18.1523 16.1051L18.1497 16.1074L18.1469 16.1105C18.1449 16.113 18.1432 16.1156 18.1417 16.1185C18.1406 16.1208 18.1397 16.1231 18.139 16.1256C18.1384 16.1278 18.1379 16.13 18.1376 16.1322L18.1374 16.1369L18.0304 16.4537H17.6983C17.6794 16.4542 17.6628 16.4664 17.6568 16.4843C17.6508 16.5022 17.6565 16.522 17.6713 16.5338L17.9412 16.7326L17.8396 17.0494C17.837 17.0588 17.8376 17.0685 17.8409 17.0772C17.8429 17.0823 17.8458 17.0872 17.8496 17.0913L17.8531 17.0948C17.8543 17.0959 17.8557 17.097 17.8571 17.098C17.8658 17.1041 17.8761 17.1068 17.8862 17.1061C17.8941 17.1055 17.902 17.1028 17.9088 17.098L18.1788 16.9045L18.4488 17.098C18.4533 17.1016 18.4583 17.1042 18.4636 17.1058C18.4672 17.1069 18.4709 17.1075 18.4747 17.1076C18.484 17.108 18.4935 17.1053 18.5016 17.0997C18.5119 17.0925 18.5183 17.0815 18.52 17.0697C18.5209 17.063 18.5204 17.0561 18.5181 17.0494L18.4164 16.7326L18.6864 16.5338C18.6937 16.5279 18.6988 16.5201 18.7013 16.5115C18.704 16.5028 18.7039 16.4933 18.7009 16.4843C18.6978 16.4752 18.6921 16.4677 18.6847 16.4623C18.6775 16.457 18.6687 16.4539 18.6594 16.4537H18.3273L18.2202 16.1369ZM15.6744 16.1369L15.7815 16.4537H16.1135C16.1324 16.4542 16.149 16.4664 16.1551 16.4843C16.1611 16.5022 16.1553 16.522 16.1406 16.5338L15.8706 16.7326L15.9722 17.0494C15.9731 17.052 15.9737 17.0547 15.9741 17.0573C15.9746 17.0606 15.9747 17.064 15.9744 17.0673C15.9741 17.0715 15.9731 17.0757 15.9716 17.0796C15.9702 17.0829 15.9685 17.0861 15.9665 17.089C15.9637 17.0931 15.9601 17.0967 15.9558 17.0997C15.9398 17.1109 15.9183 17.1102 15.903 17.098L15.633 16.9045L15.363 17.098C15.3475 17.1089 15.3269 17.1089 15.3113 17.098C15.3071 17.095 15.3035 17.0914 15.3006 17.0873C15.2971 17.0824 15.2946 17.0769 15.2933 17.0711L15.2925 17.0665L15.2921 17.0612C15.2921 17.0592 15.2923 17.0572 15.2925 17.0552C15.2928 17.0533 15.2932 17.0513 15.2938 17.0494L15.3955 16.7326L15.1255 16.5338C15.1107 16.522 15.105 16.5022 15.1109 16.4843C15.117 16.4664 15.1336 16.4542 15.1525 16.4537H15.4845L15.5916 16.1369C15.6024 16.0937 15.6618 16.0937 15.6744 16.1369ZM19.6034 15.6483L19.4963 15.3315C19.492 15.3143 19.4764 15.3023 19.4586 15.3028C19.4533 15.3029 19.4483 15.3041 19.4438 15.3062C19.433 15.3112 19.4249 15.3211 19.4224 15.3333L19.3154 15.6501H18.9833C18.9709 15.6504 18.9596 15.6558 18.9515 15.6645C18.9472 15.6691 18.9439 15.6745 18.9419 15.6807C18.9395 15.6875 18.939 15.6947 18.9399 15.7015C18.9415 15.7125 18.9472 15.7229 18.9563 15.7302L19.2263 15.929L19.1156 16.244C19.1107 16.2623 19.1177 16.2817 19.1332 16.2926C19.1487 16.3035 19.1694 16.3035 19.1849 16.2926L19.4549 16.0991L19.7249 16.2926C19.7401 16.3048 19.7617 16.3055 19.7777 16.2942C19.7937 16.283 19.8004 16.2625 19.7942 16.244L19.6925 15.9272L19.9624 15.7284C19.9772 15.7165 19.983 15.6968 19.9769 15.6789C19.9709 15.661 19.9543 15.6487 19.9355 15.6483H19.6034ZM16.9027 15.2901C16.9135 15.2901 16.9233 15.2942 16.9307 15.301C16.9389 15.3085 16.9441 15.3194 16.9441 15.3315L17.0512 15.6483H17.3833C17.4022 15.6487 17.4188 15.661 17.4248 15.6789C17.4309 15.6968 17.4251 15.7165 17.4103 15.7284L17.1404 15.9272L17.242 16.244C17.245 16.2528 17.2451 16.262 17.2426 16.2705C17.2412 16.2752 17.239 16.2797 17.2361 16.2837L17.2338 16.2867L17.2316 16.2892C17.2298 16.291 17.2278 16.2927 17.2256 16.2942C17.2096 16.3055 17.188 16.3048 17.1727 16.2926L16.9027 16.0991L16.6328 16.2926C16.6173 16.3035 16.5966 16.3035 16.5811 16.2926C16.5656 16.2817 16.5586 16.2623 16.5635 16.244L16.6652 15.9272L16.3952 15.7284C16.3805 15.7165 16.3747 15.6968 16.3807 15.6789C16.3868 15.661 16.4033 15.6487 16.4222 15.6483H16.7543L16.8613 15.3315C16.8613 15.3086 16.8799 15.2901 16.9027 15.2901ZM14.5055 15.6483L14.3984 15.3315C14.3858 15.2883 14.3263 15.2883 14.3254 15.3315L14.2184 15.6483H13.8764C13.8575 15.6487 13.8409 15.661 13.8349 15.6789C13.8289 15.6968 13.8347 15.7165 13.8494 15.7284L14.1194 15.9272L14.0177 16.244C14.0127 16.2623 14.0198 16.2817 14.0353 16.2926C14.0508 16.3035 14.0715 16.3035 14.087 16.2926L14.357 16.0991L14.6269 16.2926C14.6422 16.3048 14.6637 16.3055 14.6798 16.2942C14.6906 16.2867 14.6971 16.2748 14.6984 16.2622C14.6989 16.2562 14.6982 16.25 14.6962 16.244L14.5945 15.9272L14.8645 15.7284C14.8792 15.7165 14.8851 15.6968 14.879 15.6789C14.873 15.661 14.8564 15.6487 14.8375 15.6483H14.5055ZM15.6744 14.4883L15.7815 14.8051H16.1135C16.1243 14.8053 16.1343 14.8094 16.1421 14.8162C16.1479 14.8214 16.1525 14.828 16.1551 14.8357C16.1611 14.8536 16.1553 14.8733 16.1406 14.8852L15.8706 15.084L15.9722 15.4008C15.9786 15.4193 15.9718 15.4398 15.9558 15.451C15.9451 15.4586 15.9318 15.4608 15.9196 15.4577C15.9137 15.4562 15.908 15.4534 15.903 15.4494L15.633 15.2559L15.363 15.4494C15.3543 15.4555 15.344 15.4582 15.3338 15.4575C15.3259 15.4569 15.3181 15.4542 15.3113 15.4494C15.2958 15.4385 15.2888 15.4191 15.2938 15.4008L15.3955 15.084L15.1255 14.8852C15.1107 14.8733 15.105 14.8536 15.1109 14.8357C15.117 14.8178 15.1336 14.8055 15.1525 14.8051H15.4845L15.5916 14.4883C15.6024 14.4514 15.6618 14.4514 15.6744 14.4883ZM18.3273 14.8051L18.2202 14.4883C18.213 14.4514 18.1536 14.4514 18.1374 14.4883L18.0304 14.8051H17.6983C17.6794 14.8055 17.6628 14.8178 17.6568 14.8357C17.6508 14.8536 17.6565 14.8733 17.6713 14.8852L17.9412 15.084L17.8396 15.4008C17.8346 15.4191 17.8416 15.4385 17.8571 15.4494C17.8727 15.4603 17.8933 15.4603 17.9088 15.4494L18.1788 15.2559L18.4488 15.4494C18.4641 15.4616 18.4856 15.4623 18.5016 15.451C18.5177 15.4398 18.5243 15.4193 18.5181 15.4008L18.4164 15.084L18.6864 14.8852C18.7011 14.8733 18.7069 14.8536 18.7009 14.8357C18.6948 14.8178 18.6783 14.8055 18.6594 14.8051H18.3273ZM16.9441 13.6838L17.0512 14.0006H17.3833C17.3866 14.0006 17.3899 14.0011 17.393 14.0019C17.3975 14.003 17.4017 14.0048 17.4057 14.0071C17.4144 14.0125 17.4214 14.0209 17.4248 14.0312C17.4309 14.0491 17.4251 14.0688 17.4103 14.0807L17.1404 14.2795L17.242 14.5963C17.2483 14.6148 17.2416 14.6353 17.2256 14.6465C17.2096 14.6578 17.188 14.6571 17.1727 14.6449L16.9027 14.4514L16.6328 14.6449C16.6173 14.6558 16.5966 14.6558 16.5811 14.6449C16.5687 14.6362 16.5617 14.622 16.5619 14.6074C16.562 14.6052 16.5622 14.6031 16.5625 14.601L16.5635 14.5963L16.6652 14.2795L16.3952 14.0807C16.3805 14.0688 16.3747 14.0491 16.3807 14.0312C16.3868 14.0133 16.4033 14.001 16.4222 14.0006H16.7543L16.8613 13.6838C16.8775 13.6469 16.9369 13.6469 16.9441 13.6838ZM19.6034 14.0006L19.4963 13.6838C19.489 13.6469 19.4297 13.6469 19.4135 13.6838L19.3064 14.0006H18.9743C18.9667 14.0008 18.9595 14.0029 18.9532 14.0065C18.9438 14.0118 18.9364 14.0205 18.9329 14.0312C18.9268 14.0491 18.9326 14.0688 18.9473 14.0807L19.2173 14.2795L19.1156 14.5963C19.1149 14.5988 19.1145 14.6013 19.1142 14.6038C19.114 14.6061 19.114 14.6085 19.1141 14.6108C19.1144 14.6146 19.1151 14.6184 19.1162 14.622C19.1178 14.6267 19.1201 14.6312 19.1231 14.6352C19.1259 14.6389 19.1293 14.6422 19.1332 14.6449C19.1487 14.6558 19.1694 14.6558 19.1849 14.6449L19.4549 14.4514L19.7249 14.6449C19.7401 14.6571 19.7617 14.6578 19.7777 14.6465C19.7937 14.6353 19.8004 14.6148 19.7942 14.5963L19.6925 14.2795L19.9624 14.0807C19.9701 14.0745 19.9753 14.0663 19.9777 14.0573C19.9799 14.0489 19.9798 14.0398 19.9769 14.0312C19.9709 14.0133 19.9543 14.001 19.9355 14.0006H19.6034ZM18.2129 12.8235C18.2151 12.8266 18.2168 12.8301 18.218 12.8337C18.2186 12.8354 18.2191 12.8372 18.2194 12.8391C18.22 12.8416 18.2202 12.8442 18.2202 12.8469L18.3273 13.1637H18.6594C18.6633 13.1638 18.6672 13.1644 18.6708 13.1654C18.6744 13.1665 18.6777 13.1679 18.6809 13.1698C18.6901 13.1751 18.6973 13.1837 18.7009 13.1943C18.7069 13.2122 18.7011 13.2319 18.6864 13.2437L18.4164 13.4426L18.5181 13.7594C18.5223 13.7719 18.5206 13.7853 18.5142 13.7961C18.513 13.7982 18.5115 13.8002 18.5099 13.8021C18.5075 13.8049 18.5048 13.8074 18.5016 13.8096C18.4856 13.8209 18.4641 13.8202 18.4488 13.808L18.1788 13.6145L17.9088 13.808C17.902 13.8128 17.894 13.8155 17.886 13.816C17.876 13.8167 17.8658 13.814 17.8571 13.808C17.8416 13.7971 17.8346 13.7777 17.8396 13.7594L17.9412 13.4426L17.6713 13.2437C17.6565 13.2319 17.6508 13.2122 17.6568 13.1943C17.6628 13.1764 17.6794 13.1641 17.6983 13.1637H18.0304L18.1374 12.8469C18.1374 12.8321 18.1453 12.8184 18.1581 12.811C18.1662 12.8063 18.1756 12.8046 18.1846 12.8059C18.1898 12.8066 18.1949 12.8083 18.1995 12.811C18.2028 12.8129 18.2056 12.8152 18.2082 12.8178C18.21 12.8195 18.2115 12.8215 18.2129 12.8235Z" fill="#283991"/>
<path d="M14.6919 14.583L14.648 14.6265L14.6284 14.646C14.6436 14.6571 14.6643 14.6574 14.6798 14.6465C14.6897 14.6396 14.6961 14.629 14.698 14.6176C14.6991 14.6106 14.6986 14.6033 14.6962 14.5963L14.6919 14.583Z" fill="#283991"/>
<path d="M19.3884 12.1451C19.4332 12.137 19.4781 12.1292 19.5231 12.1217L19.6034 12.3591H19.9355C19.9543 12.3596 19.9709 12.3718 19.9769 12.3897C19.983 12.4076 19.9772 12.4274 19.9624 12.4392L19.6925 12.6381L19.7942 12.9549C19.8004 12.9734 19.7937 12.9939 19.7777 13.0051C19.7616 13.0164 19.7402 13.0157 19.7249 13.0035L19.4549 12.81L19.1849 13.0035C19.1694 13.0144 19.1487 13.0144 19.1332 13.0035C19.1177 12.9926 19.1107 12.9732 19.1156 12.9549L19.2263 12.6399L18.9563 12.441C18.9416 12.4292 18.9358 12.4095 18.9419 12.3915C18.9479 12.3736 18.9644 12.3614 18.9833 12.3609H19.3154L19.3884 12.1451Z" fill="white"/>
<path d="M17.0475 12.9137C17.0996 12.8881 17.152 12.8631 17.2047 12.8385L17.242 12.9549C17.2483 12.9734 17.2416 12.9939 17.2256 13.0051C17.2096 13.0164 17.188 13.0157 17.1727 13.0035L17.0475 12.9137Z" fill="white"/>
<path d="M15.7448 13.6947C15.8006 13.6545 15.8567 13.615 15.9134 13.5761L15.9722 13.7594C15.9786 13.7779 15.9718 13.7984 15.9558 13.8096C15.9398 13.8209 15.9183 13.8202 15.903 13.808L15.7448 13.6947Z" fill="white"/>
<path d="M14.6284 14.646C14.6495 14.6249 14.6707 14.6039 14.6919 14.583L14.6962 14.5963C14.7025 14.6148 14.6958 14.6353 14.6798 14.6465C14.6643 14.6574 14.6436 14.6571 14.6284 14.646Z" fill="white"/>
<path d="M12.932 17.0112C13.026 16.8215 13.1264 16.6355 13.2331 16.4537H13.5614C13.5803 16.4542 13.5969 16.4664 13.603 16.4843C13.609 16.5022 13.6032 16.522 13.5885 16.5338L13.3184 16.7326L13.4201 17.0494C13.4264 17.068 13.4197 17.0884 13.4037 17.0997C13.3877 17.1109 13.3661 17.1102 13.3509 17.098L13.0809 16.9045L12.932 17.0112Z" fill="white"/>
<path d="M12.1117 19.5904C12.1174 19.5891 12.1227 19.5868 12.1277 19.5834C12.1437 19.5721 12.1504 19.5517 12.1441 19.5331L12.1288 19.4856C12.1229 19.5205 12.1172 19.5554 12.1117 19.5904Z" fill="white"/>
<path d="M12.2034 19.0978C12.2149 19.0441 12.2269 18.9907 12.2394 18.9374H12.2854C12.3042 18.9379 12.3209 18.9501 12.3269 18.968C12.3329 18.9859 12.3271 19.0057 12.3124 19.0175L12.2034 19.0978Z" fill="white"/>
<path d="M19.4963 18.6206C19.492 18.6034 19.4764 18.5915 19.4586 18.5919C19.4409 18.5923 19.4259 18.605 19.4224 18.6224L19.3154 18.9392H18.9833C18.9644 18.9397 18.9479 18.9519 18.9419 18.9698C18.9358 18.9877 18.9416 19.0075 18.9563 19.0193L19.2263 19.2182L19.1156 19.5331C19.1107 19.5514 19.1177 19.5709 19.1332 19.5818C19.1487 19.5926 19.1694 19.5926 19.1849 19.5817L19.4549 19.3883L19.7249 19.5817C19.7401 19.5939 19.7617 19.5946 19.7777 19.5834C19.7937 19.5721 19.8004 19.5517 19.7942 19.5331L19.6925 19.2164L19.9624 19.0175C19.9772 19.0057 19.983 18.9859 19.9769 18.968C19.9709 18.9501 19.9543 18.9379 19.9355 18.9374H19.6034L19.4963 18.6206Z" fill="white"/>
<path d="M16.9441 18.6206C16.9399 18.6034 16.9243 18.5915 16.9065 18.5919C16.8888 18.5923 16.8738 18.605 16.8703 18.6224L16.7633 18.9392H16.4312C16.4123 18.9397 16.3958 18.9519 16.3897 18.9698C16.3837 18.9877 16.3895 19.0075 16.4042 19.0193L16.6742 19.2182L16.5635 19.5331C16.5585 19.5514 16.5656 19.5709 16.5811 19.5818C16.5966 19.5926 16.6173 19.5926 16.6328 19.5817L16.9027 19.3883L17.1727 19.5817C17.188 19.5939 17.2095 19.5946 17.2256 19.5834C17.2416 19.5721 17.2483 19.5517 17.242 19.5331L17.1404 19.2164L17.4103 19.0175C17.4251 19.0057 17.4308 18.9859 17.4248 18.968C17.4188 18.9501 17.4022 18.9379 17.3833 18.9374H17.0512L16.9441 18.6206Z" fill="white"/>
<path d="M14.5055 18.9374L14.3984 18.6206C14.3858 18.5774 14.3263 18.5774 14.3254 18.6224L14.2184 18.9392H13.8854C13.8665 18.9397 13.85 18.9519 13.8439 18.9698C13.8379 18.9877 13.8437 19.0075 13.8584 19.0193L14.1284 19.2182L14.0177 19.5331C14.0128 19.5514 14.0198 19.5709 14.0353 19.5818C14.0508 19.5926 14.0715 19.5926 14.087 19.5817L14.357 19.3883L14.6269 19.5817C14.6422 19.5939 14.6637 19.5946 14.6798 19.5834C14.6958 19.5721 14.7025 19.5517 14.6962 19.5331L14.5945 19.2164L14.8645 19.0175C14.8793 19.0057 14.8851 18.9859 14.879 18.968C14.873 18.9501 14.8564 18.9379 14.8375 18.9374H14.5055Z" fill="white"/>
<path d="M18.2202 17.7837C18.2202 17.7689 18.2123 17.7553 18.1995 17.7479C18.1867 17.7405 18.1709 17.7405 18.1581 17.7479C18.1453 17.7553 18.1374 17.7689 18.1374 17.7837L18.0304 18.1005H17.6983C17.6794 18.101 17.6628 18.1132 17.6568 18.1311C17.6508 18.149 17.6565 18.1688 17.6713 18.1806L17.9412 18.3795L17.8396 18.6962C17.8346 18.7145 17.8416 18.734 17.8571 18.7448C17.8727 18.7557 17.8933 18.7557 17.9088 18.7448L18.1788 18.5513L18.4488 18.7448C18.4641 18.757 18.4856 18.7577 18.5016 18.7465C18.5177 18.7352 18.5243 18.7148 18.5181 18.6962L18.4164 18.3795L18.6864 18.1806C18.7011 18.1688 18.7069 18.149 18.7009 18.1311C18.6948 18.1132 18.6783 18.101 18.6594 18.1005H18.3273L18.2202 17.7837Z" fill="white"/>
<path d="M15.7815 18.1005L15.6744 17.7837C15.6618 17.7405 15.6024 17.7405 15.5916 17.7837L15.4845 18.1005H15.1525C15.1336 18.101 15.117 18.1132 15.1109 18.1311C15.105 18.149 15.1107 18.1688 15.1255 18.1806L15.3955 18.3795L15.2938 18.6962C15.2888 18.7145 15.2958 18.734 15.3113 18.7448C15.3269 18.7557 15.3475 18.7557 15.363 18.7448L15.633 18.5513L15.903 18.7448C15.9183 18.757 15.9398 18.7577 15.9558 18.7465C15.9718 18.7352 15.9786 18.7148 15.9722 18.6962L15.8706 18.3795L16.1406 18.1806C16.1553 18.1688 16.1611 18.149 16.1551 18.1311C16.149 18.1132 16.1324 18.101 16.1135 18.1005H15.7815Z" fill="white"/>
<path d="M13.2294 18.1005L13.1223 17.7837C13.1097 17.7405 13.0503 17.7405 13.0494 17.7837L12.9423 18.1005H12.6004C12.5815 18.101 12.5649 18.1132 12.5588 18.1311C12.5529 18.149 12.5586 18.1688 12.5734 18.1806L12.8433 18.3795L12.7417 18.6962C12.7366 18.7145 12.7437 18.734 12.7592 18.7448C12.7748 18.7557 12.7954 18.7557 12.8109 18.7448L13.0809 18.5513L13.3509 18.7448C13.3662 18.757 13.3877 18.7577 13.4037 18.7465C13.4197 18.7352 13.4264 18.7148 13.4201 18.6962L13.3184 18.3795L13.5885 18.1806C13.6032 18.1688 13.609 18.149 13.603 18.1311C13.5969 18.1132 13.5803 18.101 13.5614 18.1005H13.2294Z" fill="white"/>
<path d="M19.6034 17.2897L19.4963 16.9729C19.489 16.936 19.4297 16.936 19.4135 16.9729L19.3064 17.2897H18.9743C18.9554 17.2902 18.9389 17.3024 18.9329 17.3203C18.9268 17.3382 18.9326 17.358 18.9473 17.3698L19.2173 17.5686L19.1156 17.8854C19.1107 17.9037 19.1177 17.9231 19.1332 17.934C19.1487 17.9449 19.1694 17.9449 19.1849 17.934L19.4549 17.7405L19.7249 17.934C19.7401 17.9462 19.7617 17.9469 19.7777 17.9357C19.7937 17.9244 19.8004 17.904 19.7942 17.8854L19.6925 17.5686L19.9624 17.3698C19.9772 17.358 19.983 17.3382 19.9769 17.3203C19.9709 17.3024 19.9543 17.2902 19.9355 17.2897H19.6034Z" fill="white"/>
<path d="M17.0512 17.2897L16.9441 16.9729C16.9369 16.936 16.8775 16.936 16.8613 16.9729L16.7543 17.2897H16.4222C16.4033 17.2902 16.3868 17.3024 16.3807 17.3203C16.3747 17.3382 16.3805 17.358 16.3952 17.3698L16.6652 17.5686L16.5635 17.8854C16.5586 17.9037 16.5656 17.9231 16.5811 17.934C16.5966 17.9449 16.6173 17.9449 16.6328 17.934L16.9027 17.7405L17.1727 17.934C17.188 17.9462 17.2096 17.9469 17.2256 17.9357C17.2416 17.9244 17.2483 17.904 17.242 17.8854L17.1404 17.5686L17.4103 17.3698C17.4251 17.358 17.4309 17.3382 17.4248 17.3203C17.4188 17.3024 17.4022 17.2902 17.3833 17.2897H17.0512Z" fill="white"/>
<path d="M14.5055 17.2897L14.3984 16.9729C14.3858 16.936 14.3263 16.936 14.3254 16.9729L14.2184 17.2897H13.8764C13.8575 17.2902 13.8409 17.3024 13.8349 17.3203C13.8289 17.3382 13.8347 17.358 13.8494 17.3698L14.1194 17.5686L14.0177 17.8854C14.0127 17.9037 14.0198 17.9231 14.0353 17.934C14.0508 17.9449 14.0715 17.9449 14.087 17.934L14.357 17.7405L14.6269 17.934C14.6422 17.9462 14.6637 17.9469 14.6798 17.9357C14.6958 17.9244 14.7025 17.904 14.6962 17.8854L14.5945 17.5686L14.8645 17.3698C14.8792 17.358 14.8851 17.3382 14.879 17.3203C14.873 17.3024 14.8564 17.2902 14.8375 17.2897H14.5055Z" fill="white"/>
<path d="M18.2202 16.1369C18.2202 16.1141 18.2017 16.0955 18.1788 16.0955C18.1559 16.0955 18.1374 16.1141 18.1374 16.1369L18.0304 16.4537H17.6983C17.6794 16.4542 17.6628 16.4664 17.6568 16.4843C17.6508 16.5022 17.6565 16.522 17.6713 16.5338L17.9412 16.7326L17.8396 17.0494C17.8346 17.0677 17.8416 17.0871 17.8571 17.098C17.8727 17.1089 17.8933 17.1089 17.9088 17.098L18.1788 16.9045L18.4488 17.098C18.4641 17.1102 18.4856 17.1109 18.5016 17.0997C18.5177 17.0884 18.5244 17.068 18.5181 17.0494L18.4164 16.7326L18.6864 16.5338C18.7011 16.522 18.7069 16.5022 18.7009 16.4843C18.6948 16.4664 18.6783 16.4542 18.6594 16.4537H18.3273L18.2202 16.1369Z" fill="white"/>
<path d="M15.7815 16.4537L15.6744 16.1369C15.6618 16.0937 15.6024 16.0937 15.5916 16.1369L15.4845 16.4537H15.1525C15.1336 16.4542 15.117 16.4664 15.1109 16.4843C15.105 16.5022 15.1107 16.522 15.1255 16.5338L15.3955 16.7326L15.2938 17.0494C15.2888 17.0677 15.2958 17.0871 15.3113 17.098C15.3269 17.1089 15.3475 17.1089 15.363 17.098L15.633 16.9045L15.903 17.098C15.9183 17.1102 15.9398 17.1109 15.9558 17.0997C15.9719 17.0884 15.9785 17.068 15.9722 17.0494L15.8706 16.7326L16.1406 16.5338C16.1553 16.522 16.1611 16.5022 16.1551 16.4843C16.149 16.4664 16.1324 16.4542 16.1135 16.4537H15.7815Z" fill="white"/>
<path d="M19.4963 15.3315C19.492 15.3143 19.4764 15.3023 19.4586 15.3028C19.4409 15.3032 19.4258 15.3159 19.4224 15.3333L19.3154 15.6501H18.9833C18.9644 15.6505 18.9479 15.6628 18.9419 15.6807C18.9358 15.6986 18.9416 15.7183 18.9563 15.7302L19.2263 15.929L19.1156 16.244C19.1107 16.2623 19.1177 16.2817 19.1332 16.2926C19.1487 16.3035 19.1694 16.3035 19.1849 16.2926L19.4549 16.0991L19.7249 16.2926C19.7401 16.3048 19.7617 16.3055 19.7777 16.2942C19.7937 16.283 19.8004 16.2625 19.7942 16.244L19.6925 15.9272L19.9624 15.7284C19.9772 15.7165 19.983 15.6968 19.9769 15.6789C19.9709 15.661 19.9543 15.6487 19.9355 15.6483H19.6034L19.4963 15.3315Z" fill="white"/>
<path d="M16.9441 15.3315C16.9441 15.3086 16.9256 15.2901 16.9027 15.2901C16.8799 15.2901 16.8613 15.3086 16.8613 15.3315L16.7543 15.6483H16.4222C16.4033 15.6487 16.3868 15.661 16.3807 15.6789C16.3747 15.6968 16.3805 15.7165 16.3952 15.7284L16.6652 15.9272L16.5635 16.244C16.5586 16.2623 16.5656 16.2817 16.5811 16.2926C16.5966 16.3035 16.6173 16.3035 16.6328 16.2926L16.9027 16.0991L17.1727 16.2926C17.188 16.3048 17.2096 16.3055 17.2256 16.2942C17.2416 16.283 17.2483 16.2625 17.242 16.244L17.1404 15.9272L17.4103 15.7284C17.4251 15.7165 17.4309 15.6968 17.4248 15.6789C17.4188 15.661 17.4022 15.6487 17.3833 15.6483H17.0512L16.9441 15.3315Z" fill="white"/>
<path d="M14.5055 15.6483L14.3984 15.3315C14.3858 15.2883 14.3263 15.2883 14.3254 15.3315L14.2184 15.6483H13.8764C13.8575 15.6487 13.8409 15.661 13.8349 15.6789C13.8289 15.6968 13.8347 15.7165 13.8494 15.7284L14.1194 15.9272L14.0177 16.244C14.0127 16.2623 14.0198 16.2817 14.0353 16.2926C14.0508 16.3035 14.0715 16.3035 14.087 16.2926L14.357 16.0991L14.6269 16.2926C14.6422 16.3048 14.6637 16.3055 14.6798 16.2942C14.6958 16.283 14.7025 16.2625 14.6962 16.244L14.5945 15.9272L14.8645 15.7284C14.8792 15.7165 14.8851 15.6968 14.879 15.6789C14.873 15.661 14.8564 15.6487 14.8375 15.6483H14.5055Z" fill="white"/>
<path d="M15.7815 14.8051L15.6744 14.4883C15.6618 14.4514 15.6024 14.4514 15.5916 14.4883L15.4845 14.8051H15.1525C15.1336 14.8055 15.117 14.8178 15.1109 14.8357C15.105 14.8536 15.1107 14.8733 15.1255 14.8852L15.3955 15.084L15.2938 15.4008C15.2888 15.4191 15.2958 15.4385 15.3113 15.4494C15.3269 15.4603 15.3475 15.4603 15.363 15.4494L15.633 15.2559L15.903 15.4494C15.9183 15.4616 15.9398 15.4623 15.9558 15.451C15.9718 15.4398 15.9786 15.4193 15.9722 15.4008L15.8706 15.084L16.1406 14.8852C16.1553 14.8733 16.1611 14.8536 16.1551 14.8357C16.149 14.8178 16.1324 14.8055 16.1135 14.8051H15.7815Z" fill="white"/>
<path d="M18.3273 14.8051L18.2202 14.4883C18.213 14.4514 18.1536 14.4514 18.1374 14.4883L18.0304 14.8051H17.6983C17.6794 14.8055 17.6628 14.8178 17.6568 14.8357C17.6508 14.8536 17.6565 14.8733 17.6713 14.8852L17.9412 15.084L17.8396 15.4008C17.8346 15.4191 17.8416 15.4385 17.8571 15.4494C17.8727 15.4603 17.8933 15.4603 17.9088 15.4494L18.1788 15.2559L18.4488 15.4494C18.4641 15.4616 18.4856 15.4623 18.5016 15.451C18.5177 15.4398 18.5243 15.4193 18.5181 15.4008L18.4164 15.084L18.6864 14.8852C18.7011 14.8733 18.7069 14.8536 18.7009 14.8357C18.6948 14.8178 18.6783 14.8055 18.6594 14.8051H18.3273Z" fill="white"/>
<path d="M17.0512 14.0006L16.9441 13.6838C16.9369 13.6469 16.8775 13.6469 16.8613 13.6838L16.7543 14.0006H16.4222C16.4033 14.001 16.3868 14.0133 16.3807 14.0312C16.3747 14.0491 16.3805 14.0688 16.3952 14.0807L16.6652 14.2795L16.5635 14.5963C16.5585 14.6146 16.5656 14.634 16.5811 14.6449C16.5966 14.6558 16.6173 14.6558 16.6328 14.6449L16.9027 14.4514L17.1727 14.6449C17.188 14.6571 17.2096 14.6578 17.2256 14.6465C17.2416 14.6353 17.2483 14.6148 17.242 14.5963L17.1404 14.2795L17.4103 14.0807C17.4251 14.0688 17.4309 14.0491 17.4248 14.0312C17.4188 14.0133 17.4022 14.001 17.3833 14.0006H17.0512Z" fill="white"/>
<path d="M19.6034 14.0006L19.4963 13.6838C19.489 13.6469 19.4297 13.6469 19.4135 13.6838L19.3064 14.0006H18.9743C18.9554 14.001 18.9389 14.0133 18.9329 14.0312C18.9268 14.0491 18.9326 14.0688 18.9473 14.0807L19.2173 14.2795L19.1156 14.5963C19.1107 14.6146 19.1177 14.634 19.1332 14.6449C19.1487 14.6558 19.1694 14.6558 19.1849 14.6449L19.4549 14.4514L19.7249 14.6449C19.7401 14.6571 19.7617 14.6578 19.7777 14.6465C19.7937 14.6353 19.8004 14.6148 19.7942 14.5963L19.6925 14.2795L19.9624 14.0807C19.9772 14.0688 19.983 14.0491 19.9769 14.0312C19.9709 14.0133 19.9543 14.001 19.9355 14.0006H19.6034Z" fill="white"/>
<path d="M18.2202 12.8469C18.2202 12.8321 18.2123 12.8184 18.1995 12.811C18.1867 12.8036 18.1709 12.8036 18.1581 12.811C18.1453 12.8184 18.1374 12.8321 18.1374 12.8469L18.0304 13.1637H17.6983C17.6794 13.1641 17.6628 13.1764 17.6568 13.1943C17.6508 13.2122 17.6565 13.2319 17.6713 13.2437L17.9412 13.4426L17.8396 13.7594C17.8346 13.7777 17.8416 13.7971 17.8571 13.808C17.8727 13.8189 17.8933 13.8189 17.9088 13.808L18.1788 13.6145L18.4488 13.808C18.4641 13.8202 18.4856 13.8209 18.5016 13.8096C18.5177 13.7984 18.5244 13.7779 18.5181 13.7594L18.4164 13.4426L18.6864 13.2437C18.7011 13.2319 18.7069 13.2122 18.7009 13.1943C18.6948 13.1764 18.6783 13.1641 18.6594 13.1637H18.3273L18.2202 12.8469Z" fill="white"/>
<defs>
<clipPath id="clip0_8821_16510">
<rect width="17.998" height="17.998" fill="white" transform="translate(2.00195 2.00098)"/>
</clipPath>
</defs>
</svg>
