<svg width="32" height="32" viewBox="0 0 32 32" fill="none" xmlns="http://www.w3.org/2000/svg">
<g clip-path="url(#clip0_513_9204)">
<path d="M16 32C24.8366 32 32 24.8366 32 16C32 7.16344 24.8366 0 16 0C7.16344 0 0 7.16344 0 16C0 24.8366 7.16344 32 16 32Z" fill="#282C38"/>
<path d="M16.0119 12.5714C12.9828 12.5714 9.91672 11.7864 9.91672 10.2857C9.91672 8.78502 12.9828 8 16.0119 8C19.0409 8 22.1071 8.78502 22.1071 10.2857C22.1071 11.7864 19.0409 12.5714 16.0119 12.5714ZM13.3453 9.90472H12.5833C12.3729 9.90472 12.2024 10.0753 12.2024 10.2857C12.2024 10.4961 12.3729 10.6667 12.5833 10.6667H13.3453C13.5557 10.6667 13.7261 10.4961 13.7261 10.2857C13.7261 10.0753 13.5557 9.90472 13.3453 9.90472Z" fill="white"/>
<path d="M10.2976 12.1129C11.6363 12.9856 13.9351 13.3333 16.0119 13.3333C18.0886 13.3333 20.3874 12.9856 21.7261 12.1129V15.1569C21.9604 15.3761 22.0975 15.6795 22.1071 16C22.1071 17.5007 19.0409 18.2857 16.0119 18.2857C12.9828 18.2857 9.91672 17.5007 9.91672 16C9.92634 15.6795 10.0635 15.3761 10.2976 15.1569V12.1129Z" fill="white"/>
<path d="M10.2976 17.8271C11.6363 18.6999 13.9351 19.0476 16.0119 19.0476C18.0886 19.0476 20.3874 18.6999 21.7261 17.8271V20.8712C21.9604 21.0904 22.0975 21.3938 22.1071 21.7143C22.1071 23.215 19.0409 24 16.0119 24C12.9828 24 9.91672 23.215 9.91672 21.7143C9.92634 21.3938 10.0635 21.0904 10.2976 20.8712V17.8271Z" fill="white"/>
<g clip-path="url(#clip1_513_9204)">
<path d="M16 8.213V8.672H25V8.213H16Z" fill="white"/>
<path d="M20.3125 7.754H25V7.295H20.3125V7.754Z" fill="white"/>
<path d="M20.3125 6.836H25V6.377H20.3125V6.836Z" fill="white"/>
<path d="M20.3125 5.918H25V5.75C25 5.6468 24.9792 5.54847 24.9415 5.459H20.3125V5.918Z" fill="white"/>
<path d="M25 9.131H16V9.59H25V9.131Z" fill="white"/>
<path d="M16 10.049H25V10.25C25 10.3407 24.9839 10.4275 24.9545 10.508H16.0455C16.0161 10.4275 16 10.3407 16 10.25V10.049Z" fill="white"/>
<path d="M24.25 5H20.3125V5.459H24.9415C24.8278 5.18931 24.5611 5 24.25 5Z" fill="#F44336"/>
<path d="M20.3125 8.213H25V7.754H20.3125V8.213Z" fill="#F44336"/>
<path d="M20.3125 7.295H25V6.836H20.3125V7.295Z" fill="#F44336"/>
<path d="M20.3125 6.377H25V5.918H20.3125V6.377Z" fill="#F44336"/>
<path d="M16 8.672H25V9.131H16V8.672Z" fill="#F44336"/>
<path d="M25 9.59H16V10.049H25V9.59Z" fill="#F44336"/>
<path d="M16.0455 10.508H24.9545C24.8493 10.7951 24.5736 11 24.25 11H16.75C16.4264 11 16.1507 10.7951 16.0455 10.508Z" fill="#F44336"/>
<path fill-rule="evenodd" clip-rule="evenodd" d="M20.3125 5H16.75C16.3358 5 16 5.33579 16 5.75V8.213H20.3125V5ZM16.4458 7.6619L16.4101 7.55631C16.4059 7.54189 16.3879 7.54189 16.3858 7.55691L16.3501 7.66251H16.2391C16.2328 7.66265 16.2273 7.66675 16.2253 7.6727C16.2233 7.67867 16.2252 7.68526 16.2301 7.6892L16.3201 7.75551L16.2832 7.8605C16.282 7.86475 16.2828 7.86919 16.2852 7.87272C16.2862 7.87425 16.2875 7.8756 16.289 7.8767C16.2942 7.88034 16.3011 7.88034 16.3063 7.8767L16.3963 7.8122L16.4863 7.8767C16.4914 7.88078 16.4986 7.881 16.5039 7.87725C16.5093 7.8735 16.5115 7.86668 16.5094 7.8605L16.4755 7.75491L16.5655 7.68861C16.5678 7.68675 16.5695 7.6843 16.5703 7.68158C16.5713 7.67856 16.5714 7.67524 16.5703 7.6721C16.5683 7.66613 16.5628 7.66206 16.5565 7.6619H16.4458ZM19.8109 7.55631C19.8095 7.55057 19.8042 7.54659 19.7983 7.54672C19.7924 7.54686 19.7874 7.55109 19.7863 7.55691L19.7506 7.66251H19.6399C19.6336 7.66265 19.6281 7.66675 19.626 7.6727C19.625 7.67583 19.625 7.67913 19.626 7.68213C19.6269 7.68485 19.6286 7.68732 19.6309 7.6892L19.7209 7.75551L19.684 7.8605C19.6823 7.86661 19.6847 7.87309 19.6898 7.8767C19.695 7.88034 19.7019 7.88034 19.7071 7.8767L19.7971 7.8122L19.8871 7.8767C19.8922 7.88078 19.8994 7.881 19.9047 7.87725C19.91 7.8735 19.9123 7.86668 19.9102 7.8605L19.8763 7.75491L19.9663 7.68861C19.9692 7.68625 19.9711 7.68293 19.9717 7.67936C19.9721 7.67698 19.9719 7.67448 19.9711 7.6721C19.9691 7.66613 19.9636 7.66206 19.9573 7.6619H19.8466L19.8109 7.55631ZM18.9601 7.55631C18.9587 7.55057 18.9534 7.54659 18.9475 7.54672C18.9416 7.54686 18.9366 7.55109 18.9355 7.55691L18.8998 7.66251H18.7891C18.7828 7.66265 18.7773 7.66675 18.7752 7.6727C18.7732 7.67867 18.7752 7.68526 18.7801 7.6892L18.8701 7.75551L18.8332 7.8605C18.8315 7.86661 18.8339 7.87309 18.8391 7.8767C18.8442 7.88034 18.8511 7.88034 18.8563 7.8767L18.9463 7.8122L19.0363 7.8767C19.0414 7.88078 19.0486 7.881 19.0539 7.87725C19.0592 7.8735 19.0615 7.86668 19.0594 7.8605L19.0255 7.75491L19.1155 7.68861C19.1204 7.68467 19.1223 7.67808 19.1203 7.6721C19.1183 7.66613 19.1128 7.66206 19.1065 7.6619H18.9958L18.9601 7.55631ZM17.2963 7.6619L17.2606 7.55631C17.2564 7.54189 17.2366 7.54189 17.2363 7.55691L17.2006 7.66251H17.0896C17.0833 7.66265 17.0778 7.66675 17.0757 7.6727C17.0737 7.67867 17.0757 7.68526 17.0806 7.6892L17.1706 7.75551L17.1337 7.8605C17.132 7.86661 17.1344 7.87309 17.1396 7.8767C17.1447 7.88034 17.1516 7.88034 17.1568 7.8767L17.2468 7.8122L17.3368 7.8767C17.3419 7.88078 17.3491 7.881 17.3544 7.87725C17.3597 7.8735 17.362 7.86668 17.3599 7.8605L17.326 7.75491L17.416 7.68861C17.4177 7.68726 17.419 7.68559 17.4199 7.68373C17.4217 7.68021 17.4221 7.67602 17.4208 7.6721C17.4193 7.66746 17.4156 7.66396 17.4111 7.66256C17.4098 7.66217 17.4084 7.66194 17.407 7.6619H17.2963ZM18.1471 7.6619L18.1114 7.55631C18.1072 7.54189 18.0874 7.54189 18.0871 7.55691L18.0514 7.66251H17.9404C17.9341 7.66265 17.9286 7.66675 17.9265 7.6727C17.9245 7.67867 17.9265 7.68526 17.9314 7.6892L18.0214 7.75551L17.9845 7.8605C17.9836 7.86393 17.9839 7.86748 17.9853 7.87057C17.9864 7.87299 17.9881 7.87512 17.9904 7.8767C17.9955 7.88034 18.0024 7.88034 18.0076 7.8767L18.0976 7.8122L18.1876 7.8767C18.1927 7.88078 18.1999 7.881 18.2052 7.87725C18.2105 7.8735 18.2128 7.86668 18.2107 7.8605L18.1768 7.75491L18.2668 7.68861C18.2717 7.68467 18.2736 7.67808 18.2716 7.6721C18.2696 7.66613 18.2641 7.66206 18.2578 7.6619H18.1471ZM16.8712 7.38291L16.8355 7.27731C16.8313 7.26291 16.8133 7.26291 16.8112 7.27731L16.7755 7.38291H16.6615C16.6552 7.38307 16.6497 7.38715 16.6476 7.3931C16.6456 7.39907 16.6476 7.40566 16.6525 7.4096L16.7425 7.47591L16.7086 7.58151C16.7069 7.5876 16.7093 7.59408 16.7144 7.59772C16.7196 7.60133 16.7265 7.60133 16.7317 7.59769L16.8217 7.5332L16.9117 7.59769C16.9168 7.60177 16.924 7.602 16.9293 7.59824C16.9347 7.59451 16.9369 7.58769 16.9348 7.58151L16.9009 7.47591L16.9909 7.4096C16.9958 7.40566 16.9977 7.39907 16.9957 7.3931C16.9937 7.38715 16.9882 7.38307 16.9819 7.38291H16.8712ZM19.3855 7.27731C19.3855 7.27236 19.3829 7.26781 19.3786 7.26536C19.3743 7.26289 19.369 7.26289 19.3648 7.26536C19.3605 7.26781 19.3579 7.27236 19.3579 7.27731L19.3222 7.38291H19.2115C19.2052 7.38307 19.1997 7.38715 19.1977 7.3931C19.1956 7.39907 19.1976 7.40566 19.2025 7.4096L19.2925 7.47591L19.2586 7.58151C19.2569 7.5876 19.2593 7.59408 19.2645 7.59772C19.2696 7.60133 19.2765 7.60133 19.2817 7.59769L19.3717 7.5332L19.4617 7.59769C19.4668 7.60177 19.474 7.602 19.4793 7.59824C19.4822 7.59623 19.4842 7.5933 19.485 7.59007C19.4858 7.58733 19.4857 7.58435 19.4848 7.58151L19.4509 7.47591L19.5409 7.4096C19.5458 7.40566 19.5477 7.39907 19.5457 7.3931C19.5437 7.38715 19.5382 7.38307 19.5319 7.38291H19.4212L19.3855 7.27731ZM18.5725 7.38291L18.5368 7.27731C18.5326 7.26291 18.5128 7.26291 18.5092 7.27731L18.4735 7.38291H18.3628C18.3597 7.38298 18.3568 7.38403 18.3543 7.3858C18.3519 7.38758 18.35 7.3901 18.349 7.3931C18.3483 7.39516 18.3481 7.39729 18.3482 7.39937C18.3486 7.40331 18.3506 7.40701 18.3538 7.4096L18.4438 7.47591L18.4099 7.58151C18.4082 7.5876 18.4106 7.59408 18.4158 7.59772C18.4209 7.60133 18.4278 7.60133 18.433 7.59769L18.523 7.5332L18.613 7.59769C18.6181 7.60177 18.6253 7.602 18.6306 7.59824C18.6359 7.59451 18.6382 7.58769 18.6361 7.58151L18.6022 7.47591L18.6922 7.4096C18.6971 7.40566 18.699 7.39907 18.697 7.3931C18.695 7.38715 18.6895 7.38307 18.6832 7.38291H18.5725ZM17.7217 7.38291L17.686 7.27731C17.6818 7.26291 17.662 7.26291 17.6617 7.27731L17.626 7.38291H17.512C17.5057 7.38307 17.5002 7.38715 17.4982 7.3931C17.4962 7.39907 17.4981 7.40566 17.503 7.4096L17.593 7.47591L17.5591 7.58151C17.5583 7.5846 17.5585 7.58778 17.5595 7.59062C17.5605 7.59341 17.5624 7.59591 17.565 7.59772C17.5673 7.59939 17.5701 7.60028 17.5729 7.60042C17.5761 7.60056 17.5794 7.59964 17.5822 7.59769L17.6722 7.5332L17.7622 7.59769C17.7673 7.60177 17.7745 7.602 17.7798 7.59824C17.7851 7.59451 17.7874 7.58769 17.7853 7.58151L17.7514 7.47591L17.8414 7.4096C17.8463 7.40566 17.8482 7.39907 17.8462 7.3931C17.8442 7.38715 17.8387 7.38307 17.8324 7.38291H17.7217ZM17.2963 7.1126L17.2606 7.007C17.2564 6.99471 17.2366 6.99471 17.2363 7.007L17.2006 7.1126H17.0866C17.0803 7.11276 17.0748 7.11684 17.0728 7.12281C17.0708 7.12878 17.0727 7.13535 17.0776 7.13931L17.1676 7.2056L17.1337 7.3112C17.132 7.31729 17.1344 7.32379 17.1396 7.32741C17.1447 7.33105 17.1516 7.33102 17.1568 7.32741L17.2468 7.26291L17.3368 7.32741C17.3379 7.32825 17.339 7.32894 17.3402 7.32947C17.3448 7.33141 17.3502 7.33093 17.3544 7.32796C17.3597 7.3242 17.362 7.31738 17.3599 7.3112L17.326 7.2056L17.416 7.13931C17.4209 7.13535 17.4228 7.12878 17.4208 7.12281C17.4188 7.11684 17.4133 7.11276 17.407 7.1126H17.2963ZM19.8466 7.1126L19.8109 7.007C19.8085 6.99471 19.7887 6.99471 19.7833 7.007L19.7476 7.1126H19.6369C19.6306 7.11276 19.6251 7.11684 19.6231 7.12281C19.621 7.12878 19.623 7.13535 19.6279 7.13931L19.7179 7.2056L19.684 7.3112C19.6823 7.31729 19.6847 7.32379 19.6898 7.32741C19.695 7.33105 19.7019 7.33102 19.7071 7.32741L19.7971 7.26291L19.8871 7.32741C19.8922 7.33148 19.8994 7.33171 19.9047 7.32796C19.9077 7.3259 19.9096 7.32292 19.9105 7.31965C19.9112 7.31693 19.9111 7.314 19.9102 7.3112L19.8763 7.2056L19.9663 7.13931C19.9712 7.13535 19.9731 7.12878 19.9711 7.12281C19.9691 7.11684 19.9636 7.11276 19.9573 7.1126H19.8466ZM16.4458 7.1126L16.4101 7.007C16.4059 6.99471 16.3879 6.99471 16.3858 7.007L16.3501 7.1126H16.2361C16.2298 7.11276 16.2243 7.11684 16.2222 7.12281C16.2202 7.12878 16.2222 7.13535 16.2271 7.13931L16.3171 7.2056L16.2832 7.3112C16.2815 7.31729 16.2839 7.32379 16.289 7.32741C16.2942 7.33105 16.3011 7.33102 16.3063 7.32741L16.3963 7.26291L16.4863 7.32741C16.4914 7.33148 16.4986 7.33171 16.5039 7.32796C16.5093 7.3242 16.5115 7.31738 16.5094 7.3112L16.4755 7.2056L16.5655 7.13931C16.5704 7.13535 16.5723 7.12878 16.5703 7.12281C16.5683 7.11684 16.5628 7.11276 16.5565 7.1126H16.4458ZM18.9958 7.1126L18.9601 7.007C18.9587 6.9999 18.9515 6.9969 18.9447 6.998C18.9396 6.9988 18.9348 7.0018 18.9325 7.007L18.8968 7.1126H18.7861C18.7837 7.11267 18.7815 7.11329 18.7794 7.11434C18.7761 7.11608 18.7735 7.11908 18.7723 7.12281C18.7702 7.12878 18.7722 7.13535 18.7771 7.13931L18.8671 7.2056L18.8332 7.3112C18.8315 7.31729 18.8339 7.32379 18.8391 7.32741C18.8442 7.33105 18.8511 7.33102 18.8563 7.32741L18.9463 7.26291L19.0363 7.32741C19.0414 7.33148 19.0486 7.33171 19.0539 7.32796C19.0592 7.3242 19.0615 7.31738 19.0594 7.3112L19.0255 7.2056L19.1155 7.13931C19.1204 7.13535 19.1223 7.12878 19.1203 7.12281C19.1183 7.11684 19.1128 7.11276 19.1065 7.1126H18.9958ZM18.1471 7.1126L18.1114 7.007C18.1072 6.99471 18.0874 6.99471 18.0871 7.007L18.0514 7.1126H17.9374C17.9311 7.11276 17.9256 7.11684 17.9236 7.12281C17.9216 7.12878 17.9235 7.13535 17.9284 7.13931L18.0184 7.2056L17.9845 7.3112C17.9828 7.31729 17.9852 7.32379 17.9904 7.32741C17.9955 7.33105 18.0024 7.33102 18.0076 7.32741L18.0976 7.26291L18.1876 7.32741C18.1927 7.33148 18.1999 7.33171 18.2052 7.32796C18.2105 7.3242 18.2128 7.31738 18.2107 7.3112L18.1768 7.2056L18.2668 7.13931C18.2717 7.13535 18.2736 7.12878 18.2716 7.12281C18.2696 7.11684 18.2641 7.11276 18.2578 7.1126H18.1471ZM16.8712 6.83389L16.8355 6.72831C16.8313 6.71391 16.8133 6.71391 16.8112 6.7289L16.7755 6.83451H16.6645C16.6582 6.83467 16.6527 6.83875 16.6507 6.8447C16.6487 6.85067 16.6506 6.85726 16.6555 6.8612L16.7455 6.92751L16.7086 7.03249C16.7069 7.0386 16.7093 7.04508 16.7144 7.0487C16.7196 7.05234 16.7265 7.05234 16.7317 7.0487L16.8217 6.9842L16.9117 7.0487C16.9168 7.05277 16.924 7.053 16.9293 7.04925C16.9347 7.04552 16.9369 7.03867 16.9348 7.03249L16.9009 6.92691L16.9909 6.8606C16.9958 6.85667 16.9977 6.85007 16.9957 6.8441C16.9937 6.83813 16.9882 6.83405 16.9819 6.83389H16.8712ZM19.3855 6.72831C19.3855 6.72069 19.3793 6.71451 19.3717 6.71451C19.3656 6.71451 19.3605 6.71842 19.3586 6.72385C19.3582 6.72524 19.3579 6.72675 19.3579 6.72831L19.3222 6.83389H19.2115C19.2091 6.83396 19.2069 6.83458 19.2048 6.83563C19.2015 6.83739 19.1989 6.84039 19.1977 6.8441C19.1956 6.85007 19.1976 6.85667 19.2025 6.8606L19.2925 6.92691L19.2586 7.03249C19.2569 7.0386 19.2593 7.04508 19.2645 7.0487C19.2675 7.05087 19.2712 7.05174 19.2748 7.05133C19.2772 7.05103 19.2796 7.05016 19.2817 7.0487L19.3717 6.9842L19.4617 7.0487C19.4668 7.05277 19.474 7.053 19.4793 7.04925C19.4846 7.04552 19.4869 7.03867 19.4848 7.03249L19.4509 6.92691L19.5409 6.8606C19.5458 6.85667 19.5477 6.85007 19.5457 6.8441C19.5437 6.83813 19.5382 6.83405 19.5319 6.83389H19.4212L19.3855 6.72831ZM18.5725 6.83389L18.5368 6.72831C18.5326 6.71391 18.5128 6.71391 18.5092 6.72831L18.4735 6.83389H18.3628C18.3599 6.83396 18.3572 6.83488 18.3549 6.83641C18.3522 6.83822 18.3501 6.84087 18.349 6.8441C18.347 6.85007 18.3489 6.85667 18.3538 6.8606L18.4438 6.92691L18.4099 7.03249C18.4087 7.03696 18.4096 7.0416 18.4122 7.0452C18.4131 7.04652 18.4143 7.04771 18.4158 7.0487C18.4209 7.05234 18.4278 7.05234 18.433 7.0487L18.523 6.9842L18.613 7.0487C18.6181 7.05277 18.6253 7.053 18.6306 7.04925C18.6359 7.04552 18.6382 7.03867 18.6361 7.03249L18.6022 6.92691L18.6922 6.8606C18.6971 6.85667 18.699 6.85007 18.697 6.8441C18.695 6.83813 18.6895 6.83405 18.6832 6.83389H18.5725ZM17.7217 6.83389L17.686 6.72831C17.6818 6.71391 17.662 6.71391 17.6617 6.7289L17.626 6.83451H17.515C17.5087 6.83467 17.5032 6.83875 17.5011 6.8447C17.4999 6.84845 17.5001 6.85246 17.5018 6.85589C17.5027 6.8579 17.5042 6.85973 17.506 6.8612L17.596 6.92751L17.5591 7.03249C17.5574 7.0386 17.5598 7.04508 17.565 7.0487C17.5701 7.05234 17.577 7.05234 17.5822 7.0487L17.6722 6.9842L17.7622 7.0487C17.7673 7.05277 17.7745 7.053 17.7798 7.04925C17.7851 7.04552 17.7874 7.03867 17.7853 7.03249L17.7514 6.92691L17.8414 6.8606C17.8463 6.85667 17.8482 6.85007 17.8462 6.8441C17.8442 6.83813 17.8387 6.83405 17.8324 6.83389H17.7217ZM17.2963 6.56539L17.2606 6.45981C17.2564 6.44541 17.2366 6.44541 17.2363 6.4604L17.2006 6.56601H17.0896C17.0854 6.56612 17.0815 6.568 17.0788 6.57102C17.0774 6.57251 17.0764 6.57425 17.0757 6.57622C17.0737 6.58217 17.0757 6.58876 17.0806 6.5927L17.1706 6.659L17.1337 6.76399C17.132 6.7701 17.1344 6.77658 17.1396 6.78022C17.1447 6.78384 17.1516 6.78384 17.1568 6.7802L17.2468 6.7157L17.3368 6.7802C17.3419 6.78427 17.3491 6.7845 17.3544 6.78075C17.3597 6.77702 17.362 6.7702 17.3599 6.76399L17.326 6.65841L17.416 6.5921C17.4187 6.58988 17.4206 6.58684 17.4213 6.58352C17.4218 6.58093 17.4217 6.57821 17.4208 6.5756C17.4198 6.57272 17.4181 6.57027 17.4158 6.5685C17.4133 6.5666 17.4102 6.56548 17.407 6.56539H17.2963ZM19.804 6.45141C19.8023 6.45061 19.8004 6.45017 19.7983 6.45022C19.7924 6.45036 19.7874 6.45459 19.7863 6.4604L19.7506 6.56601H19.6399C19.6336 6.56617 19.6281 6.57024 19.626 6.57622C19.624 6.58217 19.626 6.58876 19.6309 6.5927L19.7209 6.659L19.684 6.76399C19.6823 6.7701 19.6847 6.77658 19.6898 6.78022C19.695 6.78384 19.7019 6.78384 19.7071 6.7802L19.7971 6.7157L19.8871 6.7802C19.8898 6.78239 19.8932 6.78347 19.8965 6.7834C19.8994 6.78336 19.9023 6.78246 19.9047 6.78075C19.9077 6.77862 19.9098 6.77548 19.9106 6.77205C19.9112 6.76944 19.9111 6.76667 19.9102 6.76399L19.8763 6.65841L19.9663 6.5921C19.9712 6.58817 19.9731 6.58157 19.9711 6.5756C19.9691 6.56965 19.9636 6.56555 19.9573 6.56539H19.8466L19.8109 6.45981C19.81 6.45601 19.8074 6.45299 19.804 6.45141ZM18.9601 6.45981C18.9601 6.45219 18.9539 6.44601 18.9463 6.44601C18.9387 6.44601 18.9325 6.45219 18.9325 6.45981L18.8968 6.56539H18.7861C18.7798 6.56555 18.7743 6.56965 18.7723 6.5756C18.7702 6.58157 18.7722 6.58817 18.7771 6.5921L18.8671 6.65841L18.8332 6.76399C18.8315 6.7701 18.8339 6.77658 18.8391 6.78022C18.8442 6.78384 18.8511 6.78384 18.8563 6.7802L18.9463 6.7157L19.0363 6.7802C19.0386 6.78203 19.0413 6.78308 19.0441 6.78333C19.0475 6.78365 19.051 6.78281 19.0539 6.78075C19.0592 6.77702 19.0615 6.7702 19.0594 6.76399L19.0255 6.65841L19.1155 6.5921C19.1204 6.58817 19.1223 6.58157 19.1203 6.5756C19.1183 6.56965 19.1128 6.56555 19.1065 6.56539H18.9958L18.9601 6.45981ZM16.4458 6.56539L16.4101 6.45981C16.4059 6.44541 16.3879 6.44541 16.3858 6.4604L16.3501 6.56601H16.2391C16.2328 6.56617 16.2273 6.57024 16.2253 6.57622C16.2233 6.58217 16.2252 6.58876 16.2301 6.5927L16.3201 6.659L16.2832 6.76399C16.2815 6.7701 16.2839 6.77658 16.289 6.78022C16.2925 6.78262 16.2966 6.78342 16.3006 6.78265C16.3026 6.78226 16.3046 6.78143 16.3063 6.7802L16.3963 6.7157L16.4863 6.7802C16.4914 6.78427 16.4986 6.7845 16.5039 6.78075C16.5093 6.77702 16.5115 6.7702 16.5094 6.76399L16.4755 6.65841L16.5655 6.5921C16.5704 6.58817 16.5723 6.58157 16.5703 6.5756C16.5683 6.56965 16.5628 6.56555 16.5565 6.56539H16.4458ZM18.1471 6.56539L18.1114 6.45981C18.1072 6.44541 18.0874 6.44541 18.0871 6.45981L18.0514 6.56539H17.9374C17.9311 6.56555 17.9256 6.56965 17.9236 6.5756C17.9225 6.57878 17.9225 6.58215 17.9235 6.58521C17.9244 6.58787 17.9261 6.59027 17.9284 6.5921L18.0184 6.65841L17.9845 6.76399C17.9828 6.7701 17.9852 6.77658 17.9904 6.78022C17.993 6.78207 17.9961 6.78297 17.9992 6.78292C18.0021 6.78288 18.0051 6.78198 18.0076 6.7802L18.0976 6.7157L18.1876 6.7802C18.1927 6.78427 18.1999 6.7845 18.2052 6.78075C18.2105 6.77702 18.2128 6.7702 18.2107 6.76399L18.1768 6.65841L18.2668 6.5921C18.2717 6.58817 18.2736 6.58157 18.2716 6.5756C18.2696 6.56965 18.2641 6.56555 18.2578 6.56539H18.1471ZM16.8712 6.2843L16.8355 6.1787C16.8313 6.1664 16.8133 6.1664 16.8112 6.1787L16.7755 6.2843H16.6615C16.6588 6.28437 16.6562 6.28517 16.654 6.28654C16.6511 6.28835 16.6488 6.29112 16.6476 6.29451C16.6456 6.30048 16.6476 6.30705 16.6525 6.31101L16.7425 6.3773L16.7086 6.4829C16.7069 6.48899 16.7093 6.49549 16.7144 6.49911C16.7196 6.50275 16.7265 6.50272 16.7317 6.49911L16.8217 6.43461L16.9117 6.49911C16.9168 6.50318 16.924 6.50341 16.9293 6.49966C16.9347 6.4959 16.9369 6.48908 16.9348 6.4829L16.9009 6.3773L16.9909 6.31101C16.9958 6.30705 16.9977 6.30048 16.9957 6.29451C16.9937 6.28854 16.9882 6.28446 16.9819 6.2843H16.8712ZM18.5725 6.2843L18.5368 6.1787C18.5326 6.1664 18.5128 6.1664 18.5092 6.1787L18.4735 6.2843H18.3628C18.3565 6.28446 18.351 6.28854 18.349 6.29451C18.3477 6.29819 18.348 6.30211 18.3495 6.3055C18.3505 6.3076 18.3519 6.3095 18.3538 6.31101L18.4438 6.3773L18.4099 6.4829C18.4082 6.48899 18.4106 6.49549 18.4158 6.49911C18.4209 6.50275 18.4278 6.50272 18.433 6.49911L18.523 6.43461L18.613 6.49911C18.6153 6.50098 18.6182 6.50206 18.6211 6.50229C18.6244 6.50254 18.6277 6.50167 18.6306 6.49966C18.6359 6.4959 18.6382 6.48908 18.6361 6.4829L18.6022 6.3773L18.6922 6.31101C18.6947 6.309 18.6964 6.30632 18.6972 6.30339C18.698 6.30055 18.698 6.29746 18.697 6.29451C18.695 6.28854 18.6895 6.28446 18.6832 6.2843H18.5725ZM17.7217 6.2843L17.686 6.1787C17.6818 6.1664 17.662 6.1664 17.6617 6.1787L17.626 6.2843H17.512C17.5057 6.28446 17.5002 6.28854 17.4982 6.29451C17.4962 6.30048 17.4981 6.30705 17.503 6.31101L17.593 6.3773L17.5591 6.4829C17.5574 6.48899 17.5598 6.49549 17.565 6.49911C17.5701 6.50275 17.577 6.50272 17.5822 6.49911L17.6722 6.43461L17.7622 6.49911C17.7673 6.50318 17.7745 6.50341 17.7798 6.49966C17.7851 6.4959 17.7874 6.48908 17.7853 6.4829L17.7514 6.3773L17.8414 6.31101C17.8463 6.30705 17.8482 6.30048 17.8462 6.29451C17.8442 6.28854 17.8387 6.28446 17.8324 6.2843H17.7217ZM19.4212 6.2843L19.3855 6.1787C19.3831 6.1664 19.3633 6.1664 19.3579 6.1787L19.3222 6.2843H19.2115C19.2052 6.28446 19.1997 6.28854 19.1977 6.29451C19.1956 6.30048 19.1976 6.30705 19.2025 6.31101L19.2925 6.3773L19.2586 6.4829C19.2569 6.48899 19.2593 6.49549 19.2645 6.49911C19.2696 6.50275 19.2765 6.50272 19.2817 6.49911L19.3717 6.43461L19.4617 6.49911C19.4646 6.50146 19.4683 6.50254 19.4719 6.50229C19.4745 6.50211 19.4771 6.50124 19.4793 6.49966C19.4846 6.4959 19.4869 6.48908 19.4848 6.4829L19.4509 6.3773L19.5409 6.31101C19.5458 6.30705 19.5477 6.30048 19.5457 6.29451C19.5443 6.29048 19.5414 6.28732 19.5377 6.28565C19.5359 6.28483 19.5339 6.28435 19.5319 6.2843H19.4212ZM18.1471 6.0161L18.1114 5.91049C18.1072 5.8982 18.0874 5.8982 18.0871 5.91049L18.0514 6.0161H17.9374C17.9311 6.01626 17.9256 6.02033 17.9236 6.02631C17.9216 6.03228 17.9235 6.03887 17.9284 6.04281L18.0184 6.10909L17.9845 6.2147C17.9832 6.21944 17.9843 6.22438 17.9873 6.22804C17.9882 6.22912 17.9892 6.23008 17.9904 6.2309C17.9936 6.23315 17.9974 6.23402 18.0011 6.23349C18.0034 6.23317 18.0056 6.2323 18.0076 6.2309L18.0976 6.1664L18.1876 6.2309C18.1927 6.23498 18.1999 6.23521 18.2052 6.23145C18.2105 6.2277 18.2128 6.22088 18.2107 6.2147L18.1768 6.10909L18.2668 6.04281C18.2717 6.03887 18.2736 6.03228 18.2716 6.02631C18.2696 6.02033 18.2641 6.01626 18.2578 6.0161H18.1471ZM16.4458 6.0161L16.4101 5.91049C16.4059 5.8982 16.3879 5.8982 16.3858 5.91049L16.3501 6.0161H16.2361C16.2298 6.01626 16.2243 6.02033 16.2222 6.02631C16.2202 6.03228 16.2222 6.03887 16.2271 6.04281L16.3171 6.10909L16.2832 6.2147C16.2815 6.22081 16.2839 6.22729 16.289 6.2309C16.2942 6.23454 16.3011 6.23454 16.3063 6.2309L16.3963 6.1664L16.4863 6.2309C16.4914 6.23498 16.4986 6.23521 16.5039 6.23145C16.5093 6.2277 16.5115 6.22088 16.5094 6.2147L16.4755 6.10909L16.5655 6.04281C16.5704 6.03887 16.5723 6.03228 16.5703 6.02631C16.5683 6.02033 16.5628 6.01626 16.5565 6.0161H16.4458ZM17.2975 6.0161L17.2618 5.91049C17.2564 5.8982 17.2366 5.8982 17.2345 5.91049L17.1988 6.0161H17.0884C17.0821 6.01626 17.0766 6.02033 17.0746 6.02631C17.0731 6.03063 17.0737 6.03528 17.076 6.03903C17.0769 6.04045 17.078 6.04173 17.0794 6.04281L17.1694 6.10909L17.1355 6.2147C17.1338 6.22081 17.1362 6.22729 17.1413 6.2309C17.1465 6.23454 17.1534 6.23454 17.1586 6.2309L17.2486 6.1664L17.3386 6.2309C17.3437 6.23498 17.3509 6.23521 17.3562 6.23145C17.3615 6.2277 17.3638 6.22088 17.3617 6.2147L17.3278 6.10909L17.4178 6.04281C17.421 6.04025 17.4229 6.03656 17.4233 6.03267C17.4236 6.03056 17.4233 6.02839 17.4226 6.02631C17.4206 6.02033 17.4151 6.01626 17.4088 6.0161H17.2975ZM18.9958 6.0161L18.9601 5.91049C18.9577 5.8982 18.9379 5.8982 18.9325 5.91049L18.8968 6.0161H18.7861C18.7798 6.01626 18.7743 6.02033 18.7723 6.02631C18.7702 6.03228 18.7722 6.03887 18.7771 6.04281L18.8671 6.10909L18.8332 6.2147C18.8321 6.21873 18.8328 6.22292 18.8348 6.22635C18.8358 6.22811 18.8373 6.22967 18.8391 6.2309C18.8442 6.23454 18.8511 6.23454 18.8563 6.2309L18.9463 6.1664L19.0363 6.2309C19.0414 6.23498 19.0486 6.23521 19.0539 6.23145C19.0592 6.2277 19.0615 6.22088 19.0594 6.2147L19.0255 6.10909L19.1155 6.04281C19.1204 6.03887 19.1223 6.03228 19.1203 6.02631C19.119 6.02246 19.1163 6.01939 19.1128 6.01765C19.1109 6.01669 19.1087 6.01614 19.1065 6.0161H18.9958ZM19.8466 6.0161L19.8109 5.91049C19.8085 5.8982 19.7887 5.8982 19.7833 5.91049L19.7476 6.0161H19.6369C19.6306 6.01626 19.6251 6.02033 19.6231 6.02631C19.621 6.03228 19.623 6.03887 19.6279 6.04281L19.7179 6.10909L19.684 6.2147C19.6823 6.22081 19.6847 6.22729 19.6898 6.2309C19.695 6.23454 19.7019 6.23454 19.7071 6.2309L19.7971 6.1664L19.8871 6.2309C19.8904 6.23351 19.8945 6.23454 19.8984 6.23395C19.9007 6.23363 19.9028 6.2328 19.9047 6.23145C19.91 6.2277 19.9123 6.22088 19.9102 6.2147L19.8763 6.10909L19.9663 6.04281C19.9712 6.03887 19.9731 6.03228 19.9711 6.02631C19.9691 6.02033 19.9636 6.01626 19.9573 6.0161H19.8466ZM18.5725 5.73711L18.5368 5.63151C18.5326 5.61711 18.5128 5.61711 18.5092 5.63151L18.4735 5.73711H18.3628C18.3565 5.73725 18.351 5.74135 18.349 5.7473C18.347 5.75327 18.3489 5.75986 18.3538 5.7638L18.4438 5.83011L18.4099 5.93569C18.4089 5.93933 18.4093 5.94308 18.4109 5.94629C18.412 5.94849 18.4137 5.95043 18.4158 5.95192C18.4209 5.95554 18.4278 5.95554 18.433 5.9519L18.523 5.8874L18.613 5.9519C18.6181 5.95597 18.6253 5.9562 18.6306 5.95245C18.6359 5.94872 18.6382 5.94189 18.6361 5.93569L18.6022 5.83011L18.6922 5.7638C18.6971 5.75986 18.699 5.75327 18.697 5.7473C18.696 5.74444 18.6943 5.74201 18.692 5.74025C18.6895 5.73833 18.6865 5.73718 18.6832 5.73711H18.5725ZM17.7217 5.73711L17.686 5.63151C17.6832 5.62187 17.6734 5.61869 17.6671 5.62215C17.664 5.62384 17.6618 5.62716 17.6617 5.6321L17.626 5.73771H17.515C17.5087 5.73787 17.5032 5.74194 17.5011 5.74792C17.4991 5.75387 17.5011 5.76046 17.506 5.7644L17.596 5.8307L17.5591 5.93569C17.5574 5.9418 17.5598 5.94828 17.565 5.95192C17.5677 5.95382 17.5709 5.95471 17.574 5.95462C17.5769 5.95453 17.5797 5.95364 17.5822 5.9519L17.6722 5.8874L17.7622 5.9519C17.7673 5.95597 17.7745 5.9562 17.7798 5.95245C17.7851 5.94872 17.7874 5.94189 17.7853 5.93569L17.7514 5.83011L17.8414 5.7638C17.8463 5.75986 17.8482 5.75327 17.8462 5.7473C17.8442 5.74135 17.8387 5.73725 17.8324 5.73711H17.7217ZM16.8712 5.73711L16.8355 5.63151C16.8313 5.61711 16.8133 5.61711 16.8112 5.6321L16.7755 5.73771H16.6645C16.6582 5.73787 16.6527 5.74194 16.6507 5.74792C16.6487 5.75387 16.6506 5.76046 16.6555 5.7644L16.7455 5.8307L16.7086 5.93569C16.7069 5.9418 16.7093 5.94828 16.7144 5.95192C16.7196 5.95554 16.7265 5.95554 16.7317 5.9519L16.8217 5.8874L16.9117 5.9519C16.9168 5.95597 16.924 5.9562 16.9293 5.95245C16.9347 5.94872 16.9369 5.94189 16.9348 5.93569L16.9009 5.83011L16.9909 5.7638C16.9958 5.75986 16.9977 5.75327 16.9957 5.7473C16.9937 5.74135 16.9882 5.73725 16.9819 5.73711H16.8712ZM19.3855 5.63151C19.3855 5.62656 19.3829 5.62201 19.3786 5.61956C19.3743 5.61709 19.369 5.61709 19.3648 5.61956C19.3605 5.62201 19.3579 5.62656 19.3579 5.63151L19.3222 5.73711H19.2115C19.2052 5.73725 19.1997 5.74135 19.1977 5.7473C19.1956 5.75327 19.1976 5.75986 19.2025 5.7638L19.2925 5.83011L19.2586 5.93569C19.2569 5.9418 19.2593 5.94828 19.2645 5.95192C19.2696 5.95554 19.2765 5.95554 19.2817 5.9519L19.3717 5.8874L19.4617 5.9519C19.4641 5.95387 19.4671 5.95494 19.47 5.9551C19.4732 5.95526 19.4765 5.95439 19.4793 5.95245C19.4846 5.94872 19.4869 5.94189 19.4848 5.93569L19.4509 5.83011L19.5409 5.7638C19.5458 5.75986 19.5477 5.75327 19.5457 5.7473C19.5437 5.74135 19.5382 5.73725 19.5319 5.73711H19.4212L19.3855 5.63151ZM16.4458 5.46891L16.4101 5.3633C16.4059 5.34891 16.3879 5.34891 16.3858 5.3639L16.3501 5.46951H16.2391C16.2328 5.46967 16.2273 5.47374 16.2253 5.47971C16.2233 5.48566 16.2252 5.49226 16.2301 5.49619L16.3201 5.5625L16.2832 5.66751C16.2815 5.6736 16.2839 5.68008 16.289 5.68372C16.2942 5.68733 16.3011 5.68733 16.3063 5.68369L16.3963 5.61919L16.4863 5.68369C16.4914 5.68777 16.4986 5.688 16.5039 5.68427C16.5093 5.68051 16.5115 5.67369 16.5094 5.66751L16.4755 5.5619L16.5655 5.4956C16.5704 5.49166 16.5723 5.48507 16.5703 5.4791C16.5683 5.47314 16.5628 5.46907 16.5565 5.46891H16.4458ZM17.2963 5.46891L17.2606 5.3633C17.2581 5.3549 17.2504 5.3514 17.2443 5.35294C17.2399 5.35401 17.2364 5.35765 17.2363 5.3639L17.2006 5.46951H17.0896C17.0833 5.46967 17.0778 5.47374 17.0757 5.47971C17.0737 5.48566 17.0757 5.49226 17.0806 5.49619L17.1706 5.5625L17.1337 5.66751C17.132 5.6736 17.1344 5.68008 17.1396 5.68372C17.1418 5.68527 17.1443 5.68616 17.1469 5.68637C17.1503 5.68667 17.1538 5.68578 17.1568 5.68369L17.2468 5.61919L17.3368 5.68369C17.3419 5.68777 17.3491 5.688 17.3544 5.68427C17.3597 5.68051 17.362 5.67369 17.3599 5.66751L17.326 5.5619L17.416 5.4956C17.4186 5.49352 17.4203 5.49068 17.4211 5.48756C17.4218 5.48482 17.4218 5.48189 17.4208 5.4791C17.4188 5.47314 17.4133 5.46907 17.407 5.46891H17.2963ZM18.1471 5.46891L18.1114 5.3633C18.1072 5.34891 18.0874 5.34891 18.0871 5.3633L18.0514 5.46891H17.9374C17.9311 5.46907 17.9256 5.47314 17.9236 5.4791C17.9216 5.48507 17.9235 5.49166 17.9284 5.4956L18.0184 5.5619L17.9845 5.66751C17.9837 5.67062 17.9839 5.67385 17.985 5.67676C17.986 5.6795 17.9878 5.68195 17.9904 5.68372C17.9924 5.68511 17.9946 5.68596 17.9969 5.68628C18.0006 5.68678 18.0044 5.68594 18.0076 5.68369L18.0976 5.61919L18.1876 5.68369C18.1927 5.68777 18.1999 5.688 18.2052 5.68427C18.2105 5.68051 18.2128 5.67369 18.2107 5.66751L18.1768 5.5619L18.2668 5.4956C18.2717 5.49166 18.2736 5.48507 18.2716 5.4791C18.2696 5.47314 18.2641 5.46907 18.2578 5.46891H18.1471ZM18.9601 5.3633C18.9601 5.35838 18.9575 5.35381 18.9532 5.35136C18.9516 5.35042 18.9498 5.34985 18.948 5.34962C18.9451 5.34923 18.942 5.34982 18.9394 5.35136C18.9351 5.35381 18.9325 5.35838 18.9325 5.3633L18.8968 5.46891H18.7861C18.7798 5.46907 18.7743 5.47314 18.7723 5.4791C18.7702 5.48507 18.7722 5.49166 18.7771 5.4956L18.8671 5.5619L18.8332 5.66751C18.8315 5.6736 18.8339 5.68008 18.8391 5.68372C18.8442 5.68733 18.8511 5.68733 18.8563 5.68369L18.9463 5.61919L19.0363 5.68369C19.0385 5.68543 19.041 5.68646 19.0437 5.68678C19.0472 5.68724 19.0509 5.68642 19.0539 5.68427C19.0592 5.68051 19.0615 5.67369 19.0594 5.66751L19.0255 5.5619L19.1155 5.4956C19.1204 5.49166 19.1223 5.48507 19.1203 5.4791C19.1183 5.47314 19.1128 5.46907 19.1065 5.46891H18.9958L18.9601 5.3633ZM19.8109 5.3633C19.8095 5.35756 19.8042 5.35358 19.7983 5.35371C19.7924 5.35387 19.7874 5.35811 19.7863 5.3639L19.7506 5.46951H19.6399C19.6372 5.46957 19.6346 5.47038 19.6323 5.47177C19.6294 5.47358 19.6272 5.47635 19.626 5.47971C19.624 5.48566 19.626 5.49226 19.6309 5.49619L19.7209 5.5625L19.684 5.66751C19.6823 5.6736 19.6847 5.68008 19.6898 5.68372C19.695 5.68733 19.7019 5.68733 19.7071 5.68369L19.7971 5.61919L19.8871 5.68369C19.8889 5.68511 19.8909 5.68605 19.893 5.68653C19.897 5.68745 19.9012 5.68669 19.9047 5.68427C19.91 5.68051 19.9123 5.67369 19.9102 5.66751L19.8763 5.5619L19.9663 5.4956C19.9712 5.49166 19.9731 5.48507 19.9711 5.4791C19.9691 5.47314 19.9636 5.46907 19.9573 5.46891H19.8466L19.8109 5.3633Z" fill="#0D47A1"/>
<path d="M16.4101 7.55631L16.4458 7.6619H16.5565C16.5628 7.66206 16.5683 7.66613 16.5703 7.6721C16.5723 7.67807 16.5704 7.68467 16.5655 7.68861L16.4755 7.75491L16.5094 7.8605C16.5115 7.86668 16.5093 7.8735 16.5039 7.87725C16.4986 7.881 16.4914 7.88078 16.4863 7.8767L16.3963 7.8122L16.3063 7.8767C16.3011 7.88034 16.2942 7.88034 16.289 7.8767C16.2839 7.87307 16.2815 7.86659 16.2832 7.8605L16.3201 7.75551L16.2301 7.6892C16.2252 7.68526 16.2233 7.67867 16.2253 7.6727C16.2273 7.66675 16.2328 7.66265 16.2391 7.66251H16.3501L16.3858 7.55691C16.3879 7.54189 16.4059 7.54189 16.4101 7.55631ZM19.7983 7.54672C19.8042 7.54659 19.8095 7.55057 19.8109 7.55631L19.8466 7.6619H19.9573C19.9636 7.66206 19.9691 7.66613 19.9711 7.6721C19.9731 7.67807 19.9712 7.68467 19.9663 7.68861L19.8763 7.75491L19.9102 7.8605C19.9123 7.86668 19.91 7.8735 19.9047 7.87725C19.8994 7.881 19.8922 7.88078 19.8871 7.8767L19.7971 7.8122L19.7071 7.8767C19.7019 7.88034 19.695 7.88034 19.6898 7.8767C19.6847 7.87309 19.6823 7.86661 19.684 7.8605L19.7209 7.75551L19.6309 7.6892C19.626 7.68526 19.624 7.67867 19.626 7.6727C19.6281 7.66675 19.6336 7.66265 19.6399 7.66251H19.7506L19.7863 7.55691C19.7874 7.55109 19.7924 7.54686 19.7983 7.54672ZM18.9475 7.54672C18.9534 7.54659 18.9587 7.55057 18.9601 7.55631L18.9958 7.6619H19.1065C19.1128 7.66206 19.1183 7.66613 19.1203 7.6721C19.1223 7.67808 19.1204 7.68467 19.1155 7.68861L19.0255 7.75491L19.0594 7.8605C19.0615 7.86668 19.0592 7.8735 19.0539 7.87725C19.0486 7.881 19.0414 7.88078 19.0363 7.8767L18.9463 7.8122L18.8563 7.8767C18.8511 7.88034 18.8442 7.88034 18.8391 7.8767C18.8339 7.87309 18.8315 7.86661 18.8332 7.8605L18.8701 7.75551L18.7801 7.6892C18.7752 7.68526 18.7732 7.67867 18.7752 7.6727C18.7773 7.66675 18.7828 7.66265 18.7891 7.66251H18.8998L18.9355 7.55691C18.9366 7.55109 18.9416 7.54686 18.9475 7.54672ZM17.2606 7.55631L17.2963 7.6619H17.407C17.4133 7.66206 17.4188 7.66614 17.4208 7.6721C17.4228 7.67807 17.4209 7.68467 17.416 7.68861L17.326 7.75491L17.3599 7.8605C17.362 7.86668 17.3597 7.8735 17.3544 7.87725C17.3491 7.881 17.3419 7.88078 17.3368 7.8767L17.2468 7.8122L17.1568 7.8767C17.1516 7.88034 17.1447 7.88034 17.1396 7.8767C17.1344 7.87309 17.132 7.86661 17.1337 7.8605L17.1706 7.75551L17.0806 7.6892C17.0757 7.68526 17.0737 7.67867 17.0757 7.6727C17.0778 7.66675 17.0833 7.66265 17.0896 7.66251H17.2006L17.2363 7.55691C17.2366 7.54189 17.2564 7.54189 17.2606 7.55631ZM18.1114 7.55631L18.1471 7.6619H18.2578C18.2641 7.66206 18.2696 7.66613 18.2716 7.6721C18.2736 7.67808 18.2717 7.68467 18.2668 7.68861L18.1768 7.75491L18.2107 7.8605C18.2128 7.86668 18.2105 7.8735 18.2052 7.87725C18.1999 7.881 18.1927 7.88078 18.1876 7.8767L18.0976 7.8122L18.0076 7.8767C18.0024 7.88034 17.9955 7.88034 17.9904 7.8767C17.9852 7.87307 17.9828 7.86659 17.9845 7.8605L18.0214 7.75551L17.9314 7.6892C17.9265 7.68526 17.9245 7.67867 17.9265 7.6727C17.9286 7.66675 17.9341 7.66265 17.9404 7.66251H18.0514L18.0871 7.55691C18.0874 7.54189 18.1072 7.54189 18.1114 7.55631ZM16.8355 7.27731L16.8712 7.38291H16.9819C16.9882 7.38307 16.9937 7.38715 16.9957 7.3931C16.9977 7.39907 16.9958 7.40566 16.9909 7.4096L16.9009 7.47591L16.9348 7.58151C16.9369 7.58769 16.9347 7.59451 16.9293 7.59824C16.924 7.602 16.9168 7.60177 16.9117 7.59769L16.8217 7.5332L16.7317 7.59769C16.7265 7.60133 16.7196 7.60133 16.7144 7.59772C16.7093 7.59408 16.7069 7.5876 16.7086 7.58151L16.7425 7.47591L16.6525 7.4096C16.6476 7.40566 16.6456 7.39907 16.6476 7.3931C16.6497 7.38715 16.6552 7.38307 16.6615 7.38291H16.7755L16.8112 7.27731C16.8133 7.26291 16.8313 7.26291 16.8355 7.27731ZM19.3786 7.26536C19.3829 7.26781 19.3855 7.27236 19.3855 7.27731L19.4212 7.38291H19.5319C19.5382 7.38307 19.5437 7.38715 19.5457 7.3931C19.5477 7.39907 19.5458 7.40566 19.5409 7.4096L19.4509 7.47591L19.4848 7.58151C19.4869 7.58769 19.4847 7.5945 19.4793 7.59824C19.474 7.602 19.4668 7.60177 19.4617 7.59769L19.3717 7.5332L19.2817 7.59769C19.2765 7.60133 19.2696 7.60133 19.2645 7.59772C19.2593 7.59408 19.2569 7.5876 19.2586 7.58151L19.2925 7.47591L19.2025 7.4096C19.1976 7.40566 19.1956 7.39907 19.1977 7.3931C19.1997 7.38715 19.2052 7.38307 19.2115 7.38291H19.3222L19.3579 7.27731C19.3579 7.27236 19.3605 7.26781 19.3648 7.26536C19.369 7.26289 19.3743 7.26289 19.3786 7.26536ZM18.5368 7.27731L18.5725 7.38291H18.6832C18.6895 7.38307 18.695 7.38715 18.697 7.3931C18.699 7.39907 18.6971 7.40566 18.6922 7.4096L18.6022 7.47591L18.6361 7.58151C18.6382 7.58769 18.6359 7.59451 18.6306 7.59824C18.6253 7.602 18.6181 7.60177 18.613 7.59769L18.523 7.5332L18.433 7.59769C18.4278 7.60133 18.4209 7.60133 18.4158 7.59772C18.4106 7.59408 18.4082 7.5876 18.4099 7.58151L18.4438 7.47591L18.3538 7.4096C18.3489 7.40566 18.347 7.39907 18.349 7.3931C18.351 7.38713 18.3565 7.38307 18.3628 7.38291H18.4735L18.5092 7.27731C18.5128 7.26291 18.5326 7.26291 18.5368 7.27731ZM17.686 7.27731L17.7217 7.38291H17.8324C17.8387 7.38307 17.8442 7.38715 17.8462 7.3931C17.8482 7.39907 17.8463 7.40566 17.8414 7.4096L17.7514 7.47591L17.7853 7.58151C17.7874 7.58769 17.7851 7.59451 17.7798 7.59824C17.7745 7.602 17.7673 7.60177 17.7622 7.59769L17.6722 7.5332L17.5822 7.59769C17.577 7.60133 17.5701 7.60135 17.565 7.59772C17.5598 7.59409 17.5574 7.58761 17.5591 7.58151L17.593 7.47591L17.503 7.4096C17.4981 7.40566 17.4962 7.39907 17.4982 7.3931C17.5002 7.38715 17.5057 7.38307 17.512 7.38291H17.626L17.6617 7.27731C17.662 7.26291 17.6818 7.26291 17.686 7.27731ZM17.2606 7.007L17.2963 7.1126H17.407C17.4133 7.11276 17.4188 7.11684 17.4208 7.12281C17.4228 7.12878 17.4209 7.13535 17.416 7.13931L17.326 7.2056L17.3599 7.3112C17.362 7.31738 17.3597 7.3242 17.3544 7.32796C17.349 7.3317 17.3419 7.33148 17.3368 7.32741L17.2468 7.26291L17.1568 7.32741C17.1516 7.33102 17.1447 7.33105 17.1396 7.32741C17.1344 7.32379 17.132 7.31729 17.1337 7.3112L17.1676 7.2056L17.0776 7.13931C17.0727 7.13535 17.0708 7.12878 17.0728 7.12281C17.0748 7.11684 17.0803 7.11276 17.0866 7.1126H17.2006L17.2363 7.007C17.2366 6.99471 17.2564 6.99471 17.2606 7.007ZM19.8109 7.007L19.8466 7.1126H19.9573C19.9636 7.11276 19.9691 7.11684 19.9711 7.12281C19.9731 7.12878 19.9712 7.13535 19.9663 7.13931L19.8763 7.2056L19.9102 7.3112C19.9123 7.31738 19.9101 7.32421 19.9047 7.32796C19.8994 7.33171 19.8922 7.33148 19.8871 7.32741L19.7971 7.26291L19.7071 7.32741C19.7019 7.33102 19.695 7.33105 19.6898 7.32741C19.6847 7.32379 19.6823 7.31729 19.684 7.3112L19.7179 7.2056L19.6279 7.13931C19.623 7.13535 19.621 7.12878 19.6231 7.12281C19.6251 7.11684 19.6306 7.11276 19.6369 7.1126H19.7476L19.7833 7.007C19.7887 6.99471 19.8085 6.99471 19.8109 7.007ZM16.4101 7.007L16.4458 7.1126H16.5565C16.5628 7.11276 16.5683 7.11684 16.5703 7.12281C16.5723 7.12878 16.5704 7.13535 16.5655 7.13931L16.4755 7.2056L16.5094 7.3112C16.5115 7.31738 16.5093 7.3242 16.5039 7.32796C16.4986 7.33171 16.4914 7.33148 16.4863 7.32741L16.3963 7.26291L16.3063 7.32741C16.3011 7.33102 16.2942 7.33105 16.289 7.32741C16.2839 7.32379 16.2815 7.31729 16.2832 7.3112L16.3171 7.2056L16.2271 7.13931C16.2222 7.13535 16.2202 7.12878 16.2222 7.12281C16.2243 7.11684 16.2298 7.11276 16.2361 7.1126H16.3501L16.3858 7.007C16.3879 6.99471 16.4059 6.99471 16.4101 7.007ZM18.9601 7.007L18.9958 7.1126H19.1065C19.1128 7.11276 19.1183 7.11684 19.1203 7.12281C19.1223 7.12878 19.1204 7.13535 19.1155 7.13931L19.0255 7.2056L19.0594 7.3112C19.0615 7.31738 19.0592 7.3242 19.0539 7.32796C19.0486 7.33171 19.0414 7.33148 19.0363 7.32741L18.9463 7.26291L18.8563 7.32741C18.8511 7.33102 18.8442 7.33105 18.8391 7.32741C18.8339 7.32379 18.8315 7.31729 18.8332 7.3112L18.8671 7.2056L18.7771 7.13931C18.7722 7.13535 18.7702 7.12878 18.7723 7.12281C18.7743 7.11684 18.7798 7.11276 18.7861 7.1126H18.8968L18.9325 7.007C18.9379 6.9947 18.9577 6.9947 18.9601 7.007ZM18.1114 7.007L18.1471 7.1126H18.2578C18.2641 7.11276 18.2696 7.11684 18.2716 7.12281C18.2736 7.12878 18.2717 7.13535 18.2668 7.13931L18.1768 7.2056L18.2107 7.3112C18.2128 7.31738 18.2105 7.3242 18.2052 7.32796C18.1999 7.33171 18.1927 7.33148 18.1876 7.32741L18.0976 7.26291L18.0076 7.32741C18.0024 7.33102 17.9955 7.33105 17.9904 7.32741C17.9852 7.32379 17.9828 7.31729 17.9845 7.3112L18.0184 7.2056L17.9284 7.13931C17.9235 7.13535 17.9216 7.12878 17.9236 7.12281C17.9256 7.11684 17.9311 7.11276 17.9374 7.1126H18.0514L18.0871 7.007C18.0874 6.99471 18.1072 6.99471 18.1114 7.007ZM16.8355 6.72831L16.8712 6.83389H16.9819C16.9882 6.83405 16.9937 6.83813 16.9957 6.8441C16.9977 6.85007 16.9958 6.85667 16.9909 6.8606L16.9009 6.92691L16.9348 7.03249C16.9369 7.03867 16.9347 7.04552 16.9293 7.04925C16.924 7.053 16.9168 7.05277 16.9117 7.0487L16.8217 6.9842L16.7317 7.0487C16.7265 7.05234 16.7196 7.05234 16.7144 7.0487C16.7093 7.04508 16.7069 7.0386 16.7086 7.03249L16.7455 6.92751L16.6555 6.8612C16.6506 6.85726 16.6487 6.85067 16.6507 6.8447C16.6527 6.83875 16.6582 6.83467 16.6645 6.83451H16.7755L16.8112 6.7289C16.8133 6.71391 16.8313 6.71391 16.8355 6.72831ZM19.3717 6.71451C19.3793 6.71451 19.3855 6.72069 19.3855 6.72831L19.4212 6.83389H19.5319C19.5382 6.83405 19.5437 6.83813 19.5457 6.8441C19.5477 6.85007 19.5458 6.85667 19.5409 6.8606L19.4509 6.92691L19.4848 7.03249C19.4869 7.03867 19.4846 7.04552 19.4793 7.04925C19.474 7.053 19.4668 7.05277 19.4617 7.0487L19.3717 6.9842L19.2817 7.0487C19.2765 7.05233 19.2696 7.05233 19.2645 7.0487C19.2593 7.04508 19.2569 7.0386 19.2586 7.03249L19.2925 6.92691L19.2025 6.8606C19.1976 6.85667 19.1956 6.85007 19.1977 6.8441C19.1997 6.83813 19.2052 6.83405 19.2115 6.83389H19.3222L19.3579 6.72831C19.3579 6.72069 19.3641 6.71451 19.3717 6.71451ZM18.5368 6.72831L18.5725 6.83389H18.6832C18.6895 6.83405 18.695 6.83813 18.697 6.8441C18.699 6.85007 18.6971 6.85667 18.6922 6.8606L18.6022 6.92691L18.6361 7.03249C18.6382 7.03867 18.6359 7.04552 18.6306 7.04925C18.6253 7.053 18.6181 7.05277 18.613 7.0487L18.523 6.9842L18.433 7.0487C18.4278 7.05234 18.4209 7.05234 18.4158 7.0487C18.4106 7.04507 18.4082 7.03859 18.4099 7.03249L18.4438 6.92691L18.3538 6.8606C18.3489 6.85667 18.347 6.85007 18.349 6.8441C18.351 6.83813 18.3565 6.83405 18.3628 6.83389H18.4735L18.5092 6.72831C18.5128 6.71391 18.5326 6.71391 18.5368 6.72831ZM17.686 6.72831L17.7217 6.83389H17.8324C17.8387 6.83405 17.8442 6.83813 17.8462 6.8441C17.8482 6.85007 17.8463 6.85667 17.8414 6.8606L17.7514 6.92691L17.7853 7.03249C17.7874 7.03867 17.7851 7.04552 17.7798 7.04925C17.7745 7.053 17.7673 7.05277 17.7622 7.0487L17.6722 6.9842L17.5822 7.0487C17.577 7.05234 17.5701 7.05234 17.565 7.0487C17.5598 7.04508 17.5574 7.0386 17.5591 7.03249L17.596 6.92751L17.506 6.8612C17.5011 6.85726 17.4991 6.85066 17.5011 6.8447C17.5032 6.83875 17.5087 6.83467 17.515 6.83451H17.626L17.6617 6.7289C17.662 6.71391 17.6818 6.71391 17.686 6.72831ZM17.2606 6.45981L17.2963 6.56539H17.407C17.4133 6.56555 17.4188 6.56963 17.4208 6.5756C17.4228 6.58157 17.4209 6.58816 17.416 6.5921L17.326 6.65841L17.3599 6.76399C17.362 6.7702 17.3597 6.77702 17.3544 6.78075C17.3491 6.7845 17.3419 6.78427 17.3368 6.7802L17.2468 6.7157L17.1568 6.7802C17.1516 6.78384 17.1447 6.78384 17.1396 6.78022C17.1344 6.77658 17.132 6.7701 17.1337 6.76399L17.1706 6.659L17.0806 6.5927C17.0757 6.58876 17.0737 6.58217 17.0757 6.57622C17.0778 6.57025 17.0833 6.56617 17.0896 6.56601H17.2006L17.2363 6.4604C17.2366 6.44541 17.2564 6.44541 17.2606 6.45981ZM19.7983 6.45022C19.8043 6.45007 19.8095 6.45407 19.8109 6.45981L19.8466 6.56539H19.9573C19.9636 6.56555 19.9691 6.56965 19.9711 6.5756C19.9731 6.58157 19.9712 6.58817 19.9663 6.5921L19.8763 6.65841L19.9102 6.76399C19.9123 6.77017 19.9101 6.777 19.9047 6.78075C19.8994 6.78449 19.8922 6.78427 19.8871 6.7802L19.7971 6.7157L19.7071 6.7802C19.7019 6.78384 19.695 6.78384 19.6898 6.78022C19.6847 6.77658 19.6823 6.7701 19.684 6.76399L19.7209 6.659L19.6309 6.5927C19.626 6.58876 19.624 6.58217 19.626 6.57622C19.6281 6.57024 19.6336 6.56617 19.6399 6.56601H19.7506L19.7863 6.4604C19.7874 6.45459 19.7924 6.45036 19.7983 6.45022ZM18.9463 6.44601C18.9539 6.44601 18.9601 6.45219 18.9601 6.45981L18.9958 6.56539H19.1065C19.1128 6.56555 19.1183 6.56965 19.1203 6.5756C19.1223 6.58157 19.1204 6.58817 19.1155 6.5921L19.0255 6.65841L19.0594 6.76399C19.0615 6.7702 19.0592 6.77702 19.0539 6.78075C19.0486 6.78449 19.0414 6.78427 19.0363 6.7802L18.9463 6.7157L18.8563 6.7802C18.8511 6.78384 18.8442 6.78384 18.8391 6.78022C18.8339 6.77658 18.8315 6.7701 18.8332 6.76399L18.8671 6.65841L18.7771 6.5921C18.7722 6.58817 18.7702 6.58157 18.7723 6.5756C18.7743 6.56965 18.7798 6.56555 18.7861 6.56539H18.8968L18.9325 6.45981C18.9325 6.45219 18.9387 6.44601 18.9463 6.44601ZM16.4101 6.45981L16.4458 6.56539H16.5565C16.5628 6.56555 16.5683 6.56965 16.5703 6.5756C16.5723 6.58157 16.5704 6.58817 16.5655 6.5921L16.4755 6.65841L16.5094 6.76399C16.5115 6.7702 16.5093 6.77702 16.5039 6.78075C16.4986 6.7845 16.4914 6.78427 16.4863 6.7802L16.3963 6.7157L16.3063 6.7802C16.3011 6.78383 16.2942 6.78385 16.289 6.78022C16.2839 6.77658 16.2815 6.7701 16.2832 6.76399L16.3201 6.659L16.2301 6.5927C16.2252 6.58876 16.2233 6.58217 16.2253 6.57622C16.2273 6.57024 16.2328 6.56617 16.2391 6.56601H16.3501L16.3858 6.4604C16.3879 6.44541 16.4059 6.44541 16.4101 6.45981ZM18.1114 6.45981L18.1471 6.56539H18.2578C18.2641 6.56555 18.2696 6.56965 18.2716 6.5756C18.2736 6.58157 18.2717 6.58817 18.2668 6.5921L18.1768 6.65841L18.2107 6.76399C18.2128 6.7702 18.2105 6.77702 18.2052 6.78075C18.1999 6.7845 18.1927 6.78427 18.1876 6.7802L18.0976 6.7157L18.0076 6.7802C18.0024 6.78383 17.9955 6.78385 17.9904 6.78022C17.9852 6.77658 17.9828 6.7701 17.9845 6.76399L18.0184 6.65841L17.9284 6.5921C17.9235 6.58816 17.9216 6.58157 17.9236 6.5756C17.9256 6.56965 17.9311 6.56555 17.9374 6.56539H18.0514L18.0871 6.45981C18.0874 6.44541 18.1072 6.44541 18.1114 6.45981ZM16.8355 6.1787L16.8712 6.2843H16.9819C16.9882 6.28446 16.9937 6.28854 16.9957 6.29451C16.9977 6.30048 16.9958 6.30705 16.9909 6.31101L16.9009 6.3773L16.9348 6.4829C16.9369 6.48908 16.9347 6.4959 16.9293 6.49966C16.924 6.50341 16.9168 6.50318 16.9117 6.49911L16.8217 6.43461L16.7317 6.49911C16.7265 6.50272 16.7196 6.50275 16.7144 6.49911C16.7093 6.49549 16.7069 6.48899 16.7086 6.4829L16.7425 6.3773L16.6525 6.31101C16.6476 6.30705 16.6456 6.30048 16.6476 6.29451C16.6497 6.28854 16.6552 6.28446 16.6615 6.2843H16.7755L16.8112 6.1787C16.8133 6.1664 16.8313 6.1664 16.8355 6.1787ZM18.5368 6.1787L18.5725 6.2843H18.6832C18.6895 6.28446 18.695 6.28854 18.697 6.29451C18.699 6.30048 18.6971 6.30707 18.6922 6.31101L18.6022 6.3773L18.6361 6.4829C18.6382 6.48908 18.6359 6.4959 18.6306 6.49966C18.6252 6.5034 18.6181 6.50318 18.613 6.49911L18.523 6.43461L18.433 6.49911C18.4278 6.50272 18.4209 6.50275 18.4158 6.49911C18.4106 6.49549 18.4082 6.48899 18.4099 6.4829L18.4438 6.3773L18.3538 6.31101C18.3489 6.30707 18.347 6.30048 18.349 6.29451C18.351 6.28854 18.3565 6.28446 18.3628 6.2843H18.4735L18.5092 6.1787C18.5128 6.1664 18.5326 6.1664 18.5368 6.1787ZM17.686 6.1787L17.7217 6.2843H17.8324C17.8387 6.28446 17.8442 6.28854 17.8462 6.29451C17.8482 6.30048 17.8463 6.30705 17.8414 6.31101L17.7514 6.3773L17.7853 6.4829C17.7874 6.48908 17.7851 6.4959 17.7798 6.49966C17.7745 6.50341 17.7673 6.50318 17.7622 6.49911L17.6722 6.43461L17.5822 6.49911C17.577 6.50272 17.5701 6.50275 17.565 6.49911C17.5598 6.49549 17.5574 6.48899 17.5591 6.4829L17.593 6.3773L17.503 6.31101C17.4981 6.30705 17.4962 6.30048 17.4982 6.29451C17.5002 6.28854 17.5057 6.28446 17.512 6.2843H17.626L17.6617 6.1787C17.662 6.1664 17.6818 6.1664 17.686 6.1787ZM19.3855 6.1787L19.4212 6.2843H19.5319C19.5382 6.28446 19.5437 6.28854 19.5457 6.29451C19.5477 6.30048 19.5458 6.30705 19.5409 6.31101L19.4509 6.3773L19.4848 6.4829C19.4869 6.48908 19.4846 6.4959 19.4793 6.49966C19.474 6.5034 19.4668 6.50318 19.4617 6.49911L19.3717 6.43461L19.2817 6.49911C19.2765 6.50272 19.2696 6.50275 19.2645 6.49911C19.2593 6.49549 19.2569 6.48899 19.2586 6.4829L19.2925 6.3773L19.2025 6.31101C19.1976 6.30705 19.1956 6.30048 19.1977 6.29451C19.1997 6.28854 19.2052 6.28446 19.2115 6.2843H19.3222L19.3579 6.1787C19.3633 6.1664 19.3831 6.1664 19.3855 6.1787ZM18.1114 5.91049L18.1471 6.0161H18.2578C18.2641 6.01626 18.2696 6.02033 18.2716 6.02631C18.2736 6.03228 18.2717 6.03887 18.2668 6.04281L18.1768 6.10909L18.2107 6.2147C18.2128 6.22088 18.2105 6.2277 18.2052 6.23145C18.1999 6.23521 18.1927 6.23498 18.1876 6.2309L18.0976 6.1664L18.0076 6.2309C18.0024 6.23454 17.9955 6.23453 17.9904 6.2309C17.9852 6.22728 17.9828 6.2208 17.9845 6.2147L18.0184 6.10909L17.9284 6.04281C17.9235 6.03887 17.9216 6.03228 17.9236 6.02631C17.9256 6.02033 17.9311 6.01626 17.9374 6.0161H18.0514L18.0871 5.91049C18.0874 5.8982 18.1072 5.8982 18.1114 5.91049ZM16.4101 5.91049L16.4458 6.0161H16.5565C16.5628 6.01626 16.5683 6.02033 16.5703 6.02631C16.5723 6.03228 16.5704 6.03887 16.5655 6.04281L16.4755 6.10909L16.5094 6.2147C16.5115 6.22088 16.5093 6.2277 16.5039 6.23145C16.4986 6.23521 16.4914 6.23498 16.4863 6.2309L16.3963 6.1664L16.3063 6.2309C16.3011 6.23454 16.2942 6.23454 16.289 6.2309C16.2839 6.22729 16.2815 6.22081 16.2832 6.2147L16.3171 6.10909L16.2271 6.04281C16.2222 6.03887 16.2202 6.03228 16.2222 6.02631C16.2243 6.02033 16.2298 6.01626 16.2361 6.0161H16.3501L16.3858 5.91049C16.3879 5.8982 16.4059 5.8982 16.4101 5.91049ZM17.2618 5.91049L17.2975 6.0161H17.4088C17.4151 6.01626 17.4206 6.02033 17.4226 6.02631C17.4246 6.03227 17.4227 6.03887 17.4178 6.04281L17.3278 6.10909L17.3617 6.2147C17.3638 6.22088 17.3615 6.2277 17.3562 6.23145C17.3509 6.23521 17.3437 6.23498 17.3386 6.2309L17.2486 6.1664L17.1586 6.2309C17.1534 6.23454 17.1465 6.23454 17.1413 6.2309C17.1362 6.22729 17.1338 6.22081 17.1355 6.2147L17.1694 6.10909L17.0794 6.04281C17.0745 6.03887 17.0725 6.03227 17.0746 6.02631C17.0766 6.02033 17.0821 6.01626 17.0884 6.0161H17.1988L17.2345 5.91049C17.2366 5.8982 17.2564 5.8982 17.2618 5.91049ZM18.9601 5.91049L18.9958 6.0161H19.1065C19.1128 6.01626 19.1183 6.02034 19.1203 6.02631C19.1223 6.03228 19.1204 6.03887 19.1155 6.04281L19.0255 6.10909L19.0594 6.2147C19.0615 6.22088 19.0592 6.2277 19.0539 6.23145C19.0486 6.23521 19.0414 6.23498 19.0363 6.2309L18.9463 6.1664L18.8563 6.2309C18.8511 6.23454 18.8442 6.23454 18.8391 6.2309C18.8339 6.22728 18.8315 6.2208 18.8332 6.2147L18.8671 6.10909L18.7771 6.04281C18.7722 6.03887 18.7702 6.03228 18.7723 6.02631C18.7743 6.02033 18.7798 6.01626 18.7861 6.0161H18.8968L18.9325 5.91049C18.9379 5.8982 18.9577 5.8982 18.9601 5.91049ZM19.8109 5.91049L19.8466 6.0161H19.9573C19.9636 6.01626 19.9691 6.02033 19.9711 6.02631C19.9731 6.03228 19.9712 6.03887 19.9663 6.04281L19.8763 6.10909L19.9102 6.2147C19.9123 6.22088 19.91 6.2277 19.9047 6.23145C19.8994 6.2352 19.8922 6.23498 19.8871 6.2309L19.7971 6.1664L19.7071 6.2309C19.7019 6.23454 19.695 6.23454 19.6898 6.2309C19.6847 6.22729 19.6823 6.22081 19.684 6.2147L19.7179 6.10909L19.6279 6.04281C19.623 6.03887 19.621 6.03228 19.6231 6.02631C19.6251 6.02033 19.6306 6.01626 19.6369 6.0161H19.7476L19.7833 5.91049C19.7887 5.8982 19.8085 5.8982 19.8109 5.91049ZM18.5368 5.63151L18.5725 5.73711H18.6832C18.6895 5.73727 18.695 5.74133 18.697 5.7473C18.699 5.75327 18.6971 5.75986 18.6922 5.7638L18.6022 5.83011L18.6361 5.93569C18.6382 5.94189 18.6359 5.94872 18.6306 5.95245C18.6253 5.9562 18.6181 5.95597 18.613 5.9519L18.523 5.8874L18.433 5.9519C18.4278 5.95554 18.4209 5.95554 18.4158 5.95192C18.4106 5.94829 18.4082 5.94179 18.4099 5.93569L18.4438 5.83011L18.3538 5.7638C18.3489 5.75986 18.347 5.75327 18.349 5.7473C18.351 5.74135 18.3565 5.73725 18.3628 5.73711H18.4735L18.5092 5.63151C18.5128 5.61711 18.5326 5.61711 18.5368 5.63151ZM17.686 5.63151L17.7217 5.73711H17.8324C17.8387 5.73725 17.8442 5.74135 17.8462 5.7473C17.8482 5.75327 17.8463 5.75986 17.8414 5.7638L17.7514 5.83011L17.7853 5.93569C17.7874 5.94189 17.7851 5.94872 17.7798 5.95245C17.7745 5.9562 17.7673 5.95597 17.7622 5.9519L17.6722 5.8874L17.5822 5.9519C17.577 5.95553 17.5701 5.95555 17.565 5.95192C17.5598 5.94828 17.5574 5.9418 17.5591 5.93569L17.596 5.8307L17.506 5.7644C17.5011 5.76046 17.4991 5.75387 17.5011 5.74792C17.5032 5.74194 17.5087 5.73787 17.515 5.73771H17.626L17.6617 5.6321C17.662 5.6171 17.6818 5.61711 17.686 5.63151ZM16.8355 5.63151L16.8712 5.73711H16.9819C16.9882 5.73725 16.9937 5.74135 16.9957 5.7473C16.9977 5.75327 16.9958 5.75986 16.9909 5.7638L16.9009 5.83011L16.9348 5.93569C16.9369 5.94189 16.9347 5.94872 16.9293 5.95245C16.924 5.9562 16.9168 5.95597 16.9117 5.9519L16.8217 5.8874L16.7317 5.9519C16.7265 5.95554 16.7196 5.95554 16.7144 5.95192C16.7093 5.94828 16.7069 5.9418 16.7086 5.93569L16.7455 5.8307L16.6555 5.7644C16.6506 5.76046 16.6487 5.75387 16.6507 5.74792C16.6527 5.74194 16.6582 5.73787 16.6645 5.73771H16.7755L16.8112 5.6321C16.8133 5.61711 16.8313 5.61711 16.8355 5.63151ZM19.3786 5.61956C19.3829 5.62201 19.3855 5.62656 19.3855 5.63151L19.4212 5.73711H19.5319C19.5382 5.73725 19.5437 5.74135 19.5457 5.7473C19.5477 5.75327 19.5458 5.75986 19.5409 5.7638L19.4509 5.83011L19.4848 5.93569C19.4869 5.94189 19.4846 5.94872 19.4793 5.95245C19.474 5.95619 19.4668 5.95597 19.4617 5.9519L19.3717 5.8874L19.2817 5.9519C19.2765 5.95554 19.2696 5.95554 19.2645 5.95192C19.2593 5.94828 19.2569 5.9418 19.2586 5.93569L19.2925 5.83011L19.2025 5.7638C19.1976 5.75986 19.1956 5.75327 19.1977 5.7473C19.1997 5.74135 19.2052 5.73725 19.2115 5.73711H19.3222L19.3579 5.63151C19.3579 5.62656 19.3605 5.62201 19.3648 5.61956C19.369 5.61709 19.3743 5.61709 19.3786 5.61956ZM16.4101 5.3633L16.4458 5.46891H16.5565C16.5628 5.46907 16.5683 5.47314 16.5703 5.4791C16.5723 5.48507 16.5704 5.49166 16.5655 5.4956L16.4755 5.5619L16.5094 5.66751C16.5115 5.67369 16.5093 5.68051 16.5039 5.68427C16.4986 5.688 16.4914 5.68777 16.4863 5.68369L16.3963 5.61919L16.3063 5.68369C16.3011 5.68733 16.2942 5.68733 16.289 5.68372C16.2839 5.68008 16.2815 5.6736 16.2832 5.66751L16.3201 5.5625L16.2301 5.49619C16.2252 5.49226 16.2233 5.48566 16.2253 5.47971C16.2273 5.47374 16.2328 5.46967 16.2391 5.46951H16.3501L16.3858 5.3639C16.3879 5.34891 16.4059 5.34891 16.4101 5.3633ZM17.2606 5.3633L17.2963 5.46891H17.407C17.4133 5.46907 17.4188 5.47314 17.4208 5.4791C17.4228 5.48506 17.4209 5.49166 17.416 5.4956L17.326 5.5619L17.3599 5.66751C17.362 5.67369 17.3597 5.68051 17.3544 5.68427C17.3491 5.688 17.3419 5.68777 17.3368 5.68369L17.2468 5.61919L17.1568 5.68369C17.1516 5.68733 17.1447 5.68734 17.1396 5.68372C17.1344 5.68008 17.132 5.6736 17.1337 5.66751L17.1706 5.5625L17.0806 5.49619C17.0757 5.49226 17.0737 5.48566 17.0757 5.47971C17.0778 5.47374 17.0833 5.46967 17.0896 5.46951H17.2006L17.2363 5.3639C17.2366 5.3489 17.2564 5.3489 17.2606 5.3633ZM18.1114 5.3633L18.1471 5.46891H18.2578C18.2641 5.46907 18.2696 5.47314 18.2716 5.4791C18.2736 5.48507 18.2717 5.49166 18.2668 5.4956L18.1768 5.5619L18.2107 5.66751C18.2128 5.67369 18.2105 5.68051 18.2052 5.68427C18.1999 5.688 18.1927 5.68777 18.1876 5.68369L18.0976 5.61919L18.0076 5.68369C18.0024 5.68733 17.9955 5.68734 17.9904 5.68372C17.9852 5.68009 17.9828 5.67361 17.9845 5.66751L18.0184 5.5619L17.9284 5.4956C17.9235 5.49166 17.9216 5.48507 17.9236 5.4791C17.9256 5.47314 17.9311 5.46907 17.9374 5.46891H18.0514L18.0871 5.3633C18.0874 5.34891 18.1072 5.34891 18.1114 5.3633ZM18.9532 5.35136C18.9575 5.35381 18.9601 5.35838 18.9601 5.3633L18.9958 5.46891H19.1065C19.1128 5.46907 19.1183 5.47314 19.1203 5.4791C19.1223 5.48507 19.1204 5.49166 19.1155 5.4956L19.0255 5.5619L19.0594 5.66751C19.0615 5.67369 19.0592 5.68051 19.0539 5.68427C19.0486 5.68801 19.0414 5.68777 19.0363 5.68369L18.9463 5.61919L18.8563 5.68369C18.8511 5.68733 18.8442 5.68733 18.8391 5.68372C18.8339 5.68008 18.8315 5.6736 18.8332 5.66751L18.8671 5.5619L18.7771 5.4956C18.7722 5.49166 18.7702 5.48507 18.7723 5.4791C18.7743 5.47314 18.7798 5.46907 18.7861 5.46891H18.8968L18.9325 5.3633C18.9325 5.35838 18.9351 5.35381 18.9394 5.35136C18.9437 5.34889 18.9489 5.34889 18.9532 5.35136ZM19.7983 5.35371C19.8042 5.35358 19.8095 5.35756 19.8109 5.3633L19.8466 5.46891H19.9573C19.9636 5.46907 19.9691 5.47314 19.9711 5.4791C19.9731 5.48507 19.9712 5.49166 19.9663 5.4956L19.8763 5.5619L19.9102 5.66751C19.9123 5.67369 19.91 5.68051 19.9047 5.68427C19.8994 5.68801 19.8922 5.68777 19.8871 5.68369L19.7971 5.61919L19.7071 5.68369C19.7019 5.68733 19.695 5.68733 19.6898 5.68372C19.6847 5.68008 19.6823 5.6736 19.684 5.66751L19.7209 5.5625L19.6309 5.49619C19.626 5.49226 19.624 5.48566 19.626 5.47971C19.628 5.47375 19.6336 5.46967 19.6399 5.46951H19.7506L19.7863 5.3639C19.7874 5.35811 19.7924 5.35387 19.7983 5.35371Z" fill="#F5F5F5"/>
<path fill-rule="evenodd" clip-rule="evenodd" d="M24.25 5.375H16.75C16.5429 5.375 16.375 5.54289 16.375 5.75V10.25C16.375 10.4571 16.5429 10.625 16.75 10.625H24.25C24.4571 10.625 24.625 10.4571 24.625 10.25V5.75C24.625 5.54289 24.4571 5.375 24.25 5.375ZM16.75 5C16.3358 5 16 5.33579 16 5.75V10.25C16 10.6642 16.3358 11 16.75 11H24.25C24.6642 11 25 10.6642 25 10.25V5.75C25 5.33579 24.6642 5 24.25 5H16.75Z" fill="black" fill-opacity="0.08"/>
</g>
<rect x="15.75" y="4.75" width="9.5" height="6.5" rx="1.25" stroke="#282C38" stroke-width="0.5"/>
</g>
<defs>
<clipPath id="clip0_513_9204">
<rect width="32" height="32" fill="white"/>
</clipPath>
<clipPath id="clip1_513_9204">
<rect x="16" y="5" width="9" height="6" rx="1" fill="white"/>
</clipPath>
</defs>
</svg>
