<svg width="32" height="32" viewBox="0 0 32 32" fill="none" xmlns="http://www.w3.org/2000/svg">
<path d="M0 12.568V13.792H24V12.568H0Z" fill="white"/>
<path d="M11.5 11.344H24V10.12H11.5V11.344Z" fill="white"/>
<path d="M11.5 8.896H24V7.672H11.5V8.896Z" fill="white"/>
<path d="M11.5 6.448H24V6C24 5.72479 23.9445 5.46259 23.8439 5.224H11.5V6.448Z" fill="white"/>
<path d="M24 15.016H0V16.24H24V15.016Z" fill="white"/>
<path d="M0 17.464H24V18C24 18.2418 23.9572 18.4734 23.8785 18.688H0.12146C0.0428467 18.4734 0 18.2418 0 18V17.464Z" fill="white"/>
<path d="M22 4H11.5V5.224H23.8439C23.5409 4.50482 22.8295 4 22 4Z" fill="#F44336"/>
<path d="M11.5 12.568H24V11.344H11.5V12.568Z" fill="#F44336"/>
<path d="M11.5 10.12H24V8.896H11.5V10.12Z" fill="#F44336"/>
<path d="M11.5 7.672H24V6.448H11.5V7.672Z" fill="#F44336"/>
<path d="M0 13.792H24V15.016H0V13.792Z" fill="#F44336"/>
<path d="M24 16.24H0V17.464H24V16.24Z" fill="#F44336"/>
<path d="M0.12146 18.688H23.8785C23.598 19.4536 22.8629 20 22 20H2C1.13708 20 0.401978 19.4536 0.12146 18.688Z" fill="#F44336"/>
<path fill-rule="evenodd" clip-rule="evenodd" d="M11.5 4H2C0.895386 4 0 4.89545 0 6V12.568H11.5V4ZM1.18872 11.0984L1.09351 10.8168C1.0824 10.7784 1.03442 10.7784 1.02881 10.8184L0.933594 11.1H0.637573C0.620728 11.1004 0.606079 11.1113 0.600708 11.1272C0.595337 11.1431 0.600464 11.1607 0.613525 11.1712L0.853516 11.348L0.755127 11.628C0.752075 11.6393 0.75415 11.6512 0.760498 11.6606C0.763184 11.6647 0.766602 11.6683 0.770752 11.6712C0.784546 11.6809 0.802979 11.6809 0.816772 11.6712L1.05676 11.4992L1.29675 11.6712C1.3103 11.6821 1.32947 11.6827 1.34375 11.6727C1.35803 11.6627 1.36389 11.6445 1.3584 11.628L1.26794 11.3464L1.50793 11.1696C1.51416 11.1647 1.51855 11.1581 1.52087 11.1509C1.52356 11.1428 1.52368 11.134 1.52087 11.1256C1.5155 11.1097 1.50073 11.0988 1.48401 11.0984H1.18872ZM10.1624 10.8168C10.1586 10.8015 10.1447 10.7909 10.1289 10.7913C10.1132 10.7916 10.0997 10.8029 10.0968 10.8184L10.0016 11.1H9.70642C9.68958 11.1004 9.6748 11.1113 9.66943 11.1272C9.66663 11.1356 9.66675 11.1443 9.66931 11.1523C9.67175 11.1596 9.67615 11.1662 9.68237 11.1712L9.92236 11.348L9.82397 11.628C9.81958 11.6443 9.82581 11.6616 9.8396 11.6712C9.85339 11.6809 9.87183 11.6809 9.88562 11.6712L10.1256 11.4992L10.3656 11.6712C10.3792 11.6821 10.3983 11.6827 10.4126 11.6727C10.4268 11.6627 10.4327 11.6445 10.4271 11.628L10.3368 11.3464L10.5768 11.1696C10.5846 11.1633 10.5896 11.1545 10.5912 11.145C10.5923 11.1386 10.5918 11.132 10.5896 11.1256C10.5842 11.1097 10.5696 11.0988 10.5527 11.0984H10.2576L10.1624 10.8168ZM7.89355 10.8168C7.88977 10.8015 7.87585 10.7909 7.86011 10.7913C7.84436 10.7916 7.83093 10.8029 7.828 10.8184L7.73279 11.1H7.43762C7.42078 11.1004 7.40601 11.1113 7.40063 11.1272C7.39526 11.1431 7.40051 11.1607 7.41357 11.1712L7.65356 11.348L7.55518 11.628C7.55078 11.6443 7.55701 11.6616 7.5708 11.6712C7.58459 11.6809 7.60303 11.6809 7.61682 11.6712L7.85681 11.4992L8.0968 11.6712C8.11035 11.6821 8.12952 11.6827 8.1438 11.6727C8.15796 11.6627 8.16394 11.6445 8.15833 11.628L8.06799 11.3464L8.30798 11.1696C8.32104 11.1591 8.32617 11.1415 8.3208 11.1256C8.31543 11.1097 8.30078 11.0988 8.28394 11.0984H7.98877L7.89355 10.8168ZM3.45679 11.0984L3.36157 10.8168C3.35034 10.7784 3.29761 10.7784 3.29675 10.8184L3.20154 11.1H2.90552C2.88879 11.1004 2.87402 11.1113 2.86865 11.1272C2.86328 11.1431 2.86841 11.1607 2.88159 11.1712L3.12158 11.348L3.02319 11.628C3.0188 11.6443 3.02502 11.6616 3.03882 11.6712C3.05261 11.6809 3.07092 11.6809 3.08472 11.6712L3.32471 11.4992L3.56482 11.6712C3.57837 11.6821 3.59753 11.6827 3.61169 11.6727C3.62598 11.6627 3.63196 11.6445 3.62634 11.628L3.53601 11.3464L3.776 11.1696C3.78052 11.166 3.78406 11.1616 3.7865 11.1566C3.79126 11.1472 3.79236 11.136 3.78882 11.1256C3.78467 11.1132 3.7749 11.1039 3.76282 11.1002C3.7594 11.0991 3.75574 11.0985 3.75195 11.0984H3.45679ZM5.72559 11.0984L5.63037 10.8168C5.61914 10.7784 5.56641 10.7784 5.56555 10.8184L5.47034 11.1H5.17432C5.15759 11.1004 5.14282 11.1113 5.13745 11.1272C5.13208 11.1431 5.13721 11.1607 5.15039 11.1712L5.39038 11.348L5.29199 11.628C5.28955 11.6371 5.29041 11.6466 5.29407 11.6548C5.297 11.6613 5.30151 11.667 5.30762 11.6712C5.32141 11.6809 5.33972 11.6809 5.35352 11.6712L5.59351 11.4992L5.83362 11.6712C5.84717 11.6821 5.86633 11.6827 5.88049 11.6727C5.89478 11.6627 5.90076 11.6445 5.89514 11.628L5.80481 11.3464L6.0448 11.1696C6.05786 11.1591 6.06299 11.1415 6.05762 11.1256C6.05225 11.1097 6.0376 11.0988 6.02075 11.0984H5.72559ZM2.32312 10.3544L2.22791 10.0728C2.2168 10.0344 2.16882 10.0344 2.16321 10.0728L2.06799 10.3544H1.76392C1.74719 10.3549 1.73242 10.3657 1.72705 10.3816C1.72168 10.3975 1.72681 10.4151 1.73999 10.4256L1.97998 10.6024L1.88953 10.884C1.88513 10.9003 1.89136 10.9175 1.90515 10.9272C1.91895 10.9369 1.93738 10.9369 1.95117 10.9272L2.19116 10.7552L2.43115 10.9272C2.4447 10.938 2.46387 10.9387 2.47815 10.9286C2.49243 10.9187 2.49829 10.9005 2.4928 10.884L2.40234 10.6024L2.64233 10.4256C2.65552 10.4151 2.66064 10.3975 2.65527 10.3816C2.6499 10.3657 2.63513 10.3549 2.61841 10.3544H2.32312ZM9.02795 10.0728C9.02795 10.0596 9.021 10.0475 9.00952 10.041C8.99817 10.0344 8.98413 10.0344 8.97278 10.041C8.96143 10.0475 8.95435 10.0596 8.95435 10.0728L8.85913 10.3544H8.56396C8.54712 10.3549 8.53247 10.3657 8.5271 10.3816C8.52173 10.3975 8.52686 10.4151 8.53992 10.4256L8.77991 10.6024L8.68958 10.884C8.68518 10.9003 8.69141 10.9175 8.7052 10.9272C8.71899 10.9369 8.73743 10.9369 8.75122 10.9272L8.99121 10.7552L9.2312 10.9272C9.24475 10.938 9.26392 10.9387 9.2782 10.9286C9.28589 10.9233 9.29114 10.9155 9.29346 10.9069C9.29541 10.8995 9.29529 10.8916 9.29272 10.884L9.20239 10.6024L9.44238 10.4256C9.45544 10.4151 9.46057 10.3975 9.4552 10.3816C9.44983 10.3657 9.43518 10.3549 9.41833 10.3544H9.12317L9.02795 10.0728ZM6.85999 10.3544L6.76477 10.0728C6.75354 10.0344 6.70081 10.0344 6.69116 10.0728L6.59595 10.3544H6.30078C6.29248 10.3546 6.28467 10.3574 6.2782 10.3621C6.27173 10.3669 6.2666 10.3736 6.26392 10.3816C6.26208 10.3871 6.26147 10.3928 6.26196 10.3983C6.26306 10.4088 6.26819 10.4187 6.27673 10.4256L6.51672 10.6024L6.42639 10.884C6.422 10.9003 6.42822 10.9175 6.44202 10.9272C6.45581 10.9369 6.47412 10.9369 6.48792 10.9272L6.72791 10.7552L6.96802 10.9272C6.98157 10.938 7.00073 10.9387 7.01489 10.9286C7.02917 10.9187 7.03516 10.9005 7.02954 10.884L6.93921 10.6024L7.1792 10.4256C7.19226 10.4151 7.19739 10.3975 7.19202 10.3816C7.18665 10.3657 7.172 10.3549 7.15515 10.3544H6.85999ZM4.59119 10.3544L4.49597 10.0728C4.48474 10.0344 4.43201 10.0344 4.43115 10.0728L4.33594 10.3544H4.03198C4.01514 10.3549 4.00049 10.3657 3.99512 10.3816C3.98975 10.3975 3.99487 10.4151 4.00793 10.4256L4.24792 10.6024L4.15759 10.884C4.1554 10.8923 4.15588 10.9008 4.15869 10.9083C4.16138 10.9158 4.16638 10.9224 4.17322 10.9272C4.17957 10.9317 4.18701 10.9341 4.19446 10.9344C4.203 10.9348 4.21167 10.9324 4.21912 10.9272L4.45911 10.7552L4.69922 10.9272C4.71277 10.938 4.73193 10.9387 4.74609 10.9286C4.76038 10.9187 4.76636 10.9005 4.76074 10.884L4.67041 10.6024L4.9104 10.4256C4.92346 10.4151 4.92859 10.3975 4.92322 10.3816C4.91785 10.3657 4.9032 10.3549 4.88635 10.3544H4.59119ZM3.45679 9.63361L3.36157 9.35199C3.35034 9.31921 3.29761 9.31921 3.29675 9.35199L3.20154 9.63361H2.89758C2.88074 9.63403 2.86609 9.6449 2.86072 9.66083C2.85535 9.67676 2.86047 9.69427 2.87354 9.70483L3.11353 9.88159L3.02319 10.1632C3.0188 10.1794 3.02502 10.1968 3.03882 10.2064C3.05261 10.2161 3.07092 10.2161 3.08472 10.2064L3.32471 10.0344L3.56482 10.2064C3.56763 10.2087 3.57068 10.2105 3.57397 10.2119C3.58618 10.2171 3.60046 10.2158 3.61169 10.2079C3.62598 10.1979 3.63196 10.1797 3.62634 10.1632L3.53601 9.88159L3.776 9.70483C3.78906 9.69427 3.79419 9.67676 3.78882 9.66083C3.78345 9.6449 3.7688 9.63403 3.75195 9.63361H3.45679ZM10.2576 9.63361L10.1624 9.35199C10.156 9.31921 10.1031 9.31921 10.0887 9.35199L9.99353 9.63361H9.69836C9.68152 9.63403 9.66687 9.6449 9.6615 9.66083C9.65613 9.67676 9.66125 9.69427 9.67432 9.70483L9.91431 9.88159L9.82397 10.1632C9.81958 10.1794 9.82581 10.1968 9.8396 10.2064C9.85339 10.2161 9.87183 10.2161 9.88562 10.2064L10.1256 10.0344L10.3656 10.2064C10.3792 10.2173 10.3983 10.2179 10.4126 10.2079C10.4204 10.2024 10.4257 10.1945 10.428 10.1857C10.4298 10.1785 10.4297 10.1707 10.4271 10.1632L10.3368 9.88159L10.5768 9.70483C10.5898 9.69427 10.595 9.67676 10.5896 9.66083C10.5842 9.6449 10.5696 9.63403 10.5527 9.63361H10.2576ZM1.18872 9.63361L1.09351 9.35199C1.0824 9.31921 1.03442 9.31921 1.02881 9.35199L0.933594 9.63361H0.629517C0.612793 9.63403 0.598022 9.6449 0.592651 9.66083C0.58728 9.67676 0.592407 9.69427 0.605591 9.70483L0.845581 9.88159L0.755127 10.1632C0.750732 10.1794 0.756958 10.1968 0.770752 10.2064C0.784546 10.2161 0.802979 10.2161 0.816772 10.2064L1.05676 10.0344L1.29675 10.2064C1.3103 10.2173 1.32947 10.2179 1.34375 10.2079C1.35803 10.1979 1.36389 10.1797 1.3584 10.1632L1.26794 9.88159L1.50793 9.70483C1.52112 9.69427 1.52625 9.67676 1.52087 9.66083C1.5155 9.6449 1.50073 9.63403 1.48401 9.63361H1.18872ZM7.98877 9.63361L7.89355 9.35199C7.88989 9.33307 7.87073 9.32507 7.85242 9.328C7.83899 9.33014 7.82605 9.33813 7.81995 9.35199L7.72473 9.63361H7.42957C7.42322 9.63379 7.41724 9.63544 7.41187 9.63824C7.40295 9.64288 7.396 9.65088 7.3927 9.66083C7.38733 9.67676 7.39246 9.69427 7.40552 9.70483L7.64551 9.88159L7.55518 10.1632C7.55078 10.1794 7.55701 10.1968 7.5708 10.2064C7.58459 10.2161 7.60303 10.2161 7.61682 10.2064L7.85681 10.0344L8.0968 10.2064C8.11035 10.2173 8.12952 10.2179 8.1438 10.2079C8.15796 10.1979 8.16394 10.1797 8.15833 10.1632L8.06799 9.88159L8.30798 9.70483C8.32104 9.69427 8.32617 9.67676 8.3208 9.66083C8.31543 9.6449 8.30078 9.63403 8.28394 9.63361H7.98877ZM5.72559 9.63361L5.63037 9.35199C5.61914 9.31921 5.56641 9.31921 5.56555 9.35199L5.47034 9.63361H5.16638C5.14954 9.63403 5.13489 9.6449 5.12952 9.66083C5.12415 9.67676 5.12927 9.69427 5.14233 9.70483L5.38232 9.88159L5.29199 10.1632C5.2876 10.1794 5.29382 10.1968 5.30762 10.2064C5.32141 10.2161 5.33972 10.2161 5.35352 10.2064L5.59351 10.0344L5.83362 10.2064C5.84717 10.2173 5.86633 10.2179 5.88049 10.2079C5.89478 10.1979 5.90076 10.1797 5.89514 10.1632L5.80481 9.88159L6.0448 9.70483C6.05786 9.69427 6.06299 9.67676 6.05762 9.66083C6.05225 9.6449 6.0376 9.63403 6.02075 9.63361H5.72559ZM2.32312 8.89038L2.22791 8.60883C2.2168 8.57043 2.16882 8.57043 2.16321 8.61041L2.06799 8.89203H1.77197C1.75513 8.89246 1.74048 8.90332 1.73511 8.91919C1.72974 8.93512 1.73486 8.9527 1.74792 8.9632L1.98792 9.14001L1.88953 9.41998C1.88513 9.43628 1.89136 9.45355 1.90515 9.4632C1.91895 9.4729 1.93738 9.4729 1.95117 9.4632L2.19116 9.2912L2.43115 9.4632C2.4447 9.47406 2.46387 9.47467 2.47815 9.46466C2.49243 9.45471 2.49829 9.43646 2.4928 9.41998L2.40234 9.13843L2.64233 8.96161C2.65552 8.95111 2.66064 8.93353 2.65527 8.9176C2.6499 8.90167 2.63513 8.89081 2.61841 8.89038H2.32312ZM9.02795 8.60883C9.02795 8.5885 9.01147 8.57202 8.99121 8.57202C8.97498 8.57202 8.9613 8.58246 8.9563 8.59692C8.95508 8.60065 8.95435 8.60468 8.95435 8.60883L8.85913 8.89038H8.56396C8.55762 8.89056 8.55164 8.89221 8.54626 8.89502C8.53735 8.89972 8.5304 8.90771 8.5271 8.9176C8.52173 8.93353 8.52686 8.95111 8.53992 8.96161L8.77991 9.13843L8.68958 9.41998C8.68518 9.43628 8.69141 9.45355 8.7052 9.4632C8.71338 9.46899 8.72327 9.47131 8.73279 9.47021C8.73926 9.46942 8.74561 9.4671 8.75122 9.4632L8.99121 9.2912L9.2312 9.4632C9.24475 9.47406 9.26392 9.47467 9.2782 9.46466C9.29236 9.45471 9.29834 9.43646 9.29272 9.41998L9.20239 9.13843L9.44238 8.96161C9.45544 8.95111 9.46057 8.93353 9.4552 8.9176C9.44983 8.90167 9.43518 8.89081 9.41833 8.89038H9.12317L9.02795 8.60883ZM6.85999 8.89038L6.76477 8.60883C6.75354 8.57043 6.70081 8.57043 6.69116 8.60883L6.59595 8.89038H6.30078C6.29297 8.89056 6.28577 8.89301 6.27966 8.89709C6.27246 8.90192 6.26685 8.909 6.26392 8.9176C6.25854 8.93353 6.26367 8.95111 6.27673 8.96161L6.51672 9.13843L6.42639 9.41998C6.42322 9.43188 6.42566 9.44427 6.4325 9.45386C6.43506 9.4574 6.43823 9.46057 6.44202 9.4632C6.45581 9.4729 6.47412 9.4729 6.48792 9.4632L6.72791 9.2912L6.96802 9.4632C6.98157 9.47406 7.00073 9.47467 7.01489 9.46466C7.02917 9.45471 7.03516 9.43646 7.02954 9.41998L6.93921 9.13843L7.1792 8.96161C7.19226 8.95111 7.19739 8.93353 7.19202 8.9176C7.18665 8.90167 7.172 8.89081 7.15515 8.89038H6.85999ZM4.59119 8.89038L4.49597 8.60883C4.48474 8.57043 4.43201 8.57043 4.43115 8.61041L4.33594 8.89203H4.03992C4.02319 8.89246 4.00842 8.90332 4.00305 8.91919C3.99963 8.9292 4.00037 8.93988 4.00476 8.94904C4.00732 8.95441 4.01111 8.95929 4.01599 8.9632L4.25598 9.14001L4.15759 9.41998C4.1532 9.43628 4.15942 9.45355 4.17322 9.4632C4.18701 9.4729 4.20532 9.4729 4.21912 9.4632L4.45911 9.2912L4.69922 9.4632C4.71277 9.47406 4.73193 9.47467 4.74609 9.46466C4.76038 9.45471 4.76636 9.43646 4.76074 9.41998L4.67041 9.13843L4.9104 8.96161C4.92346 8.95111 4.92859 8.93353 4.92322 8.9176C4.91785 8.90167 4.9032 8.89081 4.88635 8.89038H4.59119ZM3.45679 8.17438L3.36157 7.89282C3.35034 7.85443 3.29761 7.85443 3.29675 7.89441L3.20154 8.17603H2.90552C2.89429 8.17633 2.88391 8.18134 2.87671 8.18939C2.87317 8.19336 2.87036 8.198 2.86865 8.20325C2.86328 8.21912 2.86841 8.23669 2.88159 8.24719L3.12158 8.42401L3.02319 8.70398C3.0188 8.72028 3.02502 8.73755 3.03882 8.74725C3.05261 8.7569 3.07092 8.7569 3.08472 8.74719L3.32471 8.5752L3.56482 8.74719C3.57837 8.75806 3.59753 8.75867 3.61169 8.74866C3.62598 8.73871 3.63196 8.72052 3.62634 8.70398L3.53601 8.42242L3.776 8.24561C3.78333 8.23969 3.78821 8.23157 3.79004 8.22272C3.7915 8.21582 3.79114 8.20856 3.78882 8.2016C3.78625 8.19391 3.78149 8.18738 3.77539 8.18268C3.7688 8.17761 3.76062 8.17462 3.75195 8.17438H3.45679ZM10.144 7.87042C10.1394 7.86829 10.1343 7.86713 10.1289 7.86725C10.1132 7.86761 10.0997 7.87891 10.0968 7.89441L10.0016 8.17603H9.70642C9.68958 8.17645 9.6748 8.18732 9.66943 8.20325C9.66406 8.21912 9.66931 8.23669 9.68237 8.24719L9.92236 8.42401L9.82397 8.70398C9.81958 8.72028 9.82581 8.73755 9.8396 8.74725C9.85339 8.7569 9.87183 8.7569 9.88562 8.74719L10.1256 8.5752L10.3656 8.74719C10.3729 8.75305 10.3818 8.75592 10.3907 8.75574C10.3984 8.75562 10.406 8.75323 10.4126 8.74866C10.4207 8.74298 10.426 8.73462 10.4282 8.72546C10.4298 8.71851 10.4296 8.71112 10.4271 8.70398L10.3368 8.42242L10.5768 8.24561C10.5898 8.23511 10.595 8.21753 10.5896 8.2016C10.5842 8.18573 10.5696 8.1748 10.5527 8.17438H10.2576L10.1624 7.89282C10.1599 7.88269 10.153 7.87463 10.144 7.87042ZM7.89355 7.89282C7.89355 7.8725 7.87708 7.85602 7.85681 7.85602C7.83643 7.85602 7.81995 7.8725 7.81995 7.89282L7.72473 8.17438H7.42957C7.41272 8.1748 7.39807 8.18573 7.3927 8.2016C7.38733 8.21753 7.39246 8.23511 7.40552 8.24561L7.64551 8.42242L7.55518 8.70398C7.55078 8.72028 7.55701 8.73755 7.5708 8.74725C7.58459 8.7569 7.60303 8.7569 7.61682 8.74719L7.85681 8.5752L8.0968 8.74719C8.10291 8.75208 8.11011 8.75488 8.11755 8.75555C8.12659 8.75641 8.13599 8.75415 8.1438 8.74866C8.15796 8.73871 8.16394 8.72052 8.15833 8.70398L8.06799 8.42242L8.30798 8.24561C8.32104 8.23511 8.32617 8.21753 8.3208 8.2016C8.31543 8.18573 8.30078 8.1748 8.28394 8.17438H7.98877L7.89355 7.89282ZM1.18872 8.17438L1.09351 7.89282C1.0824 7.85443 1.03442 7.85443 1.02881 7.89441L0.933594 8.17603H0.637573C0.620728 8.17645 0.606079 8.18732 0.600708 8.20325C0.595337 8.21912 0.600464 8.23669 0.613525 8.24719L0.853516 8.42401L0.755127 8.70398C0.750732 8.72028 0.756958 8.73755 0.770752 8.74725C0.779907 8.75366 0.791016 8.7558 0.801514 8.75372C0.806885 8.75269 0.812134 8.75049 0.816772 8.74719L1.05676 8.5752L1.29675 8.74719C1.3103 8.75806 1.32947 8.75867 1.34375 8.74866C1.35803 8.73871 1.36389 8.72052 1.3584 8.70398L1.26794 8.42242L1.50793 8.24561C1.52112 8.23511 1.52625 8.21753 1.52087 8.2016C1.5155 8.18573 1.50073 8.1748 1.48401 8.17438H1.18872ZM5.72559 8.17438L5.63037 7.89282C5.61914 7.85443 5.56641 7.85443 5.56555 7.89282L5.47034 8.17438H5.16638C5.14954 8.1748 5.13489 8.18573 5.12952 8.2016C5.12659 8.21008 5.12671 8.21906 5.12939 8.22723C5.13184 8.23431 5.13623 8.24072 5.14233 8.24561L5.38232 8.42242L5.29199 8.70398C5.2876 8.72028 5.29382 8.73755 5.30762 8.74725C5.3147 8.7522 5.323 8.75458 5.33118 8.75446C5.33899 8.75433 5.3468 8.75195 5.35352 8.74719L5.59351 8.5752L5.83362 8.74719C5.84717 8.75806 5.86633 8.75867 5.88049 8.74866C5.89478 8.73871 5.90076 8.72052 5.89514 8.70398L5.80481 8.42242L6.0448 8.24561C6.05786 8.23511 6.06299 8.21753 6.05762 8.2016C6.05225 8.18573 6.0376 8.1748 6.02075 8.17438H5.72559ZM2.32312 7.4248L2.22791 7.14319C2.2168 7.11041 2.16882 7.11041 2.16321 7.14319L2.06799 7.4248H1.76392C1.75671 7.42499 1.74988 7.42712 1.74402 7.43079C1.73621 7.43561 1.7301 7.44299 1.72705 7.45203C1.72168 7.46796 1.72681 7.48547 1.73999 7.49603L1.97998 7.67279L1.88953 7.95441C1.88513 7.97064 1.89136 7.98798 1.90515 7.99762C1.91895 8.00732 1.93738 8.00726 1.95117 7.99762L2.19116 7.82562L2.43115 7.99762C2.4447 8.00848 2.46387 8.00909 2.47815 7.99908C2.49243 7.98907 2.49829 7.97089 2.4928 7.95441L2.40234 7.67279L2.64233 7.49603C2.65552 7.48547 2.66064 7.46796 2.65527 7.45203C2.6499 7.4361 2.63513 7.42523 2.61841 7.4248H2.32312ZM6.85999 7.4248L6.76477 7.14319C6.75354 7.11041 6.70081 7.11041 6.69116 7.14319L6.59595 7.4248H6.30078C6.28394 7.42523 6.26929 7.4361 6.26392 7.45203C6.26062 7.46185 6.26135 7.47229 6.26538 7.48132C6.26794 7.48694 6.27173 7.492 6.27673 7.49603L6.51672 7.67279L6.42639 7.95441C6.422 7.97064 6.42822 7.98798 6.44202 7.99762C6.45581 8.00732 6.47412 8.00726 6.48792 7.99762L6.72791 7.82562L6.96802 7.99762C6.97424 8.00262 6.98181 8.00549 6.9895 8.0061C6.99829 8.00677 7.00732 8.00446 7.01489 7.99908C7.02917 7.98907 7.03516 7.97089 7.02954 7.95441L6.93921 7.67279L7.1792 7.49603C7.18579 7.49066 7.19043 7.48352 7.19263 7.47571C7.1947 7.46814 7.1947 7.4599 7.19202 7.45203C7.18665 7.4361 7.172 7.42523 7.15515 7.4248H6.85999ZM4.59119 7.4248L4.49597 7.14319C4.48474 7.11041 4.43201 7.11041 4.43115 7.14319L4.33594 7.4248H4.03198C4.01514 7.42523 4.00049 7.4361 3.99512 7.45203C3.98975 7.46796 3.99487 7.48547 4.00793 7.49603L4.24792 7.67279L4.15759 7.95441C4.1532 7.97064 4.15942 7.98798 4.17322 7.99762C4.18701 8.00732 4.20532 8.00726 4.21912 7.99762L4.45911 7.82562L4.69922 7.99762C4.71277 8.00848 4.73193 8.00909 4.74609 7.99908C4.76038 7.98907 4.76636 7.97089 4.76074 7.95441L4.67041 7.67279L4.9104 7.49603C4.92346 7.48547 4.92859 7.46796 4.92322 7.45203C4.91785 7.4361 4.9032 7.42523 4.88635 7.4248H4.59119ZM9.12317 7.4248L9.02795 7.14319C9.02161 7.11041 8.96875 7.11041 8.95435 7.14319L8.85913 7.4248H8.56396C8.54712 7.42523 8.53247 7.4361 8.5271 7.45203C8.52173 7.46796 8.52686 7.48547 8.53992 7.49603L8.77991 7.67279L8.68958 7.95441C8.68518 7.97064 8.69141 7.98798 8.7052 7.99762C8.71899 8.00732 8.73743 8.00726 8.75122 7.99762L8.99121 7.82562L9.2312 7.99762C9.23901 8.00391 9.24878 8.00677 9.25842 8.0061C9.26538 8.00562 9.27222 8.0033 9.2782 7.99908C9.29236 7.98907 9.29834 7.97089 9.29272 7.95441L9.20239 7.67279L9.44238 7.49603C9.45544 7.48547 9.46057 7.46796 9.4552 7.45203C9.45154 7.44128 9.44373 7.43286 9.43384 7.42841C9.42908 7.42621 9.42383 7.42493 9.41833 7.4248H9.12317ZM5.72559 6.70959L5.63037 6.42798C5.61914 6.3952 5.56641 6.3952 5.56555 6.42798L5.47034 6.70959H5.16638C5.14954 6.71002 5.13489 6.72089 5.12952 6.73682C5.12415 6.75275 5.12927 6.77032 5.14233 6.78082L5.38232 6.95758L5.29199 7.2392C5.28857 7.25183 5.2915 7.26501 5.29944 7.27478C5.30176 7.27765 5.30444 7.28021 5.30762 7.28241C5.31616 7.28839 5.32629 7.29071 5.33618 7.28931C5.34229 7.28845 5.34827 7.28613 5.35352 7.28241L5.59351 7.11041L5.83362 7.28241C5.84717 7.29327 5.86633 7.29388 5.88049 7.28387C5.89478 7.27386 5.90076 7.25568 5.89514 7.2392L5.80481 6.95758L6.0448 6.78082C6.05786 6.77032 6.06299 6.75275 6.05762 6.73682C6.05225 6.72089 6.0376 6.71002 6.02075 6.70959H5.72559ZM1.18872 6.70959L1.09351 6.42798C1.0824 6.3952 1.03442 6.3952 1.02881 6.42798L0.933594 6.70959H0.629517C0.612793 6.71002 0.598022 6.72089 0.592651 6.73682C0.58728 6.75275 0.592407 6.77032 0.605591 6.78082L0.845581 6.95758L0.755127 7.2392C0.750732 7.25549 0.756958 7.27277 0.770752 7.28241C0.784546 7.29211 0.802979 7.29211 0.816772 7.28241L1.05676 7.11041L1.29675 7.28241C1.3103 7.29327 1.32947 7.29388 1.34375 7.28387C1.35803 7.27386 1.36389 7.25568 1.3584 7.2392L1.26794 6.95758L1.50793 6.78082C1.52112 6.77032 1.52625 6.75275 1.52087 6.73682C1.5155 6.72089 1.50073 6.71002 1.48401 6.70959H1.18872ZM3.45996 6.70959L3.36475 6.42798C3.35034 6.3952 3.29761 6.3952 3.29199 6.42798L3.19678 6.70959H2.90234C2.88562 6.71002 2.87085 6.72089 2.86548 6.73682C2.86157 6.74835 2.86316 6.76074 2.86938 6.77075C2.8717 6.77454 2.87476 6.77795 2.87842 6.78082L3.11841 6.95758L3.02795 7.2392C3.02356 7.25549 3.02979 7.27277 3.04358 7.28241C3.05737 7.29211 3.07581 7.29211 3.0896 7.28241L3.32959 7.11041L3.56958 7.28241C3.58313 7.29327 3.60229 7.29388 3.61658 7.28387C3.63074 7.27386 3.63672 7.25568 3.6311 7.2392L3.54077 6.95758L3.78076 6.78082C3.78931 6.77399 3.79443 6.76416 3.79553 6.75378C3.79614 6.74817 3.79553 6.74237 3.7937 6.73682C3.78833 6.72089 3.77356 6.71002 3.75671 6.70959H3.45996ZM7.98877 6.70959L7.89355 6.42798C7.88721 6.3952 7.83435 6.3952 7.81995 6.42798L7.72473 6.70959H7.42957C7.41272 6.71002 7.39807 6.72089 7.3927 6.73682C7.38733 6.75275 7.39246 6.77032 7.40552 6.78082L7.64551 6.95758L7.55518 7.2392C7.55225 7.24994 7.55408 7.26111 7.55945 7.27026C7.56226 7.27496 7.56604 7.27911 7.5708 7.28241C7.58459 7.29211 7.60303 7.29211 7.61682 7.28241L7.85681 7.11041L8.0968 7.28241C8.11035 7.29327 8.12952 7.29388 8.1438 7.28387C8.15796 7.27386 8.16394 7.25568 8.15833 7.2392L8.06799 6.95758L8.30798 6.78082C8.32104 6.77032 8.32617 6.75275 8.3208 6.73682C8.31738 6.72656 8.31006 6.71838 8.30078 6.71375C8.29565 6.71118 8.28992 6.70972 8.28394 6.70959H7.98877ZM10.2576 6.70959L10.1624 6.42798C10.156 6.3952 10.1031 6.3952 10.0887 6.42798L9.99353 6.70959H9.69836C9.68152 6.71002 9.66687 6.72089 9.6615 6.73682C9.65613 6.75275 9.66125 6.77032 9.67432 6.78082L9.91431 6.95758L9.82397 7.2392C9.81958 7.25549 9.82581 7.27277 9.8396 7.28241C9.85339 7.29211 9.87183 7.29211 9.88562 7.28241L10.1256 7.11041L10.3656 7.28241C10.3743 7.28937 10.3853 7.29211 10.3958 7.29053C10.4017 7.28967 10.4075 7.28748 10.4126 7.28387C10.4268 7.27386 10.4327 7.25568 10.4271 7.2392L10.3368 6.95758L10.5768 6.78082C10.5898 6.77032 10.595 6.75275 10.5896 6.73682C10.5842 6.72089 10.5696 6.71002 10.5527 6.70959H10.2576ZM6.85999 5.96564L6.76477 5.68402C6.75354 5.64563 6.70081 5.64563 6.69116 5.68402L6.59595 5.96564H6.30078C6.28394 5.966 6.26929 5.97693 6.26392 5.9928C6.25854 6.00873 6.26367 6.02631 6.27673 6.0368L6.51672 6.21362L6.42639 6.49518C6.42383 6.50488 6.42493 6.51489 6.42908 6.52344C6.43201 6.5293 6.4364 6.53448 6.44202 6.53845C6.45581 6.5481 6.47412 6.5481 6.48792 6.53839L6.72791 6.36639L6.96802 6.53839C6.98157 6.54926 7.00073 6.54987 7.01489 6.53986C7.02917 6.52991 7.03516 6.51172 7.02954 6.49518L6.93921 6.21362L7.1792 6.0368C7.19226 6.02631 7.19739 6.00873 7.19202 5.9928C7.18945 5.98517 7.18469 5.9787 7.17859 5.974C7.172 5.96887 7.16394 5.96582 7.15515 5.96564H6.85999ZM4.59119 5.96564L4.49597 5.68402C4.4884 5.65833 4.46228 5.64984 4.44556 5.65906C4.43738 5.66357 4.4314 5.67242 4.43115 5.68561L4.33594 5.96722H4.03992C4.02319 5.96765 4.00842 5.97852 4.00305 5.99445C3.99768 6.01031 4.00281 6.02789 4.01599 6.03839L4.25598 6.21521L4.15759 6.49518C4.1532 6.51147 4.15942 6.52875 4.17322 6.53845C4.18042 6.54352 4.18896 6.5459 4.19739 6.54565C4.20496 6.54541 4.21252 6.54303 4.21912 6.53839L4.45911 6.36639L4.69922 6.53839C4.71277 6.54926 4.73193 6.54987 4.74609 6.53986C4.76038 6.52991 4.76636 6.51172 4.76074 6.49518L4.67041 6.21362L4.9104 6.0368C4.92346 6.02631 4.92859 6.00873 4.92322 5.9928C4.91785 5.97693 4.9032 5.966 4.88635 5.96564H4.59119ZM2.32312 5.96564L2.22791 5.68402C2.2168 5.64563 2.16882 5.64563 2.16321 5.68561L2.06799 5.96722H1.77197C1.75513 5.96765 1.74048 5.97852 1.73511 5.99445C1.72974 6.01031 1.73486 6.02789 1.74792 6.03839L1.98792 6.21521L1.88953 6.49518C1.88513 6.51147 1.89136 6.52875 1.90515 6.53845C1.91895 6.5481 1.93738 6.5481 1.95117 6.53839L2.19116 6.36639L2.43115 6.53839C2.4447 6.54926 2.46387 6.54987 2.47815 6.53986C2.49243 6.52991 2.49829 6.51172 2.4928 6.49518L2.40234 6.21362L2.64233 6.0368C2.65552 6.02631 2.66064 6.00873 2.65527 5.9928C2.6499 5.97693 2.63513 5.966 2.61841 5.96564H2.32312ZM9.02795 5.68402C9.02795 5.67084 9.021 5.65869 9.00952 5.65216C8.99817 5.64557 8.98413 5.64557 8.97278 5.65216C8.96143 5.65869 8.95435 5.67084 8.95435 5.68402L8.85913 5.96564H8.56396C8.54712 5.966 8.53247 5.97693 8.5271 5.9928C8.52173 6.00873 8.52686 6.02631 8.53992 6.0368L8.77991 6.21362L8.68958 6.49518C8.68518 6.51147 8.69141 6.52875 8.7052 6.53845C8.71899 6.5481 8.73743 6.5481 8.75122 6.53839L8.99121 6.36639L9.2312 6.53839C9.23767 6.54364 9.24548 6.54651 9.25342 6.54694C9.26196 6.54736 9.27075 6.54504 9.2782 6.53986C9.29236 6.52991 9.29834 6.51172 9.29272 6.49518L9.20239 6.21362L9.44238 6.0368C9.45544 6.02631 9.46057 6.00873 9.4552 5.9928C9.44983 5.97693 9.43518 5.966 9.41833 5.96564H9.12317L9.02795 5.68402ZM1.18872 5.25043L1.09351 4.96881C1.0824 4.93042 1.03442 4.93042 1.02881 4.9704L0.933594 5.25201H0.637573C0.620728 5.25244 0.606079 5.26331 0.600708 5.27924C0.595337 5.2951 0.600464 5.31268 0.613525 5.32318L0.853516 5.5L0.755127 5.78003C0.750732 5.79626 0.756958 5.81354 0.770752 5.82324C0.784546 5.83289 0.802979 5.83289 0.816772 5.82318L1.05676 5.65118L1.29675 5.82318C1.3103 5.83405 1.32947 5.83466 1.34375 5.82471C1.35803 5.8147 1.36389 5.79651 1.3584 5.78003L1.26794 5.49841L1.50793 5.32159C1.52112 5.3111 1.52625 5.29352 1.52087 5.27759C1.5155 5.26172 1.50073 5.25085 1.48401 5.25043H1.18872ZM3.45679 5.25043L3.36157 4.96881C3.35498 4.94641 3.33435 4.93707 3.31812 4.94116C3.30652 4.94403 3.29712 4.95374 3.29675 4.9704L3.20154 5.25201H2.90552C2.88879 5.25244 2.87402 5.26331 2.86865 5.27924C2.86328 5.2951 2.86841 5.31268 2.88159 5.32318L3.12158 5.5L3.02319 5.78003C3.0188 5.79626 3.02502 5.81354 3.03882 5.82324C3.0448 5.82739 3.05151 5.82977 3.05835 5.83032C3.0675 5.83112 3.0769 5.82874 3.08472 5.82318L3.32471 5.65118L3.56482 5.82318C3.57837 5.83405 3.59753 5.83466 3.61169 5.82471C3.62598 5.8147 3.63196 5.79651 3.62634 5.78003L3.53601 5.49841L3.776 5.32159C3.78296 5.31604 3.7876 5.30847 3.78967 5.30017C3.7915 5.29285 3.79138 5.28503 3.78882 5.27759C3.78345 5.26172 3.7688 5.25085 3.75195 5.25043H3.45679ZM5.72559 5.25043L5.63037 4.96881C5.61914 4.93042 5.56641 4.93042 5.56555 4.96881L5.47034 5.25043H5.16638C5.14954 5.25085 5.13489 5.26172 5.12952 5.27759C5.12415 5.29352 5.12927 5.3111 5.14233 5.32159L5.38232 5.49841L5.29199 5.78003C5.28979 5.78833 5.29028 5.79694 5.29321 5.80469C5.29602 5.81201 5.3009 5.81854 5.30762 5.82324C5.31299 5.82697 5.31897 5.82922 5.3252 5.83008C5.33496 5.83142 5.34509 5.82916 5.35352 5.82318L5.59351 5.65118L5.83362 5.82318C5.84717 5.83405 5.86633 5.83466 5.88049 5.82471C5.89478 5.8147 5.90076 5.79651 5.89514 5.78003L5.80481 5.49841L6.0448 5.32159C6.05786 5.3111 6.06299 5.29352 6.05762 5.27759C6.05225 5.26172 6.0376 5.25085 6.02075 5.25043H5.72559ZM7.89355 4.96881C7.89355 4.95569 7.8866 4.94348 7.87512 4.93695C7.87085 4.93445 7.86621 4.93292 7.86145 4.93231C7.85364 4.93127 7.84546 4.93286 7.83838 4.93695C7.82703 4.94348 7.81995 4.95569 7.81995 4.96881L7.72473 5.25043H7.42957C7.41272 5.25085 7.39807 5.26172 7.3927 5.27759C7.38733 5.29352 7.39246 5.3111 7.40552 5.32159L7.64551 5.49841L7.55518 5.78003C7.55078 5.79626 7.55701 5.81354 7.5708 5.82324C7.58459 5.83289 7.60303 5.83289 7.61682 5.82318L7.85681 5.65118L8.0968 5.82318C8.10254 5.82782 8.10938 5.83057 8.11646 5.83142C8.12585 5.83264 8.13562 5.83044 8.1438 5.82471C8.15796 5.8147 8.16394 5.79651 8.15833 5.78003L8.06799 5.49841L8.30798 5.32159C8.32104 5.3111 8.32617 5.29352 8.3208 5.27759C8.31543 5.26172 8.30078 5.25085 8.28394 5.25043H7.98877L7.89355 4.96881ZM10.1624 4.96881C10.1586 4.95349 10.1447 4.94287 10.1289 4.94324C10.1132 4.94366 10.0997 4.95496 10.0968 4.9704L10.0016 5.25201H9.70642C9.6991 5.2522 9.69214 5.25433 9.68616 5.25806C9.67847 5.26288 9.67249 5.27026 9.66943 5.27924C9.66406 5.2951 9.66931 5.31268 9.68237 5.32318L9.92236 5.5L9.82397 5.78003C9.81958 5.79626 9.82581 5.81354 9.8396 5.82324C9.85339 5.83289 9.87183 5.83289 9.88562 5.82318L10.1256 5.65118L10.3656 5.82318C10.3704 5.82697 10.3757 5.82947 10.3813 5.83075C10.392 5.83319 10.4033 5.83118 10.4126 5.82471C10.4268 5.8147 10.4327 5.79651 10.4271 5.78003L10.3368 5.49841L10.5768 5.32159C10.5898 5.3111 10.595 5.29352 10.5896 5.27759C10.5842 5.26172 10.5696 5.25085 10.5527 5.25043H10.2576L10.1624 4.96881Z" fill="#0D47A1"/>
<path d="M1.09351 10.8168L1.18872 11.0984H1.48401C1.50073 11.0988 1.5155 11.1097 1.52087 11.1256C1.52624 11.1415 1.52104 11.1591 1.50793 11.1696L1.26794 11.3464L1.3584 11.628C1.36389 11.6445 1.35803 11.6627 1.34375 11.6727C1.32947 11.6827 1.3103 11.6821 1.29675 11.6712L1.05676 11.4992L0.816772 11.6712C0.802979 11.6809 0.784546 11.6809 0.770752 11.6712C0.756957 11.6615 0.750717 11.6443 0.755127 11.628L0.853516 11.348L0.613525 11.1712C0.600464 11.1607 0.595337 11.1431 0.600708 11.1272C0.606079 11.1113 0.620728 11.1004 0.637573 11.1H0.933594L1.02881 10.8184C1.03442 10.7784 1.0824 10.7784 1.09351 10.8168ZM10.1289 10.7913C10.1447 10.7909 10.1586 10.8015 10.1624 10.8168L10.2576 11.0984H10.5527C10.5696 11.0988 10.5842 11.1097 10.5896 11.1256C10.595 11.1415 10.5899 11.1591 10.5768 11.1696L10.3368 11.3464L10.4271 11.628C10.4327 11.6445 10.4268 11.6627 10.4126 11.6727C10.3983 11.6827 10.3792 11.6821 10.3656 11.6712L10.1256 11.4992L9.88562 11.6712C9.87183 11.6809 9.85339 11.6809 9.8396 11.6712C9.82581 11.6616 9.81958 11.6443 9.82397 11.628L9.92236 11.348L9.68237 11.1712C9.66927 11.1607 9.66407 11.1431 9.66943 11.1272C9.6748 11.1113 9.68958 11.1004 9.70642 11.1H10.0016L10.0968 10.8184C10.0997 10.8029 10.1132 10.7916 10.1289 10.7913ZM7.86011 10.7913C7.87585 10.7909 7.88977 10.8015 7.89355 10.8168L7.98877 11.0984H8.28394C8.30078 11.0988 8.31543 11.1097 8.3208 11.1256C8.32617 11.1415 8.32104 11.1591 8.30798 11.1696L8.06799 11.3464L8.15833 11.628C8.16394 11.6445 8.15796 11.6627 8.1438 11.6727C8.12952 11.6827 8.11035 11.6821 8.0968 11.6712L7.85681 11.4992L7.61682 11.6712C7.60303 11.6809 7.58459 11.6809 7.5708 11.6712C7.55701 11.6616 7.55078 11.6443 7.55518 11.628L7.65356 11.348L7.41357 11.1712C7.40051 11.1607 7.39526 11.1431 7.40063 11.1272C7.40601 11.1113 7.42078 11.1004 7.43762 11.1H7.73279L7.828 10.8184C7.83093 10.8029 7.84436 10.7916 7.86011 10.7913ZM3.36157 10.8168L3.45679 11.0984H3.75195C3.76874 11.0988 3.78345 11.1097 3.78882 11.1256C3.79418 11.1415 3.78911 11.1591 3.776 11.1696L3.53601 11.3464L3.62634 11.628C3.63196 11.6445 3.62598 11.6627 3.61169 11.6727C3.59753 11.6827 3.57837 11.6821 3.56482 11.6712L3.32471 11.4992L3.08472 11.6712C3.07092 11.6809 3.05261 11.6809 3.03882 11.6712C3.02502 11.6616 3.0188 11.6443 3.02319 11.628L3.12158 11.348L2.88159 11.1712C2.86841 11.1607 2.86328 11.1431 2.86865 11.1272C2.87402 11.1113 2.88879 11.1004 2.90552 11.1H3.20154L3.29675 10.8184C3.29761 10.7784 3.35034 10.7784 3.36157 10.8168ZM5.63037 10.8168L5.72559 11.0984H6.02075C6.0376 11.0988 6.05225 11.1097 6.05762 11.1256C6.06299 11.1415 6.05786 11.1591 6.0448 11.1696L5.80481 11.3464L5.89514 11.628C5.90076 11.6445 5.89478 11.6627 5.88049 11.6727C5.86633 11.6827 5.84717 11.6821 5.83362 11.6712L5.59351 11.4992L5.35352 11.6712C5.33972 11.6809 5.32141 11.6809 5.30762 11.6712C5.29382 11.6615 5.28758 11.6443 5.29199 11.628L5.39038 11.348L5.15039 11.1712C5.13721 11.1607 5.13208 11.1431 5.13745 11.1272C5.14282 11.1113 5.15759 11.1004 5.17432 11.1H5.47034L5.56555 10.8184C5.56641 10.7784 5.61914 10.7784 5.63037 10.8168ZM2.22791 10.0728L2.32312 10.3544H2.61841C2.63513 10.3549 2.6499 10.3657 2.65527 10.3816C2.66064 10.3975 2.65552 10.4151 2.64233 10.4256L2.40234 10.6024L2.4928 10.884C2.49829 10.9005 2.49243 10.9187 2.47815 10.9286C2.46387 10.9387 2.4447 10.938 2.43115 10.9272L2.19116 10.7552L1.95117 10.9272C1.93738 10.9369 1.91895 10.9369 1.90515 10.9272C1.89136 10.9175 1.88513 10.9003 1.88953 10.884L1.97998 10.6024L1.73999 10.4256C1.72681 10.4151 1.72168 10.3975 1.72705 10.3816C1.73242 10.3657 1.74719 10.3549 1.76392 10.3544H2.06799L2.16321 10.0728C2.16882 10.0344 2.2168 10.0344 2.22791 10.0728ZM9.00952 10.041C9.021 10.0475 9.02795 10.0596 9.02795 10.0728L9.12317 10.3544H9.41833C9.43518 10.3549 9.44983 10.3657 9.4552 10.3816C9.46057 10.3975 9.45544 10.4151 9.44238 10.4256L9.20239 10.6024L9.29272 10.884C9.29831 10.9005 9.29245 10.9187 9.2782 10.9286C9.26392 10.9387 9.24475 10.938 9.2312 10.9272L8.99121 10.7552L8.75122 10.9272C8.73743 10.9369 8.71899 10.9369 8.7052 10.9272C8.69141 10.9175 8.68518 10.9003 8.68958 10.884L8.77991 10.6024L8.53992 10.4256C8.52686 10.4151 8.52173 10.3975 8.5271 10.3816C8.53247 10.3657 8.54712 10.3549 8.56396 10.3544H8.85913L8.95435 10.0728C8.95435 10.0596 8.96143 10.0475 8.97278 10.041C8.98413 10.0344 8.99817 10.0344 9.00952 10.041ZM6.76477 10.0728L6.85999 10.3544H7.15515C7.172 10.3549 7.18665 10.3657 7.19202 10.3816C7.19739 10.3975 7.19226 10.4151 7.1792 10.4256L6.93921 10.6024L7.02954 10.884C7.03516 10.9005 7.02917 10.9187 7.01489 10.9286C7.00073 10.9387 6.98157 10.938 6.96802 10.9272L6.72791 10.7552L6.48792 10.9272C6.47412 10.9369 6.45581 10.9369 6.44202 10.9272C6.42822 10.9175 6.422 10.9003 6.42639 10.884L6.51672 10.6024L6.27673 10.4256C6.26363 10.4151 6.25855 10.3975 6.26392 10.3816C6.26928 10.3657 6.28399 10.3549 6.30078 10.3544H6.59595L6.69116 10.0728C6.70081 10.0344 6.75354 10.0344 6.76477 10.0728ZM4.49597 10.0728L4.59119 10.3544H4.88635C4.9032 10.3549 4.91785 10.3657 4.92322 10.3816C4.92859 10.3975 4.92346 10.4151 4.9104 10.4256L4.67041 10.6024L4.76074 10.884C4.76636 10.9005 4.76038 10.9187 4.74609 10.9286C4.73193 10.9387 4.71277 10.938 4.69922 10.9272L4.45911 10.7552L4.21912 10.9272C4.20533 10.9369 4.18701 10.9369 4.17322 10.9272C4.15942 10.9176 4.15318 10.9003 4.15759 10.884L4.24792 10.6024L4.00793 10.4256C3.99487 10.4151 3.98975 10.3975 3.99512 10.3816C4.00049 10.3657 4.01514 10.3549 4.03198 10.3544H4.33594L4.43115 10.0728C4.43201 10.0344 4.48474 10.0344 4.49597 10.0728ZM3.36157 9.35199L3.45679 9.63361H3.75195C3.7688 9.63403 3.78345 9.6449 3.78882 9.66083C3.79419 9.67676 3.78906 9.69427 3.776 9.70483L3.53601 9.88159L3.62634 10.1632C3.63196 10.1797 3.62598 10.1979 3.61169 10.2079C3.59744 10.2179 3.57842 10.2173 3.56482 10.2064L3.32471 10.0344L3.08472 10.2064C3.07092 10.2161 3.05261 10.2161 3.03882 10.2064C3.02502 10.1968 3.0188 10.1794 3.02319 10.1632L3.11353 9.88159L2.87354 9.70483C2.86047 9.69427 2.85535 9.67676 2.86072 9.66083C2.86609 9.6449 2.88074 9.63403 2.89758 9.63361H3.20154L3.29675 9.35199C3.29761 9.31921 3.35034 9.31921 3.36157 9.35199ZM10.1624 9.35199L10.2576 9.63361H10.5527C10.5696 9.63403 10.5842 9.6449 10.5896 9.66083C10.595 9.67676 10.5898 9.69427 10.5768 9.70483L10.3368 9.88159L10.4271 10.1632C10.4327 10.1797 10.4268 10.1979 10.4126 10.2079C10.3983 10.2179 10.3792 10.2173 10.3656 10.2064L10.1256 10.0344L9.88562 10.2064C9.87183 10.2161 9.85339 10.2161 9.8396 10.2064C9.82581 10.1968 9.81958 10.1794 9.82397 10.1632L9.91431 9.88159L9.67432 9.70483C9.66125 9.69427 9.65613 9.67676 9.6615 9.66083C9.66687 9.6449 9.68152 9.63403 9.69836 9.63361H9.99353L10.0887 9.35199C10.1031 9.31921 10.156 9.31921 10.1624 9.35199ZM1.09351 9.35199L1.18872 9.63361H1.48401C1.50073 9.63403 1.5155 9.6449 1.52087 9.66083C1.52625 9.67676 1.52112 9.69427 1.50793 9.70483L1.26794 9.88159L1.3584 10.1632C1.36389 10.1797 1.35803 10.1979 1.34375 10.2079C1.32947 10.2179 1.3103 10.2173 1.29675 10.2064L1.05676 10.0344L0.816772 10.2064C0.802979 10.2161 0.784546 10.2161 0.770752 10.2064C0.756958 10.1968 0.750732 10.1794 0.755127 10.1632L0.845581 9.88159L0.605591 9.70483C0.592407 9.69427 0.58728 9.67676 0.592651 9.66083C0.598022 9.6449 0.612793 9.63403 0.629517 9.63361H0.933594L1.02881 9.35199C1.03442 9.31921 1.0824 9.31921 1.09351 9.35199ZM7.89355 9.35199L7.98877 9.63361H8.28394C8.30078 9.63403 8.31543 9.6449 8.3208 9.66083C8.32617 9.67676 8.32104 9.69427 8.30798 9.70483L8.06799 9.88159L8.15833 10.1632C8.16394 10.1797 8.15796 10.1979 8.1438 10.2079C8.12952 10.2179 8.11035 10.2173 8.0968 10.2064L7.85681 10.0344L7.61682 10.2064C7.60303 10.2161 7.58459 10.2161 7.5708 10.2064C7.55701 10.1968 7.55078 10.1794 7.55518 10.1632L7.64551 9.88159L7.40552 9.70483C7.39246 9.69427 7.38733 9.67676 7.3927 9.66083C7.39806 9.64491 7.41278 9.63403 7.42957 9.63361H7.72473L7.81995 9.35199C7.83435 9.31919 7.88715 9.31919 7.89355 9.35199ZM5.63037 9.35199L5.72559 9.63361H6.02075C6.0376 9.63403 6.05225 9.6449 6.05762 9.66083C6.06299 9.67676 6.05786 9.69427 6.0448 9.70483L5.80481 9.88159L5.89514 10.1632C5.90076 10.1797 5.89478 10.1979 5.88049 10.2079C5.86633 10.2179 5.84717 10.2173 5.83362 10.2064L5.59351 10.0344L5.35352 10.2064C5.33972 10.2161 5.32141 10.2161 5.30762 10.2064C5.29382 10.1968 5.2876 10.1794 5.29199 10.1632L5.38232 9.88159L5.14233 9.70483C5.12927 9.69427 5.12415 9.67676 5.12952 9.66083C5.13489 9.6449 5.14954 9.63403 5.16638 9.63361H5.47034L5.56555 9.35199C5.56641 9.31921 5.61914 9.31921 5.63037 9.35199ZM2.22791 8.60883L2.32312 8.89038H2.61841C2.63513 8.89081 2.6499 8.90167 2.65527 8.9176C2.66064 8.93353 2.65552 8.95111 2.64233 8.96161L2.40234 9.13843L2.4928 9.41998C2.49829 9.43646 2.49243 9.45471 2.47815 9.46466C2.46387 9.47467 2.4447 9.47406 2.43115 9.4632L2.19116 9.2912L1.95117 9.4632C1.93738 9.4729 1.91895 9.4729 1.90515 9.4632C1.89136 9.45355 1.88513 9.43628 1.88953 9.41998L1.98792 9.14001L1.74792 8.9632C1.73486 8.9527 1.72974 8.93512 1.73511 8.91919C1.74048 8.90332 1.75513 8.89246 1.77197 8.89203H2.06799L2.16321 8.61041C2.16882 8.57043 2.2168 8.57043 2.22791 8.60883ZM8.99121 8.57202C9.01147 8.57202 9.02795 8.5885 9.02795 8.60883L9.12317 8.89038H9.41833C9.43518 8.89081 9.44983 8.90167 9.4552 8.9176C9.46057 8.93353 9.45544 8.95111 9.44238 8.96161L9.20239 9.13843L9.29272 9.41998C9.29834 9.43646 9.29236 9.45471 9.2782 9.46466C9.26392 9.47467 9.24475 9.47406 9.2312 9.4632L8.99121 9.2912L8.75122 9.4632C8.73743 9.47288 8.719 9.47287 8.7052 9.4632C8.69141 9.45355 8.68518 9.43628 8.68958 9.41998L8.77991 9.13843L8.53992 8.96161C8.52686 8.95111 8.52173 8.93353 8.5271 8.9176C8.53246 8.90169 8.54718 8.89081 8.56396 8.89038H8.85913L8.95435 8.60883C8.95435 8.5885 8.97089 8.57202 8.99121 8.57202ZM6.76477 8.60883L6.85999 8.89038H7.15515C7.172 8.89081 7.18665 8.90167 7.19202 8.9176C7.19739 8.93353 7.19226 8.95111 7.1792 8.96161L6.93921 9.13843L7.02954 9.41998C7.03516 9.43646 7.02917 9.45471 7.01489 9.46466C7.00073 9.47467 6.98157 9.47406 6.96802 9.4632L6.72791 9.2912L6.48792 9.4632C6.47412 9.4729 6.45581 9.4729 6.44202 9.4632C6.42822 9.45352 6.42198 9.43625 6.42639 9.41998L6.51672 9.13843L6.27673 8.96161C6.26367 8.95111 6.25854 8.93353 6.26392 8.9176C6.26928 8.90169 6.28399 8.89081 6.30078 8.89038H6.59595L6.69116 8.60883C6.70081 8.57043 6.75354 8.57043 6.76477 8.60883ZM4.49597 8.60883L4.59119 8.89038H4.88635C4.9032 8.89081 4.91785 8.90167 4.92322 8.9176C4.92859 8.93353 4.92346 8.95111 4.9104 8.96161L4.67041 9.13843L4.76074 9.41998C4.76636 9.43646 4.76038 9.45471 4.74609 9.46466C4.73193 9.47467 4.71277 9.47406 4.69922 9.4632L4.45911 9.2912L4.21912 9.4632C4.20532 9.4729 4.18701 9.4729 4.17322 9.4632C4.15942 9.45355 4.1532 9.43628 4.15759 9.41998L4.25598 9.14001L4.01599 8.9632C4.00289 8.95269 3.99769 8.9351 4.00305 8.91919C4.00842 8.90332 4.02319 8.89246 4.03992 8.89203H4.33594L4.43115 8.61041C4.43201 8.57043 4.48474 8.57043 4.49597 8.60883ZM3.36157 7.89282L3.45679 8.17438H3.75195C3.76874 8.1748 3.78345 8.18568 3.78882 8.2016C3.79418 8.21751 3.78911 8.2351 3.776 8.24561L3.53601 8.42242L3.62634 8.70398C3.63196 8.72052 3.62598 8.73871 3.61169 8.74866C3.59753 8.75867 3.57837 8.75806 3.56482 8.74719L3.32471 8.5752L3.08472 8.74719C3.07092 8.7569 3.05261 8.7569 3.03882 8.74725C3.02502 8.73755 3.0188 8.72028 3.02319 8.70398L3.12158 8.42401L2.88159 8.24719C2.86841 8.23669 2.86328 8.21912 2.86865 8.20325C2.87402 8.18733 2.88873 8.17645 2.90552 8.17603H3.20154L3.29675 7.89441C3.29761 7.85443 3.35034 7.85443 3.36157 7.89282ZM10.1289 7.86725C10.1447 7.86686 10.1586 7.87752 10.1624 7.89282L10.2576 8.17438H10.5527C10.5696 8.1748 10.5842 8.18573 10.5896 8.2016C10.595 8.21753 10.5898 8.23511 10.5768 8.24561L10.3368 8.42242L10.4271 8.70398C10.4327 8.72046 10.4268 8.73866 10.4126 8.74866C10.3983 8.75865 10.3792 8.75806 10.3656 8.74719L10.1256 8.5752L9.88562 8.74719C9.87183 8.7569 9.85339 8.7569 9.8396 8.74725C9.82581 8.73755 9.81958 8.72028 9.82397 8.70398L9.92236 8.42401L9.68237 8.24719C9.66931 8.23669 9.66406 8.21912 9.66943 8.20325C9.6748 8.18732 9.68958 8.17645 9.70642 8.17603H10.0016L10.0968 7.89441C10.0997 7.87891 10.1132 7.86761 10.1289 7.86725ZM7.85681 7.85602C7.87708 7.85602 7.89355 7.8725 7.89355 7.89282L7.98877 8.17438H8.28394C8.30078 8.1748 8.31543 8.18573 8.3208 8.2016C8.32617 8.21753 8.32104 8.23511 8.30798 8.24561L8.06799 8.42242L8.15833 8.70398C8.16394 8.72052 8.15796 8.73871 8.1438 8.74866C8.12955 8.75865 8.1104 8.75806 8.0968 8.74719L7.85681 8.5752L7.61682 8.74719C7.60303 8.7569 7.58459 8.7569 7.5708 8.74725C7.55701 8.73755 7.55078 8.72028 7.55518 8.70398L7.64551 8.42242L7.40552 8.24561C7.39246 8.23511 7.38733 8.21753 7.3927 8.2016C7.39807 8.18573 7.41272 8.1748 7.42957 8.17438H7.72473L7.81995 7.89282C7.81995 7.8725 7.83643 7.85602 7.85681 7.85602ZM1.09351 7.89282L1.18872 8.17438H1.48401C1.50073 8.1748 1.5155 8.18573 1.52087 8.2016C1.52625 8.21753 1.52112 8.23511 1.50793 8.24561L1.26794 8.42242L1.3584 8.70398C1.36389 8.72052 1.35803 8.73871 1.34375 8.74866C1.32947 8.75867 1.3103 8.75806 1.29675 8.74719L1.05676 8.5752L0.816772 8.74719C0.802985 8.75688 0.784547 8.75693 0.770752 8.74725C0.756958 8.73755 0.750732 8.72028 0.755127 8.70398L0.853516 8.42401L0.613525 8.24719C0.600464 8.23669 0.595337 8.21912 0.600708 8.20325C0.606079 8.18732 0.620728 8.17645 0.637573 8.17603H0.933594L1.02881 7.89441C1.03442 7.85443 1.0824 7.85443 1.09351 7.89282ZM5.63037 7.89282L5.72559 8.17438H6.02075C6.0376 8.1748 6.05225 8.18573 6.05762 8.2016C6.06299 8.21753 6.05786 8.23511 6.0448 8.24561L5.80481 8.42242L5.89514 8.70398C5.90076 8.72052 5.89478 8.73871 5.88049 8.74866C5.86633 8.75867 5.84717 8.75806 5.83362 8.74719L5.59351 8.5752L5.35352 8.74719C5.33973 8.75688 5.32141 8.75693 5.30762 8.74725C5.29382 8.73755 5.2876 8.72028 5.29199 8.70398L5.38232 8.42242L5.14233 8.24561C5.12923 8.2351 5.12415 8.21751 5.12952 8.2016C5.13489 8.18573 5.14954 8.1748 5.16638 8.17438H5.47034L5.56555 7.89282C5.56641 7.85443 5.61914 7.85443 5.63037 7.89282ZM2.22791 7.14319L2.32312 7.4248H2.61841C2.63513 7.42523 2.6499 7.4361 2.65527 7.45203C2.66064 7.46796 2.65552 7.48547 2.64233 7.49603L2.40234 7.67279L2.4928 7.95441C2.49829 7.97089 2.49243 7.98907 2.47815 7.99908C2.46387 8.00909 2.4447 8.00848 2.43115 7.99762L2.19116 7.82562L1.95117 7.99762C1.93738 8.00726 1.91895 8.00732 1.90515 7.99762C1.89136 7.98798 1.88513 7.97064 1.88953 7.95441L1.97998 7.67279L1.73999 7.49603C1.72681 7.48547 1.72168 7.46796 1.72705 7.45203C1.73242 7.43611 1.74713 7.42523 1.76392 7.4248H2.06799L2.16321 7.14319C2.16882 7.11041 2.2168 7.11041 2.22791 7.14319ZM6.76477 7.14319L6.85999 7.4248H7.15515C7.172 7.42523 7.18665 7.4361 7.19202 7.45203C7.19738 7.46794 7.1923 7.48553 7.1792 7.49603L6.93921 7.67279L7.02954 7.95441C7.03516 7.97089 7.02917 7.98907 7.01489 7.99908C7.00064 8.00908 6.98161 8.00849 6.96802 7.99762L6.72791 7.82562L6.48792 7.99762C6.47412 8.00726 6.45581 8.00732 6.44202 7.99762C6.42822 7.98798 6.422 7.97064 6.42639 7.95441L6.51672 7.67279L6.27673 7.49603C6.26363 7.48553 6.25855 7.46794 6.26392 7.45203C6.26929 7.4361 6.28394 7.42523 6.30078 7.4248H6.59595L6.69116 7.14319C6.70081 7.11041 6.75354 7.11041 6.76477 7.14319ZM4.49597 7.14319L4.59119 7.4248H4.88635C4.9032 7.42523 4.91785 7.4361 4.92322 7.45203C4.92859 7.46796 4.92346 7.48547 4.9104 7.49603L4.67041 7.67279L4.76074 7.95441C4.76636 7.97089 4.76038 7.98907 4.74609 7.99908C4.73193 8.00909 4.71277 8.00848 4.69922 7.99762L4.45911 7.82562L4.21912 7.99762C4.20532 8.00726 4.18701 8.00732 4.17322 7.99762C4.15942 7.98798 4.1532 7.97064 4.15759 7.95441L4.24792 7.67279L4.00793 7.49603C3.99487 7.48547 3.98975 7.46796 3.99512 7.45203C4.00049 7.4361 4.01514 7.42523 4.03198 7.4248H4.33594L4.43115 7.14319C4.43201 7.11041 4.48474 7.11041 4.49597 7.14319ZM9.02795 7.14319L9.12317 7.4248H9.41833C9.43512 7.42523 9.44984 7.43611 9.4552 7.45203C9.46057 7.46796 9.45544 7.48547 9.44238 7.49603L9.20239 7.67279L9.29272 7.95441C9.29834 7.97089 9.29236 7.98907 9.2782 7.99908C9.26395 8.00908 9.2448 8.00849 9.2312 7.99762L8.99121 7.82562L8.75122 7.99762C8.73743 8.00726 8.71899 8.00732 8.7052 7.99762C8.69141 7.98798 8.68518 7.97064 8.68958 7.95441L8.77991 7.67279L8.53992 7.49603C8.52686 7.48547 8.52173 7.46796 8.5271 7.45203C8.53247 7.4361 8.54712 7.42523 8.56396 7.4248H8.85913L8.95435 7.14319C8.96875 7.11041 9.02161 7.11041 9.02795 7.14319ZM5.63037 6.42798L5.72559 6.70959H6.02075C6.0376 6.71002 6.05225 6.72089 6.05762 6.73682C6.06299 6.75275 6.05786 6.77032 6.0448 6.78082L5.80481 6.95758L5.89514 7.2392C5.90076 7.25568 5.89478 7.27386 5.88049 7.28387C5.86633 7.29388 5.84717 7.29327 5.83362 7.28241L5.59351 7.11041L5.35352 7.28241C5.33973 7.2921 5.32141 7.29208 5.30762 7.28241C5.29382 7.27273 5.28758 7.25546 5.29199 7.2392L5.38232 6.95758L5.14233 6.78082C5.12927 6.77032 5.12415 6.75275 5.12952 6.73682C5.13489 6.72089 5.14954 6.71002 5.16638 6.70959H5.47034L5.56555 6.42798C5.56641 6.3952 5.61914 6.3952 5.63037 6.42798ZM1.09351 6.42798L1.18872 6.70959H1.48401C1.50073 6.71002 1.5155 6.72089 1.52087 6.73682C1.52625 6.75275 1.52112 6.77032 1.50793 6.78082L1.26794 6.95758L1.3584 7.2392C1.36389 7.25568 1.35803 7.27386 1.34375 7.28387C1.32947 7.29388 1.3103 7.29327 1.29675 7.28241L1.05676 7.11041L0.816772 7.28241C0.802979 7.29211 0.784546 7.29211 0.770752 7.28241C0.756958 7.27277 0.750732 7.25549 0.755127 7.2392L0.845581 6.95758L0.605591 6.78082C0.592407 6.77032 0.58728 6.75275 0.592651 6.73682C0.598022 6.72089 0.612793 6.71002 0.629517 6.70959H0.933594L1.02881 6.42798C1.03442 6.3952 1.0824 6.3952 1.09351 6.42798ZM3.36475 6.42798L3.45996 6.70959H3.75671C3.77356 6.71002 3.78833 6.72089 3.7937 6.73682C3.79907 6.75273 3.79387 6.77032 3.78076 6.78082L3.54077 6.95758L3.6311 7.2392C3.63672 7.25568 3.63074 7.27386 3.61658 7.28387C3.60229 7.29388 3.58313 7.29327 3.56958 7.28241L3.32959 7.11041L3.0896 7.28241C3.07581 7.29211 3.05737 7.29211 3.04358 7.28241C3.02979 7.27277 3.02356 7.25549 3.02795 7.2392L3.11841 6.95758L2.87842 6.78082C2.86531 6.77032 2.86011 6.75273 2.86548 6.73682C2.87085 6.72089 2.88562 6.71002 2.90234 6.70959H3.19678L3.29199 6.42798C3.29761 6.3952 3.35034 6.3952 3.36475 6.42798ZM7.89355 6.42798L7.98877 6.70959H8.28394C8.30073 6.71002 8.31544 6.7209 8.3208 6.73682C8.32617 6.75275 8.32104 6.77032 8.30798 6.78082L8.06799 6.95758L8.15833 7.2392C8.16394 7.25568 8.15796 7.27386 8.1438 7.28387C8.12952 7.29388 8.11035 7.29327 8.0968 7.28241L7.85681 7.11041L7.61682 7.28241C7.60303 7.29211 7.58459 7.29211 7.5708 7.28241C7.55701 7.27273 7.55077 7.25546 7.55518 7.2392L7.64551 6.95758L7.40552 6.78082C7.39246 6.77032 7.38733 6.75275 7.3927 6.73682C7.39807 6.72089 7.41272 6.71002 7.42957 6.70959H7.72473L7.81995 6.42798C7.83435 6.3952 7.88721 6.3952 7.89355 6.42798ZM10.1624 6.42798L10.2576 6.70959H10.5527C10.5696 6.71002 10.5842 6.72089 10.5896 6.73682C10.595 6.75275 10.5898 6.77032 10.5768 6.78082L10.3368 6.95758L10.4271 7.2392C10.4327 7.25568 10.4268 7.27386 10.4126 7.28387C10.3983 7.29387 10.3792 7.29328 10.3656 7.28241L10.1256 7.11041L9.88562 7.28241C9.87183 7.29211 9.85339 7.29211 9.8396 7.28241C9.82581 7.27277 9.81958 7.25549 9.82397 7.2392L9.91431 6.95758L9.67432 6.78082C9.66125 6.77032 9.65613 6.75275 9.6615 6.73682C9.66687 6.72089 9.68152 6.71002 9.69836 6.70959H9.99353L10.0887 6.42798C10.1031 6.3952 10.156 6.3952 10.1624 6.42798ZM6.76477 5.68402L6.85999 5.96564H7.15515C7.17194 5.96606 7.18665 5.97688 7.19202 5.9928C7.19739 6.00873 7.19226 6.02631 7.1792 6.0368L6.93921 6.21362L7.02954 6.49518C7.03516 6.51172 7.02917 6.52991 7.01489 6.53986C7.00073 6.54987 6.98157 6.54926 6.96802 6.53839L6.72791 6.36639L6.48792 6.53839C6.47412 6.5481 6.45581 6.5481 6.44202 6.53845C6.42822 6.52878 6.42198 6.51144 6.42639 6.49518L6.51672 6.21362L6.27673 6.0368C6.26367 6.02631 6.25854 6.00873 6.26392 5.9928C6.26929 5.97693 6.28394 5.966 6.30078 5.96564H6.59595L6.69116 5.68402C6.70081 5.64563 6.75354 5.64563 6.76477 5.68402ZM4.49597 5.68402L4.59119 5.96564H4.88635C4.9032 5.966 4.91785 5.97693 4.92322 5.9928C4.92859 6.00873 4.92346 6.02631 4.9104 6.0368L4.67041 6.21362L4.76074 6.49518C4.76636 6.51172 4.76038 6.52991 4.74609 6.53986C4.73193 6.54987 4.71277 6.54926 4.69922 6.53839L4.45911 6.36639L4.21912 6.53839C4.20533 6.54808 4.18701 6.54813 4.17322 6.53845C4.15942 6.52875 4.1532 6.51147 4.15759 6.49518L4.25598 6.21521L4.01599 6.03839C4.00281 6.02789 3.99768 6.01031 4.00305 5.99445C4.00842 5.97852 4.02319 5.96765 4.03992 5.96722H4.33594L4.43115 5.68561C4.43195 5.64561 4.48477 5.64562 4.49597 5.68402ZM2.22791 5.68402L2.32312 5.96564H2.61841C2.63513 5.966 2.6499 5.97693 2.65527 5.9928C2.66064 6.00873 2.65552 6.02631 2.64233 6.0368L2.40234 6.21362L2.4928 6.49518C2.49829 6.51172 2.49243 6.52991 2.47815 6.53986C2.46387 6.54987 2.4447 6.54926 2.43115 6.53839L2.19116 6.36639L1.95117 6.53839C1.93738 6.5481 1.91895 6.5481 1.90515 6.53845C1.89136 6.52875 1.88513 6.51147 1.88953 6.49518L1.98792 6.21521L1.74792 6.03839C1.73486 6.02789 1.72974 6.01031 1.73511 5.99445C1.74048 5.97852 1.75513 5.96765 1.77197 5.96722H2.06799L2.16321 5.68561C2.16882 5.64563 2.2168 5.64563 2.22791 5.68402ZM9.00952 5.65216C9.021 5.65869 9.02795 5.67084 9.02795 5.68402L9.12317 5.96564H9.41833C9.43518 5.966 9.44983 5.97693 9.4552 5.9928C9.46057 6.00873 9.45544 6.02631 9.44238 6.0368L9.20239 6.21362L9.29272 6.49518C9.29834 6.51172 9.29236 6.52991 9.2782 6.53986C9.26395 6.54985 9.2448 6.54926 9.2312 6.53839L8.99121 6.36639L8.75122 6.53839C8.73743 6.5481 8.71899 6.5481 8.7052 6.53845C8.69141 6.52875 8.68518 6.51147 8.68958 6.49518L8.77991 6.21362L8.53992 6.0368C8.52686 6.02631 8.52173 6.00873 8.5271 5.9928C8.53247 5.97693 8.54712 5.966 8.56396 5.96564H8.85913L8.95435 5.68402C8.95435 5.67084 8.96143 5.65869 8.97278 5.65216C8.98413 5.64557 8.99817 5.64557 9.00952 5.65216ZM1.09351 4.96881L1.18872 5.25043H1.48401C1.50073 5.25085 1.5155 5.26172 1.52087 5.27759C1.52625 5.29352 1.52112 5.3111 1.50793 5.32159L1.26794 5.49841L1.3584 5.78003C1.36389 5.79651 1.35803 5.8147 1.34375 5.82471C1.32947 5.83466 1.3103 5.83405 1.29675 5.82318L1.05676 5.65118L0.816772 5.82318C0.802979 5.83289 0.784546 5.83289 0.770752 5.82324C0.756958 5.81354 0.750732 5.79626 0.755127 5.78003L0.853516 5.5L0.613525 5.32318C0.600464 5.31268 0.595337 5.2951 0.600708 5.27924C0.606079 5.26331 0.620728 5.25244 0.637573 5.25201H0.933594L1.02881 4.9704C1.03442 4.93042 1.0824 4.93042 1.09351 4.96881ZM3.36157 4.96881L3.45679 5.25043H3.75195C3.7688 5.25085 3.78345 5.26172 3.78882 5.27759C3.79418 5.2935 3.78911 5.31109 3.776 5.32159L3.53601 5.49841L3.62634 5.78003C3.63196 5.79651 3.62598 5.8147 3.61169 5.82471C3.59753 5.83466 3.57837 5.83405 3.56482 5.82318L3.32471 5.65118L3.08472 5.82318C3.07093 5.83287 3.05261 5.83292 3.03882 5.82324C3.02502 5.81354 3.0188 5.79626 3.02319 5.78003L3.12158 5.5L2.88159 5.32318C2.86841 5.31268 2.86328 5.2951 2.86865 5.27924C2.87402 5.26331 2.88879 5.25244 2.90552 5.25201H3.20154L3.29675 4.9704C3.29755 4.9304 3.35037 4.93041 3.36157 4.96881ZM5.63037 4.96881L5.72559 5.25043H6.02075C6.0376 5.25085 6.05225 5.26172 6.05762 5.27759C6.06299 5.29352 6.05786 5.3111 6.0448 5.32159L5.80481 5.49841L5.89514 5.78003C5.90076 5.79651 5.89478 5.8147 5.88049 5.82471C5.86633 5.83466 5.84717 5.83405 5.83362 5.82318L5.59351 5.65118L5.35352 5.82318C5.33973 5.83287 5.32141 5.83292 5.30762 5.82324C5.29382 5.81357 5.28758 5.79629 5.29199 5.78003L5.38232 5.49841L5.14233 5.32159C5.12927 5.3111 5.12415 5.29352 5.12952 5.27759C5.13489 5.26172 5.14954 5.25085 5.16638 5.25043H5.47034L5.56555 4.96881C5.56641 4.93042 5.61914 4.93042 5.63037 4.96881ZM7.87512 4.93695C7.8866 4.94348 7.89355 4.95569 7.89355 4.96881L7.98877 5.25043H8.28394C8.30078 5.25085 8.31543 5.26172 8.3208 5.27759C8.32617 5.29352 8.32104 5.3111 8.30798 5.32159L8.06799 5.49841L8.15833 5.78003C8.16394 5.79651 8.15796 5.8147 8.1438 5.82471C8.12955 5.8347 8.1104 5.83405 8.0968 5.82318L7.85681 5.65118L7.61682 5.82318C7.60303 5.83289 7.58459 5.83289 7.5708 5.82324C7.55701 5.81354 7.55078 5.79626 7.55518 5.78003L7.64551 5.49841L7.40552 5.32159C7.39246 5.3111 7.38733 5.29352 7.3927 5.27759C7.39807 5.26172 7.41272 5.25085 7.42957 5.25043H7.72473L7.81995 4.96881C7.81995 4.95569 7.82703 4.94348 7.83838 4.93695C7.84976 4.93038 7.86374 4.93038 7.87512 4.93695ZM10.1289 4.94324C10.1447 4.94287 10.1586 4.95349 10.1624 4.96881L10.2576 5.25043H10.5527C10.5696 5.25085 10.5842 5.26172 10.5896 5.27759C10.595 5.29352 10.5898 5.3111 10.5768 5.32159L10.3368 5.49841L10.4271 5.78003C10.4327 5.79651 10.4268 5.8147 10.4126 5.82471C10.3983 5.8347 10.3792 5.83405 10.3656 5.82318L10.1256 5.65118L9.88562 5.82318C9.87183 5.83289 9.85339 5.83289 9.8396 5.82324C9.82581 5.81354 9.81958 5.79626 9.82397 5.78003L9.92236 5.5L9.68237 5.32318C9.66931 5.31268 9.66406 5.2951 9.66943 5.27924C9.6748 5.26332 9.68963 5.25244 9.70642 5.25201H10.0016L10.0968 4.9704C10.0997 4.95496 10.1132 4.94366 10.1289 4.94324Z" fill="#F5F5F5"/>
<path fill-rule="evenodd" clip-rule="evenodd" d="M22 5H2C1.44772 5 1 5.44772 1 6V18C1 18.5523 1.44772 19 2 19H22C22.5523 19 23 18.5523 23 18V6C23 5.44771 22.5523 5 22 5ZM2 4C0.895386 4 0 4.89545 0 6V18C0 19.1046 0.895431 20 2 20H22C23.1046 20 24 19.1046 24 18V6C24 4.89543 23.1046 4 22 4H2Z" fill="black" fill-opacity="0.08"/>
<path fill-rule="evenodd" clip-rule="evenodd" d="M10 12H30C31.1046 12 32 12.8954 32 14V26C32 27.1046 31.1046 28 30 28H10C8.89539 28 8 27.1046 8 26V14C8 12.8954 8.89539 12 10 12ZM16.8927 14.8612L16.3928 14.406L16.2792 15.0724L15.824 15.5722L16.4905 15.6858L16.9902 16.141L17.1039 15.4746L17.5591 14.9748L16.8927 14.8612ZM18.5266 16.3139L18.511 16.9898L18.8624 17.5673L18.1865 17.5517L17.6091 17.9031L17.6248 17.2273L17.2732 16.6498L17.9491 16.6654L18.5266 16.3139ZM18.1475 18.9505L17.5416 18.6507L17.6161 19.3227L17.3163 19.9286L17.9882 19.8541L18.5941 20.1539L18.5197 19.482L18.8195 18.8761L18.1475 18.9505ZM17.1302 21.1032L17.1223 20.4272L16.5574 20.7986L15.8815 20.8066L16.2528 21.3715L16.2609 22.0475L16.8257 21.6761L17.5017 21.6681L17.1302 21.1032ZM13.4802 19.0995L11.8623 20.2529L12.4594 18.3578L10.8624 17.1755L12.8492 17.1576L13.4802 15.2735L14.1112 17.1576L16.098 17.1755L14.5012 18.3578L15.0981 20.2529L13.4802 19.0995Z" fill="#F1361D"/>
<path d="M17.1302 21.1032L17.1223 20.4272L16.5574 20.7986L15.8815 20.8066L16.2528 21.3715L16.2609 22.0475L16.8257 21.6761L17.5017 21.6681L17.1302 21.1032Z" fill="#FFDC42"/>
<path d="M18.1475 18.9505L17.5416 18.6507L17.6161 19.3227L17.3163 19.9286L17.9882 19.8541L18.5941 20.1539L18.5197 19.482L18.8195 18.8761L18.1475 18.9505Z" fill="#FFDC42"/>
<path d="M18.511 16.9898L18.5266 16.3139L17.9491 16.6654L17.2732 16.6498L17.6248 17.2273L17.6091 17.9031L18.1865 17.5517L18.8624 17.5673L18.511 16.9898Z" fill="#FFDC42"/>
<path d="M16.8927 14.8612L16.3928 14.406L16.2792 15.0724L15.824 15.5722L16.4905 15.6858L16.9902 16.141L17.1039 15.4746L17.5591 14.9748L16.8927 14.8612Z" fill="#FFDC42"/>
<path d="M11.8623 20.2529L13.4802 19.0995L15.0981 20.2529L14.5012 18.3578L16.098 17.1755L14.1112 17.1576L13.4802 15.2735L12.8492 17.1576L10.8624 17.1755L12.4594 18.3578L11.8623 20.2529Z" fill="#FFDC42"/>
<path fill-rule="evenodd" clip-rule="evenodd" d="M30 13H10C9.44772 13 9 13.4477 9 14V26C9 26.5523 9.44772 27 10 27H30C30.5523 27 31 26.5523 31 26V14C31 13.4477 30.5523 13 30 13ZM10 12C8.89539 12 8 12.8954 8 14V26C8 27.1046 8.89539 28 10 28H30C31.1046 28 32 27.1046 32 26V14C32 12.8954 31.1046 12 30 12H10Z" fill="black" fill-opacity="0.08"/>
</svg>
