<svg width="32" height="32" viewBox="0 0 32 32" fill="none" xmlns="http://www.w3.org/2000/svg">
<rect width="18.68" height="9.83" rx="2" fill="#414652"/>
<path d="M14.0674 8.09654C13.3323 8.09654 12.7877 7.84167 12.4336 7.33192C12.0794 6.82217 11.9023 6.10852 11.9023 5.19097C11.9023 4.27342 12.0794 3.55977 12.4336 3.05002C12.7877 2.54028 13.3323 2.2854 14.0674 2.2854C14.8025 2.2854 15.3472 2.54028 15.7013 3.05002C16.0555 3.55977 16.2325 4.27342 16.2325 5.19097C16.2325 6.10852 16.0555 6.82217 15.7013 7.33192C15.3472 7.84167 14.8025 8.09654 14.0674 8.09654ZM14.0674 7.07436C14.3894 7.07436 14.6121 6.95632 14.7355 6.72022C14.8589 6.48413 14.9206 6.15145 14.9206 5.72218V4.65976C14.9206 4.2305 14.8589 3.89782 14.7355 3.66172C14.6121 3.42563 14.3894 3.30758 14.0674 3.30758C13.7455 3.30758 13.5228 3.42563 13.3994 3.66172C13.276 3.89782 13.2143 4.2305 13.2143 4.65976V5.72218C13.2143 6.15145 13.276 6.48413 13.3994 6.72022C13.5228 6.95632 13.7455 7.07436 14.0674 7.07436Z" fill="white"/>
<path d="M11.0265 3.43633H8.47505L8.35432 5.21509H8.41871C8.47237 5.08095 8.53139 4.96022 8.59578 4.8529C8.66554 4.74022 8.74602 4.64632 8.83724 4.5712C8.92846 4.49071 9.03846 4.429 9.16724 4.38608C9.29602 4.34315 9.44894 4.32169 9.62601 4.32169C9.86747 4.32169 10.0928 4.36193 10.3021 4.44242C10.5114 4.52291 10.6938 4.64095 10.8494 4.79656C11.005 4.9468 11.1284 5.1346 11.2196 5.35997C11.3109 5.57996 11.3565 5.82947 11.3565 6.10849C11.3565 6.39288 11.3082 6.65849 11.2116 6.90531C11.1204 7.14677 10.9809 7.35604 10.7931 7.53311C10.6106 7.71018 10.3853 7.84969 10.117 7.95164C9.84869 8.04823 9.54284 8.09652 9.19943 8.09652C8.92578 8.09652 8.68432 8.06701 8.47505 8.00798C8.26579 7.94896 8.08067 7.87115 7.91969 7.77457C7.75872 7.67262 7.61921 7.55726 7.50116 7.42848C7.38311 7.2997 7.28117 7.16287 7.19531 7.01799L8.07262 6.32581C8.19603 6.54581 8.34359 6.73361 8.5153 6.88922C8.687 7.03946 8.91773 7.11458 9.20748 7.11458C9.49723 7.11458 9.71455 7.03141 9.85942 6.86507C10.0097 6.69873 10.0848 6.47873 10.0848 6.20508V6.14069C10.0848 5.88313 10.0097 5.67923 9.85942 5.52899C9.70918 5.37875 9.5026 5.30363 9.23968 5.30363C9.01968 5.30363 8.83724 5.34924 8.69237 5.44045C8.55286 5.52631 8.44554 5.61216 8.37042 5.69801L7.38043 5.56118L7.5897 2.38196H11.0265V3.43633Z" fill="white"/>
<path d="M6.20226 3.43633H3.65083L3.5301 5.21509H3.59449C3.64815 5.08095 3.70717 4.96022 3.77156 4.8529C3.84132 4.74022 3.92181 4.64632 4.01302 4.5712C4.10424 4.49071 4.21424 4.429 4.34302 4.38608C4.4718 4.34315 4.62472 4.32169 4.80179 4.32169C5.04325 4.32169 5.26862 4.36193 5.47788 4.44242C5.68715 4.52291 5.86958 4.64095 6.02519 4.79656C6.1808 4.9468 6.30421 5.1346 6.39543 5.35997C6.48665 5.57996 6.53226 5.82947 6.53226 6.10849C6.53226 6.39288 6.48397 6.65849 6.38738 6.90531C6.29616 7.14677 6.15665 7.35604 5.96885 7.53311C5.78641 7.71018 5.56105 7.84969 5.29276 7.95164C5.02447 8.04823 4.71862 8.09652 4.37521 8.09652C4.10156 8.09652 3.8601 8.06701 3.65083 8.00798C3.44157 7.94896 3.25645 7.87115 3.09547 7.77457C2.9345 7.67262 2.79499 7.55726 2.67694 7.42848C2.5589 7.2997 2.45695 7.16287 2.37109 7.01799L3.2484 6.32581C3.37181 6.54581 3.51937 6.73361 3.69108 6.88922C3.86278 7.03946 4.09351 7.11458 4.38326 7.11458C4.67301 7.11458 4.89033 7.03141 5.03521 6.86507C5.18545 6.69873 5.26057 6.47873 5.26057 6.20508V6.14069C5.26057 5.88313 5.18545 5.67923 5.03521 5.52899C4.88496 5.37875 4.67838 5.30363 4.41546 5.30363C4.19546 5.30363 4.01302 5.34924 3.86815 5.44045C3.72864 5.52631 3.62132 5.61216 3.5462 5.69801L2.55621 5.56118L2.76548 2.38196H6.20226V3.43633Z" fill="white"/>
<path d="M15.375 17.0186H16.5V23.7686H15.375V31.2686H14.625V23.7686H13.5V17.0186H14.625V15.5186H15.375V17.0186Z" fill="#0AA0B0"/>
<path d="M21 15.5186V20.7686H19.875V23.7686H19.125V20.7686H18V15.5186H21Z" fill="#0AA0B0"/>
<path d="M10.875 22.2686V19.2686H10.125V22.2686H9V28.2686H10.125V29.7686H10.875V28.2686H12V22.2686H10.875Z" fill="#0AA0B0"/>
<path d="M6.375 18.5185H7.5V23.0186H6.375V28.2686H5.625V23.0186H4.5V18.5185H5.625V17.0186H6.375V18.5185Z" fill="#0AA0B0"/>
<path d="M1.875 21.5186H3V24.5186H1.875V26.0185H1.125V24.5186H0V21.5186H1.125V20.0186H1.875V21.5186Z" fill="#0AA0B0"/>
<path d="M26.7071 28L31.4142 23.2929L30 21.8787L27.7071 24.1716L27.7071 6.00001H26.2929L25.7071 6.58575L25.7071 24.1716L23.4142 21.8787L22 23.2929L26.7071 28Z" fill="#FF444F"/>
</svg>
