<svg width="32" height="32" viewBox="0 0 32 32" fill="none" xmlns="http://www.w3.org/2000/svg">
<rect width="18.68" height="9.83" rx="2" fill="#414652"/>
<path d="M14.0674 8.09654C13.3323 8.09654 12.7877 7.84167 12.4336 7.33192C12.0794 6.82217 11.9023 6.10852 11.9023 5.19097C11.9023 4.27342 12.0794 3.55977 12.4336 3.05002C12.7877 2.54028 13.3323 2.2854 14.0674 2.2854C14.8025 2.2854 15.3472 2.54028 15.7013 3.05002C16.0555 3.55977 16.2325 4.27342 16.2325 5.19097C16.2325 6.10852 16.0555 6.82217 15.7013 7.33192C15.3472 7.84167 14.8025 8.09654 14.0674 8.09654ZM14.0674 7.07436C14.3894 7.07436 14.6121 6.95632 14.7355 6.72022C14.8589 6.48413 14.9206 6.15145 14.9206 5.72218V4.65976C14.9206 4.2305 14.8589 3.89782 14.7355 3.66172C14.6121 3.42563 14.3894 3.30758 14.0674 3.30758C13.7455 3.30758 13.5228 3.42563 13.3994 3.66172C13.276 3.89782 13.2143 4.2305 13.2143 4.65976V5.72218C13.2143 6.15145 13.276 6.48413 13.3994 6.72022C13.5228 6.95632 13.7455 7.07436 14.0674 7.07436Z" fill="white"/>
<path d="M9.24322 8.09654C8.50811 8.09654 7.96348 7.84167 7.60934 7.33192C7.2552 6.82217 7.07812 6.10852 7.07812 5.19097C7.07812 4.27342 7.2552 3.55977 7.60934 3.05002C7.96348 2.54028 8.50811 2.2854 9.24322 2.2854C9.97833 2.2854 10.523 2.54028 10.8771 3.05002C11.2312 3.55977 11.4083 4.27342 11.4083 5.19097C11.4083 6.10852 11.2312 6.82217 10.8771 7.33192C10.523 7.84167 9.97833 8.09654 9.24322 8.09654ZM9.24322 7.07436C9.56517 7.07436 9.78785 6.95632 9.91126 6.72022C10.0347 6.48413 10.0964 6.15145 10.0964 5.72218V4.65976C10.0964 4.2305 10.0347 3.89782 9.91126 3.66172C9.78785 3.42563 9.56517 3.30758 9.24322 3.30758C8.92127 3.30758 8.69859 3.42563 8.57518 3.66172C8.45177 3.89782 8.39006 4.2305 8.39006 4.65976V5.72218C8.39006 6.15145 8.45177 6.48413 8.57518 6.72022C8.69859 6.95632 8.92127 7.07436 9.24322 7.07436Z" fill="white"/>
<path d="M4.71313 7.99993V6.92141H2.24219V5.89118L4.43143 2.38196H5.86409V5.98776H6.57237V6.92141H5.86409V7.99993H4.71313ZM3.20803 5.98776H4.71313V3.6295H4.63264L3.20803 5.98776Z" fill="white"/>
<path d="M15.375 17.0186H16.5V23.7686H15.375V31.2686H14.625V23.7686H13.5V17.0186H14.625V15.5186H15.375V17.0186Z" fill="#0AA0B0"/>
<path d="M21 15.5186V20.7686H19.875V23.7686H19.125V20.7686H18V15.5186H21Z" fill="#0AA0B0"/>
<path d="M10.875 22.2686V19.2686H10.125V22.2686H9V28.2686H10.125V29.7686H10.875V28.2686H12V22.2686H10.875Z" fill="#0AA0B0"/>
<path d="M6.375 18.5185H7.5V23.0186H6.375V28.2686H5.625V23.0186H4.5V18.5185H5.625V17.0186H6.375V18.5185Z" fill="#0AA0B0"/>
<path d="M1.875 21.5186H3V24.5186H1.875V26.0185H1.125V24.5186H0V21.5186H1.125V20.0186H1.875V21.5186Z" fill="#0AA0B0"/>
<path d="M26.7071 28L31.4142 23.2929L30 21.8787L27.7071 24.1716L27.7071 6.00001H26.2929L25.7071 6.58575L25.7071 24.1716L23.4142 21.8787L22 23.2929L26.7071 28Z" fill="#FF444F"/>
</svg>
