<svg width="32" height="32" viewBox="0 0 32 32" fill="none" xmlns="http://www.w3.org/2000/svg">
<rect width="18.68" height="9.83" rx="2" fill="#414652"/>
<path d="M3.33608 8L5.21947 3.36396H3.46486V4.38614H2.44268V2.38203H6.41872V3.42835L4.60777 8H3.33608ZM11.0275 3.4364H8.47604L8.35531 5.21516H8.4197C8.47336 5.08101 8.53238 4.96028 8.59677 4.85297C8.66652 4.74029 8.74701 4.64639 8.83823 4.57126C8.92945 4.49078 9.03945 4.42907 9.16823 4.38614C9.297 4.34322 9.44993 4.32176 9.627 4.32176C9.86846 4.32176 10.0938 4.362 10.3031 4.44249C10.5124 4.52297 10.6948 4.64102 10.8504 4.79663C11.006 4.94687 11.1294 5.13467 11.2206 5.36003C11.3119 5.58003 11.3575 5.82954 11.3575 6.10856C11.3575 6.39295 11.3092 6.65855 11.2126 6.90538C11.1214 7.14684 10.9819 7.35611 10.7941 7.53318C10.6116 7.71025 10.3863 7.84976 10.118 7.95171C9.84968 8.04829 9.54383 8.09658 9.20042 8.09658C8.92676 8.09658 8.6853 8.06707 8.47604 8.00805C8.26677 7.94903 8.08165 7.87122 7.92068 7.77464C7.75971 7.67269 7.6202 7.55732 7.50215 7.42854C7.3841 7.29977 7.28215 7.16294 7.1963 7.01806L8.07361 6.32588C8.19702 6.54587 8.34458 6.73368 8.51628 6.88928C8.68799 7.03952 8.91872 7.11465 9.20847 7.11465C9.49822 7.11465 9.71554 7.03148 9.86041 6.86514C10.0107 6.6988 10.0858 6.4788 10.0858 6.20515V6.14076C10.0858 5.8832 10.0107 5.6793 9.86041 5.52906C9.71017 5.37881 9.50359 5.30369 9.24066 5.30369C9.02067 5.30369 8.83823 5.3493 8.69335 5.44052C8.55384 5.52637 8.44653 5.61223 8.37141 5.69808L7.38142 5.56125L7.59068 2.38203H11.0275V3.4364ZM14.0667 8.09658C13.3316 8.09658 12.787 7.84171 12.4328 7.33196C12.0787 6.82221 11.9016 6.10856 11.9016 5.19101C11.9016 4.27346 12.0787 3.55981 12.4328 3.05007C12.787 2.54032 13.3316 2.28544 14.0667 2.28544C14.8018 2.28544 15.3465 2.54032 15.7006 3.05007C16.0547 3.55981 16.2318 4.27346 16.2318 5.19101C16.2318 6.10856 16.0547 6.82221 15.7006 7.33196C15.3465 7.84171 14.8018 8.09658 14.0667 8.09658ZM14.0667 7.0744C14.3887 7.0744 14.6114 6.95636 14.7348 6.72026C14.8582 6.48417 14.9199 6.15149 14.9199 5.72222V4.6598C14.9199 4.23054 14.8582 3.89786 14.7348 3.66176C14.6114 3.42567 14.3887 3.30762 14.0667 3.30762C13.7448 3.30762 13.5221 3.42567 13.3987 3.66176C13.2753 3.89786 13.2136 4.23054 13.2136 4.6598V5.72222C13.2136 6.15149 13.2753 6.48417 13.3987 6.72026C13.5221 6.95636 13.7448 7.0744 14.0667 7.0744Z" fill="white"/>
<path d="M15.375 17.0186H16.5V23.7686H15.375V31.2686H14.625V23.7686H13.5V17.0186H14.625V15.5186H15.375V17.0186Z" fill="#0AA0B0"/>
<path d="M21 15.5186V20.7686H19.875V23.7686H19.125V20.7686H18V15.5186H21Z" fill="#0AA0B0"/>
<path d="M10.875 22.2686V19.2686H10.125V22.2686H9V28.2686H10.125V29.7686H10.875V28.2686H12V22.2686H10.875Z" fill="#0AA0B0"/>
<path d="M6.375 18.5185H7.5V23.0186H6.375V28.2686H5.625V23.0186H4.5V18.5185H5.625V17.0186H6.375V18.5185Z" fill="#0AA0B0"/>
<path d="M1.875 21.5186H3V24.5186H1.875V26.0185H1.125V24.5186H0V21.5186H1.125V20.0186H1.875V21.5186Z" fill="#0AA0B0"/>
<path d="M26.7071 28L31.4142 23.2929L30 21.8787L27.7071 24.1716L27.7071 6.00001H26.2929L25.7071 6.58575L25.7071 24.1716L23.4142 21.8787L22 23.2929L26.7071 28Z" fill="#FF444F"/>
</svg>
