<svg width="32" height="32" viewBox="0 0 32 32" fill="none" xmlns="http://www.w3.org/2000/svg">
<rect width="18.68" height="9.83" rx="2" fill="#414652"/>
<path d="M14.0635 8.09654C13.3284 8.09654 12.7838 7.84167 12.4297 7.33192C12.0755 6.82217 11.8984 6.10852 11.8984 5.19097C11.8984 4.27342 12.0755 3.55977 12.4297 3.05002C12.7838 2.54028 13.3284 2.2854 14.0635 2.2854C14.7986 2.2854 15.3433 2.54028 15.6974 3.05002C16.0516 3.55977 16.2286 4.27342 16.2286 5.19097C16.2286 6.10852 16.0516 6.82217 15.6974 7.33192C15.3433 7.84167 14.7986 8.09654 14.0635 8.09654ZM14.0635 7.07436C14.3855 7.07436 14.6082 6.95632 14.7316 6.72022C14.855 6.48413 14.9167 6.15145 14.9167 5.72218V4.65976C14.9167 4.2305 14.855 3.89782 14.7316 3.66172C14.6082 3.42563 14.3855 3.30758 14.0635 3.30758C13.7416 3.30758 13.5189 3.42563 13.3955 3.66172C13.2721 3.89782 13.2104 4.2305 13.2104 4.65976V5.72218C13.2104 6.15145 13.2721 6.48413 13.3955 6.72022C13.5189 6.95632 13.7416 7.07436 14.0635 7.07436Z" fill="white"/>
<path d="M11.0265 3.43633H8.47505L8.35432 5.21509H8.41871C8.47237 5.08095 8.53139 4.96022 8.59578 4.8529C8.66554 4.74022 8.74602 4.64632 8.83724 4.5712C8.92846 4.49071 9.03846 4.429 9.16724 4.38608C9.29602 4.34315 9.44894 4.32169 9.62601 4.32169C9.86747 4.32169 10.0928 4.36193 10.3021 4.44242C10.5114 4.52291 10.6938 4.64095 10.8494 4.79656C11.005 4.9468 11.1284 5.1346 11.2196 5.35997C11.3109 5.57996 11.3565 5.82947 11.3565 6.10849C11.3565 6.39288 11.3082 6.65849 11.2116 6.90531C11.1204 7.14677 10.9809 7.35604 10.7931 7.53311C10.6106 7.71018 10.3853 7.84969 10.117 7.95164C9.84869 8.04823 9.54284 8.09652 9.19943 8.09652C8.92578 8.09652 8.68432 8.06701 8.47505 8.00798C8.26579 7.94896 8.08067 7.87115 7.91969 7.77457C7.75872 7.67262 7.61921 7.55726 7.50116 7.42848C7.38311 7.2997 7.28117 7.16287 7.19531 7.01799L8.07262 6.32581C8.19603 6.54581 8.34359 6.73361 8.5153 6.88922C8.687 7.03946 8.91773 7.11458 9.20748 7.11458C9.49723 7.11458 9.71455 7.03141 9.85942 6.86507C10.0097 6.69873 10.0848 6.47873 10.0848 6.20508V6.14069C10.0848 5.88313 10.0097 5.67923 9.85942 5.52899C9.70918 5.37875 9.5026 5.30363 9.23968 5.30363C9.01968 5.30363 8.83724 5.34924 8.69237 5.44045C8.55286 5.52631 8.44554 5.61216 8.37042 5.69801L7.38043 5.56118L7.5897 2.38196H11.0265V3.43633Z" fill="white"/>
<path d="M3.33481 7.99993L5.2182 3.3639H3.46359V4.38608H2.44141V2.38196H6.41745V3.42829L4.6065 7.99993H3.33481Z" fill="white"/>
<path d="M26.7071 5L31.4142 9.70711L30 11.1213L27.7071 8.82843L27.7071 27H26.2929L25.7071 26.4142L25.7071 8.82843L23.4142 11.1213L22 9.70711L26.7071 5Z" fill="#0AA0B0"/>
<path d="M15.375 17.0186H16.5V23.7686H15.375V31.2686H14.625V23.7686H13.5V17.0186H14.625V15.5186H15.375V17.0186Z" fill="#0AA0B0"/>
<path d="M21 15.5186V20.7686H19.875V23.7686H19.125V20.7686H18V15.5186H21Z" fill="#0AA0B0"/>
<path d="M10.875 22.2686V19.2686H10.125V22.2686H9V28.2686H10.125V29.7686H10.875V28.2686H12V22.2686H10.875Z" fill="#0AA0B0"/>
<path d="M6.375 18.5185H7.5V23.0186H6.375V28.2686H5.625V23.0186H4.5V18.5185H5.625V17.0186H6.375V18.5185Z" fill="#0AA0B0"/>
<path d="M1.875 21.5186H3V24.5186H1.875V26.0185H1.125V24.5186H0V21.5186H1.125V20.0186H1.875V21.5186Z" fill="#0AA0B0"/>
</svg>
