<svg width="32" height="32" viewBox="0 0 32 32" fill="none" xmlns="http://www.w3.org/2000/svg">
<path d="M22.5 13.0001H24V22H22.5V32H21.5V22H20V13.0001H21.5V11.0001H22.5V13.0001Z" fill="#0AA0B0"/>
<path d="M30 11V18H28.5V22H27.5V18H26V11H30Z" fill="#0AA0B0"/>
<path d="M16.5 20V16H15.5V20H14V28H15.5V30H16.5V28H18V20H16.5Z" fill="#0AA0B0"/>
<path d="M10.5 15H12V21H10.5V28H9.5V21H8V15H9.5V13H10.5V15Z" fill="#0AA0B0"/>
<path d="M4.5 19H6V23H4.5V25H3.5V23H2V19H3.5V17H4.5V19Z" fill="#0AA0B0"/>
<path d="M9.50156 7.08001C9.82156 7.08001 10.0429 6.96267 10.1656 6.72801C10.2882 6.49334 10.3496 6.16267 10.3496 5.73601V4.68001C10.3496 4.25334 10.2882 3.92267 10.1656 3.68801C10.0429 3.45334 9.82156 3.33601 9.50156 3.33601C9.18156 3.33601 8.96023 3.45334 8.83756 3.68801C8.7149 3.92267 8.65356 4.25334 8.65356 4.68001V5.73601C8.65356 6.16267 8.7149 6.49334 8.83756 6.72801C8.96023 6.96267 9.18156 7.08001 9.50156 7.08001Z" fill="#414652"/>
<path d="M14.9624 6.72801C14.8398 6.96267 14.6184 7.08001 14.2984 7.08001C13.9784 7.08001 13.7571 6.96267 13.6344 6.72801C13.5118 6.49334 13.4504 6.16267 13.4504 5.73601V4.68001C13.4504 4.25334 13.5118 3.92267 13.6344 3.68801C13.7571 3.45334 13.9784 3.33601 14.2984 3.33601C14.6184 3.33601 14.8398 3.45334 14.9624 3.68801C15.0851 3.92267 15.1464 4.25334 15.1464 4.68001V5.73601C15.1464 6.16267 15.0851 6.49334 14.9624 6.72801Z" fill="#414652"/>
<path fill-rule="evenodd" clip-rule="evenodd" d="M2 0C0.895431 0 0 0.89543 0 2V8C0 9.10457 0.895431 10 2 10H17C18.1046 10 19 9.10457 19 8V2C19 0.895431 18.1046 0 17 0H2ZM9.50156 8.09601C8.77089 8.09601 8.22956 7.84267 7.87756 7.33601C7.52556 6.82934 7.34956 6.12001 7.34956 5.20801C7.34956 4.29601 7.52556 3.58667 7.87756 3.08001C8.22956 2.57334 8.77089 2.32001 9.50156 2.32001C10.2322 2.32001 10.7736 2.57334 11.1256 3.08001C11.4776 3.58667 11.6536 4.29601 11.6536 5.20801C11.6536 6.12001 11.4776 6.82934 11.1256 7.33601C10.7736 7.84267 10.2322 8.09601 9.50156 8.09601ZM3.05669 8.00001V7.03201H4.56069V3.28801H4.48869L3.35269 4.77601L2.58469 4.17601L3.92069 2.41601H5.76069V7.03201H6.94469V8.00001H3.05669ZM12.6744 7.33601C13.0264 7.84267 13.5678 8.09601 14.2984 8.09601C15.0291 8.09601 15.5704 7.84267 15.9224 7.33601C16.2744 6.82934 16.4504 6.12001 16.4504 5.20801C16.4504 4.29601 16.2744 3.58667 15.9224 3.08001C15.5704 2.57334 15.0291 2.32001 14.2984 2.32001C13.5678 2.32001 13.0264 2.57334 12.6744 3.08001C12.3224 3.58667 12.1464 4.29601 12.1464 5.20801C12.1464 6.12001 12.3224 6.82934 12.6744 7.33601Z" fill="#414652"/>
<path d="M3.05669 8.00001V7.03201H4.56069V3.28801H4.48869L3.35269 4.77601L2.58469 4.17601L3.92069 2.41601H5.76069V7.03201H6.94469V8.00001H3.05669Z" fill="white"/>
<path d="M9.50156 8.09601C8.77089 8.09601 8.22956 7.84267 7.87756 7.33601C7.52556 6.82934 7.34956 6.12001 7.34956 5.20801C7.34956 4.29601 7.52556 3.58667 7.87756 3.08001C8.22956 2.57334 8.77089 2.32001 9.50156 2.32001C10.2322 2.32001 10.7736 2.57334 11.1256 3.08001C11.4776 3.58667 11.6536 4.29601 11.6536 5.20801C11.6536 6.12001 11.4776 6.82934 11.1256 7.33601C10.7736 7.84267 10.2322 8.09601 9.50156 8.09601ZM9.50156 7.08001C9.82156 7.08001 10.0429 6.96267 10.1656 6.72801C10.2882 6.49334 10.3496 6.16267 10.3496 5.73601V4.68001C10.3496 4.25334 10.2882 3.92267 10.1656 3.68801C10.0429 3.45334 9.82156 3.33601 9.50156 3.33601C9.18156 3.33601 8.96023 3.45334 8.83756 3.68801C8.7149 3.92267 8.65356 4.25334 8.65356 4.68001V5.73601C8.65356 6.16267 8.7149 6.49334 8.83756 6.72801C8.96023 6.96267 9.18156 7.08001 9.50156 7.08001Z" fill="white"/>
<path d="M14.2984 8.09601C13.5678 8.09601 13.0264 7.84267 12.6744 7.33601C12.3224 6.82934 12.1464 6.12001 12.1464 5.20801C12.1464 4.29601 12.3224 3.58667 12.6744 3.08001C13.0264 2.57334 13.5678 2.32001 14.2984 2.32001C15.0291 2.32001 15.5704 2.57334 15.9224 3.08001C16.2744 3.58667 16.4504 4.29601 16.4504 5.20801C16.4504 6.12001 16.2744 6.82934 15.9224 7.33601C15.5704 7.84267 15.0291 8.09601 14.2984 8.09601ZM14.2984 7.08001C14.6184 7.08001 14.8398 6.96267 14.9624 6.72801C15.0851 6.49334 15.1464 6.16267 15.1464 5.73601V4.68001C15.1464 4.25334 15.0851 3.92267 14.9624 3.68801C14.8398 3.45334 14.6184 3.33601 14.2984 3.33601C13.9784 3.33601 13.7571 3.45334 13.6344 3.68801C13.5118 3.92267 13.4504 4.25334 13.4504 4.68001V5.73601C13.4504 6.16267 13.5118 6.49334 13.6344 6.72801C13.7571 6.96267 13.9784 7.08001 14.2984 7.08001Z" fill="white"/>
</svg>
