<svg width="32" height="32" viewBox="0 0 32 32" fill="none" xmlns="http://www.w3.org/2000/svg">
<path d="M22.5 13.0001H24V22H22.5V32H21.5V22H20V13.0001H21.5V11.0001H22.5V13.0001Z" fill="#0AA0B0"/>
<path d="M30 11V18H28.5V22H27.5V18H26V11H30Z" fill="#0AA0B0"/>
<path d="M16.5 20V16H15.5V20H14V28H15.5V30H16.5V28H18V20H16.5Z" fill="#0AA0B0"/>
<path d="M10.5 15H12V21H10.5V28H9.5V21H8V15H9.5V13H10.5V15Z" fill="#0AA0B0"/>
<path d="M4.5 19H6V23H4.5V25H3.5V23H2V19H3.5V17H4.5V19Z" fill="#0AA0B0"/>
<path d="M10.064 6.72801C9.94136 6.96267 9.72003 7.08001 9.40003 7.08001C9.08003 7.08001 8.8587 6.96267 8.73603 6.72801C8.61336 6.49334 8.55203 6.16267 8.55203 5.73601V4.68001C8.55203 4.25334 8.61336 3.92267 8.73603 3.68801C8.8587 3.45334 9.08003 3.33601 9.40003 3.33601C9.72003 3.33601 9.94136 3.45334 10.064 3.68801C10.1867 3.92267 10.248 4.25334 10.248 4.68001V5.73601C10.248 6.16267 10.1867 6.49334 10.064 6.72801Z" fill="#414652"/>
<path fill-rule="evenodd" clip-rule="evenodd" d="M2 0C0.895431 0 0 0.89543 0 2V8C0 9.10457 0.89543 10 2 10H12C13.1046 10 14 9.10457 14 8V2C14 0.895431 13.1046 0 12 0H2ZM7.77603 7.33601C8.12803 7.84267 8.66936 8.09601 9.40003 8.09601C10.1307 8.09601 10.672 7.84267 11.024 7.33601C11.376 6.82934 11.552 6.12001 11.552 5.20801C11.552 4.29601 11.376 3.58667 11.024 3.08001C10.672 2.57334 10.1307 2.32001 9.40003 2.32001C8.66936 2.32001 8.12803 2.57334 7.77603 3.08001C7.42403 3.58667 7.24803 4.29601 7.24803 5.20801C7.24803 6.12001 7.42403 6.82934 7.77603 7.33601ZM2.95515 7.03201V8.00001H6.84315V7.03201H5.65915V2.41601H3.81915L2.48315 4.17601L3.25115 4.77601L4.38715 3.28801H4.45915V7.03201H2.95515Z" fill="#414652"/>
<path d="M2.95515 8.00001V7.03201H4.45915V3.28801H4.38715L3.25115 4.77601L2.48315 4.17601L3.81915 2.41601H5.65915V7.03201H6.84315V8.00001H2.95515Z" fill="white"/>
<path d="M9.40003 8.09601C8.66936 8.09601 8.12803 7.84267 7.77603 7.33601C7.42403 6.82934 7.24803 6.12001 7.24803 5.20801C7.24803 4.29601 7.42403 3.58667 7.77603 3.08001C8.12803 2.57334 8.66936 2.32001 9.40003 2.32001C10.1307 2.32001 10.672 2.57334 11.024 3.08001C11.376 3.58667 11.552 4.29601 11.552 5.20801C11.552 6.12001 11.376 6.82934 11.024 7.33601C10.672 7.84267 10.1307 8.09601 9.40003 8.09601ZM9.40003 7.08001C9.72003 7.08001 9.94136 6.96267 10.064 6.72801C10.1867 6.49334 10.248 6.16267 10.248 5.73601V4.68001C10.248 4.25334 10.1867 3.92267 10.064 3.68801C9.94136 3.45334 9.72003 3.33601 9.40003 3.33601C9.08003 3.33601 8.8587 3.45334 8.73603 3.68801C8.61336 3.92267 8.55203 4.25334 8.55203 4.68001V5.73601C8.55203 6.16267 8.61336 6.49334 8.73603 6.72801C8.8587 6.96267 9.08003 7.08001 9.40003 7.08001Z" fill="white"/>
</svg>
