<svg width="32" height="32" viewBox="0 0 32 32" fill="none" xmlns="http://www.w3.org/2000/svg">
<path d="M22.5 13.0001H24V22H22.5V32H21.5V22H20V13.0001H21.5V11.0001H22.5V13.0001Z" fill="#0AA0B0"/>
<path d="M30 11V18H28.5V22H27.5V18H26V11H30Z" fill="#0AA0B0"/>
<path d="M16.5 20V16H15.5V20H14V28H15.5V30H16.5V28H18V20H16.5Z" fill="#0AA0B0"/>
<path d="M10.5 15H12V21H10.5V28H9.5V21H8V15H9.5V13H10.5V15Z" fill="#0AA0B0"/>
<path d="M4.5 19H6V23H4.5V25H3.5V23H2V19H3.5V17H4.5V19Z" fill="#0AA0B0"/>
<path d="M9.50155 7.08001C9.82155 7.08001 10.0429 6.96267 10.1656 6.72801C10.2882 6.49334 10.3496 6.16267 10.3496 5.73601V4.68001C10.3496 4.25334 10.2882 3.92267 10.1656 3.68801C10.0429 3.45334 9.82155 3.33601 9.50155 3.33601C9.18155 3.33601 8.96022 3.45334 8.83755 3.68801C8.71489 3.92267 8.65355 4.25334 8.65355 4.68001V5.73601C8.65355 6.16267 8.71489 6.49334 8.83755 6.72801C8.96022 6.96267 9.18155 7.08001 9.50155 7.08001Z" fill="#414652"/>
<path d="M14.9624 6.72801C14.8398 6.96267 14.6184 7.08001 14.2984 7.08001C13.9784 7.08001 13.7571 6.96267 13.6344 6.72801C13.5118 6.49334 13.4504 6.16267 13.4504 5.73601V4.68001C13.4504 4.25334 13.5118 3.92267 13.6344 3.68801C13.7571 3.45334 13.9784 3.33601 14.2984 3.33601C14.6184 3.33601 14.8398 3.45334 14.9624 3.68801C15.0851 3.92267 15.1464 4.25334 15.1464 4.68001V5.73601C15.1464 6.16267 15.0851 6.49334 14.9624 6.72801Z" fill="#414652"/>
<path fill-rule="evenodd" clip-rule="evenodd" d="M2 0C0.895431 0 0 0.89543 0 2V8C0 9.10457 0.895431 10 2 10H17C18.1046 10 19 9.10457 19 8V2C19 0.895431 18.1046 0 17 0H2ZM4.40068 4.62401C4.69935 4.62401 4.91535 4.56801 5.04868 4.45601C5.18735 4.33867 5.25668 4.19467 5.25668 4.02401V3.96801C5.25668 3.76534 5.19001 3.60267 5.05668 3.48001C4.92868 3.35734 4.74468 3.29601 4.50468 3.29601C4.28068 3.29601 4.07001 3.35467 3.87268 3.47201C3.67534 3.58401 3.50734 3.74667 3.36868 3.96001L2.61668 3.25601C2.72334 3.11734 2.83801 2.99201 2.96068 2.88001C3.08334 2.76267 3.22201 2.66401 3.37668 2.58401C3.53134 2.49867 3.70468 2.43467 3.89668 2.39201C4.08868 2.34401 4.30468 2.32001 4.54468 2.32001C4.84334 2.32001 5.11268 2.35467 5.35268 2.42401C5.59801 2.49334 5.80601 2.59467 5.97668 2.72801C6.15268 2.85601 6.28601 3.01067 6.37668 3.19201C6.47268 3.37334 6.52068 3.57601 6.52068 3.80001C6.52068 3.97601 6.49134 4.13601 6.43268 4.28001C6.37934 4.42401 6.30201 4.54934 6.20068 4.65601C6.10468 4.76267 5.99268 4.85067 5.86468 4.92001C5.73668 4.98401 5.60068 5.02934 5.45668 5.05601V5.10401C5.62201 5.13601 5.77401 5.18934 5.91268 5.26401C6.05668 5.33334 6.17934 5.42401 6.28068 5.53601C6.38734 5.64801 6.47001 5.78134 6.52868 5.93601C6.58734 6.08534 6.61668 6.25601 6.61668 6.44801C6.61668 6.69867 6.56601 6.92534 6.46468 7.12801C6.36335 7.33067 6.21935 7.50401 6.03268 7.64801C5.84601 7.79201 5.62201 7.90401 5.36068 7.98401C5.09935 8.05867 4.81135 8.09601 4.49668 8.09601C4.21401 8.09601 3.96335 8.06668 3.74468 8.00801C3.52601 7.94934 3.33401 7.87201 3.16868 7.77601C3.00868 7.67467 2.86734 7.56001 2.74468 7.43201C2.62734 7.30401 2.52334 7.16801 2.43268 7.02401L3.32068 6.33601C3.44335 6.56534 3.59268 6.75467 3.76868 6.90401C3.95001 7.04801 4.19268 7.12001 4.49668 7.12001C4.76868 7.12001 4.97935 7.05334 5.12868 6.92001C5.28335 6.78134 5.36068 6.59467 5.36068 6.36001V6.31201C5.36068 6.08267 5.27268 5.91201 5.09668 5.80001C4.92601 5.68267 4.68868 5.62401 4.38468 5.62401H3.88068V4.62401H4.40068ZM9.50155 8.09601C8.77089 8.09601 8.22955 7.84267 7.87755 7.33601C7.52555 6.82934 7.34955 6.12001 7.34955 5.20801C7.34955 4.29601 7.52555 3.58667 7.87755 3.08001C8.22955 2.57334 8.77089 2.32001 9.50155 2.32001C10.2322 2.32001 10.7736 2.57334 11.1256 3.08001C11.4776 3.58667 11.6536 4.29601 11.6536 5.20801C11.6536 6.12001 11.4776 6.82934 11.1256 7.33601C10.7736 7.84267 10.2322 8.09601 9.50155 8.09601ZM12.6744 7.33601C13.0264 7.84267 13.5678 8.09601 14.2984 8.09601C15.0291 8.09601 15.5704 7.84267 15.9224 7.33601C16.2744 6.82934 16.4504 6.12001 16.4504 5.20801C16.4504 4.29601 16.2744 3.58667 15.9224 3.08001C15.5704 2.57334 15.0291 2.32001 14.2984 2.32001C13.5678 2.32001 13.0264 2.57334 12.6744 3.08001C12.3224 3.58667 12.1464 4.29601 12.1464 5.20801C12.1464 6.12001 12.3224 6.82934 12.6744 7.33601Z" fill="#414652"/>
<path d="M4.40068 4.62401C4.69935 4.62401 4.91535 4.56801 5.04868 4.45601C5.18735 4.33867 5.25668 4.19467 5.25668 4.02401V3.96801C5.25668 3.76534 5.19001 3.60267 5.05668 3.48001C4.92868 3.35734 4.74468 3.29601 4.50468 3.29601C4.28068 3.29601 4.07001 3.35467 3.87268 3.47201C3.67534 3.58401 3.50734 3.74667 3.36868 3.96001L2.61668 3.25601C2.72334 3.11734 2.83801 2.99201 2.96068 2.88001C3.08334 2.76267 3.22201 2.66401 3.37668 2.58401C3.53134 2.49867 3.70468 2.43467 3.89668 2.39201C4.08868 2.34401 4.30468 2.32001 4.54468 2.32001C4.84334 2.32001 5.11268 2.35467 5.35268 2.42401C5.59801 2.49334 5.80601 2.59467 5.97668 2.72801C6.15268 2.85601 6.28601 3.01067 6.37668 3.19201C6.47268 3.37334 6.52068 3.57601 6.52068 3.80001C6.52068 3.97601 6.49134 4.13601 6.43268 4.28001C6.37934 4.42401 6.30201 4.54934 6.20068 4.65601C6.10468 4.76267 5.99268 4.85067 5.86468 4.92001C5.73668 4.98401 5.60068 5.02934 5.45668 5.05601V5.10401C5.62201 5.13601 5.77401 5.18934 5.91268 5.26401C6.05668 5.33334 6.17934 5.42401 6.28068 5.53601C6.38734 5.64801 6.47001 5.78134 6.52868 5.93601C6.58734 6.08534 6.61668 6.25601 6.61668 6.44801C6.61668 6.69867 6.56601 6.92534 6.46468 7.12801C6.36335 7.33067 6.21935 7.50401 6.03268 7.64801C5.84601 7.79201 5.62201 7.90401 5.36068 7.98401C5.09935 8.05867 4.81135 8.09601 4.49668 8.09601C4.21401 8.09601 3.96335 8.06668 3.74468 8.00801C3.52601 7.94934 3.33401 7.87201 3.16868 7.77601C3.00868 7.67467 2.86734 7.56001 2.74468 7.43201C2.62734 7.30401 2.52334 7.16801 2.43268 7.02401L3.32068 6.33601C3.44335 6.56534 3.59268 6.75467 3.76868 6.90401C3.95001 7.04801 4.19268 7.12001 4.49668 7.12001C4.76868 7.12001 4.97935 7.05334 5.12868 6.92001C5.28335 6.78134 5.36068 6.59467 5.36068 6.36001V6.31201C5.36068 6.08267 5.27268 5.91201 5.09668 5.80001C4.92601 5.68267 4.68868 5.62401 4.38468 5.62401H3.88068V4.62401H4.40068Z" fill="white"/>
<path d="M9.50155 8.09601C8.77089 8.09601 8.22955 7.84267 7.87755 7.33601C7.52555 6.82934 7.34955 6.12001 7.34955 5.20801C7.34955 4.29601 7.52555 3.58667 7.87755 3.08001C8.22955 2.57334 8.77089 2.32001 9.50155 2.32001C10.2322 2.32001 10.7736 2.57334 11.1256 3.08001C11.4776 3.58667 11.6536 4.29601 11.6536 5.20801C11.6536 6.12001 11.4776 6.82934 11.1256 7.33601C10.7736 7.84267 10.2322 8.09601 9.50155 8.09601ZM9.50155 7.08001C9.82155 7.08001 10.0429 6.96267 10.1656 6.72801C10.2882 6.49334 10.3496 6.16267 10.3496 5.73601V4.68001C10.3496 4.25334 10.2882 3.92267 10.1656 3.68801C10.0429 3.45334 9.82155 3.33601 9.50155 3.33601C9.18155 3.33601 8.96022 3.45334 8.83755 3.68801C8.71489 3.92267 8.65355 4.25334 8.65355 4.68001V5.73601C8.65355 6.16267 8.71489 6.49334 8.83755 6.72801C8.96022 6.96267 9.18155 7.08001 9.50155 7.08001Z" fill="white"/>
<path d="M14.2984 8.09601C13.5678 8.09601 13.0264 7.84267 12.6744 7.33601C12.3224 6.82934 12.1464 6.12001 12.1464 5.20801C12.1464 4.29601 12.3224 3.58667 12.6744 3.08001C13.0264 2.57334 13.5678 2.32001 14.2984 2.32001C15.0291 2.32001 15.5704 2.57334 15.9224 3.08001C16.2744 3.58667 16.4504 4.29601 16.4504 5.20801C16.4504 6.12001 16.2744 6.82934 15.9224 7.33601C15.5704 7.84267 15.0291 8.09601 14.2984 8.09601ZM14.2984 7.08001C14.6184 7.08001 14.8398 6.96267 14.9624 6.72801C15.0851 6.49334 15.1464 6.16267 15.1464 5.73601V4.68001C15.1464 4.25334 15.0851 3.92267 14.9624 3.68801C14.8398 3.45334 14.6184 3.33601 14.2984 3.33601C13.9784 3.33601 13.7571 3.45334 13.6344 3.68801C13.5118 3.92267 13.4504 4.25334 13.4504 4.68001V5.73601C13.4504 6.16267 13.5118 6.49334 13.6344 6.72801C13.7571 6.96267 13.9784 7.08001 14.2984 7.08001Z" fill="white"/>
<path fill-rule="evenodd" clip-rule="evenodd" d="M27 0C24.2386 0 22 2.23858 22 5C22 7.76142 24.2386 10 27 10C29.7614 10 32 7.76142 32 5C32 2.23858 29.7614 0 27 0ZM24.2534 6.27401V7.00001H27.1694V6.27401H26.2814V2.81201H24.9014L23.8994 4.13201L24.4754 4.58201L25.3274 3.46601H25.3814V6.27401H24.2534ZM28.0011 6.92801C28.2091 7.02401 28.4651 7.07201 28.7691 7.07201C28.9731 7.07201 29.1571 7.04601 29.3211 6.99401C29.4891 6.94201 29.6311 6.87001 29.7471 6.77801C29.8671 6.68201 29.9591 6.57001 30.0231 6.44201C30.0871 6.31401 30.1191 6.17401 30.1191 6.02201C30.1191 5.48201 29.7731 5.16601 29.0811 5.07401L28.7271 5.02601C28.5991 5.00601 28.5111 4.97401 28.4631 4.93001C28.4191 4.88201 28.3971 4.81601 28.3971 4.73201C28.3971 4.65201 28.4291 4.58801 28.4931 4.54001C28.5571 4.49201 28.6651 4.46801 28.8171 4.46801C28.9491 4.46801 29.0771 4.49801 29.2011 4.55801C29.3291 4.61401 29.4431 4.69201 29.5431 4.79201L30.0531 4.27001C29.9731 4.19401 29.8911 4.12601 29.8071 4.06601C29.7271 4.00201 29.6371 3.95001 29.5371 3.91001C29.4411 3.86601 29.3291 3.83401 29.2011 3.81401C29.0771 3.79001 28.9331 3.77801 28.7691 3.77801C28.5811 3.77801 28.4111 3.80401 28.2591 3.85601C28.1111 3.90401 27.9831 3.97401 27.8751 4.06601C27.7711 4.15401 27.6891 4.26201 27.6291 4.39001C27.5731 4.51401 27.5451 4.65201 27.5451 4.80401C27.5451 5.36401 27.8991 5.68801 28.6071 5.77601L28.9491 5.81801C29.1611 5.84601 29.2671 5.93401 29.2671 6.08201C29.2671 6.17401 29.2331 6.24801 29.1651 6.30401C29.0971 6.35601 28.9751 6.38201 28.7991 6.38201C28.6271 6.38201 28.4731 6.34601 28.3371 6.27401C28.2011 6.20201 28.0771 6.10401 27.9651 5.98001L27.4431 6.50801C27.6071 6.68801 27.7931 6.82801 28.0011 6.92801Z" fill="#FF444F"/>
<path d="M24.2534 7.00001V6.27401H25.3814V3.46601H25.3274L24.4754 4.58201L23.8994 4.13201L24.9014 2.81201H26.2814V6.27401H27.1694V7.00001H24.2534Z" fill="white"/>
<path d="M28.7691 7.07201C28.4651 7.07201 28.2091 7.02401 28.0011 6.92801C27.7931 6.82801 27.6071 6.68801 27.4431 6.50801L27.9651 5.98001C28.0771 6.10401 28.2011 6.20201 28.3371 6.27401C28.4731 6.34601 28.6271 6.38201 28.7991 6.38201C28.9751 6.38201 29.0971 6.35601 29.1651 6.30401C29.2331 6.24801 29.2671 6.17401 29.2671 6.08201C29.2671 5.93401 29.1611 5.84601 28.9491 5.81801L28.6071 5.77601C27.8991 5.68801 27.5451 5.36401 27.5451 4.80401C27.5451 4.65201 27.5731 4.51401 27.6291 4.39001C27.6891 4.26201 27.7711 4.15401 27.8751 4.06601C27.9831 3.97401 28.1111 3.90401 28.2591 3.85601C28.4111 3.80401 28.5811 3.77801 28.7691 3.77801C28.9331 3.77801 29.0771 3.79001 29.2011 3.81401C29.3291 3.83401 29.4411 3.86601 29.5371 3.91001C29.6371 3.95001 29.7271 4.00201 29.8071 4.06601C29.8911 4.12601 29.9731 4.19401 30.0531 4.27001L29.5431 4.79201C29.4431 4.69201 29.3291 4.61401 29.2011 4.55801C29.0771 4.49801 28.9491 4.46801 28.8171 4.46801C28.6651 4.46801 28.5571 4.49201 28.4931 4.54001C28.4291 4.58801 28.3971 4.65201 28.3971 4.73201C28.3971 4.81601 28.4191 4.88201 28.4631 4.93001C28.5111 4.97401 28.5991 5.00601 28.7271 5.02601L29.0811 5.07401C29.7731 5.16601 30.1191 5.48201 30.1191 6.02201C30.1191 6.17401 30.0871 6.31401 30.0231 6.44201C29.9591 6.57001 29.8671 6.68201 29.7471 6.77801C29.6311 6.87001 29.4891 6.94201 29.3211 6.99401C29.1571 7.04601 28.9731 7.07201 28.7691 7.07201Z" fill="white"/>
</svg>
