<svg width="32" height="32" viewBox="0 0 32 32" fill="none" xmlns="http://www.w3.org/2000/svg">
<path d="M26 8H6C4.89543 8 4 8.89543 4 10V22C4 23.1046 4.89543 24 6 24H26C27.1046 24 28 23.1046 28 22V10C28 8.89543 27.1046 8 26 8Z" fill="#4CAF50"/>
<path fill-rule="evenodd" clip-rule="evenodd" d="M26 9H6C5.44772 9 5 9.44772 5 10V22C5 22.5523 5.44772 23 6 23H26C26.5523 23 27 22.5523 27 22V10C27 9.44771 26.5523 9 26 9ZM6 8C4.89543 8 4 8.89543 4 10V22C4 23.1046 4.89543 24 6 24H26C27.1046 24 28 23.1046 28 22V10C28 8.89543 27.1046 8 26 8H6Z" fill="black" fill-opacity="0.08"/>
<path d="M9.39697 14.0898L9.92603 16.8667L10.5706 14.0898H11.2527L11.8945 16.8721L12.4209 14.0898H13.2239L12.3564 18H11.5454L10.9089 15.3843L10.2725 18H9.46143L8.59399 14.0898H9.39697ZM15.5308 14.0898L16.9944 18H16.1377L15.8665 17.1943H14.4539L14.1853 18H13.3286L14.7842 14.0898H15.5308ZM18.1653 14.0898V17.3528H19.876V18H17.3596V14.0898H18.1653ZM21.1436 14.0898V17.3528H22.8542V18H20.3379V14.0898H21.1436ZM15.1575 15.0781L14.6714 16.5417H15.6489L15.1575 15.0781ZM23.1125 11.4775C23.2903 11.4775 23.4486 11.5097 23.5876 11.5741C23.7266 11.6385 23.8346 11.7293 23.9115 11.8467C23.9884 11.964 24.0269 12.0973 24.0269 12.2466H23.5142C23.5142 12.1326 23.4783 12.0441 23.4065 11.9808C23.3347 11.9176 23.2339 11.886 23.104 11.886C22.9787 11.886 22.8813 11.9125 22.8118 11.9655C22.7423 12.0184 22.7075 12.0882 22.7075 12.1748C22.7075 12.2557 22.7482 12.3235 22.8297 12.3782C22.9112 12.4329 23.0311 12.4841 23.1895 12.532C23.4811 12.6197 23.6936 12.7285 23.8269 12.8584C23.9602 12.9883 24.0269 13.1501 24.0269 13.3438C24.0269 13.5591 23.9454 13.728 23.7825 13.8505C23.6195 13.9729 23.4002 14.0342 23.1245 14.0342C22.9331 14.0342 22.7588 13.9991 22.6016 13.9291C22.4443 13.859 22.3244 13.763 22.2418 13.6411C22.1592 13.5192 22.1179 13.3779 22.1179 13.2173H22.6323C22.6323 13.4919 22.7964 13.6292 23.1245 13.6292C23.2464 13.6292 23.3416 13.6044 23.4099 13.5548C23.4783 13.5052 23.5125 13.436 23.5125 13.3472C23.5125 13.2503 23.4783 13.176 23.4099 13.1241C23.3416 13.0723 23.2185 13.0176 23.0408 12.9601C22.863 12.9025 22.7223 12.8459 22.6187 12.79C22.3361 12.6374 22.1948 12.4317 22.1948 12.1731C22.1948 12.0387 22.2327 11.9187 22.3085 11.8134C22.3842 11.708 22.493 11.6257 22.6349 11.5664C22.7767 11.5072 22.936 11.4775 23.1125 11.4775ZM26.2468 11.5117V11.927H25.4846V14H24.9719V11.927H24.22V11.5117H26.2468Z" fill="white"/>
<path d="M18 2C18 0.89543 18.8954 0 20 0H30C31.1046 0 32 0.895431 32 2V8C32 9.10457 31.1046 10 30 10H20C18.8954 10 18 9.10457 18 8V2Z" fill="#414652"/>
<path d="M22.2991 4.624C22.5978 4.624 22.8138 4.568 22.9471 4.456C23.0858 4.33867 23.1551 4.19467 23.1551 4.024V3.968C23.1551 3.76533 23.0885 3.60267 22.9551 3.48C22.8271 3.35733 22.6431 3.296 22.4031 3.296C22.1791 3.296 21.9685 3.35467 21.7711 3.472C21.5738 3.584 21.4058 3.74667 21.2671 3.96L20.5151 3.256C20.6218 3.11733 20.7365 2.992 20.8591 2.88C20.9818 2.76267 21.1205 2.664 21.2751 2.584C21.4298 2.49867 21.6031 2.43467 21.7951 2.392C21.9871 2.344 22.2031 2.32 22.4431 2.32C22.7418 2.32 23.0111 2.35467 23.2511 2.424C23.4965 2.49333 23.7045 2.59467 23.8751 2.728C24.0511 2.856 24.1845 3.01067 24.2751 3.192C24.3711 3.37333 24.4191 3.576 24.4191 3.8C24.4191 3.976 24.3898 4.136 24.3311 4.28C24.2778 4.424 24.2005 4.54933 24.0991 4.656C24.0031 4.76267 23.8911 4.85067 23.7631 4.92C23.6351 4.984 23.4991 5.02933 23.3551 5.056V5.104C23.5205 5.136 23.6725 5.18933 23.8111 5.264C23.9551 5.33333 24.0778 5.424 24.1791 5.536C24.2858 5.648 24.3685 5.78133 24.4271 5.936C24.4858 6.08533 24.5151 6.256 24.5151 6.448C24.5151 6.69867 24.4645 6.92533 24.3631 7.128C24.2618 7.33067 24.1178 7.504 23.9311 7.648C23.7445 7.792 23.5205 7.904 23.2591 7.984C22.9978 8.05867 22.7098 8.096 22.3951 8.096C22.1125 8.096 21.8618 8.06667 21.6431 8.008C21.4245 7.94933 21.2325 7.872 21.0671 7.776C20.9071 7.67467 20.7658 7.56 20.6431 7.432C20.5258 7.304 20.4218 7.168 20.3311 7.024L21.2191 6.336C21.3418 6.56533 21.4911 6.75467 21.6671 6.904C21.8485 7.048 22.0911 7.12 22.3951 7.12C22.6671 7.12 22.8778 7.05333 23.0271 6.92C23.1818 6.78133 23.2591 6.59467 23.2591 6.36V6.312C23.2591 6.08267 23.1711 5.912 22.9951 5.8C22.8245 5.68267 22.5871 5.624 22.2831 5.624H21.7791V4.624H22.2991Z" fill="white"/>
<path d="M27.4 8.096C26.6693 8.096 26.128 7.84267 25.776 7.336C25.424 6.82933 25.248 6.12 25.248 5.208C25.248 4.296 25.424 3.58667 25.776 3.08C26.128 2.57333 26.6693 2.32 27.4 2.32C28.1307 2.32 28.672 2.57333 29.024 3.08C29.376 3.58667 29.552 4.296 29.552 5.208C29.552 6.12 29.376 6.82933 29.024 7.336C28.672 7.84267 28.1307 8.096 27.4 8.096ZM27.4 7.08C27.72 7.08 27.9413 6.96267 28.064 6.728C28.1867 6.49333 28.248 6.16267 28.248 5.736V4.68C28.248 4.25333 28.1867 3.92267 28.064 3.688C27.9413 3.45333 27.72 3.336 27.4 3.336C27.08 3.336 26.8587 3.45333 26.736 3.688C26.6133 3.92267 26.552 4.25333 26.552 4.68V5.736C26.552 6.16267 26.6133 6.49333 26.736 6.728C26.8587 6.96267 27.08 7.08 27.4 7.08Z" fill="white"/>
</svg>
