<svg width="32" height="32" viewBox="0 0 32 32" fill="none" xmlns="http://www.w3.org/2000/svg">
<path fill-rule="evenodd" clip-rule="evenodd" d="M17.5145 4.85749L21.8 12H27C27.5523 12 28 12.4477 28 13C28 13.5523 27.5523 14 27 14H5C4.44772 14 4 13.5523 4 13C4 12.4477 4.44772 12 5 12H10.2L14.4855 4.85749C14.8047 4.32551 15.3796 4 16 4C16.6204 4 17.1953 4.32551 17.5145 4.85749ZM13.1852 12L15.914 7.39517C15.9527 7.32981 16.0473 7.32981 16.086 7.39517L18.8148 12H13.1852Z" fill="#0AA0B0"/>
<path fill-rule="evenodd" clip-rule="evenodd" d="M25.7192 16C26.3698 16 26.8471 16.6114 26.6894 17.2425L24.1894 27.2425C24.0781 27.6877 23.6781 28 23.2192 28H8.78077C8.3219 28 7.92192 27.6877 7.81062 27.2425L5.31062 17.2425C5.15284 16.6114 5.6302 16 6.28077 16H25.7192ZM10.0001 20C10.0001 19.4477 10.4478 19 11.0001 19C11.5524 19 12.0001 19.4477 12.0001 20V24C12.0001 24.5523 11.5524 25 11.0001 25C10.4478 25 10.0001 24.5523 10.0001 24V20ZM16.0001 19C15.4478 19 15.0001 19.4477 15.0001 20V24C15.0001 24.5523 15.4478 25 16.0001 25C16.5524 25 17.0001 24.5523 17.0001 24V20C17.0001 19.4477 16.5524 19 16.0001 19ZM20.0001 20C20.0001 19.4477 20.4478 19 21.0001 19C21.5524 19 22.0001 19.4477 22.0001 20V24C22.0001 24.5523 21.5524 25 21.0001 25C20.4478 25 20.0001 24.5523 20.0001 24V20Z" fill="#0AA0B0"/>
<path d="M17 1.25C17 0.559644 17.5596 0 18.25 0H30.75C31.4404 0 32 0.559644 32 1.25V8.75C32 9.44036 31.4404 10 30.75 10H18.25C17.5596 10 17 9.44036 17 8.75V1.25Z" fill="#0D47A1"/>
<path d="M20.8283 6.67846L21.0235 7.33313L21.649 7.08C21.7024 7.0584 21.7509 7.12024 21.7184 7.16828L21.3362 7.73149L21.921 8.07051C21.9709 8.09944 21.9536 8.17652 21.8963 8.1806L21.2246 8.22825L21.3283 8.90411C21.3372 8.96179 21.267 8.99611 21.2282 8.9531L20.7727 8.44929L20.3171 8.9531C20.2783 8.99608 20.2082 8.96176 20.217 8.90411L20.3208 8.22825L19.649 8.1806C19.5917 8.17652 19.5744 8.09944 19.6243 8.07051L20.2091 7.73149L19.827 7.16828C19.7944 7.12024 19.8429 7.0584 19.8963 7.08L20.5218 7.33313L20.7171 6.67846C20.7338 6.62259 20.8116 6.62259 20.8283 6.67846ZM28.5219 7.63099L28.6172 7.95078L28.9228 7.82712C28.9488 7.81658 28.9726 7.84676 28.9566 7.87024L28.77 8.14539L29.0556 8.31102C29.08 8.32512 29.0716 8.3628 29.0435 8.36477L28.7154 8.38804L28.7661 8.71819C28.7704 8.74637 28.7361 8.76313 28.7172 8.74212L28.4946 8.49602L28.2721 8.74212C28.2531 8.7631 28.2189 8.74634 28.2232 8.71819L28.2739 8.38804L27.9457 8.36477C27.9177 8.3628 27.9093 8.32512 27.9336 8.31102L28.2193 8.14539L28.0327 7.87024C28.0167 7.84676 28.0405 7.81658 28.0665 7.82712L28.3721 7.95078L28.4675 7.63099C28.4757 7.60372 28.5137 7.60372 28.5219 7.63099ZM29.2596 5.05292C29.2695 5.02274 29.3116 5.02274 29.3215 5.05292L29.3981 5.28614L29.64 5.28804C29.6713 5.28831 29.6844 5.32887 29.6591 5.3478L29.4645 5.49384L29.5375 5.72822C29.5469 5.75855 29.5129 5.78364 29.4874 5.76515L29.2905 5.62221L29.0937 5.76515C29.0682 5.78367 29.0342 5.75858 29.0436 5.72822L29.1166 5.49384L28.922 5.3478C28.8968 5.3289 28.9098 5.28831 28.9411 5.28804L29.1831 5.28614L29.2596 5.05292ZM26.3956 4.47828L26.4909 4.79807L26.7965 4.67444C26.8226 4.6639 26.8463 4.69408 26.8304 4.71756L26.6437 4.99271L26.9294 5.15834C26.9538 5.17244 26.9453 5.21012 26.9173 5.21209L26.5892 5.23536L26.6399 5.56551C26.6442 5.59369 26.6099 5.61045 26.5909 5.58944L26.3684 5.34334L26.1459 5.58944C26.1269 5.61042 26.0927 5.59367 26.097 5.56551L26.1477 5.23536L25.8195 5.21209C25.7915 5.21009 25.7831 5.17244 25.8074 5.15834L26.0931 4.99271L25.9065 4.71756C25.8905 4.69408 25.9143 4.6639 25.9403 4.67444L26.2459 4.79807L26.3413 4.47828C26.3494 4.45099 26.3874 4.45099 26.3956 4.47828ZM30.5335 3.42736L30.6289 3.74715L30.9345 3.62352C30.9605 3.61298 30.9842 3.64316 30.9683 3.66664L30.7816 3.94179L31.0673 4.10742C31.0917 4.12152 31.0832 4.1592 31.0552 4.16116L30.7271 4.18444L30.7778 4.51459C30.7821 4.54277 30.7478 4.55953 30.7288 4.53852L30.5063 4.29241L30.2838 4.53852C30.2648 4.5595 30.2306 4.54274 30.2349 4.51459L30.2856 4.18444L29.9575 4.16116C29.9295 4.15917 29.921 4.12152 29.9454 4.10742L30.2311 3.94179L30.0444 3.66664C30.0285 3.64316 30.0522 3.61298 30.0783 3.62352L30.3838 3.74715L30.4792 3.42736C30.4873 3.40009 30.5254 3.40009 30.5335 3.42736ZM28.5219 2.02366L28.6172 2.34346L28.9228 2.21983C28.9488 2.20929 28.9726 2.23947 28.9566 2.26295L28.77 2.5381L29.0556 2.70372C29.08 2.71783 29.0716 2.75551 29.0435 2.75747L28.7154 2.78075L28.7661 3.1109C28.7704 3.13908 28.7361 3.15584 28.7172 3.13483L28.4946 2.88872L28.2721 3.13483C28.2531 3.15581 28.2189 3.13905 28.2232 3.1109L28.2739 2.78075L27.9457 2.75747C27.9177 2.75548 27.9093 2.71783 27.9336 2.70372L28.2193 2.5381L28.0327 2.26295C28.0167 2.23947 28.0405 2.20929 28.0665 2.21983L28.3721 2.34346L28.4675 2.02366C28.4757 1.99634 28.5137 1.99634 28.5219 2.02366Z" fill="white"/>
<path d="M20.125 0V1.33218L18.1346 0.00525478C17.6513 0.0494914 17.2475 0.368872 17.0814 0.805409L18.6858 1.875H17L17 3.125H18.6858L17 4.24884V5H18.1267L20.125 3.66782V5H21.375V3.66782L23.3733 5H24.5V4.24884L22.8142 3.125H24.5V1.875H22.8142L24.5 0.751157V0H23.3733L21.375 1.33218V0H20.125Z" fill="white"/>
<path d="M20.4375 0V2.1875H17V2.8125H20.4375V5H21.0625V2.8125H24.5V2.1875H21.0625V0H20.4375Z" fill="#F44336"/>
<path d="M24.2183 0L21.4058 1.875H21.9692L24.5 0.187793V0H24.2183Z" fill="#F44336"/>
<path d="M17 5L17.2817 5L20.0942 3.125H19.5308L17 4.81222L17 5Z" fill="#F44336"/>
<path d="M17.3277 0.406262L19.5308 1.875H20.0942L17.5767 0.196663C17.4848 0.255531 17.4011 0.326098 17.3277 0.406262Z" fill="#F44336"/>
<path d="M21.9692 3.125L24.5 4.81221V5L24.2183 5L21.4058 3.125H21.9692Z" fill="#F44336"/>
<path fill-rule="evenodd" clip-rule="evenodd" d="M30.75 0.625H18.25C17.9048 0.625 17.625 0.904822 17.625 1.25V8.75C17.625 9.09518 17.9048 9.375 18.25 9.375H30.75C31.0952 9.375 31.375 9.09518 31.375 8.75V1.25C31.375 0.904822 31.0952 0.625 30.75 0.625ZM18.25 0C17.5596 0 17 0.559644 17 1.25V8.75C17 9.44036 17.5596 10 18.25 10H30.75C31.4404 10 32 9.44036 32 8.75V1.25C32 0.559644 31.4404 0 30.75 0H18.25Z" fill="black" fill-opacity="0.08"/>
</svg>
