<svg width="32" height="32" viewBox="0 0 32 32" fill="none" xmlns="http://www.w3.org/2000/svg">
<path fill-rule="evenodd" clip-rule="evenodd" d="M17.5145 4.85749L21.8 12H27C27.5523 12 28 12.4477 28 13C28 13.5523 27.5523 14 27 14H5C4.44772 14 4 13.5523 4 13C4 12.4477 4.44772 12 5 12H10.2L14.4855 4.85749C14.8047 4.32551 15.3796 4 16 4C16.6204 4 17.1953 4.32551 17.5145 4.85749ZM13.1852 12L15.914 7.39517C15.9527 7.32981 16.0473 7.32981 16.086 7.39517L18.8148 12H13.1852Z" fill="#0AA0B0"/>
<path fill-rule="evenodd" clip-rule="evenodd" d="M25.7192 16C26.3698 16 26.8471 16.6114 26.6894 17.2425L24.1894 27.2425C24.0781 27.6877 23.6781 28 23.2192 28H8.78077C8.3219 28 7.92192 27.6877 7.81062 27.2425L5.31062 17.2425C5.15284 16.6114 5.6302 16 6.28077 16H25.7192ZM10.0001 20C10.0001 19.4477 10.4478 19 11.0001 19C11.5524 19 12.0001 19.4477 12.0001 20V24C12.0001 24.5523 11.5524 25 11.0001 25C10.4478 25 10.0001 24.5523 10.0001 24V20ZM16.0001 19C15.4478 19 15.0001 19.4477 15.0001 20V24C15.0001 24.5523 15.4478 25 16.0001 25C16.5524 25 17.0001 24.5523 17.0001 24V20C17.0001 19.4477 16.5524 19 16.0001 19ZM20.0001 20C20.0001 19.4477 20.4478 19 21.0001 19C21.5524 19 22.0001 19.4477 22.0001 20V24C22.0001 24.5523 21.5524 25 21.0001 25C20.4478 25 20.0001 24.5523 20.0001 24V20Z" fill="#0AA0B0"/>
<path d="M30.75 0H18.25C17.5596 0 17 0.559644 17 1.25V8.75C17 9.44036 17.5596 10 18.25 10H30.75C31.4404 10 32 9.44036 32 8.75V1.25C32 0.559644 31.4404 0 30.75 0Z" fill="#0D47A1"/>
<path d="M24.5419 7.91954L24.6456 8.2354L24.9734 8.23799C25.0158 8.23831 25.0334 8.29332 24.9993 8.31894L24.7356 8.51674L24.8344 8.83418C24.8472 8.87525 24.8012 8.9093 24.7666 8.88421L24.5 8.69058L24.2334 8.88421C24.1989 8.90927 24.1528 8.87528 24.1656 8.83418L24.2644 8.51674L24.0008 8.31894C23.9666 8.29332 23.9842 8.23831 24.0267 8.23799L24.3544 8.2354L24.4581 7.91954C24.4715 7.87861 24.5285 7.87861 24.5419 7.91954ZM22.9269 7.38995L23.0306 7.70582L23.3583 7.7084C23.4008 7.70873 23.4183 7.76373 23.3842 7.78936L23.1205 7.98715L23.2194 8.30459C23.2322 8.34567 23.1861 8.37971 23.1516 8.35462L22.885 8.16099L22.6183 8.35462C22.5838 8.37968 22.5377 8.3457 22.5505 8.30459L22.6494 7.98715L22.3857 7.78936C22.3516 7.76373 22.3692 7.70873 22.4116 7.7084L22.7394 7.70585L22.8431 7.38998C22.8565 7.34903 22.9135 7.34903 22.9269 7.38995ZM26.1809 7.38995C26.1943 7.34903 26.2512 7.34903 26.2647 7.38998L26.3684 7.70585L26.6961 7.7084C26.7386 7.70873 26.7562 7.76373 26.722 7.78936L26.4584 7.98715L26.5572 8.30459C26.57 8.3457 26.5239 8.37968 26.4894 8.35462L26.2228 8.16099L25.9562 8.35462C25.9216 8.37971 25.8756 8.34567 25.8884 8.30459L25.9872 7.98715L25.7235 7.78936C25.6894 7.76373 25.707 7.70873 25.7494 7.7084L26.0772 7.70582L26.1809 7.38995ZM27.4864 6.14879L27.5901 6.46465L27.9179 6.46724C27.9603 6.46757 27.9779 6.52257 27.9438 6.5482L27.6801 6.74599L27.779 7.06343C27.7918 7.10456 27.7457 7.13855 27.7112 7.11346L27.4445 6.91983L27.1779 7.11346C27.1434 7.13852 27.0973 7.10454 27.1101 7.06343L27.209 6.74599L26.9453 6.5482C26.9111 6.52257 26.9287 6.46757 26.9712 6.46724L27.2989 6.46465L27.4026 6.14879C27.416 6.10793 27.473 6.10793 27.4864 6.14879ZM21.6926 6.12918L21.7052 6.14879L21.8089 6.46465L22.1366 6.46724C22.1706 6.46751 22.1886 6.50276 22.177 6.52997L22.1625 6.5482L21.8988 6.74599L21.9977 7.06343C22.0079 7.09632 21.9805 7.12464 21.9514 7.12183L21.9299 7.11346L21.6633 6.91983L21.3966 7.11346C21.369 7.13354 21.334 7.1158 21.3277 7.08684L21.3288 7.06343L21.4277 6.74599L21.164 6.5482C21.1367 6.5277 21.1425 6.4884 21.1676 6.47333L21.1899 6.46724L21.5177 6.46465L21.6214 6.14879C21.6321 6.1161 21.6707 6.10956 21.6926 6.12918ZM27.8797 4.5287L27.9834 4.84456L28.3112 4.84715C28.3536 4.84748 28.3712 4.90248 28.3371 4.92811L28.0734 5.1259L28.1723 5.44334C28.1851 5.48442 28.139 5.51846 28.1045 5.49337L27.8378 5.29974L27.5712 5.49337C27.5367 5.51843 27.4906 5.48445 27.5034 5.44334L27.6023 5.1259L27.3386 4.92811C27.3045 4.90248 27.322 4.84748 27.3645 4.84715L27.6922 4.84456L27.7959 4.5287C27.8093 4.48784 27.8663 4.48784 27.8797 4.5287ZM21.2041 4.5287L21.3078 4.84456L21.6355 4.84715C21.678 4.84748 21.6955 4.90248 21.6614 4.92811L21.3977 5.1259L21.4966 5.44334C21.5094 5.48442 21.4633 5.51846 21.4288 5.49337L21.1622 5.29974L20.8955 5.49337C20.861 5.51843 20.8149 5.48445 20.8277 5.44334L20.9266 5.1259L20.6629 4.92811C20.6288 4.90248 20.6464 4.84748 20.6888 4.84715L21.0166 4.84456L21.1203 4.5287C21.1337 4.48784 21.1907 4.48784 21.2041 4.5287ZM21.7052 2.75799L21.8089 3.07385L22.1366 3.07644C22.1791 3.07677 22.1966 3.13177 22.1625 3.15739L21.8988 3.35519L21.9977 3.67263C22.0105 3.7137 21.9644 3.74775 21.9299 3.72266L21.6633 3.52903L21.3966 3.72266C21.3621 3.74772 21.316 3.71373 21.3288 3.67263L21.4277 3.35519L21.164 3.15739C21.1299 3.13177 21.1475 3.07677 21.1899 3.07644L21.5177 3.07385L21.6214 2.75799C21.6348 2.71709 21.6917 2.71709 21.7052 2.75799ZM27.4738 2.73836L27.4864 2.75799L27.5901 3.07385L27.9179 3.07644C27.9518 3.0767 27.9699 3.11195 27.9583 3.13917L27.9438 3.15739L27.6801 3.35519L27.779 3.67263C27.7892 3.70551 27.7617 3.73384 27.7327 3.73103L27.7112 3.72266L27.4445 3.52903L27.1779 3.72266C27.1503 3.74273 27.1153 3.72496 27.1089 3.69601L27.1101 3.67263L27.209 3.35519L26.9453 3.15739C26.918 3.13689 26.9238 3.09759 26.9489 3.08252L26.9712 3.07644L27.2989 3.07385L27.4026 2.75799C27.4134 2.72527 27.452 2.71873 27.4738 2.73836ZM26.2647 1.51686L26.3684 1.83272L26.6962 1.83531C26.7386 1.83564 26.7562 1.89064 26.7221 1.91626L26.4584 2.11406L26.5572 2.4315C26.57 2.47257 26.524 2.50662 26.4894 2.48153L26.2228 2.2879L25.9562 2.48153C25.9216 2.50659 25.8756 2.4726 25.8884 2.4315L25.9872 2.11406L25.7235 1.91626C25.6894 1.89064 25.707 1.83564 25.7494 1.83531L26.0772 1.83272L26.1809 1.51686C26.1943 1.47599 26.2512 1.47599 26.2647 1.51686ZM22.9143 1.49724L22.9269 1.51686L23.0306 1.83272L23.3583 1.83531C23.3923 1.83557 23.4103 1.87082 23.3987 1.89803L23.3842 1.91626L23.1205 2.11406L23.2194 2.4315C23.2296 2.46438 23.2022 2.49271 23.1731 2.48989L23.1516 2.48153L22.885 2.2879L22.6183 2.48153C22.5907 2.5016 22.5557 2.48382 22.5494 2.45488L22.5505 2.4315L22.6494 2.11406L22.3857 1.91626C22.3584 1.89576 22.3642 1.85646 22.3893 1.84139L22.4116 1.83531L22.7394 1.83272L22.8431 1.51686C22.8538 1.48417 22.8924 1.47763 22.9143 1.49724ZM24.5419 1.1379L24.6456 1.45376L24.9734 1.45635C25.0158 1.45668 25.0334 1.51168 24.9993 1.5373L24.7356 1.7351L24.8344 2.05254C24.8472 2.09361 24.8012 2.12766 24.7666 2.10257L24.5 1.90894L24.2334 2.10257C24.1989 2.12763 24.1528 2.09364 24.1656 2.05254L24.2644 1.7351L24.0008 1.5373C23.9666 1.51168 23.9842 1.45668 24.0267 1.45635L24.3544 1.45376L24.4581 1.1379C24.4715 1.09701 24.5285 1.09701 24.5419 1.1379Z" fill="#FFD955"/>
<path fill-rule="evenodd" clip-rule="evenodd" d="M30.75 0.625H18.25C17.9048 0.625 17.625 0.904822 17.625 1.25V8.75C17.625 9.09518 17.9048 9.375 18.25 9.375H30.75C31.0952 9.375 31.375 9.09518 31.375 8.75V1.25C31.375 0.904822 31.0952 0.625 30.75 0.625ZM18.25 0C17.5596 0 17 0.559644 17 1.25V8.75C17 9.44036 17.5596 10 18.25 10H30.75C31.4404 10 32 9.44036 32 8.75V1.25C32 0.559644 31.4404 0 30.75 0H18.25Z" fill="black" fill-opacity="0.08"/>
</svg>
