<svg width="32" height="32" viewBox="0 0 32 32" fill="none" xmlns="http://www.w3.org/2000/svg">
<path fill-rule="evenodd" clip-rule="evenodd" d="M17.5145 4.85749L21.8 12H27C27.5523 12 28 12.4477 28 13C28 13.5523 27.5523 14 27 14H5C4.44772 14 4 13.5523 4 13C4 12.4477 4.44772 12 5 12H10.2L14.4855 4.85749C14.8047 4.32551 15.3796 4 16 4C16.6204 4 17.1953 4.32551 17.5145 4.85749ZM13.1852 12L15.914 7.39517C15.9527 7.32981 16.0473 7.32981 16.086 7.39517L18.8148 12H13.1852Z" fill="#0AA0B0"/>
<path fill-rule="evenodd" clip-rule="evenodd" d="M25.7192 16C26.3698 16 26.8471 16.6114 26.6894 17.2425L24.1894 27.2425C24.0781 27.6877 23.6781 28 23.2192 28H8.78077C8.3219 28 7.92192 27.6877 7.81062 27.2425L5.31062 17.2425C5.15284 16.6114 5.6302 16 6.28077 16H25.7192ZM10.0001 20C10.0001 19.4477 10.4478 19 11.0001 19C11.5524 19 12.0001 19.4477 12.0001 20V24C12.0001 24.5523 11.5524 25 11.0001 25C10.4478 25 10.0001 24.5523 10.0001 24V20ZM16.0001 19C15.4478 19 15.0001 19.4477 15.0001 20V24C15.0001 24.5523 15.4478 25 16.0001 25C16.5524 25 17.0001 24.5523 17.0001 24V20C17.0001 19.4477 16.5524 19 16.0001 19ZM20.0001 20C20.0001 19.4477 20.4478 19 21.0001 19C21.5524 19 22.0001 19.4477 22.0001 20V24C22.0001 24.5523 21.5524 25 21.0001 25C20.4478 25 20.0001 24.5523 20.0001 24V20Z" fill="#0AA0B0"/>
<path d="M17 1.25C17 0.559644 17.5596 0 18.25 0H30.75C31.4404 0 32 0.559644 32 1.25V8.75C32 9.44036 31.4404 10 30.75 10H18.25C17.5596 10 17 9.44036 17 8.75V1.25Z" fill="#0D47A1"/>
<path d="M17 1.25C17 0.559644 17.5596 0 18.25 0H19.2535L23.25 2.66436V4.76837e-06H25.75V2.66436L29.7465 0H30.75C31.4404 0 32 0.559644 32 1.25L32 1.50232L28.6285 3.75H32V6.25H28.6285L32 8.49769L32 8.75C32 9.44036 31.4404 10 30.75 10H29.7465L25.75 7.33565V10H23.25V7.33565L19.2535 10H18.25C17.5596 10 17 9.44036 17 8.75L17 8.49769L20.3715 6.25H17L17 3.75H20.3715L17 1.50232L17 1.25Z" fill="white"/>
<path d="M23.7241 0V4.20361H17V5.77997H23.7241V10H25.2759V5.77997H32V4.20361H25.2759V0H23.7241Z" fill="#F44336"/>
<path d="M31.2276 0.094471L25.7931 3.67815H26.7431L31.6844 0.419703C31.5597 0.279388 31.4037 0.16737 31.2276 0.094471Z" fill="#F44336"/>
<path d="M31.8245 9.38909L27.1481 6.30542H26.1981L31.4627 9.77704C31.6092 9.67519 31.7329 9.5428 31.8245 9.38909Z" fill="#F44336"/>
<path d="M17.7486 9.89536L23.1927 6.30542H22.2426L17.3012 9.56389C17.4228 9.70542 17.5754 9.81945 17.7486 9.89536Z" fill="#F44336"/>
<path d="M17.1517 0.652714L21.7396 3.67815H22.6897L17.4957 0.253115C17.3546 0.36005 17.2369 0.496273 17.1517 0.652714Z" fill="#F44336"/>
<path fill-rule="evenodd" clip-rule="evenodd" d="M30.75 0.625H18.25C17.9048 0.625 17.625 0.904822 17.625 1.25V8.75C17.625 9.09518 17.9048 9.375 18.25 9.375H30.75C31.0952 9.375 31.375 9.09518 31.375 8.75V1.25C31.375 0.904822 31.0952 0.625 30.75 0.625ZM18.25 0C17.5596 0 17 0.559644 17 1.25V8.75C17 9.44036 17.5596 10 18.25 10H30.75C31.4404 10 32 9.44036 32 8.75V1.25C32 0.559644 31.4404 0 30.75 0H18.25Z" fill="black" fill-opacity="0.08"/>
</svg>
