<svg width="32" height="32" viewBox="0 0 32 32" fill="none" xmlns="http://www.w3.org/2000/svg">
<path fill-rule="evenodd" clip-rule="evenodd" d="M17.5145 4.85749L21.8 12H27C27.5523 12 28 12.4477 28 13C28 13.5523 27.5523 14 27 14H5C4.44772 14 4 13.5523 4 13C4 12.4477 4.44772 12 5 12H10.2L14.4855 4.85749C14.8047 4.32551 15.3796 4 16 4C16.6204 4 17.1953 4.32551 17.5145 4.85749ZM13.1852 12L15.914 7.39517C15.9527 7.32981 16.0473 7.32981 16.086 7.39517L18.8148 12H13.1852Z" fill="#0AA0B0"/>
<path fill-rule="evenodd" clip-rule="evenodd" d="M25.7192 16C26.3698 16 26.8471 16.6114 26.6894 17.2425L24.1894 27.2425C24.0781 27.6877 23.6781 28 23.2192 28H8.78077C8.3219 28 7.92192 27.6877 7.81062 27.2425L5.31062 17.2425C5.15284 16.6114 5.6302 16 6.28077 16H25.7192ZM10.0001 20C10.0001 19.4477 10.4478 19 11.0001 19C11.5524 19 12.0001 19.4477 12.0001 20V24C12.0001 24.5523 11.5524 25 11.0001 25C10.4478 25 10.0001 24.5523 10.0001 24V20ZM16.0001 19C15.4478 19 15.0001 19.4477 15.0001 20V24C15.0001 24.5523 15.4478 25 16.0001 25C16.5524 25 17.0001 24.5523 17.0001 24V20C17.0001 19.4477 16.5524 19 16.0001 19ZM20.0001 20C20.0001 19.4477 20.4478 19 21.0001 19C21.5524 19 22.0001 19.4477 22.0001 20V24C22.0001 24.5523 21.5524 25 21.0001 25C20.4478 25 20.0001 24.5523 20.0001 24V20Z" fill="#0AA0B0"/>
<path d="M17 5.355V6.12H32V5.355H17Z" fill="white"/>
<path d="M24.1875 4.59H32V3.825H24.1875V4.59Z" fill="white"/>
<path d="M24.1875 3.06H32V2.295H24.1875V3.06Z" fill="white"/>
<path d="M24.1875 1.53H32V1.25C32 1.078 31.9653 0.914116 31.9024 0.764999H24.1875V1.53Z" fill="white"/>
<path d="M32 6.88499H17V7.64999H32V6.88499Z" fill="white"/>
<path d="M17 8.41499H32V8.75C32 8.9011 31.9732 9.04591 31.9241 9.17999H17.0759C17.0268 9.04591 17 8.9011 17 8.75V8.41499Z" fill="white"/>
<path d="M30.75 0H24.1875V0.764999H31.9024C31.7131 0.315514 31.2684 0 30.75 0Z" fill="#F44336"/>
<path d="M24.1875 5.355H32V4.59H24.1875V5.355Z" fill="#F44336"/>
<path d="M24.1875 3.825H32V3.06H24.1875V3.825Z" fill="#F44336"/>
<path d="M24.1875 2.295H32V1.53H24.1875V2.295Z" fill="#F44336"/>
<path d="M17 6.12H32V6.88499H17V6.12Z" fill="#F44336"/>
<path d="M32 7.64999H17V8.41499H32V7.64999Z" fill="#F44336"/>
<path d="M17.0759 9.17999H31.9241C31.7488 9.65851 31.2893 10 30.75 10H18.25C17.7107 10 17.2512 9.65851 17.0759 9.17999Z" fill="#F44336"/>
<path fill-rule="evenodd" clip-rule="evenodd" d="M24.1875 0H18.25C17.5596 0 17 0.559654 17 1.25V5.355H24.1875V0ZM17.743 4.43649L17.6834 4.26052C17.6765 4.23649 17.6465 4.23649 17.643 4.26151L17.5835 4.43752H17.3985C17.388 4.43775 17.3788 4.44458 17.3754 4.4545C17.3721 4.46445 17.3753 4.47544 17.3835 4.482L17.5334 4.59251L17.472 4.76749C17.47 4.77459 17.4713 4.78199 17.4753 4.78786C17.477 4.79042 17.4791 4.79267 17.4817 4.7945C17.4903 4.80057 17.5019 4.80057 17.5105 4.7945L17.6605 4.687L17.8105 4.7945C17.8189 4.80129 17.8309 4.80167 17.8398 4.79542C17.8488 4.78916 17.8524 4.77779 17.849 4.76749L17.7925 4.59152L17.9425 4.48101C17.9464 4.47792 17.9491 4.47384 17.9505 4.4693C17.9522 4.46426 17.9523 4.45873 17.9505 4.45351C17.9472 4.44355 17.938 4.43676 17.9275 4.43649H17.743ZM23.3515 4.26052C23.3491 4.25095 23.3404 4.24431 23.3306 4.24454C23.3207 4.24477 23.3123 4.25182 23.3105 4.26151L23.251 4.43752H23.0665C23.056 4.43775 23.0468 4.44458 23.0434 4.4545C23.0416 4.45972 23.0417 4.46522 23.0433 4.47021C23.0448 4.47475 23.0476 4.47887 23.0515 4.482L23.2015 4.59251L23.14 4.76749C23.1372 4.77768 23.1411 4.78848 23.1497 4.7945C23.1584 4.80057 23.1699 4.80057 23.1785 4.7945L23.3285 4.687L23.4785 4.7945C23.487 4.80129 23.4989 4.80167 23.5079 4.79542C23.5167 4.78916 23.5205 4.77779 23.517 4.76749L23.4605 4.59152L23.6105 4.48101C23.6154 4.47708 23.6185 4.47155 23.6195 4.4656C23.6202 4.46163 23.6199 4.45747 23.6185 4.45351C23.6151 4.44355 23.606 4.43676 23.5955 4.43649H23.411L23.3515 4.26052ZM21.9335 4.26052C21.9311 4.25095 21.9224 4.24431 21.9126 4.24454C21.9027 4.24477 21.8943 4.25182 21.8925 4.26151L21.833 4.43752H21.6485C21.638 4.43775 21.6288 4.44458 21.6254 4.4545C21.622 4.46445 21.6253 4.47544 21.6335 4.482L21.7835 4.59251L21.722 4.76749C21.7192 4.77768 21.7231 4.78848 21.7318 4.7945C21.7404 4.80057 21.7519 4.80057 21.7605 4.7945L21.9105 4.687L22.0605 4.7945C22.069 4.80129 22.0809 4.80167 22.0899 4.79542C22.0987 4.78916 22.1025 4.77779 22.099 4.76749L22.0425 4.59152L22.1925 4.48101C22.2007 4.47445 22.2039 4.46346 22.2005 4.45351C22.1971 4.44355 22.188 4.43676 22.1775 4.43649H21.993L21.9335 4.26052ZM19.1605 4.43649L19.101 4.26052C19.094 4.23649 19.061 4.23649 19.0605 4.26151L19.001 4.43752H18.8159C18.8055 4.43775 18.7963 4.44458 18.7929 4.4545C18.7896 4.46445 18.7928 4.47544 18.801 4.482L18.951 4.59251L18.8895 4.76749C18.8867 4.77768 18.8906 4.78848 18.8993 4.7945C18.9079 4.80057 18.9193 4.80057 18.9279 4.7945L19.0779 4.687L19.228 4.7945C19.2365 4.80129 19.2485 4.80167 19.2573 4.79542C19.2662 4.78916 19.27 4.77779 19.2665 4.76749L19.21 4.59152L19.36 4.48101C19.3628 4.47876 19.365 4.47598 19.3666 4.47289C19.3695 4.46701 19.3702 4.46003 19.368 4.45351C19.3654 4.44576 19.3593 4.43993 19.3518 4.4376C19.3496 4.43695 19.3473 4.43657 19.345 4.43649H19.1605ZM20.5785 4.43649L20.519 4.26052C20.512 4.23649 20.479 4.23649 20.4785 4.26151L20.419 4.43752H20.2339C20.2235 4.43775 20.2143 4.44458 20.2109 4.4545C20.2076 4.46445 20.2108 4.47544 20.219 4.482L20.369 4.59251L20.3075 4.76749C20.306 4.77322 20.3065 4.77913 20.3088 4.78428C20.3106 4.78832 20.3134 4.79187 20.3173 4.7945C20.3259 4.80057 20.3373 4.80057 20.3459 4.7945L20.4959 4.687L20.646 4.7945C20.6545 4.80129 20.6665 4.80167 20.6753 4.79542C20.6842 4.78916 20.688 4.77779 20.6845 4.76749L20.628 4.59152L20.778 4.48101C20.7862 4.47445 20.7894 4.46346 20.786 4.45351C20.7827 4.44355 20.7735 4.43676 20.763 4.43649H20.5785ZM18.452 3.97152L18.3924 3.79551C18.3855 3.77151 18.3555 3.77151 18.352 3.79551L18.2925 3.97152H18.1024C18.092 3.97179 18.0828 3.97858 18.0794 3.98849C18.076 3.99845 18.0793 4.00944 18.0875 4.016L18.2375 4.12651L18.181 4.30252C18.1782 4.31267 18.1821 4.32346 18.1907 4.32953C18.1993 4.33556 18.2109 4.33556 18.2195 4.32949L18.3695 4.22199L18.5195 4.32949C18.5279 4.33628 18.5399 4.33666 18.5488 4.33041C18.5578 4.32419 18.5614 4.31282 18.558 4.30252L18.5015 4.12651L18.6515 4.016C18.6597 4.00944 18.6629 3.99845 18.6595 3.98849C18.6562 3.97858 18.647 3.97179 18.6365 3.97152H18.452ZM22.6425 3.79551C22.6425 3.78727 22.6381 3.77968 22.631 3.7756C22.6239 3.77148 22.6151 3.77148 22.608 3.7756C22.6009 3.77968 22.5965 3.78727 22.5965 3.79551L22.537 3.97152H22.3525C22.3419 3.97179 22.3328 3.97858 22.3294 3.98849C22.3261 3.99845 22.3293 4.00944 22.3374 4.016L22.4874 4.12651L22.431 4.30252C22.4282 4.31267 22.4321 4.32346 22.4408 4.32953C22.4494 4.33556 22.4609 4.33556 22.4695 4.32949L22.6195 4.22199L22.7695 4.32949C22.778 4.33628 22.7899 4.33666 22.7989 4.33041C22.8037 4.32705 22.807 4.32217 22.8084 4.31679C22.8096 4.31221 22.8096 4.30725 22.808 4.30252L22.7515 4.12651L22.9015 4.016C22.9097 4.00944 22.9129 3.99845 22.9095 3.98849C22.9061 3.97858 22.897 3.97179 22.8865 3.97152H22.702L22.6425 3.79551ZM21.2875 3.97152L21.228 3.79551C21.221 3.77151 21.188 3.77151 21.182 3.79551L21.1225 3.97152H20.938C20.9328 3.97163 20.9279 3.97339 20.9239 3.97633C20.9198 3.9793 20.9166 3.9835 20.9149 3.98849C20.9138 3.99193 20.9134 3.99548 20.9137 3.99895C20.9144 4.00551 20.9176 4.01169 20.923 4.016L21.073 4.12651L21.0165 4.30252C21.0137 4.31267 21.0176 4.32346 21.0263 4.32953C21.0349 4.33556 21.0463 4.33556 21.0549 4.32949L21.2049 4.22199L21.355 4.32949C21.3635 4.33628 21.3755 4.33666 21.3843 4.33041C21.3932 4.32419 21.397 4.31282 21.3935 4.30252L21.337 4.12651L21.487 4.016C21.4952 4.00944 21.4984 3.99845 21.495 3.98849C21.4917 3.97858 21.4825 3.97179 21.472 3.97152H21.2875ZM19.8695 3.97152L19.81 3.79551C19.803 3.77151 19.77 3.77151 19.7695 3.79551L19.71 3.97152H19.52C19.5095 3.97179 19.5003 3.97858 19.4969 3.98849C19.4936 3.99845 19.4968 4.00944 19.505 4.016L19.655 4.12651L19.5985 4.30252C19.5971 4.30767 19.5974 4.31297 19.5992 4.3177C19.6009 4.32236 19.604 4.32652 19.6083 4.32953C19.6122 4.33231 19.6169 4.3338 19.6215 4.33403C19.6269 4.33426 19.6323 4.33273 19.6369 4.32949L19.7869 4.22199L19.937 4.32949C19.9455 4.33628 19.9575 4.33666 19.9663 4.33041C19.9752 4.32419 19.979 4.31282 19.9755 4.30252L19.919 4.12651L20.069 4.016C20.0772 4.00944 20.0804 3.99845 20.077 3.98849C20.0737 3.97858 20.0645 3.97179 20.054 3.97152H19.8695ZM19.1605 3.521L19.101 3.34499C19.094 3.32451 19.061 3.32451 19.0605 3.34499L19.001 3.521H18.811C18.8005 3.52127 18.7913 3.52806 18.7879 3.53802C18.7846 3.54797 18.7878 3.55892 18.796 3.56552L18.946 3.67599L18.8895 3.85201C18.8867 3.86215 18.8906 3.87299 18.8993 3.87901C18.9079 3.88508 18.9193 3.88504 18.9279 3.87901L19.0779 3.77151L19.228 3.87901C19.2298 3.88042 19.2317 3.88157 19.2337 3.88245C19.2414 3.88569 19.2503 3.88489 19.2573 3.87993C19.2662 3.87367 19.27 3.8623 19.2665 3.85201L19.21 3.67599L19.36 3.56552C19.3682 3.55892 19.3714 3.54797 19.368 3.53802C19.3647 3.52806 19.3555 3.52127 19.345 3.521H19.1605ZM23.411 3.521L23.3515 3.34499C23.3475 3.32451 23.3145 3.32451 23.3055 3.34499L23.246 3.521H23.0615C23.0509 3.52127 23.0418 3.52806 23.0384 3.53802C23.0351 3.54797 23.0383 3.55892 23.0464 3.56552L23.1964 3.67599L23.14 3.85201C23.1372 3.86215 23.1411 3.87299 23.1497 3.87901C23.1584 3.88508 23.1699 3.88504 23.1785 3.87901L23.3285 3.77151L23.4785 3.87901C23.487 3.8858 23.4989 3.88618 23.5079 3.87993C23.5128 3.8765 23.516 3.87154 23.5175 3.86608C23.5186 3.86154 23.5186 3.85666 23.517 3.85201L23.4605 3.67599L23.6105 3.56552C23.6187 3.55892 23.6219 3.54797 23.6185 3.53802C23.6151 3.52806 23.606 3.52127 23.5955 3.521H23.411ZM17.743 3.521L17.6834 3.34499C17.6765 3.32451 17.6465 3.32451 17.643 3.34499L17.5835 3.521H17.3934C17.383 3.52127 17.3738 3.52806 17.3704 3.53802C17.3671 3.54797 17.3703 3.55892 17.3785 3.56552L17.5285 3.67599L17.472 3.85201C17.4692 3.86215 17.4731 3.87299 17.4817 3.87901C17.4903 3.88508 17.5019 3.88504 17.5105 3.87901L17.6605 3.77151L17.8105 3.87901C17.8189 3.8858 17.8309 3.88618 17.8398 3.87993C17.8488 3.87367 17.8524 3.8623 17.849 3.85201L17.7925 3.67599L17.9425 3.56552C17.9507 3.55892 17.9539 3.54797 17.9505 3.53802C17.9472 3.52806 17.938 3.52127 17.9275 3.521H17.743ZM21.993 3.521L21.9335 3.34499C21.9312 3.33317 21.9192 3.32817 21.9078 3.33C21.8994 3.33134 21.8913 3.33633 21.8875 3.34499L21.828 3.521H21.6435C21.6395 3.52112 21.6358 3.52215 21.6324 3.5239C21.6268 3.5268 21.6225 3.5318 21.6204 3.53802C21.6171 3.54797 21.6203 3.55892 21.6284 3.56552L21.7784 3.67599L21.722 3.85201C21.7192 3.86215 21.7231 3.87299 21.7318 3.87901C21.7404 3.88508 21.7519 3.88504 21.7605 3.87901L21.9105 3.77151L22.0605 3.87901C22.069 3.8858 22.0809 3.88618 22.0899 3.87993C22.0987 3.87367 22.1025 3.8623 22.099 3.85201L22.0425 3.67599L22.1925 3.56552C22.2007 3.55892 22.2039 3.54797 22.2005 3.53802C22.1971 3.52806 22.188 3.52127 22.1775 3.521H21.993ZM20.5785 3.521L20.519 3.34499C20.512 3.32451 20.479 3.32451 20.4785 3.34499L20.419 3.521H20.229C20.2185 3.52127 20.2093 3.52806 20.2059 3.53802C20.2026 3.54797 20.2058 3.55892 20.214 3.56552L20.364 3.67599L20.3075 3.85201C20.3047 3.86215 20.3086 3.87299 20.3173 3.87901C20.3259 3.88508 20.3373 3.88504 20.3459 3.87901L20.4959 3.77151L20.646 3.87901C20.6545 3.8858 20.6665 3.88618 20.6753 3.87993C20.6842 3.87367 20.688 3.8623 20.6845 3.85201L20.628 3.67599L20.778 3.56552C20.7862 3.55892 20.7894 3.54797 20.786 3.53802C20.7827 3.52806 20.7735 3.52127 20.763 3.521H20.5785ZM18.452 3.05649L18.3924 2.88052C18.3855 2.85652 18.3555 2.85652 18.352 2.88151L18.2925 3.05752H18.1075C18.097 3.05779 18.0878 3.06458 18.0844 3.07449C18.0811 3.08445 18.0843 3.09544 18.0925 3.102L18.2424 3.21251L18.181 3.38749C18.1782 3.39767 18.1821 3.40847 18.1907 3.4145C18.1993 3.42056 18.2109 3.42056 18.2195 3.4145L18.3695 3.307L18.5195 3.4145C18.5279 3.42129 18.5399 3.42167 18.5488 3.41541C18.5578 3.40919 18.5614 3.39779 18.558 3.38749L18.5015 3.21152L18.6515 3.10101C18.6597 3.09444 18.6629 3.08346 18.6595 3.0735C18.6562 3.06355 18.647 3.05676 18.6365 3.05649H18.452ZM22.6425 2.88052C22.6425 2.86781 22.6322 2.85751 22.6195 2.85751C22.6094 2.85751 22.6008 2.86404 22.5977 2.87308C22.5969 2.8754 22.5965 2.87792 22.5965 2.88052L22.537 3.05649H22.3525C22.3485 3.0566 22.3448 3.05763 22.3414 3.05939C22.3358 3.06232 22.3315 3.06732 22.3294 3.0735C22.3261 3.08346 22.3293 3.09444 22.3374 3.10101L22.4874 3.21152L22.431 3.38749C22.4282 3.39767 22.4321 3.40847 22.4408 3.4145C22.4459 3.41812 22.452 3.41957 22.458 3.41888C22.462 3.41839 22.466 3.41694 22.4695 3.4145L22.6195 3.307L22.7695 3.4145C22.778 3.42129 22.7899 3.42167 22.7989 3.41541C22.8077 3.40919 22.8115 3.39779 22.808 3.38749L22.7515 3.21152L22.9015 3.10101C22.9097 3.09444 22.9129 3.08346 22.9095 3.0735C22.9061 3.06355 22.897 3.05676 22.8865 3.05649H22.702L22.6425 2.88052ZM21.2875 3.05649L21.228 2.88052C21.221 2.85652 21.188 2.85652 21.182 2.88052L21.1225 3.05649H20.938C20.9331 3.0566 20.9286 3.05813 20.9248 3.06068C20.9203 3.0637 20.9168 3.06812 20.9149 3.0735C20.9116 3.08346 20.9148 3.09444 20.923 3.10101L21.073 3.21152L21.0165 3.38749C21.0145 3.39493 21.016 3.40267 21.0203 3.40866C21.0219 3.41087 21.0239 3.41286 21.0263 3.4145C21.0349 3.42056 21.0463 3.42056 21.0549 3.4145L21.2049 3.307L21.355 3.4145C21.3635 3.42129 21.3755 3.42167 21.3843 3.41541C21.3932 3.40919 21.397 3.39779 21.3935 3.38749L21.337 3.21152L21.487 3.10101C21.4952 3.09444 21.4984 3.08346 21.495 3.0735C21.4917 3.06355 21.4825 3.05676 21.472 3.05649H21.2875ZM19.8695 3.05649L19.81 2.88052C19.803 2.85652 19.77 2.85652 19.7695 2.88151L19.71 3.05752H19.5249C19.5145 3.05779 19.5053 3.06458 19.5019 3.07449C19.4998 3.08075 19.5002 3.08743 19.503 3.09315C19.5046 3.0965 19.5069 3.09956 19.51 3.102L19.66 3.21251L19.5985 3.38749C19.5957 3.39767 19.5996 3.40847 19.6083 3.4145C19.6169 3.42056 19.6283 3.42056 19.6369 3.4145L19.7869 3.307L19.937 3.4145C19.9455 3.42129 19.9575 3.42167 19.9663 3.41541C19.9752 3.40919 19.979 3.39779 19.9755 3.38749L19.919 3.21152L20.069 3.10101C20.0772 3.09444 20.0804 3.08346 20.077 3.0735C20.0737 3.06355 20.0645 3.05676 20.054 3.05649H19.8695ZM19.1605 2.60899L19.101 2.43301C19.094 2.40902 19.061 2.40902 19.0605 2.43401L19.001 2.61002H18.8159C18.8089 2.61021 18.8024 2.61333 18.7979 2.61837C18.7957 2.62085 18.794 2.62375 18.7929 2.62703C18.7896 2.63695 18.7928 2.64793 18.801 2.6545L18.951 2.76501L18.8895 2.93999C18.8867 2.95017 18.8906 2.96097 18.8993 2.96703C18.9079 2.97306 18.9193 2.97306 18.9279 2.967L19.0779 2.8595L19.228 2.967C19.2365 2.97379 19.2485 2.97417 19.2573 2.96791C19.2662 2.96169 19.27 2.95033 19.2665 2.93999L19.21 2.76402L19.36 2.6535C19.3646 2.6498 19.3676 2.64473 19.3688 2.6392C19.3697 2.63489 19.3695 2.63035 19.368 2.626C19.3664 2.62119 19.3634 2.61711 19.3596 2.61417C19.3555 2.61101 19.3504 2.60914 19.345 2.60899H19.1605ZM23.34 2.41901C23.3371 2.41768 23.3339 2.41695 23.3306 2.41703C23.3207 2.41726 23.3123 2.42432 23.3105 2.43401L23.251 2.61002H23.0665C23.056 2.61028 23.0468 2.61707 23.0434 2.62703C23.04 2.63695 23.0433 2.64793 23.0515 2.6545L23.2015 2.76501L23.14 2.93999C23.1372 2.95017 23.1411 2.96097 23.1497 2.96703C23.1584 2.97306 23.1699 2.97306 23.1785 2.967L23.3285 2.8595L23.4785 2.967C23.4831 2.97066 23.4886 2.97245 23.4942 2.97234C23.499 2.97226 23.5038 2.97077 23.5079 2.96791C23.5129 2.96436 23.5163 2.95914 23.5176 2.95341C23.5186 2.94907 23.5185 2.94445 23.517 2.93999L23.4605 2.76402L23.6105 2.6535C23.6187 2.64694 23.6219 2.63596 23.6185 2.626C23.6151 2.61608 23.606 2.60925 23.5955 2.60899H23.411L23.3515 2.43301C23.3499 2.42668 23.3456 2.42165 23.34 2.41901ZM21.9335 2.43301C21.9335 2.42031 21.9232 2.41001 21.9105 2.41001C21.8978 2.41001 21.8875 2.42031 21.8875 2.43301L21.828 2.60899H21.6435C21.6329 2.60925 21.6238 2.61608 21.6204 2.626C21.6171 2.63596 21.6203 2.64694 21.6284 2.6535L21.7784 2.76402L21.722 2.93999C21.7192 2.95017 21.7231 2.96097 21.7318 2.96703C21.7404 2.97306 21.7519 2.97306 21.7605 2.967L21.9105 2.8595L22.0605 2.967C22.0643 2.97005 22.0688 2.9718 22.0735 2.97222C22.0791 2.97276 22.085 2.97134 22.0899 2.96791C22.0987 2.96169 22.1025 2.95033 22.099 2.93999L22.0425 2.76402L22.1925 2.6535C22.2007 2.64694 22.2039 2.63596 22.2005 2.626C22.1971 2.61608 22.188 2.60925 22.1775 2.60899H21.993L21.9335 2.43301ZM17.743 2.60899L17.6834 2.43301C17.6765 2.40902 17.6465 2.40902 17.643 2.43401L17.5835 2.61002H17.3985C17.388 2.61028 17.3788 2.61707 17.3754 2.62703C17.3721 2.63695 17.3753 2.64793 17.3835 2.6545L17.5334 2.76501L17.472 2.93999C17.4692 2.95017 17.4731 2.96097 17.4817 2.96703C17.4874 2.97104 17.4944 2.97237 17.5009 2.97108C17.5043 2.97043 17.5076 2.96906 17.5105 2.967L17.6605 2.8595L17.8105 2.967C17.8189 2.97379 17.8309 2.97417 17.8398 2.96791C17.8488 2.96169 17.8524 2.95033 17.849 2.93999L17.7925 2.76402L17.9425 2.6535C17.9507 2.64694 17.9539 2.63596 17.9505 2.626C17.9472 2.61608 17.938 2.60925 17.9275 2.60899H17.743ZM20.5785 2.60899L20.519 2.43301C20.512 2.40902 20.479 2.40902 20.4785 2.43301L20.419 2.60899H20.229C20.2185 2.60925 20.2093 2.61608 20.2059 2.626C20.2041 2.6313 20.2042 2.63691 20.2059 2.64202C20.2074 2.64645 20.2101 2.65045 20.214 2.6535L20.364 2.76402L20.3075 2.93999C20.3047 2.95017 20.3086 2.96097 20.3173 2.96703C20.3217 2.97012 20.3269 2.97161 20.332 2.97153C20.3369 2.97146 20.3418 2.96997 20.3459 2.967L20.4959 2.8595L20.646 2.967C20.6545 2.97379 20.6665 2.97417 20.6753 2.96791C20.6842 2.96169 20.688 2.95033 20.6845 2.93999L20.628 2.76402L20.778 2.6535C20.7862 2.64694 20.7894 2.63596 20.786 2.626C20.7827 2.61608 20.7735 2.60925 20.763 2.60899H20.5785ZM18.452 2.1405L18.3924 1.96449C18.3855 1.94401 18.3555 1.94401 18.352 1.96449L18.2925 2.1405H18.1024C18.0979 2.14062 18.0937 2.14195 18.09 2.14424C18.0851 2.14725 18.0813 2.15187 18.0794 2.15752C18.076 2.16747 18.0793 2.17842 18.0875 2.18502L18.2375 2.29549L18.181 2.4715C18.1782 2.48165 18.1821 2.49249 18.1907 2.49851C18.1993 2.50458 18.2109 2.50454 18.2195 2.49851L18.3695 2.39101L18.5195 2.49851C18.5279 2.5053 18.5399 2.50568 18.5488 2.49943C18.5578 2.49317 18.5614 2.4818 18.558 2.4715L18.5015 2.29549L18.6515 2.18502C18.6597 2.17842 18.6629 2.16747 18.6595 2.15752C18.6562 2.14756 18.647 2.14077 18.6365 2.1405H18.452ZM21.2875 2.1405L21.228 1.96449C21.221 1.94401 21.188 1.94401 21.182 1.96449L21.1225 2.1405H20.938C20.9275 2.14077 20.9183 2.14756 20.9149 2.15752C20.9129 2.16366 20.9133 2.17018 20.9159 2.17583C20.9175 2.17934 20.9198 2.1825 20.923 2.18502L21.073 2.29549L21.0165 2.4715C21.0137 2.48165 21.0176 2.49249 21.0263 2.49851C21.0349 2.50458 21.0463 2.50454 21.0549 2.49851L21.2049 2.39101L21.355 2.49851C21.3589 2.50164 21.3636 2.50343 21.3684 2.50381C21.3739 2.50423 21.3796 2.50278 21.3843 2.49943C21.3932 2.49317 21.397 2.4818 21.3935 2.4715L21.337 2.29549L21.487 2.18502C21.4911 2.18166 21.494 2.1772 21.4954 2.17232C21.4967 2.16759 21.4967 2.16244 21.495 2.15752C21.4917 2.14756 21.4825 2.14077 21.472 2.1405H21.2875ZM19.8695 2.1405L19.81 1.96449C19.803 1.94401 19.77 1.94401 19.7695 1.96449L19.71 2.1405H19.52C19.5095 2.14077 19.5003 2.14756 19.4969 2.15752C19.4936 2.16747 19.4968 2.17842 19.505 2.18502L19.655 2.29549L19.5985 2.4715C19.5957 2.48165 19.5996 2.49249 19.6083 2.49851C19.6169 2.50458 19.6283 2.50454 19.6369 2.49851L19.7869 2.39101L19.937 2.49851C19.9455 2.5053 19.9575 2.50568 19.9663 2.49943C19.9752 2.49317 19.979 2.4818 19.9755 2.4715L19.919 2.29549L20.069 2.18502C20.0772 2.17842 20.0804 2.16747 20.077 2.15752C20.0737 2.14756 20.0645 2.14077 20.054 2.1405H19.8695ZM22.702 2.1405L22.6425 1.96449C22.6385 1.94401 22.6055 1.94401 22.5965 1.96449L22.537 2.1405H22.3525C22.3419 2.14077 22.3328 2.14756 22.3294 2.15752C22.3261 2.16747 22.3293 2.17842 22.3374 2.18502L22.4874 2.29549L22.431 2.4715C22.4282 2.48165 22.4321 2.49249 22.4408 2.49851C22.4494 2.50458 22.4609 2.50454 22.4695 2.49851L22.6195 2.39101L22.7695 2.49851C22.7744 2.50244 22.7805 2.50423 22.7865 2.50381C22.7909 2.50351 22.7951 2.50206 22.7989 2.49943C22.8077 2.49317 22.8115 2.4818 22.808 2.4715L22.7515 2.29549L22.9015 2.18502C22.9097 2.17842 22.9129 2.16747 22.9095 2.15752C22.9072 2.1508 22.9023 2.14554 22.8961 2.14275C22.8932 2.14138 22.8899 2.14058 22.8865 2.1405H22.702ZM20.5785 1.6935L20.519 1.51749C20.512 1.497 20.479 1.497 20.4785 1.51749L20.419 1.6935H20.229C20.2185 1.69376 20.2093 1.70055 20.2059 1.71051C20.2026 1.72047 20.2058 1.73145 20.214 1.73801L20.364 1.84849L20.3075 2.0245C20.3054 2.03239 20.3072 2.04063 20.3121 2.04674C20.3136 2.04853 20.3153 2.05013 20.3173 2.05151C20.3226 2.05524 20.3289 2.05669 20.3351 2.05582C20.3389 2.05528 20.3427 2.05383 20.3459 2.05151L20.4959 1.94401L20.646 2.05151C20.6545 2.0583 20.6665 2.05868 20.6753 2.05242C20.6842 2.04617 20.688 2.0348 20.6845 2.0245L20.628 1.84849L20.778 1.73801C20.7862 1.73145 20.7894 1.72047 20.786 1.71051C20.7827 1.70055 20.7735 1.69376 20.763 1.6935H20.5785ZM17.743 1.6935L17.6834 1.51749C17.6765 1.497 17.6465 1.497 17.643 1.51749L17.5835 1.6935H17.3934C17.383 1.69376 17.3738 1.70055 17.3704 1.71051C17.3671 1.72047 17.3703 1.73145 17.3785 1.73801L17.5285 1.84849L17.472 2.0245C17.4692 2.03468 17.4731 2.04548 17.4817 2.05151C17.4903 2.05757 17.5019 2.05757 17.5105 2.05151L17.6605 1.94401L17.8105 2.05151C17.8189 2.0583 17.8309 2.05868 17.8398 2.05242C17.8488 2.04617 17.8524 2.0348 17.849 2.0245L17.7925 1.84849L17.9425 1.73801C17.9507 1.73145 17.9539 1.72047 17.9505 1.71051C17.9472 1.70055 17.938 1.69376 17.9275 1.6935H17.743ZM19.1625 1.6935L19.103 1.51749C19.094 1.497 19.061 1.497 19.0575 1.51749L18.998 1.6935H18.814C18.8035 1.69376 18.7943 1.70055 18.7909 1.71051C18.7885 1.71772 18.7895 1.72546 18.7934 1.73172C18.7948 1.73409 18.7967 1.73622 18.799 1.73801L18.949 1.84849L18.8925 2.0245C18.8897 2.03468 18.8936 2.04548 18.9022 2.05151C18.9109 2.05757 18.9224 2.05757 18.931 2.05151L19.081 1.94401L19.231 2.05151C19.2395 2.0583 19.2514 2.05868 19.2604 2.05242C19.2692 2.04617 19.2729 2.0348 19.2694 2.0245L19.213 1.84849L19.363 1.73801C19.3683 1.73374 19.3715 1.7276 19.3722 1.72112C19.3726 1.71761 19.3722 1.71398 19.3711 1.71051C19.3677 1.70055 19.3585 1.69376 19.3479 1.6935H19.1625ZM21.993 1.6935L21.9335 1.51749C21.9295 1.497 21.8965 1.497 21.8875 1.51749L21.828 1.6935H21.6435C21.6329 1.69376 21.6238 1.70055 21.6204 1.71051C21.6171 1.72047 21.6203 1.73145 21.6284 1.73801L21.7784 1.84849L21.722 2.0245C21.7202 2.03121 21.7213 2.03819 21.7247 2.04391C21.7264 2.04685 21.7288 2.04945 21.7318 2.05151C21.7404 2.05757 21.7519 2.05757 21.7605 2.05151L21.9105 1.94401L22.0605 2.05151C22.069 2.0583 22.0809 2.05868 22.0899 2.05242C22.0987 2.04617 22.1025 2.0348 22.099 2.0245L22.0425 1.84849L22.1925 1.73801C22.2007 1.73145 22.2039 1.72047 22.2005 1.71051C22.1984 1.7041 22.1938 1.69899 22.188 1.69609C22.1848 1.69449 22.1812 1.69357 22.1775 1.6935H21.993ZM23.411 1.6935L23.3515 1.51749C23.3475 1.497 23.3145 1.497 23.3055 1.51749L23.246 1.6935H23.0615C23.0509 1.69376 23.0418 1.70055 23.0384 1.71051C23.0351 1.72047 23.0383 1.73145 23.0464 1.73801L23.1964 1.84849L23.14 2.0245C23.1372 2.03468 23.1411 2.04548 23.1497 2.05151C23.1584 2.05757 23.1699 2.05757 23.1785 2.05151L23.3285 1.94401L23.4785 2.05151C23.4839 2.05585 23.4908 2.05757 23.4973 2.05658C23.5011 2.05605 23.5047 2.05467 23.5079 2.05242C23.5167 2.04617 23.5205 2.0348 23.517 2.0245L23.4605 1.84849L23.6105 1.73801C23.6187 1.73145 23.6219 1.72047 23.6185 1.71051C23.6151 1.70055 23.606 1.69376 23.5955 1.6935H23.411ZM21.2875 1.22852L21.228 1.05251C21.221 1.02852 21.188 1.02852 21.182 1.05251L21.1225 1.22852H20.938C20.9275 1.22875 20.9183 1.23558 20.9149 1.2455C20.9116 1.25546 20.9148 1.26644 20.923 1.273L21.073 1.38351L21.0165 1.55949C21.0149 1.56555 21.0156 1.57181 21.0182 1.57715C21.02 1.58081 21.0228 1.58405 21.0263 1.58653C21.0349 1.59256 21.0463 1.59256 21.0549 1.58649L21.2049 1.479L21.355 1.58649C21.3635 1.59328 21.3755 1.59367 21.3843 1.58741C21.3932 1.58119 21.397 1.56982 21.3935 1.55949L21.337 1.38351L21.487 1.273C21.4952 1.26644 21.4984 1.25546 21.495 1.2455C21.4934 1.24073 21.4904 1.23669 21.4866 1.23375C21.4825 1.23055 21.4775 1.22864 21.472 1.22852H21.2875ZM19.8695 1.22852L19.81 1.05251C19.8053 1.03645 19.7889 1.03115 19.7785 1.03691C19.7734 1.03973 19.7696 1.04527 19.7695 1.0535L19.71 1.22952H19.5249C19.5145 1.22978 19.5053 1.23657 19.5019 1.24653C19.4986 1.25645 19.5018 1.26743 19.51 1.27399L19.66 1.38451L19.5985 1.55949C19.5957 1.56967 19.5996 1.58047 19.6083 1.58653C19.6128 1.5897 19.6181 1.59119 19.6234 1.59103C19.6281 1.59088 19.6328 1.58939 19.6369 1.58649L19.7869 1.479L19.937 1.58649C19.9455 1.59328 19.9575 1.59367 19.9663 1.58741C19.9752 1.58119 19.979 1.56982 19.9755 1.55949L19.919 1.38351L20.069 1.273C20.0772 1.26644 20.0804 1.25546 20.077 1.2455C20.0737 1.23558 20.0645 1.22875 20.054 1.22852H19.8695ZM18.452 1.22852L18.3924 1.05251C18.3855 1.02852 18.3555 1.02852 18.352 1.0535L18.2925 1.22952H18.1075C18.097 1.22978 18.0878 1.23657 18.0844 1.24653C18.0811 1.25645 18.0843 1.26743 18.0925 1.27399L18.2424 1.38451L18.181 1.55949C18.1782 1.56967 18.1821 1.58047 18.1907 1.58653C18.1993 1.59256 18.2109 1.59256 18.2195 1.58649L18.3695 1.479L18.5195 1.58649C18.5279 1.59328 18.5399 1.59367 18.5488 1.58741C18.5578 1.58119 18.5614 1.56982 18.558 1.55949L18.5015 1.38351L18.6515 1.273C18.6597 1.26644 18.6629 1.25546 18.6595 1.2455C18.6562 1.23558 18.647 1.22875 18.6365 1.22852H18.452ZM22.6425 1.05251C22.6425 1.04427 22.6381 1.03668 22.631 1.0326C22.6239 1.02848 22.6151 1.02848 22.608 1.0326C22.6009 1.03668 22.5965 1.04427 22.5965 1.05251L22.537 1.22852H22.3525C22.3419 1.22875 22.3328 1.23558 22.3294 1.2455C22.3261 1.25546 22.3293 1.26644 22.3374 1.273L22.4874 1.38351L22.431 1.55949C22.4282 1.56967 22.4321 1.58047 22.4408 1.58653C22.4494 1.59256 22.4609 1.59256 22.4695 1.58649L22.6195 1.479L22.7695 1.58649C22.7735 1.58978 22.7784 1.59157 22.7834 1.59184C22.7887 1.5921 22.7942 1.59065 22.7989 1.58741C22.8077 1.58119 22.8115 1.56982 22.808 1.55949L22.7515 1.38351L22.9015 1.273C22.9097 1.26644 22.9129 1.25546 22.9095 1.2455C22.9061 1.23558 22.897 1.22875 22.8865 1.22852H22.702L22.6425 1.05251ZM17.743 0.781517L17.6834 0.605507C17.6765 0.581512 17.6465 0.581512 17.643 0.606499L17.5835 0.782509H17.3985C17.388 0.782776 17.3788 0.789566 17.3754 0.799522C17.3721 0.809441 17.3753 0.820427 17.3835 0.826988L17.5334 0.9375L17.472 1.11252C17.4692 1.12267 17.4731 1.13346 17.4817 1.13953C17.4903 1.14555 17.5019 1.14555 17.5105 1.13949L17.6605 1.03199L17.8105 1.13949C17.8189 1.14628 17.8309 1.14666 17.8398 1.14044C17.8488 1.13419 17.8524 1.12282 17.849 1.11252L17.7925 0.936508L17.9425 0.825996C17.9507 0.819435 17.9539 0.808449 17.9505 0.798492C17.9472 0.788574 17.938 0.781784 17.9275 0.781517H17.743ZM19.1605 0.781517L19.101 0.605507C19.0969 0.591507 19.084 0.58567 19.0738 0.588226C19.0666 0.590019 19.0607 0.596085 19.0605 0.606499L19.001 0.782509H18.8159C18.8055 0.782776 18.7963 0.789566 18.7929 0.799522C18.7896 0.809441 18.7928 0.820427 18.801 0.826988L18.951 0.9375L18.8895 1.11252C18.8867 1.12267 18.8906 1.13346 18.8993 1.13953C18.903 1.14212 18.9072 1.14361 18.9115 1.14395C18.9172 1.14445 18.9231 1.14296 18.9279 1.13949L19.0779 1.03199L19.228 1.13949C19.2365 1.14628 19.2485 1.14666 19.2573 1.14044C19.2662 1.13419 19.27 1.12282 19.2665 1.11252L19.21 0.936508L19.36 0.825996C19.3643 0.822525 19.3672 0.817795 19.3685 0.812607C19.3697 0.808029 19.3696 0.803146 19.368 0.798492C19.3647 0.788574 19.3555 0.781784 19.345 0.781517H19.1605ZM20.5785 0.781517L20.519 0.605507C20.512 0.581512 20.479 0.581512 20.4785 0.605507L20.419 0.781517H20.229C20.2185 0.781784 20.2093 0.788574 20.2059 0.798492C20.2026 0.808449 20.2058 0.819435 20.214 0.825996L20.364 0.936508L20.3075 1.11252C20.3061 1.11771 20.3064 1.12309 20.3083 1.12793C20.31 1.13251 20.3131 1.13659 20.3173 1.13953C20.3206 1.14185 20.3244 1.14326 20.3282 1.1438C20.3344 1.14464 20.3407 1.14323 20.3459 1.13949L20.4959 1.03199L20.646 1.13949C20.6545 1.14628 20.6665 1.14666 20.6753 1.14044C20.6842 1.13419 20.688 1.12282 20.6845 1.11252L20.628 0.936508L20.778 0.825996C20.7862 0.819435 20.7894 0.808449 20.786 0.798492C20.7827 0.788574 20.7735 0.781784 20.763 0.781517H20.5785ZM21.9335 0.605507C21.9335 0.597305 21.9291 0.589676 21.922 0.585594C21.9193 0.58403 21.9164 0.583076 21.9134 0.582695C21.9085 0.582047 21.9034 0.583038 21.899 0.585594C21.8919 0.589676 21.8875 0.597305 21.8875 0.605507L21.828 0.781517H21.6435C21.6329 0.781784 21.6238 0.788574 21.6204 0.798492C21.6171 0.808449 21.6203 0.819435 21.6284 0.825996L21.7784 0.936508L21.722 1.11252C21.7192 1.12267 21.7231 1.13346 21.7318 1.13953C21.7404 1.14555 21.7519 1.14555 21.7605 1.13949L21.9105 1.03199L22.0605 1.13949C22.0641 1.14239 22.0684 1.1441 22.0728 1.14464C22.0787 1.1454 22.0848 1.14403 22.0899 1.14044C22.0987 1.13419 22.1025 1.12282 22.099 1.11252L22.0425 0.936508L22.1925 0.825996C22.2007 0.819435 22.2039 0.808449 22.2005 0.798492C22.1971 0.788574 22.188 0.781784 22.1775 0.781517H21.993L21.9335 0.605507ZM23.3515 0.605507C23.3491 0.595932 23.3404 0.589294 23.3306 0.589523C23.3207 0.58979 23.3123 0.596848 23.3105 0.606499L23.251 0.782509H23.0665C23.0619 0.782623 23.0576 0.783958 23.0538 0.786285C23.049 0.789299 23.0453 0.793915 23.0434 0.799522C23.04 0.809441 23.0433 0.820427 23.0515 0.826988L23.2015 0.9375L23.14 1.11252C23.1372 1.12267 23.1411 1.13346 23.1497 1.13953C23.1584 1.14555 23.1699 1.14555 23.1785 1.13949L23.3285 1.03199L23.4785 1.13949C23.4815 1.14185 23.4848 1.14342 23.4883 1.14422C23.495 1.14574 23.5021 1.14449 23.5079 1.14044C23.5167 1.13419 23.5205 1.12282 23.517 1.11252L23.4605 0.936508L23.6105 0.825996C23.6187 0.819435 23.6219 0.808449 23.6185 0.798492C23.6151 0.788574 23.606 0.781784 23.5955 0.781517H23.411L23.3515 0.605507Z" fill="#0D47A1"/>
<path d="M17.6834 4.26052L17.743 4.43649H17.9275C17.938 4.43676 17.9472 4.44355 17.9505 4.45351C17.9539 4.46345 17.9507 4.47445 17.9425 4.48101L17.7925 4.59152L17.849 4.76749C17.8524 4.77779 17.8488 4.78916 17.8398 4.79542C17.8309 4.80167 17.8189 4.80129 17.8105 4.7945L17.6605 4.687L17.5105 4.7945C17.5019 4.80057 17.4903 4.80057 17.4817 4.7945C17.4731 4.78846 17.4692 4.77766 17.472 4.76749L17.5334 4.59251L17.3835 4.482C17.3753 4.47544 17.3721 4.46445 17.3754 4.4545C17.3788 4.44458 17.388 4.43775 17.3985 4.43752H17.5835L17.643 4.26151C17.6465 4.23649 17.6765 4.23649 17.6834 4.26052ZM23.3306 4.24454C23.3404 4.24431 23.3491 4.25095 23.3515 4.26052L23.411 4.43649H23.5955C23.606 4.43676 23.6151 4.44355 23.6185 4.45351C23.6219 4.46345 23.6187 4.47445 23.6105 4.48101L23.4605 4.59152L23.517 4.76749C23.5205 4.77779 23.5167 4.78916 23.5079 4.79542C23.4989 4.80167 23.487 4.80129 23.4785 4.7945L23.3285 4.687L23.1785 4.7945C23.1699 4.80057 23.1584 4.80057 23.1497 4.7945C23.1411 4.78848 23.1372 4.77768 23.14 4.76749L23.2015 4.59251L23.0515 4.482C23.0433 4.47544 23.04 4.46445 23.0434 4.4545C23.0468 4.44458 23.056 4.43775 23.0665 4.43752H23.251L23.3105 4.26151C23.3123 4.25182 23.3207 4.24477 23.3306 4.24454ZM21.9126 4.24454C21.9224 4.24431 21.9311 4.25095 21.9335 4.26052L21.993 4.43649H22.1775C22.188 4.43676 22.1971 4.44355 22.2005 4.45351C22.2039 4.46346 22.2007 4.47445 22.1925 4.48101L22.0425 4.59152L22.099 4.76749C22.1025 4.77779 22.0987 4.78916 22.0899 4.79542C22.0809 4.80167 22.069 4.80129 22.0605 4.7945L21.9105 4.687L21.7605 4.7945C21.7519 4.80057 21.7404 4.80057 21.7318 4.7945C21.7231 4.78848 21.7192 4.77768 21.722 4.76749L21.7835 4.59251L21.6335 4.482C21.6253 4.47544 21.622 4.46445 21.6254 4.4545C21.6288 4.44458 21.638 4.43775 21.6485 4.43752H21.833L21.8925 4.26151C21.8943 4.25182 21.9027 4.24477 21.9126 4.24454ZM19.101 4.26052L19.1605 4.43649H19.345C19.3555 4.43676 19.3647 4.44356 19.368 4.45351C19.3714 4.46345 19.3682 4.47445 19.36 4.48101L19.21 4.59152L19.2665 4.76749C19.27 4.77779 19.2662 4.78916 19.2573 4.79542C19.2485 4.80167 19.2365 4.80129 19.228 4.7945L19.0779 4.687L18.9279 4.7945C18.9193 4.80057 18.9079 4.80057 18.8993 4.7945C18.8906 4.78848 18.8867 4.77768 18.8895 4.76749L18.951 4.59251L18.801 4.482C18.7928 4.47544 18.7896 4.46445 18.7929 4.4545C18.7963 4.44458 18.8055 4.43775 18.8159 4.43752H19.001L19.0605 4.26151C19.061 4.23649 19.094 4.23649 19.101 4.26052ZM20.519 4.26052L20.5785 4.43649H20.763C20.7735 4.43676 20.7827 4.44355 20.786 4.45351C20.7894 4.46346 20.7862 4.47445 20.778 4.48101L20.628 4.59152L20.6845 4.76749C20.688 4.77779 20.6842 4.78916 20.6753 4.79542C20.6665 4.80167 20.6545 4.80129 20.646 4.7945L20.4959 4.687L20.3459 4.7945C20.3373 4.80057 20.3259 4.80057 20.3173 4.7945C20.3086 4.78846 20.3047 4.77766 20.3075 4.76749L20.369 4.59251L20.219 4.482C20.2108 4.47544 20.2076 4.46445 20.2109 4.4545C20.2143 4.44458 20.2235 4.43775 20.2339 4.43752H20.419L20.4785 4.26151C20.479 4.23649 20.512 4.23649 20.519 4.26052ZM18.3924 3.79551L18.452 3.97152H18.6365C18.647 3.97179 18.6562 3.97858 18.6595 3.98849C18.6629 3.99845 18.6597 4.00944 18.6515 4.016L18.5015 4.12651L18.558 4.30252C18.5614 4.31282 18.5578 4.32419 18.5488 4.33041C18.5399 4.33666 18.5279 4.33628 18.5195 4.32949L18.3695 4.22199L18.2195 4.32949C18.2109 4.33556 18.1993 4.33556 18.1907 4.32953C18.1821 4.32346 18.1782 4.31267 18.181 4.30252L18.2375 4.12651L18.0875 4.016C18.0793 4.00944 18.076 3.99845 18.0794 3.98849C18.0828 3.97858 18.092 3.97179 18.1024 3.97152H18.2925L18.352 3.79551C18.3555 3.77151 18.3855 3.77151 18.3924 3.79551ZM22.631 3.7756C22.6381 3.77968 22.6425 3.78727 22.6425 3.79551L22.702 3.97152H22.8865C22.897 3.97179 22.9061 3.97858 22.9095 3.98849C22.9129 3.99845 22.9097 4.00944 22.9015 4.016L22.7515 4.12651L22.808 4.30252C22.8114 4.31282 22.8078 4.32416 22.7989 4.33041C22.7899 4.33666 22.778 4.33628 22.7695 4.32949L22.6195 4.22199L22.4695 4.32949C22.4609 4.33556 22.4494 4.33556 22.4408 4.32953C22.4321 4.32346 22.4282 4.31267 22.431 4.30252L22.4874 4.12651L22.3374 4.016C22.3293 4.00944 22.3261 3.99845 22.3294 3.98849C22.3328 3.97858 22.3419 3.97179 22.3525 3.97152H22.537L22.5965 3.79551C22.5965 3.78727 22.6009 3.77968 22.608 3.7756C22.6151 3.77148 22.6239 3.77148 22.631 3.7756ZM21.228 3.79551L21.2875 3.97152H21.472C21.4825 3.97179 21.4917 3.97858 21.495 3.98849C21.4984 3.99845 21.4952 4.00944 21.487 4.016L21.337 4.12651L21.3935 4.30252C21.397 4.31282 21.3932 4.32419 21.3843 4.33041C21.3755 4.33666 21.3635 4.33628 21.355 4.32949L21.2049 4.22199L21.0549 4.32949C21.0463 4.33556 21.0349 4.33556 21.0263 4.32953C21.0176 4.32346 21.0137 4.31267 21.0165 4.30252L21.073 4.12651L20.923 4.016C20.9148 4.00943 20.9116 3.99844 20.9149 3.98849C20.9183 3.97855 20.9275 3.97179 20.938 3.97152H21.1225L21.182 3.79551C21.188 3.77151 21.221 3.77151 21.228 3.79551ZM19.81 3.79551L19.8695 3.97152H20.054C20.0645 3.97179 20.0737 3.97858 20.077 3.98849C20.0804 3.99845 20.0772 4.00944 20.069 4.016L19.919 4.12651L19.9755 4.30252C19.979 4.31282 19.9752 4.32419 19.9663 4.33041C19.9575 4.33666 19.9455 4.33628 19.937 4.32949L19.7869 4.22199L19.6369 4.32949C19.6283 4.33554 19.6169 4.33558 19.6083 4.32953C19.5996 4.32348 19.5957 4.31268 19.5985 4.30252L19.655 4.12651L19.505 4.016C19.4968 4.00944 19.4936 3.99845 19.4969 3.98849C19.5003 3.97858 19.5095 3.97179 19.52 3.97152H19.71L19.7695 3.79551C19.77 3.77151 19.803 3.77151 19.81 3.79551ZM19.101 3.34499L19.1605 3.521H19.345C19.3555 3.52127 19.3647 3.52806 19.368 3.53802C19.3714 3.54797 19.3682 3.55892 19.36 3.56552L19.21 3.67599L19.2665 3.85201C19.27 3.8623 19.2662 3.87367 19.2573 3.87993C19.2484 3.88617 19.2365 3.8858 19.228 3.87901L19.0779 3.77151L18.9279 3.87901C18.9193 3.88504 18.9079 3.88508 18.8993 3.87901C18.8906 3.87299 18.8867 3.86215 18.8895 3.85201L18.946 3.67599L18.796 3.56552C18.7878 3.55892 18.7846 3.54797 18.7879 3.53802C18.7913 3.52806 18.8005 3.52127 18.811 3.521H19.001L19.0605 3.34499C19.061 3.32451 19.094 3.32451 19.101 3.34499ZM23.3515 3.34499L23.411 3.521H23.5955C23.606 3.52127 23.6151 3.52806 23.6185 3.53802C23.6219 3.54797 23.6187 3.55892 23.6105 3.56552L23.4605 3.67599L23.517 3.85201C23.5204 3.86231 23.5168 3.87368 23.5079 3.87993C23.4989 3.88618 23.487 3.8858 23.4785 3.87901L23.3285 3.77151L23.1785 3.87901C23.1699 3.88504 23.1584 3.88508 23.1497 3.87901C23.1411 3.87299 23.1372 3.86215 23.14 3.85201L23.1964 3.67599L23.0464 3.56552C23.0383 3.55892 23.0351 3.54797 23.0384 3.53802C23.0418 3.52806 23.0509 3.52127 23.0615 3.521H23.246L23.3055 3.34499C23.3145 3.32451 23.3475 3.32451 23.3515 3.34499ZM17.6834 3.34499L17.743 3.521H17.9275C17.938 3.52127 17.9472 3.52806 17.9505 3.53802C17.9539 3.54797 17.9507 3.55892 17.9425 3.56552L17.7925 3.67599L17.849 3.85201C17.8524 3.8623 17.8488 3.87367 17.8398 3.87993C17.8309 3.88618 17.8189 3.8858 17.8105 3.87901L17.6605 3.77151L17.5105 3.87901C17.5019 3.88504 17.4903 3.88508 17.4817 3.87901C17.4731 3.87299 17.4692 3.86215 17.472 3.85201L17.5285 3.67599L17.3785 3.56552C17.3703 3.55892 17.3671 3.54797 17.3704 3.53802C17.3738 3.52806 17.383 3.52127 17.3934 3.521H17.5835L17.643 3.34499C17.6465 3.32451 17.6765 3.32451 17.6834 3.34499ZM21.9335 3.34499L21.993 3.521H22.1775C22.188 3.52127 22.1971 3.52806 22.2005 3.53802C22.2039 3.54797 22.2007 3.55892 22.1925 3.56552L22.0425 3.67599L22.099 3.85201C22.1025 3.8623 22.0987 3.87367 22.0899 3.87993C22.0809 3.88618 22.069 3.8858 22.0605 3.87901L21.9105 3.77151L21.7605 3.87901C21.7519 3.88504 21.7404 3.88508 21.7318 3.87901C21.7231 3.87299 21.7192 3.86215 21.722 3.85201L21.7784 3.67599L21.6284 3.56552C21.6203 3.55892 21.6171 3.54797 21.6204 3.53802C21.6238 3.52807 21.633 3.52127 21.6435 3.521H21.828L21.8875 3.34499C21.8965 3.32449 21.9295 3.32449 21.9335 3.34499ZM20.519 3.34499L20.5785 3.521H20.763C20.7735 3.52127 20.7827 3.52806 20.786 3.53802C20.7894 3.54797 20.7862 3.55892 20.778 3.56552L20.628 3.67599L20.6845 3.85201C20.688 3.8623 20.6842 3.87367 20.6753 3.87993C20.6665 3.88618 20.6545 3.8858 20.646 3.87901L20.4959 3.77151L20.3459 3.87901C20.3373 3.88504 20.3259 3.88508 20.3173 3.87901C20.3086 3.87299 20.3047 3.86215 20.3075 3.85201L20.364 3.67599L20.214 3.56552C20.2058 3.55892 20.2026 3.54797 20.2059 3.53802C20.2093 3.52806 20.2185 3.52127 20.229 3.521H20.419L20.4785 3.34499C20.479 3.32451 20.512 3.32451 20.519 3.34499ZM18.3924 2.88052L18.452 3.05649H18.6365C18.647 3.05676 18.6562 3.06355 18.6595 3.0735C18.6629 3.08346 18.6597 3.09444 18.6515 3.10101L18.5015 3.21152L18.558 3.38749C18.5614 3.39779 18.5578 3.40919 18.5488 3.41541C18.5399 3.42167 18.5279 3.42129 18.5195 3.4145L18.3695 3.307L18.2195 3.4145C18.2109 3.42056 18.1993 3.42056 18.1907 3.4145C18.1821 3.40847 18.1782 3.39767 18.181 3.38749L18.2424 3.21251L18.0925 3.102C18.0843 3.09544 18.0811 3.08445 18.0844 3.07449C18.0878 3.06458 18.097 3.05779 18.1075 3.05752H18.2925L18.352 2.88151C18.3555 2.85652 18.3855 2.85652 18.3924 2.88052ZM22.6195 2.85751C22.6322 2.85751 22.6425 2.86781 22.6425 2.88052L22.702 3.05649H22.8865C22.897 3.05676 22.9061 3.06355 22.9095 3.0735C22.9129 3.08346 22.9097 3.09444 22.9015 3.10101L22.7515 3.21152L22.808 3.38749C22.8115 3.39779 22.8077 3.40919 22.7989 3.41541C22.7899 3.42167 22.778 3.42129 22.7695 3.4145L22.6195 3.307L22.4695 3.4145C22.4609 3.42055 22.4494 3.42054 22.4408 3.4145C22.4321 3.40847 22.4282 3.39767 22.431 3.38749L22.4874 3.21152L22.3374 3.10101C22.3293 3.09444 22.3261 3.08346 22.3294 3.0735C22.3328 3.06355 22.342 3.05675 22.3525 3.05649H22.537L22.5965 2.88052C22.5965 2.86781 22.6068 2.85751 22.6195 2.85751ZM21.228 2.88052L21.2875 3.05649H21.472C21.4825 3.05676 21.4917 3.06355 21.495 3.0735C21.4984 3.08346 21.4952 3.09444 21.487 3.10101L21.337 3.21152L21.3935 3.38749C21.397 3.39779 21.3932 3.40919 21.3843 3.41541C21.3755 3.42167 21.3635 3.42129 21.355 3.4145L21.2049 3.307L21.0549 3.4145C21.0463 3.42056 21.0349 3.42056 21.0263 3.4145C21.0176 3.40845 21.0137 3.39765 21.0165 3.38749L21.073 3.21152L20.923 3.10101C20.9148 3.09444 20.9116 3.08346 20.9149 3.0735C20.9183 3.06355 20.9275 3.05675 20.938 3.05649H21.1225L21.182 2.88052C21.188 2.85652 21.221 2.85652 21.228 2.88052ZM19.81 2.88052L19.8695 3.05649H20.054C20.0645 3.05676 20.0737 3.06355 20.077 3.0735C20.0804 3.08346 20.0772 3.09444 20.069 3.10101L19.919 3.21152L19.9755 3.38749C19.979 3.39779 19.9752 3.40919 19.9663 3.41541C19.9575 3.42167 19.9455 3.42129 19.937 3.4145L19.7869 3.307L19.6369 3.4145C19.6283 3.42056 19.6169 3.42056 19.6083 3.4145C19.5996 3.40847 19.5957 3.39767 19.5985 3.38749L19.66 3.21251L19.51 3.102C19.5018 3.09543 19.4986 3.08444 19.5019 3.07449C19.5053 3.06458 19.5145 3.05779 19.5249 3.05752H19.71L19.7695 2.88151C19.77 2.85652 19.803 2.85652 19.81 2.88052ZM19.101 2.43301L19.1605 2.60899H19.345C19.3555 2.60925 19.3647 2.61605 19.368 2.626C19.3714 2.63595 19.3682 2.64694 19.36 2.6535L19.21 2.76402L19.2665 2.93999C19.27 2.95033 19.2662 2.96169 19.2573 2.96791C19.2485 2.97417 19.2365 2.97379 19.228 2.967L19.0779 2.8595L18.9279 2.967C18.9193 2.97306 18.9079 2.97306 18.8993 2.96703C18.8906 2.96097 18.8867 2.95017 18.8895 2.93999L18.951 2.76501L18.801 2.6545C18.7928 2.64793 18.7896 2.63695 18.7929 2.62703C18.7963 2.61708 18.8055 2.61028 18.8159 2.61002H19.001L19.0605 2.43401C19.061 2.40902 19.094 2.40902 19.101 2.43301ZM23.3306 2.41703C23.3404 2.41679 23.3491 2.42345 23.3515 2.43301L23.411 2.60899H23.5955C23.606 2.60925 23.6151 2.61608 23.6185 2.626C23.6219 2.63596 23.6187 2.64694 23.6105 2.6535L23.4605 2.76402L23.517 2.93999C23.5204 2.95029 23.5168 2.96166 23.5079 2.96791C23.499 2.97416 23.487 2.97379 23.4785 2.967L23.3285 2.8595L23.1785 2.967C23.1699 2.97306 23.1584 2.97306 23.1497 2.96703C23.1411 2.96097 23.1372 2.95017 23.14 2.93999L23.2015 2.76501L23.0515 2.6545C23.0433 2.64793 23.04 2.63695 23.0434 2.62703C23.0468 2.61707 23.056 2.61028 23.0665 2.61002H23.251L23.3105 2.43401C23.3123 2.42432 23.3207 2.41726 23.3306 2.41703ZM21.9105 2.41001C21.9232 2.41001 21.9335 2.42031 21.9335 2.43301L21.993 2.60899H22.1775C22.188 2.60925 22.1971 2.61608 22.2005 2.626C22.2039 2.63596 22.2007 2.64694 22.1925 2.6535L22.0425 2.76402L22.099 2.93999C22.1025 2.95033 22.0987 2.96169 22.0899 2.96791C22.081 2.97416 22.069 2.97379 22.0605 2.967L21.9105 2.8595L21.7605 2.967C21.7519 2.97306 21.7404 2.97306 21.7318 2.96703C21.7231 2.96097 21.7192 2.95017 21.722 2.93999L21.7784 2.76402L21.6284 2.6535C21.6203 2.64694 21.6171 2.63596 21.6204 2.626C21.6238 2.61608 21.6329 2.60925 21.6435 2.60899H21.828L21.8875 2.43301C21.8875 2.42031 21.8978 2.41001 21.9105 2.41001ZM17.6834 2.43301L17.743 2.60899H17.9275C17.938 2.60925 17.9472 2.61608 17.9505 2.626C17.9539 2.63596 17.9507 2.64694 17.9425 2.6535L17.7925 2.76402L17.849 2.93999C17.8524 2.95033 17.8488 2.96169 17.8398 2.96791C17.8309 2.97417 17.8189 2.97379 17.8105 2.967L17.6605 2.8595L17.5105 2.967C17.5019 2.97305 17.4903 2.97308 17.4817 2.96703C17.4731 2.96097 17.4692 2.95017 17.472 2.93999L17.5334 2.76501L17.3835 2.6545C17.3753 2.64793 17.3721 2.63695 17.3754 2.62703C17.3788 2.61707 17.388 2.61028 17.3985 2.61002H17.5835L17.643 2.43401C17.6465 2.40902 17.6765 2.40902 17.6834 2.43301ZM20.519 2.43301L20.5785 2.60899H20.763C20.7735 2.60925 20.7827 2.61608 20.786 2.626C20.7894 2.63596 20.7862 2.64694 20.778 2.6535L20.628 2.76402L20.6845 2.93999C20.688 2.95033 20.6842 2.96169 20.6753 2.96791C20.6665 2.97417 20.6545 2.97379 20.646 2.967L20.4959 2.8595L20.3459 2.967C20.3373 2.97305 20.3259 2.97308 20.3173 2.96703C20.3086 2.96097 20.3047 2.95017 20.3075 2.93999L20.364 2.76402L20.214 2.6535C20.2058 2.64694 20.2026 2.63595 20.2059 2.626C20.2093 2.61608 20.2185 2.60925 20.229 2.60899H20.419L20.4785 2.43301C20.479 2.40902 20.512 2.40902 20.519 2.43301ZM18.3924 1.96449L18.452 2.1405H18.6365C18.647 2.14077 18.6562 2.14756 18.6595 2.15752C18.6629 2.16747 18.6597 2.17842 18.6515 2.18502L18.5015 2.29549L18.558 2.4715C18.5614 2.4818 18.5578 2.49317 18.5488 2.49943C18.5399 2.50568 18.5279 2.5053 18.5195 2.49851L18.3695 2.39101L18.2195 2.49851C18.2109 2.50454 18.1993 2.50458 18.1907 2.49851C18.1821 2.49249 18.1782 2.48165 18.181 2.4715L18.2375 2.29549L18.0875 2.18502C18.0793 2.17842 18.076 2.16747 18.0794 2.15752C18.0828 2.14757 18.092 2.14077 18.1024 2.1405H18.2925L18.352 1.96449C18.3555 1.94401 18.3855 1.94401 18.3924 1.96449ZM21.228 1.96449L21.2875 2.1405H21.472C21.4825 2.14077 21.4917 2.14756 21.495 2.15752C21.4984 2.16746 21.4952 2.17846 21.487 2.18502L21.337 2.29549L21.3935 2.4715C21.397 2.4818 21.3932 2.49317 21.3843 2.49943C21.3754 2.50567 21.3635 2.5053 21.355 2.49851L21.2049 2.39101L21.0549 2.49851C21.0463 2.50454 21.0349 2.50458 21.0263 2.49851C21.0176 2.49249 21.0137 2.48165 21.0165 2.4715L21.073 2.29549L20.923 2.18502C20.9148 2.17846 20.9116 2.16746 20.9149 2.15752C20.9183 2.14756 20.9275 2.14077 20.938 2.1405H21.1225L21.182 1.96449C21.188 1.94401 21.221 1.94401 21.228 1.96449ZM19.81 1.96449L19.8695 2.1405H20.054C20.0645 2.14077 20.0737 2.14756 20.077 2.15752C20.0804 2.16747 20.0772 2.17842 20.069 2.18502L19.919 2.29549L19.9755 2.4715C19.979 2.4818 19.9752 2.49317 19.9663 2.49943C19.9575 2.50568 19.9455 2.5053 19.937 2.49851L19.7869 2.39101L19.6369 2.49851C19.6283 2.50454 19.6169 2.50458 19.6083 2.49851C19.5996 2.49249 19.5957 2.48165 19.5985 2.4715L19.655 2.29549L19.505 2.18502C19.4968 2.17842 19.4936 2.16747 19.4969 2.15752C19.5003 2.14756 19.5095 2.14077 19.52 2.1405H19.71L19.7695 1.96449C19.77 1.94401 19.803 1.94401 19.81 1.96449ZM22.6425 1.96449L22.702 2.1405H22.8865C22.897 2.14077 22.9061 2.14757 22.9095 2.15752C22.9129 2.16747 22.9097 2.17842 22.9015 2.18502L22.7515 2.29549L22.808 2.4715C22.8115 2.4818 22.8077 2.49317 22.7989 2.49943C22.79 2.50567 22.778 2.5053 22.7695 2.49851L22.6195 2.39101L22.4695 2.49851C22.4609 2.50454 22.4494 2.50458 22.4408 2.49851C22.4321 2.49249 22.4282 2.48165 22.431 2.4715L22.4874 2.29549L22.3374 2.18502C22.3293 2.17842 22.3261 2.16747 22.3294 2.15752C22.3328 2.14756 22.3419 2.14077 22.3525 2.1405H22.537L22.5965 1.96449C22.6055 1.94401 22.6385 1.94401 22.6425 1.96449ZM20.519 1.51749L20.5785 1.6935H20.763C20.7735 1.69376 20.7827 1.70055 20.786 1.71051C20.7894 1.72047 20.7862 1.73145 20.778 1.73801L20.628 1.84849L20.6845 2.0245C20.688 2.0348 20.6842 2.04617 20.6753 2.05242C20.6665 2.05868 20.6545 2.0583 20.646 2.05151L20.4959 1.94401L20.3459 2.05151C20.3373 2.05756 20.3259 2.05755 20.3173 2.05151C20.3086 2.04546 20.3047 2.03466 20.3075 2.0245L20.364 1.84849L20.214 1.73801C20.2058 1.73145 20.2026 1.72047 20.2059 1.71051C20.2093 1.70055 20.2185 1.69376 20.229 1.6935H20.419L20.4785 1.51749C20.479 1.497 20.512 1.497 20.519 1.51749ZM17.6834 1.51749L17.743 1.6935H17.9275C17.938 1.69376 17.9472 1.70055 17.9505 1.71051C17.9539 1.72047 17.9507 1.73145 17.9425 1.73801L17.7925 1.84849L17.849 2.0245C17.8524 2.0348 17.8488 2.04617 17.8398 2.05242C17.8309 2.05868 17.8189 2.0583 17.8105 2.05151L17.6605 1.94401L17.5105 2.05151C17.5019 2.05757 17.4903 2.05757 17.4817 2.05151C17.4731 2.04548 17.4692 2.03468 17.472 2.0245L17.5285 1.84849L17.3785 1.73801C17.3703 1.73145 17.3671 1.72047 17.3704 1.71051C17.3738 1.70055 17.383 1.69376 17.3934 1.6935H17.5835L17.643 1.51749C17.6465 1.497 17.6765 1.497 17.6834 1.51749ZM19.103 1.51749L19.1625 1.6935H19.3479C19.3585 1.69376 19.3677 1.70055 19.3711 1.71051C19.3744 1.72046 19.3712 1.73145 19.363 1.73801L19.213 1.84849L19.2694 2.0245C19.2729 2.0348 19.2692 2.04617 19.2604 2.05242C19.2514 2.05868 19.2395 2.0583 19.231 2.05151L19.081 1.94401L18.931 2.05151C18.9224 2.05757 18.9109 2.05757 18.9022 2.05151C18.8936 2.04548 18.8897 2.03468 18.8925 2.0245L18.949 1.84849L18.799 1.73801C18.7908 1.73145 18.7876 1.72046 18.7909 1.71051C18.7943 1.70055 18.8035 1.69376 18.814 1.6935H18.998L19.0575 1.51749C19.061 1.497 19.094 1.497 19.103 1.51749ZM21.9335 1.51749L21.993 1.6935H22.1775C22.188 1.69376 22.1971 1.70056 22.2005 1.71051C22.2039 1.72047 22.2007 1.73145 22.1925 1.73801L22.0425 1.84849L22.099 2.0245C22.1025 2.0348 22.0987 2.04617 22.0899 2.05242C22.0809 2.05868 22.069 2.0583 22.0605 2.05151L21.9105 1.94401L21.7605 2.05151C21.7519 2.05757 21.7404 2.05757 21.7318 2.05151C21.7231 2.04546 21.7192 2.03466 21.722 2.0245L21.7784 1.84849L21.6284 1.73801C21.6203 1.73145 21.6171 1.72047 21.6204 1.71051C21.6238 1.70055 21.6329 1.69376 21.6435 1.6935H21.828L21.8875 1.51749C21.8965 1.497 21.9295 1.497 21.9335 1.51749ZM23.3515 1.51749L23.411 1.6935H23.5955C23.606 1.69376 23.6151 1.70055 23.6185 1.71051C23.6219 1.72047 23.6187 1.73145 23.6105 1.73801L23.4605 1.84849L23.517 2.0245C23.5205 2.0348 23.5167 2.04617 23.5079 2.05242C23.499 2.05867 23.487 2.0583 23.4785 2.05151L23.3285 1.94401L23.1785 2.05151C23.1699 2.05757 23.1584 2.05757 23.1497 2.05151C23.1411 2.04548 23.1372 2.03468 23.14 2.0245L23.1964 1.84849L23.0464 1.73801C23.0383 1.73145 23.0351 1.72047 23.0384 1.71051C23.0418 1.70055 23.0509 1.69376 23.0615 1.6935H23.246L23.3055 1.51749C23.3145 1.497 23.3475 1.497 23.3515 1.51749ZM21.228 1.05251L21.2875 1.22852H21.472C21.4825 1.22879 21.4917 1.23555 21.495 1.2455C21.4984 1.25546 21.4952 1.26644 21.487 1.273L21.337 1.38351L21.3935 1.55949C21.397 1.56982 21.3932 1.58119 21.3843 1.58741C21.3755 1.59367 21.3635 1.59328 21.355 1.58649L21.2049 1.479L21.0549 1.58649C21.0463 1.59256 21.0349 1.59256 21.0263 1.58653C21.0176 1.58049 21.0137 1.56965 21.0165 1.55949L21.073 1.38351L20.923 1.273C20.9148 1.26644 20.9116 1.25546 20.9149 1.2455C20.9183 1.23558 20.9275 1.22875 20.938 1.22852H21.1225L21.182 1.05251C21.188 1.02852 21.221 1.02852 21.228 1.05251ZM19.81 1.05251L19.8695 1.22852H20.054C20.0645 1.22875 20.0737 1.23558 20.077 1.2455C20.0804 1.25546 20.0772 1.26644 20.069 1.273L19.919 1.38351L19.9755 1.55949C19.979 1.56982 19.9752 1.58119 19.9663 1.58741C19.9575 1.59367 19.9455 1.59328 19.937 1.58649L19.7869 1.479L19.6369 1.58649C19.6283 1.59255 19.6169 1.59258 19.6083 1.58653C19.5996 1.58047 19.5957 1.56967 19.5985 1.55949L19.66 1.38451L19.51 1.27399C19.5018 1.26743 19.4986 1.25645 19.5019 1.24653C19.5053 1.23657 19.5145 1.22978 19.5249 1.22952H19.71L19.7695 1.0535C19.77 1.0285 19.803 1.02851 19.81 1.05251ZM18.3924 1.05251L18.452 1.22852H18.6365C18.647 1.22875 18.6562 1.23558 18.6595 1.2455C18.6629 1.25546 18.6597 1.26644 18.6515 1.273L18.5015 1.38351L18.558 1.55949C18.5614 1.56982 18.5578 1.58119 18.5488 1.58741C18.5399 1.59367 18.5279 1.59328 18.5195 1.58649L18.3695 1.479L18.2195 1.58649C18.2109 1.59256 18.1993 1.59256 18.1907 1.58653C18.1821 1.58047 18.1782 1.56967 18.181 1.55949L18.2424 1.38451L18.0925 1.27399C18.0843 1.26743 18.0811 1.25645 18.0844 1.24653C18.0878 1.23657 18.097 1.22978 18.1075 1.22952H18.2925L18.352 1.0535C18.3555 1.02852 18.3855 1.02852 18.3924 1.05251ZM22.631 1.0326C22.6381 1.03668 22.6425 1.04427 22.6425 1.05251L22.702 1.22852H22.8865C22.897 1.22875 22.9061 1.23558 22.9095 1.2455C22.9129 1.25546 22.9097 1.26644 22.9015 1.273L22.7515 1.38351L22.808 1.55949C22.8115 1.56982 22.8077 1.58119 22.7989 1.58741C22.79 1.59366 22.778 1.59329 22.7695 1.58649L22.6195 1.479L22.4695 1.58649C22.4609 1.59256 22.4494 1.59256 22.4408 1.58653C22.4321 1.58047 22.4282 1.56967 22.431 1.55949L22.4874 1.38351L22.3374 1.273C22.3293 1.26644 22.3261 1.25546 22.3294 1.2455C22.3328 1.23558 22.3419 1.22875 22.3525 1.22852H22.537L22.5965 1.05251C22.5965 1.04427 22.6009 1.03668 22.608 1.0326C22.6151 1.02848 22.6239 1.02848 22.631 1.0326ZM17.6834 0.605507L17.743 0.781517H17.9275C17.938 0.781784 17.9472 0.788574 17.9505 0.798492C17.9539 0.808449 17.9507 0.819435 17.9425 0.825996L17.7925 0.936508L17.849 1.11252C17.8524 1.12282 17.8488 1.13419 17.8398 1.14044C17.8309 1.14666 17.8189 1.14628 17.8105 1.13949L17.6605 1.03199L17.5105 1.13949C17.5019 1.14555 17.4903 1.14555 17.4817 1.13953C17.4731 1.13346 17.4692 1.12267 17.472 1.11252L17.5334 0.9375L17.3835 0.826988C17.3753 0.820427 17.3721 0.809441 17.3754 0.799522C17.3788 0.789566 17.388 0.782776 17.3985 0.782509H17.5835L17.643 0.606499C17.6465 0.581512 17.6765 0.581512 17.6834 0.605507ZM19.101 0.605507L19.1605 0.781517H19.345C19.3555 0.781784 19.3647 0.788574 19.368 0.798492C19.3714 0.808439 19.3682 0.819432 19.36 0.825996L19.21 0.936508L19.2665 1.11252C19.27 1.12282 19.2662 1.13419 19.2573 1.14044C19.2485 1.14666 19.2365 1.14628 19.228 1.13949L19.0779 1.03199L18.9279 1.13949C18.9193 1.14554 18.9079 1.14557 18.8993 1.13953C18.8906 1.13346 18.8867 1.12267 18.8895 1.11252L18.951 0.9375L18.801 0.826988C18.7928 0.820427 18.7896 0.809441 18.7929 0.799522C18.7963 0.789566 18.8055 0.782776 18.8159 0.782509H19.001L19.0605 0.606499C19.061 0.581499 19.094 0.581507 19.101 0.605507ZM20.519 0.605507L20.5785 0.781517H20.763C20.7735 0.781784 20.7827 0.788574 20.786 0.798492C20.7894 0.808449 20.7862 0.819435 20.778 0.825996L20.628 0.936508L20.6845 1.11252C20.688 1.12282 20.6842 1.13419 20.6753 1.14044C20.6665 1.14666 20.6545 1.14628 20.646 1.13949L20.4959 1.03199L20.3459 1.13949C20.3373 1.14554 20.3259 1.14557 20.3173 1.13953C20.3086 1.13348 20.3047 1.12268 20.3075 1.11252L20.364 0.936508L20.214 0.825996C20.2058 0.819435 20.2026 0.808449 20.2059 0.798492C20.2093 0.788574 20.2185 0.781784 20.229 0.781517H20.419L20.4785 0.605507C20.479 0.581512 20.512 0.581512 20.519 0.605507ZM21.922 0.585594C21.9291 0.589676 21.9335 0.597305 21.9335 0.605507L21.993 0.781517H22.1775C22.188 0.781784 22.1971 0.788574 22.2005 0.798492C22.2039 0.808449 22.2007 0.819435 22.1925 0.825996L22.0425 0.936508L22.099 1.11252C22.1025 1.12282 22.0987 1.13419 22.0899 1.14044C22.081 1.14669 22.069 1.14628 22.0605 1.13949L21.9105 1.03199L21.7605 1.13949C21.7519 1.14555 21.7404 1.14555 21.7318 1.13953C21.7231 1.13346 21.7192 1.12267 21.722 1.11252L21.7784 0.936508L21.6284 0.825996C21.6203 0.819435 21.6171 0.808449 21.6204 0.798492C21.6238 0.788574 21.6329 0.781784 21.6435 0.781517H21.828L21.8875 0.605507C21.8875 0.597305 21.8919 0.589676 21.899 0.585594C21.9061 0.581486 21.9148 0.581486 21.922 0.585594ZM23.3306 0.589523C23.3404 0.589294 23.3491 0.595932 23.3515 0.605507L23.411 0.781517H23.5955C23.606 0.781784 23.6151 0.788574 23.6185 0.798492C23.6219 0.808449 23.6187 0.819435 23.6105 0.825996L23.4605 0.936508L23.517 1.11252C23.5205 1.12282 23.5167 1.13419 23.5079 1.14044C23.499 1.14669 23.487 1.14628 23.4785 1.13949L23.3285 1.03199L23.1785 1.13949C23.1699 1.14555 23.1584 1.14555 23.1497 1.13953C23.1411 1.13346 23.1372 1.12267 23.14 1.11252L23.2015 0.9375L23.0515 0.826988C23.0433 0.820427 23.04 0.809441 23.0434 0.799522C23.0467 0.789575 23.056 0.782775 23.0665 0.782509H23.251L23.3105 0.606499C23.3123 0.596848 23.3207 0.58979 23.3306 0.589523Z" fill="#F5F5F5"/>
<path fill-rule="evenodd" clip-rule="evenodd" d="M30.75 0.625H18.25C17.9048 0.625 17.625 0.904822 17.625 1.25V8.75C17.625 9.09518 17.9048 9.375 18.25 9.375H30.75C31.0952 9.375 31.375 9.09518 31.375 8.75V1.25C31.375 0.904822 31.0952 0.625 30.75 0.625ZM18.25 0C17.5596 0 17 0.559654 17 1.25V8.75C17 9.44036 17.5596 10 18.25 10H30.75C31.4404 10 32 9.44036 32 8.75V1.25C32 0.559644 31.4404 0 30.75 0H18.25Z" fill="black" fill-opacity="0.08"/>
</svg>
