<svg width="32" height="32" viewBox="0 0 32 32" fill="none" xmlns="http://www.w3.org/2000/svg">
<path fill-rule="evenodd" clip-rule="evenodd" d="M17.5145 4.85749L21.8 12H27C27.5523 12 28 12.4477 28 13C28 13.5523 27.5523 14 27 14H5C4.44772 14 4 13.5523 4 13C4 12.4477 4.44772 12 5 12H10.2L14.4855 4.85749C14.8047 4.32551 15.3796 4 16 4C16.6204 4 17.1953 4.32551 17.5145 4.85749ZM13.1852 12L15.914 7.39517C15.9527 7.32981 16.0473 7.32981 16.086 7.39517L18.8148 12H13.1852Z" fill="#0AA0B0"/>
<path fill-rule="evenodd" clip-rule="evenodd" d="M25.7192 16C26.3698 16 26.8471 16.6114 26.6894 17.2425L24.1894 27.2425C24.0781 27.6877 23.6781 28 23.2192 28H8.78077C8.3219 28 7.92192 27.6877 7.81062 27.2425L5.31062 17.2425C5.15284 16.6114 5.6302 16 6.28077 16H25.7192ZM10.0001 20C10.0001 19.4477 10.4478 19 11.0001 19C11.5524 19 12.0001 19.4477 12.0001 20V24C12.0001 24.5523 11.5524 25 11.0001 25C10.4478 25 10.0001 24.5523 10.0001 24V20ZM16.0001 19C15.4478 19 15.0001 19.4477 15.0001 20V24C15.0001 24.5523 15.4478 25 16.0001 25C16.5524 25 17.0001 24.5523 17.0001 24V20C17.0001 19.4477 16.5524 19 16.0001 19ZM20.0001 20C20.0001 19.4477 20.4478 19 21.0001 19C21.5524 19 22.0001 19.4477 22.0001 20V24C22.0001 24.5523 21.5524 25 21.0001 25C20.4478 25 20.0001 24.5523 20.0001 24V20Z" fill="#0AA0B0"/>
<g clip-path="url(#clip0_8821_16652)">
<path d="M32 5C32 7.76142 29.7614 10 27 10C24.2386 10 22 7.76142 22 5C22 2.23858 24.2386 0 27 0C29.7614 0 32 2.23858 32 5Z" fill="#FFDA5B"/>
<path d="M30.1878 1.14784C29.9707 0.968002 29.7382 0.806162 29.4925 0.664605L22.6646 7.49254C22.8062 7.73823 22.968 7.97075 23.1478 8.18782L30.1878 1.14784Z" fill="#FDF1CA"/>
<path d="M24.4131 9.27962C24.052 9.06089 23.7208 8.79776 23.4271 8.4978L30.4978 1.42713C30.7978 1.72083 31.0609 2.052 31.2796 2.41307L24.4131 9.27962Z" fill="#FDF1CA"/>
<path d="M25.8738 9.87264C25.7176 9.83669 25.5642 9.79341 25.4139 9.7432L31.7432 3.41394C31.7934 3.56417 31.8367 3.71756 31.8726 3.87376L25.8738 9.87264Z" fill="#FDF1CA"/>
<path d="M31.0625 5C31.0625 7.24366 29.2437 9.0625 27 9.0625C24.7563 9.0625 22.9375 7.24366 22.9375 5C22.9375 2.75634 24.7563 0.9375 27 0.9375C29.2437 0.9375 31.0625 2.75634 31.0625 5Z" fill="#FFC329"/>
<path d="M27 9.0625C29.2437 9.0625 31.0625 7.24366 31.0625 5C31.0625 4.31142 30.8912 3.66285 30.5889 3.09458C27.9445 3.86018 25.8602 5.94445 25.0945 8.58883C25.6628 8.89118 26.3114 9.0625 27 9.0625Z" fill="#F8B712"/>
<path d="M30.0246 2.28785C29.3055 1.64254 28.3548 1.25 27.3125 1.25C25.0688 1.25 23.25 3.06884 23.25 5.3125C23.25 6.35482 23.6425 7.30546 24.2879 8.02464C23.4589 7.28088 22.9375 6.20134 22.9375 5C22.9375 2.75634 24.7563 0.9375 27 0.9375C28.2013 0.9375 29.2809 1.45895 30.0246 2.28785Z" fill="#DB9E43"/>
</g>
<defs>
<clipPath id="clip0_8821_16652">
<rect width="10" height="10" fill="white" transform="translate(22)"/>
</clipPath>
</defs>
</svg>
