<svg width="32" height="32" viewBox="0 0 32 32" fill="none" xmlns="http://www.w3.org/2000/svg">
<g clip-path="url(#clip0_8821_17061)">
<path d="M32 16C32 24.8366 24.8366 32 16 32C7.16344 32 0 24.8366 0 16C0 7.16344 7.16344 0 16 0C24.8366 0 32 7.16344 32 16Z" fill="#337DBE"/>
<path d="M16.6145 12.2214C16.43 12.3347 16.213 12.3828 15.998 12.3583C15.7828 12.3841 15.5652 12.3365 15.3805 12.2231C15.1957 12.1097 15.0548 11.9372 14.9804 11.7337L14.461 5.8597C14.461 5.27722 15.1418 4.8 15.998 4.8C16.8541 4.8 17.5349 5.27722 17.5349 5.8597L17.0156 11.7337C16.9401 11.9365 16.7989 12.1082 16.6145 12.2214Z" fill="#FDB71B"/>
<path d="M13.0128 13.5942C13.0192 13.8114 12.9507 14.0242 12.8188 14.197L12.8329 14.1899C12.7479 14.3889 12.5988 14.5536 12.4092 14.6579C12.2197 14.7622 12.0007 14.8 11.7872 14.7654L6.42555 12.2741C5.92026 11.9793 5.8571 11.1161 6.27818 10.4143C6.69925 9.71252 7.45718 9.32654 7.95545 9.61427L12.7838 13.0039C12.9255 13.1686 13.0064 13.377 13.0128 13.5942Z" fill="#FDB71B"/>
<path d="M19.177 14.1899C19.2612 14.3891 19.4104 14.5538 19.6004 14.6571C19.7904 14.7604 20.0098 14.7961 20.2227 14.7584L25.5703 12.274C26.0756 11.9793 26.1458 11.1582 25.7247 10.4143C25.3036 9.67041 24.5387 9.32653 24.0404 9.61427L19.2121 13.0039C19.0754 13.1726 19.0007 13.3832 19.0007 13.6004C19.0007 13.8176 19.0754 14.0282 19.2121 14.1969L19.177 14.1899Z" fill="#FDB71B"/>
<path d="M16.6145 19.8358C16.43 19.7226 16.213 19.6744 15.998 19.699C15.7828 19.6731 15.5652 19.7208 15.3805 19.8342C15.1957 19.9475 15.0548 20.12 14.9804 20.3236L14.461 26.1975C14.461 26.78 15.1628 27.2572 15.998 27.2572C16.8331 27.2572 17.5349 26.78 17.5349 26.1975L17.0156 20.3236C16.9401 20.1207 16.7989 19.949 16.6145 19.8358Z" fill="#FDB71B"/>
<path d="M19.1771 17.8673C19.2606 17.6708 19.4077 17.508 19.5947 17.405C19.7817 17.3019 19.9979 17.2645 20.2087 17.2989L25.5563 19.7832C26.0616 20.0779 26.1318 20.9061 25.7107 21.6429C25.2896 22.3798 24.5247 22.7307 24.0264 22.443L19.1981 19.0603C19.062 18.89 18.9879 18.6784 18.9879 18.4603C18.9879 18.2423 19.062 18.0307 19.1981 17.8603L19.1771 17.8673Z" fill="#FDB71B"/>
<path d="M13.0116 18.4665C13.018 18.2484 12.95 18.0347 12.8188 17.8603L12.8329 17.8674C12.7488 17.6682 12.5995 17.5035 12.4095 17.4002C12.2195 17.2969 12.0001 17.2612 11.7872 17.2989L6.42555 19.7832C5.92026 20.078 5.8571 20.9061 6.27818 21.643C6.69925 22.3799 7.45718 22.7308 7.95545 22.443L12.7838 19.0604C12.9249 18.894 13.0053 18.6846 13.0116 18.4665Z" fill="#FDB71B"/>
</g>
<defs>
<clipPath id="clip0_8821_17061">
<rect width="32" height="32" fill="white"/>
</clipPath>
</defs>
</svg>
