<svg width="32" height="32" viewBox="0 0 32 32" fill="none" xmlns="http://www.w3.org/2000/svg">
<g clip-path="url(#clip0_8821_16623)">
<path d="M19.9999 11C19.9999 15.97 15.9709 19.9989 11.0009 19.9989C6.03094 19.9989 2.00195 15.97 2.00195 11C2.00195 6.02996 6.03094 2.00098 11.0009 2.00098C15.9709 2.00098 19.9999 6.02996 19.9999 11Z" fill="#DFDFDF"/>
<path d="M16.7384 4.06685C16.3477 3.74318 15.9292 3.4519 15.487 3.19713L3.19811 15.486C3.45288 15.9282 3.74416 16.3467 4.06783 16.7374L16.7384 4.06685Z" fill="#F8F8F8"/>
<path d="M6.34499 18.7024C5.69513 18.3087 5.09909 17.8352 4.57049 17.2953L17.2963 4.56951C17.8361 5.09811 18.3097 5.69416 18.7034 6.34401L6.34499 18.7024Z" fill="#F8F8F8"/>
<path d="M8.97393 19.7697C8.69281 19.705 8.41673 19.6271 8.14636 19.5368L19.5377 8.14538C19.6281 8.41575 19.706 8.69184 19.7707 8.97296L8.97393 19.7697Z" fill="#F8F8F8"/>
<path d="M18.3126 11C18.3126 15.0381 15.0391 18.3116 11.0009 18.3116C6.96281 18.3116 3.68926 15.0381 3.68926 11C3.68926 6.96183 6.96281 3.68829 11.0009 3.68829C15.0391 3.68829 18.3126 6.96183 18.3126 11Z" fill="#D1D1D1"/>
<path d="M11.0009 18.3116C15.0391 18.3116 18.3126 15.0381 18.3126 11C18.3126 9.76065 18.0043 8.59335 17.4601 7.5706C12.7008 8.94851 8.94947 12.6998 7.5715 17.4591C8.59427 18.0033 9.7616 18.3116 11.0009 18.3116Z" fill="#C4C4C4"/>
<path d="M16.4447 6.11865C15.1503 4.95722 13.4393 4.25072 11.5634 4.25072C7.52525 4.25072 4.2517 7.52427 4.2517 11.5624C4.2517 13.4384 4.95819 15.1493 6.11963 16.4437C4.62776 15.1051 3.68926 13.1621 3.68926 11C3.68926 6.96183 6.96281 3.68829 11.0009 3.68829C13.1631 3.68829 15.1061 4.62679 16.4447 6.11865Z" fill="#ADADAD"/>
</g>
<path d="M29.9999 21C29.9999 25.97 25.9709 29.9989 21.0009 29.9989C16.0309 29.9989 12.002 25.97 12.002 21C12.002 16.03 16.0309 12.001 21.0009 12.001C25.9709 12.001 29.9999 16.03 29.9999 21Z" fill="#283991"/>
<path d="M21.1987 14.4641L20.9794 13.7891L20.76 14.4641H20.05L20.6245 14.8813L20.4052 15.5564L20.9794 15.1389L21.5537 15.5564L21.3344 14.8813L21.9087 14.4641H21.1987Z" fill="#F8D12E"/>
<path d="M21.1987 27.2078L20.9794 26.5324L20.76 27.2078H20.05L20.6245 27.6249L20.4052 28.2999L20.9794 27.8828L21.5537 28.2999L21.3344 27.6249L21.9087 27.2078H21.1987Z" fill="#F8D12E"/>
<path d="M24.4767 14.9185L24.696 15.5937H25.406L24.8316 16.0112L25.051 16.6862L24.4767 16.2688L23.9024 16.6862L24.1218 16.0112L23.5475 15.5937H24.2575L24.4767 14.9185Z" fill="#F8D12E"/>
<path d="M27.0822 17.9478L26.863 17.2728L26.6434 17.9478H25.9336L26.508 18.3651L26.2886 19.0402L26.863 18.623L27.4372 19.0402L27.2178 18.3651L27.7922 17.9478H27.0822Z" fill="#F8D12E"/>
<path d="M26.9198 23.2209L27.139 23.8962H27.8489L27.2746 24.3134L27.4941 24.9882L26.9198 24.5712L26.3454 24.9882L26.5648 24.3134L25.9904 23.8962H26.7004L26.9198 23.2209Z" fill="#F8D12E"/>
<path d="M15.4014 17.9478L15.1822 17.2728L14.9629 17.9478H14.253L14.8272 18.3651L14.6078 19.0402L15.1822 18.623L15.7563 19.0402L15.537 18.3651L16.1112 17.9478H15.4014Z" fill="#F8D12E"/>
<path d="M27.416 20.1095L27.6352 20.7845H28.3452L27.7709 21.2017L27.9902 21.8769L27.416 21.4599L26.8416 21.8769L27.0612 21.2017L26.4867 20.7845H27.1965L27.416 20.1095Z" fill="#F8D12E"/>
<path d="M14.859 20.7845L14.6398 20.1095L14.4204 20.7845H13.7105L14.2848 21.2017L14.0654 21.8769L14.6398 21.4599L15.214 21.8769L14.9945 21.2017L15.5688 20.7845H14.859Z" fill="#F8D12E"/>
<path d="M15.1052 23.2209L15.3244 23.8962H16.0343L15.4601 24.3134L15.6793 24.9882L15.1052 24.5712L14.5309 24.9882L14.7502 24.3134L14.1759 23.8962H14.8858L15.1052 23.2209Z" fill="#F8D12E"/>
<path d="M24.7989 26.3505L24.5797 25.6755L24.3603 26.3505H23.6504L24.2248 26.768L24.0052 27.443L24.5797 27.0258L25.1539 27.443L24.9344 26.768L25.5089 26.3505H24.7989Z" fill="#F8D12E"/>
<path d="M17.5953 14.9185L17.8145 15.5937H18.5244L17.9501 16.0112L18.1696 16.6862L17.5953 16.2688L17.021 16.6862L17.2404 16.0112L16.6661 15.5937H17.3759L17.5953 14.9185Z" fill="#F8D12E"/>
<path d="M17.5556 26.3077L17.3362 25.6323L17.1168 26.3077H16.407L16.9814 26.7247L16.762 27.3997L17.3362 26.9828L17.9106 27.3997L17.6912 26.7247L18.2656 26.3077H17.5556Z" fill="#F8D12E"/>
<defs>
<clipPath id="clip0_8821_16623">
<rect width="17.998" height="17.998" fill="white" transform="translate(2.00195 2.00098)"/>
</clipPath>
</defs>
</svg>
