<svg width="32" height="32" viewBox="0 0 32 32" fill="none" xmlns="http://www.w3.org/2000/svg">
<g clip-path="url(#clip0_8821_17064)">
<path d="M32 16C32 24.8366 24.8366 32 16 32C7.16344 32 0 24.8366 0 16C0 7.16344 7.16344 0 16 0C24.8366 0 32 7.16344 32 16Z" fill="#2D8CFF"/>
<path d="M5.07865 18.6798L5.34831 18.6933H9.39326L9.37978 18.4236C9.34607 17.9787 9.02921 17.6551 8.58427 17.6281L8.31461 17.6146H5.88764L9.1236 14.3787L9.11011 14.109C9.08989 13.664 8.75955 13.3337 8.31461 13.3135L8.04494 13.3H4L4.01348 13.5697C4.04719 14.0079 4.37079 14.3382 4.80899 14.3652L5.07865 14.3787H7.50562L4.26966 17.6146L4.28315 17.8843C4.31011 18.3292 4.63371 18.6528 5.07865 18.6798Z" fill="white"/>
<path fill-rule="evenodd" clip-rule="evenodd" d="M11.8202 13.3C12.5146 13.3 13.2022 13.5629 13.7281 14.0888C14.7798 15.1404 14.7798 16.8528 13.7281 17.9045C12.6697 18.9562 10.964 18.9562 9.91236 17.9045C8.86067 16.8461 8.86067 15.1404 9.91236 14.0888C10.4382 13.5629 11.1326 13.3 11.8202 13.3ZM10.6809 17.1427C11.3079 17.7764 12.3326 17.7764 12.9663 17.1427C13.5933 16.509 13.5933 15.4843 12.9663 14.8573C12.3393 14.2236 11.3146 14.2236 10.6809 14.8573C10.0472 15.4843 10.0472 16.509 10.6809 17.1427Z" fill="white"/>
<path fill-rule="evenodd" clip-rule="evenodd" d="M17.4831 13.3C18.1775 13.3 18.8652 13.5629 19.391 14.0888C20.4427 15.1404 20.4427 16.8528 19.391 17.9045C18.3326 18.9562 16.627 18.9562 15.5753 17.9045C14.5236 16.8461 14.5236 15.1404 15.5753 14.0888C16.1011 13.5629 16.7955 13.3 17.4831 13.3ZM16.3438 17.1427C16.9708 17.7764 17.9955 17.7764 18.6292 17.1427C19.2562 16.509 19.2562 15.4843 18.6292 14.8573C18.0022 14.2236 16.9775 14.2236 16.3438 14.8573C15.7101 15.4843 15.7101 16.509 16.3438 17.1427Z" fill="white"/>
<path d="M23.6719 15.4573C23.6584 15.2551 23.6315 15.0798 23.5371 14.918C23.3551 14.5944 23.0045 14.3787 22.6067 14.3787C22.209 14.3787 21.8652 14.5944 21.6764 14.918C21.582 15.073 21.5551 15.2551 21.5416 15.4573L21.5281 15.727V17.6146L21.5146 17.8843C21.4944 18.3292 21.1708 18.6528 20.7191 18.6798L20.4494 18.6933V13.3C20.7191 13.3 21.191 13.4348 21.4 13.6708C21.7438 13.4348 22.1618 13.3 22.6067 13.3C23.2539 13.3 23.827 13.5831 24.2247 14.0281C24.6225 13.5831 25.1955 13.3 25.8427 13.3C27.036 13.3 28 14.264 28 15.4573V18.6933L27.7303 18.6798C27.2854 18.6528 26.9618 18.3292 26.9348 17.8843L26.9213 17.6146V15.727L26.9079 15.4573C26.9011 15.2618 26.8742 15.0798 26.7798 14.918C26.591 14.5944 26.2404 14.3787 25.8427 14.3787C25.4449 14.3787 25.1011 14.5876 24.9124 14.9112C24.818 15.073 24.791 15.2551 24.7775 15.4573L24.764 15.727V18.6933L24.4944 18.6798C24.0494 18.6528 23.7258 18.3225 23.6989 17.8843L23.6854 17.6146V15.727L23.6719 15.4573Z" fill="white"/>
</g>
<defs>
<clipPath id="clip0_8821_17064">
<rect width="32" height="32" fill="white"/>
</clipPath>
</defs>
</svg>
