<svg width="376" height="212" viewBox="0 0 376 212" fill="none" xmlns="http://www.w3.org/2000/svg">
<g filter="url(#filter0_dd)">
<g clip-path="url(#clip0)">
<path d="M24 32C24 27.5817 27.5817 24 32 24H344C348.418 24 352 27.5817 352 32V156C352 160.418 348.418 164 344 164H32C27.5817 164 24 160.418 24 156V32Z" fill="url(#paint0_linear)"/>
<path d="M41.2 64V61.096H43.36V50.152H41.2V47.248H49.168V50.152H47.008V61.096H49.168V64H41.2ZM52.0154 64V51.4H55.5674V53.536H55.7114C55.9354 52.88 56.3274 52.312 56.8874 51.832C57.4474 51.352 58.2234 51.112 59.2154 51.112C60.5114 51.112 61.4874 51.544 62.1434 52.408C62.8154 53.272 63.1514 54.504 63.1514 56.104V64H59.5994V56.392C59.5994 55.576 59.4714 54.976 59.2154 54.592C58.9594 54.192 58.5034 53.992 57.8474 53.992C57.5594 53.992 57.2794 54.032 57.0074 54.112C56.7354 54.176 56.4874 54.288 56.2634 54.448C56.0554 54.608 55.8874 54.808 55.7594 55.048C55.6314 55.272 55.5674 55.536 55.5674 55.84V64H52.0154ZM70.7283 64C69.4963 64 68.5603 63.688 67.9203 63.064C67.2963 62.44 66.9843 61.528 66.9843 60.328V54.16H65.2083V51.4H66.0963C66.5763 51.4 66.9043 51.288 67.0803 51.064C67.2563 50.824 67.3443 50.488 67.3443 50.056V47.992H70.5363V51.4H73.0323V54.16H70.5363V61.24H72.8403V64H70.7283ZM75.4998 64V51.4H79.0518V54.136H79.1718C79.2358 53.784 79.3478 53.448 79.5078 53.128C79.6678 52.792 79.8758 52.496 80.1318 52.24C80.4038 51.984 80.7238 51.784 81.0918 51.64C81.4598 51.48 81.8918 51.4 82.3878 51.4H83.0118V54.712H82.1238C81.0838 54.712 80.3078 54.848 79.7958 55.12C79.2998 55.392 79.0518 55.896 79.0518 56.632V64H75.4998ZM90.1977 64.288C89.2697 64.288 88.4377 64.136 87.7017 63.832C86.9817 63.528 86.3657 63.088 85.8537 62.512C85.3577 61.936 84.9737 61.24 84.7017 60.424C84.4297 59.608 84.2937 58.696 84.2937 57.688C84.2937 56.68 84.4297 55.768 84.7017 54.952C84.9737 54.136 85.3577 53.448 85.8537 52.888C86.3657 52.312 86.9817 51.872 87.7017 51.568C88.4377 51.264 89.2697 51.112 90.1977 51.112C91.1257 51.112 91.9497 51.264 92.6697 51.568C93.4057 51.872 94.0217 52.312 94.5177 52.888C95.0297 53.448 95.4217 54.136 95.6937 54.952C95.9657 55.768 96.1017 56.68 96.1017 57.688C96.1017 58.696 95.9657 59.608 95.6937 60.424C95.4217 61.24 95.0297 61.936 94.5177 62.512C94.0217 63.088 93.4057 63.528 92.6697 63.832C91.9497 64.136 91.1257 64.288 90.1977 64.288ZM90.1977 61.48C90.9017 61.48 91.4457 61.264 91.8297 60.832C92.2137 60.4 92.4057 59.784 92.4057 58.984V56.416C92.4057 55.616 92.2137 55 91.8297 54.568C91.4457 54.136 90.9017 53.92 90.1977 53.92C89.4937 53.92 88.9497 54.136 88.5657 54.568C88.1817 55 87.9897 55.616 87.9897 56.416V58.984C87.9897 59.784 88.1817 60.4 88.5657 60.832C88.9497 61.264 89.4937 61.48 90.1977 61.48ZM106.361 61.888H106.241C106.145 62.224 105.993 62.544 105.785 62.848C105.577 63.136 105.321 63.392 105.017 63.616C104.729 63.824 104.393 63.984 104.009 64.096C103.641 64.224 103.257 64.288 102.857 64.288C101.257 64.288 100.049 63.728 99.2326 62.608C98.4166 61.472 98.0086 59.832 98.0086 57.688C98.0086 55.544 98.4166 53.912 99.2326 52.792C100.049 51.672 101.257 51.112 102.857 51.112C103.673 51.112 104.393 51.336 105.017 51.784C105.657 52.232 106.065 52.808 106.241 53.512H106.361V46.24H109.913V64H106.361V61.888ZM104.033 61.408C104.705 61.408 105.257 61.248 105.689 60.928C106.137 60.592 106.361 60.136 106.361 59.56V55.84C106.361 55.264 106.137 54.816 105.689 54.496C105.257 54.16 104.705 53.992 104.033 53.992C103.361 53.992 102.801 54.232 102.353 54.712C101.921 55.176 101.705 55.808 101.705 56.608V58.792C101.705 59.592 101.921 60.232 102.353 60.712C102.801 61.176 103.361 61.408 104.033 61.408ZM120.674 61.888H120.554C120.442 62.208 120.29 62.512 120.098 62.8C119.922 63.088 119.69 63.344 119.402 63.568C119.114 63.792 118.77 63.968 118.37 64.096C117.986 64.224 117.538 64.288 117.026 64.288C115.73 64.288 114.746 63.864 114.074 63.016C113.418 62.152 113.09 60.92 113.09 59.32V51.4H116.642V59.008C116.642 59.776 116.778 60.368 117.05 60.784C117.322 61.2 117.786 61.408 118.442 61.408C118.714 61.408 118.986 61.368 119.258 61.288C119.53 61.208 119.77 61.096 119.978 60.952C120.186 60.792 120.354 60.6 120.482 60.376C120.61 60.152 120.674 59.888 120.674 59.584V51.4H124.226V64H120.674V61.888ZM132.619 64.288C131.675 64.288 130.835 64.136 130.099 63.832C129.363 63.512 128.747 63.072 128.251 62.512C127.755 61.936 127.379 61.24 127.123 60.424C126.867 59.608 126.739 58.696 126.739 57.688C126.739 56.68 126.867 55.776 127.123 54.976C127.379 54.16 127.755 53.464 128.251 52.888C128.747 52.312 129.363 51.872 130.099 51.568C130.835 51.264 131.675 51.112 132.619 51.112C133.899 51.112 134.963 51.4 135.811 51.976C136.675 52.552 137.291 53.36 137.659 54.4L134.779 55.648C134.667 55.168 134.435 54.76 134.083 54.424C133.731 54.088 133.243 53.92 132.619 53.92C131.899 53.92 131.355 54.16 130.987 54.64C130.619 55.104 130.435 55.736 130.435 56.536V58.888C130.435 59.688 130.619 60.32 130.987 60.784C131.355 61.248 131.899 61.48 132.619 61.48C133.259 61.48 133.763 61.312 134.131 60.976C134.515 60.624 134.795 60.168 134.971 59.608L137.731 60.808C137.315 62.008 136.667 62.888 135.787 63.448C134.923 64.008 133.867 64.288 132.619 64.288ZM141.705 50.056C140.985 50.056 140.457 49.896 140.121 49.576C139.801 49.24 139.641 48.816 139.641 48.304V47.776C139.641 47.264 139.801 46.848 140.121 46.528C140.457 46.192 140.985 46.024 141.705 46.024C142.425 46.024 142.945 46.192 143.265 46.528C143.601 46.848 143.769 47.264 143.769 47.776V48.304C143.769 48.816 143.601 49.24 143.265 49.576C142.945 49.896 142.425 50.056 141.705 50.056ZM139.929 51.4H143.481V64H139.929V51.4ZM146.797 64V51.4H150.349V53.536H150.493C150.717 52.88 151.109 52.312 151.669 51.832C152.229 51.352 153.005 51.112 153.997 51.112C155.293 51.112 156.269 51.544 156.925 52.408C157.597 53.272 157.933 54.504 157.933 56.104V64H154.381V56.392C154.381 55.576 154.253 54.976 153.997 54.592C153.741 54.192 153.285 53.992 152.629 53.992C152.341 53.992 152.061 54.032 151.789 54.112C151.517 54.176 151.269 54.288 151.045 54.448C150.837 54.608 150.669 54.808 150.541 55.048C150.413 55.272 150.349 55.536 150.349 55.84V64H146.797ZM172.758 64.912C172.758 65.584 172.638 66.176 172.398 66.688C172.174 67.2 171.798 67.632 171.27 67.984C170.742 68.352 170.038 68.624 169.158 68.8C168.294 68.992 167.222 69.088 165.942 69.088C164.854 69.088 163.926 69.016 163.158 68.872C162.406 68.744 161.79 68.552 161.31 68.296C160.846 68.056 160.502 67.752 160.278 67.384C160.07 67.032 159.966 66.624 159.966 66.16C159.966 65.456 160.174 64.904 160.59 64.504C161.006 64.104 161.582 63.856 162.318 63.76V63.496C161.71 63.384 161.254 63.128 160.95 62.728C160.646 62.312 160.494 61.832 160.494 61.288C160.494 60.952 160.558 60.664 160.686 60.424C160.83 60.168 161.006 59.952 161.214 59.776C161.438 59.584 161.694 59.432 161.982 59.32C162.27 59.208 162.558 59.12 162.846 59.056V58.96C162.078 58.608 161.51 58.128 161.142 57.52C160.774 56.896 160.59 56.176 160.59 55.36C160.59 54.08 161.03 53.056 161.91 52.288C162.806 51.504 164.166 51.112 165.99 51.112C166.822 51.112 167.534 51.192 168.126 51.352V50.872C168.126 50.2 168.286 49.72 168.606 49.432C168.942 49.128 169.414 48.976 170.022 48.976H172.014V51.616H169.23V51.76C169.966 52.112 170.51 52.6 170.862 53.224C171.214 53.832 171.39 54.544 171.39 55.36C171.39 56.624 170.942 57.64 170.046 58.408C169.166 59.16 167.814 59.536 165.99 59.536C165.174 59.536 164.43 59.448 163.758 59.272C163.39 59.512 163.206 59.848 163.206 60.28C163.206 60.584 163.318 60.824 163.542 61C163.782 61.16 164.174 61.24 164.718 61.24H168.366C169.902 61.24 171.014 61.56 171.702 62.2C172.406 62.84 172.758 63.744 172.758 64.912ZM169.422 65.392C169.422 65.024 169.278 64.744 168.99 64.552C168.702 64.36 168.198 64.264 167.478 64.264H163.158C162.998 64.424 162.878 64.6 162.798 64.792C162.734 65 162.702 65.2 162.702 65.392C162.702 65.856 162.902 66.192 163.302 66.4C163.702 66.624 164.382 66.736 165.342 66.736H166.782C167.742 66.736 168.422 66.624 168.822 66.4C169.222 66.192 169.422 65.856 169.422 65.392ZM165.99 57.208C166.694 57.208 167.214 57.064 167.55 56.776C167.902 56.472 168.078 56.04 168.078 55.48V55.192C168.078 54.632 167.902 54.208 167.55 53.92C167.214 53.616 166.694 53.464 165.99 53.464C165.286 53.464 164.758 53.616 164.406 53.92C164.07 54.208 163.902 54.632 163.902 55.192V55.48C163.902 56.04 164.07 56.472 164.406 56.776C164.758 57.064 165.286 57.208 165.99 57.208ZM41.848 77.248H48.16C49.264 77.248 50.272 77.424 51.184 77.776C52.096 78.128 52.872 78.656 53.512 79.36C54.152 80.048 54.648 80.92 55 81.976C55.352 83.016 55.528 84.232 55.528 85.624C55.528 87.016 55.352 88.24 55 89.296C54.648 90.336 54.152 91.208 53.512 91.912C52.872 92.6 52.096 93.12 51.184 93.472C50.272 93.824 49.264 94 48.16 94H41.848V77.248ZM48.16 90.76C49.248 90.76 50.104 90.456 50.728 89.848C51.352 89.24 51.664 88.264 51.664 86.92V84.328C51.664 82.984 51.352 82.008 50.728 81.4C50.104 80.792 49.248 80.488 48.16 80.488H45.496V90.76H48.16ZM58.5824 94V77.248H66.5024C67.2864 77.248 67.9904 77.384 68.6144 77.656C69.2384 77.912 69.7664 78.272 70.1984 78.736C70.6464 79.2 70.9904 79.768 71.2304 80.44C71.4704 81.096 71.5904 81.816 71.5904 82.6C71.5904 83.4 71.4704 84.128 71.2304 84.784C70.9904 85.44 70.6464 86 70.1984 86.464C69.7664 86.928 69.2384 87.296 68.6144 87.568C67.9904 87.824 67.2864 87.952 66.5024 87.952H62.2304V94H58.5824ZM62.2304 84.784H66.0704C66.6144 84.784 67.0384 84.648 67.3424 84.376C67.6624 84.088 67.8224 83.672 67.8224 83.128V82.072C67.8224 81.528 67.6624 81.12 67.3424 80.848C67.0384 80.56 66.6144 80.416 66.0704 80.416H62.2304V84.784ZM85.7084 94H73.8524V90.712L79.0124 86.296C79.4764 85.896 79.8684 85.536 80.1884 85.216C80.5084 84.88 80.7644 84.56 80.9564 84.256C81.1644 83.936 81.3084 83.624 81.3884 83.32C81.4844 83.016 81.5324 82.688 81.5324 82.336V82C81.5324 81.68 81.4684 81.4 81.3404 81.16C81.2124 80.92 81.0444 80.72 80.8364 80.56C80.6284 80.4 80.3884 80.28 80.1164 80.2C79.8604 80.12 79.5964 80.08 79.3244 80.08C78.9244 80.08 78.5724 80.144 78.2684 80.272C77.9804 80.4 77.7244 80.576 77.5004 80.8C77.2924 81.008 77.1164 81.256 76.9724 81.544C76.8284 81.816 76.7164 82.112 76.6364 82.432L73.4924 81.232C73.6844 80.656 73.9484 80.112 74.2844 79.6C74.6204 79.072 75.0364 78.616 75.5324 78.232C76.0444 77.832 76.6444 77.52 77.3324 77.296C78.0204 77.072 78.7964 76.96 79.6604 76.96C80.5724 76.96 81.3804 77.088 82.0844 77.344C82.7884 77.6 83.3804 77.952 83.8604 78.4C84.3564 78.848 84.7324 79.384 84.9884 80.008C85.2444 80.616 85.3724 81.28 85.3724 82C85.3724 82.72 85.2524 83.376 85.0124 83.968C84.7724 84.56 84.4444 85.12 84.0284 85.648C83.6284 86.16 83.1564 86.648 82.6124 87.112C82.0684 87.576 81.5004 88.048 80.9084 88.528L77.7884 90.976H85.7084V94ZM88.723 94V77.248H96.643C97.427 77.248 98.131 77.384 98.755 77.656C99.379 77.912 99.907 78.272 100.339 78.736C100.787 79.2 101.131 79.768 101.371 80.44C101.611 81.096 101.731 81.816 101.731 82.6C101.731 83.4 101.611 84.128 101.371 84.784C101.131 85.44 100.787 86 100.339 86.464C99.907 86.928 99.379 87.296 98.755 87.568C98.131 87.824 97.427 87.952 96.643 87.952H92.371V94H88.723ZM92.371 84.784H96.211C96.755 84.784 97.179 84.648 97.483 84.376C97.803 84.088 97.963 83.672 97.963 83.128V82.072C97.963 81.528 97.803 81.12 97.483 80.848C97.179 80.56 96.755 80.416 96.211 80.416H92.371V84.784Z" fill="white"/>
<path d="M46.24 124.668H46.18C46.116 125.092 45.9 125.444 45.532 125.724C45.164 126.004 44.664 126.144 44.032 126.144C43.552 126.144 43.104 126.052 42.688 125.868C42.272 125.684 41.908 125.412 41.596 125.052C41.284 124.692 41.04 124.244 40.864 123.708C40.688 123.172 40.6 122.552 40.6 121.848C40.6 121.144 40.692 120.52 40.876 119.976C41.06 119.432 41.316 118.976 41.644 118.608C41.98 118.24 42.38 117.96 42.844 117.768C43.308 117.576 43.824 117.48 44.392 117.48C45.144 117.48 45.792 117.644 46.336 117.972C46.88 118.292 47.308 118.776 47.62 119.424L46.132 120.276C46.004 119.948 45.804 119.672 45.532 119.448C45.26 119.216 44.88 119.1 44.392 119.1C43.824 119.1 43.372 119.264 43.036 119.592C42.7 119.92 42.532 120.436 42.532 121.14V122.484C42.532 123.18 42.7 123.696 43.036 124.032C43.372 124.36 43.824 124.524 44.392 124.524C44.616 124.524 44.828 124.5 45.028 124.452C45.228 124.396 45.404 124.316 45.556 124.212C45.708 124.1 45.824 123.968 45.904 123.816C45.992 123.664 46.036 123.484 46.036 123.276V122.856H44.476V121.332H47.776V126H46.24V124.668ZM52.081 126.144C51.601 126.144 51.173 126.068 50.797 125.916C50.421 125.756 50.101 125.536 49.837 125.256C49.581 124.968 49.385 124.62 49.249 124.212C49.121 123.804 49.057 123.348 49.057 122.844C49.057 122.348 49.121 121.9 49.249 121.5C49.377 121.092 49.565 120.744 49.813 120.456C50.069 120.168 50.381 119.948 50.749 119.796C51.117 119.636 51.537 119.556 52.009 119.556C52.529 119.556 52.973 119.644 53.341 119.82C53.717 119.996 54.021 120.232 54.253 120.528C54.493 120.824 54.665 121.168 54.769 121.56C54.881 121.944 54.937 122.348 54.937 122.772V123.3H50.893V123.396C50.893 123.812 51.005 124.144 51.229 124.392C51.453 124.632 51.805 124.752 52.285 124.752C52.653 124.752 52.953 124.68 53.185 124.536C53.417 124.384 53.633 124.204 53.833 123.996L54.721 125.1C54.441 125.428 54.073 125.684 53.617 125.868C53.169 126.052 52.657 126.144 52.081 126.144ZM52.045 120.864C51.685 120.864 51.401 120.984 51.193 121.224C50.993 121.456 50.893 121.768 50.893 122.16V122.256H53.101V122.148C53.101 121.764 53.013 121.456 52.837 121.224C52.669 120.984 52.405 120.864 52.045 120.864ZM58.3993 126C57.7833 126 57.3153 125.844 56.9953 125.532C56.6833 125.22 56.5273 124.764 56.5273 124.164V121.08H55.6393V119.7H56.0833C56.3233 119.7 56.4873 119.644 56.5753 119.532C56.6633 119.412 56.7073 119.244 56.7073 119.028V117.996H58.3033V119.7H59.5513V121.08H58.3033V124.62H59.4553V126H58.3993ZM63.621 117.12H65.397V120.768H65.469C65.581 120.44 65.777 120.156 66.057 119.916C66.337 119.676 66.725 119.556 67.221 119.556C67.869 119.556 68.357 119.772 68.685 120.204C69.021 120.636 69.189 121.252 69.189 122.052V126H67.413V122.196C67.413 121.788 67.349 121.488 67.221 121.296C67.093 121.096 66.865 120.996 66.537 120.996C66.393 120.996 66.253 121.016 66.117 121.056C65.981 121.088 65.857 121.144 65.745 121.224C65.641 121.304 65.557 121.404 65.493 121.524C65.429 121.636 65.397 121.768 65.397 121.92V126H63.621V117.12ZM75.4254 126C75.1054 126 74.8374 125.9 74.6214 125.7C74.4134 125.5 74.2814 125.232 74.2254 124.896H74.1534C74.0574 125.304 73.8454 125.616 73.5174 125.832C73.1894 126.04 72.7854 126.144 72.3054 126.144C71.6734 126.144 71.1894 125.976 70.8534 125.64C70.5174 125.304 70.3494 124.86 70.3494 124.308C70.3494 123.644 70.5894 123.152 71.0694 122.832C71.5574 122.504 72.2174 122.34 73.0494 122.34H74.0454V121.944C74.0454 121.64 73.9654 121.4 73.8054 121.224C73.6454 121.04 73.3774 120.948 73.0014 120.948C72.6494 120.948 72.3694 121.024 72.1614 121.176C71.9534 121.328 71.7814 121.5 71.6454 121.692L70.5894 120.756C70.8454 120.38 71.1654 120.088 71.5494 119.88C71.9414 119.664 72.4694 119.556 73.1334 119.556C74.0294 119.556 74.7014 119.752 75.1494 120.144C75.5974 120.536 75.8214 121.108 75.8214 121.86V124.62H76.4094V126H75.4254ZM72.9654 124.908C73.2614 124.908 73.5134 124.844 73.7214 124.716C73.9374 124.588 74.0454 124.38 74.0454 124.092V123.348H73.1814C72.4854 123.348 72.1374 123.584 72.1374 124.056V124.236C72.1374 124.468 72.2094 124.64 72.3534 124.752C72.4974 124.856 72.7014 124.908 72.9654 124.908ZM79.7374 126.144C79.1294 126.144 78.6174 126.048 78.2014 125.856C77.7854 125.656 77.4134 125.376 77.0854 125.016L78.1294 123.96C78.3534 124.208 78.6014 124.404 78.8734 124.548C79.1454 124.692 79.4534 124.764 79.7974 124.764C80.1494 124.764 80.3934 124.712 80.5294 124.608C80.6654 124.496 80.7334 124.348 80.7334 124.164C80.7334 123.868 80.5214 123.692 80.0974 123.636L79.4134 123.552C77.9974 123.376 77.2894 122.728 77.2894 121.608C77.2894 121.304 77.3454 121.028 77.4574 120.78C77.5774 120.524 77.7414 120.308 77.9494 120.132C78.1654 119.948 78.4214 119.808 78.7174 119.712C79.0214 119.608 79.3614 119.556 79.7374 119.556C80.0654 119.556 80.3534 119.58 80.6014 119.628C80.8574 119.668 81.0814 119.732 81.2734 119.82C81.4734 119.9 81.6534 120.004 81.8134 120.132C81.9814 120.252 82.1454 120.388 82.3054 120.54L81.2854 121.584C81.0854 121.384 80.8574 121.228 80.6014 121.116C80.3534 120.996 80.0974 120.936 79.8334 120.936C79.5294 120.936 79.3134 120.984 79.1854 121.08C79.0574 121.176 78.9934 121.304 78.9934 121.464C78.9934 121.632 79.0374 121.764 79.1254 121.86C79.2214 121.948 79.3974 122.012 79.6534 122.052L80.3614 122.148C81.7454 122.332 82.4374 122.964 82.4374 124.044C82.4374 124.348 82.3734 124.628 82.2454 124.884C82.1174 125.14 81.9334 125.364 81.6934 125.556C81.4614 125.74 81.1774 125.884 80.8414 125.988C80.5134 126.092 80.1454 126.144 79.7374 126.144ZM85.7023 126.144C85.0943 126.144 84.5823 126.048 84.1663 125.856C83.7503 125.656 83.3783 125.376 83.0503 125.016L84.0943 123.96C84.3183 124.208 84.5663 124.404 84.8383 124.548C85.1103 124.692 85.4183 124.764 85.7623 124.764C86.1143 124.764 86.3583 124.712 86.4943 124.608C86.6303 124.496 86.6983 124.348 86.6983 124.164C86.6983 123.868 86.4863 123.692 86.0623 123.636L85.3783 123.552C83.9623 123.376 83.2543 122.728 83.2543 121.608C83.2543 121.304 83.3103 121.028 83.4223 120.78C83.5423 120.524 83.7063 120.308 83.9143 120.132C84.1303 119.948 84.3863 119.808 84.6823 119.712C84.9863 119.608 85.3263 119.556 85.7023 119.556C86.0303 119.556 86.3183 119.58 86.5663 119.628C86.8223 119.668 87.0463 119.732 87.2383 119.82C87.4383 119.9 87.6183 120.004 87.7783 120.132C87.9463 120.252 88.1103 120.388 88.2703 120.54L87.2503 121.584C87.0503 121.384 86.8223 121.228 86.5663 121.116C86.3183 120.996 86.0623 120.936 85.7983 120.936C85.4943 120.936 85.2783 120.984 85.1503 121.08C85.0223 121.176 84.9583 121.304 84.9583 121.464C84.9583 121.632 85.0023 121.764 85.0903 121.86C85.1863 121.948 85.3623 122.012 85.6183 122.052L86.3263 122.148C87.7103 122.332 88.4023 122.964 88.4023 124.044C88.4023 124.348 88.3383 124.628 88.2103 124.884C88.0823 125.14 87.8983 125.364 87.6583 125.556C87.4263 125.74 87.1423 125.884 86.8063 125.988C86.4783 126.092 86.1103 126.144 85.7023 126.144ZM91.3772 126C90.7692 126 90.3212 125.852 90.0332 125.556C89.7532 125.26 89.6132 124.832 89.6132 124.272V117.12H91.3892V124.62H92.1812V126H91.3772ZM95.874 126.144C95.394 126.144 94.966 126.068 94.59 125.916C94.214 125.756 93.894 125.536 93.63 125.256C93.374 124.968 93.178 124.62 93.042 124.212C92.914 123.804 92.85 123.348 92.85 122.844C92.85 122.348 92.914 121.9 93.042 121.5C93.17 121.092 93.358 120.744 93.606 120.456C93.862 120.168 94.174 119.948 94.542 119.796C94.91 119.636 95.33 119.556 95.802 119.556C96.322 119.556 96.766 119.644 97.134 119.82C97.51 119.996 97.814 120.232 98.046 120.528C98.286 120.824 98.458 121.168 98.562 121.56C98.674 121.944 98.73 122.348 98.73 122.772V123.3H94.686V123.396C94.686 123.812 94.798 124.144 95.022 124.392C95.246 124.632 95.598 124.752 96.078 124.752C96.446 124.752 96.746 124.68 96.978 124.536C97.21 124.384 97.426 124.204 97.626 123.996L98.514 125.1C98.234 125.428 97.866 125.684 97.41 125.868C96.962 126.052 96.45 126.144 95.874 126.144ZM95.838 120.864C95.478 120.864 95.194 120.984 94.986 121.224C94.786 121.456 94.686 121.768 94.686 122.16V122.256H96.894V122.148C96.894 121.764 96.806 121.456 96.63 121.224C96.462 120.984 96.198 120.864 95.838 120.864ZM99.9094 123.204V121.476H103.473V123.204H99.9094ZM105.253 121.08H104.365V119.7H105.253V118.956C105.253 118.348 105.413 117.892 105.733 117.588C106.053 117.276 106.521 117.12 107.137 117.12H108.289V118.5H107.029V119.7H108.289V121.08H107.029V126H105.253V121.08ZM109.277 126V119.7H111.053V121.068H111.113C111.145 120.892 111.201 120.724 111.281 120.564C111.361 120.396 111.465 120.248 111.593 120.12C111.729 119.992 111.889 119.892 112.073 119.82C112.257 119.74 112.473 119.7 112.721 119.7H113.033V121.356H112.589C112.069 121.356 111.681 121.424 111.425 121.56C111.177 121.696 111.053 121.948 111.053 122.316V126H109.277ZM116.698 126.144C116.218 126.144 115.79 126.068 115.414 125.916C115.038 125.756 114.718 125.536 114.454 125.256C114.198 124.968 114.002 124.62 113.866 124.212C113.738 123.804 113.674 123.348 113.674 122.844C113.674 122.348 113.738 121.9 113.866 121.5C113.994 121.092 114.182 120.744 114.43 120.456C114.686 120.168 114.998 119.948 115.366 119.796C115.734 119.636 116.154 119.556 116.626 119.556C117.146 119.556 117.59 119.644 117.958 119.82C118.334 119.996 118.638 120.232 118.87 120.528C119.11 120.824 119.282 121.168 119.386 121.56C119.498 121.944 119.554 122.348 119.554 122.772V123.3H115.51V123.396C115.51 123.812 115.622 124.144 115.846 124.392C116.07 124.632 116.422 124.752 116.902 124.752C117.27 124.752 117.57 124.68 117.802 124.536C118.034 124.384 118.25 124.204 118.45 123.996L119.338 125.1C119.058 125.428 118.69 125.684 118.234 125.868C117.786 126.052 117.274 126.144 116.698 126.144ZM116.662 120.864C116.302 120.864 116.018 120.984 115.81 121.224C115.61 121.456 115.51 121.768 115.51 122.16V122.256H117.718V122.148C117.718 121.764 117.63 121.456 117.454 121.224C117.286 120.984 117.022 120.864 116.662 120.864ZM123.436 126.144C122.956 126.144 122.528 126.068 122.152 125.916C121.776 125.756 121.456 125.536 121.192 125.256C120.936 124.968 120.74 124.62 120.604 124.212C120.476 123.804 120.412 123.348 120.412 122.844C120.412 122.348 120.476 121.9 120.604 121.5C120.732 121.092 120.92 120.744 121.168 120.456C121.424 120.168 121.736 119.948 122.104 119.796C122.472 119.636 122.892 119.556 123.364 119.556C123.884 119.556 124.328 119.644 124.696 119.82C125.072 119.996 125.376 120.232 125.608 120.528C125.848 120.824 126.02 121.168 126.124 121.56C126.236 121.944 126.292 122.348 126.292 122.772V123.3H122.248V123.396C122.248 123.812 122.36 124.144 122.584 124.392C122.808 124.632 123.16 124.752 123.64 124.752C124.008 124.752 124.308 124.68 124.54 124.536C124.772 124.384 124.988 124.204 125.188 123.996L126.076 125.1C125.796 125.428 125.428 125.684 124.972 125.868C124.524 126.052 124.012 126.144 123.436 126.144ZM123.4 120.864C123.04 120.864 122.756 120.984 122.548 121.224C122.348 121.456 122.248 121.768 122.248 122.16V122.256H124.456V122.148C124.456 121.764 124.368 121.456 124.192 121.224C124.024 120.984 123.76 120.864 123.4 120.864ZM134.247 124.944H134.187C134.139 125.112 134.063 125.272 133.959 125.424C133.855 125.568 133.727 125.696 133.575 125.808C133.431 125.912 133.263 125.992 133.071 126.048C132.887 126.112 132.695 126.144 132.495 126.144C131.695 126.144 131.091 125.864 130.683 125.304C130.275 124.736 130.071 123.916 130.071 122.844C130.071 121.772 130.275 120.956 130.683 120.396C131.091 119.836 131.695 119.556 132.495 119.556C132.903 119.556 133.263 119.668 133.575 119.892C133.895 120.116 134.099 120.404 134.187 120.756H134.247V117.12H136.023V126H134.247V124.944ZM133.083 124.704C133.419 124.704 133.695 124.624 133.911 124.464C134.135 124.296 134.247 124.068 134.247 123.78V121.92C134.247 121.632 134.135 121.408 133.911 121.248C133.695 121.08 133.419 120.996 133.083 120.996C132.747 120.996 132.467 121.116 132.243 121.356C132.027 121.588 131.919 121.904 131.919 122.304V123.396C131.919 123.796 132.027 124.116 132.243 124.356C132.467 124.588 132.747 124.704 133.083 124.704ZM140.311 126.144C139.831 126.144 139.403 126.068 139.027 125.916C138.651 125.756 138.331 125.536 138.067 125.256C137.811 124.968 137.615 124.62 137.479 124.212C137.351 123.804 137.287 123.348 137.287 122.844C137.287 122.348 137.351 121.9 137.479 121.5C137.607 121.092 137.795 120.744 138.043 120.456C138.299 120.168 138.611 119.948 138.979 119.796C139.347 119.636 139.767 119.556 140.239 119.556C140.759 119.556 141.203 119.644 141.571 119.82C141.947 119.996 142.251 120.232 142.483 120.528C142.723 120.824 142.895 121.168 142.999 121.56C143.111 121.944 143.167 122.348 143.167 122.772V123.3H139.123V123.396C139.123 123.812 139.235 124.144 139.459 124.392C139.683 124.632 140.035 124.752 140.515 124.752C140.883 124.752 141.183 124.68 141.415 124.536C141.647 124.384 141.863 124.204 142.063 123.996L142.951 125.1C142.671 125.428 142.303 125.684 141.847 125.868C141.399 126.052 140.887 126.144 140.311 126.144ZM140.275 120.864C139.915 120.864 139.631 120.984 139.423 121.224C139.223 121.456 139.123 121.768 139.123 122.16V122.256H141.331V122.148C141.331 121.764 141.243 121.456 141.067 121.224C140.899 120.984 140.635 120.864 140.275 120.864ZM144.422 119.7H146.198V120.756H146.258C146.346 120.404 146.546 120.116 146.858 119.892C147.178 119.668 147.542 119.556 147.95 119.556C148.75 119.556 149.354 119.836 149.762 120.396C150.17 120.956 150.374 121.772 150.374 122.844C150.374 123.916 150.17 124.736 149.762 125.304C149.354 125.864 148.75 126.144 147.95 126.144C147.742 126.144 147.546 126.112 147.362 126.048C147.178 125.992 147.01 125.912 146.858 125.808C146.714 125.696 146.59 125.568 146.486 125.424C146.382 125.272 146.306 125.112 146.258 124.944H146.198V128.4H144.422V119.7ZM147.362 124.704C147.698 124.704 147.974 124.588 148.19 124.356C148.414 124.116 148.526 123.796 148.526 123.396V122.304C148.526 121.904 148.414 121.588 148.19 121.356C147.974 121.116 147.698 120.996 147.362 120.996C147.026 120.996 146.746 121.08 146.522 121.248C146.306 121.408 146.198 121.632 146.198 121.92V123.78C146.198 124.068 146.306 124.296 146.522 124.464C146.746 124.624 147.026 124.704 147.362 124.704ZM154.279 126.144C153.815 126.144 153.399 126.068 153.031 125.916C152.671 125.764 152.363 125.544 152.107 125.256C151.859 124.968 151.667 124.62 151.531 124.212C151.395 123.804 151.327 123.348 151.327 122.844C151.327 122.34 151.395 121.884 151.531 121.476C151.667 121.068 151.859 120.724 152.107 120.444C152.363 120.156 152.671 119.936 153.031 119.784C153.399 119.632 153.815 119.556 154.279 119.556C154.743 119.556 155.155 119.632 155.515 119.784C155.883 119.936 156.191 120.156 156.439 120.444C156.695 120.724 156.891 121.068 157.027 121.476C157.163 121.884 157.231 122.34 157.231 122.844C157.231 123.348 157.163 123.804 157.027 124.212C156.891 124.62 156.695 124.968 156.439 125.256C156.191 125.544 155.883 125.764 155.515 125.916C155.155 126.068 154.743 126.144 154.279 126.144ZM154.279 124.74C154.631 124.74 154.903 124.632 155.095 124.416C155.287 124.2 155.383 123.892 155.383 123.492V122.208C155.383 121.808 155.287 121.5 155.095 121.284C154.903 121.068 154.631 120.96 154.279 120.96C153.927 120.96 153.655 121.068 153.463 121.284C153.271 121.5 153.175 121.808 153.175 122.208V123.492C153.175 123.892 153.271 124.2 153.463 124.416C153.655 124.632 153.927 124.74 154.279 124.74ZM160.632 126.144C160.024 126.144 159.512 126.048 159.096 125.856C158.68 125.656 158.308 125.376 157.98 125.016L159.024 123.96C159.248 124.208 159.496 124.404 159.768 124.548C160.04 124.692 160.348 124.764 160.692 124.764C161.044 124.764 161.288 124.712 161.424 124.608C161.56 124.496 161.628 124.348 161.628 124.164C161.628 123.868 161.416 123.692 160.992 123.636L160.308 123.552C158.892 123.376 158.184 122.728 158.184 121.608C158.184 121.304 158.24 121.028 158.352 120.78C158.472 120.524 158.636 120.308 158.844 120.132C159.06 119.948 159.316 119.808 159.612 119.712C159.916 119.608 160.256 119.556 160.632 119.556C160.96 119.556 161.248 119.58 161.496 119.628C161.752 119.668 161.976 119.732 162.168 119.82C162.368 119.9 162.548 120.004 162.708 120.132C162.876 120.252 163.04 120.388 163.2 120.54L162.18 121.584C161.98 121.384 161.752 121.228 161.496 121.116C161.248 120.996 160.992 120.936 160.728 120.936C160.424 120.936 160.208 120.984 160.08 121.08C159.952 121.176 159.888 121.304 159.888 121.464C159.888 121.632 159.932 121.764 160.02 121.86C160.116 121.948 160.292 122.012 160.548 122.052L161.256 122.148C162.64 122.332 163.332 122.964 163.332 124.044C163.332 124.348 163.268 124.628 163.14 124.884C163.012 125.14 162.828 125.364 162.588 125.556C162.356 125.74 162.072 125.884 161.736 125.988C161.408 126.092 161.04 126.144 160.632 126.144ZM165.431 119.028C165.071 119.028 164.807 118.948 164.639 118.788C164.479 118.62 164.399 118.408 164.399 118.152V117.888C164.399 117.632 164.479 117.424 164.639 117.264C164.807 117.096 165.071 117.012 165.431 117.012C165.791 117.012 166.051 117.096 166.211 117.264C166.379 117.424 166.463 117.632 166.463 117.888V118.152C166.463 118.408 166.379 118.62 166.211 118.788C166.051 118.948 165.791 119.028 165.431 119.028ZM164.543 119.7H166.319V126H164.543V119.7ZM170.184 126C169.568 126 169.1 125.844 168.78 125.532C168.468 125.22 168.312 124.764 168.312 124.164V121.08H167.424V119.7H167.868C168.108 119.7 168.272 119.644 168.36 119.532C168.448 119.412 168.492 119.244 168.492 119.028V117.996H170.088V119.7H171.336V121.08H170.088V124.62H171.24V126H170.184ZM174.706 126.144C174.098 126.144 173.586 126.048 173.17 125.856C172.754 125.656 172.382 125.376 172.054 125.016L173.098 123.96C173.322 124.208 173.57 124.404 173.842 124.548C174.114 124.692 174.422 124.764 174.766 124.764C175.118 124.764 175.362 124.712 175.498 124.608C175.634 124.496 175.702 124.348 175.702 124.164C175.702 123.868 175.49 123.692 175.066 123.636L174.382 123.552C172.966 123.376 172.258 122.728 172.258 121.608C172.258 121.304 172.314 121.028 172.426 120.78C172.546 120.524 172.71 120.308 172.918 120.132C173.134 119.948 173.39 119.808 173.686 119.712C173.99 119.608 174.33 119.556 174.706 119.556C175.034 119.556 175.322 119.58 175.57 119.628C175.826 119.668 176.05 119.732 176.242 119.82C176.442 119.9 176.622 120.004 176.782 120.132C176.95 120.252 177.114 120.388 177.274 120.54L176.254 121.584C176.054 121.384 175.826 121.228 175.57 121.116C175.322 120.996 175.066 120.936 174.802 120.936C174.498 120.936 174.282 120.984 174.154 121.08C174.026 121.176 173.962 121.304 173.962 121.464C173.962 121.632 174.006 121.764 174.094 121.86C174.19 121.948 174.366 122.012 174.622 122.052L175.33 122.148C176.714 122.332 177.406 122.964 177.406 124.044C177.406 124.348 177.342 124.628 177.214 124.884C177.086 125.14 176.902 125.364 176.662 125.556C176.43 125.74 176.146 125.884 175.81 125.988C175.482 126.092 175.114 126.144 174.706 126.144ZM186.109 126C185.789 126 185.521 125.9 185.305 125.7C185.097 125.5 184.965 125.232 184.909 124.896H184.837C184.741 125.304 184.529 125.616 184.201 125.832C183.873 126.04 183.469 126.144 182.989 126.144C182.357 126.144 181.873 125.976 181.537 125.64C181.201 125.304 181.033 124.86 181.033 124.308C181.033 123.644 181.273 123.152 181.753 122.832C182.241 122.504 182.901 122.34 183.733 122.34H184.729V121.944C184.729 121.64 184.649 121.4 184.489 121.224C184.329 121.04 184.061 120.948 183.685 120.948C183.333 120.948 183.053 121.024 182.845 121.176C182.637 121.328 182.465 121.5 182.329 121.692L181.273 120.756C181.529 120.38 181.849 120.088 182.233 119.88C182.625 119.664 183.153 119.556 183.817 119.556C184.713 119.556 185.385 119.752 185.833 120.144C186.281 120.536 186.505 121.108 186.505 121.86V124.62H187.093V126H186.109ZM183.649 124.908C183.945 124.908 184.197 124.844 184.405 124.716C184.621 124.588 184.729 124.38 184.729 124.092V123.348H183.865C183.169 123.348 182.821 123.584 182.821 124.056V124.236C182.821 124.468 182.893 124.64 183.037 124.752C183.181 124.856 183.385 124.908 183.649 124.908ZM188.285 126V119.7H190.061V120.768H190.133C190.245 120.44 190.441 120.156 190.721 119.916C191.001 119.676 191.389 119.556 191.885 119.556C192.533 119.556 193.021 119.772 193.349 120.204C193.685 120.636 193.853 121.252 193.853 122.052V126H192.077V122.196C192.077 121.788 192.013 121.488 191.885 121.296C191.757 121.096 191.529 120.996 191.201 120.996C191.057 120.996 190.917 121.016 190.781 121.056C190.645 121.088 190.521 121.144 190.409 121.224C190.305 121.304 190.221 121.404 190.157 121.524C190.093 121.636 190.061 121.768 190.061 121.92V126H188.285ZM199.297 124.944H199.237C199.189 125.112 199.113 125.272 199.009 125.424C198.905 125.568 198.777 125.696 198.625 125.808C198.481 125.912 198.313 125.992 198.121 126.048C197.937 126.112 197.745 126.144 197.545 126.144C196.745 126.144 196.141 125.864 195.733 125.304C195.325 124.736 195.121 123.916 195.121 122.844C195.121 121.772 195.325 120.956 195.733 120.396C196.141 119.836 196.745 119.556 197.545 119.556C197.953 119.556 198.313 119.668 198.625 119.892C198.945 120.116 199.149 120.404 199.237 120.756H199.297V117.12H201.073V126H199.297V124.944ZM198.133 124.704C198.469 124.704 198.745 124.624 198.961 124.464C199.185 124.296 199.297 124.068 199.297 123.78V121.92C199.297 121.632 199.185 121.408 198.961 121.248C198.745 121.08 198.469 120.996 198.133 120.996C197.797 120.996 197.517 121.116 197.293 121.356C197.077 121.588 196.969 121.904 196.969 122.304V123.396C196.969 123.796 197.077 124.116 197.293 124.356C197.517 124.588 197.797 124.704 198.133 124.704ZM40.228 137.7H41.944L42.556 140.244L42.988 142.164H43.036L43.54 140.244L44.26 137.7H45.88L46.612 140.244L47.128 142.164H47.176L47.608 140.244L48.22 137.7H49.864L48.124 144H46.264L45.496 141.336L45.052 139.704H45.016L44.584 141.336L43.816 144H41.992L40.228 137.7ZM51.8058 137.028C51.4458 137.028 51.1818 136.948 51.0138 136.788C50.8538 136.62 50.7738 136.408 50.7738 136.152V135.888C50.7738 135.632 50.8538 135.424 51.0138 135.264C51.1818 135.096 51.4458 135.012 51.8058 135.012C52.1658 135.012 52.4258 135.096 52.5858 135.264C52.7538 135.424 52.8378 135.632 52.8378 135.888V136.152C52.8378 136.408 52.7538 136.62 52.5858 136.788C52.4258 136.948 52.1658 137.028 51.8058 137.028ZM50.9178 137.7H52.6938V144H50.9178V137.7ZM56.5594 144C55.9434 144 55.4754 143.844 55.1554 143.532C54.8434 143.22 54.6874 142.764 54.6874 142.164V139.08H53.7994V137.7H54.2434C54.4834 137.7 54.6474 137.644 54.7354 137.532C54.8234 137.412 54.8674 137.244 54.8674 137.028V135.996H56.4634V137.7H57.7114V139.08H56.4634V142.62H57.6154V144H56.5594ZM58.9452 135.12H60.7212V138.768H60.7932C60.9052 138.44 61.1012 138.156 61.3812 137.916C61.6612 137.676 62.0492 137.556 62.5452 137.556C63.1932 137.556 63.6812 137.772 64.0092 138.204C64.3452 138.636 64.5132 139.252 64.5132 140.052V144H62.7372V140.196C62.7372 139.788 62.6732 139.488 62.5452 139.296C62.4172 139.096 62.1892 138.996 61.8612 138.996C61.7172 138.996 61.5772 139.016 61.4412 139.056C61.3052 139.088 61.1812 139.144 61.0692 139.224C60.9652 139.304 60.8812 139.404 60.8172 139.524C60.7532 139.636 60.7212 139.768 60.7212 139.92V144H58.9452V135.12ZM69.9576 142.944H69.8976C69.8496 143.112 69.7736 143.272 69.6696 143.424C69.5656 143.568 69.4376 143.696 69.2856 143.808C69.1416 143.912 68.9736 143.992 68.7816 144.048C68.5976 144.112 68.4056 144.144 68.2056 144.144C67.4056 144.144 66.8016 143.864 66.3936 143.304C65.9856 142.736 65.7816 141.916 65.7816 140.844C65.7816 139.772 65.9856 138.956 66.3936 138.396C66.8016 137.836 67.4056 137.556 68.2056 137.556C68.6136 137.556 68.9736 137.668 69.2856 137.892C69.6056 138.116 69.8096 138.404 69.8976 138.756H69.9576V135.12H71.7336V144H69.9576V142.944ZM68.7936 142.704C69.1296 142.704 69.4056 142.624 69.6216 142.464C69.8456 142.296 69.9576 142.068 69.9576 141.78V139.92C69.9576 139.632 69.8456 139.408 69.6216 139.248C69.4056 139.08 69.1296 138.996 68.7936 138.996C68.4576 138.996 68.1776 139.116 67.9536 139.356C67.7376 139.588 67.6296 139.904 67.6296 140.304V141.396C67.6296 141.796 67.7376 142.116 67.9536 142.356C68.1776 142.588 68.4576 142.704 68.7936 142.704ZM73.3944 144V137.7H75.1704V139.068H75.2304C75.2624 138.892 75.3184 138.724 75.3984 138.564C75.4784 138.396 75.5824 138.248 75.7104 138.12C75.8464 137.992 76.0064 137.892 76.1904 137.82C76.3744 137.74 76.5904 137.7 76.8384 137.7H77.1504V139.356H76.7064C76.1864 139.356 75.7984 139.424 75.5424 139.56C75.2944 139.696 75.1704 139.948 75.1704 140.316V144H73.3944ZM82.7379 144C82.4179 144 82.1499 143.9 81.9339 143.7C81.7259 143.5 81.5939 143.232 81.5379 142.896H81.4659C81.3699 143.304 81.1579 143.616 80.8299 143.832C80.5019 144.04 80.0979 144.144 79.6179 144.144C78.9859 144.144 78.5019 143.976 78.1659 143.64C77.8299 143.304 77.6619 142.86 77.6619 142.308C77.6619 141.644 77.9019 141.152 78.3819 140.832C78.8699 140.504 79.5299 140.34 80.3619 140.34H81.3579V139.944C81.3579 139.64 81.2779 139.4 81.1179 139.224C80.9579 139.04 80.6899 138.948 80.3139 138.948C79.9619 138.948 79.6819 139.024 79.4739 139.176C79.2659 139.328 79.0939 139.5 78.9579 139.692L77.9019 138.756C78.1579 138.38 78.4779 138.088 78.8619 137.88C79.2539 137.664 79.7819 137.556 80.4459 137.556C81.3419 137.556 82.0139 137.752 82.4619 138.144C82.9099 138.536 83.1339 139.108 83.1339 139.86V142.62H83.7219V144H82.7379ZM80.2779 142.908C80.5739 142.908 80.8259 142.844 81.0339 142.716C81.2499 142.588 81.3579 142.38 81.3579 142.092V141.348H80.4939C79.7979 141.348 79.4499 141.584 79.4499 142.056V142.236C79.4499 142.468 79.5219 142.64 79.6659 142.752C79.8099 142.856 80.0139 142.908 80.2779 142.908ZM84.2436 137.7H85.9596L86.5716 140.244L87.0036 142.164H87.0516L87.5556 140.244L88.2756 137.7H89.8956L90.6276 140.244L91.1436 142.164H91.1916L91.6236 140.244L92.2356 137.7H93.8796L92.1396 144H90.2796L89.5116 141.336L89.0676 139.704H89.0316L88.5996 141.336L87.8316 144H86.0076L84.2436 137.7ZM99.4254 144C99.1054 144 98.8374 143.9 98.6214 143.7C98.4134 143.5 98.2814 143.232 98.2254 142.896H98.1534C98.0574 143.304 97.8454 143.616 97.5174 143.832C97.1894 144.04 96.7854 144.144 96.3054 144.144C95.6734 144.144 95.1894 143.976 94.8534 143.64C94.5174 143.304 94.3494 142.86 94.3494 142.308C94.3494 141.644 94.5894 141.152 95.0694 140.832C95.5574 140.504 96.2174 140.34 97.0494 140.34H98.0454V139.944C98.0454 139.64 97.9654 139.4 97.8054 139.224C97.6454 139.04 97.3774 138.948 97.0014 138.948C96.6494 138.948 96.3694 139.024 96.1614 139.176C95.9534 139.328 95.7814 139.5 95.6454 139.692L94.5894 138.756C94.8454 138.38 95.1654 138.088 95.5494 137.88C95.9414 137.664 96.4694 137.556 97.1334 137.556C98.0294 137.556 98.7014 137.752 99.1494 138.144C99.5974 138.536 99.8214 139.108 99.8214 139.86V142.62H100.409V144H99.4254ZM96.9654 142.908C97.2614 142.908 97.5134 142.844 97.7214 142.716C97.9374 142.588 98.0454 142.38 98.0454 142.092V141.348H97.1814C96.4854 141.348 96.1374 141.584 96.1374 142.056V142.236C96.1374 142.468 96.2094 142.64 96.3534 142.752C96.4974 142.856 96.7014 142.908 96.9654 142.908ZM103.365 144C102.757 144 102.309 143.852 102.021 143.556C101.741 143.26 101.601 142.832 101.601 142.272V135.12H103.377V142.62H104.169V144H103.365ZM107.37 144.144C106.762 144.144 106.25 144.048 105.834 143.856C105.418 143.656 105.046 143.376 104.718 143.016L105.762 141.96C105.986 142.208 106.234 142.404 106.506 142.548C106.778 142.692 107.086 142.764 107.43 142.764C107.782 142.764 108.026 142.712 108.162 142.608C108.298 142.496 108.366 142.348 108.366 142.164C108.366 141.868 108.154 141.692 107.73 141.636L107.046 141.552C105.63 141.376 104.922 140.728 104.922 139.608C104.922 139.304 104.978 139.028 105.09 138.78C105.21 138.524 105.374 138.308 105.582 138.132C105.798 137.948 106.054 137.808 106.35 137.712C106.654 137.608 106.994 137.556 107.37 137.556C107.698 137.556 107.986 137.58 108.234 137.628C108.49 137.668 108.714 137.732 108.906 137.82C109.106 137.9 109.286 138.004 109.446 138.132C109.614 138.252 109.778 138.388 109.938 138.54L108.918 139.584C108.718 139.384 108.49 139.228 108.234 139.116C107.986 138.996 107.73 138.936 107.466 138.936C107.162 138.936 106.946 138.984 106.818 139.08C106.69 139.176 106.626 139.304 106.626 139.464C106.626 139.632 106.67 139.764 106.758 139.86C106.854 139.948 107.03 140.012 107.286 140.052L107.994 140.148C109.378 140.332 110.07 140.964 110.07 142.044C110.07 142.348 110.006 142.628 109.878 142.884C109.75 143.14 109.566 143.364 109.326 143.556C109.094 143.74 108.81 143.884 108.474 143.988C108.146 144.092 107.778 144.144 107.37 144.144ZM116.325 144C115.709 144 115.241 143.844 114.921 143.532C114.609 143.22 114.453 142.764 114.453 142.164V139.08H113.565V137.7H114.009C114.249 137.7 114.413 137.644 114.501 137.532C114.589 137.412 114.633 137.244 114.633 137.028V135.996H116.229V137.7H117.477V139.08H116.229V142.62H117.381V144H116.325ZM121.22 144.144C120.756 144.144 120.34 144.068 119.972 143.916C119.612 143.764 119.304 143.544 119.048 143.256C118.8 142.968 118.608 142.62 118.472 142.212C118.336 141.804 118.268 141.348 118.268 140.844C118.268 140.34 118.336 139.884 118.472 139.476C118.608 139.068 118.8 138.724 119.048 138.444C119.304 138.156 119.612 137.936 119.972 137.784C120.34 137.632 120.756 137.556 121.22 137.556C121.684 137.556 122.096 137.632 122.456 137.784C122.824 137.936 123.132 138.156 123.38 138.444C123.636 138.724 123.832 139.068 123.968 139.476C124.104 139.884 124.172 140.34 124.172 140.844C124.172 141.348 124.104 141.804 123.968 142.212C123.832 142.62 123.636 142.968 123.38 143.256C123.132 143.544 122.824 143.764 122.456 143.916C122.096 144.068 121.684 144.144 121.22 144.144ZM121.22 142.74C121.572 142.74 121.844 142.632 122.036 142.416C122.228 142.2 122.324 141.892 122.324 141.492V140.208C122.324 139.808 122.228 139.5 122.036 139.284C121.844 139.068 121.572 138.96 121.22 138.96C120.868 138.96 120.596 139.068 120.404 139.284C120.212 139.5 120.116 139.808 120.116 140.208V141.492C120.116 141.892 120.212 142.2 120.404 142.416C120.596 142.632 120.868 142.74 121.22 142.74ZM129.301 142.944H129.241C129.193 143.112 129.117 143.272 129.013 143.424C128.909 143.568 128.781 143.696 128.629 143.808C128.485 143.912 128.317 143.992 128.125 144.048C127.941 144.112 127.749 144.144 127.549 144.144C126.749 144.144 126.145 143.864 125.737 143.304C125.329 142.736 125.125 141.916 125.125 140.844C125.125 139.772 125.329 138.956 125.737 138.396C126.145 137.836 126.749 137.556 127.549 137.556C127.957 137.556 128.317 137.668 128.629 137.892C128.949 138.116 129.153 138.404 129.241 138.756H129.301V135.12H131.077V144H129.301V142.944ZM128.137 142.704C128.473 142.704 128.749 142.624 128.965 142.464C129.189 142.296 129.301 142.068 129.301 141.78V139.92C129.301 139.632 129.189 139.408 128.965 139.248C128.749 139.08 128.473 138.996 128.137 138.996C127.801 138.996 127.521 139.116 127.297 139.356C127.081 139.588 126.973 139.904 126.973 140.304V141.396C126.973 141.796 127.081 142.116 127.297 142.356C127.521 142.588 127.801 142.704 128.137 142.704ZM137.394 144C137.074 144 136.806 143.9 136.59 143.7C136.382 143.5 136.25 143.232 136.194 142.896H136.122C136.026 143.304 135.814 143.616 135.486 143.832C135.158 144.04 134.754 144.144 134.274 144.144C133.642 144.144 133.158 143.976 132.822 143.64C132.486 143.304 132.318 142.86 132.318 142.308C132.318 141.644 132.558 141.152 133.038 140.832C133.526 140.504 134.186 140.34 135.018 140.34H136.014V139.944C136.014 139.64 135.934 139.4 135.774 139.224C135.614 139.04 135.346 138.948 134.97 138.948C134.618 138.948 134.338 139.024 134.13 139.176C133.922 139.328 133.75 139.5 133.614 139.692L132.558 138.756C132.814 138.38 133.134 138.088 133.518 137.88C133.91 137.664 134.438 137.556 135.102 137.556C135.998 137.556 136.67 137.752 137.118 138.144C137.566 138.536 137.79 139.108 137.79 139.86V142.62H138.378V144H137.394ZM134.934 142.908C135.23 142.908 135.482 142.844 135.69 142.716C135.906 142.588 136.014 142.38 136.014 142.092V141.348H135.15C134.454 141.348 134.106 141.584 134.106 142.056V142.236C134.106 142.468 134.178 142.64 134.322 142.752C134.466 142.856 134.67 142.908 134.934 142.908ZM143.317 137.7H144.973L142.549 144.972C142.389 145.46 142.161 145.82 141.865 146.052C141.577 146.284 141.161 146.4 140.617 146.4H139.513V145.02H140.701L140.917 144.324L138.709 137.7H140.473L141.397 140.64L141.853 142.464H141.925L142.393 140.64L143.317 137.7Z" fill="white"/>
<g opacity="0.24">
<path d="M138.233 67.3999L163.5 93.7999L123 120.2H163.934C169.735 120.201 175.367 118.616 179.907 115.728C184.447 112.839 187.63 108.804 188.935 104.282L192.324 92.5375C193.192 89.529 193.201 86.4026 192.348 83.3911C191.496 80.3797 189.806 77.5609 187.403 75.1447C185 72.7285 181.947 70.7773 178.47 69.4363C174.993 68.0953 171.184 67.3993 167.324 67.3999H138.233Z" fill="white"/>
<path d="M295.956 97.691L274.899 108.667H306.183L303.645 120.2H256.609L260.292 103.484L289.267 88.341C290.211 87.8609 291.024 87.2325 291.655 86.4939C292.287 85.7552 292.724 84.9217 292.941 84.0438C293.11 83.408 293.101 82.75 292.913 82.1175C292.725 81.4851 292.363 80.8942 291.853 80.3877C291.337 79.914 290.697 79.5375 289.978 79.2854C289.258 79.0334 288.478 78.9119 287.693 78.9299H263.593L266.131 67.4046H289.983C292.577 67.3509 295.154 67.7592 297.527 68.6001C299.9 69.441 302.009 70.6934 303.703 72.2666C305.398 73.9244 306.609 75.8636 307.25 77.9431C307.89 80.0226 307.943 82.1901 307.405 84.288C306.723 87.0237 305.357 89.621 303.39 91.9241C301.422 94.2272 298.894 96.1887 295.956 97.691Z" fill="white"/>
<path d="M251.037 70.7403C248.839 69.454 246.31 68.5754 243.634 68.1681C240.495 67.6484 237.298 67.3926 234.093 67.4048H209.621L207.445 77.2433H229.389C230.808 77.2455 232.225 77.3066 233.635 77.4265C234.96 77.5291 236.252 77.8185 237.451 78.2813C238.575 78.6881 239.517 79.359 240.151 80.2048C240.775 81.2099 240.933 82.3589 240.6 83.4486C240.39 84.5645 239.85 85.6242 239.026 86.5399C238.296 87.338 237.359 87.9996 236.278 88.4786C235.189 88.9571 234.015 89.297 232.795 89.4861C231.538 89.6837 230.26 89.7834 228.979 89.7838H204.679L198 120.2H212.483L217.015 99.5917H227.643C230.953 99.61 234.255 99.3542 237.499 98.8285C240.467 98.3618 243.305 97.4697 245.876 96.1952C248.374 94.9089 250.496 93.2062 252.096 91.2034C253.934 88.8393 255.151 86.2009 255.674 83.4486C256.361 80.3193 256.266 77.7241 255.388 75.6633C254.59 73.7094 253.074 71.9936 251.037 70.7403Z" fill="white"/>
<path d="M369.773 75.6633C368.99 73.7095 367.483 71.9925 365.451 70.7402C363.256 69.4541 360.73 68.5754 358.057 68.168C354.918 67.6493 351.721 67.3935 348.516 67.4047H324.025L321.859 77.2432H343.851C345.266 77.2454 346.68 77.3066 348.087 77.4264C349.412 77.527 350.705 77.8165 351.903 78.2813C352.973 78.6996 353.866 79.3605 354.469 80.1818C355.093 81.1869 355.251 82.3359 354.918 83.4257C354.711 84.5409 354.174 85.6005 353.353 86.5169C352.62 87.3146 351.679 87.9759 350.596 88.4556C349.508 88.9353 348.333 89.2752 347.113 89.4631C345.856 89.6609 344.578 89.7606 343.297 89.7608H319.102L312.423 120.177H326.973L331.505 99.5688H342.124C345.436 99.587 348.742 99.3312 351.989 98.8055C354.935 98.3288 357.75 97.4316 360.299 96.157C362.8 94.871 364.925 93.1683 366.529 91.1652C368.359 88.7989 369.573 86.1612 370.097 83.4104C370.756 80.3192 370.651 77.7241 369.773 75.6633Z" fill="white"/>
</g>
</g>
</g>
<defs>
<filter id="filter0_dd" x="0" y="0" width="376" height="212" filterUnits="userSpaceOnUse" color-interpolation-filters="sRGB">
<feFlood flood-opacity="0" result="BackgroundImageFix"/>
<feColorMatrix in="SourceAlpha" type="matrix" values="0 0 0 0 0 0 0 0 0 0 0 0 0 0 0 0 0 0 127 0" result="hardAlpha"/>
<feOffset dy="24"/>
<feGaussianBlur stdDeviation="12"/>
<feColorMatrix type="matrix" values="0 0 0 0 0 0 0 0 0 0 0 0 0 0 0 0 0 0 0.08 0"/>
<feBlend mode="normal" in2="BackgroundImageFix" result="effect1_dropShadow"/>
<feColorMatrix in="SourceAlpha" type="matrix" values="0 0 0 0 0 0 0 0 0 0 0 0 0 0 0 0 0 0 127 0" result="hardAlpha"/>
<feOffset/>
<feGaussianBlur stdDeviation="12"/>
<feColorMatrix type="matrix" values="0 0 0 0 0 0 0 0 0 0 0 0 0 0 0 0 0 0 0.08 0"/>
<feBlend mode="normal" in2="effect1_dropShadow" result="effect2_dropShadow"/>
<feBlend mode="normal" in="SourceGraphic" in2="effect2_dropShadow" result="shape"/>
</filter>
<linearGradient id="paint0_linear" x1="188" y1="24" x2="188" y2="164" gradientUnits="userSpaceOnUse">
<stop stop-color="#5D7476"/>
<stop offset="1" stop-color="#85ACB0" stop-opacity="0.8"/>
</linearGradient>
<clipPath id="clip0">
<path d="M24 32C24 27.5817 27.5817 24 32 24H344C348.418 24 352 27.5817 352 32V156C352 160.418 348.418 164 344 164H32C27.5817 164 24 160.418 24 156V32Z" fill="white"/>
</clipPath>
</defs>
</svg>
