<svg id="Layer_1" data-name="Layer 1" xmlns="http://www.w3.org/2000/svg" viewBox="0 0 400 65.985"><defs><style>.cls-1{fill:#fff;}</style></defs><title>deriv-horizontal-white</title><path class="cls-1" d="M15.233,0l-.016.074L40.538,32.992.016,65.914,0,65.985H40.935a25.653,25.653,0,0,0,25-19.882l3.389-14.681A25.652,25.652,0,0,0,44.324,0Z"/><polygon class="cls-1" points="40.519 33.059 22.722 65.985 0 65.985 40.519 33.059"/><path class="cls-1" d="M101.852,0h25.735c20.738,0,32.556,14.234,29.282,32.8l-.034.188c-3.274,18.57-20.145,32.993-40.883,32.993H90.218Zm16.41,52.882a23.259,23.259,0,0,0,23.364-19.7l.033-.189C143.72,21.3,137.153,13.1,125.276,13.1H114.059l-7.014,39.779Z"/><path class="cls-1" d="M175.981,0h50.243l-2.277,12.914h-35.82L185.766,26.3H208.58L206.3,39.214H183.489l-2.443,13.857h35.82l-2.277,12.914H164.346Z"/><path class="cls-1" d="M273.058,42.419c8.938-3.111,15.868-9.8,17.746-20.455l.034-.189c1.1-6.221.031-11.406-3-15.082C284.27,2.357,278.181,0,269.792,0H239.627L227.992,65.985h14.517L251.833,13.1h14.423c7.069,0,10.841,3.205,9.744,9.426l-.034.189c-.98,5.561-5.7,9.332-12.768,9.332H252.26l15.794,33.935h16.968Z"/><path class="cls-1" d="M308.045,0h14.517L310.927,65.985H296.41Z"/><path class="cls-1" d="M334.3,0h15.911L359.2,46.143,384.463,0H400L361.878,65.985H349.149Z"/></svg>